  0
SECTION
  2
BLOCKS
  0
ENDSEC
  0
SECTION
  2
ENTITIES
  0
LINE
  8
0
 10
96.2453
 20
-12.994
 11
96.4901
 21
-12.9759
  0
LINE
  8
0
 10
96.4901
 20
-12.9759
 11
96.7336
 21
-12.9459
  0
LINE
  8
0
 10
96.7336
 20
-12.9459
 11
96.9754
 21
-12.9039
  0
LINE
  8
0
 10
96.9754
 20
-12.9039
 11
97.2149
 21
-12.8501
  0
LINE
  8
0
 10
97.2149
 20
-12.8501
 11
97.4514
 21
-12.7847
  0
LINE
  8
0
 10
97.4514
 20
-12.7847
 11
97.6844
 21
-12.7077
  0
LINE
  8
0
 10
97.6844
 20
-12.7077
 11
97.9134
 21
-12.6194
  0
LINE
  8
0
 10
97.9134
 20
-12.6194
 11
98.1378
 21
-12.5199
  0
LINE
  8
0
 10
98.1378
 20
-12.5199
 11
98.357
 21
-12.4096
  0
LINE
  8
0
 10
98.357
 20
-12.4096
 11
98.5705
 21
-12.2886
  0
LINE
  8
0
 10
98.5705
 20
-12.2886
 11
98.7778
 21
-12.1573
  0
LINE
  8
0
 10
98.7778
 20
-12.1573
 11
98.9785
 21
-12.016
  0
LINE
  8
0
 10
98.9785
 20
-12.016
 11
99.172
 21
-11.8651
  0
LINE
  8
0
 10
99.172
 20
-11.8651
 11
99.3578
 21
-11.7047
  0
LINE
  8
0
 10
99.3578
 20
-11.7047
 11
99.5355
 21
-11.5355
  0
LINE
  8
0
 10
99.5355
 20
-11.5355
 11
99.7047
 21
-11.3578
  0
LINE
  8
0
 10
99.7047
 20
-11.3578
 11
99.8651
 21
-11.172
  0
LINE
  8
0
 10
99.8651
 20
-11.172
 11
100.016
 21
-10.9785
  0
LINE
  8
0
 10
100.016
 20
-10.9785
 11
100.157
 21
-10.7778
  0
LINE
  8
0
 10
100.157
 20
-10.7778
 11
100.289
 21
-10.5705
  0
LINE
  8
0
 10
100.289
 20
-10.5705
 11
100.41
 21
-10.357
  0
LINE
  8
0
 10
100.41
 20
-10.357
 11
100.52
 21
-10.1378
  0
LINE
  8
0
 10
100.52
 20
-10.1378
 11
100.619
 21
-9.91341
  0
LINE
  8
0
 10
100.619
 20
-9.91341
 11
100.708
 21
-9.68445
  0
LINE
  8
0
 10
100.708
 20
-9.68445
 11
100.785
 21
-9.45142
  0
LINE
  8
0
 10
100.785
 20
-9.45142
 11
100.85
 21
-9.21489
  0
LINE
  8
0
 10
100.85
 20
-9.21489
 11
100.904
 21
-8.97545
  0
LINE
  8
0
 10
100.904
 20
-8.97545
 11
100.946
 21
-8.73364
  0
LINE
  8
0
 10
100.946
 20
-8.73364
 11
100.976
 21
-8.49008
  0
LINE
  8
0
 10
100.976
 20
-8.49008
 11
100.994
 21
-8.24533
  0
LINE
  8
0
 10
100.994
 20
-8.24533
 11
101
 21
-8
  0
LINE
  8
0
 10
101
 20
-8
 11
101
 21
148.5
  0
LINE
  8
0
 10
101
 20
148.5
 11
100.994
 21
148.745
  0
LINE
  8
0
 10
100.994
 20
148.745
 11
100.976
 21
148.99
  0
LINE
  8
0
 10
100.976
 20
148.99
 11
100.946
 21
149.234
  0
LINE
  8
0
 10
100.946
 20
149.234
 11
100.904
 21
149.475
  0
LINE
  8
0
 10
100.904
 20
149.475
 11
100.85
 21
149.715
  0
LINE
  8
0
 10
100.85
 20
149.715
 11
100.785
 21
149.951
  0
LINE
  8
0
 10
100.785
 20
149.951
 11
100.708
 21
150.184
  0
LINE
  8
0
 10
100.708
 20
150.184
 11
100.619
 21
150.413
  0
LINE
  8
0
 10
100.619
 20
150.413
 11
100.52
 21
150.638
  0
LINE
  8
0
 10
100.52
 20
150.638
 11
100.41
 21
150.857
  0
LINE
  8
0
 10
100.41
 20
150.857
 11
100.289
 21
151.071
  0
LINE
  8
0
 10
100.289
 20
151.071
 11
100.157
 21
151.278
  0
LINE
  8
0
 10
100.157
 20
151.278
 11
100.016
 21
151.478
  0
LINE
  8
0
 10
100.016
 20
151.478
 11
99.8651
 21
151.672
  0
LINE
  8
0
 10
99.8651
 20
151.672
 11
99.7047
 21
151.858
  0
LINE
  8
0
 10
99.7047
 20
151.858
 11
99.5355
 21
152.036
  0
LINE
  8
0
 10
99.5355
 20
152.036
 11
99.3578
 21
152.205
  0
LINE
  8
0
 10
99.3578
 20
152.205
 11
99.172
 21
152.365
  0
LINE
  8
0
 10
99.172
 20
152.365
 11
98.9785
 21
152.516
  0
LINE
  8
0
 10
98.9785
 20
152.516
 11
98.7778
 21
152.657
  0
LINE
  8
0
 10
98.7778
 20
152.657
 11
98.5705
 21
152.789
  0
LINE
  8
0
 10
98.5705
 20
152.789
 11
98.357
 21
152.91
  0
LINE
  8
0
 10
98.357
 20
152.91
 11
98.1378
 21
153.02
  0
LINE
  8
0
 10
98.1378
 20
153.02
 11
97.9134
 21
153.119
  0
LINE
  8
0
 10
97.9134
 20
153.119
 11
97.6844
 21
153.208
  0
LINE
  8
0
 10
97.6844
 20
153.208
 11
97.4514
 21
153.285
  0
LINE
  8
0
 10
97.4514
 20
153.285
 11
97.2149
 21
153.35
  0
LINE
  8
0
 10
97.2149
 20
153.35
 11
96.9754
 21
153.404
  0
LINE
  8
0
 10
96.9754
 20
153.404
 11
96.7336
 21
153.446
  0
LINE
  8
0
 10
96.7336
 20
153.446
 11
96.4901
 21
153.476
  0
LINE
  8
0
 10
96.4901
 20
153.476
 11
96.2453
 21
153.494
  0
LINE
  8
0
 10
96.2453
 20
153.494
 11
96
 21
153.5
  0
LINE
  8
0
 10
96
 20
153.5
 11
-8
 21
153.5
  0
LINE
  8
0
 10
-8
 20
153.5
 11
-8.24533
 21
153.494
  0
LINE
  8
0
 10
-8.24533
 20
153.494
 11
-8.49008
 21
153.476
  0
LINE
  8
0
 10
-8.49008
 20
153.476
 11
-8.73364
 21
153.446
  0
LINE
  8
0
 10
-8.73364
 20
153.446
 11
-8.97545
 21
153.404
  0
LINE
  8
0
 10
-8.97545
 20
153.404
 11
-9.21489
 21
153.35
  0
LINE
  8
0
 10
-9.21489
 20
153.35
 11
-9.45142
 21
153.285
  0
LINE
  8
0
 10
-9.45142
 20
153.285
 11
-9.68445
 21
153.208
  0
LINE
  8
0
 10
-9.68445
 20
153.208
 11
-9.91341
 21
153.119
  0
LINE
  8
0
 10
-9.91341
 20
153.119
 11
-10.1378
 21
153.02
  0
LINE
  8
0
 10
-10.1378
 20
153.02
 11
-10.357
 21
152.91
  0
LINE
  8
0
 10
-10.357
 20
152.91
 11
-10.5705
 21
152.789
  0
LINE
  8
0
 10
-10.5705
 20
152.789
 11
-10.7778
 21
152.657
  0
LINE
  8
0
 10
-10.7778
 20
152.657
 11
-10.9785
 21
152.516
  0
LINE
  8
0
 10
-10.9785
 20
152.516
 11
-11.172
 21
152.365
  0
LINE
  8
0
 10
-11.172
 20
152.365
 11
-11.3578
 21
152.205
  0
LINE
  8
0
 10
-11.3578
 20
152.205
 11
-11.5355
 21
152.036
  0
LINE
  8
0
 10
-11.5355
 20
152.036
 11
-11.7047
 21
151.858
  0
LINE
  8
0
 10
-11.7047
 20
151.858
 11
-11.8651
 21
151.672
  0
LINE
  8
0
 10
-11.8651
 20
151.672
 11
-12.016
 21
151.478
  0
LINE
  8
0
 10
-12.016
 20
151.478
 11
-12.1573
 21
151.278
  0
LINE
  8
0
 10
-12.1573
 20
151.278
 11
-12.2886
 21
151.071
  0
LINE
  8
0
 10
-12.2886
 20
151.071
 11
-12.4096
 21
150.857
  0
LINE
  8
0
 10
-12.4096
 20
150.857
 11
-12.5199
 21
150.638
  0
LINE
  8
0
 10
-12.5199
 20
150.638
 11
-12.6194
 21
150.413
  0
LINE
  8
0
 10
-12.6194
 20
150.413
 11
-12.7077
 21
150.184
  0
LINE
  8
0
 10
-12.7077
 20
150.184
 11
-12.7847
 21
149.951
  0
LINE
  8
0
 10
-12.7847
 20
149.951
 11
-12.8501
 21
149.715
  0
LINE
  8
0
 10
-12.8501
 20
149.715
 11
-12.9039
 21
149.475
  0
LINE
  8
0
 10
-12.9039
 20
149.475
 11
-12.9459
 21
149.234
  0
LINE
  8
0
 10
-12.9459
 20
149.234
 11
-12.9759
 21
148.99
  0
LINE
  8
0
 10
-12.9759
 20
148.99
 11
-12.994
 21
148.745
  0
LINE
  8
0
 10
-12.994
 20
148.745
 11
-13
 21
148.5
  0
LINE
  8
0
 10
-13
 20
148.5
 11
-13
 21
-8
  0
LINE
  8
0
 10
-13
 20
-8
 11
-12.994
 21
-8.24533
  0
LINE
  8
0
 10
-12.994
 20
-8.24533
 11
-12.9759
 21
-8.49008
  0
LINE
  8
0
 10
-12.9759
 20
-8.49008
 11
-12.9459
 21
-8.73364
  0
LINE
  8
0
 10
-12.9459
 20
-8.73364
 11
-12.9039
 21
-8.97545
  0
LINE
  8
0
 10
-12.9039
 20
-8.97545
 11
-12.8501
 21
-9.21489
  0
LINE
  8
0
 10
-12.8501
 20
-9.21489
 11
-12.7847
 21
-9.45142
  0
LINE
  8
0
 10
-12.7847
 20
-9.45142
 11
-12.7077
 21
-9.68445
  0
LINE
  8
0
 10
-12.7077
 20
-9.68445
 11
-12.6194
 21
-9.91341
  0
LINE
  8
0
 10
-12.6194
 20
-9.91341
 11
-12.5199
 21
-10.1378
  0
LINE
  8
0
 10
-12.5199
 20
-10.1378
 11
-12.4096
 21
-10.357
  0
LINE
  8
0
 10
-12.4096
 20
-10.357
 11
-12.2886
 21
-10.5705
  0
LINE
  8
0
 10
-12.2886
 20
-10.5705
 11
-12.1573
 21
-10.7778
  0
LINE
  8
0
 10
-12.1573
 20
-10.7778
 11
-12.016
 21
-10.9785
  0
LINE
  8
0
 10
-12.016
 20
-10.9785
 11
-11.8651
 21
-11.172
  0
LINE
  8
0
 10
-11.8651
 20
-11.172
 11
-11.7047
 21
-11.3578
  0
LINE
  8
0
 10
-11.7047
 20
-11.3578
 11
-11.5355
 21
-11.5355
  0
LINE
  8
0
 10
-11.5355
 20
-11.5355
 11
-11.3578
 21
-11.7047
  0
LINE
  8
0
 10
-11.3578
 20
-11.7047
 11
-11.172
 21
-11.8651
  0
LINE
  8
0
 10
-11.172
 20
-11.8651
 11
-10.9785
 21
-12.016
  0
LINE
  8
0
 10
-10.9785
 20
-12.016
 11
-10.7778
 21
-12.1573
  0
LINE
  8
0
 10
-10.7778
 20
-12.1573
 11
-10.5705
 21
-12.2886
  0
LINE
  8
0
 10
-10.5705
 20
-12.2886
 11
-10.357
 21
-12.4096
  0
LINE
  8
0
 10
-10.357
 20
-12.4096
 11
-10.1378
 21
-12.5199
  0
LINE
  8
0
 10
-10.1378
 20
-12.5199
 11
-9.91341
 21
-12.6194
  0
LINE
  8
0
 10
-9.91341
 20
-12.6194
 11
-9.68445
 21
-12.7077
  0
LINE
  8
0
 10
-9.68445
 20
-12.7077
 11
-9.45142
 21
-12.7847
  0
LINE
  8
0
 10
-9.45142
 20
-12.7847
 11
-9.21489
 21
-12.8501
  0
LINE
  8
0
 10
-9.21489
 20
-12.8501
 11
-8.97545
 21
-12.9039
  0
LINE
  8
0
 10
-8.97545
 20
-12.9039
 11
-8.73364
 21
-12.9459
  0
LINE
  8
0
 10
-8.73364
 20
-12.9459
 11
-8.49008
 21
-12.9759
  0
LINE
  8
0
 10
-8.49008
 20
-12.9759
 11
-8.24533
 21
-12.994
  0
LINE
  8
0
 10
-8.24533
 20
-12.994
 11
-8
 21
-13
  0
LINE
  8
0
 10
-8
 20
-13
 11
96
 21
-13
  0
LINE
  8
0
 10
96
 20
-13
 11
96.2453
 21
-12.994
  0
LINE
  8
0
 10
6.52148
 20
135.802
 11
6.44316
 21
135.808
  0
LINE
  8
0
 10
6.44316
 20
135.808
 11
6.36522
 21
135.817
  0
LINE
  8
0
 10
6.36522
 20
135.817
 11
6.28784
 21
135.831
  0
LINE
  8
0
 10
6.28784
 20
135.831
 11
6.21123
 21
135.848
  0
LINE
  8
0
 10
6.21123
 20
135.848
 11
6.13554
 21
135.869
  0
LINE
  8
0
 10
6.13554
 20
135.869
 11
6.06097
 21
135.894
  0
LINE
  8
0
 10
6.06097
 20
135.894
 11
5.9877
 21
135.922
  0
LINE
  8
0
 10
5.9877
 20
135.922
 11
5.91591
 21
135.954
  0
LINE
  8
0
 10
5.91591
 20
135.954
 11
5.84576
 21
135.989
  0
LINE
  8
0
 10
5.84576
 20
135.989
 11
5.77744
 21
136.028
  0
LINE
  8
0
 10
5.77744
 20
136.028
 11
5.71107
 21
136.07
  0
LINE
  8
0
 10
5.71107
 20
136.07
 11
5.64688
 21
136.115
  0
LINE
  8
0
 10
5.64688
 20
136.115
 11
5.58496
 21
136.163
  0
LINE
  8
0
 10
5.58496
 20
136.163
 11
5.5255
 21
136.214
  0
LINE
  8
0
 10
5.5255
 20
136.214
 11
5.46863
 21
136.269
  0
LINE
  8
0
 10
5.46863
 20
136.269
 11
5.41447
 21
136.326
  0
LINE
  8
0
 10
5.41447
 20
136.326
 11
5.36317
 21
136.385
  0
LINE
  8
0
 10
5.36317
 20
136.385
 11
5.31487
 21
136.447
  0
LINE
  8
0
 10
5.31487
 20
136.447
 11
5.26964
 21
136.511
  0
LINE
  8
0
 10
5.26964
 20
136.511
 11
5.22763
 21
136.577
  0
LINE
  8
0
 10
5.22763
 20
136.577
 11
5.18892
 21
136.646
  0
LINE
  8
0
 10
5.18892
 20
136.646
 11
5.15361
 21
136.716
  0
LINE
  8
0
 10
5.15361
 20
136.716
 11
5.12178
 21
136.788
  0
LINE
  8
0
 10
5.12178
 20
136.788
 11
5.09352
 21
136.861
  0
LINE
  8
0
 10
5.09352
 20
136.861
 11
5.06889
 21
136.936
  0
LINE
  8
0
 10
5.06889
 20
136.936
 11
5.04794
 21
137.011
  0
LINE
  8
0
 10
5.04794
 20
137.011
 11
5.03073
 21
137.088
  0
LINE
  8
0
 10
5.03073
 20
137.088
 11
5.0173
 21
137.165
  0
LINE
  8
0
 10
5.0173
 20
137.165
 11
5.00769
 21
137.243
  0
LINE
  8
0
 10
5.00769
 20
137.243
 11
5.00192
 21
137.321
  0
LINE
  8
0
 10
5.00192
 20
137.321
 11
5
 21
137.4
  0
LINE
  8
0
 10
5
 20
137.4
 11
5.00192
 21
137.479
  0
LINE
  8
0
 10
5.00192
 20
137.479
 11
5.00769
 21
137.557
  0
LINE
  8
0
 10
5.00769
 20
137.557
 11
5.0173
 21
137.635
  0
LINE
  8
0
 10
5.0173
 20
137.635
 11
5.03073
 21
137.712
  0
LINE
  8
0
 10
5.03073
 20
137.712
 11
5.04794
 21
137.789
  0
LINE
  8
0
 10
5.04794
 20
137.789
 11
5.06889
 21
137.864
  0
LINE
  8
0
 10
5.06889
 20
137.864
 11
5.09352
 21
137.939
  0
LINE
  8
0
 10
5.09352
 20
137.939
 11
5.12178
 21
138.012
  0
LINE
  8
0
 10
5.12178
 20
138.012
 11
5.15361
 21
138.084
  0
LINE
  8
0
 10
5.15361
 20
138.084
 11
5.18892
 21
138.154
  0
LINE
  8
0
 10
5.18892
 20
138.154
 11
5.22763
 21
138.223
  0
LINE
  8
0
 10
5.22763
 20
138.223
 11
5.26964
 21
138.289
  0
LINE
  8
0
 10
5.26964
 20
138.289
 11
5.31487
 21
138.353
  0
LINE
  8
0
 10
5.31487
 20
138.353
 11
5.36317
 21
138.415
  0
LINE
  8
0
 10
5.36317
 20
138.415
 11
5.41447
 21
138.474
  0
LINE
  8
0
 10
5.41447
 20
138.474
 11
5.46863
 21
138.531
  0
LINE
  8
0
 10
5.46863
 20
138.531
 11
5.5255
 21
138.586
  0
LINE
  8
0
 10
5.5255
 20
138.586
 11
5.58496
 21
138.637
  0
LINE
  8
0
 10
5.58496
 20
138.637
 11
5.64688
 21
138.685
  0
LINE
  8
0
 10
5.64688
 20
138.685
 11
5.71107
 21
138.73
  0
LINE
  8
0
 10
5.71107
 20
138.73
 11
5.77744
 21
138.772
  0
LINE
  8
0
 10
5.77744
 20
138.772
 11
5.84576
 21
138.811
  0
LINE
  8
0
 10
5.84576
 20
138.811
 11
5.91591
 21
138.846
  0
LINE
  8
0
 10
5.91591
 20
138.846
 11
5.9877
 21
138.878
  0
LINE
  8
0
 10
5.9877
 20
138.878
 11
6.06097
 21
138.906
  0
LINE
  8
0
 10
6.06097
 20
138.906
 11
6.13554
 21
138.931
  0
LINE
  8
0
 10
6.13554
 20
138.931
 11
6.21123
 21
138.952
  0
LINE
  8
0
 10
6.21123
 20
138.952
 11
6.28784
 21
138.969
  0
LINE
  8
0
 10
6.28784
 20
138.969
 11
6.36522
 21
138.983
  0
LINE
  8
0
 10
6.36522
 20
138.983
 11
6.44316
 21
138.992
  0
LINE
  8
0
 10
6.44316
 20
138.992
 11
6.52148
 21
138.998
  0
LINE
  8
0
 10
6.52148
 20
138.998
 11
6.59999
 21
139
  0
LINE
  8
0
 10
6.59999
 20
139
 11
6.6785
 21
138.998
  0
LINE
  8
0
 10
6.6785
 20
138.998
 11
6.75682
 21
138.992
  0
LINE
  8
0
 10
6.75682
 20
138.992
 11
6.83476
 21
138.983
  0
LINE
  8
0
 10
6.83476
 20
138.983
 11
6.91214
 21
138.969
  0
LINE
  8
0
 10
6.91214
 20
138.969
 11
6.98875
 21
138.952
  0
LINE
  8
0
 10
6.98875
 20
138.952
 11
7.06445
 21
138.931
  0
LINE
  8
0
 10
7.06445
 20
138.931
 11
7.13902
 21
138.906
  0
LINE
  8
0
 10
7.13902
 20
138.906
 11
7.21228
 21
138.878
  0
LINE
  8
0
 10
7.21228
 20
138.878
 11
7.28409
 21
138.846
  0
LINE
  8
0
 10
7.28409
 20
138.846
 11
7.35423
 21
138.811
  0
LINE
  8
0
 10
7.35423
 20
138.811
 11
7.42256
 21
138.772
  0
LINE
  8
0
 10
7.42256
 20
138.772
 11
7.48891
 21
138.73
  0
LINE
  8
0
 10
7.48891
 20
138.73
 11
7.55312
 21
138.685
  0
LINE
  8
0
 10
7.55312
 20
138.685
 11
7.61502
 21
138.637
  0
LINE
  8
0
 10
7.61502
 20
138.637
 11
7.67448
 21
138.586
  0
LINE
  8
0
 10
7.67448
 20
138.586
 11
7.73137
 21
138.531
  0
LINE
  8
0
 10
7.73137
 20
138.531
 11
7.78551
 21
138.474
  0
LINE
  8
0
 10
7.78551
 20
138.474
 11
7.83681
 21
138.415
  0
LINE
  8
0
 10
7.83681
 20
138.415
 11
7.88513
 21
138.353
  0
LINE
  8
0
 10
7.88513
 20
138.353
 11
7.93034
 21
138.289
  0
LINE
  8
0
 10
7.93034
 20
138.289
 11
7.97235
 21
138.223
  0
LINE
  8
0
 10
7.97235
 20
138.223
 11
8.01106
 21
138.154
  0
LINE
  8
0
 10
8.01106
 20
138.154
 11
8.04637
 21
138.084
  0
LINE
  8
0
 10
8.04637
 20
138.084
 11
8.0782
 21
138.012
  0
LINE
  8
0
 10
8.0782
 20
138.012
 11
8.10646
 21
137.939
  0
LINE
  8
0
 10
8.10646
 20
137.939
 11
8.1311
 21
137.864
  0
LINE
  8
0
 10
8.1311
 20
137.864
 11
8.15204
 21
137.789
  0
LINE
  8
0
 10
8.15204
 20
137.789
 11
8.16925
 21
137.712
  0
LINE
  8
0
 10
8.16925
 20
137.712
 11
8.18268
 21
137.635
  0
LINE
  8
0
 10
8.18268
 20
137.635
 11
8.19229
 21
137.557
  0
LINE
  8
0
 10
8.19229
 20
137.557
 11
8.19806
 21
137.479
  0
LINE
  8
0
 10
8.19806
 20
137.479
 11
8.2
 21
137.4
  0
LINE
  8
0
 10
8.2
 20
137.4
 11
8.19806
 21
137.321
  0
LINE
  8
0
 10
8.19806
 20
137.321
 11
8.19229
 21
137.243
  0
LINE
  8
0
 10
8.19229
 20
137.243
 11
8.18268
 21
137.165
  0
LINE
  8
0
 10
8.18268
 20
137.165
 11
8.16925
 21
137.088
  0
LINE
  8
0
 10
8.16925
 20
137.088
 11
8.15204
 21
137.011
  0
LINE
  8
0
 10
8.15204
 20
137.011
 11
8.1311
 21
136.936
  0
LINE
  8
0
 10
8.1311
 20
136.936
 11
8.10646
 21
136.861
  0
LINE
  8
0
 10
8.10646
 20
136.861
 11
8.0782
 21
136.788
  0
LINE
  8
0
 10
8.0782
 20
136.788
 11
8.04637
 21
136.716
  0
LINE
  8
0
 10
8.04637
 20
136.716
 11
8.01106
 21
136.646
  0
LINE
  8
0
 10
8.01106
 20
136.646
 11
7.97235
 21
136.577
  0
LINE
  8
0
 10
7.97235
 20
136.577
 11
7.93034
 21
136.511
  0
LINE
  8
0
 10
7.93034
 20
136.511
 11
7.88513
 21
136.447
  0
LINE
  8
0
 10
7.88513
 20
136.447
 11
7.83681
 21
136.385
  0
LINE
  8
0
 10
7.83681
 20
136.385
 11
7.78551
 21
136.326
  0
LINE
  8
0
 10
7.78551
 20
136.326
 11
7.73137
 21
136.269
  0
LINE
  8
0
 10
7.73137
 20
136.269
 11
7.67448
 21
136.214
  0
LINE
  8
0
 10
7.67448
 20
136.214
 11
7.61502
 21
136.163
  0
LINE
  8
0
 10
7.61502
 20
136.163
 11
7.55312
 21
136.115
  0
LINE
  8
0
 10
7.55312
 20
136.115
 11
7.48891
 21
136.07
  0
LINE
  8
0
 10
7.48891
 20
136.07
 11
7.42256
 21
136.028
  0
LINE
  8
0
 10
7.42256
 20
136.028
 11
7.35423
 21
135.989
  0
LINE
  8
0
 10
7.35423
 20
135.989
 11
7.28409
 21
135.954
  0
LINE
  8
0
 10
7.28409
 20
135.954
 11
7.21228
 21
135.922
  0
LINE
  8
0
 10
7.21228
 20
135.922
 11
7.13902
 21
135.894
  0
LINE
  8
0
 10
7.13902
 20
135.894
 11
7.06445
 21
135.869
  0
LINE
  8
0
 10
7.06445
 20
135.869
 11
6.98875
 21
135.848
  0
LINE
  8
0
 10
6.98875
 20
135.848
 11
6.91214
 21
135.831
  0
LINE
  8
0
 10
6.91214
 20
135.831
 11
6.83476
 21
135.817
  0
LINE
  8
0
 10
6.83476
 20
135.817
 11
6.75682
 21
135.808
  0
LINE
  8
0
 10
6.75682
 20
135.808
 11
6.6785
 21
135.802
  0
LINE
  8
0
 10
6.6785
 20
135.802
 11
6.59999
 21
135.8
  0
LINE
  8
0
 10
6.59999
 20
135.8
 11
6.52148
 21
135.802
  0
LINE
  8
0
 10
78.0465
 20
58.6519
 11
77.9682
 21
58.6577
  0
LINE
  8
0
 10
77.9682
 20
58.6577
 11
77.8902
 21
58.6673
  0
LINE
  8
0
 10
77.8902
 20
58.6673
 11
77.8129
 21
58.6807
  0
LINE
  8
0
 10
77.8129
 20
58.6807
 11
77.7362
 21
58.6979
  0
LINE
  8
0
 10
77.7362
 20
58.6979
 11
77.6605
 21
58.7189
  0
LINE
  8
0
 10
77.6605
 20
58.7189
 11
77.586
 21
58.7435
  0
LINE
  8
0
 10
77.586
 20
58.7435
 11
77.5127
 21
58.7718
  0
LINE
  8
0
 10
77.5127
 20
58.7718
 11
77.4409
 21
58.8036
  0
LINE
  8
0
 10
77.4409
 20
58.8036
 11
77.3708
 21
58.8389
  0
LINE
  8
0
 10
77.3708
 20
58.8389
 11
77.3024
 21
58.8776
  0
LINE
  8
0
 10
77.3024
 20
58.8776
 11
77.2361
 21
58.9196
  0
LINE
  8
0
 10
77.2361
 20
58.9196
 11
77.1719
 21
58.9649
  0
LINE
  8
0
 10
77.1719
 20
58.9649
 11
77.11
 21
59.0132
  0
LINE
  8
0
 10
77.11
 20
59.0132
 11
77.0505
 21
59.0645
  0
LINE
  8
0
 10
77.0505
 20
59.0645
 11
76.9936
 21
59.1186
  0
LINE
  8
0
 10
76.9936
 20
59.1186
 11
76.9395
 21
59.1755
  0
LINE
  8
0
 10
76.9395
 20
59.1755
 11
76.8882
 21
59.235
  0
LINE
  8
0
 10
76.8882
 20
59.235
 11
76.8399
 21
59.2969
  0
LINE
  8
0
 10
76.8399
 20
59.2969
 11
76.7946
 21
59.3611
  0
LINE
  8
0
 10
76.7946
 20
59.3611
 11
76.7526
 21
59.4274
  0
LINE
  8
0
 10
76.7526
 20
59.4274
 11
76.7139
 21
59.4958
  0
LINE
  8
0
 10
76.7139
 20
59.4958
 11
76.6786
 21
59.5659
  0
LINE
  8
0
 10
76.6786
 20
59.5659
 11
76.6468
 21
59.6377
  0
LINE
  8
0
 10
76.6468
 20
59.6377
 11
76.6185
 21
59.711
  0
LINE
  8
0
 10
76.6185
 20
59.711
 11
76.5939
 21
59.7855
  0
LINE
  8
0
 10
76.5939
 20
59.7855
 11
76.5729
 21
59.8612
  0
LINE
  8
0
 10
76.5729
 20
59.8612
 11
76.5557
 21
59.9379
  0
LINE
  8
0
 10
76.5557
 20
59.9379
 11
76.5423
 21
60.0152
  0
LINE
  8
0
 10
76.5423
 20
60.0152
 11
76.5327
 21
60.0932
  0
LINE
  8
0
 10
76.5327
 20
60.0932
 11
76.5269
 21
60.1715
  0
LINE
  8
0
 10
76.5269
 20
60.1715
 11
76.525
 21
60.25
  0
LINE
  8
0
 10
76.525
 20
60.25
 11
76.5269
 21
60.3285
  0
LINE
  8
0
 10
76.5269
 20
60.3285
 11
76.5327
 21
60.4068
  0
LINE
  8
0
 10
76.5327
 20
60.4068
 11
76.5423
 21
60.4848
  0
LINE
  8
0
 10
76.5423
 20
60.4848
 11
76.5557
 21
60.5621
  0
LINE
  8
0
 10
76.5557
 20
60.5621
 11
76.5729
 21
60.6388
  0
LINE
  8
0
 10
76.5729
 20
60.6388
 11
76.5939
 21
60.7144
  0
LINE
  8
0
 10
76.5939
 20
60.7144
 11
76.6185
 21
60.789
  0
LINE
  8
0
 10
76.6185
 20
60.789
 11
76.6468
 21
60.8623
  0
LINE
  8
0
 10
76.6468
 20
60.8623
 11
76.6786
 21
60.9341
  0
LINE
  8
0
 10
76.6786
 20
60.9341
 11
76.7139
 21
61.0042
  0
LINE
  8
0
 10
76.7139
 20
61.0042
 11
76.7526
 21
61.0726
  0
LINE
  8
0
 10
76.7526
 20
61.0726
 11
76.7946
 21
61.1389
  0
LINE
  8
0
 10
76.7946
 20
61.1389
 11
76.8399
 21
61.2031
  0
LINE
  8
0
 10
76.8399
 20
61.2031
 11
76.8882
 21
61.265
  0
LINE
  8
0
 10
76.8882
 20
61.265
 11
76.9395
 21
61.3245
  0
LINE
  8
0
 10
76.9395
 20
61.3245
 11
76.9936
 21
61.3814
  0
LINE
  8
0
 10
76.9936
 20
61.3814
 11
77.0505
 21
61.4355
  0
LINE
  8
0
 10
77.0505
 20
61.4355
 11
77.11
 21
61.4868
  0
LINE
  8
0
 10
77.11
 20
61.4868
 11
77.1719
 21
61.5351
  0
LINE
  8
0
 10
77.1719
 20
61.5351
 11
77.2361
 21
61.5803
  0
LINE
  8
0
 10
77.2361
 20
61.5803
 11
77.3024
 21
61.6224
  0
LINE
  8
0
 10
77.3024
 20
61.6224
 11
77.3708
 21
61.6611
  0
LINE
  8
0
 10
77.3708
 20
61.6611
 11
77.4409
 21
61.6964
  0
LINE
  8
0
 10
77.4409
 20
61.6964
 11
77.5127
 21
61.7282
  0
LINE
  8
0
 10
77.5127
 20
61.7282
 11
77.586
 21
61.7565
  0
LINE
  8
0
 10
77.586
 20
61.7565
 11
77.6605
 21
61.7811
  0
LINE
  8
0
 10
77.6605
 20
61.7811
 11
77.7362
 21
61.802
  0
LINE
  8
0
 10
77.7362
 20
61.802
 11
77.8129
 21
61.8192
  0
LINE
  8
0
 10
77.8129
 20
61.8192
 11
77.8902
 21
61.8327
  0
LINE
  8
0
 10
77.8902
 20
61.8327
 11
77.9682
 21
61.8423
  0
LINE
  8
0
 10
77.9682
 20
61.8423
 11
78.0465
 21
61.8481
  0
LINE
  8
0
 10
78.0465
 20
61.8481
 11
78.125
 21
61.85
  0
LINE
  8
0
 10
78.125
 20
61.85
 11
78.2035
 21
61.8481
  0
LINE
  8
0
 10
78.2035
 20
61.8481
 11
78.2818
 21
61.8423
  0
LINE
  8
0
 10
78.2818
 20
61.8423
 11
78.3598
 21
61.8327
  0
LINE
  8
0
 10
78.3598
 20
61.8327
 11
78.4371
 21
61.8192
  0
LINE
  8
0
 10
78.4371
 20
61.8192
 11
78.5138
 21
61.802
  0
LINE
  8
0
 10
78.5138
 20
61.802
 11
78.5894
 21
61.7811
  0
LINE
  8
0
 10
78.5894
 20
61.7811
 11
78.664
 21
61.7565
  0
LINE
  8
0
 10
78.664
 20
61.7565
 11
78.7373
 21
61.7282
  0
LINE
  8
0
 10
78.7373
 20
61.7282
 11
78.8091
 21
61.6964
  0
LINE
  8
0
 10
78.8091
 20
61.6964
 11
78.8792
 21
61.6611
  0
LINE
  8
0
 10
78.8792
 20
61.6611
 11
78.9476
 21
61.6224
  0
LINE
  8
0
 10
78.9476
 20
61.6224
 11
79.0139
 21
61.5803
  0
LINE
  8
0
 10
79.0139
 20
61.5803
 11
79.0781
 21
61.5351
  0
LINE
  8
0
 10
79.0781
 20
61.5351
 11
79.14
 21
61.4868
  0
LINE
  8
0
 10
79.14
 20
61.4868
 11
79.1995
 21
61.4355
  0
LINE
  8
0
 10
79.1995
 20
61.4355
 11
79.2564
 21
61.3814
  0
LINE
  8
0
 10
79.2564
 20
61.3814
 11
79.3105
 21
61.3245
  0
LINE
  8
0
 10
79.3105
 20
61.3245
 11
79.3618
 21
61.265
  0
LINE
  8
0
 10
79.3618
 20
61.265
 11
79.4101
 21
61.2031
  0
LINE
  8
0
 10
79.4101
 20
61.2031
 11
79.4553
 21
61.1389
  0
LINE
  8
0
 10
79.4553
 20
61.1389
 11
79.4974
 21
61.0726
  0
LINE
  8
0
 10
79.4974
 20
61.0726
 11
79.5361
 21
61.0042
  0
LINE
  8
0
 10
79.5361
 20
61.0042
 11
79.5714
 21
60.9341
  0
LINE
  8
0
 10
79.5714
 20
60.9341
 11
79.6032
 21
60.8623
  0
LINE
  8
0
 10
79.6032
 20
60.8623
 11
79.6315
 21
60.789
  0
LINE
  8
0
 10
79.6315
 20
60.789
 11
79.6561
 21
60.7144
  0
LINE
  8
0
 10
79.6561
 20
60.7144
 11
79.677
 21
60.6388
  0
LINE
  8
0
 10
79.677
 20
60.6388
 11
79.6942
 21
60.5621
  0
LINE
  8
0
 10
79.6942
 20
60.5621
 11
79.7077
 21
60.4848
  0
LINE
  8
0
 10
79.7077
 20
60.4848
 11
79.7173
 21
60.4068
  0
LINE
  8
0
 10
79.7173
 20
60.4068
 11
79.7231
 21
60.3285
  0
LINE
  8
0
 10
79.7231
 20
60.3285
 11
79.725
 21
60.25
  0
LINE
  8
0
 10
79.725
 20
60.25
 11
79.7231
 21
60.1715
  0
LINE
  8
0
 10
79.7231
 20
60.1715
 11
79.7173
 21
60.0932
  0
LINE
  8
0
 10
79.7173
 20
60.0932
 11
79.7077
 21
60.0152
  0
LINE
  8
0
 10
79.7077
 20
60.0152
 11
79.6942
 21
59.9379
  0
LINE
  8
0
 10
79.6942
 20
59.9379
 11
79.677
 21
59.8612
  0
LINE
  8
0
 10
79.677
 20
59.8612
 11
79.6561
 21
59.7855
  0
LINE
  8
0
 10
79.6561
 20
59.7855
 11
79.6315
 21
59.711
  0
LINE
  8
0
 10
79.6315
 20
59.711
 11
79.6032
 21
59.6377
  0
LINE
  8
0
 10
79.6032
 20
59.6377
 11
79.5714
 21
59.5659
  0
LINE
  8
0
 10
79.5714
 20
59.5659
 11
79.5361
 21
59.4958
  0
LINE
  8
0
 10
79.5361
 20
59.4958
 11
79.4974
 21
59.4274
  0
LINE
  8
0
 10
79.4974
 20
59.4274
 11
79.4553
 21
59.3611
  0
LINE
  8
0
 10
79.4553
 20
59.3611
 11
79.4101
 21
59.2969
  0
LINE
  8
0
 10
79.4101
 20
59.2969
 11
79.3618
 21
59.235
  0
LINE
  8
0
 10
79.3618
 20
59.235
 11
79.3105
 21
59.1755
  0
LINE
  8
0
 10
79.3105
 20
59.1755
 11
79.2564
 21
59.1186
  0
LINE
  8
0
 10
79.2564
 20
59.1186
 11
79.1995
 21
59.0645
  0
LINE
  8
0
 10
79.1995
 20
59.0645
 11
79.14
 21
59.0132
  0
LINE
  8
0
 10
79.14
 20
59.0132
 11
79.0781
 21
58.9649
  0
LINE
  8
0
 10
79.0781
 20
58.9649
 11
79.0139
 21
58.9196
  0
LINE
  8
0
 10
79.0139
 20
58.9196
 11
78.9476
 21
58.8776
  0
LINE
  8
0
 10
78.9476
 20
58.8776
 11
78.8792
 21
58.8389
  0
LINE
  8
0
 10
78.8792
 20
58.8389
 11
78.8091
 21
58.8036
  0
LINE
  8
0
 10
78.8091
 20
58.8036
 11
78.7373
 21
58.7718
  0
LINE
  8
0
 10
78.7373
 20
58.7718
 11
78.664
 21
58.7435
  0
LINE
  8
0
 10
78.664
 20
58.7435
 11
78.5894
 21
58.7189
  0
LINE
  8
0
 10
78.5894
 20
58.7189
 11
78.5138
 21
58.6979
  0
LINE
  8
0
 10
78.5138
 20
58.6979
 11
78.4371
 21
58.6807
  0
LINE
  8
0
 10
78.4371
 20
58.6807
 11
78.3598
 21
58.6673
  0
LINE
  8
0
 10
78.3598
 20
58.6673
 11
78.2818
 21
58.6577
  0
LINE
  8
0
 10
78.2818
 20
58.6577
 11
78.2035
 21
58.6519
  0
LINE
  8
0
 10
78.2035
 20
58.6519
 11
78.125
 21
58.65
  0
LINE
  8
0
 10
78.125
 20
58.65
 11
78.0465
 21
58.6519
  0
LINE
  8
0
 10
-6.20351
 20
58.6519
 11
-6.28181
 21
58.6577
  0
LINE
  8
0
 10
-6.28181
 20
58.6577
 11
-6.35976
 21
58.6673
  0
LINE
  8
0
 10
-6.35976
 20
58.6673
 11
-6.43713
 21
58.6807
  0
LINE
  8
0
 10
-6.43713
 20
58.6807
 11
-6.51376
 21
58.6979
  0
LINE
  8
0
 10
-6.51376
 20
58.6979
 11
-6.58945
 21
58.7189
  0
LINE
  8
0
 10
-6.58945
 20
58.7189
 11
-6.66402
 21
58.7435
  0
LINE
  8
0
 10
-6.66402
 20
58.7435
 11
-6.73729
 21
58.7718
  0
LINE
  8
0
 10
-6.73729
 20
58.7718
 11
-6.80908
 21
58.8036
  0
LINE
  8
0
 10
-6.80908
 20
58.8036
 11
-6.87923
 21
58.8389
  0
LINE
  8
0
 10
-6.87923
 20
58.8389
 11
-6.94756
 21
58.8776
  0
LINE
  8
0
 10
-6.94756
 20
58.8776
 11
-7.0139
 21
58.9196
  0
LINE
  8
0
 10
-7.0139
 20
58.9196
 11
-7.07811
 21
58.9649
  0
LINE
  8
0
 10
-7.07811
 20
58.9649
 11
-7.14001
 21
59.0132
  0
LINE
  8
0
 10
-7.14001
 20
59.0132
 11
-7.19949
 21
59.0645
  0
LINE
  8
0
 10
-7.19949
 20
59.0645
 11
-7.25636
 21
59.1186
  0
LINE
  8
0
 10
-7.25636
 20
59.1186
 11
-7.31052
 21
59.1755
  0
LINE
  8
0
 10
-7.31052
 20
59.1755
 11
-7.36182
 21
59.235
  0
LINE
  8
0
 10
-7.36182
 20
59.235
 11
-7.41013
 21
59.2969
  0
LINE
  8
0
 10
-7.41013
 20
59.2969
 11
-7.45534
 21
59.3611
  0
LINE
  8
0
 10
-7.45534
 20
59.3611
 11
-7.49736
 21
59.4274
  0
LINE
  8
0
 10
-7.49736
 20
59.4274
 11
-7.53607
 21
59.4958
  0
LINE
  8
0
 10
-7.53607
 20
59.4958
 11
-7.57138
 21
59.5659
  0
LINE
  8
0
 10
-7.57138
 20
59.5659
 11
-7.6032
 21
59.6377
  0
LINE
  8
0
 10
-7.6032
 20
59.6377
 11
-7.63147
 21
59.711
  0
LINE
  8
0
 10
-7.63147
 20
59.711
 11
-7.6561
 21
59.7855
  0
LINE
  8
0
 10
-7.6561
 20
59.7855
 11
-7.67705
 21
59.8612
  0
LINE
  8
0
 10
-7.67705
 20
59.8612
 11
-7.69424
 21
59.9379
  0
LINE
  8
0
 10
-7.69424
 20
59.9379
 11
-7.70767
 21
60.0152
  0
LINE
  8
0
 10
-7.70767
 20
60.0152
 11
-7.71729
 21
60.0932
  0
LINE
  8
0
 10
-7.71729
 20
60.0932
 11
-7.72307
 21
60.1715
  0
LINE
  8
0
 10
-7.72307
 20
60.1715
 11
-7.72499
 21
60.25
  0
LINE
  8
0
 10
-7.72499
 20
60.25
 11
-7.72307
 21
60.3285
  0
LINE
  8
0
 10
-7.72307
 20
60.3285
 11
-7.71729
 21
60.4068
  0
LINE
  8
0
 10
-7.71729
 20
60.4068
 11
-7.70767
 21
60.4848
  0
LINE
  8
0
 10
-7.70767
 20
60.4848
 11
-7.69424
 21
60.5621
  0
LINE
  8
0
 10
-7.69424
 20
60.5621
 11
-7.67705
 21
60.6388
  0
LINE
  8
0
 10
-7.67705
 20
60.6388
 11
-7.6561
 21
60.7144
  0
LINE
  8
0
 10
-7.6561
 20
60.7144
 11
-7.63147
 21
60.789
  0
LINE
  8
0
 10
-7.63147
 20
60.789
 11
-7.6032
 21
60.8623
  0
LINE
  8
0
 10
-7.6032
 20
60.8623
 11
-7.57138
 21
60.9341
  0
LINE
  8
0
 10
-7.57138
 20
60.9341
 11
-7.53607
 21
61.0042
  0
LINE
  8
0
 10
-7.53607
 20
61.0042
 11
-7.49736
 21
61.0726
  0
LINE
  8
0
 10
-7.49736
 20
61.0726
 11
-7.45534
 21
61.1389
  0
LINE
  8
0
 10
-7.45534
 20
61.1389
 11
-7.41013
 21
61.2031
  0
LINE
  8
0
 10
-7.41013
 20
61.2031
 11
-7.36182
 21
61.265
  0
LINE
  8
0
 10
-7.36182
 20
61.265
 11
-7.31052
 21
61.3245
  0
LINE
  8
0
 10
-7.31052
 20
61.3245
 11
-7.25636
 21
61.3814
  0
LINE
  8
0
 10
-7.25636
 20
61.3814
 11
-7.19949
 21
61.4355
  0
LINE
  8
0
 10
-7.19949
 20
61.4355
 11
-7.14001
 21
61.4868
  0
LINE
  8
0
 10
-7.14001
 20
61.4868
 11
-7.07811
 21
61.5351
  0
LINE
  8
0
 10
-7.07811
 20
61.5351
 11
-7.0139
 21
61.5803
  0
LINE
  8
0
 10
-7.0139
 20
61.5803
 11
-6.94756
 21
61.6224
  0
LINE
  8
0
 10
-6.94756
 20
61.6224
 11
-6.87923
 21
61.6611
  0
LINE
  8
0
 10
-6.87923
 20
61.6611
 11
-6.80908
 21
61.6964
  0
LINE
  8
0
 10
-6.80908
 20
61.6964
 11
-6.73729
 21
61.7282
  0
LINE
  8
0
 10
-6.73729
 20
61.7282
 11
-6.66402
 21
61.7565
  0
LINE
  8
0
 10
-6.66402
 20
61.7565
 11
-6.58945
 21
61.7811
  0
LINE
  8
0
 10
-6.58945
 20
61.7811
 11
-6.51376
 21
61.802
  0
LINE
  8
0
 10
-6.51376
 20
61.802
 11
-6.43713
 21
61.8192
  0
LINE
  8
0
 10
-6.43713
 20
61.8192
 11
-6.35976
 21
61.8327
  0
LINE
  8
0
 10
-6.35976
 20
61.8327
 11
-6.28181
 21
61.8423
  0
LINE
  8
0
 10
-6.28181
 20
61.8423
 11
-6.20351
 21
61.8481
  0
LINE
  8
0
 10
-6.20351
 20
61.8481
 11
-6.125
 21
61.85
  0
LINE
  8
0
 10
-6.125
 20
61.85
 11
-6.04648
 21
61.8481
  0
LINE
  8
0
 10
-6.04648
 20
61.8481
 11
-5.96817
 21
61.8423
  0
LINE
  8
0
 10
-5.96817
 20
61.8423
 11
-5.89023
 21
61.8327
  0
LINE
  8
0
 10
-5.89023
 20
61.8327
 11
-5.81285
 21
61.8192
  0
LINE
  8
0
 10
-5.81285
 20
61.8192
 11
-5.73622
 21
61.802
  0
LINE
  8
0
 10
-5.73622
 20
61.802
 11
-5.66054
 21
61.7811
  0
LINE
  8
0
 10
-5.66054
 20
61.7811
 11
-5.58597
 21
61.7565
  0
LINE
  8
0
 10
-5.58597
 20
61.7565
 11
-5.5127
 21
61.7282
  0
LINE
  8
0
 10
-5.5127
 20
61.7282
 11
-5.4409
 21
61.6964
  0
LINE
  8
0
 10
-5.4409
 20
61.6964
 11
-5.37076
 21
61.6611
  0
LINE
  8
0
 10
-5.37076
 20
61.6611
 11
-5.30243
 21
61.6224
  0
LINE
  8
0
 10
-5.30243
 20
61.6224
 11
-5.23608
 21
61.5803
  0
LINE
  8
0
 10
-5.23608
 20
61.5803
 11
-5.17188
 21
61.5351
  0
LINE
  8
0
 10
-5.17188
 20
61.5351
 11
-5.10997
 21
61.4868
  0
LINE
  8
0
 10
-5.10997
 20
61.4868
 11
-5.05049
 21
61.4355
  0
LINE
  8
0
 10
-5.05049
 20
61.4355
 11
-4.99362
 21
61.3814
  0
LINE
  8
0
 10
-4.99362
 20
61.3814
 11
-4.93947
 21
61.3245
  0
LINE
  8
0
 10
-4.93947
 20
61.3245
 11
-4.88817
 21
61.265
  0
LINE
  8
0
 10
-4.88817
 20
61.265
 11
-4.83986
 21
61.2031
  0
LINE
  8
0
 10
-4.83986
 20
61.2031
 11
-4.79465
 21
61.1389
  0
LINE
  8
0
 10
-4.79465
 20
61.1389
 11
-4.75262
 21
61.0726
  0
LINE
  8
0
 10
-4.75262
 20
61.0726
 11
-4.71391
 21
61.0042
  0
LINE
  8
0
 10
-4.71391
 20
61.0042
 11
-4.6786
 21
60.9341
  0
LINE
  8
0
 10
-4.6786
 20
60.9341
 11
-4.64679
 21
60.8623
  0
LINE
  8
0
 10
-4.64679
 20
60.8623
 11
-4.61852
 21
60.789
  0
LINE
  8
0
 10
-4.61852
 20
60.789
 11
-4.59389
 21
60.7144
  0
LINE
  8
0
 10
-4.59389
 20
60.7144
 11
-4.57294
 21
60.6388
  0
LINE
  8
0
 10
-4.57294
 20
60.6388
 11
-4.55574
 21
60.5621
  0
LINE
  8
0
 10
-4.55574
 20
60.5621
 11
-4.54231
 21
60.4848
  0
LINE
  8
0
 10
-4.54231
 20
60.4848
 11
-4.5327
 21
60.4068
  0
LINE
  8
0
 10
-4.5327
 20
60.4068
 11
-4.52692
 21
60.3285
  0
LINE
  8
0
 10
-4.52692
 20
60.3285
 11
-4.52499
 21
60.25
  0
LINE
  8
0
 10
-4.52499
 20
60.25
 11
-4.52692
 21
60.1715
  0
LINE
  8
0
 10
-4.52692
 20
60.1715
 11
-4.5327
 21
60.0932
  0
LINE
  8
0
 10
-4.5327
 20
60.0932
 11
-4.54231
 21
60.0152
  0
LINE
  8
0
 10
-4.54231
 20
60.0152
 11
-4.55574
 21
59.9379
  0
LINE
  8
0
 10
-4.55574
 20
59.9379
 11
-4.57294
 21
59.8612
  0
LINE
  8
0
 10
-4.57294
 20
59.8612
 11
-4.59389
 21
59.7855
  0
LINE
  8
0
 10
-4.59389
 20
59.7855
 11
-4.61852
 21
59.711
  0
LINE
  8
0
 10
-4.61852
 20
59.711
 11
-4.64679
 21
59.6377
  0
LINE
  8
0
 10
-4.64679
 20
59.6377
 11
-4.6786
 21
59.5659
  0
LINE
  8
0
 10
-4.6786
 20
59.5659
 11
-4.71391
 21
59.4958
  0
LINE
  8
0
 10
-4.71391
 20
59.4958
 11
-4.75262
 21
59.4274
  0
LINE
  8
0
 10
-4.75262
 20
59.4274
 11
-4.79465
 21
59.3611
  0
LINE
  8
0
 10
-4.79465
 20
59.3611
 11
-4.83986
 21
59.2969
  0
LINE
  8
0
 10
-4.83986
 20
59.2969
 11
-4.88817
 21
59.235
  0
LINE
  8
0
 10
-4.88817
 20
59.235
 11
-4.93947
 21
59.1755
  0
LINE
  8
0
 10
-4.93947
 20
59.1755
 11
-4.99362
 21
59.1186
  0
LINE
  8
0
 10
-4.99362
 20
59.1186
 11
-5.05049
 21
59.0645
  0
LINE
  8
0
 10
-5.05049
 20
59.0645
 11
-5.10997
 21
59.0132
  0
LINE
  8
0
 10
-5.10997
 20
59.0132
 11
-5.17188
 21
58.9649
  0
LINE
  8
0
 10
-5.17188
 20
58.9649
 11
-5.23608
 21
58.9196
  0
LINE
  8
0
 10
-5.23608
 20
58.9196
 11
-5.30243
 21
58.8776
  0
LINE
  8
0
 10
-5.30243
 20
58.8776
 11
-5.37076
 21
58.8389
  0
LINE
  8
0
 10
-5.37076
 20
58.8389
 11
-5.4409
 21
58.8036
  0
LINE
  8
0
 10
-5.4409
 20
58.8036
 11
-5.5127
 21
58.7718
  0
LINE
  8
0
 10
-5.5127
 20
58.7718
 11
-5.58597
 21
58.7435
  0
LINE
  8
0
 10
-5.58597
 20
58.7435
 11
-5.66054
 21
58.7189
  0
LINE
  8
0
 10
-5.66054
 20
58.7189
 11
-5.73622
 21
58.6979
  0
LINE
  8
0
 10
-5.73622
 20
58.6979
 11
-5.81285
 21
58.6807
  0
LINE
  8
0
 10
-5.81285
 20
58.6807
 11
-5.89023
 21
58.6673
  0
LINE
  8
0
 10
-5.89023
 20
58.6673
 11
-5.96817
 21
58.6577
  0
LINE
  8
0
 10
-5.96817
 20
58.6577
 11
-6.04648
 21
58.6519
  0
LINE
  8
0
 10
-6.04648
 20
58.6519
 11
-6.125
 21
58.65
  0
LINE
  8
0
 10
-6.125
 20
58.65
 11
-6.20351
 21
58.6519
  0
LINE
  8
0
 10
-1.625
 20
22.25
 11
-1.625
 21
61.75
  0
LINE
  8
0
 10
-1.625
 20
61.75
 11
73.625
 21
61.75
  0
LINE
  8
0
 10
73.625
 20
61.75
 11
73.625
 21
22.25
  0
LINE
  8
0
 10
73.625
 20
22.25
 11
-1.625
 21
22.25
  0
LINE
  8
0
 10
85.3215
 20
56.8019
 11
85.2432
 21
56.8077
  0
LINE
  8
0
 10
85.2432
 20
56.8077
 11
85.1652
 21
56.8173
  0
LINE
  8
0
 10
85.1652
 20
56.8173
 11
85.0878
 21
56.8307
  0
LINE
  8
0
 10
85.0878
 20
56.8307
 11
85.0112
 21
56.8479
  0
LINE
  8
0
 10
85.0112
 20
56.8479
 11
84.9355
 21
56.8689
  0
LINE
  8
0
 10
84.9355
 20
56.8689
 11
84.861
 21
56.8935
  0
LINE
  8
0
 10
84.861
 20
56.8935
 11
84.7877
 21
56.9218
  0
LINE
  8
0
 10
84.7877
 20
56.9218
 11
84.7159
 21
56.9536
  0
LINE
  8
0
 10
84.7159
 20
56.9536
 11
84.6458
 21
56.9889
  0
LINE
  8
0
 10
84.6458
 20
56.9889
 11
84.5774
 21
57.0276
  0
LINE
  8
0
 10
84.5774
 20
57.0276
 11
84.5111
 21
57.0696
  0
LINE
  8
0
 10
84.5111
 20
57.0696
 11
84.4469
 21
57.1149
  0
LINE
  8
0
 10
84.4469
 20
57.1149
 11
84.385
 21
57.1632
  0
LINE
  8
0
 10
84.385
 20
57.1632
 11
84.3255
 21
57.2145
  0
LINE
  8
0
 10
84.3255
 20
57.2145
 11
84.2686
 21
57.2686
  0
LINE
  8
0
 10
84.2686
 20
57.2686
 11
84.2145
 21
57.3255
  0
LINE
  8
0
 10
84.2145
 20
57.3255
 11
84.1632
 21
57.385
  0
LINE
  8
0
 10
84.1632
 20
57.385
 11
84.1149
 21
57.4469
  0
LINE
  8
0
 10
84.1149
 20
57.4469
 11
84.0696
 21
57.5111
  0
LINE
  8
0
 10
84.0696
 20
57.5111
 11
84.0276
 21
57.5774
  0
LINE
  8
0
 10
84.0276
 20
57.5774
 11
83.9889
 21
57.6458
  0
LINE
  8
0
 10
83.9889
 20
57.6458
 11
83.9536
 21
57.7159
  0
LINE
  8
0
 10
83.9536
 20
57.7159
 11
83.9218
 21
57.7877
  0
LINE
  8
0
 10
83.9218
 20
57.7877
 11
83.8935
 21
57.861
  0
LINE
  8
0
 10
83.8935
 20
57.861
 11
83.8689
 21
57.9355
  0
LINE
  8
0
 10
83.8689
 20
57.9355
 11
83.8479
 21
58.0112
  0
LINE
  8
0
 10
83.8479
 20
58.0112
 11
83.8307
 21
58.0878
  0
LINE
  8
0
 10
83.8307
 20
58.0878
 11
83.8173
 21
58.1652
  0
LINE
  8
0
 10
83.8173
 20
58.1652
 11
83.8077
 21
58.2432
  0
LINE
  8
0
 10
83.8077
 20
58.2432
 11
83.8019
 21
58.3215
  0
LINE
  8
0
 10
83.8019
 20
58.3215
 11
83.8
 21
58.4
  0
LINE
  8
0
 10
83.8
 20
58.4
 11
83.8019
 21
58.4785
  0
LINE
  8
0
 10
83.8019
 20
58.4785
 11
83.8077
 21
58.5568
  0
LINE
  8
0
 10
83.8077
 20
58.5568
 11
83.8173
 21
58.6348
  0
LINE
  8
0
 10
83.8173
 20
58.6348
 11
83.8307
 21
58.7121
  0
LINE
  8
0
 10
83.8307
 20
58.7121
 11
83.8479
 21
58.7888
  0
LINE
  8
0
 10
83.8479
 20
58.7888
 11
83.8689
 21
58.8644
  0
LINE
  8
0
 10
83.8689
 20
58.8644
 11
83.8935
 21
58.939
  0
LINE
  8
0
 10
83.8935
 20
58.939
 11
83.9218
 21
59.0123
  0
LINE
  8
0
 10
83.9218
 20
59.0123
 11
83.9536
 21
59.0841
  0
LINE
  8
0
 10
83.9536
 20
59.0841
 11
83.9889
 21
59.1542
  0
LINE
  8
0
 10
83.9889
 20
59.1542
 11
84.0276
 21
59.2225
  0
LINE
  8
0
 10
84.0276
 20
59.2225
 11
84.0696
 21
59.2889
  0
LINE
  8
0
 10
84.0696
 20
59.2889
 11
84.1149
 21
59.3531
  0
LINE
  8
0
 10
84.1149
 20
59.3531
 11
84.1632
 21
59.415
  0
LINE
  8
0
 10
84.1632
 20
59.415
 11
84.2145
 21
59.4745
  0
LINE
  8
0
 10
84.2145
 20
59.4745
 11
84.2686
 21
59.5314
  0
LINE
  8
0
 10
84.2686
 20
59.5314
 11
84.3255
 21
59.5855
  0
LINE
  8
0
 10
84.3255
 20
59.5855
 11
84.385
 21
59.6368
  0
LINE
  8
0
 10
84.385
 20
59.6368
 11
84.4469
 21
59.6851
  0
LINE
  8
0
 10
84.4469
 20
59.6851
 11
84.5111
 21
59.7303
  0
LINE
  8
0
 10
84.5111
 20
59.7303
 11
84.5774
 21
59.7724
  0
LINE
  8
0
 10
84.5774
 20
59.7724
 11
84.6458
 21
59.8111
  0
LINE
  8
0
 10
84.6458
 20
59.8111
 11
84.7159
 21
59.8464
  0
LINE
  8
0
 10
84.7159
 20
59.8464
 11
84.7877
 21
59.8782
  0
LINE
  8
0
 10
84.7877
 20
59.8782
 11
84.861
 21
59.9065
  0
LINE
  8
0
 10
84.861
 20
59.9065
 11
84.9355
 21
59.9311
  0
LINE
  8
0
 10
84.9355
 20
59.9311
 11
85.0112
 21
59.952
  0
LINE
  8
0
 10
85.0112
 20
59.952
 11
85.0878
 21
59.9693
  0
LINE
  8
0
 10
85.0878
 20
59.9693
 11
85.1652
 21
59.9827
  0
LINE
  8
0
 10
85.1652
 20
59.9827
 11
85.2432
 21
59.9923
  0
LINE
  8
0
 10
85.2432
 20
59.9923
 11
85.3215
 21
59.9981
  0
LINE
  8
0
 10
85.3215
 20
59.9981
 11
85.4
 21
60
  0
LINE
  8
0
 10
85.4
 20
60
 11
85.4785
 21
59.9981
  0
LINE
  8
0
 10
85.4785
 20
59.9981
 11
85.5568
 21
59.9923
  0
LINE
  8
0
 10
85.5568
 20
59.9923
 11
85.6348
 21
59.9827
  0
LINE
  8
0
 10
85.6348
 20
59.9827
 11
85.7121
 21
59.9693
  0
LINE
  8
0
 10
85.7121
 20
59.9693
 11
85.7888
 21
59.952
  0
LINE
  8
0
 10
85.7888
 20
59.952
 11
85.8644
 21
59.9311
  0
LINE
  8
0
 10
85.8644
 20
59.9311
 11
85.939
 21
59.9065
  0
LINE
  8
0
 10
85.939
 20
59.9065
 11
86.0123
 21
59.8782
  0
LINE
  8
0
 10
86.0123
 20
59.8782
 11
86.0841
 21
59.8464
  0
LINE
  8
0
 10
86.0841
 20
59.8464
 11
86.1542
 21
59.8111
  0
LINE
  8
0
 10
86.1542
 20
59.8111
 11
86.2225
 21
59.7724
  0
LINE
  8
0
 10
86.2225
 20
59.7724
 11
86.2889
 21
59.7303
  0
LINE
  8
0
 10
86.2889
 20
59.7303
 11
86.3531
 21
59.6851
  0
LINE
  8
0
 10
86.3531
 20
59.6851
 11
86.415
 21
59.6368
  0
LINE
  8
0
 10
86.415
 20
59.6368
 11
86.4745
 21
59.5855
  0
LINE
  8
0
 10
86.4745
 20
59.5855
 11
86.5314
 21
59.5314
  0
LINE
  8
0
 10
86.5314
 20
59.5314
 11
86.5855
 21
59.4745
  0
LINE
  8
0
 10
86.5855
 20
59.4745
 11
86.6368
 21
59.415
  0
LINE
  8
0
 10
86.6368
 20
59.415
 11
86.6851
 21
59.3531
  0
LINE
  8
0
 10
86.6851
 20
59.3531
 11
86.7303
 21
59.2889
  0
LINE
  8
0
 10
86.7303
 20
59.2889
 11
86.7724
 21
59.2225
  0
LINE
  8
0
 10
86.7724
 20
59.2225
 11
86.8111
 21
59.1542
  0
LINE
  8
0
 10
86.8111
 20
59.1542
 11
86.8464
 21
59.0841
  0
LINE
  8
0
 10
86.8464
 20
59.0841
 11
86.8782
 21
59.0123
  0
LINE
  8
0
 10
86.8782
 20
59.0123
 11
86.9065
 21
58.939
  0
LINE
  8
0
 10
86.9065
 20
58.939
 11
86.9311
 21
58.8644
  0
LINE
  8
0
 10
86.9311
 20
58.8644
 11
86.952
 21
58.7888
  0
LINE
  8
0
 10
86.952
 20
58.7888
 11
86.9693
 21
58.7121
  0
LINE
  8
0
 10
86.9693
 20
58.7121
 11
86.9827
 21
58.6348
  0
LINE
  8
0
 10
86.9827
 20
58.6348
 11
86.9923
 21
58.5568
  0
LINE
  8
0
 10
86.9923
 20
58.5568
 11
86.9981
 21
58.4785
  0
LINE
  8
0
 10
86.9981
 20
58.4785
 11
87
 21
58.4
  0
LINE
  8
0
 10
87
 20
58.4
 11
86.9981
 21
58.3215
  0
LINE
  8
0
 10
86.9981
 20
58.3215
 11
86.9923
 21
58.2432
  0
LINE
  8
0
 10
86.9923
 20
58.2432
 11
86.9827
 21
58.1652
  0
LINE
  8
0
 10
86.9827
 20
58.1652
 11
86.9693
 21
58.0878
  0
LINE
  8
0
 10
86.9693
 20
58.0878
 11
86.952
 21
58.0112
  0
LINE
  8
0
 10
86.952
 20
58.0112
 11
86.9311
 21
57.9355
  0
LINE
  8
0
 10
86.9311
 20
57.9355
 11
86.9065
 21
57.861
  0
LINE
  8
0
 10
86.9065
 20
57.861
 11
86.8782
 21
57.7877
  0
LINE
  8
0
 10
86.8782
 20
57.7877
 11
86.8464
 21
57.7159
  0
LINE
  8
0
 10
86.8464
 20
57.7159
 11
86.8111
 21
57.6458
  0
LINE
  8
0
 10
86.8111
 20
57.6458
 11
86.7724
 21
57.5774
  0
LINE
  8
0
 10
86.7724
 20
57.5774
 11
86.7303
 21
57.5111
  0
LINE
  8
0
 10
86.7303
 20
57.5111
 11
86.6851
 21
57.4469
  0
LINE
  8
0
 10
86.6851
 20
57.4469
 11
86.6368
 21
57.385
  0
LINE
  8
0
 10
86.6368
 20
57.385
 11
86.5855
 21
57.3255
  0
LINE
  8
0
 10
86.5855
 20
57.3255
 11
86.5314
 21
57.2686
  0
LINE
  8
0
 10
86.5314
 20
57.2686
 11
86.4745
 21
57.2145
  0
LINE
  8
0
 10
86.4745
 20
57.2145
 11
86.415
 21
57.1632
  0
LINE
  8
0
 10
86.415
 20
57.1632
 11
86.3531
 21
57.1149
  0
LINE
  8
0
 10
86.3531
 20
57.1149
 11
86.2889
 21
57.0696
  0
LINE
  8
0
 10
86.2889
 20
57.0696
 11
86.2225
 21
57.0276
  0
LINE
  8
0
 10
86.2225
 20
57.0276
 11
86.1542
 21
56.9889
  0
LINE
  8
0
 10
86.1542
 20
56.9889
 11
86.0841
 21
56.9536
  0
LINE
  8
0
 10
86.0841
 20
56.9536
 11
86.0123
 21
56.9218
  0
LINE
  8
0
 10
86.0123
 20
56.9218
 11
85.939
 21
56.8935
  0
LINE
  8
0
 10
85.939
 20
56.8935
 11
85.8644
 21
56.8689
  0
LINE
  8
0
 10
85.8644
 20
56.8689
 11
85.7888
 21
56.8479
  0
LINE
  8
0
 10
85.7888
 20
56.8479
 11
85.7121
 21
56.8307
  0
LINE
  8
0
 10
85.7121
 20
56.8307
 11
85.6348
 21
56.8173
  0
LINE
  8
0
 10
85.6348
 20
56.8173
 11
85.5568
 21
56.8077
  0
LINE
  8
0
 10
85.5568
 20
56.8077
 11
85.4785
 21
56.8019
  0
LINE
  8
0
 10
85.4785
 20
56.8019
 11
85.4
 21
56.8
  0
LINE
  8
0
 10
85.4
 20
56.8
 11
85.3215
 21
56.8019
  0
LINE
  8
0
 10
78.0465
 20
22.1519
 11
77.9682
 21
22.1577
  0
LINE
  8
0
 10
77.9682
 20
22.1577
 11
77.8902
 21
22.1673
  0
LINE
  8
0
 10
77.8902
 20
22.1673
 11
77.8129
 21
22.1808
  0
LINE
  8
0
 10
77.8129
 20
22.1808
 11
77.7362
 21
22.198
  0
LINE
  8
0
 10
77.7362
 20
22.198
 11
77.6605
 21
22.2189
  0
LINE
  8
0
 10
77.6605
 20
22.2189
 11
77.586
 21
22.2435
  0
LINE
  8
0
 10
77.586
 20
22.2435
 11
77.5127
 21
22.2718
  0
LINE
  8
0
 10
77.5127
 20
22.2718
 11
77.4409
 21
22.3036
  0
LINE
  8
0
 10
77.4409
 20
22.3036
 11
77.3708
 21
22.3389
  0
LINE
  8
0
 10
77.3708
 20
22.3389
 11
77.3024
 21
22.3776
  0
LINE
  8
0
 10
77.3024
 20
22.3776
 11
77.2361
 21
22.4197
  0
LINE
  8
0
 10
77.2361
 20
22.4197
 11
77.1719
 21
22.4649
  0
LINE
  8
0
 10
77.1719
 20
22.4649
 11
77.11
 21
22.5132
  0
LINE
  8
0
 10
77.11
 20
22.5132
 11
77.0505
 21
22.5645
  0
LINE
  8
0
 10
77.0505
 20
22.5645
 11
76.9936
 21
22.6186
  0
LINE
  8
0
 10
76.9936
 20
22.6186
 11
76.9395
 21
22.6755
  0
LINE
  8
0
 10
76.9395
 20
22.6755
 11
76.8882
 21
22.735
  0
LINE
  8
0
 10
76.8882
 20
22.735
 11
76.8399
 21
22.7969
  0
LINE
  8
0
 10
76.8399
 20
22.7969
 11
76.7946
 21
22.8611
  0
LINE
  8
0
 10
76.7946
 20
22.8611
 11
76.7526
 21
22.9274
  0
LINE
  8
0
 10
76.7526
 20
22.9274
 11
76.7139
 21
22.9958
  0
LINE
  8
0
 10
76.7139
 20
22.9958
 11
76.6786
 21
23.0659
  0
LINE
  8
0
 10
76.6786
 20
23.0659
 11
76.6468
 21
23.1377
  0
LINE
  8
0
 10
76.6468
 20
23.1377
 11
76.6185
 21
23.211
  0
LINE
  8
0
 10
76.6185
 20
23.211
 11
76.5939
 21
23.2856
  0
LINE
  8
0
 10
76.5939
 20
23.2856
 11
76.5729
 21
23.3612
  0
LINE
  8
0
 10
76.5729
 20
23.3612
 11
76.5557
 21
23.4379
  0
LINE
  8
0
 10
76.5557
 20
23.4379
 11
76.5423
 21
23.5152
  0
LINE
  8
0
 10
76.5423
 20
23.5152
 11
76.5327
 21
23.5932
  0
LINE
  8
0
 10
76.5327
 20
23.5932
 11
76.5269
 21
23.6715
  0
LINE
  8
0
 10
76.5269
 20
23.6715
 11
76.525
 21
23.75
  0
LINE
  8
0
 10
76.525
 20
23.75
 11
76.5269
 21
23.8285
  0
LINE
  8
0
 10
76.5269
 20
23.8285
 11
76.5327
 21
23.9068
  0
LINE
  8
0
 10
76.5327
 20
23.9068
 11
76.5423
 21
23.9848
  0
LINE
  8
0
 10
76.5423
 20
23.9848
 11
76.5557
 21
24.0621
  0
LINE
  8
0
 10
76.5557
 20
24.0621
 11
76.5729
 21
24.1388
  0
LINE
  8
0
 10
76.5729
 20
24.1388
 11
76.5939
 21
24.2145
  0
LINE
  8
0
 10
76.5939
 20
24.2145
 11
76.6185
 21
24.289
  0
LINE
  8
0
 10
76.6185
 20
24.289
 11
76.6468
 21
24.3623
  0
LINE
  8
0
 10
76.6468
 20
24.3623
 11
76.6786
 21
24.4341
  0
LINE
  8
0
 10
76.6786
 20
24.4341
 11
76.7139
 21
24.5042
  0
LINE
  8
0
 10
76.7139
 20
24.5042
 11
76.7526
 21
24.5726
  0
LINE
  8
0
 10
76.7526
 20
24.5726
 11
76.7946
 21
24.6389
  0
LINE
  8
0
 10
76.7946
 20
24.6389
 11
76.8399
 21
24.7031
  0
LINE
  8
0
 10
76.8399
 20
24.7031
 11
76.8882
 21
24.765
  0
LINE
  8
0
 10
76.8882
 20
24.765
 11
76.9395
 21
24.8245
  0
LINE
  8
0
 10
76.9395
 20
24.8245
 11
76.9936
 21
24.8814
  0
LINE
  8
0
 10
76.9936
 20
24.8814
 11
77.0505
 21
24.9355
  0
LINE
  8
0
 10
77.0505
 20
24.9355
 11
77.11
 21
24.9868
  0
LINE
  8
0
 10
77.11
 20
24.9868
 11
77.1719
 21
25.0351
  0
LINE
  8
0
 10
77.1719
 20
25.0351
 11
77.2361
 21
25.0804
  0
LINE
  8
0
 10
77.2361
 20
25.0804
 11
77.3024
 21
25.1224
  0
LINE
  8
0
 10
77.3024
 20
25.1224
 11
77.3708
 21
25.1611
  0
LINE
  8
0
 10
77.3708
 20
25.1611
 11
77.4409
 21
25.1964
  0
LINE
  8
0
 10
77.4409
 20
25.1964
 11
77.5127
 21
25.2282
  0
LINE
  8
0
 10
77.5127
 20
25.2282
 11
77.586
 21
25.2565
  0
LINE
  8
0
 10
77.586
 20
25.2565
 11
77.6605
 21
25.2811
  0
LINE
  8
0
 10
77.6605
 20
25.2811
 11
77.7362
 21
25.3021
  0
LINE
  8
0
 10
77.7362
 20
25.3021
 11
77.8129
 21
25.3193
  0
LINE
  8
0
 10
77.8129
 20
25.3193
 11
77.8902
 21
25.3327
  0
LINE
  8
0
 10
77.8902
 20
25.3327
 11
77.9682
 21
25.3423
  0
LINE
  8
0
 10
77.9682
 20
25.3423
 11
78.0465
 21
25.3481
  0
LINE
  8
0
 10
78.0465
 20
25.3481
 11
78.125
 21
25.35
  0
LINE
  8
0
 10
78.125
 20
25.35
 11
78.2035
 21
25.3481
  0
LINE
  8
0
 10
78.2035
 20
25.3481
 11
78.2818
 21
25.3423
  0
LINE
  8
0
 10
78.2818
 20
25.3423
 11
78.3598
 21
25.3327
  0
LINE
  8
0
 10
78.3598
 20
25.3327
 11
78.4371
 21
25.3193
  0
LINE
  8
0
 10
78.4371
 20
25.3193
 11
78.5138
 21
25.3021
  0
LINE
  8
0
 10
78.5138
 20
25.3021
 11
78.5894
 21
25.2811
  0
LINE
  8
0
 10
78.5894
 20
25.2811
 11
78.664
 21
25.2565
  0
LINE
  8
0
 10
78.664
 20
25.2565
 11
78.7373
 21
25.2282
  0
LINE
  8
0
 10
78.7373
 20
25.2282
 11
78.8091
 21
25.1964
  0
LINE
  8
0
 10
78.8091
 20
25.1964
 11
78.8792
 21
25.1611
  0
LINE
  8
0
 10
78.8792
 20
25.1611
 11
78.9476
 21
25.1224
  0
LINE
  8
0
 10
78.9476
 20
25.1224
 11
79.0139
 21
25.0804
  0
LINE
  8
0
 10
79.0139
 20
25.0804
 11
79.0781
 21
25.0351
  0
LINE
  8
0
 10
79.0781
 20
25.0351
 11
79.14
 21
24.9868
  0
LINE
  8
0
 10
79.14
 20
24.9868
 11
79.1995
 21
24.9355
  0
LINE
  8
0
 10
79.1995
 20
24.9355
 11
79.2564
 21
24.8814
  0
LINE
  8
0
 10
79.2564
 20
24.8814
 11
79.3105
 21
24.8245
  0
LINE
  8
0
 10
79.3105
 20
24.8245
 11
79.3618
 21
24.765
  0
LINE
  8
0
 10
79.3618
 20
24.765
 11
79.4101
 21
24.7031
  0
LINE
  8
0
 10
79.4101
 20
24.7031
 11
79.4553
 21
24.6389
  0
LINE
  8
0
 10
79.4553
 20
24.6389
 11
79.4974
 21
24.5726
  0
LINE
  8
0
 10
79.4974
 20
24.5726
 11
79.5361
 21
24.5042
  0
LINE
  8
0
 10
79.5361
 20
24.5042
 11
79.5714
 21
24.4341
  0
LINE
  8
0
 10
79.5714
 20
24.4341
 11
79.6032
 21
24.3623
  0
LINE
  8
0
 10
79.6032
 20
24.3623
 11
79.6315
 21
24.289
  0
LINE
  8
0
 10
79.6315
 20
24.289
 11
79.6561
 21
24.2145
  0
LINE
  8
0
 10
79.6561
 20
24.2145
 11
79.677
 21
24.1388
  0
LINE
  8
0
 10
79.677
 20
24.1388
 11
79.6942
 21
24.0621
  0
LINE
  8
0
 10
79.6942
 20
24.0621
 11
79.7077
 21
23.9848
  0
LINE
  8
0
 10
79.7077
 20
23.9848
 11
79.7173
 21
23.9068
  0
LINE
  8
0
 10
79.7173
 20
23.9068
 11
79.7231
 21
23.8285
  0
LINE
  8
0
 10
79.7231
 20
23.8285
 11
79.725
 21
23.75
  0
LINE
  8
0
 10
79.725
 20
23.75
 11
79.7231
 21
23.6715
  0
LINE
  8
0
 10
79.7231
 20
23.6715
 11
79.7173
 21
23.5932
  0
LINE
  8
0
 10
79.7173
 20
23.5932
 11
79.7077
 21
23.5152
  0
LINE
  8
0
 10
79.7077
 20
23.5152
 11
79.6942
 21
23.4379
  0
LINE
  8
0
 10
79.6942
 20
23.4379
 11
79.677
 21
23.3612
  0
LINE
  8
0
 10
79.677
 20
23.3612
 11
79.6561
 21
23.2856
  0
LINE
  8
0
 10
79.6561
 20
23.2856
 11
79.6315
 21
23.211
  0
LINE
  8
0
 10
79.6315
 20
23.211
 11
79.6032
 21
23.1377
  0
LINE
  8
0
 10
79.6032
 20
23.1377
 11
79.5714
 21
23.0659
  0
LINE
  8
0
 10
79.5714
 20
23.0659
 11
79.5361
 21
22.9958
  0
LINE
  8
0
 10
79.5361
 20
22.9958
 11
79.4974
 21
22.9274
  0
LINE
  8
0
 10
79.4974
 20
22.9274
 11
79.4553
 21
22.8611
  0
LINE
  8
0
 10
79.4553
 20
22.8611
 11
79.4101
 21
22.7969
  0
LINE
  8
0
 10
79.4101
 20
22.7969
 11
79.3618
 21
22.735
  0
LINE
  8
0
 10
79.3618
 20
22.735
 11
79.3105
 21
22.6755
  0
LINE
  8
0
 10
79.3105
 20
22.6755
 11
79.2564
 21
22.6186
  0
LINE
  8
0
 10
79.2564
 20
22.6186
 11
79.1995
 21
22.5645
  0
LINE
  8
0
 10
79.1995
 20
22.5645
 11
79.14
 21
22.5132
  0
LINE
  8
0
 10
79.14
 20
22.5132
 11
79.0781
 21
22.4649
  0
LINE
  8
0
 10
79.0781
 20
22.4649
 11
79.0139
 21
22.4197
  0
LINE
  8
0
 10
79.0139
 20
22.4197
 11
78.9476
 21
22.3776
  0
LINE
  8
0
 10
78.9476
 20
22.3776
 11
78.8792
 21
22.3389
  0
LINE
  8
0
 10
78.8792
 20
22.3389
 11
78.8091
 21
22.3036
  0
LINE
  8
0
 10
78.8091
 20
22.3036
 11
78.7373
 21
22.2718
  0
LINE
  8
0
 10
78.7373
 20
22.2718
 11
78.664
 21
22.2435
  0
LINE
  8
0
 10
78.664
 20
22.2435
 11
78.5894
 21
22.2189
  0
LINE
  8
0
 10
78.5894
 20
22.2189
 11
78.5138
 21
22.198
  0
LINE
  8
0
 10
78.5138
 20
22.198
 11
78.4371
 21
22.1808
  0
LINE
  8
0
 10
78.4371
 20
22.1808
 11
78.3598
 21
22.1673
  0
LINE
  8
0
 10
78.3598
 20
22.1673
 11
78.2818
 21
22.1577
  0
LINE
  8
0
 10
78.2818
 20
22.1577
 11
78.2035
 21
22.1519
  0
LINE
  8
0
 10
78.2035
 20
22.1519
 11
78.125
 21
22.15
  0
LINE
  8
0
 10
78.125
 20
22.15
 11
78.0465
 21
22.1519
  0
LINE
  8
0
 10
-6.20351
 20
22.1519
 11
-6.28181
 21
22.1577
  0
LINE
  8
0
 10
-6.28181
 20
22.1577
 11
-6.35976
 21
22.1673
  0
LINE
  8
0
 10
-6.35976
 20
22.1673
 11
-6.43713
 21
22.1808
  0
LINE
  8
0
 10
-6.43713
 20
22.1808
 11
-6.51376
 21
22.198
  0
LINE
  8
0
 10
-6.51376
 20
22.198
 11
-6.58945
 21
22.2189
  0
LINE
  8
0
 10
-6.58945
 20
22.2189
 11
-6.66402
 21
22.2435
  0
LINE
  8
0
 10
-6.66402
 20
22.2435
 11
-6.73729
 21
22.2718
  0
LINE
  8
0
 10
-6.73729
 20
22.2718
 11
-6.80908
 21
22.3036
  0
LINE
  8
0
 10
-6.80908
 20
22.3036
 11
-6.87923
 21
22.3389
  0
LINE
  8
0
 10
-6.87923
 20
22.3389
 11
-6.94756
 21
22.3776
  0
LINE
  8
0
 10
-6.94756
 20
22.3776
 11
-7.0139
 21
22.4197
  0
LINE
  8
0
 10
-7.0139
 20
22.4197
 11
-7.07811
 21
22.4649
  0
LINE
  8
0
 10
-7.07811
 20
22.4649
 11
-7.14001
 21
22.5132
  0
LINE
  8
0
 10
-7.14001
 20
22.5132
 11
-7.19949
 21
22.5645
  0
LINE
  8
0
 10
-7.19949
 20
22.5645
 11
-7.25636
 21
22.6186
  0
LINE
  8
0
 10
-7.25636
 20
22.6186
 11
-7.31052
 21
22.6755
  0
LINE
  8
0
 10
-7.31052
 20
22.6755
 11
-7.36182
 21
22.735
  0
LINE
  8
0
 10
-7.36182
 20
22.735
 11
-7.41013
 21
22.7969
  0
LINE
  8
0
 10
-7.41013
 20
22.7969
 11
-7.45534
 21
22.8611
  0
LINE
  8
0
 10
-7.45534
 20
22.8611
 11
-7.49736
 21
22.9274
  0
LINE
  8
0
 10
-7.49736
 20
22.9274
 11
-7.53607
 21
22.9958
  0
LINE
  8
0
 10
-7.53607
 20
22.9958
 11
-7.57138
 21
23.0659
  0
LINE
  8
0
 10
-7.57138
 20
23.0659
 11
-7.6032
 21
23.1377
  0
LINE
  8
0
 10
-7.6032
 20
23.1377
 11
-7.63147
 21
23.211
  0
LINE
  8
0
 10
-7.63147
 20
23.211
 11
-7.6561
 21
23.2856
  0
LINE
  8
0
 10
-7.6561
 20
23.2856
 11
-7.67705
 21
23.3612
  0
LINE
  8
0
 10
-7.67705
 20
23.3612
 11
-7.69424
 21
23.4379
  0
LINE
  8
0
 10
-7.69424
 20
23.4379
 11
-7.70767
 21
23.5152
  0
LINE
  8
0
 10
-7.70767
 20
23.5152
 11
-7.71729
 21
23.5932
  0
LINE
  8
0
 10
-7.71729
 20
23.5932
 11
-7.72307
 21
23.6715
  0
LINE
  8
0
 10
-7.72307
 20
23.6715
 11
-7.72499
 21
23.75
  0
LINE
  8
0
 10
-7.72499
 20
23.75
 11
-7.72307
 21
23.8285
  0
LINE
  8
0
 10
-7.72307
 20
23.8285
 11
-7.71729
 21
23.9068
  0
LINE
  8
0
 10
-7.71729
 20
23.9068
 11
-7.70767
 21
23.9848
  0
LINE
  8
0
 10
-7.70767
 20
23.9848
 11
-7.69424
 21
24.0621
  0
LINE
  8
0
 10
-7.69424
 20
24.0621
 11
-7.67705
 21
24.1388
  0
LINE
  8
0
 10
-7.67705
 20
24.1388
 11
-7.6561
 21
24.2145
  0
LINE
  8
0
 10
-7.6561
 20
24.2145
 11
-7.63147
 21
24.289
  0
LINE
  8
0
 10
-7.63147
 20
24.289
 11
-7.6032
 21
24.3623
  0
LINE
  8
0
 10
-7.6032
 20
24.3623
 11
-7.57138
 21
24.4341
  0
LINE
  8
0
 10
-7.57138
 20
24.4341
 11
-7.53607
 21
24.5042
  0
LINE
  8
0
 10
-7.53607
 20
24.5042
 11
-7.49736
 21
24.5726
  0
LINE
  8
0
 10
-7.49736
 20
24.5726
 11
-7.45534
 21
24.6389
  0
LINE
  8
0
 10
-7.45534
 20
24.6389
 11
-7.41013
 21
24.7031
  0
LINE
  8
0
 10
-7.41013
 20
24.7031
 11
-7.36182
 21
24.765
  0
LINE
  8
0
 10
-7.36182
 20
24.765
 11
-7.31052
 21
24.8245
  0
LINE
  8
0
 10
-7.31052
 20
24.8245
 11
-7.25636
 21
24.8814
  0
LINE
  8
0
 10
-7.25636
 20
24.8814
 11
-7.19949
 21
24.9355
  0
LINE
  8
0
 10
-7.19949
 20
24.9355
 11
-7.14001
 21
24.9868
  0
LINE
  8
0
 10
-7.14001
 20
24.9868
 11
-7.07811
 21
25.0351
  0
LINE
  8
0
 10
-7.07811
 20
25.0351
 11
-7.0139
 21
25.0804
  0
LINE
  8
0
 10
-7.0139
 20
25.0804
 11
-6.94756
 21
25.1224
  0
LINE
  8
0
 10
-6.94756
 20
25.1224
 11
-6.87923
 21
25.1611
  0
LINE
  8
0
 10
-6.87923
 20
25.1611
 11
-6.80908
 21
25.1964
  0
LINE
  8
0
 10
-6.80908
 20
25.1964
 11
-6.73729
 21
25.2282
  0
LINE
  8
0
 10
-6.73729
 20
25.2282
 11
-6.66402
 21
25.2565
  0
LINE
  8
0
 10
-6.66402
 20
25.2565
 11
-6.58945
 21
25.2811
  0
LINE
  8
0
 10
-6.58945
 20
25.2811
 11
-6.51376
 21
25.3021
  0
LINE
  8
0
 10
-6.51376
 20
25.3021
 11
-6.43713
 21
25.3193
  0
LINE
  8
0
 10
-6.43713
 20
25.3193
 11
-6.35976
 21
25.3327
  0
LINE
  8
0
 10
-6.35976
 20
25.3327
 11
-6.28181
 21
25.3423
  0
LINE
  8
0
 10
-6.28181
 20
25.3423
 11
-6.20351
 21
25.3481
  0
LINE
  8
0
 10
-6.20351
 20
25.3481
 11
-6.125
 21
25.35
  0
LINE
  8
0
 10
-6.125
 20
25.35
 11
-6.04648
 21
25.3481
  0
LINE
  8
0
 10
-6.04648
 20
25.3481
 11
-5.96817
 21
25.3423
  0
LINE
  8
0
 10
-5.96817
 20
25.3423
 11
-5.89023
 21
25.3327
  0
LINE
  8
0
 10
-5.89023
 20
25.3327
 11
-5.81285
 21
25.3193
  0
LINE
  8
0
 10
-5.81285
 20
25.3193
 11
-5.73622
 21
25.3021
  0
LINE
  8
0
 10
-5.73622
 20
25.3021
 11
-5.66054
 21
25.2811
  0
LINE
  8
0
 10
-5.66054
 20
25.2811
 11
-5.58597
 21
25.2565
  0
LINE
  8
0
 10
-5.58597
 20
25.2565
 11
-5.5127
 21
25.2282
  0
LINE
  8
0
 10
-5.5127
 20
25.2282
 11
-5.4409
 21
25.1964
  0
LINE
  8
0
 10
-5.4409
 20
25.1964
 11
-5.37076
 21
25.1611
  0
LINE
  8
0
 10
-5.37076
 20
25.1611
 11
-5.30243
 21
25.1224
  0
LINE
  8
0
 10
-5.30243
 20
25.1224
 11
-5.23608
 21
25.0804
  0
LINE
  8
0
 10
-5.23608
 20
25.0804
 11
-5.17188
 21
25.0351
  0
LINE
  8
0
 10
-5.17188
 20
25.0351
 11
-5.10997
 21
24.9868
  0
LINE
  8
0
 10
-5.10997
 20
24.9868
 11
-5.05049
 21
24.9355
  0
LINE
  8
0
 10
-5.05049
 20
24.9355
 11
-4.99362
 21
24.8814
  0
LINE
  8
0
 10
-4.99362
 20
24.8814
 11
-4.93947
 21
24.8245
  0
LINE
  8
0
 10
-4.93947
 20
24.8245
 11
-4.88817
 21
24.765
  0
LINE
  8
0
 10
-4.88817
 20
24.765
 11
-4.83986
 21
24.7031
  0
LINE
  8
0
 10
-4.83986
 20
24.7031
 11
-4.79465
 21
24.6389
  0
LINE
  8
0
 10
-4.79465
 20
24.6389
 11
-4.75262
 21
24.5726
  0
LINE
  8
0
 10
-4.75262
 20
24.5726
 11
-4.71391
 21
24.5042
  0
LINE
  8
0
 10
-4.71391
 20
24.5042
 11
-4.6786
 21
24.4341
  0
LINE
  8
0
 10
-4.6786
 20
24.4341
 11
-4.64679
 21
24.3623
  0
LINE
  8
0
 10
-4.64679
 20
24.3623
 11
-4.61852
 21
24.289
  0
LINE
  8
0
 10
-4.61852
 20
24.289
 11
-4.59389
 21
24.2145
  0
LINE
  8
0
 10
-4.59389
 20
24.2145
 11
-4.57294
 21
24.1388
  0
LINE
  8
0
 10
-4.57294
 20
24.1388
 11
-4.55574
 21
24.0621
  0
LINE
  8
0
 10
-4.55574
 20
24.0621
 11
-4.54231
 21
23.9848
  0
LINE
  8
0
 10
-4.54231
 20
23.9848
 11
-4.5327
 21
23.9068
  0
LINE
  8
0
 10
-4.5327
 20
23.9068
 11
-4.52692
 21
23.8285
  0
LINE
  8
0
 10
-4.52692
 20
23.8285
 11
-4.52499
 21
23.75
  0
LINE
  8
0
 10
-4.52499
 20
23.75
 11
-4.52692
 21
23.6715
  0
LINE
  8
0
 10
-4.52692
 20
23.6715
 11
-4.5327
 21
23.5932
  0
LINE
  8
0
 10
-4.5327
 20
23.5932
 11
-4.54231
 21
23.5152
  0
LINE
  8
0
 10
-4.54231
 20
23.5152
 11
-4.55574
 21
23.4379
  0
LINE
  8
0
 10
-4.55574
 20
23.4379
 11
-4.57294
 21
23.3612
  0
LINE
  8
0
 10
-4.57294
 20
23.3612
 11
-4.59389
 21
23.2856
  0
LINE
  8
0
 10
-4.59389
 20
23.2856
 11
-4.61852
 21
23.211
  0
LINE
  8
0
 10
-4.61852
 20
23.211
 11
-4.64679
 21
23.1377
  0
LINE
  8
0
 10
-4.64679
 20
23.1377
 11
-4.6786
 21
23.0659
  0
LINE
  8
0
 10
-4.6786
 20
23.0659
 11
-4.71391
 21
22.9958
  0
LINE
  8
0
 10
-4.71391
 20
22.9958
 11
-4.75262
 21
22.9274
  0
LINE
  8
0
 10
-4.75262
 20
22.9274
 11
-4.79465
 21
22.8611
  0
LINE
  8
0
 10
-4.79465
 20
22.8611
 11
-4.83986
 21
22.7969
  0
LINE
  8
0
 10
-4.83986
 20
22.7969
 11
-4.88817
 21
22.735
  0
LINE
  8
0
 10
-4.88817
 20
22.735
 11
-4.93947
 21
22.6755
  0
LINE
  8
0
 10
-4.93947
 20
22.6755
 11
-4.99362
 21
22.6186
  0
LINE
  8
0
 10
-4.99362
 20
22.6186
 11
-5.05049
 21
22.5645
  0
LINE
  8
0
 10
-5.05049
 20
22.5645
 11
-5.10997
 21
22.5132
  0
LINE
  8
0
 10
-5.10997
 20
22.5132
 11
-5.17188
 21
22.4649
  0
LINE
  8
0
 10
-5.17188
 20
22.4649
 11
-5.23608
 21
22.4197
  0
LINE
  8
0
 10
-5.23608
 20
22.4197
 11
-5.30243
 21
22.3776
  0
LINE
  8
0
 10
-5.30243
 20
22.3776
 11
-5.37076
 21
22.3389
  0
LINE
  8
0
 10
-5.37076
 20
22.3389
 11
-5.4409
 21
22.3036
  0
LINE
  8
0
 10
-5.4409
 20
22.3036
 11
-5.5127
 21
22.2718
  0
LINE
  8
0
 10
-5.5127
 20
22.2718
 11
-5.58597
 21
22.2435
  0
LINE
  8
0
 10
-5.58597
 20
22.2435
 11
-5.66054
 21
22.2189
  0
LINE
  8
0
 10
-5.66054
 20
22.2189
 11
-5.73622
 21
22.198
  0
LINE
  8
0
 10
-5.73622
 20
22.198
 11
-5.81285
 21
22.1808
  0
LINE
  8
0
 10
-5.81285
 20
22.1808
 11
-5.89023
 21
22.1673
  0
LINE
  8
0
 10
-5.89023
 20
22.1673
 11
-5.96817
 21
22.1577
  0
LINE
  8
0
 10
-5.96817
 20
22.1577
 11
-6.04648
 21
22.1519
  0
LINE
  8
0
 10
-6.04648
 20
22.1519
 11
-6.125
 21
22.15
  0
LINE
  8
0
 10
-6.125
 20
22.15
 11
-6.20351
 21
22.1519
  0
LINE
  8
0
 10
1.52148
 20
0.00192261
 11
1.44316
 21
0.00769043
  0
LINE
  8
0
 10
1.44316
 20
0.00769043
 11
1.36522
 21
0.0173035
  0
LINE
  8
0
 10
1.36522
 20
0.0173035
 11
1.28784
 21
0.0307312
  0
LINE
  8
0
 10
1.28784
 20
0.0307312
 11
1.21123
 21
0.0479431
  0
LINE
  8
0
 10
1.21123
 20
0.0479431
 11
1.13554
 21
0.0688934
  0
LINE
  8
0
 10
1.13554
 20
0.0688934
 11
1.06097
 21
0.0935211
  0
LINE
  8
0
 10
1.06097
 20
0.0935211
 11
0.987701
 21
0.12178
  0
LINE
  8
0
 10
0.987701
 20
0.12178
 11
0.915909
 21
0.15361
  0
LINE
  8
0
 10
0.915909
 20
0.15361
 11
0.845764
 21
0.188919
  0
LINE
  8
0
 10
0.845764
 20
0.188919
 11
0.777435
 21
0.227631
  0
LINE
  8
0
 10
0.777435
 20
0.227631
 11
0.711075
 21
0.269638
  0
LINE
  8
0
 10
0.711075
 20
0.269638
 11
0.646881
 21
0.314865
  0
LINE
  8
0
 10
0.646881
 20
0.314865
 11
0.584961
 21
0.363174
  0
LINE
  8
0
 10
0.584961
 20
0.363174
 11
0.525497
 21
0.414474
  0
LINE
  8
0
 10
0.525497
 20
0.414474
 11
0.468628
 21
0.468628
  0
LINE
  8
0
 10
0.468628
 20
0.468628
 11
0.414474
 21
0.525497
  0
LINE
  8
0
 10
0.414474
 20
0.525497
 11
0.363174
 21
0.584961
  0
LINE
  8
0
 10
0.363174
 20
0.584961
 11
0.314865
 21
0.646881
  0
LINE
  8
0
 10
0.314865
 20
0.646881
 11
0.269638
 21
0.711075
  0
LINE
  8
0
 10
0.269638
 20
0.711075
 11
0.227631
 21
0.777435
  0
LINE
  8
0
 10
0.227631
 20
0.777435
 11
0.188919
 21
0.845764
  0
LINE
  8
0
 10
0.188919
 20
0.845764
 11
0.15361
 21
0.915909
  0
LINE
  8
0
 10
0.15361
 20
0.915909
 11
0.12178
 21
0.987701
  0
LINE
  8
0
 10
0.12178
 20
0.987701
 11
0.0935211
 21
1.06097
  0
LINE
  8
0
 10
0.0935211
 20
1.06097
 11
0.0688934
 21
1.13554
  0
LINE
  8
0
 10
0.0688934
 20
1.13554
 11
0.0479431
 21
1.21123
  0
LINE
  8
0
 10
0.0479431
 20
1.21123
 11
0.0307312
 21
1.28784
  0
LINE
  8
0
 10
0.0307312
 20
1.28784
 11
0.0173035
 21
1.36522
  0
LINE
  8
0
 10
0.0173035
 20
1.36522
 11
0.00769043
 21
1.44316
  0
LINE
  8
0
 10
0.00769043
 20
1.44316
 11
0.00192261
 21
1.52148
  0
LINE
  8
0
 10
0.00192261
 20
1.52148
 11
0
 21
1.59999
  0
LINE
  8
0
 10
0
 20
1.59999
 11
0.00192261
 21
1.6785
  0
LINE
  8
0
 10
0.00192261
 20
1.6785
 11
0.00769043
 21
1.75682
  0
LINE
  8
0
 10
0.00769043
 20
1.75682
 11
0.0173035
 21
1.83476
  0
LINE
  8
0
 10
0.0173035
 20
1.83476
 11
0.0307312
 21
1.91214
  0
LINE
  8
0
 10
0.0307312
 20
1.91214
 11
0.0479431
 21
1.98875
  0
LINE
  8
0
 10
0.0479431
 20
1.98875
 11
0.0688934
 21
2.06445
  0
LINE
  8
0
 10
0.0688934
 20
2.06445
 11
0.0935211
 21
2.13902
  0
LINE
  8
0
 10
0.0935211
 20
2.13902
 11
0.12178
 21
2.21228
  0
LINE
  8
0
 10
0.12178
 20
2.21228
 11
0.15361
 21
2.28409
  0
LINE
  8
0
 10
0.15361
 20
2.28409
 11
0.188919
 21
2.35423
  0
LINE
  8
0
 10
0.188919
 20
2.35423
 11
0.227631
 21
2.42256
  0
LINE
  8
0
 10
0.227631
 20
2.42256
 11
0.269638
 21
2.48891
  0
LINE
  8
0
 10
0.269638
 20
2.48891
 11
0.314865
 21
2.55312
  0
LINE
  8
0
 10
0.314865
 20
2.55312
 11
0.363174
 21
2.61502
  0
LINE
  8
0
 10
0.363174
 20
2.61502
 11
0.414474
 21
2.67448
  0
LINE
  8
0
 10
0.414474
 20
2.67448
 11
0.468628
 21
2.73137
  0
LINE
  8
0
 10
0.468628
 20
2.73137
 11
0.525497
 21
2.78551
  0
LINE
  8
0
 10
0.525497
 20
2.78551
 11
0.584961
 21
2.83681
  0
LINE
  8
0
 10
0.584961
 20
2.83681
 11
0.646881
 21
2.88513
  0
LINE
  8
0
 10
0.646881
 20
2.88513
 11
0.711075
 21
2.93034
  0
LINE
  8
0
 10
0.711075
 20
2.93034
 11
0.777435
 21
2.97235
  0
LINE
  8
0
 10
0.777435
 20
2.97235
 11
0.845764
 21
3.01106
  0
LINE
  8
0
 10
0.845764
 20
3.01106
 11
0.915909
 21
3.04637
  0
LINE
  8
0
 10
0.915909
 20
3.04637
 11
0.987701
 21
3.0782
  0
LINE
  8
0
 10
0.987701
 20
3.0782
 11
1.06097
 21
3.10646
  0
LINE
  8
0
 10
1.06097
 20
3.10646
 11
1.13554
 21
3.1311
  0
LINE
  8
0
 10
1.13554
 20
3.1311
 11
1.21123
 21
3.15204
  0
LINE
  8
0
 10
1.21123
 20
3.15204
 11
1.28784
 21
3.16925
  0
LINE
  8
0
 10
1.28784
 20
3.16925
 11
1.36522
 21
3.18268
  0
LINE
  8
0
 10
1.36522
 20
3.18268
 11
1.44316
 21
3.19229
  0
LINE
  8
0
 10
1.44316
 20
3.19229
 11
1.52148
 21
3.19806
  0
LINE
  8
0
 10
1.52148
 20
3.19806
 11
1.59999
 21
3.2
  0
LINE
  8
0
 10
1.59999
 20
3.2
 11
1.6785
 21
3.19806
  0
LINE
  8
0
 10
1.6785
 20
3.19806
 11
1.75682
 21
3.19229
  0
LINE
  8
0
 10
1.75682
 20
3.19229
 11
1.83476
 21
3.18268
  0
LINE
  8
0
 10
1.83476
 20
3.18268
 11
1.91214
 21
3.16925
  0
LINE
  8
0
 10
1.91214
 20
3.16925
 11
1.98875
 21
3.15204
  0
LINE
  8
0
 10
1.98875
 20
3.15204
 11
2.06445
 21
3.1311
  0
LINE
  8
0
 10
2.06445
 20
3.1311
 11
2.13902
 21
3.10646
  0
LINE
  8
0
 10
2.13902
 20
3.10646
 11
2.21228
 21
3.0782
  0
LINE
  8
0
 10
2.21228
 20
3.0782
 11
2.28409
 21
3.04637
  0
LINE
  8
0
 10
2.28409
 20
3.04637
 11
2.35423
 21
3.01106
  0
LINE
  8
0
 10
2.35423
 20
3.01106
 11
2.42256
 21
2.97235
  0
LINE
  8
0
 10
2.42256
 20
2.97235
 11
2.48891
 21
2.93034
  0
LINE
  8
0
 10
2.48891
 20
2.93034
 11
2.55312
 21
2.88513
  0
LINE
  8
0
 10
2.55312
 20
2.88513
 11
2.61502
 21
2.83681
  0
LINE
  8
0
 10
2.61502
 20
2.83681
 11
2.67448
 21
2.78551
  0
LINE
  8
0
 10
2.67448
 20
2.78551
 11
2.73137
 21
2.73137
  0
LINE
  8
0
 10
2.73137
 20
2.73137
 11
2.78551
 21
2.67448
  0
LINE
  8
0
 10
2.78551
 20
2.67448
 11
2.83681
 21
2.61502
  0
LINE
  8
0
 10
2.83681
 20
2.61502
 11
2.88513
 21
2.55312
  0
LINE
  8
0
 10
2.88513
 20
2.55312
 11
2.93034
 21
2.48891
  0
LINE
  8
0
 10
2.93034
 20
2.48891
 11
2.97235
 21
2.42256
  0
LINE
  8
0
 10
2.97235
 20
2.42256
 11
3.01106
 21
2.35423
  0
LINE
  8
0
 10
3.01106
 20
2.35423
 11
3.04637
 21
2.28409
  0
LINE
  8
0
 10
3.04637
 20
2.28409
 11
3.0782
 21
2.21228
  0
LINE
  8
0
 10
3.0782
 20
2.21228
 11
3.10646
 21
2.13902
  0
LINE
  8
0
 10
3.10646
 20
2.13902
 11
3.1311
 21
2.06445
  0
LINE
  8
0
 10
3.1311
 20
2.06445
 11
3.15204
 21
1.98875
  0
LINE
  8
0
 10
3.15204
 20
1.98875
 11
3.16925
 21
1.91214
  0
LINE
  8
0
 10
3.16925
 20
1.91214
 11
3.18268
 21
1.83476
  0
LINE
  8
0
 10
3.18268
 20
1.83476
 11
3.19229
 21
1.75682
  0
LINE
  8
0
 10
3.19229
 20
1.75682
 11
3.19806
 21
1.6785
  0
LINE
  8
0
 10
3.19806
 20
1.6785
 11
3.2
 21
1.59999
  0
LINE
  8
0
 10
3.2
 20
1.59999
 11
3.19806
 21
1.52148
  0
LINE
  8
0
 10
3.19806
 20
1.52148
 11
3.19229
 21
1.44316
  0
LINE
  8
0
 10
3.19229
 20
1.44316
 11
3.18268
 21
1.36522
  0
LINE
  8
0
 10
3.18268
 20
1.36522
 11
3.16925
 21
1.28784
  0
LINE
  8
0
 10
3.16925
 20
1.28784
 11
3.15204
 21
1.21123
  0
LINE
  8
0
 10
3.15204
 20
1.21123
 11
3.1311
 21
1.13554
  0
LINE
  8
0
 10
3.1311
 20
1.13554
 11
3.10646
 21
1.06097
  0
LINE
  8
0
 10
3.10646
 20
1.06097
 11
3.0782
 21
0.987701
  0
LINE
  8
0
 10
3.0782
 20
0.987701
 11
3.04637
 21
0.915909
  0
LINE
  8
0
 10
3.04637
 20
0.915909
 11
3.01106
 21
0.845764
  0
LINE
  8
0
 10
3.01106
 20
0.845764
 11
2.97235
 21
0.777435
  0
LINE
  8
0
 10
2.97235
 20
0.777435
 11
2.93034
 21
0.711075
  0
LINE
  8
0
 10
2.93034
 20
0.711075
 11
2.88513
 21
0.646881
  0
LINE
  8
0
 10
2.88513
 20
0.646881
 11
2.83681
 21
0.584961
  0
LINE
  8
0
 10
2.83681
 20
0.584961
 11
2.78551
 21
0.525497
  0
LINE
  8
0
 10
2.78551
 20
0.525497
 11
2.73137
 21
0.468628
  0
LINE
  8
0
 10
2.73137
 20
0.468628
 11
2.67448
 21
0.414474
  0
LINE
  8
0
 10
2.67448
 20
0.414474
 11
2.61502
 21
0.363174
  0
LINE
  8
0
 10
2.61502
 20
0.363174
 11
2.55312
 21
0.314865
  0
LINE
  8
0
 10
2.55312
 20
0.314865
 11
2.48891
 21
0.269638
  0
LINE
  8
0
 10
2.48891
 20
0.269638
 11
2.42256
 21
0.227631
  0
LINE
  8
0
 10
2.42256
 20
0.227631
 11
2.35423
 21
0.188919
  0
LINE
  8
0
 10
2.35423
 20
0.188919
 11
2.28409
 21
0.15361
  0
LINE
  8
0
 10
2.28409
 20
0.15361
 11
2.21228
 21
0.12178
  0
LINE
  8
0
 10
2.21228
 20
0.12178
 11
2.13902
 21
0.0935211
  0
LINE
  8
0
 10
2.13902
 20
0.0935211
 11
2.06445
 21
0.0688934
  0
LINE
  8
0
 10
2.06445
 20
0.0688934
 11
1.98875
 21
0.0479431
  0
LINE
  8
0
 10
1.98875
 20
0.0479431
 11
1.91214
 21
0.0307312
  0
LINE
  8
0
 10
1.91214
 20
0.0307312
 11
1.83476
 21
0.0173035
  0
LINE
  8
0
 10
1.83476
 20
0.0173035
 11
1.75682
 21
0.00769043
  0
LINE
  8
0
 10
1.75682
 20
0.00769043
 11
1.6785
 21
0.00192261
  0
LINE
  8
0
 10
1.6785
 20
0.00192261
 11
1.59999
 21
0
  0
LINE
  8
0
 10
1.59999
 20
0
 11
1.52148
 21
0.00192261
  0
LINE
  8
0
 10
86.3215
 20
0.00192261
 11
86.2432
 21
0.00769043
  0
LINE
  8
0
 10
86.2432
 20
0.00769043
 11
86.1652
 21
0.0173035
  0
LINE
  8
0
 10
86.1652
 20
0.0173035
 11
86.0878
 21
0.0307312
  0
LINE
  8
0
 10
86.0878
 20
0.0307312
 11
86.0112
 21
0.0479431
  0
LINE
  8
0
 10
86.0112
 20
0.0479431
 11
85.9355
 21
0.0688934
  0
LINE
  8
0
 10
85.9355
 20
0.0688934
 11
85.861
 21
0.0935211
  0
LINE
  8
0
 10
85.861
 20
0.0935211
 11
85.7877
 21
0.12178
  0
LINE
  8
0
 10
85.7877
 20
0.12178
 11
85.7159
 21
0.15361
  0
LINE
  8
0
 10
85.7159
 20
0.15361
 11
85.6458
 21
0.188919
  0
LINE
  8
0
 10
85.6458
 20
0.188919
 11
85.5774
 21
0.227631
  0
LINE
  8
0
 10
85.5774
 20
0.227631
 11
85.5111
 21
0.269638
  0
LINE
  8
0
 10
85.5111
 20
0.269638
 11
85.4469
 21
0.314865
  0
LINE
  8
0
 10
85.4469
 20
0.314865
 11
85.385
 21
0.363174
  0
LINE
  8
0
 10
85.385
 20
0.363174
 11
85.3255
 21
0.414474
  0
LINE
  8
0
 10
85.3255
 20
0.414474
 11
85.2686
 21
0.468628
  0
LINE
  8
0
 10
85.2686
 20
0.468628
 11
85.2145
 21
0.525497
  0
LINE
  8
0
 10
85.2145
 20
0.525497
 11
85.1632
 21
0.584961
  0
LINE
  8
0
 10
85.1632
 20
0.584961
 11
85.1149
 21
0.646881
  0
LINE
  8
0
 10
85.1149
 20
0.646881
 11
85.0696
 21
0.711075
  0
LINE
  8
0
 10
85.0696
 20
0.711075
 11
85.0276
 21
0.777435
  0
LINE
  8
0
 10
85.0276
 20
0.777435
 11
84.9889
 21
0.845764
  0
LINE
  8
0
 10
84.9889
 20
0.845764
 11
84.9536
 21
0.915909
  0
LINE
  8
0
 10
84.9536
 20
0.915909
 11
84.9218
 21
0.987701
  0
LINE
  8
0
 10
84.9218
 20
0.987701
 11
84.8935
 21
1.06097
  0
LINE
  8
0
 10
84.8935
 20
1.06097
 11
84.8689
 21
1.13554
  0
LINE
  8
0
 10
84.8689
 20
1.13554
 11
84.8479
 21
1.21123
  0
LINE
  8
0
 10
84.8479
 20
1.21123
 11
84.8307
 21
1.28784
  0
LINE
  8
0
 10
84.8307
 20
1.28784
 11
84.8173
 21
1.36522
  0
LINE
  8
0
 10
84.8173
 20
1.36522
 11
84.8077
 21
1.44316
  0
LINE
  8
0
 10
84.8077
 20
1.44316
 11
84.8019
 21
1.52148
  0
LINE
  8
0
 10
84.8019
 20
1.52148
 11
84.8
 21
1.59999
  0
LINE
  8
0
 10
84.8
 20
1.59999
 11
84.8019
 21
1.6785
  0
LINE
  8
0
 10
84.8019
 20
1.6785
 11
84.8077
 21
1.75682
  0
LINE
  8
0
 10
84.8077
 20
1.75682
 11
84.8173
 21
1.83476
  0
LINE
  8
0
 10
84.8173
 20
1.83476
 11
84.8307
 21
1.91214
  0
LINE
  8
0
 10
84.8307
 20
1.91214
 11
84.8479
 21
1.98875
  0
LINE
  8
0
 10
84.8479
 20
1.98875
 11
84.8689
 21
2.06445
  0
LINE
  8
0
 10
84.8689
 20
2.06445
 11
84.8935
 21
2.13902
  0
LINE
  8
0
 10
84.8935
 20
2.13902
 11
84.9218
 21
2.21228
  0
LINE
  8
0
 10
84.9218
 20
2.21228
 11
84.9536
 21
2.28409
  0
LINE
  8
0
 10
84.9536
 20
2.28409
 11
84.9889
 21
2.35423
  0
LINE
  8
0
 10
84.9889
 20
2.35423
 11
85.0276
 21
2.42256
  0
LINE
  8
0
 10
85.0276
 20
2.42256
 11
85.0696
 21
2.48891
  0
LINE
  8
0
 10
85.0696
 20
2.48891
 11
85.1149
 21
2.55312
  0
LINE
  8
0
 10
85.1149
 20
2.55312
 11
85.1632
 21
2.61502
  0
LINE
  8
0
 10
85.1632
 20
2.61502
 11
85.2145
 21
2.67448
  0
LINE
  8
0
 10
85.2145
 20
2.67448
 11
85.2686
 21
2.73137
  0
LINE
  8
0
 10
85.2686
 20
2.73137
 11
85.3255
 21
2.78551
  0
LINE
  8
0
 10
85.3255
 20
2.78551
 11
85.385
 21
2.83681
  0
LINE
  8
0
 10
85.385
 20
2.83681
 11
85.4469
 21
2.88513
  0
LINE
  8
0
 10
85.4469
 20
2.88513
 11
85.5111
 21
2.93034
  0
LINE
  8
0
 10
85.5111
 20
2.93034
 11
85.5774
 21
2.97235
  0
LINE
  8
0
 10
85.5774
 20
2.97235
 11
85.6458
 21
3.01106
  0
LINE
  8
0
 10
85.6458
 20
3.01106
 11
85.7159
 21
3.04637
  0
LINE
  8
0
 10
85.7159
 20
3.04637
 11
85.7877
 21
3.0782
  0
LINE
  8
0
 10
85.7877
 20
3.0782
 11
85.861
 21
3.10646
  0
LINE
  8
0
 10
85.861
 20
3.10646
 11
85.9355
 21
3.1311
  0
LINE
  8
0
 10
85.9355
 20
3.1311
 11
86.0112
 21
3.15204
  0
LINE
  8
0
 10
86.0112
 20
3.15204
 11
86.0878
 21
3.16925
  0
LINE
  8
0
 10
86.0878
 20
3.16925
 11
86.1652
 21
3.18268
  0
LINE
  8
0
 10
86.1652
 20
3.18268
 11
86.2432
 21
3.19229
  0
LINE
  8
0
 10
86.2432
 20
3.19229
 11
86.3215
 21
3.19806
  0
LINE
  8
0
 10
86.3215
 20
3.19806
 11
86.4
 21
3.2
  0
LINE
  8
0
 10
86.4
 20
3.2
 11
86.4785
 21
3.19806
  0
LINE
  8
0
 10
86.4785
 20
3.19806
 11
86.5568
 21
3.19229
  0
LINE
  8
0
 10
86.5568
 20
3.19229
 11
86.6348
 21
3.18268
  0
LINE
  8
0
 10
86.6348
 20
3.18268
 11
86.7121
 21
3.16925
  0
LINE
  8
0
 10
86.7121
 20
3.16925
 11
86.7888
 21
3.15204
  0
LINE
  8
0
 10
86.7888
 20
3.15204
 11
86.8644
 21
3.1311
  0
LINE
  8
0
 10
86.8644
 20
3.1311
 11
86.939
 21
3.10646
  0
LINE
  8
0
 10
86.939
 20
3.10646
 11
87.0123
 21
3.0782
  0
LINE
  8
0
 10
87.0123
 20
3.0782
 11
87.0841
 21
3.04637
  0
LINE
  8
0
 10
87.0841
 20
3.04637
 11
87.1542
 21
3.01106
  0
LINE
  8
0
 10
87.1542
 20
3.01106
 11
87.2225
 21
2.97235
  0
LINE
  8
0
 10
87.2225
 20
2.97235
 11
87.2889
 21
2.93034
  0
LINE
  8
0
 10
87.2889
 20
2.93034
 11
87.3531
 21
2.88513
  0
LINE
  8
0
 10
87.3531
 20
2.88513
 11
87.415
 21
2.83681
  0
LINE
  8
0
 10
87.415
 20
2.83681
 11
87.4745
 21
2.78551
  0
LINE
  8
0
 10
87.4745
 20
2.78551
 11
87.5314
 21
2.73137
  0
LINE
  8
0
 10
87.5314
 20
2.73137
 11
87.5855
 21
2.67448
  0
LINE
  8
0
 10
87.5855
 20
2.67448
 11
87.6368
 21
2.61502
  0
LINE
  8
0
 10
87.6368
 20
2.61502
 11
87.6851
 21
2.55312
  0
LINE
  8
0
 10
87.6851
 20
2.55312
 11
87.7303
 21
2.48891
  0
LINE
  8
0
 10
87.7303
 20
2.48891
 11
87.7724
 21
2.42256
  0
LINE
  8
0
 10
87.7724
 20
2.42256
 11
87.8111
 21
2.35423
  0
LINE
  8
0
 10
87.8111
 20
2.35423
 11
87.8464
 21
2.28409
  0
LINE
  8
0
 10
87.8464
 20
2.28409
 11
87.8782
 21
2.21228
  0
LINE
  8
0
 10
87.8782
 20
2.21228
 11
87.9065
 21
2.13902
  0
LINE
  8
0
 10
87.9065
 20
2.13902
 11
87.9311
 21
2.06445
  0
LINE
  8
0
 10
87.9311
 20
2.06445
 11
87.952
 21
1.98875
  0
LINE
  8
0
 10
87.952
 20
1.98875
 11
87.9693
 21
1.91214
  0
LINE
  8
0
 10
87.9693
 20
1.91214
 11
87.9827
 21
1.83476
  0
LINE
  8
0
 10
87.9827
 20
1.83476
 11
87.9923
 21
1.75682
  0
LINE
  8
0
 10
87.9923
 20
1.75682
 11
87.9981
 21
1.6785
  0
LINE
  8
0
 10
87.9981
 20
1.6785
 11
88
 21
1.59999
  0
LINE
  8
0
 10
88
 20
1.59999
 11
87.9981
 21
1.52148
  0
LINE
  8
0
 10
87.9981
 20
1.52148
 11
87.9923
 21
1.44316
  0
LINE
  8
0
 10
87.9923
 20
1.44316
 11
87.9827
 21
1.36522
  0
LINE
  8
0
 10
87.9827
 20
1.36522
 11
87.9693
 21
1.28784
  0
LINE
  8
0
 10
87.9693
 20
1.28784
 11
87.952
 21
1.21123
  0
LINE
  8
0
 10
87.952
 20
1.21123
 11
87.9311
 21
1.13554
  0
LINE
  8
0
 10
87.9311
 20
1.13554
 11
87.9065
 21
1.06097
  0
LINE
  8
0
 10
87.9065
 20
1.06097
 11
87.8782
 21
0.987701
  0
LINE
  8
0
 10
87.8782
 20
0.987701
 11
87.8464
 21
0.915909
  0
LINE
  8
0
 10
87.8464
 20
0.915909
 11
87.8111
 21
0.845764
  0
LINE
  8
0
 10
87.8111
 20
0.845764
 11
87.7724
 21
0.777435
  0
LINE
  8
0
 10
87.7724
 20
0.777435
 11
87.7303
 21
0.711075
  0
LINE
  8
0
 10
87.7303
 20
0.711075
 11
87.6851
 21
0.646881
  0
LINE
  8
0
 10
87.6851
 20
0.646881
 11
87.6368
 21
0.584961
  0
LINE
  8
0
 10
87.6368
 20
0.584961
 11
87.5855
 21
0.525497
  0
LINE
  8
0
 10
87.5855
 20
0.525497
 11
87.5314
 21
0.468628
  0
LINE
  8
0
 10
87.5314
 20
0.468628
 11
87.4745
 21
0.414474
  0
LINE
  8
0
 10
87.4745
 20
0.414474
 11
87.415
 21
0.363174
  0
LINE
  8
0
 10
87.415
 20
0.363174
 11
87.3531
 21
0.314865
  0
LINE
  8
0
 10
87.3531
 20
0.314865
 11
87.2889
 21
0.269638
  0
LINE
  8
0
 10
87.2889
 20
0.269638
 11
87.2225
 21
0.227631
  0
LINE
  8
0
 10
87.2225
 20
0.227631
 11
87.1542
 21
0.188919
  0
LINE
  8
0
 10
87.1542
 20
0.188919
 11
87.0841
 21
0.15361
  0
LINE
  8
0
 10
87.0841
 20
0.15361
 11
87.0123
 21
0.12178
  0
LINE
  8
0
 10
87.0123
 20
0.12178
 11
86.939
 21
0.0935211
  0
LINE
  8
0
 10
86.939
 20
0.0935211
 11
86.8644
 21
0.0688934
  0
LINE
  8
0
 10
86.8644
 20
0.0688934
 11
86.7888
 21
0.0479431
  0
LINE
  8
0
 10
86.7888
 20
0.0479431
 11
86.7121
 21
0.0307312
  0
LINE
  8
0
 10
86.7121
 20
0.0307312
 11
86.6348
 21
0.0173035
  0
LINE
  8
0
 10
86.6348
 20
0.0173035
 11
86.5568
 21
0.00769043
  0
LINE
  8
0
 10
86.5568
 20
0.00769043
 11
86.4785
 21
0.00192261
  0
LINE
  8
0
 10
86.4785
 20
0.00192261
 11
86.4
 21
0
  0
LINE
  8
0
 10
86.4
 20
0
 11
86.3215
 21
0.00192261
  0
ENDSEC
  0
SECTION
  2
OBJECTS
  0
DICTIONARY
  0
ENDSEC
  0
EOF
