G04 #@! TF.GenerationSoftware,KiCad,Pcbnew,5.1.4+dfsg1-1*
G04 #@! TF.CreationDate,2019-11-19T12:45:03-08:00*
G04 #@! TF.ProjectId,cartridge,63617274-7269-4646-9765-2e6b69636164,rev?*
G04 #@! TF.SameCoordinates,PX40311b0PY2227a70*
G04 #@! TF.FileFunction,Soldermask,Top*
G04 #@! TF.FilePolarity,Negative*
%FSLAX46Y46*%
G04 Gerber Fmt 4.6, Leading zero omitted, Abs format (unit mm)*
G04 Created by KiCad (PCBNEW 5.1.4+dfsg1-1) date 2019-11-19 12:45:03*
%MOMM*%
%LPD*%
G04 APERTURE LIST*
%ADD10C,0.050000*%
G04 APERTURE END LIST*
D10*
G36*
X58530442Y-59811518D02*
G01*
X58596627Y-59818037D01*
X58766466Y-59869557D01*
X58922991Y-59953222D01*
X58958729Y-59982552D01*
X59060186Y-60065814D01*
X59120618Y-60139452D01*
X59172778Y-60203009D01*
X59256443Y-60359534D01*
X59307963Y-60529373D01*
X59325359Y-60706000D01*
X59307963Y-60882627D01*
X59256443Y-61052466D01*
X59172778Y-61208991D01*
X59145603Y-61242103D01*
X59060186Y-61346186D01*
X58958729Y-61429448D01*
X58922991Y-61458778D01*
X58766466Y-61542443D01*
X58596627Y-61593963D01*
X58530442Y-61600482D01*
X58464260Y-61607000D01*
X58375740Y-61607000D01*
X58309558Y-61600482D01*
X58243373Y-61593963D01*
X58073534Y-61542443D01*
X57917009Y-61458778D01*
X57881271Y-61429448D01*
X57779814Y-61346186D01*
X57694397Y-61242103D01*
X57667222Y-61208991D01*
X57583557Y-61052466D01*
X57532037Y-60882627D01*
X57514641Y-60706000D01*
X57532037Y-60529373D01*
X57583557Y-60359534D01*
X57667222Y-60203009D01*
X57719382Y-60139452D01*
X57779814Y-60065814D01*
X57881271Y-59982552D01*
X57917009Y-59953222D01*
X58073534Y-59869557D01*
X58243373Y-59818037D01*
X58309558Y-59811518D01*
X58375740Y-59805000D01*
X58464260Y-59805000D01*
X58530442Y-59811518D01*
X58530442Y-59811518D01*
G37*
G36*
X33130442Y-59811518D02*
G01*
X33196627Y-59818037D01*
X33366466Y-59869557D01*
X33522991Y-59953222D01*
X33558729Y-59982552D01*
X33660186Y-60065814D01*
X33720618Y-60139452D01*
X33772778Y-60203009D01*
X33856443Y-60359534D01*
X33907963Y-60529373D01*
X33925359Y-60706000D01*
X33907963Y-60882627D01*
X33856443Y-61052466D01*
X33772778Y-61208991D01*
X33745603Y-61242103D01*
X33660186Y-61346186D01*
X33558729Y-61429448D01*
X33522991Y-61458778D01*
X33366466Y-61542443D01*
X33196627Y-61593963D01*
X33130442Y-61600482D01*
X33064260Y-61607000D01*
X32975740Y-61607000D01*
X32909558Y-61600482D01*
X32843373Y-61593963D01*
X32673534Y-61542443D01*
X32517009Y-61458778D01*
X32481271Y-61429448D01*
X32379814Y-61346186D01*
X32294397Y-61242103D01*
X32267222Y-61208991D01*
X32183557Y-61052466D01*
X32132037Y-60882627D01*
X32114641Y-60706000D01*
X32132037Y-60529373D01*
X32183557Y-60359534D01*
X32267222Y-60203009D01*
X32319382Y-60139452D01*
X32379814Y-60065814D01*
X32481271Y-59982552D01*
X32517009Y-59953222D01*
X32673534Y-59869557D01*
X32843373Y-59818037D01*
X32909558Y-59811518D01*
X32975740Y-59805000D01*
X33064260Y-59805000D01*
X33130442Y-59811518D01*
X33130442Y-59811518D01*
G37*
G36*
X11061000Y-61607000D02*
G01*
X9259000Y-61607000D01*
X9259000Y-59805000D01*
X11061000Y-59805000D01*
X11061000Y-61607000D01*
X11061000Y-61607000D01*
G37*
G36*
X12810442Y-59811518D02*
G01*
X12876627Y-59818037D01*
X13046466Y-59869557D01*
X13202991Y-59953222D01*
X13238729Y-59982552D01*
X13340186Y-60065814D01*
X13400618Y-60139452D01*
X13452778Y-60203009D01*
X13536443Y-60359534D01*
X13587963Y-60529373D01*
X13605359Y-60706000D01*
X13587963Y-60882627D01*
X13536443Y-61052466D01*
X13452778Y-61208991D01*
X13425603Y-61242103D01*
X13340186Y-61346186D01*
X13238729Y-61429448D01*
X13202991Y-61458778D01*
X13046466Y-61542443D01*
X12876627Y-61593963D01*
X12810442Y-61600482D01*
X12744260Y-61607000D01*
X12655740Y-61607000D01*
X12589558Y-61600482D01*
X12523373Y-61593963D01*
X12353534Y-61542443D01*
X12197009Y-61458778D01*
X12161271Y-61429448D01*
X12059814Y-61346186D01*
X11974397Y-61242103D01*
X11947222Y-61208991D01*
X11863557Y-61052466D01*
X11812037Y-60882627D01*
X11794641Y-60706000D01*
X11812037Y-60529373D01*
X11863557Y-60359534D01*
X11947222Y-60203009D01*
X11999382Y-60139452D01*
X12059814Y-60065814D01*
X12161271Y-59982552D01*
X12197009Y-59953222D01*
X12353534Y-59869557D01*
X12523373Y-59818037D01*
X12589558Y-59811518D01*
X12655740Y-59805000D01*
X12744260Y-59805000D01*
X12810442Y-59811518D01*
X12810442Y-59811518D01*
G37*
G36*
X15350442Y-59811518D02*
G01*
X15416627Y-59818037D01*
X15586466Y-59869557D01*
X15742991Y-59953222D01*
X15778729Y-59982552D01*
X15880186Y-60065814D01*
X15940618Y-60139452D01*
X15992778Y-60203009D01*
X16076443Y-60359534D01*
X16127963Y-60529373D01*
X16145359Y-60706000D01*
X16127963Y-60882627D01*
X16076443Y-61052466D01*
X15992778Y-61208991D01*
X15965603Y-61242103D01*
X15880186Y-61346186D01*
X15778729Y-61429448D01*
X15742991Y-61458778D01*
X15586466Y-61542443D01*
X15416627Y-61593963D01*
X15350442Y-61600482D01*
X15284260Y-61607000D01*
X15195740Y-61607000D01*
X15129558Y-61600482D01*
X15063373Y-61593963D01*
X14893534Y-61542443D01*
X14737009Y-61458778D01*
X14701271Y-61429448D01*
X14599814Y-61346186D01*
X14514397Y-61242103D01*
X14487222Y-61208991D01*
X14403557Y-61052466D01*
X14352037Y-60882627D01*
X14334641Y-60706000D01*
X14352037Y-60529373D01*
X14403557Y-60359534D01*
X14487222Y-60203009D01*
X14539382Y-60139452D01*
X14599814Y-60065814D01*
X14701271Y-59982552D01*
X14737009Y-59953222D01*
X14893534Y-59869557D01*
X15063373Y-59818037D01*
X15129558Y-59811518D01*
X15195740Y-59805000D01*
X15284260Y-59805000D01*
X15350442Y-59811518D01*
X15350442Y-59811518D01*
G37*
G36*
X17890442Y-59811518D02*
G01*
X17956627Y-59818037D01*
X18126466Y-59869557D01*
X18282991Y-59953222D01*
X18318729Y-59982552D01*
X18420186Y-60065814D01*
X18480618Y-60139452D01*
X18532778Y-60203009D01*
X18616443Y-60359534D01*
X18667963Y-60529373D01*
X18685359Y-60706000D01*
X18667963Y-60882627D01*
X18616443Y-61052466D01*
X18532778Y-61208991D01*
X18505603Y-61242103D01*
X18420186Y-61346186D01*
X18318729Y-61429448D01*
X18282991Y-61458778D01*
X18126466Y-61542443D01*
X17956627Y-61593963D01*
X17890442Y-61600482D01*
X17824260Y-61607000D01*
X17735740Y-61607000D01*
X17669558Y-61600482D01*
X17603373Y-61593963D01*
X17433534Y-61542443D01*
X17277009Y-61458778D01*
X17241271Y-61429448D01*
X17139814Y-61346186D01*
X17054397Y-61242103D01*
X17027222Y-61208991D01*
X16943557Y-61052466D01*
X16892037Y-60882627D01*
X16874641Y-60706000D01*
X16892037Y-60529373D01*
X16943557Y-60359534D01*
X17027222Y-60203009D01*
X17079382Y-60139452D01*
X17139814Y-60065814D01*
X17241271Y-59982552D01*
X17277009Y-59953222D01*
X17433534Y-59869557D01*
X17603373Y-59818037D01*
X17669558Y-59811518D01*
X17735740Y-59805000D01*
X17824260Y-59805000D01*
X17890442Y-59811518D01*
X17890442Y-59811518D01*
G37*
G36*
X20430442Y-59811518D02*
G01*
X20496627Y-59818037D01*
X20666466Y-59869557D01*
X20822991Y-59953222D01*
X20858729Y-59982552D01*
X20960186Y-60065814D01*
X21020618Y-60139452D01*
X21072778Y-60203009D01*
X21156443Y-60359534D01*
X21207963Y-60529373D01*
X21225359Y-60706000D01*
X21207963Y-60882627D01*
X21156443Y-61052466D01*
X21072778Y-61208991D01*
X21045603Y-61242103D01*
X20960186Y-61346186D01*
X20858729Y-61429448D01*
X20822991Y-61458778D01*
X20666466Y-61542443D01*
X20496627Y-61593963D01*
X20430442Y-61600482D01*
X20364260Y-61607000D01*
X20275740Y-61607000D01*
X20209558Y-61600482D01*
X20143373Y-61593963D01*
X19973534Y-61542443D01*
X19817009Y-61458778D01*
X19781271Y-61429448D01*
X19679814Y-61346186D01*
X19594397Y-61242103D01*
X19567222Y-61208991D01*
X19483557Y-61052466D01*
X19432037Y-60882627D01*
X19414641Y-60706000D01*
X19432037Y-60529373D01*
X19483557Y-60359534D01*
X19567222Y-60203009D01*
X19619382Y-60139452D01*
X19679814Y-60065814D01*
X19781271Y-59982552D01*
X19817009Y-59953222D01*
X19973534Y-59869557D01*
X20143373Y-59818037D01*
X20209558Y-59811518D01*
X20275740Y-59805000D01*
X20364260Y-59805000D01*
X20430442Y-59811518D01*
X20430442Y-59811518D01*
G37*
G36*
X22970442Y-59811518D02*
G01*
X23036627Y-59818037D01*
X23206466Y-59869557D01*
X23362991Y-59953222D01*
X23398729Y-59982552D01*
X23500186Y-60065814D01*
X23560618Y-60139452D01*
X23612778Y-60203009D01*
X23696443Y-60359534D01*
X23747963Y-60529373D01*
X23765359Y-60706000D01*
X23747963Y-60882627D01*
X23696443Y-61052466D01*
X23612778Y-61208991D01*
X23585603Y-61242103D01*
X23500186Y-61346186D01*
X23398729Y-61429448D01*
X23362991Y-61458778D01*
X23206466Y-61542443D01*
X23036627Y-61593963D01*
X22970442Y-61600482D01*
X22904260Y-61607000D01*
X22815740Y-61607000D01*
X22749558Y-61600482D01*
X22683373Y-61593963D01*
X22513534Y-61542443D01*
X22357009Y-61458778D01*
X22321271Y-61429448D01*
X22219814Y-61346186D01*
X22134397Y-61242103D01*
X22107222Y-61208991D01*
X22023557Y-61052466D01*
X21972037Y-60882627D01*
X21954641Y-60706000D01*
X21972037Y-60529373D01*
X22023557Y-60359534D01*
X22107222Y-60203009D01*
X22159382Y-60139452D01*
X22219814Y-60065814D01*
X22321271Y-59982552D01*
X22357009Y-59953222D01*
X22513534Y-59869557D01*
X22683373Y-59818037D01*
X22749558Y-59811518D01*
X22815740Y-59805000D01*
X22904260Y-59805000D01*
X22970442Y-59811518D01*
X22970442Y-59811518D01*
G37*
G36*
X25510442Y-59811518D02*
G01*
X25576627Y-59818037D01*
X25746466Y-59869557D01*
X25902991Y-59953222D01*
X25938729Y-59982552D01*
X26040186Y-60065814D01*
X26100618Y-60139452D01*
X26152778Y-60203009D01*
X26236443Y-60359534D01*
X26287963Y-60529373D01*
X26305359Y-60706000D01*
X26287963Y-60882627D01*
X26236443Y-61052466D01*
X26152778Y-61208991D01*
X26125603Y-61242103D01*
X26040186Y-61346186D01*
X25938729Y-61429448D01*
X25902991Y-61458778D01*
X25746466Y-61542443D01*
X25576627Y-61593963D01*
X25510442Y-61600482D01*
X25444260Y-61607000D01*
X25355740Y-61607000D01*
X25289558Y-61600482D01*
X25223373Y-61593963D01*
X25053534Y-61542443D01*
X24897009Y-61458778D01*
X24861271Y-61429448D01*
X24759814Y-61346186D01*
X24674397Y-61242103D01*
X24647222Y-61208991D01*
X24563557Y-61052466D01*
X24512037Y-60882627D01*
X24494641Y-60706000D01*
X24512037Y-60529373D01*
X24563557Y-60359534D01*
X24647222Y-60203009D01*
X24699382Y-60139452D01*
X24759814Y-60065814D01*
X24861271Y-59982552D01*
X24897009Y-59953222D01*
X25053534Y-59869557D01*
X25223373Y-59818037D01*
X25289558Y-59811518D01*
X25355740Y-59805000D01*
X25444260Y-59805000D01*
X25510442Y-59811518D01*
X25510442Y-59811518D01*
G37*
G36*
X28050442Y-59811518D02*
G01*
X28116627Y-59818037D01*
X28286466Y-59869557D01*
X28442991Y-59953222D01*
X28478729Y-59982552D01*
X28580186Y-60065814D01*
X28640618Y-60139452D01*
X28692778Y-60203009D01*
X28776443Y-60359534D01*
X28827963Y-60529373D01*
X28845359Y-60706000D01*
X28827963Y-60882627D01*
X28776443Y-61052466D01*
X28692778Y-61208991D01*
X28665603Y-61242103D01*
X28580186Y-61346186D01*
X28478729Y-61429448D01*
X28442991Y-61458778D01*
X28286466Y-61542443D01*
X28116627Y-61593963D01*
X28050442Y-61600482D01*
X27984260Y-61607000D01*
X27895740Y-61607000D01*
X27829558Y-61600482D01*
X27763373Y-61593963D01*
X27593534Y-61542443D01*
X27437009Y-61458778D01*
X27401271Y-61429448D01*
X27299814Y-61346186D01*
X27214397Y-61242103D01*
X27187222Y-61208991D01*
X27103557Y-61052466D01*
X27052037Y-60882627D01*
X27034641Y-60706000D01*
X27052037Y-60529373D01*
X27103557Y-60359534D01*
X27187222Y-60203009D01*
X27239382Y-60139452D01*
X27299814Y-60065814D01*
X27401271Y-59982552D01*
X27437009Y-59953222D01*
X27593534Y-59869557D01*
X27763373Y-59818037D01*
X27829558Y-59811518D01*
X27895740Y-59805000D01*
X27984260Y-59805000D01*
X28050442Y-59811518D01*
X28050442Y-59811518D01*
G37*
G36*
X30590442Y-59811518D02*
G01*
X30656627Y-59818037D01*
X30826466Y-59869557D01*
X30982991Y-59953222D01*
X31018729Y-59982552D01*
X31120186Y-60065814D01*
X31180618Y-60139452D01*
X31232778Y-60203009D01*
X31316443Y-60359534D01*
X31367963Y-60529373D01*
X31385359Y-60706000D01*
X31367963Y-60882627D01*
X31316443Y-61052466D01*
X31232778Y-61208991D01*
X31205603Y-61242103D01*
X31120186Y-61346186D01*
X31018729Y-61429448D01*
X30982991Y-61458778D01*
X30826466Y-61542443D01*
X30656627Y-61593963D01*
X30590442Y-61600482D01*
X30524260Y-61607000D01*
X30435740Y-61607000D01*
X30369558Y-61600482D01*
X30303373Y-61593963D01*
X30133534Y-61542443D01*
X29977009Y-61458778D01*
X29941271Y-61429448D01*
X29839814Y-61346186D01*
X29754397Y-61242103D01*
X29727222Y-61208991D01*
X29643557Y-61052466D01*
X29592037Y-60882627D01*
X29574641Y-60706000D01*
X29592037Y-60529373D01*
X29643557Y-60359534D01*
X29727222Y-60203009D01*
X29779382Y-60139452D01*
X29839814Y-60065814D01*
X29941271Y-59982552D01*
X29977009Y-59953222D01*
X30133534Y-59869557D01*
X30303373Y-59818037D01*
X30369558Y-59811518D01*
X30435740Y-59805000D01*
X30524260Y-59805000D01*
X30590442Y-59811518D01*
X30590442Y-59811518D01*
G37*
G36*
X38210442Y-59811518D02*
G01*
X38276627Y-59818037D01*
X38446466Y-59869557D01*
X38602991Y-59953222D01*
X38638729Y-59982552D01*
X38740186Y-60065814D01*
X38800618Y-60139452D01*
X38852778Y-60203009D01*
X38936443Y-60359534D01*
X38987963Y-60529373D01*
X39005359Y-60706000D01*
X38987963Y-60882627D01*
X38936443Y-61052466D01*
X38852778Y-61208991D01*
X38825603Y-61242103D01*
X38740186Y-61346186D01*
X38638729Y-61429448D01*
X38602991Y-61458778D01*
X38446466Y-61542443D01*
X38276627Y-61593963D01*
X38210442Y-61600482D01*
X38144260Y-61607000D01*
X38055740Y-61607000D01*
X37989558Y-61600482D01*
X37923373Y-61593963D01*
X37753534Y-61542443D01*
X37597009Y-61458778D01*
X37561271Y-61429448D01*
X37459814Y-61346186D01*
X37374397Y-61242103D01*
X37347222Y-61208991D01*
X37263557Y-61052466D01*
X37212037Y-60882627D01*
X37194641Y-60706000D01*
X37212037Y-60529373D01*
X37263557Y-60359534D01*
X37347222Y-60203009D01*
X37399382Y-60139452D01*
X37459814Y-60065814D01*
X37561271Y-59982552D01*
X37597009Y-59953222D01*
X37753534Y-59869557D01*
X37923373Y-59818037D01*
X37989558Y-59811518D01*
X38055740Y-59805000D01*
X38144260Y-59805000D01*
X38210442Y-59811518D01*
X38210442Y-59811518D01*
G37*
G36*
X40750442Y-59811518D02*
G01*
X40816627Y-59818037D01*
X40986466Y-59869557D01*
X41142991Y-59953222D01*
X41178729Y-59982552D01*
X41280186Y-60065814D01*
X41340618Y-60139452D01*
X41392778Y-60203009D01*
X41476443Y-60359534D01*
X41527963Y-60529373D01*
X41545359Y-60706000D01*
X41527963Y-60882627D01*
X41476443Y-61052466D01*
X41392778Y-61208991D01*
X41365603Y-61242103D01*
X41280186Y-61346186D01*
X41178729Y-61429448D01*
X41142991Y-61458778D01*
X40986466Y-61542443D01*
X40816627Y-61593963D01*
X40750442Y-61600482D01*
X40684260Y-61607000D01*
X40595740Y-61607000D01*
X40529558Y-61600482D01*
X40463373Y-61593963D01*
X40293534Y-61542443D01*
X40137009Y-61458778D01*
X40101271Y-61429448D01*
X39999814Y-61346186D01*
X39914397Y-61242103D01*
X39887222Y-61208991D01*
X39803557Y-61052466D01*
X39752037Y-60882627D01*
X39734641Y-60706000D01*
X39752037Y-60529373D01*
X39803557Y-60359534D01*
X39887222Y-60203009D01*
X39939382Y-60139452D01*
X39999814Y-60065814D01*
X40101271Y-59982552D01*
X40137009Y-59953222D01*
X40293534Y-59869557D01*
X40463373Y-59818037D01*
X40529558Y-59811518D01*
X40595740Y-59805000D01*
X40684260Y-59805000D01*
X40750442Y-59811518D01*
X40750442Y-59811518D01*
G37*
G36*
X43290442Y-59811518D02*
G01*
X43356627Y-59818037D01*
X43526466Y-59869557D01*
X43682991Y-59953222D01*
X43718729Y-59982552D01*
X43820186Y-60065814D01*
X43880618Y-60139452D01*
X43932778Y-60203009D01*
X44016443Y-60359534D01*
X44067963Y-60529373D01*
X44085359Y-60706000D01*
X44067963Y-60882627D01*
X44016443Y-61052466D01*
X43932778Y-61208991D01*
X43905603Y-61242103D01*
X43820186Y-61346186D01*
X43718729Y-61429448D01*
X43682991Y-61458778D01*
X43526466Y-61542443D01*
X43356627Y-61593963D01*
X43290442Y-61600482D01*
X43224260Y-61607000D01*
X43135740Y-61607000D01*
X43069558Y-61600482D01*
X43003373Y-61593963D01*
X42833534Y-61542443D01*
X42677009Y-61458778D01*
X42641271Y-61429448D01*
X42539814Y-61346186D01*
X42454397Y-61242103D01*
X42427222Y-61208991D01*
X42343557Y-61052466D01*
X42292037Y-60882627D01*
X42274641Y-60706000D01*
X42292037Y-60529373D01*
X42343557Y-60359534D01*
X42427222Y-60203009D01*
X42479382Y-60139452D01*
X42539814Y-60065814D01*
X42641271Y-59982552D01*
X42677009Y-59953222D01*
X42833534Y-59869557D01*
X43003373Y-59818037D01*
X43069558Y-59811518D01*
X43135740Y-59805000D01*
X43224260Y-59805000D01*
X43290442Y-59811518D01*
X43290442Y-59811518D01*
G37*
G36*
X45830442Y-59811518D02*
G01*
X45896627Y-59818037D01*
X46066466Y-59869557D01*
X46222991Y-59953222D01*
X46258729Y-59982552D01*
X46360186Y-60065814D01*
X46420618Y-60139452D01*
X46472778Y-60203009D01*
X46556443Y-60359534D01*
X46607963Y-60529373D01*
X46625359Y-60706000D01*
X46607963Y-60882627D01*
X46556443Y-61052466D01*
X46472778Y-61208991D01*
X46445603Y-61242103D01*
X46360186Y-61346186D01*
X46258729Y-61429448D01*
X46222991Y-61458778D01*
X46066466Y-61542443D01*
X45896627Y-61593963D01*
X45830442Y-61600482D01*
X45764260Y-61607000D01*
X45675740Y-61607000D01*
X45609558Y-61600482D01*
X45543373Y-61593963D01*
X45373534Y-61542443D01*
X45217009Y-61458778D01*
X45181271Y-61429448D01*
X45079814Y-61346186D01*
X44994397Y-61242103D01*
X44967222Y-61208991D01*
X44883557Y-61052466D01*
X44832037Y-60882627D01*
X44814641Y-60706000D01*
X44832037Y-60529373D01*
X44883557Y-60359534D01*
X44967222Y-60203009D01*
X45019382Y-60139452D01*
X45079814Y-60065814D01*
X45181271Y-59982552D01*
X45217009Y-59953222D01*
X45373534Y-59869557D01*
X45543373Y-59818037D01*
X45609558Y-59811518D01*
X45675740Y-59805000D01*
X45764260Y-59805000D01*
X45830442Y-59811518D01*
X45830442Y-59811518D01*
G37*
G36*
X48370442Y-59811518D02*
G01*
X48436627Y-59818037D01*
X48606466Y-59869557D01*
X48762991Y-59953222D01*
X48798729Y-59982552D01*
X48900186Y-60065814D01*
X48960618Y-60139452D01*
X49012778Y-60203009D01*
X49096443Y-60359534D01*
X49147963Y-60529373D01*
X49165359Y-60706000D01*
X49147963Y-60882627D01*
X49096443Y-61052466D01*
X49012778Y-61208991D01*
X48985603Y-61242103D01*
X48900186Y-61346186D01*
X48798729Y-61429448D01*
X48762991Y-61458778D01*
X48606466Y-61542443D01*
X48436627Y-61593963D01*
X48370442Y-61600482D01*
X48304260Y-61607000D01*
X48215740Y-61607000D01*
X48149558Y-61600482D01*
X48083373Y-61593963D01*
X47913534Y-61542443D01*
X47757009Y-61458778D01*
X47721271Y-61429448D01*
X47619814Y-61346186D01*
X47534397Y-61242103D01*
X47507222Y-61208991D01*
X47423557Y-61052466D01*
X47372037Y-60882627D01*
X47354641Y-60706000D01*
X47372037Y-60529373D01*
X47423557Y-60359534D01*
X47507222Y-60203009D01*
X47559382Y-60139452D01*
X47619814Y-60065814D01*
X47721271Y-59982552D01*
X47757009Y-59953222D01*
X47913534Y-59869557D01*
X48083373Y-59818037D01*
X48149558Y-59811518D01*
X48215740Y-59805000D01*
X48304260Y-59805000D01*
X48370442Y-59811518D01*
X48370442Y-59811518D01*
G37*
G36*
X50910442Y-59811518D02*
G01*
X50976627Y-59818037D01*
X51146466Y-59869557D01*
X51302991Y-59953222D01*
X51338729Y-59982552D01*
X51440186Y-60065814D01*
X51500618Y-60139452D01*
X51552778Y-60203009D01*
X51636443Y-60359534D01*
X51687963Y-60529373D01*
X51705359Y-60706000D01*
X51687963Y-60882627D01*
X51636443Y-61052466D01*
X51552778Y-61208991D01*
X51525603Y-61242103D01*
X51440186Y-61346186D01*
X51338729Y-61429448D01*
X51302991Y-61458778D01*
X51146466Y-61542443D01*
X50976627Y-61593963D01*
X50910442Y-61600482D01*
X50844260Y-61607000D01*
X50755740Y-61607000D01*
X50689558Y-61600482D01*
X50623373Y-61593963D01*
X50453534Y-61542443D01*
X50297009Y-61458778D01*
X50261271Y-61429448D01*
X50159814Y-61346186D01*
X50074397Y-61242103D01*
X50047222Y-61208991D01*
X49963557Y-61052466D01*
X49912037Y-60882627D01*
X49894641Y-60706000D01*
X49912037Y-60529373D01*
X49963557Y-60359534D01*
X50047222Y-60203009D01*
X50099382Y-60139452D01*
X50159814Y-60065814D01*
X50261271Y-59982552D01*
X50297009Y-59953222D01*
X50453534Y-59869557D01*
X50623373Y-59818037D01*
X50689558Y-59811518D01*
X50755740Y-59805000D01*
X50844260Y-59805000D01*
X50910442Y-59811518D01*
X50910442Y-59811518D01*
G37*
G36*
X53450442Y-59811518D02*
G01*
X53516627Y-59818037D01*
X53686466Y-59869557D01*
X53842991Y-59953222D01*
X53878729Y-59982552D01*
X53980186Y-60065814D01*
X54040618Y-60139452D01*
X54092778Y-60203009D01*
X54176443Y-60359534D01*
X54227963Y-60529373D01*
X54245359Y-60706000D01*
X54227963Y-60882627D01*
X54176443Y-61052466D01*
X54092778Y-61208991D01*
X54065603Y-61242103D01*
X53980186Y-61346186D01*
X53878729Y-61429448D01*
X53842991Y-61458778D01*
X53686466Y-61542443D01*
X53516627Y-61593963D01*
X53450442Y-61600482D01*
X53384260Y-61607000D01*
X53295740Y-61607000D01*
X53229558Y-61600482D01*
X53163373Y-61593963D01*
X52993534Y-61542443D01*
X52837009Y-61458778D01*
X52801271Y-61429448D01*
X52699814Y-61346186D01*
X52614397Y-61242103D01*
X52587222Y-61208991D01*
X52503557Y-61052466D01*
X52452037Y-60882627D01*
X52434641Y-60706000D01*
X52452037Y-60529373D01*
X52503557Y-60359534D01*
X52587222Y-60203009D01*
X52639382Y-60139452D01*
X52699814Y-60065814D01*
X52801271Y-59982552D01*
X52837009Y-59953222D01*
X52993534Y-59869557D01*
X53163373Y-59818037D01*
X53229558Y-59811518D01*
X53295740Y-59805000D01*
X53384260Y-59805000D01*
X53450442Y-59811518D01*
X53450442Y-59811518D01*
G37*
G36*
X55990442Y-59811518D02*
G01*
X56056627Y-59818037D01*
X56226466Y-59869557D01*
X56382991Y-59953222D01*
X56418729Y-59982552D01*
X56520186Y-60065814D01*
X56580618Y-60139452D01*
X56632778Y-60203009D01*
X56716443Y-60359534D01*
X56767963Y-60529373D01*
X56785359Y-60706000D01*
X56767963Y-60882627D01*
X56716443Y-61052466D01*
X56632778Y-61208991D01*
X56605603Y-61242103D01*
X56520186Y-61346186D01*
X56418729Y-61429448D01*
X56382991Y-61458778D01*
X56226466Y-61542443D01*
X56056627Y-61593963D01*
X55990442Y-61600482D01*
X55924260Y-61607000D01*
X55835740Y-61607000D01*
X55769558Y-61600482D01*
X55703373Y-61593963D01*
X55533534Y-61542443D01*
X55377009Y-61458778D01*
X55341271Y-61429448D01*
X55239814Y-61346186D01*
X55154397Y-61242103D01*
X55127222Y-61208991D01*
X55043557Y-61052466D01*
X54992037Y-60882627D01*
X54974641Y-60706000D01*
X54992037Y-60529373D01*
X55043557Y-60359534D01*
X55127222Y-60203009D01*
X55179382Y-60139452D01*
X55239814Y-60065814D01*
X55341271Y-59982552D01*
X55377009Y-59953222D01*
X55533534Y-59869557D01*
X55703373Y-59818037D01*
X55769558Y-59811518D01*
X55835740Y-59805000D01*
X55924260Y-59805000D01*
X55990442Y-59811518D01*
X55990442Y-59811518D01*
G37*
G36*
X35670442Y-59811518D02*
G01*
X35736627Y-59818037D01*
X35906466Y-59869557D01*
X36062991Y-59953222D01*
X36098729Y-59982552D01*
X36200186Y-60065814D01*
X36260618Y-60139452D01*
X36312778Y-60203009D01*
X36396443Y-60359534D01*
X36447963Y-60529373D01*
X36465359Y-60706000D01*
X36447963Y-60882627D01*
X36396443Y-61052466D01*
X36312778Y-61208991D01*
X36285603Y-61242103D01*
X36200186Y-61346186D01*
X36098729Y-61429448D01*
X36062991Y-61458778D01*
X35906466Y-61542443D01*
X35736627Y-61593963D01*
X35670442Y-61600482D01*
X35604260Y-61607000D01*
X35515740Y-61607000D01*
X35449558Y-61600482D01*
X35383373Y-61593963D01*
X35213534Y-61542443D01*
X35057009Y-61458778D01*
X35021271Y-61429448D01*
X34919814Y-61346186D01*
X34834397Y-61242103D01*
X34807222Y-61208991D01*
X34723557Y-61052466D01*
X34672037Y-60882627D01*
X34654641Y-60706000D01*
X34672037Y-60529373D01*
X34723557Y-60359534D01*
X34807222Y-60203009D01*
X34859382Y-60139452D01*
X34919814Y-60065814D01*
X35021271Y-59982552D01*
X35057009Y-59953222D01*
X35213534Y-59869557D01*
X35383373Y-59818037D01*
X35449558Y-59811518D01*
X35515740Y-59805000D01*
X35604260Y-59805000D01*
X35670442Y-59811518D01*
X35670442Y-59811518D01*
G37*
G36*
X6938674Y-60084465D02*
G01*
X6976367Y-60095899D01*
X7011103Y-60114466D01*
X7041548Y-60139452D01*
X7066534Y-60169897D01*
X7085101Y-60204633D01*
X7096535Y-60242326D01*
X7101000Y-60287661D01*
X7101000Y-61124339D01*
X7096535Y-61169674D01*
X7085101Y-61207367D01*
X7066534Y-61242103D01*
X7041548Y-61272548D01*
X7011103Y-61297534D01*
X6976367Y-61316101D01*
X6938674Y-61327535D01*
X6893339Y-61332000D01*
X5806661Y-61332000D01*
X5761326Y-61327535D01*
X5723633Y-61316101D01*
X5688897Y-61297534D01*
X5658452Y-61272548D01*
X5633466Y-61242103D01*
X5614899Y-61207367D01*
X5603465Y-61169674D01*
X5599000Y-61124339D01*
X5599000Y-60287661D01*
X5603465Y-60242326D01*
X5614899Y-60204633D01*
X5633466Y-60169897D01*
X5658452Y-60139452D01*
X5688897Y-60114466D01*
X5723633Y-60095899D01*
X5761326Y-60084465D01*
X5806661Y-60080000D01*
X6893339Y-60080000D01*
X6938674Y-60084465D01*
X6938674Y-60084465D01*
G37*
G36*
X6938674Y-58034465D02*
G01*
X6976367Y-58045899D01*
X7011103Y-58064466D01*
X7041548Y-58089452D01*
X7066534Y-58119897D01*
X7085101Y-58154633D01*
X7096535Y-58192326D01*
X7101000Y-58237661D01*
X7101000Y-59074339D01*
X7096535Y-59119674D01*
X7085101Y-59157367D01*
X7066534Y-59192103D01*
X7041548Y-59222548D01*
X7011103Y-59247534D01*
X6976367Y-59266101D01*
X6938674Y-59277535D01*
X6893339Y-59282000D01*
X5806661Y-59282000D01*
X5761326Y-59277535D01*
X5723633Y-59266101D01*
X5688897Y-59247534D01*
X5658452Y-59222548D01*
X5633466Y-59192103D01*
X5614899Y-59157367D01*
X5603465Y-59119674D01*
X5599000Y-59074339D01*
X5599000Y-58237661D01*
X5603465Y-58192326D01*
X5614899Y-58154633D01*
X5633466Y-58119897D01*
X5658452Y-58089452D01*
X5688897Y-58064466D01*
X5723633Y-58045899D01*
X5761326Y-58034465D01*
X5806661Y-58030000D01*
X6893339Y-58030000D01*
X6938674Y-58034465D01*
X6938674Y-58034465D01*
G37*
G36*
X15350443Y-57271519D02*
G01*
X15416627Y-57278037D01*
X15586466Y-57329557D01*
X15742991Y-57413222D01*
X15778729Y-57442552D01*
X15880186Y-57525814D01*
X15963448Y-57627271D01*
X15992778Y-57663009D01*
X16076443Y-57819534D01*
X16127963Y-57989373D01*
X16145359Y-58166000D01*
X16127963Y-58342627D01*
X16076443Y-58512466D01*
X15992778Y-58668991D01*
X15963448Y-58704729D01*
X15880186Y-58806186D01*
X15778729Y-58889448D01*
X15742991Y-58918778D01*
X15586466Y-59002443D01*
X15416627Y-59053963D01*
X15350443Y-59060481D01*
X15284260Y-59067000D01*
X15195740Y-59067000D01*
X15129557Y-59060481D01*
X15063373Y-59053963D01*
X14893534Y-59002443D01*
X14737009Y-58918778D01*
X14701271Y-58889448D01*
X14599814Y-58806186D01*
X14516552Y-58704729D01*
X14487222Y-58668991D01*
X14403557Y-58512466D01*
X14352037Y-58342627D01*
X14334641Y-58166000D01*
X14352037Y-57989373D01*
X14403557Y-57819534D01*
X14487222Y-57663009D01*
X14516552Y-57627271D01*
X14599814Y-57525814D01*
X14701271Y-57442552D01*
X14737009Y-57413222D01*
X14893534Y-57329557D01*
X15063373Y-57278037D01*
X15129557Y-57271519D01*
X15195740Y-57265000D01*
X15284260Y-57265000D01*
X15350443Y-57271519D01*
X15350443Y-57271519D01*
G37*
G36*
X10270443Y-57271519D02*
G01*
X10336627Y-57278037D01*
X10506466Y-57329557D01*
X10662991Y-57413222D01*
X10698729Y-57442552D01*
X10800186Y-57525814D01*
X10883448Y-57627271D01*
X10912778Y-57663009D01*
X10996443Y-57819534D01*
X11047963Y-57989373D01*
X11065359Y-58166000D01*
X11047963Y-58342627D01*
X10996443Y-58512466D01*
X10912778Y-58668991D01*
X10883448Y-58704729D01*
X10800186Y-58806186D01*
X10698729Y-58889448D01*
X10662991Y-58918778D01*
X10506466Y-59002443D01*
X10336627Y-59053963D01*
X10270443Y-59060481D01*
X10204260Y-59067000D01*
X10115740Y-59067000D01*
X10049557Y-59060481D01*
X9983373Y-59053963D01*
X9813534Y-59002443D01*
X9657009Y-58918778D01*
X9621271Y-58889448D01*
X9519814Y-58806186D01*
X9436552Y-58704729D01*
X9407222Y-58668991D01*
X9323557Y-58512466D01*
X9272037Y-58342627D01*
X9254641Y-58166000D01*
X9272037Y-57989373D01*
X9323557Y-57819534D01*
X9407222Y-57663009D01*
X9436552Y-57627271D01*
X9519814Y-57525814D01*
X9621271Y-57442552D01*
X9657009Y-57413222D01*
X9813534Y-57329557D01*
X9983373Y-57278037D01*
X10049557Y-57271519D01*
X10115740Y-57265000D01*
X10204260Y-57265000D01*
X10270443Y-57271519D01*
X10270443Y-57271519D01*
G37*
G36*
X12810443Y-57271519D02*
G01*
X12876627Y-57278037D01*
X13046466Y-57329557D01*
X13202991Y-57413222D01*
X13238729Y-57442552D01*
X13340186Y-57525814D01*
X13423448Y-57627271D01*
X13452778Y-57663009D01*
X13536443Y-57819534D01*
X13587963Y-57989373D01*
X13605359Y-58166000D01*
X13587963Y-58342627D01*
X13536443Y-58512466D01*
X13452778Y-58668991D01*
X13423448Y-58704729D01*
X13340186Y-58806186D01*
X13238729Y-58889448D01*
X13202991Y-58918778D01*
X13046466Y-59002443D01*
X12876627Y-59053963D01*
X12810443Y-59060481D01*
X12744260Y-59067000D01*
X12655740Y-59067000D01*
X12589557Y-59060481D01*
X12523373Y-59053963D01*
X12353534Y-59002443D01*
X12197009Y-58918778D01*
X12161271Y-58889448D01*
X12059814Y-58806186D01*
X11976552Y-58704729D01*
X11947222Y-58668991D01*
X11863557Y-58512466D01*
X11812037Y-58342627D01*
X11794641Y-58166000D01*
X11812037Y-57989373D01*
X11863557Y-57819534D01*
X11947222Y-57663009D01*
X11976552Y-57627271D01*
X12059814Y-57525814D01*
X12161271Y-57442552D01*
X12197009Y-57413222D01*
X12353534Y-57329557D01*
X12523373Y-57278037D01*
X12589557Y-57271519D01*
X12655740Y-57265000D01*
X12744260Y-57265000D01*
X12810443Y-57271519D01*
X12810443Y-57271519D01*
G37*
G36*
X17890443Y-57271519D02*
G01*
X17956627Y-57278037D01*
X18126466Y-57329557D01*
X18282991Y-57413222D01*
X18318729Y-57442552D01*
X18420186Y-57525814D01*
X18503448Y-57627271D01*
X18532778Y-57663009D01*
X18616443Y-57819534D01*
X18667963Y-57989373D01*
X18685359Y-58166000D01*
X18667963Y-58342627D01*
X18616443Y-58512466D01*
X18532778Y-58668991D01*
X18503448Y-58704729D01*
X18420186Y-58806186D01*
X18318729Y-58889448D01*
X18282991Y-58918778D01*
X18126466Y-59002443D01*
X17956627Y-59053963D01*
X17890443Y-59060481D01*
X17824260Y-59067000D01*
X17735740Y-59067000D01*
X17669557Y-59060481D01*
X17603373Y-59053963D01*
X17433534Y-59002443D01*
X17277009Y-58918778D01*
X17241271Y-58889448D01*
X17139814Y-58806186D01*
X17056552Y-58704729D01*
X17027222Y-58668991D01*
X16943557Y-58512466D01*
X16892037Y-58342627D01*
X16874641Y-58166000D01*
X16892037Y-57989373D01*
X16943557Y-57819534D01*
X17027222Y-57663009D01*
X17056552Y-57627271D01*
X17139814Y-57525814D01*
X17241271Y-57442552D01*
X17277009Y-57413222D01*
X17433534Y-57329557D01*
X17603373Y-57278037D01*
X17669557Y-57271519D01*
X17735740Y-57265000D01*
X17824260Y-57265000D01*
X17890443Y-57271519D01*
X17890443Y-57271519D01*
G37*
G36*
X58530443Y-57271519D02*
G01*
X58596627Y-57278037D01*
X58766466Y-57329557D01*
X58922991Y-57413222D01*
X58958729Y-57442552D01*
X59060186Y-57525814D01*
X59143448Y-57627271D01*
X59172778Y-57663009D01*
X59256443Y-57819534D01*
X59307963Y-57989373D01*
X59325359Y-58166000D01*
X59307963Y-58342627D01*
X59256443Y-58512466D01*
X59172778Y-58668991D01*
X59143448Y-58704729D01*
X59060186Y-58806186D01*
X58958729Y-58889448D01*
X58922991Y-58918778D01*
X58766466Y-59002443D01*
X58596627Y-59053963D01*
X58530443Y-59060481D01*
X58464260Y-59067000D01*
X58375740Y-59067000D01*
X58309557Y-59060481D01*
X58243373Y-59053963D01*
X58073534Y-59002443D01*
X57917009Y-58918778D01*
X57881271Y-58889448D01*
X57779814Y-58806186D01*
X57696552Y-58704729D01*
X57667222Y-58668991D01*
X57583557Y-58512466D01*
X57532037Y-58342627D01*
X57514641Y-58166000D01*
X57532037Y-57989373D01*
X57583557Y-57819534D01*
X57667222Y-57663009D01*
X57696552Y-57627271D01*
X57779814Y-57525814D01*
X57881271Y-57442552D01*
X57917009Y-57413222D01*
X58073534Y-57329557D01*
X58243373Y-57278037D01*
X58309557Y-57271519D01*
X58375740Y-57265000D01*
X58464260Y-57265000D01*
X58530443Y-57271519D01*
X58530443Y-57271519D01*
G37*
G36*
X38210443Y-57271519D02*
G01*
X38276627Y-57278037D01*
X38446466Y-57329557D01*
X38602991Y-57413222D01*
X38638729Y-57442552D01*
X38740186Y-57525814D01*
X38823448Y-57627271D01*
X38852778Y-57663009D01*
X38936443Y-57819534D01*
X38987963Y-57989373D01*
X39005359Y-58166000D01*
X38987963Y-58342627D01*
X38936443Y-58512466D01*
X38852778Y-58668991D01*
X38823448Y-58704729D01*
X38740186Y-58806186D01*
X38638729Y-58889448D01*
X38602991Y-58918778D01*
X38446466Y-59002443D01*
X38276627Y-59053963D01*
X38210443Y-59060481D01*
X38144260Y-59067000D01*
X38055740Y-59067000D01*
X37989557Y-59060481D01*
X37923373Y-59053963D01*
X37753534Y-59002443D01*
X37597009Y-58918778D01*
X37561271Y-58889448D01*
X37459814Y-58806186D01*
X37376552Y-58704729D01*
X37347222Y-58668991D01*
X37263557Y-58512466D01*
X37212037Y-58342627D01*
X37194641Y-58166000D01*
X37212037Y-57989373D01*
X37263557Y-57819534D01*
X37347222Y-57663009D01*
X37376552Y-57627271D01*
X37459814Y-57525814D01*
X37561271Y-57442552D01*
X37597009Y-57413222D01*
X37753534Y-57329557D01*
X37923373Y-57278037D01*
X37989557Y-57271519D01*
X38055740Y-57265000D01*
X38144260Y-57265000D01*
X38210443Y-57271519D01*
X38210443Y-57271519D01*
G37*
G36*
X20430443Y-57271519D02*
G01*
X20496627Y-57278037D01*
X20666466Y-57329557D01*
X20822991Y-57413222D01*
X20858729Y-57442552D01*
X20960186Y-57525814D01*
X21043448Y-57627271D01*
X21072778Y-57663009D01*
X21156443Y-57819534D01*
X21207963Y-57989373D01*
X21225359Y-58166000D01*
X21207963Y-58342627D01*
X21156443Y-58512466D01*
X21072778Y-58668991D01*
X21043448Y-58704729D01*
X20960186Y-58806186D01*
X20858729Y-58889448D01*
X20822991Y-58918778D01*
X20666466Y-59002443D01*
X20496627Y-59053963D01*
X20430443Y-59060481D01*
X20364260Y-59067000D01*
X20275740Y-59067000D01*
X20209557Y-59060481D01*
X20143373Y-59053963D01*
X19973534Y-59002443D01*
X19817009Y-58918778D01*
X19781271Y-58889448D01*
X19679814Y-58806186D01*
X19596552Y-58704729D01*
X19567222Y-58668991D01*
X19483557Y-58512466D01*
X19432037Y-58342627D01*
X19414641Y-58166000D01*
X19432037Y-57989373D01*
X19483557Y-57819534D01*
X19567222Y-57663009D01*
X19596552Y-57627271D01*
X19679814Y-57525814D01*
X19781271Y-57442552D01*
X19817009Y-57413222D01*
X19973534Y-57329557D01*
X20143373Y-57278037D01*
X20209557Y-57271519D01*
X20275740Y-57265000D01*
X20364260Y-57265000D01*
X20430443Y-57271519D01*
X20430443Y-57271519D01*
G37*
G36*
X35670443Y-57271519D02*
G01*
X35736627Y-57278037D01*
X35906466Y-57329557D01*
X36062991Y-57413222D01*
X36098729Y-57442552D01*
X36200186Y-57525814D01*
X36283448Y-57627271D01*
X36312778Y-57663009D01*
X36396443Y-57819534D01*
X36447963Y-57989373D01*
X36465359Y-58166000D01*
X36447963Y-58342627D01*
X36396443Y-58512466D01*
X36312778Y-58668991D01*
X36283448Y-58704729D01*
X36200186Y-58806186D01*
X36098729Y-58889448D01*
X36062991Y-58918778D01*
X35906466Y-59002443D01*
X35736627Y-59053963D01*
X35670443Y-59060481D01*
X35604260Y-59067000D01*
X35515740Y-59067000D01*
X35449557Y-59060481D01*
X35383373Y-59053963D01*
X35213534Y-59002443D01*
X35057009Y-58918778D01*
X35021271Y-58889448D01*
X34919814Y-58806186D01*
X34836552Y-58704729D01*
X34807222Y-58668991D01*
X34723557Y-58512466D01*
X34672037Y-58342627D01*
X34654641Y-58166000D01*
X34672037Y-57989373D01*
X34723557Y-57819534D01*
X34807222Y-57663009D01*
X34836552Y-57627271D01*
X34919814Y-57525814D01*
X35021271Y-57442552D01*
X35057009Y-57413222D01*
X35213534Y-57329557D01*
X35383373Y-57278037D01*
X35449557Y-57271519D01*
X35515740Y-57265000D01*
X35604260Y-57265000D01*
X35670443Y-57271519D01*
X35670443Y-57271519D01*
G37*
G36*
X53450443Y-57271519D02*
G01*
X53516627Y-57278037D01*
X53686466Y-57329557D01*
X53842991Y-57413222D01*
X53878729Y-57442552D01*
X53980186Y-57525814D01*
X54063448Y-57627271D01*
X54092778Y-57663009D01*
X54176443Y-57819534D01*
X54227963Y-57989373D01*
X54245359Y-58166000D01*
X54227963Y-58342627D01*
X54176443Y-58512466D01*
X54092778Y-58668991D01*
X54063448Y-58704729D01*
X53980186Y-58806186D01*
X53878729Y-58889448D01*
X53842991Y-58918778D01*
X53686466Y-59002443D01*
X53516627Y-59053963D01*
X53450443Y-59060481D01*
X53384260Y-59067000D01*
X53295740Y-59067000D01*
X53229557Y-59060481D01*
X53163373Y-59053963D01*
X52993534Y-59002443D01*
X52837009Y-58918778D01*
X52801271Y-58889448D01*
X52699814Y-58806186D01*
X52616552Y-58704729D01*
X52587222Y-58668991D01*
X52503557Y-58512466D01*
X52452037Y-58342627D01*
X52434641Y-58166000D01*
X52452037Y-57989373D01*
X52503557Y-57819534D01*
X52587222Y-57663009D01*
X52616552Y-57627271D01*
X52699814Y-57525814D01*
X52801271Y-57442552D01*
X52837009Y-57413222D01*
X52993534Y-57329557D01*
X53163373Y-57278037D01*
X53229557Y-57271519D01*
X53295740Y-57265000D01*
X53384260Y-57265000D01*
X53450443Y-57271519D01*
X53450443Y-57271519D01*
G37*
G36*
X33130443Y-57271519D02*
G01*
X33196627Y-57278037D01*
X33366466Y-57329557D01*
X33522991Y-57413222D01*
X33558729Y-57442552D01*
X33660186Y-57525814D01*
X33743448Y-57627271D01*
X33772778Y-57663009D01*
X33856443Y-57819534D01*
X33907963Y-57989373D01*
X33925359Y-58166000D01*
X33907963Y-58342627D01*
X33856443Y-58512466D01*
X33772778Y-58668991D01*
X33743448Y-58704729D01*
X33660186Y-58806186D01*
X33558729Y-58889448D01*
X33522991Y-58918778D01*
X33366466Y-59002443D01*
X33196627Y-59053963D01*
X33130443Y-59060481D01*
X33064260Y-59067000D01*
X32975740Y-59067000D01*
X32909557Y-59060481D01*
X32843373Y-59053963D01*
X32673534Y-59002443D01*
X32517009Y-58918778D01*
X32481271Y-58889448D01*
X32379814Y-58806186D01*
X32296552Y-58704729D01*
X32267222Y-58668991D01*
X32183557Y-58512466D01*
X32132037Y-58342627D01*
X32114641Y-58166000D01*
X32132037Y-57989373D01*
X32183557Y-57819534D01*
X32267222Y-57663009D01*
X32296552Y-57627271D01*
X32379814Y-57525814D01*
X32481271Y-57442552D01*
X32517009Y-57413222D01*
X32673534Y-57329557D01*
X32843373Y-57278037D01*
X32909557Y-57271519D01*
X32975740Y-57265000D01*
X33064260Y-57265000D01*
X33130443Y-57271519D01*
X33130443Y-57271519D01*
G37*
G36*
X50910443Y-57271519D02*
G01*
X50976627Y-57278037D01*
X51146466Y-57329557D01*
X51302991Y-57413222D01*
X51338729Y-57442552D01*
X51440186Y-57525814D01*
X51523448Y-57627271D01*
X51552778Y-57663009D01*
X51636443Y-57819534D01*
X51687963Y-57989373D01*
X51705359Y-58166000D01*
X51687963Y-58342627D01*
X51636443Y-58512466D01*
X51552778Y-58668991D01*
X51523448Y-58704729D01*
X51440186Y-58806186D01*
X51338729Y-58889448D01*
X51302991Y-58918778D01*
X51146466Y-59002443D01*
X50976627Y-59053963D01*
X50910443Y-59060481D01*
X50844260Y-59067000D01*
X50755740Y-59067000D01*
X50689557Y-59060481D01*
X50623373Y-59053963D01*
X50453534Y-59002443D01*
X50297009Y-58918778D01*
X50261271Y-58889448D01*
X50159814Y-58806186D01*
X50076552Y-58704729D01*
X50047222Y-58668991D01*
X49963557Y-58512466D01*
X49912037Y-58342627D01*
X49894641Y-58166000D01*
X49912037Y-57989373D01*
X49963557Y-57819534D01*
X50047222Y-57663009D01*
X50076552Y-57627271D01*
X50159814Y-57525814D01*
X50261271Y-57442552D01*
X50297009Y-57413222D01*
X50453534Y-57329557D01*
X50623373Y-57278037D01*
X50689557Y-57271519D01*
X50755740Y-57265000D01*
X50844260Y-57265000D01*
X50910443Y-57271519D01*
X50910443Y-57271519D01*
G37*
G36*
X30590443Y-57271519D02*
G01*
X30656627Y-57278037D01*
X30826466Y-57329557D01*
X30982991Y-57413222D01*
X31018729Y-57442552D01*
X31120186Y-57525814D01*
X31203448Y-57627271D01*
X31232778Y-57663009D01*
X31316443Y-57819534D01*
X31367963Y-57989373D01*
X31385359Y-58166000D01*
X31367963Y-58342627D01*
X31316443Y-58512466D01*
X31232778Y-58668991D01*
X31203448Y-58704729D01*
X31120186Y-58806186D01*
X31018729Y-58889448D01*
X30982991Y-58918778D01*
X30826466Y-59002443D01*
X30656627Y-59053963D01*
X30590443Y-59060481D01*
X30524260Y-59067000D01*
X30435740Y-59067000D01*
X30369557Y-59060481D01*
X30303373Y-59053963D01*
X30133534Y-59002443D01*
X29977009Y-58918778D01*
X29941271Y-58889448D01*
X29839814Y-58806186D01*
X29756552Y-58704729D01*
X29727222Y-58668991D01*
X29643557Y-58512466D01*
X29592037Y-58342627D01*
X29574641Y-58166000D01*
X29592037Y-57989373D01*
X29643557Y-57819534D01*
X29727222Y-57663009D01*
X29756552Y-57627271D01*
X29839814Y-57525814D01*
X29941271Y-57442552D01*
X29977009Y-57413222D01*
X30133534Y-57329557D01*
X30303373Y-57278037D01*
X30369557Y-57271519D01*
X30435740Y-57265000D01*
X30524260Y-57265000D01*
X30590443Y-57271519D01*
X30590443Y-57271519D01*
G37*
G36*
X55990443Y-57271519D02*
G01*
X56056627Y-57278037D01*
X56226466Y-57329557D01*
X56382991Y-57413222D01*
X56418729Y-57442552D01*
X56520186Y-57525814D01*
X56603448Y-57627271D01*
X56632778Y-57663009D01*
X56716443Y-57819534D01*
X56767963Y-57989373D01*
X56785359Y-58166000D01*
X56767963Y-58342627D01*
X56716443Y-58512466D01*
X56632778Y-58668991D01*
X56603448Y-58704729D01*
X56520186Y-58806186D01*
X56418729Y-58889448D01*
X56382991Y-58918778D01*
X56226466Y-59002443D01*
X56056627Y-59053963D01*
X55990443Y-59060481D01*
X55924260Y-59067000D01*
X55835740Y-59067000D01*
X55769557Y-59060481D01*
X55703373Y-59053963D01*
X55533534Y-59002443D01*
X55377009Y-58918778D01*
X55341271Y-58889448D01*
X55239814Y-58806186D01*
X55156552Y-58704729D01*
X55127222Y-58668991D01*
X55043557Y-58512466D01*
X54992037Y-58342627D01*
X54974641Y-58166000D01*
X54992037Y-57989373D01*
X55043557Y-57819534D01*
X55127222Y-57663009D01*
X55156552Y-57627271D01*
X55239814Y-57525814D01*
X55341271Y-57442552D01*
X55377009Y-57413222D01*
X55533534Y-57329557D01*
X55703373Y-57278037D01*
X55769557Y-57271519D01*
X55835740Y-57265000D01*
X55924260Y-57265000D01*
X55990443Y-57271519D01*
X55990443Y-57271519D01*
G37*
G36*
X22970443Y-57271519D02*
G01*
X23036627Y-57278037D01*
X23206466Y-57329557D01*
X23362991Y-57413222D01*
X23398729Y-57442552D01*
X23500186Y-57525814D01*
X23583448Y-57627271D01*
X23612778Y-57663009D01*
X23696443Y-57819534D01*
X23747963Y-57989373D01*
X23765359Y-58166000D01*
X23747963Y-58342627D01*
X23696443Y-58512466D01*
X23612778Y-58668991D01*
X23583448Y-58704729D01*
X23500186Y-58806186D01*
X23398729Y-58889448D01*
X23362991Y-58918778D01*
X23206466Y-59002443D01*
X23036627Y-59053963D01*
X22970443Y-59060481D01*
X22904260Y-59067000D01*
X22815740Y-59067000D01*
X22749557Y-59060481D01*
X22683373Y-59053963D01*
X22513534Y-59002443D01*
X22357009Y-58918778D01*
X22321271Y-58889448D01*
X22219814Y-58806186D01*
X22136552Y-58704729D01*
X22107222Y-58668991D01*
X22023557Y-58512466D01*
X21972037Y-58342627D01*
X21954641Y-58166000D01*
X21972037Y-57989373D01*
X22023557Y-57819534D01*
X22107222Y-57663009D01*
X22136552Y-57627271D01*
X22219814Y-57525814D01*
X22321271Y-57442552D01*
X22357009Y-57413222D01*
X22513534Y-57329557D01*
X22683373Y-57278037D01*
X22749557Y-57271519D01*
X22815740Y-57265000D01*
X22904260Y-57265000D01*
X22970443Y-57271519D01*
X22970443Y-57271519D01*
G37*
G36*
X43290443Y-57271519D02*
G01*
X43356627Y-57278037D01*
X43526466Y-57329557D01*
X43682991Y-57413222D01*
X43718729Y-57442552D01*
X43820186Y-57525814D01*
X43903448Y-57627271D01*
X43932778Y-57663009D01*
X44016443Y-57819534D01*
X44067963Y-57989373D01*
X44085359Y-58166000D01*
X44067963Y-58342627D01*
X44016443Y-58512466D01*
X43932778Y-58668991D01*
X43903448Y-58704729D01*
X43820186Y-58806186D01*
X43718729Y-58889448D01*
X43682991Y-58918778D01*
X43526466Y-59002443D01*
X43356627Y-59053963D01*
X43290443Y-59060481D01*
X43224260Y-59067000D01*
X43135740Y-59067000D01*
X43069557Y-59060481D01*
X43003373Y-59053963D01*
X42833534Y-59002443D01*
X42677009Y-58918778D01*
X42641271Y-58889448D01*
X42539814Y-58806186D01*
X42456552Y-58704729D01*
X42427222Y-58668991D01*
X42343557Y-58512466D01*
X42292037Y-58342627D01*
X42274641Y-58166000D01*
X42292037Y-57989373D01*
X42343557Y-57819534D01*
X42427222Y-57663009D01*
X42456552Y-57627271D01*
X42539814Y-57525814D01*
X42641271Y-57442552D01*
X42677009Y-57413222D01*
X42833534Y-57329557D01*
X43003373Y-57278037D01*
X43069557Y-57271519D01*
X43135740Y-57265000D01*
X43224260Y-57265000D01*
X43290443Y-57271519D01*
X43290443Y-57271519D01*
G37*
G36*
X40750443Y-57271519D02*
G01*
X40816627Y-57278037D01*
X40986466Y-57329557D01*
X41142991Y-57413222D01*
X41178729Y-57442552D01*
X41280186Y-57525814D01*
X41363448Y-57627271D01*
X41392778Y-57663009D01*
X41476443Y-57819534D01*
X41527963Y-57989373D01*
X41545359Y-58166000D01*
X41527963Y-58342627D01*
X41476443Y-58512466D01*
X41392778Y-58668991D01*
X41363448Y-58704729D01*
X41280186Y-58806186D01*
X41178729Y-58889448D01*
X41142991Y-58918778D01*
X40986466Y-59002443D01*
X40816627Y-59053963D01*
X40750443Y-59060481D01*
X40684260Y-59067000D01*
X40595740Y-59067000D01*
X40529557Y-59060481D01*
X40463373Y-59053963D01*
X40293534Y-59002443D01*
X40137009Y-58918778D01*
X40101271Y-58889448D01*
X39999814Y-58806186D01*
X39916552Y-58704729D01*
X39887222Y-58668991D01*
X39803557Y-58512466D01*
X39752037Y-58342627D01*
X39734641Y-58166000D01*
X39752037Y-57989373D01*
X39803557Y-57819534D01*
X39887222Y-57663009D01*
X39916552Y-57627271D01*
X39999814Y-57525814D01*
X40101271Y-57442552D01*
X40137009Y-57413222D01*
X40293534Y-57329557D01*
X40463373Y-57278037D01*
X40529557Y-57271519D01*
X40595740Y-57265000D01*
X40684260Y-57265000D01*
X40750443Y-57271519D01*
X40750443Y-57271519D01*
G37*
G36*
X25510443Y-57271519D02*
G01*
X25576627Y-57278037D01*
X25746466Y-57329557D01*
X25902991Y-57413222D01*
X25938729Y-57442552D01*
X26040186Y-57525814D01*
X26123448Y-57627271D01*
X26152778Y-57663009D01*
X26236443Y-57819534D01*
X26287963Y-57989373D01*
X26305359Y-58166000D01*
X26287963Y-58342627D01*
X26236443Y-58512466D01*
X26152778Y-58668991D01*
X26123448Y-58704729D01*
X26040186Y-58806186D01*
X25938729Y-58889448D01*
X25902991Y-58918778D01*
X25746466Y-59002443D01*
X25576627Y-59053963D01*
X25510443Y-59060481D01*
X25444260Y-59067000D01*
X25355740Y-59067000D01*
X25289557Y-59060481D01*
X25223373Y-59053963D01*
X25053534Y-59002443D01*
X24897009Y-58918778D01*
X24861271Y-58889448D01*
X24759814Y-58806186D01*
X24676552Y-58704729D01*
X24647222Y-58668991D01*
X24563557Y-58512466D01*
X24512037Y-58342627D01*
X24494641Y-58166000D01*
X24512037Y-57989373D01*
X24563557Y-57819534D01*
X24647222Y-57663009D01*
X24676552Y-57627271D01*
X24759814Y-57525814D01*
X24861271Y-57442552D01*
X24897009Y-57413222D01*
X25053534Y-57329557D01*
X25223373Y-57278037D01*
X25289557Y-57271519D01*
X25355740Y-57265000D01*
X25444260Y-57265000D01*
X25510443Y-57271519D01*
X25510443Y-57271519D01*
G37*
G36*
X48370443Y-57271519D02*
G01*
X48436627Y-57278037D01*
X48606466Y-57329557D01*
X48762991Y-57413222D01*
X48798729Y-57442552D01*
X48900186Y-57525814D01*
X48983448Y-57627271D01*
X49012778Y-57663009D01*
X49096443Y-57819534D01*
X49147963Y-57989373D01*
X49165359Y-58166000D01*
X49147963Y-58342627D01*
X49096443Y-58512466D01*
X49012778Y-58668991D01*
X48983448Y-58704729D01*
X48900186Y-58806186D01*
X48798729Y-58889448D01*
X48762991Y-58918778D01*
X48606466Y-59002443D01*
X48436627Y-59053963D01*
X48370443Y-59060481D01*
X48304260Y-59067000D01*
X48215740Y-59067000D01*
X48149557Y-59060481D01*
X48083373Y-59053963D01*
X47913534Y-59002443D01*
X47757009Y-58918778D01*
X47721271Y-58889448D01*
X47619814Y-58806186D01*
X47536552Y-58704729D01*
X47507222Y-58668991D01*
X47423557Y-58512466D01*
X47372037Y-58342627D01*
X47354641Y-58166000D01*
X47372037Y-57989373D01*
X47423557Y-57819534D01*
X47507222Y-57663009D01*
X47536552Y-57627271D01*
X47619814Y-57525814D01*
X47721271Y-57442552D01*
X47757009Y-57413222D01*
X47913534Y-57329557D01*
X48083373Y-57278037D01*
X48149557Y-57271519D01*
X48215740Y-57265000D01*
X48304260Y-57265000D01*
X48370443Y-57271519D01*
X48370443Y-57271519D01*
G37*
G36*
X28050443Y-57271519D02*
G01*
X28116627Y-57278037D01*
X28286466Y-57329557D01*
X28442991Y-57413222D01*
X28478729Y-57442552D01*
X28580186Y-57525814D01*
X28663448Y-57627271D01*
X28692778Y-57663009D01*
X28776443Y-57819534D01*
X28827963Y-57989373D01*
X28845359Y-58166000D01*
X28827963Y-58342627D01*
X28776443Y-58512466D01*
X28692778Y-58668991D01*
X28663448Y-58704729D01*
X28580186Y-58806186D01*
X28478729Y-58889448D01*
X28442991Y-58918778D01*
X28286466Y-59002443D01*
X28116627Y-59053963D01*
X28050443Y-59060481D01*
X27984260Y-59067000D01*
X27895740Y-59067000D01*
X27829557Y-59060481D01*
X27763373Y-59053963D01*
X27593534Y-59002443D01*
X27437009Y-58918778D01*
X27401271Y-58889448D01*
X27299814Y-58806186D01*
X27216552Y-58704729D01*
X27187222Y-58668991D01*
X27103557Y-58512466D01*
X27052037Y-58342627D01*
X27034641Y-58166000D01*
X27052037Y-57989373D01*
X27103557Y-57819534D01*
X27187222Y-57663009D01*
X27216552Y-57627271D01*
X27299814Y-57525814D01*
X27401271Y-57442552D01*
X27437009Y-57413222D01*
X27593534Y-57329557D01*
X27763373Y-57278037D01*
X27829557Y-57271519D01*
X27895740Y-57265000D01*
X27984260Y-57265000D01*
X28050443Y-57271519D01*
X28050443Y-57271519D01*
G37*
G36*
X45830443Y-57271519D02*
G01*
X45896627Y-57278037D01*
X46066466Y-57329557D01*
X46222991Y-57413222D01*
X46258729Y-57442552D01*
X46360186Y-57525814D01*
X46443448Y-57627271D01*
X46472778Y-57663009D01*
X46556443Y-57819534D01*
X46607963Y-57989373D01*
X46625359Y-58166000D01*
X46607963Y-58342627D01*
X46556443Y-58512466D01*
X46472778Y-58668991D01*
X46443448Y-58704729D01*
X46360186Y-58806186D01*
X46258729Y-58889448D01*
X46222991Y-58918778D01*
X46066466Y-59002443D01*
X45896627Y-59053963D01*
X45830443Y-59060481D01*
X45764260Y-59067000D01*
X45675740Y-59067000D01*
X45609557Y-59060481D01*
X45543373Y-59053963D01*
X45373534Y-59002443D01*
X45217009Y-58918778D01*
X45181271Y-58889448D01*
X45079814Y-58806186D01*
X44996552Y-58704729D01*
X44967222Y-58668991D01*
X44883557Y-58512466D01*
X44832037Y-58342627D01*
X44814641Y-58166000D01*
X44832037Y-57989373D01*
X44883557Y-57819534D01*
X44967222Y-57663009D01*
X44996552Y-57627271D01*
X45079814Y-57525814D01*
X45181271Y-57442552D01*
X45217009Y-57413222D01*
X45373534Y-57329557D01*
X45543373Y-57278037D01*
X45609557Y-57271519D01*
X45675740Y-57265000D01*
X45764260Y-57265000D01*
X45830443Y-57271519D01*
X45830443Y-57271519D01*
G37*
G36*
X7183674Y-56029465D02*
G01*
X7221367Y-56040899D01*
X7256103Y-56059466D01*
X7286548Y-56084452D01*
X7311534Y-56114897D01*
X7330101Y-56149633D01*
X7341535Y-56187326D01*
X7346000Y-56232661D01*
X7346000Y-57069339D01*
X7341535Y-57114674D01*
X7330101Y-57152367D01*
X7311534Y-57187103D01*
X7286548Y-57217548D01*
X7256103Y-57242534D01*
X7221367Y-57261101D01*
X7183674Y-57272535D01*
X7138339Y-57277000D01*
X6051661Y-57277000D01*
X6006326Y-57272535D01*
X5968633Y-57261101D01*
X5933897Y-57242534D01*
X5903452Y-57217548D01*
X5878466Y-57187103D01*
X5859899Y-57152367D01*
X5848465Y-57114674D01*
X5844000Y-57069339D01*
X5844000Y-56232661D01*
X5848465Y-56187326D01*
X5859899Y-56149633D01*
X5878466Y-56114897D01*
X5903452Y-56084452D01*
X5933897Y-56059466D01*
X5968633Y-56040899D01*
X6006326Y-56029465D01*
X6051661Y-56025000D01*
X7138339Y-56025000D01*
X7183674Y-56029465D01*
X7183674Y-56029465D01*
G37*
G36*
X7183674Y-53979465D02*
G01*
X7221367Y-53990899D01*
X7256103Y-54009466D01*
X7286548Y-54034452D01*
X7311534Y-54064897D01*
X7330101Y-54099633D01*
X7341535Y-54137326D01*
X7346000Y-54182661D01*
X7346000Y-55019339D01*
X7341535Y-55064674D01*
X7330101Y-55102367D01*
X7311534Y-55137103D01*
X7286548Y-55167548D01*
X7256103Y-55192534D01*
X7221367Y-55211101D01*
X7183674Y-55222535D01*
X7138339Y-55227000D01*
X6051661Y-55227000D01*
X6006326Y-55222535D01*
X5968633Y-55211101D01*
X5933897Y-55192534D01*
X5903452Y-55167548D01*
X5878466Y-55137103D01*
X5859899Y-55102367D01*
X5848465Y-55064674D01*
X5844000Y-55019339D01*
X5844000Y-54182661D01*
X5848465Y-54137326D01*
X5859899Y-54099633D01*
X5878466Y-54064897D01*
X5903452Y-54034452D01*
X5933897Y-54009466D01*
X5968633Y-53990899D01*
X6006326Y-53979465D01*
X6051661Y-53975000D01*
X7138339Y-53975000D01*
X7183674Y-53979465D01*
X7183674Y-53979465D01*
G37*
G36*
X53293674Y-51584465D02*
G01*
X53331367Y-51595899D01*
X53366103Y-51614466D01*
X53396548Y-51639452D01*
X53421534Y-51669897D01*
X53440101Y-51704633D01*
X53451535Y-51742326D01*
X53456000Y-51787661D01*
X53456000Y-52624339D01*
X53451535Y-52669674D01*
X53440101Y-52707367D01*
X53421534Y-52742103D01*
X53396548Y-52772548D01*
X53366103Y-52797534D01*
X53331367Y-52816101D01*
X53293674Y-52827535D01*
X53248339Y-52832000D01*
X52161661Y-52832000D01*
X52116326Y-52827535D01*
X52078633Y-52816101D01*
X52043897Y-52797534D01*
X52013452Y-52772548D01*
X51988466Y-52742103D01*
X51969899Y-52707367D01*
X51958465Y-52669674D01*
X51954000Y-52624339D01*
X51954000Y-51787661D01*
X51958465Y-51742326D01*
X51969899Y-51704633D01*
X51988466Y-51669897D01*
X52013452Y-51639452D01*
X52043897Y-51614466D01*
X52078633Y-51595899D01*
X52116326Y-51584465D01*
X52161661Y-51580000D01*
X53248339Y-51580000D01*
X53293674Y-51584465D01*
X53293674Y-51584465D01*
G37*
G36*
X6049928Y-52102764D02*
G01*
X6071009Y-52109160D01*
X6090445Y-52119548D01*
X6107476Y-52133524D01*
X6121452Y-52150555D01*
X6131840Y-52169991D01*
X6138236Y-52191072D01*
X6141000Y-52219140D01*
X6141000Y-52682860D01*
X6138236Y-52710928D01*
X6131840Y-52732009D01*
X6121452Y-52751445D01*
X6107476Y-52768476D01*
X6090445Y-52782452D01*
X6071009Y-52792840D01*
X6049928Y-52799236D01*
X6021860Y-52802000D01*
X4558140Y-52802000D01*
X4530072Y-52799236D01*
X4508991Y-52792840D01*
X4489555Y-52782452D01*
X4472524Y-52768476D01*
X4458548Y-52751445D01*
X4448160Y-52732009D01*
X4441764Y-52710928D01*
X4439000Y-52682860D01*
X4439000Y-52219140D01*
X4441764Y-52191072D01*
X4448160Y-52169991D01*
X4458548Y-52150555D01*
X4472524Y-52133524D01*
X4489555Y-52119548D01*
X4508991Y-52109160D01*
X4530072Y-52102764D01*
X4558140Y-52100000D01*
X6021860Y-52100000D01*
X6049928Y-52102764D01*
X6049928Y-52102764D01*
G37*
G36*
X13249928Y-52102764D02*
G01*
X13271009Y-52109160D01*
X13290445Y-52119548D01*
X13307476Y-52133524D01*
X13321452Y-52150555D01*
X13331840Y-52169991D01*
X13338236Y-52191072D01*
X13341000Y-52219140D01*
X13341000Y-52682860D01*
X13338236Y-52710928D01*
X13331840Y-52732009D01*
X13321452Y-52751445D01*
X13307476Y-52768476D01*
X13290445Y-52782452D01*
X13271009Y-52792840D01*
X13249928Y-52799236D01*
X13221860Y-52802000D01*
X11758140Y-52802000D01*
X11730072Y-52799236D01*
X11708991Y-52792840D01*
X11689555Y-52782452D01*
X11672524Y-52768476D01*
X11658548Y-52751445D01*
X11648160Y-52732009D01*
X11641764Y-52710928D01*
X11639000Y-52682860D01*
X11639000Y-52219140D01*
X11641764Y-52191072D01*
X11648160Y-52169991D01*
X11658548Y-52150555D01*
X11672524Y-52133524D01*
X11689555Y-52119548D01*
X11708991Y-52109160D01*
X11730072Y-52102764D01*
X11758140Y-52100000D01*
X13221860Y-52100000D01*
X13249928Y-52102764D01*
X13249928Y-52102764D01*
G37*
G36*
X63120909Y-50921072D02*
G01*
X63191627Y-50928037D01*
X63361466Y-50979557D01*
X63517991Y-51063222D01*
X63553729Y-51092552D01*
X63655186Y-51175814D01*
X63738448Y-51277271D01*
X63767778Y-51313009D01*
X63851443Y-51469534D01*
X63902963Y-51639373D01*
X63920359Y-51816000D01*
X63902963Y-51992627D01*
X63851443Y-52162466D01*
X63767778Y-52318991D01*
X63738448Y-52354729D01*
X63655186Y-52456186D01*
X63553729Y-52539448D01*
X63517991Y-52568778D01*
X63517989Y-52568779D01*
X63414045Y-52624339D01*
X63361466Y-52652443D01*
X63191627Y-52703963D01*
X63125442Y-52710482D01*
X63059260Y-52717000D01*
X61270740Y-52717000D01*
X61204558Y-52710482D01*
X61138373Y-52703963D01*
X60968534Y-52652443D01*
X60915956Y-52624339D01*
X60812011Y-52568779D01*
X60812009Y-52568778D01*
X60776271Y-52539448D01*
X60674814Y-52456186D01*
X60591552Y-52354729D01*
X60562222Y-52318991D01*
X60478557Y-52162466D01*
X60427037Y-51992627D01*
X60409641Y-51816000D01*
X60427037Y-51639373D01*
X60478557Y-51469534D01*
X60562222Y-51313009D01*
X60591552Y-51277271D01*
X60674814Y-51175814D01*
X60776271Y-51092552D01*
X60812009Y-51063222D01*
X60968534Y-50979557D01*
X61138373Y-50928037D01*
X61209091Y-50921072D01*
X61270740Y-50915000D01*
X63059260Y-50915000D01*
X63120909Y-50921072D01*
X63120909Y-50921072D01*
G37*
G36*
X59643674Y-50949465D02*
G01*
X59681367Y-50960899D01*
X59716103Y-50979466D01*
X59746548Y-51004452D01*
X59771534Y-51034897D01*
X59790101Y-51069633D01*
X59801535Y-51107326D01*
X59806000Y-51152661D01*
X59806000Y-51989339D01*
X59801535Y-52034674D01*
X59790101Y-52072367D01*
X59771534Y-52107103D01*
X59746548Y-52137548D01*
X59716103Y-52162534D01*
X59681367Y-52181101D01*
X59643674Y-52192535D01*
X59598339Y-52197000D01*
X58511661Y-52197000D01*
X58466326Y-52192535D01*
X58428633Y-52181101D01*
X58393897Y-52162534D01*
X58363452Y-52137548D01*
X58338466Y-52107103D01*
X58319899Y-52072367D01*
X58308465Y-52034674D01*
X58304000Y-51989339D01*
X58304000Y-51152661D01*
X58308465Y-51107326D01*
X58319899Y-51069633D01*
X58338466Y-51034897D01*
X58363452Y-51004452D01*
X58393897Y-50979466D01*
X58428633Y-50960899D01*
X58466326Y-50949465D01*
X58511661Y-50945000D01*
X59598339Y-50945000D01*
X59643674Y-50949465D01*
X59643674Y-50949465D01*
G37*
G36*
X6049928Y-50832764D02*
G01*
X6071009Y-50839160D01*
X6090445Y-50849548D01*
X6107476Y-50863524D01*
X6121452Y-50880555D01*
X6131840Y-50899991D01*
X6138236Y-50921072D01*
X6141000Y-50949140D01*
X6141000Y-51412860D01*
X6138236Y-51440928D01*
X6131840Y-51462009D01*
X6121452Y-51481445D01*
X6107476Y-51498476D01*
X6090445Y-51512452D01*
X6071009Y-51522840D01*
X6049928Y-51529236D01*
X6021860Y-51532000D01*
X4558140Y-51532000D01*
X4530072Y-51529236D01*
X4508991Y-51522840D01*
X4489555Y-51512452D01*
X4472524Y-51498476D01*
X4458548Y-51481445D01*
X4448160Y-51462009D01*
X4441764Y-51440928D01*
X4439000Y-51412860D01*
X4439000Y-50949140D01*
X4441764Y-50921072D01*
X4448160Y-50899991D01*
X4458548Y-50880555D01*
X4472524Y-50863524D01*
X4489555Y-50849548D01*
X4508991Y-50839160D01*
X4530072Y-50832764D01*
X4558140Y-50830000D01*
X6021860Y-50830000D01*
X6049928Y-50832764D01*
X6049928Y-50832764D01*
G37*
G36*
X13249928Y-50832764D02*
G01*
X13271009Y-50839160D01*
X13290445Y-50849548D01*
X13307476Y-50863524D01*
X13321452Y-50880555D01*
X13331840Y-50899991D01*
X13338236Y-50921072D01*
X13341000Y-50949140D01*
X13341000Y-51412860D01*
X13338236Y-51440928D01*
X13331840Y-51462009D01*
X13321452Y-51481445D01*
X13307476Y-51498476D01*
X13290445Y-51512452D01*
X13271009Y-51522840D01*
X13249928Y-51529236D01*
X13221860Y-51532000D01*
X11758140Y-51532000D01*
X11730072Y-51529236D01*
X11708991Y-51522840D01*
X11689555Y-51512452D01*
X11672524Y-51498476D01*
X11658548Y-51481445D01*
X11648160Y-51462009D01*
X11641764Y-51440928D01*
X11639000Y-51412860D01*
X11639000Y-50949140D01*
X11641764Y-50921072D01*
X11648160Y-50899991D01*
X11658548Y-50880555D01*
X11672524Y-50863524D01*
X11689555Y-50849548D01*
X11708991Y-50839160D01*
X11730072Y-50832764D01*
X11758140Y-50830000D01*
X13221860Y-50830000D01*
X13249928Y-50832764D01*
X13249928Y-50832764D01*
G37*
G36*
X53293674Y-49534465D02*
G01*
X53331367Y-49545899D01*
X53366103Y-49564466D01*
X53396548Y-49589452D01*
X53421534Y-49619897D01*
X53440101Y-49654633D01*
X53451535Y-49692326D01*
X53456000Y-49737661D01*
X53456000Y-50574339D01*
X53451535Y-50619674D01*
X53440101Y-50657367D01*
X53421534Y-50692103D01*
X53396548Y-50722548D01*
X53366103Y-50747534D01*
X53331367Y-50766101D01*
X53293674Y-50777535D01*
X53248339Y-50782000D01*
X52161661Y-50782000D01*
X52116326Y-50777535D01*
X52078633Y-50766101D01*
X52043897Y-50747534D01*
X52013452Y-50722548D01*
X51988466Y-50692103D01*
X51969899Y-50657367D01*
X51958465Y-50619674D01*
X51954000Y-50574339D01*
X51954000Y-49737661D01*
X51958465Y-49692326D01*
X51969899Y-49654633D01*
X51988466Y-49619897D01*
X52013452Y-49589452D01*
X52043897Y-49564466D01*
X52078633Y-49545899D01*
X52116326Y-49534465D01*
X52161661Y-49530000D01*
X53248339Y-49530000D01*
X53293674Y-49534465D01*
X53293674Y-49534465D01*
G37*
G36*
X6049928Y-49562764D02*
G01*
X6071009Y-49569160D01*
X6090445Y-49579548D01*
X6107476Y-49593524D01*
X6121452Y-49610555D01*
X6131840Y-49629991D01*
X6138236Y-49651072D01*
X6141000Y-49679140D01*
X6141000Y-50142860D01*
X6138236Y-50170928D01*
X6131840Y-50192009D01*
X6121452Y-50211445D01*
X6107476Y-50228476D01*
X6090445Y-50242452D01*
X6071009Y-50252840D01*
X6049928Y-50259236D01*
X6021860Y-50262000D01*
X4558140Y-50262000D01*
X4530072Y-50259236D01*
X4508991Y-50252840D01*
X4489555Y-50242452D01*
X4472524Y-50228476D01*
X4458548Y-50211445D01*
X4448160Y-50192009D01*
X4441764Y-50170928D01*
X4439000Y-50142860D01*
X4439000Y-49679140D01*
X4441764Y-49651072D01*
X4448160Y-49629991D01*
X4458548Y-49610555D01*
X4472524Y-49593524D01*
X4489555Y-49579548D01*
X4508991Y-49569160D01*
X4530072Y-49562764D01*
X4558140Y-49560000D01*
X6021860Y-49560000D01*
X6049928Y-49562764D01*
X6049928Y-49562764D01*
G37*
G36*
X13249928Y-49562764D02*
G01*
X13271009Y-49569160D01*
X13290445Y-49579548D01*
X13307476Y-49593524D01*
X13321452Y-49610555D01*
X13331840Y-49629991D01*
X13338236Y-49651072D01*
X13341000Y-49679140D01*
X13341000Y-50142860D01*
X13338236Y-50170928D01*
X13331840Y-50192009D01*
X13321452Y-50211445D01*
X13307476Y-50228476D01*
X13290445Y-50242452D01*
X13271009Y-50252840D01*
X13249928Y-50259236D01*
X13221860Y-50262000D01*
X11758140Y-50262000D01*
X11730072Y-50259236D01*
X11708991Y-50252840D01*
X11689555Y-50242452D01*
X11672524Y-50228476D01*
X11658548Y-50211445D01*
X11648160Y-50192009D01*
X11641764Y-50170928D01*
X11639000Y-50142860D01*
X11639000Y-49679140D01*
X11641764Y-49651072D01*
X11648160Y-49629991D01*
X11658548Y-49610555D01*
X11672524Y-49593524D01*
X11689555Y-49579548D01*
X11708991Y-49569160D01*
X11730072Y-49562764D01*
X11758140Y-49560000D01*
X13221860Y-49560000D01*
X13249928Y-49562764D01*
X13249928Y-49562764D01*
G37*
G36*
X63120909Y-48381072D02*
G01*
X63191627Y-48388037D01*
X63361466Y-48439557D01*
X63517991Y-48523222D01*
X63553729Y-48552552D01*
X63655186Y-48635814D01*
X63738448Y-48737271D01*
X63767778Y-48773009D01*
X63851443Y-48929534D01*
X63902963Y-49099373D01*
X63920359Y-49276000D01*
X63902963Y-49452627D01*
X63851443Y-49622466D01*
X63767778Y-49778991D01*
X63748753Y-49802173D01*
X63655186Y-49916186D01*
X63571732Y-49984674D01*
X63517991Y-50028778D01*
X63361466Y-50112443D01*
X63191627Y-50163963D01*
X63125442Y-50170482D01*
X63059260Y-50177000D01*
X61270740Y-50177000D01*
X61204558Y-50170482D01*
X61138373Y-50163963D01*
X60968534Y-50112443D01*
X60812009Y-50028778D01*
X60758268Y-49984674D01*
X60674814Y-49916186D01*
X60581247Y-49802173D01*
X60562222Y-49778991D01*
X60478557Y-49622466D01*
X60427037Y-49452627D01*
X60409641Y-49276000D01*
X60427037Y-49099373D01*
X60478557Y-48929534D01*
X60562222Y-48773009D01*
X60591552Y-48737271D01*
X60674814Y-48635814D01*
X60776271Y-48552552D01*
X60812009Y-48523222D01*
X60968534Y-48439557D01*
X61138373Y-48388037D01*
X61209091Y-48381072D01*
X61270740Y-48375000D01*
X63059260Y-48375000D01*
X63120909Y-48381072D01*
X63120909Y-48381072D01*
G37*
G36*
X59643674Y-48899465D02*
G01*
X59681367Y-48910899D01*
X59716103Y-48929466D01*
X59746548Y-48954452D01*
X59771534Y-48984897D01*
X59790101Y-49019633D01*
X59801535Y-49057326D01*
X59806000Y-49102661D01*
X59806000Y-49939339D01*
X59801535Y-49984674D01*
X59790101Y-50022367D01*
X59771534Y-50057103D01*
X59746548Y-50087548D01*
X59716103Y-50112534D01*
X59681367Y-50131101D01*
X59643674Y-50142535D01*
X59598339Y-50147000D01*
X58511661Y-50147000D01*
X58466326Y-50142535D01*
X58428633Y-50131101D01*
X58393897Y-50112534D01*
X58363452Y-50087548D01*
X58338466Y-50057103D01*
X58319899Y-50022367D01*
X58308465Y-49984674D01*
X58304000Y-49939339D01*
X58304000Y-49102661D01*
X58308465Y-49057326D01*
X58319899Y-49019633D01*
X58338466Y-48984897D01*
X58363452Y-48954452D01*
X58393897Y-48929466D01*
X58428633Y-48910899D01*
X58466326Y-48899465D01*
X58511661Y-48895000D01*
X59598339Y-48895000D01*
X59643674Y-48899465D01*
X59643674Y-48899465D01*
G37*
G36*
X6049928Y-48292764D02*
G01*
X6071009Y-48299160D01*
X6090445Y-48309548D01*
X6107476Y-48323524D01*
X6121452Y-48340555D01*
X6131840Y-48359991D01*
X6138236Y-48381072D01*
X6141000Y-48409140D01*
X6141000Y-48872860D01*
X6138236Y-48900928D01*
X6131840Y-48922009D01*
X6121452Y-48941445D01*
X6107476Y-48958476D01*
X6090445Y-48972452D01*
X6071009Y-48982840D01*
X6049928Y-48989236D01*
X6021860Y-48992000D01*
X4558140Y-48992000D01*
X4530072Y-48989236D01*
X4508991Y-48982840D01*
X4489555Y-48972452D01*
X4472524Y-48958476D01*
X4458548Y-48941445D01*
X4448160Y-48922009D01*
X4441764Y-48900928D01*
X4439000Y-48872860D01*
X4439000Y-48409140D01*
X4441764Y-48381072D01*
X4448160Y-48359991D01*
X4458548Y-48340555D01*
X4472524Y-48323524D01*
X4489555Y-48309548D01*
X4508991Y-48299160D01*
X4530072Y-48292764D01*
X4558140Y-48290000D01*
X6021860Y-48290000D01*
X6049928Y-48292764D01*
X6049928Y-48292764D01*
G37*
G36*
X13249928Y-48292764D02*
G01*
X13271009Y-48299160D01*
X13290445Y-48309548D01*
X13307476Y-48323524D01*
X13321452Y-48340555D01*
X13331840Y-48359991D01*
X13338236Y-48381072D01*
X13341000Y-48409140D01*
X13341000Y-48872860D01*
X13338236Y-48900928D01*
X13331840Y-48922009D01*
X13321452Y-48941445D01*
X13307476Y-48958476D01*
X13290445Y-48972452D01*
X13271009Y-48982840D01*
X13249928Y-48989236D01*
X13221860Y-48992000D01*
X11758140Y-48992000D01*
X11730072Y-48989236D01*
X11708991Y-48982840D01*
X11689555Y-48972452D01*
X11672524Y-48958476D01*
X11658548Y-48941445D01*
X11648160Y-48922009D01*
X11641764Y-48900928D01*
X11639000Y-48872860D01*
X11639000Y-48409140D01*
X11641764Y-48381072D01*
X11648160Y-48359991D01*
X11658548Y-48340555D01*
X11672524Y-48323524D01*
X11689555Y-48309548D01*
X11708991Y-48299160D01*
X11730072Y-48292764D01*
X11758140Y-48290000D01*
X13221860Y-48290000D01*
X13249928Y-48292764D01*
X13249928Y-48292764D01*
G37*
G36*
X63125443Y-45841519D02*
G01*
X63191627Y-45848037D01*
X63361466Y-45899557D01*
X63517991Y-45983222D01*
X63553729Y-46012552D01*
X63655186Y-46095814D01*
X63738448Y-46197271D01*
X63767778Y-46233009D01*
X63851443Y-46389534D01*
X63902963Y-46559373D01*
X63920359Y-46736000D01*
X63902963Y-46912627D01*
X63851443Y-47082466D01*
X63767778Y-47238991D01*
X63738448Y-47274729D01*
X63655186Y-47376186D01*
X63553729Y-47459448D01*
X63517991Y-47488778D01*
X63361466Y-47572443D01*
X63191627Y-47623963D01*
X63125443Y-47630481D01*
X63059260Y-47637000D01*
X61270740Y-47637000D01*
X61204557Y-47630481D01*
X61138373Y-47623963D01*
X60968534Y-47572443D01*
X60812009Y-47488778D01*
X60776271Y-47459448D01*
X60674814Y-47376186D01*
X60591552Y-47274729D01*
X60562222Y-47238991D01*
X60478557Y-47082466D01*
X60427037Y-46912627D01*
X60409641Y-46736000D01*
X60427037Y-46559373D01*
X60478557Y-46389534D01*
X60562222Y-46233009D01*
X60591552Y-46197271D01*
X60674814Y-46095814D01*
X60776271Y-46012552D01*
X60812009Y-45983222D01*
X60968534Y-45899557D01*
X61138373Y-45848037D01*
X61204557Y-45841519D01*
X61270740Y-45835000D01*
X63059260Y-45835000D01*
X63125443Y-45841519D01*
X63125443Y-45841519D01*
G37*
G36*
X17218674Y-45354465D02*
G01*
X17256367Y-45365899D01*
X17291103Y-45384466D01*
X17321548Y-45409452D01*
X17346534Y-45439897D01*
X17365101Y-45474633D01*
X17376535Y-45512326D01*
X17381000Y-45557661D01*
X17381000Y-46644339D01*
X17376535Y-46689674D01*
X17365101Y-46727367D01*
X17346534Y-46762103D01*
X17321548Y-46792548D01*
X17291103Y-46817534D01*
X17256367Y-46836101D01*
X17218674Y-46847535D01*
X17173339Y-46852000D01*
X16336661Y-46852000D01*
X16291326Y-46847535D01*
X16253633Y-46836101D01*
X16218897Y-46817534D01*
X16188452Y-46792548D01*
X16163466Y-46762103D01*
X16144899Y-46727367D01*
X16133465Y-46689674D01*
X16129000Y-46644339D01*
X16129000Y-45557661D01*
X16133465Y-45512326D01*
X16144899Y-45474633D01*
X16163466Y-45439897D01*
X16188452Y-45409452D01*
X16218897Y-45384466D01*
X16253633Y-45365899D01*
X16291326Y-45354465D01*
X16336661Y-45350000D01*
X17173339Y-45350000D01*
X17218674Y-45354465D01*
X17218674Y-45354465D01*
G37*
G36*
X44668674Y-45354465D02*
G01*
X44706367Y-45365899D01*
X44741103Y-45384466D01*
X44771548Y-45409452D01*
X44796534Y-45439897D01*
X44815101Y-45474633D01*
X44826535Y-45512326D01*
X44831000Y-45557661D01*
X44831000Y-46644339D01*
X44826535Y-46689674D01*
X44815101Y-46727367D01*
X44796534Y-46762103D01*
X44771548Y-46792548D01*
X44741103Y-46817534D01*
X44706367Y-46836101D01*
X44668674Y-46847535D01*
X44623339Y-46852000D01*
X43786661Y-46852000D01*
X43741326Y-46847535D01*
X43703633Y-46836101D01*
X43668897Y-46817534D01*
X43638452Y-46792548D01*
X43613466Y-46762103D01*
X43594899Y-46727367D01*
X43583465Y-46689674D01*
X43579000Y-46644339D01*
X43579000Y-45557661D01*
X43583465Y-45512326D01*
X43594899Y-45474633D01*
X43613466Y-45439897D01*
X43638452Y-45409452D01*
X43668897Y-45384466D01*
X43703633Y-45365899D01*
X43741326Y-45354465D01*
X43786661Y-45350000D01*
X44623339Y-45350000D01*
X44668674Y-45354465D01*
X44668674Y-45354465D01*
G37*
G36*
X19268674Y-45354465D02*
G01*
X19306367Y-45365899D01*
X19341103Y-45384466D01*
X19371548Y-45409452D01*
X19396534Y-45439897D01*
X19415101Y-45474633D01*
X19426535Y-45512326D01*
X19431000Y-45557661D01*
X19431000Y-46644339D01*
X19426535Y-46689674D01*
X19415101Y-46727367D01*
X19396534Y-46762103D01*
X19371548Y-46792548D01*
X19341103Y-46817534D01*
X19306367Y-46836101D01*
X19268674Y-46847535D01*
X19223339Y-46852000D01*
X18386661Y-46852000D01*
X18341326Y-46847535D01*
X18303633Y-46836101D01*
X18268897Y-46817534D01*
X18238452Y-46792548D01*
X18213466Y-46762103D01*
X18194899Y-46727367D01*
X18183465Y-46689674D01*
X18179000Y-46644339D01*
X18179000Y-45557661D01*
X18183465Y-45512326D01*
X18194899Y-45474633D01*
X18213466Y-45439897D01*
X18238452Y-45409452D01*
X18268897Y-45384466D01*
X18303633Y-45365899D01*
X18341326Y-45354465D01*
X18386661Y-45350000D01*
X19223339Y-45350000D01*
X19268674Y-45354465D01*
X19268674Y-45354465D01*
G37*
G36*
X42618674Y-45354465D02*
G01*
X42656367Y-45365899D01*
X42691103Y-45384466D01*
X42721548Y-45409452D01*
X42746534Y-45439897D01*
X42765101Y-45474633D01*
X42776535Y-45512326D01*
X42781000Y-45557661D01*
X42781000Y-46644339D01*
X42776535Y-46689674D01*
X42765101Y-46727367D01*
X42746534Y-46762103D01*
X42721548Y-46792548D01*
X42691103Y-46817534D01*
X42656367Y-46836101D01*
X42618674Y-46847535D01*
X42573339Y-46852000D01*
X41736661Y-46852000D01*
X41691326Y-46847535D01*
X41653633Y-46836101D01*
X41618897Y-46817534D01*
X41588452Y-46792548D01*
X41563466Y-46762103D01*
X41544899Y-46727367D01*
X41533465Y-46689674D01*
X41529000Y-46644339D01*
X41529000Y-45557661D01*
X41533465Y-45512326D01*
X41544899Y-45474633D01*
X41563466Y-45439897D01*
X41588452Y-45409452D01*
X41618897Y-45384466D01*
X41653633Y-45365899D01*
X41691326Y-45354465D01*
X41736661Y-45350000D01*
X42573339Y-45350000D01*
X42618674Y-45354465D01*
X42618674Y-45354465D01*
G37*
G36*
X53143214Y-44684646D02*
G01*
X53143217Y-44684647D01*
X53143216Y-44684647D01*
X53188894Y-44703567D01*
X53229998Y-44731032D01*
X53230000Y-44731034D01*
X53230003Y-44731036D01*
X53264964Y-44765997D01*
X53264966Y-44766000D01*
X53264968Y-44766002D01*
X53292433Y-44807106D01*
X53292433Y-44807107D01*
X53311354Y-44852786D01*
X53321000Y-44901279D01*
X53321000Y-44950721D01*
X53311354Y-44999214D01*
X53311353Y-44999216D01*
X53292433Y-45044894D01*
X53264968Y-45085998D01*
X53264966Y-45086000D01*
X53264964Y-45086003D01*
X53230003Y-45120964D01*
X53230000Y-45120966D01*
X53229998Y-45120968D01*
X53188894Y-45148433D01*
X53156594Y-45161812D01*
X53143214Y-45167354D01*
X53094721Y-45177000D01*
X53045279Y-45177000D01*
X52996786Y-45167354D01*
X52983406Y-45161812D01*
X52951106Y-45148433D01*
X52910002Y-45120968D01*
X52910000Y-45120966D01*
X52909997Y-45120964D01*
X52875036Y-45086003D01*
X52875034Y-45086000D01*
X52875032Y-45085998D01*
X52847567Y-45044894D01*
X52828647Y-44999216D01*
X52828646Y-44999214D01*
X52819000Y-44950721D01*
X52819000Y-44901279D01*
X52828646Y-44852786D01*
X52847567Y-44807107D01*
X52847567Y-44807106D01*
X52875032Y-44766002D01*
X52875034Y-44766000D01*
X52875036Y-44765997D01*
X52909997Y-44731036D01*
X52910000Y-44731034D01*
X52910002Y-44731032D01*
X52951106Y-44703567D01*
X52996784Y-44684647D01*
X52996783Y-44684647D01*
X52996786Y-44684646D01*
X53045279Y-44675000D01*
X53094721Y-44675000D01*
X53143214Y-44684646D01*
X53143214Y-44684646D01*
G37*
G36*
X54143214Y-44684646D02*
G01*
X54143217Y-44684647D01*
X54143216Y-44684647D01*
X54188894Y-44703567D01*
X54229998Y-44731032D01*
X54230000Y-44731034D01*
X54230003Y-44731036D01*
X54264964Y-44765997D01*
X54264966Y-44766000D01*
X54264968Y-44766002D01*
X54292433Y-44807106D01*
X54292433Y-44807107D01*
X54311354Y-44852786D01*
X54321000Y-44901279D01*
X54321000Y-44950721D01*
X54311354Y-44999214D01*
X54311353Y-44999216D01*
X54292433Y-45044894D01*
X54264968Y-45085998D01*
X54264966Y-45086000D01*
X54264964Y-45086003D01*
X54230003Y-45120964D01*
X54230000Y-45120966D01*
X54229998Y-45120968D01*
X54188894Y-45148433D01*
X54156594Y-45161812D01*
X54143214Y-45167354D01*
X54094721Y-45177000D01*
X54045279Y-45177000D01*
X53996786Y-45167354D01*
X53983406Y-45161812D01*
X53951106Y-45148433D01*
X53910002Y-45120968D01*
X53910000Y-45120966D01*
X53909997Y-45120964D01*
X53875036Y-45086003D01*
X53875034Y-45086000D01*
X53875032Y-45085998D01*
X53847567Y-45044894D01*
X53828647Y-44999216D01*
X53828646Y-44999214D01*
X53819000Y-44950721D01*
X53819000Y-44901279D01*
X53828646Y-44852786D01*
X53847567Y-44807107D01*
X53847567Y-44807106D01*
X53875032Y-44766002D01*
X53875034Y-44766000D01*
X53875036Y-44765997D01*
X53909997Y-44731036D01*
X53910000Y-44731034D01*
X53910002Y-44731032D01*
X53951106Y-44703567D01*
X53996784Y-44684647D01*
X53996783Y-44684647D01*
X53996786Y-44684646D01*
X54045279Y-44675000D01*
X54094721Y-44675000D01*
X54143214Y-44684646D01*
X54143214Y-44684646D01*
G37*
G36*
X55143214Y-44684646D02*
G01*
X55143217Y-44684647D01*
X55143216Y-44684647D01*
X55188894Y-44703567D01*
X55229998Y-44731032D01*
X55230000Y-44731034D01*
X55230003Y-44731036D01*
X55264964Y-44765997D01*
X55264966Y-44766000D01*
X55264968Y-44766002D01*
X55292433Y-44807106D01*
X55292433Y-44807107D01*
X55311354Y-44852786D01*
X55321000Y-44901279D01*
X55321000Y-44950721D01*
X55311354Y-44999214D01*
X55311353Y-44999216D01*
X55292433Y-45044894D01*
X55264968Y-45085998D01*
X55264966Y-45086000D01*
X55264964Y-45086003D01*
X55230003Y-45120964D01*
X55230000Y-45120966D01*
X55229998Y-45120968D01*
X55188894Y-45148433D01*
X55156594Y-45161812D01*
X55143214Y-45167354D01*
X55094721Y-45177000D01*
X55045279Y-45177000D01*
X54996786Y-45167354D01*
X54983406Y-45161812D01*
X54951106Y-45148433D01*
X54910002Y-45120968D01*
X54910000Y-45120966D01*
X54909997Y-45120964D01*
X54875036Y-45086003D01*
X54875034Y-45086000D01*
X54875032Y-45085998D01*
X54847567Y-45044894D01*
X54828647Y-44999216D01*
X54828646Y-44999214D01*
X54819000Y-44950721D01*
X54819000Y-44901279D01*
X54828646Y-44852786D01*
X54847567Y-44807107D01*
X54847567Y-44807106D01*
X54875032Y-44766002D01*
X54875034Y-44766000D01*
X54875036Y-44765997D01*
X54909997Y-44731036D01*
X54910000Y-44731034D01*
X54910002Y-44731032D01*
X54951106Y-44703567D01*
X54996784Y-44684647D01*
X54996783Y-44684647D01*
X54996786Y-44684646D01*
X55045279Y-44675000D01*
X55094721Y-44675000D01*
X55143214Y-44684646D01*
X55143214Y-44684646D01*
G37*
G36*
X52143214Y-44684646D02*
G01*
X52143217Y-44684647D01*
X52143216Y-44684647D01*
X52188894Y-44703567D01*
X52229998Y-44731032D01*
X52230000Y-44731034D01*
X52230003Y-44731036D01*
X52264964Y-44765997D01*
X52264966Y-44766000D01*
X52264968Y-44766002D01*
X52292433Y-44807106D01*
X52292433Y-44807107D01*
X52311354Y-44852786D01*
X52321000Y-44901279D01*
X52321000Y-44950721D01*
X52311354Y-44999214D01*
X52311353Y-44999216D01*
X52292433Y-45044894D01*
X52264968Y-45085998D01*
X52264966Y-45086000D01*
X52264964Y-45086003D01*
X52230003Y-45120964D01*
X52230000Y-45120966D01*
X52229998Y-45120968D01*
X52188894Y-45148433D01*
X52156594Y-45161812D01*
X52143214Y-45167354D01*
X52094721Y-45177000D01*
X52045279Y-45177000D01*
X51996786Y-45167354D01*
X51983406Y-45161812D01*
X51951106Y-45148433D01*
X51910002Y-45120968D01*
X51910000Y-45120966D01*
X51909997Y-45120964D01*
X51875036Y-45086003D01*
X51875034Y-45086000D01*
X51875032Y-45085998D01*
X51847567Y-45044894D01*
X51828647Y-44999216D01*
X51828646Y-44999214D01*
X51819000Y-44950721D01*
X51819000Y-44901279D01*
X51828646Y-44852786D01*
X51847567Y-44807107D01*
X51847567Y-44807106D01*
X51875032Y-44766002D01*
X51875034Y-44766000D01*
X51875036Y-44765997D01*
X51909997Y-44731036D01*
X51910000Y-44731034D01*
X51910002Y-44731032D01*
X51951106Y-44703567D01*
X51996784Y-44684647D01*
X51996783Y-44684647D01*
X51996786Y-44684646D01*
X52045279Y-44675000D01*
X52094721Y-44675000D01*
X52143214Y-44684646D01*
X52143214Y-44684646D01*
G37*
G36*
X63125443Y-43301519D02*
G01*
X63191627Y-43308037D01*
X63361466Y-43359557D01*
X63517991Y-43443222D01*
X63553729Y-43472552D01*
X63655186Y-43555814D01*
X63738448Y-43657271D01*
X63767778Y-43693009D01*
X63851443Y-43849534D01*
X63902963Y-44019373D01*
X63920359Y-44196000D01*
X63902963Y-44372627D01*
X63851443Y-44542466D01*
X63767778Y-44698991D01*
X63741482Y-44731032D01*
X63655186Y-44836186D01*
X63553729Y-44919448D01*
X63517991Y-44948778D01*
X63361466Y-45032443D01*
X63191627Y-45083963D01*
X63125442Y-45090482D01*
X63059260Y-45097000D01*
X61270740Y-45097000D01*
X61204558Y-45090482D01*
X61138373Y-45083963D01*
X60968534Y-45032443D01*
X60812009Y-44948778D01*
X60776271Y-44919448D01*
X60674814Y-44836186D01*
X60588518Y-44731032D01*
X60562222Y-44698991D01*
X60478557Y-44542466D01*
X60427037Y-44372627D01*
X60409641Y-44196000D01*
X60427037Y-44019373D01*
X60478557Y-43849534D01*
X60562222Y-43693009D01*
X60591552Y-43657271D01*
X60674814Y-43555814D01*
X60776271Y-43472552D01*
X60812009Y-43443222D01*
X60968534Y-43359557D01*
X61138373Y-43308037D01*
X61204557Y-43301519D01*
X61270740Y-43295000D01*
X63059260Y-43295000D01*
X63125443Y-43301519D01*
X63125443Y-43301519D01*
G37*
G36*
X59643674Y-43329465D02*
G01*
X59681367Y-43340899D01*
X59716103Y-43359466D01*
X59746548Y-43384452D01*
X59771534Y-43414897D01*
X59790101Y-43449633D01*
X59801535Y-43487326D01*
X59806000Y-43532661D01*
X59806000Y-44369339D01*
X59801535Y-44414674D01*
X59790101Y-44452367D01*
X59771534Y-44487103D01*
X59746548Y-44517548D01*
X59716103Y-44542534D01*
X59681367Y-44561101D01*
X59643674Y-44572535D01*
X59598339Y-44577000D01*
X58511661Y-44577000D01*
X58466326Y-44572535D01*
X58428633Y-44561101D01*
X58393897Y-44542534D01*
X58363452Y-44517548D01*
X58338466Y-44487103D01*
X58319899Y-44452367D01*
X58308465Y-44414674D01*
X58304000Y-44369339D01*
X58304000Y-43532661D01*
X58308465Y-43487326D01*
X58319899Y-43449633D01*
X58338466Y-43414897D01*
X58363452Y-43384452D01*
X58393897Y-43359466D01*
X58428633Y-43340899D01*
X58466326Y-43329465D01*
X58511661Y-43325000D01*
X59598339Y-43325000D01*
X59643674Y-43329465D01*
X59643674Y-43329465D01*
G37*
G36*
X52143214Y-43684646D02*
G01*
X52143217Y-43684647D01*
X52143216Y-43684647D01*
X52188894Y-43703567D01*
X52229998Y-43731032D01*
X52230000Y-43731034D01*
X52230003Y-43731036D01*
X52264964Y-43765997D01*
X52264966Y-43766000D01*
X52264968Y-43766002D01*
X52292433Y-43807106D01*
X52292433Y-43807107D01*
X52311354Y-43852786D01*
X52321000Y-43901279D01*
X52321000Y-43950721D01*
X52311354Y-43999214D01*
X52311353Y-43999216D01*
X52292433Y-44044894D01*
X52264968Y-44085998D01*
X52264966Y-44086000D01*
X52264964Y-44086003D01*
X52230003Y-44120964D01*
X52230000Y-44120966D01*
X52229998Y-44120968D01*
X52188894Y-44148433D01*
X52156594Y-44161812D01*
X52143214Y-44167354D01*
X52094721Y-44177000D01*
X52045279Y-44177000D01*
X51996786Y-44167354D01*
X51983406Y-44161812D01*
X51951106Y-44148433D01*
X51910002Y-44120968D01*
X51910000Y-44120966D01*
X51909997Y-44120964D01*
X51875036Y-44086003D01*
X51875034Y-44086000D01*
X51875032Y-44085998D01*
X51847567Y-44044894D01*
X51828647Y-43999216D01*
X51828646Y-43999214D01*
X51819000Y-43950721D01*
X51819000Y-43901279D01*
X51828646Y-43852786D01*
X51847567Y-43807107D01*
X51847567Y-43807106D01*
X51875032Y-43766002D01*
X51875034Y-43766000D01*
X51875036Y-43765997D01*
X51909997Y-43731036D01*
X51910000Y-43731034D01*
X51910002Y-43731032D01*
X51951106Y-43703567D01*
X51996784Y-43684647D01*
X51996783Y-43684647D01*
X51996786Y-43684646D01*
X52045279Y-43675000D01*
X52094721Y-43675000D01*
X52143214Y-43684646D01*
X52143214Y-43684646D01*
G37*
G36*
X53143214Y-43684646D02*
G01*
X53143217Y-43684647D01*
X53143216Y-43684647D01*
X53188894Y-43703567D01*
X53229998Y-43731032D01*
X53230000Y-43731034D01*
X53230003Y-43731036D01*
X53264964Y-43765997D01*
X53264966Y-43766000D01*
X53264968Y-43766002D01*
X53292433Y-43807106D01*
X53292433Y-43807107D01*
X53311354Y-43852786D01*
X53321000Y-43901279D01*
X53321000Y-43950721D01*
X53311354Y-43999214D01*
X53311353Y-43999216D01*
X53292433Y-44044894D01*
X53264968Y-44085998D01*
X53264966Y-44086000D01*
X53264964Y-44086003D01*
X53230003Y-44120964D01*
X53230000Y-44120966D01*
X53229998Y-44120968D01*
X53188894Y-44148433D01*
X53156594Y-44161812D01*
X53143214Y-44167354D01*
X53094721Y-44177000D01*
X53045279Y-44177000D01*
X52996786Y-44167354D01*
X52983406Y-44161812D01*
X52951106Y-44148433D01*
X52910002Y-44120968D01*
X52910000Y-44120966D01*
X52909997Y-44120964D01*
X52875036Y-44086003D01*
X52875034Y-44086000D01*
X52875032Y-44085998D01*
X52847567Y-44044894D01*
X52828647Y-43999216D01*
X52828646Y-43999214D01*
X52819000Y-43950721D01*
X52819000Y-43901279D01*
X52828646Y-43852786D01*
X52847567Y-43807107D01*
X52847567Y-43807106D01*
X52875032Y-43766002D01*
X52875034Y-43766000D01*
X52875036Y-43765997D01*
X52909997Y-43731036D01*
X52910000Y-43731034D01*
X52910002Y-43731032D01*
X52951106Y-43703567D01*
X52996784Y-43684647D01*
X52996783Y-43684647D01*
X52996786Y-43684646D01*
X53045279Y-43675000D01*
X53094721Y-43675000D01*
X53143214Y-43684646D01*
X53143214Y-43684646D01*
G37*
G36*
X54143214Y-43684646D02*
G01*
X54143217Y-43684647D01*
X54143216Y-43684647D01*
X54188894Y-43703567D01*
X54229998Y-43731032D01*
X54230000Y-43731034D01*
X54230003Y-43731036D01*
X54264964Y-43765997D01*
X54264966Y-43766000D01*
X54264968Y-43766002D01*
X54292433Y-43807106D01*
X54292433Y-43807107D01*
X54311354Y-43852786D01*
X54321000Y-43901279D01*
X54321000Y-43950721D01*
X54311354Y-43999214D01*
X54311353Y-43999216D01*
X54292433Y-44044894D01*
X54264968Y-44085998D01*
X54264966Y-44086000D01*
X54264964Y-44086003D01*
X54230003Y-44120964D01*
X54230000Y-44120966D01*
X54229998Y-44120968D01*
X54188894Y-44148433D01*
X54156594Y-44161812D01*
X54143214Y-44167354D01*
X54094721Y-44177000D01*
X54045279Y-44177000D01*
X53996786Y-44167354D01*
X53983406Y-44161812D01*
X53951106Y-44148433D01*
X53910002Y-44120968D01*
X53910000Y-44120966D01*
X53909997Y-44120964D01*
X53875036Y-44086003D01*
X53875034Y-44086000D01*
X53875032Y-44085998D01*
X53847567Y-44044894D01*
X53828647Y-43999216D01*
X53828646Y-43999214D01*
X53819000Y-43950721D01*
X53819000Y-43901279D01*
X53828646Y-43852786D01*
X53847567Y-43807107D01*
X53847567Y-43807106D01*
X53875032Y-43766002D01*
X53875034Y-43766000D01*
X53875036Y-43765997D01*
X53909997Y-43731036D01*
X53910000Y-43731034D01*
X53910002Y-43731032D01*
X53951106Y-43703567D01*
X53996784Y-43684647D01*
X53996783Y-43684647D01*
X53996786Y-43684646D01*
X54045279Y-43675000D01*
X54094721Y-43675000D01*
X54143214Y-43684646D01*
X54143214Y-43684646D01*
G37*
G36*
X55143214Y-43684646D02*
G01*
X55143217Y-43684647D01*
X55143216Y-43684647D01*
X55188894Y-43703567D01*
X55229998Y-43731032D01*
X55230000Y-43731034D01*
X55230003Y-43731036D01*
X55264964Y-43765997D01*
X55264966Y-43766000D01*
X55264968Y-43766002D01*
X55292433Y-43807106D01*
X55292433Y-43807107D01*
X55311354Y-43852786D01*
X55321000Y-43901279D01*
X55321000Y-43950721D01*
X55311354Y-43999214D01*
X55311353Y-43999216D01*
X55292433Y-44044894D01*
X55264968Y-44085998D01*
X55264966Y-44086000D01*
X55264964Y-44086003D01*
X55230003Y-44120964D01*
X55230000Y-44120966D01*
X55229998Y-44120968D01*
X55188894Y-44148433D01*
X55156594Y-44161812D01*
X55143214Y-44167354D01*
X55094721Y-44177000D01*
X55045279Y-44177000D01*
X54996786Y-44167354D01*
X54983406Y-44161812D01*
X54951106Y-44148433D01*
X54910002Y-44120968D01*
X54910000Y-44120966D01*
X54909997Y-44120964D01*
X54875036Y-44086003D01*
X54875034Y-44086000D01*
X54875032Y-44085998D01*
X54847567Y-44044894D01*
X54828647Y-43999216D01*
X54828646Y-43999214D01*
X54819000Y-43950721D01*
X54819000Y-43901279D01*
X54828646Y-43852786D01*
X54847567Y-43807107D01*
X54847567Y-43807106D01*
X54875032Y-43766002D01*
X54875034Y-43766000D01*
X54875036Y-43765997D01*
X54909997Y-43731036D01*
X54910000Y-43731034D01*
X54910002Y-43731032D01*
X54951106Y-43703567D01*
X54996784Y-43684647D01*
X54996783Y-43684647D01*
X54996786Y-43684646D01*
X55045279Y-43675000D01*
X55094721Y-43675000D01*
X55143214Y-43684646D01*
X55143214Y-43684646D01*
G37*
G36*
X56143214Y-43684646D02*
G01*
X56143217Y-43684647D01*
X56143216Y-43684647D01*
X56188894Y-43703567D01*
X56229998Y-43731032D01*
X56230000Y-43731034D01*
X56230003Y-43731036D01*
X56264964Y-43765997D01*
X56264966Y-43766000D01*
X56264968Y-43766002D01*
X56292433Y-43807106D01*
X56292433Y-43807107D01*
X56311354Y-43852786D01*
X56321000Y-43901279D01*
X56321000Y-43950721D01*
X56311354Y-43999214D01*
X56311353Y-43999216D01*
X56292433Y-44044894D01*
X56264968Y-44085998D01*
X56264966Y-44086000D01*
X56264964Y-44086003D01*
X56230003Y-44120964D01*
X56230000Y-44120966D01*
X56229998Y-44120968D01*
X56188894Y-44148433D01*
X56156594Y-44161812D01*
X56143214Y-44167354D01*
X56094721Y-44177000D01*
X56045279Y-44177000D01*
X55996786Y-44167354D01*
X55983406Y-44161812D01*
X55951106Y-44148433D01*
X55910002Y-44120968D01*
X55910000Y-44120966D01*
X55909997Y-44120964D01*
X55875036Y-44086003D01*
X55875034Y-44086000D01*
X55875032Y-44085998D01*
X55847567Y-44044894D01*
X55828647Y-43999216D01*
X55828646Y-43999214D01*
X55819000Y-43950721D01*
X55819000Y-43901279D01*
X55828646Y-43852786D01*
X55847567Y-43807107D01*
X55847567Y-43807106D01*
X55875032Y-43766002D01*
X55875034Y-43766000D01*
X55875036Y-43765997D01*
X55909997Y-43731036D01*
X55910000Y-43731034D01*
X55910002Y-43731032D01*
X55951106Y-43703567D01*
X55996784Y-43684647D01*
X55996783Y-43684647D01*
X55996786Y-43684646D01*
X56045279Y-43675000D01*
X56094721Y-43675000D01*
X56143214Y-43684646D01*
X56143214Y-43684646D01*
G37*
G36*
X42730800Y-43896800D02*
G01*
X41629200Y-43896800D01*
X41629200Y-39195200D01*
X42730800Y-39195200D01*
X42730800Y-43896800D01*
X42730800Y-43896800D01*
G37*
G36*
X44730800Y-43896800D02*
G01*
X43629200Y-43896800D01*
X43629200Y-39195200D01*
X44730800Y-39195200D01*
X44730800Y-43896800D01*
X44730800Y-43896800D01*
G37*
G36*
X17330800Y-43896800D02*
G01*
X16229200Y-43896800D01*
X16229200Y-39195200D01*
X17330800Y-39195200D01*
X17330800Y-43896800D01*
X17330800Y-43896800D01*
G37*
G36*
X19330800Y-43896800D02*
G01*
X18229200Y-43896800D01*
X18229200Y-39195200D01*
X19330800Y-39195200D01*
X19330800Y-43896800D01*
X19330800Y-43896800D01*
G37*
G36*
X48848674Y-42059465D02*
G01*
X48886367Y-42070899D01*
X48921103Y-42089466D01*
X48951548Y-42114452D01*
X48976534Y-42144897D01*
X48995101Y-42179633D01*
X49006535Y-42217326D01*
X49011000Y-42262661D01*
X49011000Y-43099339D01*
X49006535Y-43144674D01*
X48995101Y-43182367D01*
X48976534Y-43217103D01*
X48951548Y-43247548D01*
X48921103Y-43272534D01*
X48886367Y-43291101D01*
X48848674Y-43302535D01*
X48803339Y-43307000D01*
X47716661Y-43307000D01*
X47671326Y-43302535D01*
X47633633Y-43291101D01*
X47598897Y-43272534D01*
X47568452Y-43247548D01*
X47543466Y-43217103D01*
X47524899Y-43182367D01*
X47513465Y-43144674D01*
X47509000Y-43099339D01*
X47509000Y-42262661D01*
X47513465Y-42217326D01*
X47524899Y-42179633D01*
X47543466Y-42144897D01*
X47568452Y-42114452D01*
X47598897Y-42089466D01*
X47633633Y-42070899D01*
X47671326Y-42059465D01*
X47716661Y-42055000D01*
X48803339Y-42055000D01*
X48848674Y-42059465D01*
X48848674Y-42059465D01*
G37*
G36*
X54143214Y-42684646D02*
G01*
X54143217Y-42684647D01*
X54143216Y-42684647D01*
X54188894Y-42703567D01*
X54229998Y-42731032D01*
X54230000Y-42731034D01*
X54230003Y-42731036D01*
X54264964Y-42765997D01*
X54264966Y-42766000D01*
X54264968Y-42766002D01*
X54292433Y-42807106D01*
X54292433Y-42807107D01*
X54311354Y-42852786D01*
X54321000Y-42901279D01*
X54321000Y-42950721D01*
X54311354Y-42999214D01*
X54311353Y-42999216D01*
X54292433Y-43044894D01*
X54264968Y-43085998D01*
X54264966Y-43086000D01*
X54264964Y-43086003D01*
X54230003Y-43120964D01*
X54230000Y-43120966D01*
X54229998Y-43120968D01*
X54188894Y-43148433D01*
X54156594Y-43161812D01*
X54143214Y-43167354D01*
X54094721Y-43177000D01*
X54045279Y-43177000D01*
X53996786Y-43167354D01*
X53983406Y-43161812D01*
X53951106Y-43148433D01*
X53910002Y-43120968D01*
X53910000Y-43120966D01*
X53909997Y-43120964D01*
X53875036Y-43086003D01*
X53875034Y-43086000D01*
X53875032Y-43085998D01*
X53847567Y-43044894D01*
X53828647Y-42999216D01*
X53828646Y-42999214D01*
X53819000Y-42950721D01*
X53819000Y-42901279D01*
X53828646Y-42852786D01*
X53847567Y-42807107D01*
X53847567Y-42807106D01*
X53875032Y-42766002D01*
X53875034Y-42766000D01*
X53875036Y-42765997D01*
X53909997Y-42731036D01*
X53910000Y-42731034D01*
X53910002Y-42731032D01*
X53951106Y-42703567D01*
X53996784Y-42684647D01*
X53996783Y-42684647D01*
X53996786Y-42684646D01*
X54045279Y-42675000D01*
X54094721Y-42675000D01*
X54143214Y-42684646D01*
X54143214Y-42684646D01*
G37*
G36*
X55143214Y-42684646D02*
G01*
X55143217Y-42684647D01*
X55143216Y-42684647D01*
X55188894Y-42703567D01*
X55229998Y-42731032D01*
X55230000Y-42731034D01*
X55230003Y-42731036D01*
X55264964Y-42765997D01*
X55264966Y-42766000D01*
X55264968Y-42766002D01*
X55292433Y-42807106D01*
X55292433Y-42807107D01*
X55311354Y-42852786D01*
X55321000Y-42901279D01*
X55321000Y-42950721D01*
X55311354Y-42999214D01*
X55311353Y-42999216D01*
X55292433Y-43044894D01*
X55264968Y-43085998D01*
X55264966Y-43086000D01*
X55264964Y-43086003D01*
X55230003Y-43120964D01*
X55230000Y-43120966D01*
X55229998Y-43120968D01*
X55188894Y-43148433D01*
X55156594Y-43161812D01*
X55143214Y-43167354D01*
X55094721Y-43177000D01*
X55045279Y-43177000D01*
X54996786Y-43167354D01*
X54983406Y-43161812D01*
X54951106Y-43148433D01*
X54910002Y-43120968D01*
X54910000Y-43120966D01*
X54909997Y-43120964D01*
X54875036Y-43086003D01*
X54875034Y-43086000D01*
X54875032Y-43085998D01*
X54847567Y-43044894D01*
X54828647Y-42999216D01*
X54828646Y-42999214D01*
X54819000Y-42950721D01*
X54819000Y-42901279D01*
X54828646Y-42852786D01*
X54847567Y-42807107D01*
X54847567Y-42807106D01*
X54875032Y-42766002D01*
X54875034Y-42766000D01*
X54875036Y-42765997D01*
X54909997Y-42731036D01*
X54910000Y-42731034D01*
X54910002Y-42731032D01*
X54951106Y-42703567D01*
X54996784Y-42684647D01*
X54996783Y-42684647D01*
X54996786Y-42684646D01*
X55045279Y-42675000D01*
X55094721Y-42675000D01*
X55143214Y-42684646D01*
X55143214Y-42684646D01*
G37*
G36*
X52143214Y-42684646D02*
G01*
X52143217Y-42684647D01*
X52143216Y-42684647D01*
X52188894Y-42703567D01*
X52229998Y-42731032D01*
X52230000Y-42731034D01*
X52230003Y-42731036D01*
X52264964Y-42765997D01*
X52264966Y-42766000D01*
X52264968Y-42766002D01*
X52292433Y-42807106D01*
X52292433Y-42807107D01*
X52311354Y-42852786D01*
X52321000Y-42901279D01*
X52321000Y-42950721D01*
X52311354Y-42999214D01*
X52311353Y-42999216D01*
X52292433Y-43044894D01*
X52264968Y-43085998D01*
X52264966Y-43086000D01*
X52264964Y-43086003D01*
X52230003Y-43120964D01*
X52230000Y-43120966D01*
X52229998Y-43120968D01*
X52188894Y-43148433D01*
X52156594Y-43161812D01*
X52143214Y-43167354D01*
X52094721Y-43177000D01*
X52045279Y-43177000D01*
X51996786Y-43167354D01*
X51983406Y-43161812D01*
X51951106Y-43148433D01*
X51910002Y-43120968D01*
X51910000Y-43120966D01*
X51909997Y-43120964D01*
X51875036Y-43086003D01*
X51875034Y-43086000D01*
X51875032Y-43085998D01*
X51847567Y-43044894D01*
X51828647Y-42999216D01*
X51828646Y-42999214D01*
X51819000Y-42950721D01*
X51819000Y-42901279D01*
X51828646Y-42852786D01*
X51847567Y-42807107D01*
X51847567Y-42807106D01*
X51875032Y-42766002D01*
X51875034Y-42766000D01*
X51875036Y-42765997D01*
X51909997Y-42731036D01*
X51910000Y-42731034D01*
X51910002Y-42731032D01*
X51951106Y-42703567D01*
X51996784Y-42684647D01*
X51996783Y-42684647D01*
X51996786Y-42684646D01*
X52045279Y-42675000D01*
X52094721Y-42675000D01*
X52143214Y-42684646D01*
X52143214Y-42684646D01*
G37*
G36*
X56143214Y-42684646D02*
G01*
X56143217Y-42684647D01*
X56143216Y-42684647D01*
X56188894Y-42703567D01*
X56229998Y-42731032D01*
X56230000Y-42731034D01*
X56230003Y-42731036D01*
X56264964Y-42765997D01*
X56264966Y-42766000D01*
X56264968Y-42766002D01*
X56292433Y-42807106D01*
X56292433Y-42807107D01*
X56311354Y-42852786D01*
X56321000Y-42901279D01*
X56321000Y-42950721D01*
X56311354Y-42999214D01*
X56311353Y-42999216D01*
X56292433Y-43044894D01*
X56264968Y-43085998D01*
X56264966Y-43086000D01*
X56264964Y-43086003D01*
X56230003Y-43120964D01*
X56230000Y-43120966D01*
X56229998Y-43120968D01*
X56188894Y-43148433D01*
X56156594Y-43161812D01*
X56143214Y-43167354D01*
X56094721Y-43177000D01*
X56045279Y-43177000D01*
X55996786Y-43167354D01*
X55983406Y-43161812D01*
X55951106Y-43148433D01*
X55910002Y-43120968D01*
X55910000Y-43120966D01*
X55909997Y-43120964D01*
X55875036Y-43086003D01*
X55875034Y-43086000D01*
X55875032Y-43085998D01*
X55847567Y-43044894D01*
X55828647Y-42999216D01*
X55828646Y-42999214D01*
X55819000Y-42950721D01*
X55819000Y-42901279D01*
X55828646Y-42852786D01*
X55847567Y-42807107D01*
X55847567Y-42807106D01*
X55875032Y-42766002D01*
X55875034Y-42766000D01*
X55875036Y-42765997D01*
X55909997Y-42731036D01*
X55910000Y-42731034D01*
X55910002Y-42731032D01*
X55951106Y-42703567D01*
X55996784Y-42684647D01*
X55996783Y-42684647D01*
X55996786Y-42684646D01*
X56045279Y-42675000D01*
X56094721Y-42675000D01*
X56143214Y-42684646D01*
X56143214Y-42684646D01*
G37*
G36*
X53143214Y-42684646D02*
G01*
X53143217Y-42684647D01*
X53143216Y-42684647D01*
X53188894Y-42703567D01*
X53229998Y-42731032D01*
X53230000Y-42731034D01*
X53230003Y-42731036D01*
X53264964Y-42765997D01*
X53264966Y-42766000D01*
X53264968Y-42766002D01*
X53292433Y-42807106D01*
X53292433Y-42807107D01*
X53311354Y-42852786D01*
X53321000Y-42901279D01*
X53321000Y-42950721D01*
X53311354Y-42999214D01*
X53311353Y-42999216D01*
X53292433Y-43044894D01*
X53264968Y-43085998D01*
X53264966Y-43086000D01*
X53264964Y-43086003D01*
X53230003Y-43120964D01*
X53230000Y-43120966D01*
X53229998Y-43120968D01*
X53188894Y-43148433D01*
X53156594Y-43161812D01*
X53143214Y-43167354D01*
X53094721Y-43177000D01*
X53045279Y-43177000D01*
X52996786Y-43167354D01*
X52983406Y-43161812D01*
X52951106Y-43148433D01*
X52910002Y-43120968D01*
X52910000Y-43120966D01*
X52909997Y-43120964D01*
X52875036Y-43086003D01*
X52875034Y-43086000D01*
X52875032Y-43085998D01*
X52847567Y-43044894D01*
X52828647Y-42999216D01*
X52828646Y-42999214D01*
X52819000Y-42950721D01*
X52819000Y-42901279D01*
X52828646Y-42852786D01*
X52847567Y-42807107D01*
X52847567Y-42807106D01*
X52875032Y-42766002D01*
X52875034Y-42766000D01*
X52875036Y-42765997D01*
X52909997Y-42731036D01*
X52910000Y-42731034D01*
X52910002Y-42731032D01*
X52951106Y-42703567D01*
X52996784Y-42684647D01*
X52996783Y-42684647D01*
X52996786Y-42684646D01*
X53045279Y-42675000D01*
X53094721Y-42675000D01*
X53143214Y-42684646D01*
X53143214Y-42684646D01*
G37*
G36*
X63125443Y-40761519D02*
G01*
X63191627Y-40768037D01*
X63361466Y-40819557D01*
X63517991Y-40903222D01*
X63553729Y-40932552D01*
X63655186Y-41015814D01*
X63738448Y-41117271D01*
X63767778Y-41153009D01*
X63851443Y-41309534D01*
X63902963Y-41479373D01*
X63920359Y-41656000D01*
X63902963Y-41832627D01*
X63851443Y-42002466D01*
X63767778Y-42158991D01*
X63753850Y-42175962D01*
X63655186Y-42296186D01*
X63571732Y-42364674D01*
X63517991Y-42408778D01*
X63361466Y-42492443D01*
X63191627Y-42543963D01*
X63125443Y-42550481D01*
X63059260Y-42557000D01*
X61270740Y-42557000D01*
X61204557Y-42550481D01*
X61138373Y-42543963D01*
X60968534Y-42492443D01*
X60812009Y-42408778D01*
X60758268Y-42364674D01*
X60674814Y-42296186D01*
X60576150Y-42175962D01*
X60562222Y-42158991D01*
X60478557Y-42002466D01*
X60427037Y-41832627D01*
X60409641Y-41656000D01*
X60427037Y-41479373D01*
X60478557Y-41309534D01*
X60562222Y-41153009D01*
X60591552Y-41117271D01*
X60674814Y-41015814D01*
X60776271Y-40932552D01*
X60812009Y-40903222D01*
X60968534Y-40819557D01*
X61138373Y-40768037D01*
X61204557Y-40761519D01*
X61270740Y-40755000D01*
X63059260Y-40755000D01*
X63125443Y-40761519D01*
X63125443Y-40761519D01*
G37*
G36*
X59643674Y-41279465D02*
G01*
X59681367Y-41290899D01*
X59716103Y-41309466D01*
X59746548Y-41334452D01*
X59771534Y-41364897D01*
X59790101Y-41399633D01*
X59801535Y-41437326D01*
X59806000Y-41482661D01*
X59806000Y-42319339D01*
X59801535Y-42364674D01*
X59790101Y-42402367D01*
X59771534Y-42437103D01*
X59746548Y-42467548D01*
X59716103Y-42492534D01*
X59681367Y-42511101D01*
X59643674Y-42522535D01*
X59598339Y-42527000D01*
X58511661Y-42527000D01*
X58466326Y-42522535D01*
X58428633Y-42511101D01*
X58393897Y-42492534D01*
X58363452Y-42467548D01*
X58338466Y-42437103D01*
X58319899Y-42402367D01*
X58308465Y-42364674D01*
X58304000Y-42319339D01*
X58304000Y-41482661D01*
X58308465Y-41437326D01*
X58319899Y-41399633D01*
X58338466Y-41364897D01*
X58363452Y-41334452D01*
X58393897Y-41309466D01*
X58428633Y-41290899D01*
X58466326Y-41279465D01*
X58511661Y-41275000D01*
X59598339Y-41275000D01*
X59643674Y-41279465D01*
X59643674Y-41279465D01*
G37*
G36*
X56143214Y-41684646D02*
G01*
X56143217Y-41684647D01*
X56143216Y-41684647D01*
X56188894Y-41703567D01*
X56229998Y-41731032D01*
X56230000Y-41731034D01*
X56230003Y-41731036D01*
X56264964Y-41765997D01*
X56264966Y-41766000D01*
X56264968Y-41766002D01*
X56292433Y-41807106D01*
X56292433Y-41807107D01*
X56311354Y-41852786D01*
X56321000Y-41901279D01*
X56321000Y-41950721D01*
X56311354Y-41999214D01*
X56311353Y-41999216D01*
X56292433Y-42044894D01*
X56264968Y-42085998D01*
X56264966Y-42086000D01*
X56264964Y-42086003D01*
X56230003Y-42120964D01*
X56230000Y-42120966D01*
X56229998Y-42120968D01*
X56188894Y-42148433D01*
X56163409Y-42158989D01*
X56143214Y-42167354D01*
X56094721Y-42177000D01*
X56045279Y-42177000D01*
X55996786Y-42167354D01*
X55976591Y-42158989D01*
X55951106Y-42148433D01*
X55910002Y-42120968D01*
X55910000Y-42120966D01*
X55909997Y-42120964D01*
X55875036Y-42086003D01*
X55875034Y-42086000D01*
X55875032Y-42085998D01*
X55847567Y-42044894D01*
X55828647Y-41999216D01*
X55828646Y-41999214D01*
X55819000Y-41950721D01*
X55819000Y-41901279D01*
X55828646Y-41852786D01*
X55847567Y-41807107D01*
X55847567Y-41807106D01*
X55875032Y-41766002D01*
X55875034Y-41766000D01*
X55875036Y-41765997D01*
X55909997Y-41731036D01*
X55910000Y-41731034D01*
X55910002Y-41731032D01*
X55951106Y-41703567D01*
X55996784Y-41684647D01*
X55996783Y-41684647D01*
X55996786Y-41684646D01*
X56045279Y-41675000D01*
X56094721Y-41675000D01*
X56143214Y-41684646D01*
X56143214Y-41684646D01*
G37*
G36*
X52143214Y-41684646D02*
G01*
X52143217Y-41684647D01*
X52143216Y-41684647D01*
X52188894Y-41703567D01*
X52229998Y-41731032D01*
X52230000Y-41731034D01*
X52230003Y-41731036D01*
X52264964Y-41765997D01*
X52264966Y-41766000D01*
X52264968Y-41766002D01*
X52292433Y-41807106D01*
X52292433Y-41807107D01*
X52311354Y-41852786D01*
X52321000Y-41901279D01*
X52321000Y-41950721D01*
X52311354Y-41999214D01*
X52311353Y-41999216D01*
X52292433Y-42044894D01*
X52264968Y-42085998D01*
X52264966Y-42086000D01*
X52264964Y-42086003D01*
X52230003Y-42120964D01*
X52230000Y-42120966D01*
X52229998Y-42120968D01*
X52188894Y-42148433D01*
X52163409Y-42158989D01*
X52143214Y-42167354D01*
X52094721Y-42177000D01*
X52045279Y-42177000D01*
X51996786Y-42167354D01*
X51976591Y-42158989D01*
X51951106Y-42148433D01*
X51910002Y-42120968D01*
X51910000Y-42120966D01*
X51909997Y-42120964D01*
X51875036Y-42086003D01*
X51875034Y-42086000D01*
X51875032Y-42085998D01*
X51847567Y-42044894D01*
X51828647Y-41999216D01*
X51828646Y-41999214D01*
X51819000Y-41950721D01*
X51819000Y-41901279D01*
X51828646Y-41852786D01*
X51847567Y-41807107D01*
X51847567Y-41807106D01*
X51875032Y-41766002D01*
X51875034Y-41766000D01*
X51875036Y-41765997D01*
X51909997Y-41731036D01*
X51910000Y-41731034D01*
X51910002Y-41731032D01*
X51951106Y-41703567D01*
X51996784Y-41684647D01*
X51996783Y-41684647D01*
X51996786Y-41684646D01*
X52045279Y-41675000D01*
X52094721Y-41675000D01*
X52143214Y-41684646D01*
X52143214Y-41684646D01*
G37*
G36*
X55143214Y-41684646D02*
G01*
X55143217Y-41684647D01*
X55143216Y-41684647D01*
X55188894Y-41703567D01*
X55229998Y-41731032D01*
X55230000Y-41731034D01*
X55230003Y-41731036D01*
X55264964Y-41765997D01*
X55264966Y-41766000D01*
X55264968Y-41766002D01*
X55292433Y-41807106D01*
X55292433Y-41807107D01*
X55311354Y-41852786D01*
X55321000Y-41901279D01*
X55321000Y-41950721D01*
X55311354Y-41999214D01*
X55311353Y-41999216D01*
X55292433Y-42044894D01*
X55264968Y-42085998D01*
X55264966Y-42086000D01*
X55264964Y-42086003D01*
X55230003Y-42120964D01*
X55230000Y-42120966D01*
X55229998Y-42120968D01*
X55188894Y-42148433D01*
X55163409Y-42158989D01*
X55143214Y-42167354D01*
X55094721Y-42177000D01*
X55045279Y-42177000D01*
X54996786Y-42167354D01*
X54976591Y-42158989D01*
X54951106Y-42148433D01*
X54910002Y-42120968D01*
X54910000Y-42120966D01*
X54909997Y-42120964D01*
X54875036Y-42086003D01*
X54875034Y-42086000D01*
X54875032Y-42085998D01*
X54847567Y-42044894D01*
X54828647Y-41999216D01*
X54828646Y-41999214D01*
X54819000Y-41950721D01*
X54819000Y-41901279D01*
X54828646Y-41852786D01*
X54847567Y-41807107D01*
X54847567Y-41807106D01*
X54875032Y-41766002D01*
X54875034Y-41766000D01*
X54875036Y-41765997D01*
X54909997Y-41731036D01*
X54910000Y-41731034D01*
X54910002Y-41731032D01*
X54951106Y-41703567D01*
X54996784Y-41684647D01*
X54996783Y-41684647D01*
X54996786Y-41684646D01*
X55045279Y-41675000D01*
X55094721Y-41675000D01*
X55143214Y-41684646D01*
X55143214Y-41684646D01*
G37*
G36*
X54143214Y-41684646D02*
G01*
X54143217Y-41684647D01*
X54143216Y-41684647D01*
X54188894Y-41703567D01*
X54229998Y-41731032D01*
X54230000Y-41731034D01*
X54230003Y-41731036D01*
X54264964Y-41765997D01*
X54264966Y-41766000D01*
X54264968Y-41766002D01*
X54292433Y-41807106D01*
X54292433Y-41807107D01*
X54311354Y-41852786D01*
X54321000Y-41901279D01*
X54321000Y-41950721D01*
X54311354Y-41999214D01*
X54311353Y-41999216D01*
X54292433Y-42044894D01*
X54264968Y-42085998D01*
X54264966Y-42086000D01*
X54264964Y-42086003D01*
X54230003Y-42120964D01*
X54230000Y-42120966D01*
X54229998Y-42120968D01*
X54188894Y-42148433D01*
X54163409Y-42158989D01*
X54143214Y-42167354D01*
X54094721Y-42177000D01*
X54045279Y-42177000D01*
X53996786Y-42167354D01*
X53976591Y-42158989D01*
X53951106Y-42148433D01*
X53910002Y-42120968D01*
X53910000Y-42120966D01*
X53909997Y-42120964D01*
X53875036Y-42086003D01*
X53875034Y-42086000D01*
X53875032Y-42085998D01*
X53847567Y-42044894D01*
X53828647Y-41999216D01*
X53828646Y-41999214D01*
X53819000Y-41950721D01*
X53819000Y-41901279D01*
X53828646Y-41852786D01*
X53847567Y-41807107D01*
X53847567Y-41807106D01*
X53875032Y-41766002D01*
X53875034Y-41766000D01*
X53875036Y-41765997D01*
X53909997Y-41731036D01*
X53910000Y-41731034D01*
X53910002Y-41731032D01*
X53951106Y-41703567D01*
X53996784Y-41684647D01*
X53996783Y-41684647D01*
X53996786Y-41684646D01*
X54045279Y-41675000D01*
X54094721Y-41675000D01*
X54143214Y-41684646D01*
X54143214Y-41684646D01*
G37*
G36*
X53143214Y-41684646D02*
G01*
X53143217Y-41684647D01*
X53143216Y-41684647D01*
X53188894Y-41703567D01*
X53229998Y-41731032D01*
X53230000Y-41731034D01*
X53230003Y-41731036D01*
X53264964Y-41765997D01*
X53264966Y-41766000D01*
X53264968Y-41766002D01*
X53292433Y-41807106D01*
X53292433Y-41807107D01*
X53311354Y-41852786D01*
X53321000Y-41901279D01*
X53321000Y-41950721D01*
X53311354Y-41999214D01*
X53311353Y-41999216D01*
X53292433Y-42044894D01*
X53264968Y-42085998D01*
X53264966Y-42086000D01*
X53264964Y-42086003D01*
X53230003Y-42120964D01*
X53230000Y-42120966D01*
X53229998Y-42120968D01*
X53188894Y-42148433D01*
X53163409Y-42158989D01*
X53143214Y-42167354D01*
X53094721Y-42177000D01*
X53045279Y-42177000D01*
X52996786Y-42167354D01*
X52976591Y-42158989D01*
X52951106Y-42148433D01*
X52910002Y-42120968D01*
X52910000Y-42120966D01*
X52909997Y-42120964D01*
X52875036Y-42086003D01*
X52875034Y-42086000D01*
X52875032Y-42085998D01*
X52847567Y-42044894D01*
X52828647Y-41999216D01*
X52828646Y-41999214D01*
X52819000Y-41950721D01*
X52819000Y-41901279D01*
X52828646Y-41852786D01*
X52847567Y-41807107D01*
X52847567Y-41807106D01*
X52875032Y-41766002D01*
X52875034Y-41766000D01*
X52875036Y-41765997D01*
X52909997Y-41731036D01*
X52910000Y-41731034D01*
X52910002Y-41731032D01*
X52951106Y-41703567D01*
X52996784Y-41684647D01*
X52996783Y-41684647D01*
X52996786Y-41684646D01*
X53045279Y-41675000D01*
X53094721Y-41675000D01*
X53143214Y-41684646D01*
X53143214Y-41684646D01*
G37*
G36*
X48848674Y-40009465D02*
G01*
X48886367Y-40020899D01*
X48921103Y-40039466D01*
X48951548Y-40064452D01*
X48976534Y-40094897D01*
X48995101Y-40129633D01*
X49006535Y-40167326D01*
X49011000Y-40212661D01*
X49011000Y-41049339D01*
X49006535Y-41094674D01*
X48995101Y-41132367D01*
X48976534Y-41167103D01*
X48951548Y-41197548D01*
X48921103Y-41222534D01*
X48886367Y-41241101D01*
X48848674Y-41252535D01*
X48803339Y-41257000D01*
X47716661Y-41257000D01*
X47671326Y-41252535D01*
X47633633Y-41241101D01*
X47598897Y-41222534D01*
X47568452Y-41197548D01*
X47543466Y-41167103D01*
X47524899Y-41132367D01*
X47513465Y-41094674D01*
X47509000Y-41049339D01*
X47509000Y-40212661D01*
X47513465Y-40167326D01*
X47524899Y-40129633D01*
X47543466Y-40094897D01*
X47568452Y-40064452D01*
X47598897Y-40039466D01*
X47633633Y-40020899D01*
X47671326Y-40009465D01*
X47716661Y-40005000D01*
X48803339Y-40005000D01*
X48848674Y-40009465D01*
X48848674Y-40009465D01*
G37*
G36*
X53143214Y-40684646D02*
G01*
X53143217Y-40684647D01*
X53143216Y-40684647D01*
X53188894Y-40703567D01*
X53229998Y-40731032D01*
X53230000Y-40731034D01*
X53230003Y-40731036D01*
X53264964Y-40765997D01*
X53264966Y-40766000D01*
X53264968Y-40766002D01*
X53292433Y-40807106D01*
X53305812Y-40839406D01*
X53311354Y-40852786D01*
X53321000Y-40901279D01*
X53321000Y-40950721D01*
X53311354Y-40999214D01*
X53311353Y-40999216D01*
X53292433Y-41044894D01*
X53264968Y-41085998D01*
X53264966Y-41086000D01*
X53264964Y-41086003D01*
X53230003Y-41120964D01*
X53230000Y-41120966D01*
X53229998Y-41120968D01*
X53188894Y-41148433D01*
X53177846Y-41153009D01*
X53143214Y-41167354D01*
X53094721Y-41177000D01*
X53045279Y-41177000D01*
X52996786Y-41167354D01*
X52962154Y-41153009D01*
X52951106Y-41148433D01*
X52910002Y-41120968D01*
X52910000Y-41120966D01*
X52909997Y-41120964D01*
X52875036Y-41086003D01*
X52875034Y-41086000D01*
X52875032Y-41085998D01*
X52847567Y-41044894D01*
X52828647Y-40999216D01*
X52828646Y-40999214D01*
X52819000Y-40950721D01*
X52819000Y-40901279D01*
X52828646Y-40852786D01*
X52834188Y-40839406D01*
X52847567Y-40807106D01*
X52875032Y-40766002D01*
X52875034Y-40766000D01*
X52875036Y-40765997D01*
X52909997Y-40731036D01*
X52910000Y-40731034D01*
X52910002Y-40731032D01*
X52951106Y-40703567D01*
X52996784Y-40684647D01*
X52996783Y-40684647D01*
X52996786Y-40684646D01*
X53045279Y-40675000D01*
X53094721Y-40675000D01*
X53143214Y-40684646D01*
X53143214Y-40684646D01*
G37*
G36*
X56143214Y-40684646D02*
G01*
X56143217Y-40684647D01*
X56143216Y-40684647D01*
X56188894Y-40703567D01*
X56229998Y-40731032D01*
X56230000Y-40731034D01*
X56230003Y-40731036D01*
X56264964Y-40765997D01*
X56264966Y-40766000D01*
X56264968Y-40766002D01*
X56292433Y-40807106D01*
X56305812Y-40839406D01*
X56311354Y-40852786D01*
X56321000Y-40901279D01*
X56321000Y-40950721D01*
X56311354Y-40999214D01*
X56311353Y-40999216D01*
X56292433Y-41044894D01*
X56264968Y-41085998D01*
X56264966Y-41086000D01*
X56264964Y-41086003D01*
X56230003Y-41120964D01*
X56230000Y-41120966D01*
X56229998Y-41120968D01*
X56188894Y-41148433D01*
X56177846Y-41153009D01*
X56143214Y-41167354D01*
X56094721Y-41177000D01*
X56045279Y-41177000D01*
X55996786Y-41167354D01*
X55962154Y-41153009D01*
X55951106Y-41148433D01*
X55910002Y-41120968D01*
X55910000Y-41120966D01*
X55909997Y-41120964D01*
X55875036Y-41086003D01*
X55875034Y-41086000D01*
X55875032Y-41085998D01*
X55847567Y-41044894D01*
X55828647Y-40999216D01*
X55828646Y-40999214D01*
X55819000Y-40950721D01*
X55819000Y-40901279D01*
X55828646Y-40852786D01*
X55834188Y-40839406D01*
X55847567Y-40807106D01*
X55875032Y-40766002D01*
X55875034Y-40766000D01*
X55875036Y-40765997D01*
X55909997Y-40731036D01*
X55910000Y-40731034D01*
X55910002Y-40731032D01*
X55951106Y-40703567D01*
X55996784Y-40684647D01*
X55996783Y-40684647D01*
X55996786Y-40684646D01*
X56045279Y-40675000D01*
X56094721Y-40675000D01*
X56143214Y-40684646D01*
X56143214Y-40684646D01*
G37*
G36*
X55143214Y-40684646D02*
G01*
X55143217Y-40684647D01*
X55143216Y-40684647D01*
X55188894Y-40703567D01*
X55229998Y-40731032D01*
X55230000Y-40731034D01*
X55230003Y-40731036D01*
X55264964Y-40765997D01*
X55264966Y-40766000D01*
X55264968Y-40766002D01*
X55292433Y-40807106D01*
X55305812Y-40839406D01*
X55311354Y-40852786D01*
X55321000Y-40901279D01*
X55321000Y-40950721D01*
X55311354Y-40999214D01*
X55311353Y-40999216D01*
X55292433Y-41044894D01*
X55264968Y-41085998D01*
X55264966Y-41086000D01*
X55264964Y-41086003D01*
X55230003Y-41120964D01*
X55230000Y-41120966D01*
X55229998Y-41120968D01*
X55188894Y-41148433D01*
X55177846Y-41153009D01*
X55143214Y-41167354D01*
X55094721Y-41177000D01*
X55045279Y-41177000D01*
X54996786Y-41167354D01*
X54962154Y-41153009D01*
X54951106Y-41148433D01*
X54910002Y-41120968D01*
X54910000Y-41120966D01*
X54909997Y-41120964D01*
X54875036Y-41086003D01*
X54875034Y-41086000D01*
X54875032Y-41085998D01*
X54847567Y-41044894D01*
X54828647Y-40999216D01*
X54828646Y-40999214D01*
X54819000Y-40950721D01*
X54819000Y-40901279D01*
X54828646Y-40852786D01*
X54834188Y-40839406D01*
X54847567Y-40807106D01*
X54875032Y-40766002D01*
X54875034Y-40766000D01*
X54875036Y-40765997D01*
X54909997Y-40731036D01*
X54910000Y-40731034D01*
X54910002Y-40731032D01*
X54951106Y-40703567D01*
X54996784Y-40684647D01*
X54996783Y-40684647D01*
X54996786Y-40684646D01*
X55045279Y-40675000D01*
X55094721Y-40675000D01*
X55143214Y-40684646D01*
X55143214Y-40684646D01*
G37*
G36*
X54143214Y-40684646D02*
G01*
X54143217Y-40684647D01*
X54143216Y-40684647D01*
X54188894Y-40703567D01*
X54229998Y-40731032D01*
X54230000Y-40731034D01*
X54230003Y-40731036D01*
X54264964Y-40765997D01*
X54264966Y-40766000D01*
X54264968Y-40766002D01*
X54292433Y-40807106D01*
X54305812Y-40839406D01*
X54311354Y-40852786D01*
X54321000Y-40901279D01*
X54321000Y-40950721D01*
X54311354Y-40999214D01*
X54311353Y-40999216D01*
X54292433Y-41044894D01*
X54264968Y-41085998D01*
X54264966Y-41086000D01*
X54264964Y-41086003D01*
X54230003Y-41120964D01*
X54230000Y-41120966D01*
X54229998Y-41120968D01*
X54188894Y-41148433D01*
X54177846Y-41153009D01*
X54143214Y-41167354D01*
X54094721Y-41177000D01*
X54045279Y-41177000D01*
X53996786Y-41167354D01*
X53962154Y-41153009D01*
X53951106Y-41148433D01*
X53910002Y-41120968D01*
X53910000Y-41120966D01*
X53909997Y-41120964D01*
X53875036Y-41086003D01*
X53875034Y-41086000D01*
X53875032Y-41085998D01*
X53847567Y-41044894D01*
X53828647Y-40999216D01*
X53828646Y-40999214D01*
X53819000Y-40950721D01*
X53819000Y-40901279D01*
X53828646Y-40852786D01*
X53834188Y-40839406D01*
X53847567Y-40807106D01*
X53875032Y-40766002D01*
X53875034Y-40766000D01*
X53875036Y-40765997D01*
X53909997Y-40731036D01*
X53910000Y-40731034D01*
X53910002Y-40731032D01*
X53951106Y-40703567D01*
X53996784Y-40684647D01*
X53996783Y-40684647D01*
X53996786Y-40684646D01*
X54045279Y-40675000D01*
X54094721Y-40675000D01*
X54143214Y-40684646D01*
X54143214Y-40684646D01*
G37*
G36*
X52143214Y-40684646D02*
G01*
X52143217Y-40684647D01*
X52143216Y-40684647D01*
X52188894Y-40703567D01*
X52229998Y-40731032D01*
X52230000Y-40731034D01*
X52230003Y-40731036D01*
X52264964Y-40765997D01*
X52264966Y-40766000D01*
X52264968Y-40766002D01*
X52292433Y-40807106D01*
X52305812Y-40839406D01*
X52311354Y-40852786D01*
X52321000Y-40901279D01*
X52321000Y-40950721D01*
X52311354Y-40999214D01*
X52311353Y-40999216D01*
X52292433Y-41044894D01*
X52264968Y-41085998D01*
X52264966Y-41086000D01*
X52264964Y-41086003D01*
X52230003Y-41120964D01*
X52230000Y-41120966D01*
X52229998Y-41120968D01*
X52188894Y-41148433D01*
X52177846Y-41153009D01*
X52143214Y-41167354D01*
X52094721Y-41177000D01*
X52045279Y-41177000D01*
X51996786Y-41167354D01*
X51962154Y-41153009D01*
X51951106Y-41148433D01*
X51910002Y-41120968D01*
X51910000Y-41120966D01*
X51909997Y-41120964D01*
X51875036Y-41086003D01*
X51875034Y-41086000D01*
X51875032Y-41085998D01*
X51847567Y-41044894D01*
X51828647Y-40999216D01*
X51828646Y-40999214D01*
X51819000Y-40950721D01*
X51819000Y-40901279D01*
X51828646Y-40852786D01*
X51834188Y-40839406D01*
X51847567Y-40807106D01*
X51875032Y-40766002D01*
X51875034Y-40766000D01*
X51875036Y-40765997D01*
X51909997Y-40731036D01*
X51910000Y-40731034D01*
X51910002Y-40731032D01*
X51951106Y-40703567D01*
X51996784Y-40684647D01*
X51996783Y-40684647D01*
X51996786Y-40684646D01*
X52045279Y-40675000D01*
X52094721Y-40675000D01*
X52143214Y-40684646D01*
X52143214Y-40684646D01*
G37*
G36*
X63125442Y-38221518D02*
G01*
X63191627Y-38228037D01*
X63361466Y-38279557D01*
X63517991Y-38363222D01*
X63553729Y-38392552D01*
X63655186Y-38475814D01*
X63738448Y-38577271D01*
X63767778Y-38613009D01*
X63851443Y-38769534D01*
X63902963Y-38939373D01*
X63920359Y-39116000D01*
X63902963Y-39292627D01*
X63851443Y-39462466D01*
X63767778Y-39618991D01*
X63738448Y-39654729D01*
X63655186Y-39756186D01*
X63553729Y-39839448D01*
X63517991Y-39868778D01*
X63361466Y-39952443D01*
X63191627Y-40003963D01*
X63135763Y-40009465D01*
X63059260Y-40017000D01*
X61270740Y-40017000D01*
X61194237Y-40009465D01*
X61138373Y-40003963D01*
X60968534Y-39952443D01*
X60812009Y-39868778D01*
X60776271Y-39839448D01*
X60674814Y-39756186D01*
X60591552Y-39654729D01*
X60562222Y-39618991D01*
X60478557Y-39462466D01*
X60427037Y-39292627D01*
X60409641Y-39116000D01*
X60427037Y-38939373D01*
X60478557Y-38769534D01*
X60562222Y-38613009D01*
X60591552Y-38577271D01*
X60674814Y-38475814D01*
X60776271Y-38392552D01*
X60812009Y-38363222D01*
X60968534Y-38279557D01*
X61138373Y-38228037D01*
X61204558Y-38221518D01*
X61270740Y-38215000D01*
X63059260Y-38215000D01*
X63125442Y-38221518D01*
X63125442Y-38221518D01*
G37*
G36*
X22030800Y-38096800D02*
G01*
X20329200Y-38096800D01*
X20329200Y-34595200D01*
X22030800Y-34595200D01*
X22030800Y-38096800D01*
X22030800Y-38096800D01*
G37*
G36*
X40630800Y-38096800D02*
G01*
X38929200Y-38096800D01*
X38929200Y-34595200D01*
X40630800Y-34595200D01*
X40630800Y-38096800D01*
X40630800Y-38096800D01*
G37*
G36*
X47430800Y-38096800D02*
G01*
X45729200Y-38096800D01*
X45729200Y-34595200D01*
X47430800Y-34595200D01*
X47430800Y-38096800D01*
X47430800Y-38096800D01*
G37*
G36*
X15230800Y-38096800D02*
G01*
X13529200Y-38096800D01*
X13529200Y-34595200D01*
X15230800Y-34595200D01*
X15230800Y-38096800D01*
X15230800Y-38096800D01*
G37*
G36*
X63125443Y-35681519D02*
G01*
X63191627Y-35688037D01*
X63361466Y-35739557D01*
X63517991Y-35823222D01*
X63553729Y-35852552D01*
X63655186Y-35935814D01*
X63738448Y-36037271D01*
X63767778Y-36073009D01*
X63851443Y-36229534D01*
X63902963Y-36399373D01*
X63920359Y-36576000D01*
X63902963Y-36752627D01*
X63851443Y-36922466D01*
X63767778Y-37078991D01*
X63738448Y-37114729D01*
X63655186Y-37216186D01*
X63553729Y-37299448D01*
X63517991Y-37328778D01*
X63361466Y-37412443D01*
X63191627Y-37463963D01*
X63125443Y-37470481D01*
X63059260Y-37477000D01*
X61270740Y-37477000D01*
X61204557Y-37470481D01*
X61138373Y-37463963D01*
X60968534Y-37412443D01*
X60812009Y-37328778D01*
X60776271Y-37299448D01*
X60674814Y-37216186D01*
X60591552Y-37114729D01*
X60562222Y-37078991D01*
X60478557Y-36922466D01*
X60427037Y-36752627D01*
X60409641Y-36576000D01*
X60427037Y-36399373D01*
X60478557Y-36229534D01*
X60562222Y-36073009D01*
X60591552Y-36037271D01*
X60674814Y-35935814D01*
X60776271Y-35852552D01*
X60812009Y-35823222D01*
X60968534Y-35739557D01*
X61138373Y-35688037D01*
X61204557Y-35681519D01*
X61270740Y-35675000D01*
X63059260Y-35675000D01*
X63125443Y-35681519D01*
X63125443Y-35681519D01*
G37*
G36*
X63125443Y-33141519D02*
G01*
X63191627Y-33148037D01*
X63361466Y-33199557D01*
X63517991Y-33283222D01*
X63553729Y-33312552D01*
X63655186Y-33395814D01*
X63738448Y-33497271D01*
X63767778Y-33533009D01*
X63851443Y-33689534D01*
X63902963Y-33859373D01*
X63920359Y-34036000D01*
X63902963Y-34212627D01*
X63851443Y-34382466D01*
X63767778Y-34538991D01*
X63738448Y-34574729D01*
X63655186Y-34676186D01*
X63553729Y-34759448D01*
X63517991Y-34788778D01*
X63361466Y-34872443D01*
X63191627Y-34923963D01*
X63125443Y-34930481D01*
X63059260Y-34937000D01*
X61270740Y-34937000D01*
X61204557Y-34930481D01*
X61138373Y-34923963D01*
X60968534Y-34872443D01*
X60812009Y-34788778D01*
X60776271Y-34759448D01*
X60674814Y-34676186D01*
X60591552Y-34574729D01*
X60562222Y-34538991D01*
X60478557Y-34382466D01*
X60427037Y-34212627D01*
X60409641Y-34036000D01*
X60427037Y-33859373D01*
X60478557Y-33689534D01*
X60562222Y-33533009D01*
X60591552Y-33497271D01*
X60674814Y-33395814D01*
X60776271Y-33312552D01*
X60812009Y-33283222D01*
X60968534Y-33199557D01*
X61138373Y-33148037D01*
X61204557Y-33141519D01*
X61270740Y-33135000D01*
X63059260Y-33135000D01*
X63125443Y-33141519D01*
X63125443Y-33141519D01*
G37*
G36*
X63125443Y-30601519D02*
G01*
X63191627Y-30608037D01*
X63361466Y-30659557D01*
X63517991Y-30743222D01*
X63553729Y-30772552D01*
X63655186Y-30855814D01*
X63711857Y-30924869D01*
X63767778Y-30993009D01*
X63851443Y-31149534D01*
X63902963Y-31319373D01*
X63920359Y-31496000D01*
X63902963Y-31672627D01*
X63851443Y-31842466D01*
X63767778Y-31998991D01*
X63738448Y-32034729D01*
X63655186Y-32136186D01*
X63553729Y-32219448D01*
X63517991Y-32248778D01*
X63361466Y-32332443D01*
X63191627Y-32383963D01*
X63125443Y-32390481D01*
X63059260Y-32397000D01*
X61270740Y-32397000D01*
X61204557Y-32390481D01*
X61138373Y-32383963D01*
X60968534Y-32332443D01*
X60812009Y-32248778D01*
X60776271Y-32219448D01*
X60674814Y-32136186D01*
X60591552Y-32034729D01*
X60562222Y-31998991D01*
X60478557Y-31842466D01*
X60427037Y-31672627D01*
X60409641Y-31496000D01*
X60427037Y-31319373D01*
X60478557Y-31149534D01*
X60562222Y-30993009D01*
X60618143Y-30924869D01*
X60674814Y-30855814D01*
X60776271Y-30772552D01*
X60812009Y-30743222D01*
X60968534Y-30659557D01*
X61138373Y-30608037D01*
X61204557Y-30601519D01*
X61270740Y-30595000D01*
X63059260Y-30595000D01*
X63125443Y-30601519D01*
X63125443Y-30601519D01*
G37*
G36*
X59770674Y-30883465D02*
G01*
X59808367Y-30894899D01*
X59843103Y-30913466D01*
X59873548Y-30938452D01*
X59898534Y-30968897D01*
X59917101Y-31003633D01*
X59928535Y-31041326D01*
X59933000Y-31086661D01*
X59933000Y-31923339D01*
X59928535Y-31968674D01*
X59917101Y-32006367D01*
X59898534Y-32041103D01*
X59873548Y-32071548D01*
X59843103Y-32096534D01*
X59808367Y-32115101D01*
X59770674Y-32126535D01*
X59725339Y-32131000D01*
X58638661Y-32131000D01*
X58593326Y-32126535D01*
X58555633Y-32115101D01*
X58520897Y-32096534D01*
X58490452Y-32071548D01*
X58465466Y-32041103D01*
X58446899Y-32006367D01*
X58435465Y-31968674D01*
X58431000Y-31923339D01*
X58431000Y-31086661D01*
X58435465Y-31041326D01*
X58446899Y-31003633D01*
X58465466Y-30968897D01*
X58490452Y-30938452D01*
X58520897Y-30913466D01*
X58555633Y-30894899D01*
X58593326Y-30883465D01*
X58638661Y-30879000D01*
X59725339Y-30879000D01*
X59770674Y-30883465D01*
X59770674Y-30883465D01*
G37*
G36*
X59770674Y-28833465D02*
G01*
X59808367Y-28844899D01*
X59843103Y-28863466D01*
X59873548Y-28888452D01*
X59898534Y-28918897D01*
X59917101Y-28953633D01*
X59928535Y-28991326D01*
X59933000Y-29036661D01*
X59933000Y-29873339D01*
X59928535Y-29918674D01*
X59917101Y-29956367D01*
X59898534Y-29991103D01*
X59873548Y-30021548D01*
X59843103Y-30046534D01*
X59808367Y-30065101D01*
X59770674Y-30076535D01*
X59725339Y-30081000D01*
X58638661Y-30081000D01*
X58593326Y-30076535D01*
X58555633Y-30065101D01*
X58520897Y-30046534D01*
X58490452Y-30021548D01*
X58465466Y-29991103D01*
X58446899Y-29956367D01*
X58435465Y-29918674D01*
X58431000Y-29873339D01*
X58431000Y-29036661D01*
X58435465Y-28991326D01*
X58446899Y-28953633D01*
X58465466Y-28918897D01*
X58490452Y-28888452D01*
X58520897Y-28863466D01*
X58555633Y-28844899D01*
X58593326Y-28833465D01*
X58638661Y-28829000D01*
X59725339Y-28829000D01*
X59770674Y-28833465D01*
X59770674Y-28833465D01*
G37*
G36*
X16093674Y-15129465D02*
G01*
X16131367Y-15140899D01*
X16166103Y-15159466D01*
X16196548Y-15184452D01*
X16221534Y-15214897D01*
X16240101Y-15249633D01*
X16251535Y-15287326D01*
X16256000Y-15332661D01*
X16256000Y-16419339D01*
X16251535Y-16464674D01*
X16240101Y-16502367D01*
X16221534Y-16537103D01*
X16196548Y-16567548D01*
X16166103Y-16592534D01*
X16131367Y-16611101D01*
X16093674Y-16622535D01*
X16048339Y-16627000D01*
X15211661Y-16627000D01*
X15166326Y-16622535D01*
X15128633Y-16611101D01*
X15093897Y-16592534D01*
X15063452Y-16567548D01*
X15038466Y-16537103D01*
X15019899Y-16502367D01*
X15008465Y-16464674D01*
X15004000Y-16419339D01*
X15004000Y-15332661D01*
X15008465Y-15287326D01*
X15019899Y-15249633D01*
X15038466Y-15214897D01*
X15063452Y-15184452D01*
X15093897Y-15159466D01*
X15128633Y-15140899D01*
X15166326Y-15129465D01*
X15211661Y-15125000D01*
X16048339Y-15125000D01*
X16093674Y-15129465D01*
X16093674Y-15129465D01*
G37*
G36*
X59763674Y-15129465D02*
G01*
X59801367Y-15140899D01*
X59836103Y-15159466D01*
X59866548Y-15184452D01*
X59891534Y-15214897D01*
X59910101Y-15249633D01*
X59921535Y-15287326D01*
X59926000Y-15332661D01*
X59926000Y-16419339D01*
X59921535Y-16464674D01*
X59910101Y-16502367D01*
X59891534Y-16537103D01*
X59866548Y-16567548D01*
X59836103Y-16592534D01*
X59801367Y-16611101D01*
X59763674Y-16622535D01*
X59718339Y-16627000D01*
X58881661Y-16627000D01*
X58836326Y-16622535D01*
X58798633Y-16611101D01*
X58763897Y-16592534D01*
X58733452Y-16567548D01*
X58708466Y-16537103D01*
X58689899Y-16502367D01*
X58678465Y-16464674D01*
X58674000Y-16419339D01*
X58674000Y-15332661D01*
X58678465Y-15287326D01*
X58689899Y-15249633D01*
X58708466Y-15214897D01*
X58733452Y-15184452D01*
X58763897Y-15159466D01*
X58798633Y-15140899D01*
X58836326Y-15129465D01*
X58881661Y-15125000D01*
X59718339Y-15125000D01*
X59763674Y-15129465D01*
X59763674Y-15129465D01*
G37*
G36*
X61813674Y-15129465D02*
G01*
X61851367Y-15140899D01*
X61886103Y-15159466D01*
X61916548Y-15184452D01*
X61941534Y-15214897D01*
X61960101Y-15249633D01*
X61971535Y-15287326D01*
X61976000Y-15332661D01*
X61976000Y-16419339D01*
X61971535Y-16464674D01*
X61960101Y-16502367D01*
X61941534Y-16537103D01*
X61916548Y-16567548D01*
X61886103Y-16592534D01*
X61851367Y-16611101D01*
X61813674Y-16622535D01*
X61768339Y-16627000D01*
X60931661Y-16627000D01*
X60886326Y-16622535D01*
X60848633Y-16611101D01*
X60813897Y-16592534D01*
X60783452Y-16567548D01*
X60758466Y-16537103D01*
X60739899Y-16502367D01*
X60728465Y-16464674D01*
X60724000Y-16419339D01*
X60724000Y-15332661D01*
X60728465Y-15287326D01*
X60739899Y-15249633D01*
X60758466Y-15214897D01*
X60783452Y-15184452D01*
X60813897Y-15159466D01*
X60848633Y-15140899D01*
X60886326Y-15129465D01*
X60931661Y-15125000D01*
X61768339Y-15125000D01*
X61813674Y-15129465D01*
X61813674Y-15129465D01*
G37*
G36*
X38953674Y-15129465D02*
G01*
X38991367Y-15140899D01*
X39026103Y-15159466D01*
X39056548Y-15184452D01*
X39081534Y-15214897D01*
X39100101Y-15249633D01*
X39111535Y-15287326D01*
X39116000Y-15332661D01*
X39116000Y-16419339D01*
X39111535Y-16464674D01*
X39100101Y-16502367D01*
X39081534Y-16537103D01*
X39056548Y-16567548D01*
X39026103Y-16592534D01*
X38991367Y-16611101D01*
X38953674Y-16622535D01*
X38908339Y-16627000D01*
X38071661Y-16627000D01*
X38026326Y-16622535D01*
X37988633Y-16611101D01*
X37953897Y-16592534D01*
X37923452Y-16567548D01*
X37898466Y-16537103D01*
X37879899Y-16502367D01*
X37868465Y-16464674D01*
X37864000Y-16419339D01*
X37864000Y-15332661D01*
X37868465Y-15287326D01*
X37879899Y-15249633D01*
X37898466Y-15214897D01*
X37923452Y-15184452D01*
X37953897Y-15159466D01*
X37988633Y-15140899D01*
X38026326Y-15129465D01*
X38071661Y-15125000D01*
X38908339Y-15125000D01*
X38953674Y-15129465D01*
X38953674Y-15129465D01*
G37*
G36*
X14043674Y-15129465D02*
G01*
X14081367Y-15140899D01*
X14116103Y-15159466D01*
X14146548Y-15184452D01*
X14171534Y-15214897D01*
X14190101Y-15249633D01*
X14201535Y-15287326D01*
X14206000Y-15332661D01*
X14206000Y-16419339D01*
X14201535Y-16464674D01*
X14190101Y-16502367D01*
X14171534Y-16537103D01*
X14146548Y-16567548D01*
X14116103Y-16592534D01*
X14081367Y-16611101D01*
X14043674Y-16622535D01*
X13998339Y-16627000D01*
X13161661Y-16627000D01*
X13116326Y-16622535D01*
X13078633Y-16611101D01*
X13043897Y-16592534D01*
X13013452Y-16567548D01*
X12988466Y-16537103D01*
X12969899Y-16502367D01*
X12958465Y-16464674D01*
X12954000Y-16419339D01*
X12954000Y-15332661D01*
X12958465Y-15287326D01*
X12969899Y-15249633D01*
X12988466Y-15214897D01*
X13013452Y-15184452D01*
X13043897Y-15159466D01*
X13078633Y-15140899D01*
X13116326Y-15129465D01*
X13161661Y-15125000D01*
X13998339Y-15125000D01*
X14043674Y-15129465D01*
X14043674Y-15129465D01*
G37*
G36*
X36903674Y-15129465D02*
G01*
X36941367Y-15140899D01*
X36976103Y-15159466D01*
X37006548Y-15184452D01*
X37031534Y-15214897D01*
X37050101Y-15249633D01*
X37061535Y-15287326D01*
X37066000Y-15332661D01*
X37066000Y-16419339D01*
X37061535Y-16464674D01*
X37050101Y-16502367D01*
X37031534Y-16537103D01*
X37006548Y-16567548D01*
X36976103Y-16592534D01*
X36941367Y-16611101D01*
X36903674Y-16622535D01*
X36858339Y-16627000D01*
X36021661Y-16627000D01*
X35976326Y-16622535D01*
X35938633Y-16611101D01*
X35903897Y-16592534D01*
X35873452Y-16567548D01*
X35848466Y-16537103D01*
X35829899Y-16502367D01*
X35818465Y-16464674D01*
X35814000Y-16419339D01*
X35814000Y-15332661D01*
X35818465Y-15287326D01*
X35829899Y-15249633D01*
X35848466Y-15214897D01*
X35873452Y-15184452D01*
X35903897Y-15159466D01*
X35938633Y-15140899D01*
X35976326Y-15129465D01*
X36021661Y-15125000D01*
X36858339Y-15125000D01*
X36903674Y-15129465D01*
X36903674Y-15129465D01*
G37*
G36*
X56691627Y-11793037D02*
G01*
X56861466Y-11844557D01*
X57017991Y-11928222D01*
X57053729Y-11957552D01*
X57155186Y-12040814D01*
X57238448Y-12142271D01*
X57267778Y-12178009D01*
X57351443Y-12334534D01*
X57402963Y-12504373D01*
X57416000Y-12636742D01*
X57416000Y-13565258D01*
X57402963Y-13697627D01*
X57351443Y-13867466D01*
X57267778Y-14023991D01*
X57238448Y-14059729D01*
X57155186Y-14161186D01*
X57017989Y-14273779D01*
X56861467Y-14357442D01*
X56861465Y-14357443D01*
X56691626Y-14408963D01*
X56515000Y-14426359D01*
X56338373Y-14408963D01*
X56168534Y-14357443D01*
X56012009Y-14273778D01*
X55976271Y-14244448D01*
X55874814Y-14161186D01*
X55762221Y-14023989D01*
X55678558Y-13867467D01*
X55678557Y-13867465D01*
X55627037Y-13697626D01*
X55614000Y-13565257D01*
X55614000Y-12636742D01*
X55627038Y-12504373D01*
X55678558Y-12334534D01*
X55762223Y-12178009D01*
X55791553Y-12142271D01*
X55874815Y-12040814D01*
X55976272Y-11957552D01*
X56012010Y-11928222D01*
X56168535Y-11844557D01*
X56338374Y-11793037D01*
X56515000Y-11775641D01*
X56691627Y-11793037D01*
X56691627Y-11793037D01*
G37*
G36*
X59231627Y-11793037D02*
G01*
X59401466Y-11844557D01*
X59557991Y-11928222D01*
X59593729Y-11957552D01*
X59695186Y-12040814D01*
X59778448Y-12142271D01*
X59807778Y-12178009D01*
X59891443Y-12334534D01*
X59942963Y-12504373D01*
X59956000Y-12636742D01*
X59956000Y-13565258D01*
X59942963Y-13697627D01*
X59891443Y-13867466D01*
X59807778Y-14023991D01*
X59778448Y-14059729D01*
X59695186Y-14161186D01*
X59557989Y-14273779D01*
X59401467Y-14357442D01*
X59401465Y-14357443D01*
X59231626Y-14408963D01*
X59055000Y-14426359D01*
X58878373Y-14408963D01*
X58708534Y-14357443D01*
X58552009Y-14273778D01*
X58516271Y-14244448D01*
X58414814Y-14161186D01*
X58302221Y-14023989D01*
X58218558Y-13867467D01*
X58218557Y-13867465D01*
X58167037Y-13697626D01*
X58154000Y-13565257D01*
X58154000Y-12636742D01*
X58167038Y-12504373D01*
X58218558Y-12334534D01*
X58302223Y-12178009D01*
X58331553Y-12142271D01*
X58414815Y-12040814D01*
X58516272Y-11957552D01*
X58552010Y-11928222D01*
X58708535Y-11844557D01*
X58878374Y-11793037D01*
X59055000Y-11775641D01*
X59231627Y-11793037D01*
X59231627Y-11793037D01*
G37*
G36*
X3351627Y-11793037D02*
G01*
X3521466Y-11844557D01*
X3677991Y-11928222D01*
X3713729Y-11957552D01*
X3815186Y-12040814D01*
X3898448Y-12142271D01*
X3927778Y-12178009D01*
X4011443Y-12334534D01*
X4062963Y-12504373D01*
X4076000Y-12636742D01*
X4076000Y-13565258D01*
X4062963Y-13697627D01*
X4011443Y-13867466D01*
X3927778Y-14023991D01*
X3898448Y-14059729D01*
X3815186Y-14161186D01*
X3677989Y-14273779D01*
X3521467Y-14357442D01*
X3521465Y-14357443D01*
X3351626Y-14408963D01*
X3175000Y-14426359D01*
X2998373Y-14408963D01*
X2828534Y-14357443D01*
X2672009Y-14273778D01*
X2636271Y-14244448D01*
X2534814Y-14161186D01*
X2422221Y-14023989D01*
X2338558Y-13867467D01*
X2338557Y-13867465D01*
X2287037Y-13697626D01*
X2274000Y-13565257D01*
X2274000Y-12636742D01*
X2287038Y-12504373D01*
X2338558Y-12334534D01*
X2422223Y-12178009D01*
X2451553Y-12142271D01*
X2534815Y-12040814D01*
X2636272Y-11957552D01*
X2672010Y-11928222D01*
X2828535Y-11844557D01*
X2998374Y-11793037D01*
X3175000Y-11775641D01*
X3351627Y-11793037D01*
X3351627Y-11793037D01*
G37*
G36*
X5891627Y-11793037D02*
G01*
X6061466Y-11844557D01*
X6217991Y-11928222D01*
X6253729Y-11957552D01*
X6355186Y-12040814D01*
X6438448Y-12142271D01*
X6467778Y-12178009D01*
X6551443Y-12334534D01*
X6602963Y-12504373D01*
X6616000Y-12636742D01*
X6616000Y-13565258D01*
X6602963Y-13697627D01*
X6551443Y-13867466D01*
X6467778Y-14023991D01*
X6438448Y-14059729D01*
X6355186Y-14161186D01*
X6217989Y-14273779D01*
X6061467Y-14357442D01*
X6061465Y-14357443D01*
X5891626Y-14408963D01*
X5715000Y-14426359D01*
X5538373Y-14408963D01*
X5368534Y-14357443D01*
X5212009Y-14273778D01*
X5176271Y-14244448D01*
X5074814Y-14161186D01*
X4962221Y-14023989D01*
X4878558Y-13867467D01*
X4878557Y-13867465D01*
X4827037Y-13697626D01*
X4814000Y-13565257D01*
X4814000Y-12636742D01*
X4827038Y-12504373D01*
X4878558Y-12334534D01*
X4962223Y-12178009D01*
X4991553Y-12142271D01*
X5074815Y-12040814D01*
X5176272Y-11957552D01*
X5212010Y-11928222D01*
X5368535Y-11844557D01*
X5538374Y-11793037D01*
X5715000Y-11775641D01*
X5891627Y-11793037D01*
X5891627Y-11793037D01*
G37*
G36*
X8431627Y-11793037D02*
G01*
X8601466Y-11844557D01*
X8757991Y-11928222D01*
X8793729Y-11957552D01*
X8895186Y-12040814D01*
X8978448Y-12142271D01*
X9007778Y-12178009D01*
X9091443Y-12334534D01*
X9142963Y-12504373D01*
X9156000Y-12636742D01*
X9156000Y-13565258D01*
X9142963Y-13697627D01*
X9091443Y-13867466D01*
X9007778Y-14023991D01*
X8978448Y-14059729D01*
X8895186Y-14161186D01*
X8757989Y-14273779D01*
X8601467Y-14357442D01*
X8601465Y-14357443D01*
X8431626Y-14408963D01*
X8255000Y-14426359D01*
X8078373Y-14408963D01*
X7908534Y-14357443D01*
X7752009Y-14273778D01*
X7716271Y-14244448D01*
X7614814Y-14161186D01*
X7502221Y-14023989D01*
X7418558Y-13867467D01*
X7418557Y-13867465D01*
X7367037Y-13697626D01*
X7354000Y-13565257D01*
X7354000Y-12636742D01*
X7367038Y-12504373D01*
X7418558Y-12334534D01*
X7502223Y-12178009D01*
X7531553Y-12142271D01*
X7614815Y-12040814D01*
X7716272Y-11957552D01*
X7752010Y-11928222D01*
X7908535Y-11844557D01*
X8078374Y-11793037D01*
X8255000Y-11775641D01*
X8431627Y-11793037D01*
X8431627Y-11793037D01*
G37*
G36*
X10971627Y-11793037D02*
G01*
X11141466Y-11844557D01*
X11297991Y-11928222D01*
X11333729Y-11957552D01*
X11435186Y-12040814D01*
X11518448Y-12142271D01*
X11547778Y-12178009D01*
X11631443Y-12334534D01*
X11682963Y-12504373D01*
X11696000Y-12636742D01*
X11696000Y-13565258D01*
X11682963Y-13697627D01*
X11631443Y-13867466D01*
X11547778Y-14023991D01*
X11518448Y-14059729D01*
X11435186Y-14161186D01*
X11297989Y-14273779D01*
X11141467Y-14357442D01*
X11141465Y-14357443D01*
X10971626Y-14408963D01*
X10795000Y-14426359D01*
X10618373Y-14408963D01*
X10448534Y-14357443D01*
X10292009Y-14273778D01*
X10256271Y-14244448D01*
X10154814Y-14161186D01*
X10042221Y-14023989D01*
X9958558Y-13867467D01*
X9958557Y-13867465D01*
X9907037Y-13697626D01*
X9894000Y-13565257D01*
X9894000Y-12636742D01*
X9907038Y-12504373D01*
X9958558Y-12334534D01*
X10042223Y-12178009D01*
X10071553Y-12142271D01*
X10154815Y-12040814D01*
X10256272Y-11957552D01*
X10292010Y-11928222D01*
X10448535Y-11844557D01*
X10618374Y-11793037D01*
X10795000Y-11775641D01*
X10971627Y-11793037D01*
X10971627Y-11793037D01*
G37*
G36*
X13511627Y-11793037D02*
G01*
X13681466Y-11844557D01*
X13837991Y-11928222D01*
X13873729Y-11957552D01*
X13975186Y-12040814D01*
X14058448Y-12142271D01*
X14087778Y-12178009D01*
X14171443Y-12334534D01*
X14222963Y-12504373D01*
X14236000Y-12636742D01*
X14236000Y-13565258D01*
X14222963Y-13697627D01*
X14171443Y-13867466D01*
X14087778Y-14023991D01*
X14058448Y-14059729D01*
X13975186Y-14161186D01*
X13837989Y-14273779D01*
X13681467Y-14357442D01*
X13681465Y-14357443D01*
X13511626Y-14408963D01*
X13335000Y-14426359D01*
X13158373Y-14408963D01*
X12988534Y-14357443D01*
X12832009Y-14273778D01*
X12796271Y-14244448D01*
X12694814Y-14161186D01*
X12582221Y-14023989D01*
X12498558Y-13867467D01*
X12498557Y-13867465D01*
X12447037Y-13697626D01*
X12434000Y-13565257D01*
X12434000Y-12636742D01*
X12447038Y-12504373D01*
X12498558Y-12334534D01*
X12582223Y-12178009D01*
X12611553Y-12142271D01*
X12694815Y-12040814D01*
X12796272Y-11957552D01*
X12832010Y-11928222D01*
X12988535Y-11844557D01*
X13158374Y-11793037D01*
X13335000Y-11775641D01*
X13511627Y-11793037D01*
X13511627Y-11793037D01*
G37*
G36*
X16051627Y-11793037D02*
G01*
X16221466Y-11844557D01*
X16377991Y-11928222D01*
X16413729Y-11957552D01*
X16515186Y-12040814D01*
X16598448Y-12142271D01*
X16627778Y-12178009D01*
X16711443Y-12334534D01*
X16762963Y-12504373D01*
X16776000Y-12636742D01*
X16776000Y-13565258D01*
X16762963Y-13697627D01*
X16711443Y-13867466D01*
X16627778Y-14023991D01*
X16598448Y-14059729D01*
X16515186Y-14161186D01*
X16377989Y-14273779D01*
X16221467Y-14357442D01*
X16221465Y-14357443D01*
X16051626Y-14408963D01*
X15875000Y-14426359D01*
X15698373Y-14408963D01*
X15528534Y-14357443D01*
X15372009Y-14273778D01*
X15336271Y-14244448D01*
X15234814Y-14161186D01*
X15122221Y-14023989D01*
X15038558Y-13867467D01*
X15038557Y-13867465D01*
X14987037Y-13697626D01*
X14974000Y-13565257D01*
X14974000Y-12636742D01*
X14987038Y-12504373D01*
X15038558Y-12334534D01*
X15122223Y-12178009D01*
X15151553Y-12142271D01*
X15234815Y-12040814D01*
X15336272Y-11957552D01*
X15372010Y-11928222D01*
X15528535Y-11844557D01*
X15698374Y-11793037D01*
X15875000Y-11775641D01*
X16051627Y-11793037D01*
X16051627Y-11793037D01*
G37*
G36*
X26211627Y-11793037D02*
G01*
X26381466Y-11844557D01*
X26537991Y-11928222D01*
X26573729Y-11957552D01*
X26675186Y-12040814D01*
X26758448Y-12142271D01*
X26787778Y-12178009D01*
X26871443Y-12334534D01*
X26922963Y-12504373D01*
X26936000Y-12636742D01*
X26936000Y-13565258D01*
X26922963Y-13697627D01*
X26871443Y-13867466D01*
X26787778Y-14023991D01*
X26758448Y-14059729D01*
X26675186Y-14161186D01*
X26537989Y-14273779D01*
X26381467Y-14357442D01*
X26381465Y-14357443D01*
X26211626Y-14408963D01*
X26035000Y-14426359D01*
X25858373Y-14408963D01*
X25688534Y-14357443D01*
X25532009Y-14273778D01*
X25496271Y-14244448D01*
X25394814Y-14161186D01*
X25282221Y-14023989D01*
X25198558Y-13867467D01*
X25198557Y-13867465D01*
X25147037Y-13697626D01*
X25134000Y-13565257D01*
X25134000Y-12636742D01*
X25147038Y-12504373D01*
X25198558Y-12334534D01*
X25282223Y-12178009D01*
X25311553Y-12142271D01*
X25394815Y-12040814D01*
X25496272Y-11957552D01*
X25532010Y-11928222D01*
X25688535Y-11844557D01*
X25858374Y-11793037D01*
X26035000Y-11775641D01*
X26211627Y-11793037D01*
X26211627Y-11793037D01*
G37*
G36*
X31291627Y-11793037D02*
G01*
X31461466Y-11844557D01*
X31617991Y-11928222D01*
X31653729Y-11957552D01*
X31755186Y-12040814D01*
X31838448Y-12142271D01*
X31867778Y-12178009D01*
X31951443Y-12334534D01*
X32002963Y-12504373D01*
X32016000Y-12636742D01*
X32016000Y-13565258D01*
X32002963Y-13697627D01*
X31951443Y-13867466D01*
X31867778Y-14023991D01*
X31838448Y-14059729D01*
X31755186Y-14161186D01*
X31617989Y-14273779D01*
X31461467Y-14357442D01*
X31461465Y-14357443D01*
X31291626Y-14408963D01*
X31115000Y-14426359D01*
X30938373Y-14408963D01*
X30768534Y-14357443D01*
X30612009Y-14273778D01*
X30576271Y-14244448D01*
X30474814Y-14161186D01*
X30362221Y-14023989D01*
X30278558Y-13867467D01*
X30278557Y-13867465D01*
X30227037Y-13697626D01*
X30214000Y-13565257D01*
X30214000Y-12636742D01*
X30227038Y-12504373D01*
X30278558Y-12334534D01*
X30362223Y-12178009D01*
X30391553Y-12142271D01*
X30474815Y-12040814D01*
X30576272Y-11957552D01*
X30612010Y-11928222D01*
X30768535Y-11844557D01*
X30938374Y-11793037D01*
X31115000Y-11775641D01*
X31291627Y-11793037D01*
X31291627Y-11793037D01*
G37*
G36*
X28751627Y-11793037D02*
G01*
X28921466Y-11844557D01*
X29077991Y-11928222D01*
X29113729Y-11957552D01*
X29215186Y-12040814D01*
X29298448Y-12142271D01*
X29327778Y-12178009D01*
X29411443Y-12334534D01*
X29462963Y-12504373D01*
X29476000Y-12636742D01*
X29476000Y-13565258D01*
X29462963Y-13697627D01*
X29411443Y-13867466D01*
X29327778Y-14023991D01*
X29298448Y-14059729D01*
X29215186Y-14161186D01*
X29077989Y-14273779D01*
X28921467Y-14357442D01*
X28921465Y-14357443D01*
X28751626Y-14408963D01*
X28575000Y-14426359D01*
X28398373Y-14408963D01*
X28228534Y-14357443D01*
X28072009Y-14273778D01*
X28036271Y-14244448D01*
X27934814Y-14161186D01*
X27822221Y-14023989D01*
X27738558Y-13867467D01*
X27738557Y-13867465D01*
X27687037Y-13697626D01*
X27674000Y-13565257D01*
X27674000Y-12636742D01*
X27687038Y-12504373D01*
X27738558Y-12334534D01*
X27822223Y-12178009D01*
X27851553Y-12142271D01*
X27934815Y-12040814D01*
X28036272Y-11957552D01*
X28072010Y-11928222D01*
X28228535Y-11844557D01*
X28398374Y-11793037D01*
X28575000Y-11775641D01*
X28751627Y-11793037D01*
X28751627Y-11793037D01*
G37*
G36*
X36371627Y-11793037D02*
G01*
X36541466Y-11844557D01*
X36697991Y-11928222D01*
X36733729Y-11957552D01*
X36835186Y-12040814D01*
X36918448Y-12142271D01*
X36947778Y-12178009D01*
X37031443Y-12334534D01*
X37082963Y-12504373D01*
X37096000Y-12636742D01*
X37096000Y-13565258D01*
X37082963Y-13697627D01*
X37031443Y-13867466D01*
X36947778Y-14023991D01*
X36918448Y-14059729D01*
X36835186Y-14161186D01*
X36697989Y-14273779D01*
X36541467Y-14357442D01*
X36541465Y-14357443D01*
X36371626Y-14408963D01*
X36195000Y-14426359D01*
X36018373Y-14408963D01*
X35848534Y-14357443D01*
X35692009Y-14273778D01*
X35656271Y-14244448D01*
X35554814Y-14161186D01*
X35442221Y-14023989D01*
X35358558Y-13867467D01*
X35358557Y-13867465D01*
X35307037Y-13697626D01*
X35294000Y-13565257D01*
X35294000Y-12636742D01*
X35307038Y-12504373D01*
X35358558Y-12334534D01*
X35442223Y-12178009D01*
X35471553Y-12142271D01*
X35554815Y-12040814D01*
X35656272Y-11957552D01*
X35692010Y-11928222D01*
X35848535Y-11844557D01*
X36018374Y-11793037D01*
X36195000Y-11775641D01*
X36371627Y-11793037D01*
X36371627Y-11793037D01*
G37*
G36*
X51611627Y-11793037D02*
G01*
X51781466Y-11844557D01*
X51937991Y-11928222D01*
X51973729Y-11957552D01*
X52075186Y-12040814D01*
X52158448Y-12142271D01*
X52187778Y-12178009D01*
X52271443Y-12334534D01*
X52322963Y-12504373D01*
X52336000Y-12636742D01*
X52336000Y-13565258D01*
X52322963Y-13697627D01*
X52271443Y-13867466D01*
X52187778Y-14023991D01*
X52158448Y-14059729D01*
X52075186Y-14161186D01*
X51937989Y-14273779D01*
X51781467Y-14357442D01*
X51781465Y-14357443D01*
X51611626Y-14408963D01*
X51435000Y-14426359D01*
X51258373Y-14408963D01*
X51088534Y-14357443D01*
X50932009Y-14273778D01*
X50896271Y-14244448D01*
X50794814Y-14161186D01*
X50682221Y-14023989D01*
X50598558Y-13867467D01*
X50598557Y-13867465D01*
X50547037Y-13697626D01*
X50534000Y-13565257D01*
X50534000Y-12636742D01*
X50547038Y-12504373D01*
X50598558Y-12334534D01*
X50682223Y-12178009D01*
X50711553Y-12142271D01*
X50794815Y-12040814D01*
X50896272Y-11957552D01*
X50932010Y-11928222D01*
X51088535Y-11844557D01*
X51258374Y-11793037D01*
X51435000Y-11775641D01*
X51611627Y-11793037D01*
X51611627Y-11793037D01*
G37*
G36*
X49071627Y-11793037D02*
G01*
X49241466Y-11844557D01*
X49397991Y-11928222D01*
X49433729Y-11957552D01*
X49535186Y-12040814D01*
X49618448Y-12142271D01*
X49647778Y-12178009D01*
X49731443Y-12334534D01*
X49782963Y-12504373D01*
X49796000Y-12636742D01*
X49796000Y-13565258D01*
X49782963Y-13697627D01*
X49731443Y-13867466D01*
X49647778Y-14023991D01*
X49618448Y-14059729D01*
X49535186Y-14161186D01*
X49397989Y-14273779D01*
X49241467Y-14357442D01*
X49241465Y-14357443D01*
X49071626Y-14408963D01*
X48895000Y-14426359D01*
X48718373Y-14408963D01*
X48548534Y-14357443D01*
X48392009Y-14273778D01*
X48356271Y-14244448D01*
X48254814Y-14161186D01*
X48142221Y-14023989D01*
X48058558Y-13867467D01*
X48058557Y-13867465D01*
X48007037Y-13697626D01*
X47994000Y-13565257D01*
X47994000Y-12636742D01*
X48007038Y-12504373D01*
X48058558Y-12334534D01*
X48142223Y-12178009D01*
X48171553Y-12142271D01*
X48254815Y-12040814D01*
X48356272Y-11957552D01*
X48392010Y-11928222D01*
X48548535Y-11844557D01*
X48718374Y-11793037D01*
X48895000Y-11775641D01*
X49071627Y-11793037D01*
X49071627Y-11793037D01*
G37*
G36*
X33831627Y-11793037D02*
G01*
X34001466Y-11844557D01*
X34157991Y-11928222D01*
X34193729Y-11957552D01*
X34295186Y-12040814D01*
X34378448Y-12142271D01*
X34407778Y-12178009D01*
X34491443Y-12334534D01*
X34542963Y-12504373D01*
X34556000Y-12636742D01*
X34556000Y-13565258D01*
X34542963Y-13697627D01*
X34491443Y-13867466D01*
X34407778Y-14023991D01*
X34378448Y-14059729D01*
X34295186Y-14161186D01*
X34157989Y-14273779D01*
X34001467Y-14357442D01*
X34001465Y-14357443D01*
X33831626Y-14408963D01*
X33655000Y-14426359D01*
X33478373Y-14408963D01*
X33308534Y-14357443D01*
X33152009Y-14273778D01*
X33116271Y-14244448D01*
X33014814Y-14161186D01*
X32902221Y-14023989D01*
X32818558Y-13867467D01*
X32818557Y-13867465D01*
X32767037Y-13697626D01*
X32754000Y-13565257D01*
X32754000Y-12636742D01*
X32767038Y-12504373D01*
X32818558Y-12334534D01*
X32902223Y-12178009D01*
X32931553Y-12142271D01*
X33014815Y-12040814D01*
X33116272Y-11957552D01*
X33152010Y-11928222D01*
X33308535Y-11844557D01*
X33478374Y-11793037D01*
X33655000Y-11775641D01*
X33831627Y-11793037D01*
X33831627Y-11793037D01*
G37*
G36*
X61771627Y-11793037D02*
G01*
X61941466Y-11844557D01*
X62097991Y-11928222D01*
X62133729Y-11957552D01*
X62235186Y-12040814D01*
X62318448Y-12142271D01*
X62347778Y-12178009D01*
X62431443Y-12334534D01*
X62482963Y-12504373D01*
X62496000Y-12636742D01*
X62496000Y-13565258D01*
X62482963Y-13697627D01*
X62431443Y-13867466D01*
X62347778Y-14023991D01*
X62318448Y-14059729D01*
X62235186Y-14161186D01*
X62097989Y-14273779D01*
X61941467Y-14357442D01*
X61941465Y-14357443D01*
X61771626Y-14408963D01*
X61595000Y-14426359D01*
X61418373Y-14408963D01*
X61248534Y-14357443D01*
X61092009Y-14273778D01*
X61056271Y-14244448D01*
X60954814Y-14161186D01*
X60842221Y-14023989D01*
X60758558Y-13867467D01*
X60758557Y-13867465D01*
X60707037Y-13697626D01*
X60694000Y-13565257D01*
X60694000Y-12636742D01*
X60707038Y-12504373D01*
X60758558Y-12334534D01*
X60842223Y-12178009D01*
X60871553Y-12142271D01*
X60954815Y-12040814D01*
X61056272Y-11957552D01*
X61092010Y-11928222D01*
X61248535Y-11844557D01*
X61418374Y-11793037D01*
X61595000Y-11775641D01*
X61771627Y-11793037D01*
X61771627Y-11793037D01*
G37*
G36*
X38911627Y-11793037D02*
G01*
X39081466Y-11844557D01*
X39237991Y-11928222D01*
X39273729Y-11957552D01*
X39375186Y-12040814D01*
X39458448Y-12142271D01*
X39487778Y-12178009D01*
X39571443Y-12334534D01*
X39622963Y-12504373D01*
X39636000Y-12636742D01*
X39636000Y-13565258D01*
X39622963Y-13697627D01*
X39571443Y-13867466D01*
X39487778Y-14023991D01*
X39458448Y-14059729D01*
X39375186Y-14161186D01*
X39237989Y-14273779D01*
X39081467Y-14357442D01*
X39081465Y-14357443D01*
X38911626Y-14408963D01*
X38735000Y-14426359D01*
X38558373Y-14408963D01*
X38388534Y-14357443D01*
X38232009Y-14273778D01*
X38196271Y-14244448D01*
X38094814Y-14161186D01*
X37982221Y-14023989D01*
X37898558Y-13867467D01*
X37898557Y-13867465D01*
X37847037Y-13697626D01*
X37834000Y-13565257D01*
X37834000Y-12636742D01*
X37847038Y-12504373D01*
X37898558Y-12334534D01*
X37982223Y-12178009D01*
X38011553Y-12142271D01*
X38094815Y-12040814D01*
X38196272Y-11957552D01*
X38232010Y-11928222D01*
X38388535Y-11844557D01*
X38558374Y-11793037D01*
X38735000Y-11775641D01*
X38911627Y-11793037D01*
X38911627Y-11793037D01*
G37*
G36*
X54151627Y-11793037D02*
G01*
X54321466Y-11844557D01*
X54477991Y-11928222D01*
X54513729Y-11957552D01*
X54615186Y-12040814D01*
X54698448Y-12142271D01*
X54727778Y-12178009D01*
X54811443Y-12334534D01*
X54862963Y-12504373D01*
X54876000Y-12636742D01*
X54876000Y-13565258D01*
X54862963Y-13697627D01*
X54811443Y-13867466D01*
X54727778Y-14023991D01*
X54698448Y-14059729D01*
X54615186Y-14161186D01*
X54477989Y-14273779D01*
X54321467Y-14357442D01*
X54321465Y-14357443D01*
X54151626Y-14408963D01*
X53975000Y-14426359D01*
X53798373Y-14408963D01*
X53628534Y-14357443D01*
X53472009Y-14273778D01*
X53436271Y-14244448D01*
X53334814Y-14161186D01*
X53222221Y-14023989D01*
X53138558Y-13867467D01*
X53138557Y-13867465D01*
X53087037Y-13697626D01*
X53074000Y-13565257D01*
X53074000Y-12636742D01*
X53087038Y-12504373D01*
X53138558Y-12334534D01*
X53222223Y-12178009D01*
X53251553Y-12142271D01*
X53334815Y-12040814D01*
X53436272Y-11957552D01*
X53472010Y-11928222D01*
X53628535Y-11844557D01*
X53798374Y-11793037D01*
X53975000Y-11775641D01*
X54151627Y-11793037D01*
X54151627Y-11793037D01*
G37*
G36*
X59231627Y-8453037D02*
G01*
X59401466Y-8504557D01*
X59557991Y-8588222D01*
X59593729Y-8617552D01*
X59695186Y-8700814D01*
X59778448Y-8802271D01*
X59807778Y-8838009D01*
X59891443Y-8994534D01*
X59942963Y-9164373D01*
X59956000Y-9296742D01*
X59956000Y-10225258D01*
X59942963Y-10357627D01*
X59891443Y-10527466D01*
X59807778Y-10683991D01*
X59778448Y-10719729D01*
X59695186Y-10821186D01*
X59557989Y-10933779D01*
X59401467Y-11017442D01*
X59401465Y-11017443D01*
X59231626Y-11068963D01*
X59055000Y-11086359D01*
X58878373Y-11068963D01*
X58708534Y-11017443D01*
X58552009Y-10933778D01*
X58516271Y-10904448D01*
X58414814Y-10821186D01*
X58302221Y-10683989D01*
X58218558Y-10527467D01*
X58218557Y-10527465D01*
X58167037Y-10357626D01*
X58154000Y-10225257D01*
X58154000Y-9296742D01*
X58167038Y-9164373D01*
X58218558Y-8994534D01*
X58302223Y-8838009D01*
X58331553Y-8802271D01*
X58414815Y-8700814D01*
X58516272Y-8617552D01*
X58552010Y-8588222D01*
X58708535Y-8504557D01*
X58878374Y-8453037D01*
X59055000Y-8435641D01*
X59231627Y-8453037D01*
X59231627Y-8453037D01*
G37*
G36*
X61771627Y-8453037D02*
G01*
X61941466Y-8504557D01*
X62097991Y-8588222D01*
X62133729Y-8617552D01*
X62235186Y-8700814D01*
X62318448Y-8802271D01*
X62347778Y-8838009D01*
X62431443Y-8994534D01*
X62482963Y-9164373D01*
X62496000Y-9296742D01*
X62496000Y-10225258D01*
X62482963Y-10357627D01*
X62431443Y-10527466D01*
X62347778Y-10683991D01*
X62318448Y-10719729D01*
X62235186Y-10821186D01*
X62097989Y-10933779D01*
X61941467Y-11017442D01*
X61941465Y-11017443D01*
X61771626Y-11068963D01*
X61595000Y-11086359D01*
X61418373Y-11068963D01*
X61248534Y-11017443D01*
X61092009Y-10933778D01*
X61056271Y-10904448D01*
X60954814Y-10821186D01*
X60842221Y-10683989D01*
X60758558Y-10527467D01*
X60758557Y-10527465D01*
X60707037Y-10357626D01*
X60694000Y-10225257D01*
X60694000Y-9296742D01*
X60707038Y-9164373D01*
X60758558Y-8994534D01*
X60842223Y-8838009D01*
X60871553Y-8802271D01*
X60954815Y-8700814D01*
X61056272Y-8617552D01*
X61092010Y-8588222D01*
X61248535Y-8504557D01*
X61418374Y-8453037D01*
X61595000Y-8435641D01*
X61771627Y-8453037D01*
X61771627Y-8453037D01*
G37*
G36*
X33831627Y-8453037D02*
G01*
X34001466Y-8504557D01*
X34157991Y-8588222D01*
X34193729Y-8617552D01*
X34295186Y-8700814D01*
X34378448Y-8802271D01*
X34407778Y-8838009D01*
X34491443Y-8994534D01*
X34542963Y-9164373D01*
X34556000Y-9296742D01*
X34556000Y-10225258D01*
X34542963Y-10357627D01*
X34491443Y-10527466D01*
X34407778Y-10683991D01*
X34378448Y-10719729D01*
X34295186Y-10821186D01*
X34157989Y-10933779D01*
X34001467Y-11017442D01*
X34001465Y-11017443D01*
X33831626Y-11068963D01*
X33655000Y-11086359D01*
X33478373Y-11068963D01*
X33308534Y-11017443D01*
X33152009Y-10933778D01*
X33116271Y-10904448D01*
X33014814Y-10821186D01*
X32902221Y-10683989D01*
X32818558Y-10527467D01*
X32818557Y-10527465D01*
X32767037Y-10357626D01*
X32754000Y-10225257D01*
X32754000Y-9296742D01*
X32767038Y-9164373D01*
X32818558Y-8994534D01*
X32902223Y-8838009D01*
X32931553Y-8802271D01*
X33014815Y-8700814D01*
X33116272Y-8617552D01*
X33152010Y-8588222D01*
X33308535Y-8504557D01*
X33478374Y-8453037D01*
X33655000Y-8435641D01*
X33831627Y-8453037D01*
X33831627Y-8453037D01*
G37*
G36*
X26211627Y-8453037D02*
G01*
X26381466Y-8504557D01*
X26537991Y-8588222D01*
X26573729Y-8617552D01*
X26675186Y-8700814D01*
X26758448Y-8802271D01*
X26787778Y-8838009D01*
X26871443Y-8994534D01*
X26922963Y-9164373D01*
X26936000Y-9296742D01*
X26936000Y-10225258D01*
X26922963Y-10357627D01*
X26871443Y-10527466D01*
X26787778Y-10683991D01*
X26758448Y-10719729D01*
X26675186Y-10821186D01*
X26537989Y-10933779D01*
X26381467Y-11017442D01*
X26381465Y-11017443D01*
X26211626Y-11068963D01*
X26035000Y-11086359D01*
X25858373Y-11068963D01*
X25688534Y-11017443D01*
X25532009Y-10933778D01*
X25496271Y-10904448D01*
X25394814Y-10821186D01*
X25282221Y-10683989D01*
X25198558Y-10527467D01*
X25198557Y-10527465D01*
X25147037Y-10357626D01*
X25134000Y-10225257D01*
X25134000Y-9296742D01*
X25147038Y-9164373D01*
X25198558Y-8994534D01*
X25282223Y-8838009D01*
X25311553Y-8802271D01*
X25394815Y-8700814D01*
X25496272Y-8617552D01*
X25532010Y-8588222D01*
X25688535Y-8504557D01*
X25858374Y-8453037D01*
X26035000Y-8435641D01*
X26211627Y-8453037D01*
X26211627Y-8453037D01*
G37*
G36*
X13511627Y-8453037D02*
G01*
X13681466Y-8504557D01*
X13837991Y-8588222D01*
X13873729Y-8617552D01*
X13975186Y-8700814D01*
X14058448Y-8802271D01*
X14087778Y-8838009D01*
X14171443Y-8994534D01*
X14222963Y-9164373D01*
X14236000Y-9296742D01*
X14236000Y-10225258D01*
X14222963Y-10357627D01*
X14171443Y-10527466D01*
X14087778Y-10683991D01*
X14058448Y-10719729D01*
X13975186Y-10821186D01*
X13837989Y-10933779D01*
X13681467Y-11017442D01*
X13681465Y-11017443D01*
X13511626Y-11068963D01*
X13335000Y-11086359D01*
X13158373Y-11068963D01*
X12988534Y-11017443D01*
X12832009Y-10933778D01*
X12796271Y-10904448D01*
X12694814Y-10821186D01*
X12582221Y-10683989D01*
X12498558Y-10527467D01*
X12498557Y-10527465D01*
X12447037Y-10357626D01*
X12434000Y-10225257D01*
X12434000Y-9296742D01*
X12447038Y-9164373D01*
X12498558Y-8994534D01*
X12582223Y-8838009D01*
X12611553Y-8802271D01*
X12694815Y-8700814D01*
X12796272Y-8617552D01*
X12832010Y-8588222D01*
X12988535Y-8504557D01*
X13158374Y-8453037D01*
X13335000Y-8435641D01*
X13511627Y-8453037D01*
X13511627Y-8453037D01*
G37*
G36*
X10971627Y-8453037D02*
G01*
X11141466Y-8504557D01*
X11297991Y-8588222D01*
X11333729Y-8617552D01*
X11435186Y-8700814D01*
X11518448Y-8802271D01*
X11547778Y-8838009D01*
X11631443Y-8994534D01*
X11682963Y-9164373D01*
X11696000Y-9296742D01*
X11696000Y-10225258D01*
X11682963Y-10357627D01*
X11631443Y-10527466D01*
X11547778Y-10683991D01*
X11518448Y-10719729D01*
X11435186Y-10821186D01*
X11297989Y-10933779D01*
X11141467Y-11017442D01*
X11141465Y-11017443D01*
X10971626Y-11068963D01*
X10795000Y-11086359D01*
X10618373Y-11068963D01*
X10448534Y-11017443D01*
X10292009Y-10933778D01*
X10256271Y-10904448D01*
X10154814Y-10821186D01*
X10042221Y-10683989D01*
X9958558Y-10527467D01*
X9958557Y-10527465D01*
X9907037Y-10357626D01*
X9894000Y-10225257D01*
X9894000Y-9296742D01*
X9907038Y-9164373D01*
X9958558Y-8994534D01*
X10042223Y-8838009D01*
X10071553Y-8802271D01*
X10154815Y-8700814D01*
X10256272Y-8617552D01*
X10292010Y-8588222D01*
X10448535Y-8504557D01*
X10618374Y-8453037D01*
X10795000Y-8435641D01*
X10971627Y-8453037D01*
X10971627Y-8453037D01*
G37*
G36*
X49071627Y-8453037D02*
G01*
X49241466Y-8504557D01*
X49397991Y-8588222D01*
X49433729Y-8617552D01*
X49535186Y-8700814D01*
X49618448Y-8802271D01*
X49647778Y-8838009D01*
X49731443Y-8994534D01*
X49782963Y-9164373D01*
X49796000Y-9296742D01*
X49796000Y-10225258D01*
X49782963Y-10357627D01*
X49731443Y-10527466D01*
X49647778Y-10683991D01*
X49618448Y-10719729D01*
X49535186Y-10821186D01*
X49397989Y-10933779D01*
X49241467Y-11017442D01*
X49241465Y-11017443D01*
X49071626Y-11068963D01*
X48895000Y-11086359D01*
X48718373Y-11068963D01*
X48548534Y-11017443D01*
X48392009Y-10933778D01*
X48356271Y-10904448D01*
X48254814Y-10821186D01*
X48142221Y-10683989D01*
X48058558Y-10527467D01*
X48058557Y-10527465D01*
X48007037Y-10357626D01*
X47994000Y-10225257D01*
X47994000Y-9296742D01*
X48007038Y-9164373D01*
X48058558Y-8994534D01*
X48142223Y-8838009D01*
X48171553Y-8802271D01*
X48254815Y-8700814D01*
X48356272Y-8617552D01*
X48392010Y-8588222D01*
X48548535Y-8504557D01*
X48718374Y-8453037D01*
X48895000Y-8435641D01*
X49071627Y-8453037D01*
X49071627Y-8453037D01*
G37*
G36*
X8431627Y-8453037D02*
G01*
X8601466Y-8504557D01*
X8757991Y-8588222D01*
X8793729Y-8617552D01*
X8895186Y-8700814D01*
X8978448Y-8802271D01*
X9007778Y-8838009D01*
X9091443Y-8994534D01*
X9142963Y-9164373D01*
X9156000Y-9296742D01*
X9156000Y-10225258D01*
X9142963Y-10357627D01*
X9091443Y-10527466D01*
X9007778Y-10683991D01*
X8978448Y-10719729D01*
X8895186Y-10821186D01*
X8757989Y-10933779D01*
X8601467Y-11017442D01*
X8601465Y-11017443D01*
X8431626Y-11068963D01*
X8255000Y-11086359D01*
X8078373Y-11068963D01*
X7908534Y-11017443D01*
X7752009Y-10933778D01*
X7716271Y-10904448D01*
X7614814Y-10821186D01*
X7502221Y-10683989D01*
X7418558Y-10527467D01*
X7418557Y-10527465D01*
X7367037Y-10357626D01*
X7354000Y-10225257D01*
X7354000Y-9296742D01*
X7367038Y-9164373D01*
X7418558Y-8994534D01*
X7502223Y-8838009D01*
X7531553Y-8802271D01*
X7614815Y-8700814D01*
X7716272Y-8617552D01*
X7752010Y-8588222D01*
X7908535Y-8504557D01*
X8078374Y-8453037D01*
X8255000Y-8435641D01*
X8431627Y-8453037D01*
X8431627Y-8453037D01*
G37*
G36*
X51611627Y-8453037D02*
G01*
X51781466Y-8504557D01*
X51937991Y-8588222D01*
X51973729Y-8617552D01*
X52075186Y-8700814D01*
X52158448Y-8802271D01*
X52187778Y-8838009D01*
X52271443Y-8994534D01*
X52322963Y-9164373D01*
X52336000Y-9296742D01*
X52336000Y-10225258D01*
X52322963Y-10357627D01*
X52271443Y-10527466D01*
X52187778Y-10683991D01*
X52158448Y-10719729D01*
X52075186Y-10821186D01*
X51937989Y-10933779D01*
X51781467Y-11017442D01*
X51781465Y-11017443D01*
X51611626Y-11068963D01*
X51435000Y-11086359D01*
X51258373Y-11068963D01*
X51088534Y-11017443D01*
X50932009Y-10933778D01*
X50896271Y-10904448D01*
X50794814Y-10821186D01*
X50682221Y-10683989D01*
X50598558Y-10527467D01*
X50598557Y-10527465D01*
X50547037Y-10357626D01*
X50534000Y-10225257D01*
X50534000Y-9296742D01*
X50547038Y-9164373D01*
X50598558Y-8994534D01*
X50682223Y-8838009D01*
X50711553Y-8802271D01*
X50794815Y-8700814D01*
X50896272Y-8617552D01*
X50932010Y-8588222D01*
X51088535Y-8504557D01*
X51258374Y-8453037D01*
X51435000Y-8435641D01*
X51611627Y-8453037D01*
X51611627Y-8453037D01*
G37*
G36*
X16051627Y-8453037D02*
G01*
X16221466Y-8504557D01*
X16377991Y-8588222D01*
X16413729Y-8617552D01*
X16515186Y-8700814D01*
X16598448Y-8802271D01*
X16627778Y-8838009D01*
X16711443Y-8994534D01*
X16762963Y-9164373D01*
X16776000Y-9296742D01*
X16776000Y-10225258D01*
X16762963Y-10357627D01*
X16711443Y-10527466D01*
X16627778Y-10683991D01*
X16598448Y-10719729D01*
X16515186Y-10821186D01*
X16377989Y-10933779D01*
X16221467Y-11017442D01*
X16221465Y-11017443D01*
X16051626Y-11068963D01*
X15875000Y-11086359D01*
X15698373Y-11068963D01*
X15528534Y-11017443D01*
X15372009Y-10933778D01*
X15336271Y-10904448D01*
X15234814Y-10821186D01*
X15122221Y-10683989D01*
X15038558Y-10527467D01*
X15038557Y-10527465D01*
X14987037Y-10357626D01*
X14974000Y-10225257D01*
X14974000Y-9296742D01*
X14987038Y-9164373D01*
X15038558Y-8994534D01*
X15122223Y-8838009D01*
X15151553Y-8802271D01*
X15234815Y-8700814D01*
X15336272Y-8617552D01*
X15372010Y-8588222D01*
X15528535Y-8504557D01*
X15698374Y-8453037D01*
X15875000Y-8435641D01*
X16051627Y-8453037D01*
X16051627Y-8453037D01*
G37*
G36*
X54151627Y-8453037D02*
G01*
X54321466Y-8504557D01*
X54477991Y-8588222D01*
X54513729Y-8617552D01*
X54615186Y-8700814D01*
X54698448Y-8802271D01*
X54727778Y-8838009D01*
X54811443Y-8994534D01*
X54862963Y-9164373D01*
X54876000Y-9296742D01*
X54876000Y-10225258D01*
X54862963Y-10357627D01*
X54811443Y-10527466D01*
X54727778Y-10683991D01*
X54698448Y-10719729D01*
X54615186Y-10821186D01*
X54477989Y-10933779D01*
X54321467Y-11017442D01*
X54321465Y-11017443D01*
X54151626Y-11068963D01*
X53975000Y-11086359D01*
X53798373Y-11068963D01*
X53628534Y-11017443D01*
X53472009Y-10933778D01*
X53436271Y-10904448D01*
X53334814Y-10821186D01*
X53222221Y-10683989D01*
X53138558Y-10527467D01*
X53138557Y-10527465D01*
X53087037Y-10357626D01*
X53074000Y-10225257D01*
X53074000Y-9296742D01*
X53087038Y-9164373D01*
X53138558Y-8994534D01*
X53222223Y-8838009D01*
X53251553Y-8802271D01*
X53334815Y-8700814D01*
X53436272Y-8617552D01*
X53472010Y-8588222D01*
X53628535Y-8504557D01*
X53798374Y-8453037D01*
X53975000Y-8435641D01*
X54151627Y-8453037D01*
X54151627Y-8453037D01*
G37*
G36*
X38911627Y-8453037D02*
G01*
X39081466Y-8504557D01*
X39237991Y-8588222D01*
X39273729Y-8617552D01*
X39375186Y-8700814D01*
X39458448Y-8802271D01*
X39487778Y-8838009D01*
X39571443Y-8994534D01*
X39622963Y-9164373D01*
X39636000Y-9296742D01*
X39636000Y-10225258D01*
X39622963Y-10357627D01*
X39571443Y-10527466D01*
X39487778Y-10683991D01*
X39458448Y-10719729D01*
X39375186Y-10821186D01*
X39237989Y-10933779D01*
X39081467Y-11017442D01*
X39081465Y-11017443D01*
X38911626Y-11068963D01*
X38735000Y-11086359D01*
X38558373Y-11068963D01*
X38388534Y-11017443D01*
X38232009Y-10933778D01*
X38196271Y-10904448D01*
X38094814Y-10821186D01*
X37982221Y-10683989D01*
X37898558Y-10527467D01*
X37898557Y-10527465D01*
X37847037Y-10357626D01*
X37834000Y-10225257D01*
X37834000Y-9296742D01*
X37847038Y-9164373D01*
X37898558Y-8994534D01*
X37982223Y-8838009D01*
X38011553Y-8802271D01*
X38094815Y-8700814D01*
X38196272Y-8617552D01*
X38232010Y-8588222D01*
X38388535Y-8504557D01*
X38558374Y-8453037D01*
X38735000Y-8435641D01*
X38911627Y-8453037D01*
X38911627Y-8453037D01*
G37*
G36*
X56691627Y-8453037D02*
G01*
X56861466Y-8504557D01*
X57017991Y-8588222D01*
X57053729Y-8617552D01*
X57155186Y-8700814D01*
X57238448Y-8802271D01*
X57267778Y-8838009D01*
X57351443Y-8994534D01*
X57402963Y-9164373D01*
X57416000Y-9296742D01*
X57416000Y-10225258D01*
X57402963Y-10357627D01*
X57351443Y-10527466D01*
X57267778Y-10683991D01*
X57238448Y-10719729D01*
X57155186Y-10821186D01*
X57017989Y-10933779D01*
X56861467Y-11017442D01*
X56861465Y-11017443D01*
X56691626Y-11068963D01*
X56515000Y-11086359D01*
X56338373Y-11068963D01*
X56168534Y-11017443D01*
X56012009Y-10933778D01*
X55976271Y-10904448D01*
X55874814Y-10821186D01*
X55762221Y-10683989D01*
X55678558Y-10527467D01*
X55678557Y-10527465D01*
X55627037Y-10357626D01*
X55614000Y-10225257D01*
X55614000Y-9296742D01*
X55627038Y-9164373D01*
X55678558Y-8994534D01*
X55762223Y-8838009D01*
X55791553Y-8802271D01*
X55874815Y-8700814D01*
X55976272Y-8617552D01*
X56012010Y-8588222D01*
X56168535Y-8504557D01*
X56338374Y-8453037D01*
X56515000Y-8435641D01*
X56691627Y-8453037D01*
X56691627Y-8453037D01*
G37*
G36*
X5891627Y-8453037D02*
G01*
X6061466Y-8504557D01*
X6217991Y-8588222D01*
X6253729Y-8617552D01*
X6355186Y-8700814D01*
X6438448Y-8802271D01*
X6467778Y-8838009D01*
X6551443Y-8994534D01*
X6602963Y-9164373D01*
X6616000Y-9296742D01*
X6616000Y-10225258D01*
X6602963Y-10357627D01*
X6551443Y-10527466D01*
X6467778Y-10683991D01*
X6438448Y-10719729D01*
X6355186Y-10821186D01*
X6217989Y-10933779D01*
X6061467Y-11017442D01*
X6061465Y-11017443D01*
X5891626Y-11068963D01*
X5715000Y-11086359D01*
X5538373Y-11068963D01*
X5368534Y-11017443D01*
X5212009Y-10933778D01*
X5176271Y-10904448D01*
X5074814Y-10821186D01*
X4962221Y-10683989D01*
X4878558Y-10527467D01*
X4878557Y-10527465D01*
X4827037Y-10357626D01*
X4814000Y-10225257D01*
X4814000Y-9296742D01*
X4827038Y-9164373D01*
X4878558Y-8994534D01*
X4962223Y-8838009D01*
X4991553Y-8802271D01*
X5074815Y-8700814D01*
X5176272Y-8617552D01*
X5212010Y-8588222D01*
X5368535Y-8504557D01*
X5538374Y-8453037D01*
X5715000Y-8435641D01*
X5891627Y-8453037D01*
X5891627Y-8453037D01*
G37*
G36*
X36371627Y-8453037D02*
G01*
X36541466Y-8504557D01*
X36697991Y-8588222D01*
X36733729Y-8617552D01*
X36835186Y-8700814D01*
X36918448Y-8802271D01*
X36947778Y-8838009D01*
X37031443Y-8994534D01*
X37082963Y-9164373D01*
X37096000Y-9296742D01*
X37096000Y-10225258D01*
X37082963Y-10357627D01*
X37031443Y-10527466D01*
X36947778Y-10683991D01*
X36918448Y-10719729D01*
X36835186Y-10821186D01*
X36697989Y-10933779D01*
X36541467Y-11017442D01*
X36541465Y-11017443D01*
X36371626Y-11068963D01*
X36195000Y-11086359D01*
X36018373Y-11068963D01*
X35848534Y-11017443D01*
X35692009Y-10933778D01*
X35656271Y-10904448D01*
X35554814Y-10821186D01*
X35442221Y-10683989D01*
X35358558Y-10527467D01*
X35358557Y-10527465D01*
X35307037Y-10357626D01*
X35294000Y-10225257D01*
X35294000Y-9296742D01*
X35307038Y-9164373D01*
X35358558Y-8994534D01*
X35442223Y-8838009D01*
X35471553Y-8802271D01*
X35554815Y-8700814D01*
X35656272Y-8617552D01*
X35692010Y-8588222D01*
X35848535Y-8504557D01*
X36018374Y-8453037D01*
X36195000Y-8435641D01*
X36371627Y-8453037D01*
X36371627Y-8453037D01*
G37*
G36*
X3351627Y-8453037D02*
G01*
X3521466Y-8504557D01*
X3677991Y-8588222D01*
X3713729Y-8617552D01*
X3815186Y-8700814D01*
X3898448Y-8802271D01*
X3927778Y-8838009D01*
X4011443Y-8994534D01*
X4062963Y-9164373D01*
X4076000Y-9296742D01*
X4076000Y-10225258D01*
X4062963Y-10357627D01*
X4011443Y-10527466D01*
X3927778Y-10683991D01*
X3898448Y-10719729D01*
X3815186Y-10821186D01*
X3677989Y-10933779D01*
X3521467Y-11017442D01*
X3521465Y-11017443D01*
X3351626Y-11068963D01*
X3175000Y-11086359D01*
X2998373Y-11068963D01*
X2828534Y-11017443D01*
X2672009Y-10933778D01*
X2636271Y-10904448D01*
X2534814Y-10821186D01*
X2422221Y-10683989D01*
X2338558Y-10527467D01*
X2338557Y-10527465D01*
X2287037Y-10357626D01*
X2274000Y-10225257D01*
X2274000Y-9296742D01*
X2287038Y-9164373D01*
X2338558Y-8994534D01*
X2422223Y-8838009D01*
X2451553Y-8802271D01*
X2534815Y-8700814D01*
X2636272Y-8617552D01*
X2672010Y-8588222D01*
X2828535Y-8504557D01*
X2998374Y-8453037D01*
X3175000Y-8435641D01*
X3351627Y-8453037D01*
X3351627Y-8453037D01*
G37*
G36*
X28751627Y-8453037D02*
G01*
X28921466Y-8504557D01*
X29077991Y-8588222D01*
X29113729Y-8617552D01*
X29215186Y-8700814D01*
X29298448Y-8802271D01*
X29327778Y-8838009D01*
X29411443Y-8994534D01*
X29462963Y-9164373D01*
X29476000Y-9296742D01*
X29476000Y-10225258D01*
X29462963Y-10357627D01*
X29411443Y-10527466D01*
X29327778Y-10683991D01*
X29298448Y-10719729D01*
X29215186Y-10821186D01*
X29077989Y-10933779D01*
X28921467Y-11017442D01*
X28921465Y-11017443D01*
X28751626Y-11068963D01*
X28575000Y-11086359D01*
X28398373Y-11068963D01*
X28228534Y-11017443D01*
X28072009Y-10933778D01*
X28036271Y-10904448D01*
X27934814Y-10821186D01*
X27822221Y-10683989D01*
X27738558Y-10527467D01*
X27738557Y-10527465D01*
X27687037Y-10357626D01*
X27674000Y-10225257D01*
X27674000Y-9296742D01*
X27687038Y-9164373D01*
X27738558Y-8994534D01*
X27822223Y-8838009D01*
X27851553Y-8802271D01*
X27934815Y-8700814D01*
X28036272Y-8617552D01*
X28072010Y-8588222D01*
X28228535Y-8504557D01*
X28398374Y-8453037D01*
X28575000Y-8435641D01*
X28751627Y-8453037D01*
X28751627Y-8453037D01*
G37*
G36*
X31291627Y-8453037D02*
G01*
X31461466Y-8504557D01*
X31617991Y-8588222D01*
X31653729Y-8617552D01*
X31755186Y-8700814D01*
X31838448Y-8802271D01*
X31867778Y-8838009D01*
X31951443Y-8994534D01*
X32002963Y-9164373D01*
X32016000Y-9296742D01*
X32016000Y-10225258D01*
X32002963Y-10357627D01*
X31951443Y-10527466D01*
X31867778Y-10683991D01*
X31838448Y-10719729D01*
X31755186Y-10821186D01*
X31617989Y-10933779D01*
X31461467Y-11017442D01*
X31461465Y-11017443D01*
X31291626Y-11068963D01*
X31115000Y-11086359D01*
X30938373Y-11068963D01*
X30768534Y-11017443D01*
X30612009Y-10933778D01*
X30576271Y-10904448D01*
X30474814Y-10821186D01*
X30362221Y-10683989D01*
X30278558Y-10527467D01*
X30278557Y-10527465D01*
X30227037Y-10357626D01*
X30214000Y-10225257D01*
X30214000Y-9296742D01*
X30227038Y-9164373D01*
X30278558Y-8994534D01*
X30362223Y-8838009D01*
X30391553Y-8802271D01*
X30474815Y-8700814D01*
X30576272Y-8617552D01*
X30612010Y-8588222D01*
X30768535Y-8504557D01*
X30938374Y-8453037D01*
X31115000Y-8435641D01*
X31291627Y-8453037D01*
X31291627Y-8453037D01*
G37*
M02*
