  0
SECTION
  2
BLOCKS
  0
ENDSEC
  0
SECTION
  2
ENTITIES
  0
LINE
  8
0
 10
96.2453
 20
-12.994
 11
96.4901
 21
-12.9759
  0
LINE
  8
0
 10
96.4901
 20
-12.9759
 11
96.7336
 21
-12.9459
  0
LINE
  8
0
 10
96.7336
 20
-12.9459
 11
96.9754
 21
-12.9039
  0
LINE
  8
0
 10
96.9754
 20
-12.9039
 11
97.2149
 21
-12.8501
  0
LINE
  8
0
 10
97.2149
 20
-12.8501
 11
97.4514
 21
-12.7847
  0
LINE
  8
0
 10
97.4514
 20
-12.7847
 11
97.6844
 21
-12.7077
  0
LINE
  8
0
 10
97.6844
 20
-12.7077
 11
97.9134
 21
-12.6194
  0
LINE
  8
0
 10
97.9134
 20
-12.6194
 11
98.1378
 21
-12.5199
  0
LINE
  8
0
 10
98.1378
 20
-12.5199
 11
98.357
 21
-12.4096
  0
LINE
  8
0
 10
98.357
 20
-12.4096
 11
98.5705
 21
-12.2886
  0
LINE
  8
0
 10
98.5705
 20
-12.2886
 11
98.7778
 21
-12.1573
  0
LINE
  8
0
 10
98.7778
 20
-12.1573
 11
98.9785
 21
-12.016
  0
LINE
  8
0
 10
98.9785
 20
-12.016
 11
99.172
 21
-11.8651
  0
LINE
  8
0
 10
99.172
 20
-11.8651
 11
99.3578
 21
-11.7047
  0
LINE
  8
0
 10
99.3578
 20
-11.7047
 11
99.5355
 21
-11.5355
  0
LINE
  8
0
 10
99.5355
 20
-11.5355
 11
99.7047
 21
-11.3578
  0
LINE
  8
0
 10
99.7047
 20
-11.3578
 11
99.8651
 21
-11.172
  0
LINE
  8
0
 10
99.8651
 20
-11.172
 11
100.016
 21
-10.9785
  0
LINE
  8
0
 10
100.016
 20
-10.9785
 11
100.157
 21
-10.7778
  0
LINE
  8
0
 10
100.157
 20
-10.7778
 11
100.289
 21
-10.5705
  0
LINE
  8
0
 10
100.289
 20
-10.5705
 11
100.41
 21
-10.357
  0
LINE
  8
0
 10
100.41
 20
-10.357
 11
100.52
 21
-10.1378
  0
LINE
  8
0
 10
100.52
 20
-10.1378
 11
100.619
 21
-9.91341
  0
LINE
  8
0
 10
100.619
 20
-9.91341
 11
100.708
 21
-9.68445
  0
LINE
  8
0
 10
100.708
 20
-9.68445
 11
100.785
 21
-9.45142
  0
LINE
  8
0
 10
100.785
 20
-9.45142
 11
100.85
 21
-9.21489
  0
LINE
  8
0
 10
100.85
 20
-9.21489
 11
100.904
 21
-8.97545
  0
LINE
  8
0
 10
100.904
 20
-8.97545
 11
100.946
 21
-8.73364
  0
LINE
  8
0
 10
100.946
 20
-8.73364
 11
100.976
 21
-8.49008
  0
LINE
  8
0
 10
100.976
 20
-8.49008
 11
100.994
 21
-8.24533
  0
LINE
  8
0
 10
100.994
 20
-8.24533
 11
101
 21
-8
  0
LINE
  8
0
 10
101
 20
-8
 11
101
 21
148.5
  0
LINE
  8
0
 10
101
 20
148.5
 11
100.994
 21
148.745
  0
LINE
  8
0
 10
100.994
 20
148.745
 11
100.976
 21
148.99
  0
LINE
  8
0
 10
100.976
 20
148.99
 11
100.946
 21
149.234
  0
LINE
  8
0
 10
100.946
 20
149.234
 11
100.904
 21
149.475
  0
LINE
  8
0
 10
100.904
 20
149.475
 11
100.85
 21
149.715
  0
LINE
  8
0
 10
100.85
 20
149.715
 11
100.785
 21
149.951
  0
LINE
  8
0
 10
100.785
 20
149.951
 11
100.708
 21
150.184
  0
LINE
  8
0
 10
100.708
 20
150.184
 11
100.619
 21
150.413
  0
LINE
  8
0
 10
100.619
 20
150.413
 11
100.52
 21
150.638
  0
LINE
  8
0
 10
100.52
 20
150.638
 11
100.41
 21
150.857
  0
LINE
  8
0
 10
100.41
 20
150.857
 11
100.289
 21
151.071
  0
LINE
  8
0
 10
100.289
 20
151.071
 11
100.157
 21
151.278
  0
LINE
  8
0
 10
100.157
 20
151.278
 11
100.016
 21
151.478
  0
LINE
  8
0
 10
100.016
 20
151.478
 11
99.8651
 21
151.672
  0
LINE
  8
0
 10
99.8651
 20
151.672
 11
99.7047
 21
151.858
  0
LINE
  8
0
 10
99.7047
 20
151.858
 11
99.5355
 21
152.036
  0
LINE
  8
0
 10
99.5355
 20
152.036
 11
99.3578
 21
152.205
  0
LINE
  8
0
 10
99.3578
 20
152.205
 11
99.172
 21
152.365
  0
LINE
  8
0
 10
99.172
 20
152.365
 11
98.9785
 21
152.516
  0
LINE
  8
0
 10
98.9785
 20
152.516
 11
98.7778
 21
152.657
  0
LINE
  8
0
 10
98.7778
 20
152.657
 11
98.5705
 21
152.789
  0
LINE
  8
0
 10
98.5705
 20
152.789
 11
98.357
 21
152.91
  0
LINE
  8
0
 10
98.357
 20
152.91
 11
98.1378
 21
153.02
  0
LINE
  8
0
 10
98.1378
 20
153.02
 11
97.9134
 21
153.119
  0
LINE
  8
0
 10
97.9134
 20
153.119
 11
97.6844
 21
153.208
  0
LINE
  8
0
 10
97.6844
 20
153.208
 11
97.4514
 21
153.285
  0
LINE
  8
0
 10
97.4514
 20
153.285
 11
97.2149
 21
153.35
  0
LINE
  8
0
 10
97.2149
 20
153.35
 11
96.9754
 21
153.404
  0
LINE
  8
0
 10
96.9754
 20
153.404
 11
96.7336
 21
153.446
  0
LINE
  8
0
 10
96.7336
 20
153.446
 11
96.4901
 21
153.476
  0
LINE
  8
0
 10
96.4901
 20
153.476
 11
96.2453
 21
153.494
  0
LINE
  8
0
 10
96.2453
 20
153.494
 11
96
 21
153.5
  0
LINE
  8
0
 10
96
 20
153.5
 11
-8
 21
153.5
  0
LINE
  8
0
 10
-8
 20
153.5
 11
-8.24533
 21
153.494
  0
LINE
  8
0
 10
-8.24533
 20
153.494
 11
-8.49008
 21
153.476
  0
LINE
  8
0
 10
-8.49008
 20
153.476
 11
-8.73364
 21
153.446
  0
LINE
  8
0
 10
-8.73364
 20
153.446
 11
-8.97545
 21
153.404
  0
LINE
  8
0
 10
-8.97545
 20
153.404
 11
-9.21489
 21
153.35
  0
LINE
  8
0
 10
-9.21489
 20
153.35
 11
-9.45142
 21
153.285
  0
LINE
  8
0
 10
-9.45142
 20
153.285
 11
-9.68445
 21
153.208
  0
LINE
  8
0
 10
-9.68445
 20
153.208
 11
-9.91341
 21
153.119
  0
LINE
  8
0
 10
-9.91341
 20
153.119
 11
-10.1378
 21
153.02
  0
LINE
  8
0
 10
-10.1378
 20
153.02
 11
-10.357
 21
152.91
  0
LINE
  8
0
 10
-10.357
 20
152.91
 11
-10.5705
 21
152.789
  0
LINE
  8
0
 10
-10.5705
 20
152.789
 11
-10.7778
 21
152.657
  0
LINE
  8
0
 10
-10.7778
 20
152.657
 11
-10.9785
 21
152.516
  0
LINE
  8
0
 10
-10.9785
 20
152.516
 11
-11.172
 21
152.365
  0
LINE
  8
0
 10
-11.172
 20
152.365
 11
-11.3578
 21
152.205
  0
LINE
  8
0
 10
-11.3578
 20
152.205
 11
-11.5355
 21
152.036
  0
LINE
  8
0
 10
-11.5355
 20
152.036
 11
-11.7047
 21
151.858
  0
LINE
  8
0
 10
-11.7047
 20
151.858
 11
-11.8651
 21
151.672
  0
LINE
  8
0
 10
-11.8651
 20
151.672
 11
-12.016
 21
151.478
  0
LINE
  8
0
 10
-12.016
 20
151.478
 11
-12.1573
 21
151.278
  0
LINE
  8
0
 10
-12.1573
 20
151.278
 11
-12.2886
 21
151.071
  0
LINE
  8
0
 10
-12.2886
 20
151.071
 11
-12.4096
 21
150.857
  0
LINE
  8
0
 10
-12.4096
 20
150.857
 11
-12.5199
 21
150.638
  0
LINE
  8
0
 10
-12.5199
 20
150.638
 11
-12.6194
 21
150.413
  0
LINE
  8
0
 10
-12.6194
 20
150.413
 11
-12.7077
 21
150.184
  0
LINE
  8
0
 10
-12.7077
 20
150.184
 11
-12.7847
 21
149.951
  0
LINE
  8
0
 10
-12.7847
 20
149.951
 11
-12.8501
 21
149.715
  0
LINE
  8
0
 10
-12.8501
 20
149.715
 11
-12.9039
 21
149.475
  0
LINE
  8
0
 10
-12.9039
 20
149.475
 11
-12.9459
 21
149.234
  0
LINE
  8
0
 10
-12.9459
 20
149.234
 11
-12.9759
 21
148.99
  0
LINE
  8
0
 10
-12.9759
 20
148.99
 11
-12.994
 21
148.745
  0
LINE
  8
0
 10
-12.994
 20
148.745
 11
-13
 21
148.5
  0
LINE
  8
0
 10
-13
 20
148.5
 11
-13
 21
-8
  0
LINE
  8
0
 10
-13
 20
-8
 11
-12.994
 21
-8.24533
  0
LINE
  8
0
 10
-12.994
 20
-8.24533
 11
-12.9759
 21
-8.49008
  0
LINE
  8
0
 10
-12.9759
 20
-8.49008
 11
-12.9459
 21
-8.73364
  0
LINE
  8
0
 10
-12.9459
 20
-8.73364
 11
-12.9039
 21
-8.97545
  0
LINE
  8
0
 10
-12.9039
 20
-8.97545
 11
-12.8501
 21
-9.21489
  0
LINE
  8
0
 10
-12.8501
 20
-9.21489
 11
-12.7847
 21
-9.45142
  0
LINE
  8
0
 10
-12.7847
 20
-9.45142
 11
-12.7077
 21
-9.68445
  0
LINE
  8
0
 10
-12.7077
 20
-9.68445
 11
-12.6194
 21
-9.91341
  0
LINE
  8
0
 10
-12.6194
 20
-9.91341
 11
-12.5199
 21
-10.1378
  0
LINE
  8
0
 10
-12.5199
 20
-10.1378
 11
-12.4096
 21
-10.357
  0
LINE
  8
0
 10
-12.4096
 20
-10.357
 11
-12.2886
 21
-10.5705
  0
LINE
  8
0
 10
-12.2886
 20
-10.5705
 11
-12.1573
 21
-10.7778
  0
LINE
  8
0
 10
-12.1573
 20
-10.7778
 11
-12.016
 21
-10.9785
  0
LINE
  8
0
 10
-12.016
 20
-10.9785
 11
-11.8651
 21
-11.172
  0
LINE
  8
0
 10
-11.8651
 20
-11.172
 11
-11.7047
 21
-11.3578
  0
LINE
  8
0
 10
-11.7047
 20
-11.3578
 11
-11.5355
 21
-11.5355
  0
LINE
  8
0
 10
-11.5355
 20
-11.5355
 11
-11.3578
 21
-11.7047
  0
LINE
  8
0
 10
-11.3578
 20
-11.7047
 11
-11.172
 21
-11.8651
  0
LINE
  8
0
 10
-11.172
 20
-11.8651
 11
-10.9785
 21
-12.016
  0
LINE
  8
0
 10
-10.9785
 20
-12.016
 11
-10.7778
 21
-12.1573
  0
LINE
  8
0
 10
-10.7778
 20
-12.1573
 11
-10.5705
 21
-12.2886
  0
LINE
  8
0
 10
-10.5705
 20
-12.2886
 11
-10.357
 21
-12.4096
  0
LINE
  8
0
 10
-10.357
 20
-12.4096
 11
-10.1378
 21
-12.5199
  0
LINE
  8
0
 10
-10.1378
 20
-12.5199
 11
-9.91341
 21
-12.6194
  0
LINE
  8
0
 10
-9.91341
 20
-12.6194
 11
-9.68445
 21
-12.7077
  0
LINE
  8
0
 10
-9.68445
 20
-12.7077
 11
-9.45142
 21
-12.7847
  0
LINE
  8
0
 10
-9.45142
 20
-12.7847
 11
-9.21489
 21
-12.8501
  0
LINE
  8
0
 10
-9.21489
 20
-12.8501
 11
-8.97545
 21
-12.9039
  0
LINE
  8
0
 10
-8.97545
 20
-12.9039
 11
-8.73364
 21
-12.9459
  0
LINE
  8
0
 10
-8.73364
 20
-12.9459
 11
-8.49008
 21
-12.9759
  0
LINE
  8
0
 10
-8.49008
 20
-12.9759
 11
-8.24533
 21
-12.994
  0
LINE
  8
0
 10
-8.24533
 20
-12.994
 11
-8
 21
-13
  0
LINE
  8
0
 10
-8
 20
-13
 11
96
 21
-13
  0
LINE
  8
0
 10
96
 20
-13
 11
96.2453
 21
-12.994
  0
LINE
  8
0
 10
6.52148
 20
135.802
 11
6.44316
 21
135.808
  0
LINE
  8
0
 10
6.44316
 20
135.808
 11
6.36522
 21
135.817
  0
LINE
  8
0
 10
6.36522
 20
135.817
 11
6.28784
 21
135.831
  0
LINE
  8
0
 10
6.28784
 20
135.831
 11
6.21123
 21
135.848
  0
LINE
  8
0
 10
6.21123
 20
135.848
 11
6.13554
 21
135.869
  0
LINE
  8
0
 10
6.13554
 20
135.869
 11
6.06097
 21
135.894
  0
LINE
  8
0
 10
6.06097
 20
135.894
 11
5.9877
 21
135.922
  0
LINE
  8
0
 10
5.9877
 20
135.922
 11
5.91591
 21
135.954
  0
LINE
  8
0
 10
5.91591
 20
135.954
 11
5.84576
 21
135.989
  0
LINE
  8
0
 10
5.84576
 20
135.989
 11
5.77744
 21
136.028
  0
LINE
  8
0
 10
5.77744
 20
136.028
 11
5.71107
 21
136.07
  0
LINE
  8
0
 10
5.71107
 20
136.07
 11
5.64688
 21
136.115
  0
LINE
  8
0
 10
5.64688
 20
136.115
 11
5.58496
 21
136.163
  0
LINE
  8
0
 10
5.58496
 20
136.163
 11
5.5255
 21
136.214
  0
LINE
  8
0
 10
5.5255
 20
136.214
 11
5.46863
 21
136.269
  0
LINE
  8
0
 10
5.46863
 20
136.269
 11
5.41447
 21
136.326
  0
LINE
  8
0
 10
5.41447
 20
136.326
 11
5.36317
 21
136.385
  0
LINE
  8
0
 10
5.36317
 20
136.385
 11
5.31487
 21
136.447
  0
LINE
  8
0
 10
5.31487
 20
136.447
 11
5.26964
 21
136.511
  0
LINE
  8
0
 10
5.26964
 20
136.511
 11
5.22763
 21
136.577
  0
LINE
  8
0
 10
5.22763
 20
136.577
 11
5.18892
 21
136.646
  0
LINE
  8
0
 10
5.18892
 20
136.646
 11
5.15361
 21
136.716
  0
LINE
  8
0
 10
5.15361
 20
136.716
 11
5.12178
 21
136.788
  0
LINE
  8
0
 10
5.12178
 20
136.788
 11
5.09352
 21
136.861
  0
LINE
  8
0
 10
5.09352
 20
136.861
 11
5.06889
 21
136.936
  0
LINE
  8
0
 10
5.06889
 20
136.936
 11
5.04794
 21
137.011
  0
LINE
  8
0
 10
5.04794
 20
137.011
 11
5.03073
 21
137.088
  0
LINE
  8
0
 10
5.03073
 20
137.088
 11
5.0173
 21
137.165
  0
LINE
  8
0
 10
5.0173
 20
137.165
 11
5.00769
 21
137.243
  0
LINE
  8
0
 10
5.00769
 20
137.243
 11
5.00192
 21
137.321
  0
LINE
  8
0
 10
5.00192
 20
137.321
 11
5
 21
137.4
  0
LINE
  8
0
 10
5
 20
137.4
 11
5.00192
 21
137.479
  0
LINE
  8
0
 10
5.00192
 20
137.479
 11
5.00769
 21
137.557
  0
LINE
  8
0
 10
5.00769
 20
137.557
 11
5.0173
 21
137.635
  0
LINE
  8
0
 10
5.0173
 20
137.635
 11
5.03073
 21
137.712
  0
LINE
  8
0
 10
5.03073
 20
137.712
 11
5.04794
 21
137.789
  0
LINE
  8
0
 10
5.04794
 20
137.789
 11
5.06889
 21
137.864
  0
LINE
  8
0
 10
5.06889
 20
137.864
 11
5.09352
 21
137.939
  0
LINE
  8
0
 10
5.09352
 20
137.939
 11
5.12178
 21
138.012
  0
LINE
  8
0
 10
5.12178
 20
138.012
 11
5.15361
 21
138.084
  0
LINE
  8
0
 10
5.15361
 20
138.084
 11
5.18892
 21
138.154
  0
LINE
  8
0
 10
5.18892
 20
138.154
 11
5.22763
 21
138.223
  0
LINE
  8
0
 10
5.22763
 20
138.223
 11
5.26964
 21
138.289
  0
LINE
  8
0
 10
5.26964
 20
138.289
 11
5.31487
 21
138.353
  0
LINE
  8
0
 10
5.31487
 20
138.353
 11
5.36317
 21
138.415
  0
LINE
  8
0
 10
5.36317
 20
138.415
 11
5.41447
 21
138.474
  0
LINE
  8
0
 10
5.41447
 20
138.474
 11
5.46863
 21
138.531
  0
LINE
  8
0
 10
5.46863
 20
138.531
 11
5.5255
 21
138.586
  0
LINE
  8
0
 10
5.5255
 20
138.586
 11
5.58496
 21
138.637
  0
LINE
  8
0
 10
5.58496
 20
138.637
 11
5.64688
 21
138.685
  0
LINE
  8
0
 10
5.64688
 20
138.685
 11
5.71107
 21
138.73
  0
LINE
  8
0
 10
5.71107
 20
138.73
 11
5.77744
 21
138.772
  0
LINE
  8
0
 10
5.77744
 20
138.772
 11
5.84576
 21
138.811
  0
LINE
  8
0
 10
5.84576
 20
138.811
 11
5.91591
 21
138.846
  0
LINE
  8
0
 10
5.91591
 20
138.846
 11
5.9877
 21
138.878
  0
LINE
  8
0
 10
5.9877
 20
138.878
 11
6.06097
 21
138.906
  0
LINE
  8
0
 10
6.06097
 20
138.906
 11
6.13554
 21
138.931
  0
LINE
  8
0
 10
6.13554
 20
138.931
 11
6.21123
 21
138.952
  0
LINE
  8
0
 10
6.21123
 20
138.952
 11
6.28784
 21
138.969
  0
LINE
  8
0
 10
6.28784
 20
138.969
 11
6.36522
 21
138.983
  0
LINE
  8
0
 10
6.36522
 20
138.983
 11
6.44316
 21
138.992
  0
LINE
  8
0
 10
6.44316
 20
138.992
 11
6.52148
 21
138.998
  0
LINE
  8
0
 10
6.52148
 20
138.998
 11
6.59999
 21
139
  0
LINE
  8
0
 10
6.59999
 20
139
 11
6.6785
 21
138.998
  0
LINE
  8
0
 10
6.6785
 20
138.998
 11
6.75682
 21
138.992
  0
LINE
  8
0
 10
6.75682
 20
138.992
 11
6.83476
 21
138.983
  0
LINE
  8
0
 10
6.83476
 20
138.983
 11
6.91214
 21
138.969
  0
LINE
  8
0
 10
6.91214
 20
138.969
 11
6.98875
 21
138.952
  0
LINE
  8
0
 10
6.98875
 20
138.952
 11
7.06445
 21
138.931
  0
LINE
  8
0
 10
7.06445
 20
138.931
 11
7.13902
 21
138.906
  0
LINE
  8
0
 10
7.13902
 20
138.906
 11
7.21228
 21
138.878
  0
LINE
  8
0
 10
7.21228
 20
138.878
 11
7.28409
 21
138.846
  0
LINE
  8
0
 10
7.28409
 20
138.846
 11
7.35423
 21
138.811
  0
LINE
  8
0
 10
7.35423
 20
138.811
 11
7.42256
 21
138.772
  0
LINE
  8
0
 10
7.42256
 20
138.772
 11
7.48891
 21
138.73
  0
LINE
  8
0
 10
7.48891
 20
138.73
 11
7.55312
 21
138.685
  0
LINE
  8
0
 10
7.55312
 20
138.685
 11
7.61502
 21
138.637
  0
LINE
  8
0
 10
7.61502
 20
138.637
 11
7.67448
 21
138.586
  0
LINE
  8
0
 10
7.67448
 20
138.586
 11
7.73137
 21
138.531
  0
LINE
  8
0
 10
7.73137
 20
138.531
 11
7.78551
 21
138.474
  0
LINE
  8
0
 10
7.78551
 20
138.474
 11
7.83681
 21
138.415
  0
LINE
  8
0
 10
7.83681
 20
138.415
 11
7.88513
 21
138.353
  0
LINE
  8
0
 10
7.88513
 20
138.353
 11
7.93034
 21
138.289
  0
LINE
  8
0
 10
7.93034
 20
138.289
 11
7.97235
 21
138.223
  0
LINE
  8
0
 10
7.97235
 20
138.223
 11
8.01106
 21
138.154
  0
LINE
  8
0
 10
8.01106
 20
138.154
 11
8.04637
 21
138.084
  0
LINE
  8
0
 10
8.04637
 20
138.084
 11
8.0782
 21
138.012
  0
LINE
  8
0
 10
8.0782
 20
138.012
 11
8.10646
 21
137.939
  0
LINE
  8
0
 10
8.10646
 20
137.939
 11
8.1311
 21
137.864
  0
LINE
  8
0
 10
8.1311
 20
137.864
 11
8.15204
 21
137.789
  0
LINE
  8
0
 10
8.15204
 20
137.789
 11
8.16925
 21
137.712
  0
LINE
  8
0
 10
8.16925
 20
137.712
 11
8.18268
 21
137.635
  0
LINE
  8
0
 10
8.18268
 20
137.635
 11
8.19229
 21
137.557
  0
LINE
  8
0
 10
8.19229
 20
137.557
 11
8.19806
 21
137.479
  0
LINE
  8
0
 10
8.19806
 20
137.479
 11
8.2
 21
137.4
  0
LINE
  8
0
 10
8.2
 20
137.4
 11
8.19806
 21
137.321
  0
LINE
  8
0
 10
8.19806
 20
137.321
 11
8.19229
 21
137.243
  0
LINE
  8
0
 10
8.19229
 20
137.243
 11
8.18268
 21
137.165
  0
LINE
  8
0
 10
8.18268
 20
137.165
 11
8.16925
 21
137.088
  0
LINE
  8
0
 10
8.16925
 20
137.088
 11
8.15204
 21
137.011
  0
LINE
  8
0
 10
8.15204
 20
137.011
 11
8.1311
 21
136.936
  0
LINE
  8
0
 10
8.1311
 20
136.936
 11
8.10646
 21
136.861
  0
LINE
  8
0
 10
8.10646
 20
136.861
 11
8.0782
 21
136.788
  0
LINE
  8
0
 10
8.0782
 20
136.788
 11
8.04637
 21
136.716
  0
LINE
  8
0
 10
8.04637
 20
136.716
 11
8.01106
 21
136.646
  0
LINE
  8
0
 10
8.01106
 20
136.646
 11
7.97235
 21
136.577
  0
LINE
  8
0
 10
7.97235
 20
136.577
 11
7.93034
 21
136.511
  0
LINE
  8
0
 10
7.93034
 20
136.511
 11
7.88513
 21
136.447
  0
LINE
  8
0
 10
7.88513
 20
136.447
 11
7.83681
 21
136.385
  0
LINE
  8
0
 10
7.83681
 20
136.385
 11
7.78551
 21
136.326
  0
LINE
  8
0
 10
7.78551
 20
136.326
 11
7.73137
 21
136.269
  0
LINE
  8
0
 10
7.73137
 20
136.269
 11
7.67448
 21
136.214
  0
LINE
  8
0
 10
7.67448
 20
136.214
 11
7.61502
 21
136.163
  0
LINE
  8
0
 10
7.61502
 20
136.163
 11
7.55312
 21
136.115
  0
LINE
  8
0
 10
7.55312
 20
136.115
 11
7.48891
 21
136.07
  0
LINE
  8
0
 10
7.48891
 20
136.07
 11
7.42256
 21
136.028
  0
LINE
  8
0
 10
7.42256
 20
136.028
 11
7.35423
 21
135.989
  0
LINE
  8
0
 10
7.35423
 20
135.989
 11
7.28409
 21
135.954
  0
LINE
  8
0
 10
7.28409
 20
135.954
 11
7.21228
 21
135.922
  0
LINE
  8
0
 10
7.21228
 20
135.922
 11
7.13902
 21
135.894
  0
LINE
  8
0
 10
7.13902
 20
135.894
 11
7.06445
 21
135.869
  0
LINE
  8
0
 10
7.06445
 20
135.869
 11
6.98875
 21
135.848
  0
LINE
  8
0
 10
6.98875
 20
135.848
 11
6.91214
 21
135.831
  0
LINE
  8
0
 10
6.91214
 20
135.831
 11
6.83476
 21
135.817
  0
LINE
  8
0
 10
6.83476
 20
135.817
 11
6.75682
 21
135.808
  0
LINE
  8
0
 10
6.75682
 20
135.808
 11
6.6785
 21
135.802
  0
LINE
  8
0
 10
6.6785
 20
135.802
 11
6.59999
 21
135.8
  0
LINE
  8
0
 10
6.59999
 20
135.8
 11
6.52148
 21
135.802
  0
LINE
  8
0
 10
71.9215
 20
62.5269
 11
71.8432
 21
62.5327
  0
LINE
  8
0
 10
71.8432
 20
62.5327
 11
71.7652
 21
62.5423
  0
LINE
  8
0
 10
71.7652
 20
62.5423
 11
71.6879
 21
62.5557
  0
LINE
  8
0
 10
71.6879
 20
62.5557
 11
71.6112
 21
62.5729
  0
LINE
  8
0
 10
71.6112
 20
62.5729
 11
71.5355
 21
62.5939
  0
LINE
  8
0
 10
71.5355
 20
62.5939
 11
71.461
 21
62.6185
  0
LINE
  8
0
 10
71.461
 20
62.6185
 11
71.3877
 21
62.6468
  0
LINE
  8
0
 10
71.3877
 20
62.6468
 11
71.3159
 21
62.6786
  0
LINE
  8
0
 10
71.3159
 20
62.6786
 11
71.2458
 21
62.7139
  0
LINE
  8
0
 10
71.2458
 20
62.7139
 11
71.1774
 21
62.7526
  0
LINE
  8
0
 10
71.1774
 20
62.7526
 11
71.1111
 21
62.7946
  0
LINE
  8
0
 10
71.1111
 20
62.7946
 11
71.0469
 21
62.8399
  0
LINE
  8
0
 10
71.0469
 20
62.8399
 11
70.985
 21
62.8882
  0
LINE
  8
0
 10
70.985
 20
62.8882
 11
70.9255
 21
62.9395
  0
LINE
  8
0
 10
70.9255
 20
62.9395
 11
70.8686
 21
62.9936
  0
LINE
  8
0
 10
70.8686
 20
62.9936
 11
70.8145
 21
63.0505
  0
LINE
  8
0
 10
70.8145
 20
63.0505
 11
70.7632
 21
63.11
  0
LINE
  8
0
 10
70.7632
 20
63.11
 11
70.7149
 21
63.1719
  0
LINE
  8
0
 10
70.7149
 20
63.1719
 11
70.6696
 21
63.2361
  0
LINE
  8
0
 10
70.6696
 20
63.2361
 11
70.6276
 21
63.3024
  0
LINE
  8
0
 10
70.6276
 20
63.3024
 11
70.5889
 21
63.3708
  0
LINE
  8
0
 10
70.5889
 20
63.3708
 11
70.5536
 21
63.4409
  0
LINE
  8
0
 10
70.5536
 20
63.4409
 11
70.5218
 21
63.5127
  0
LINE
  8
0
 10
70.5218
 20
63.5127
 11
70.4935
 21
63.586
  0
LINE
  8
0
 10
70.4935
 20
63.586
 11
70.4689
 21
63.6605
  0
LINE
  8
0
 10
70.4689
 20
63.6605
 11
70.4479
 21
63.7362
  0
LINE
  8
0
 10
70.4479
 20
63.7362
 11
70.4307
 21
63.8129
  0
LINE
  8
0
 10
70.4307
 20
63.8129
 11
70.4173
 21
63.8902
  0
LINE
  8
0
 10
70.4173
 20
63.8902
 11
70.4077
 21
63.9682
  0
LINE
  8
0
 10
70.4077
 20
63.9682
 11
70.4019
 21
64.0465
  0
LINE
  8
0
 10
70.4019
 20
64.0465
 11
70.4
 21
64.125
  0
LINE
  8
0
 10
70.4
 20
64.125
 11
70.4019
 21
64.2035
  0
LINE
  8
0
 10
70.4019
 20
64.2035
 11
70.4077
 21
64.2818
  0
LINE
  8
0
 10
70.4077
 20
64.2818
 11
70.4173
 21
64.3598
  0
LINE
  8
0
 10
70.4173
 20
64.3598
 11
70.4307
 21
64.4371
  0
LINE
  8
0
 10
70.4307
 20
64.4371
 11
70.4479
 21
64.5138
  0
LINE
  8
0
 10
70.4479
 20
64.5138
 11
70.4689
 21
64.5894
  0
LINE
  8
0
 10
70.4689
 20
64.5894
 11
70.4935
 21
64.664
  0
LINE
  8
0
 10
70.4935
 20
64.664
 11
70.5218
 21
64.7373
  0
LINE
  8
0
 10
70.5218
 20
64.7373
 11
70.5536
 21
64.8091
  0
LINE
  8
0
 10
70.5536
 20
64.8091
 11
70.5889
 21
64.8792
  0
LINE
  8
0
 10
70.5889
 20
64.8792
 11
70.6276
 21
64.9476
  0
LINE
  8
0
 10
70.6276
 20
64.9476
 11
70.6696
 21
65.0139
  0
LINE
  8
0
 10
70.6696
 20
65.0139
 11
70.7149
 21
65.0781
  0
LINE
  8
0
 10
70.7149
 20
65.0781
 11
70.7632
 21
65.14
  0
LINE
  8
0
 10
70.7632
 20
65.14
 11
70.8145
 21
65.1995
  0
LINE
  8
0
 10
70.8145
 20
65.1995
 11
70.8686
 21
65.2564
  0
LINE
  8
0
 10
70.8686
 20
65.2564
 11
70.9255
 21
65.3105
  0
LINE
  8
0
 10
70.9255
 20
65.3105
 11
70.985
 21
65.3618
  0
LINE
  8
0
 10
70.985
 20
65.3618
 11
71.0469
 21
65.4101
  0
LINE
  8
0
 10
71.0469
 20
65.4101
 11
71.1111
 21
65.4553
  0
LINE
  8
0
 10
71.1111
 20
65.4553
 11
71.1774
 21
65.4974
  0
LINE
  8
0
 10
71.1774
 20
65.4974
 11
71.2458
 21
65.5361
  0
LINE
  8
0
 10
71.2458
 20
65.5361
 11
71.3159
 21
65.5714
  0
LINE
  8
0
 10
71.3159
 20
65.5714
 11
71.3877
 21
65.6032
  0
LINE
  8
0
 10
71.3877
 20
65.6032
 11
71.461
 21
65.6315
  0
LINE
  8
0
 10
71.461
 20
65.6315
 11
71.5355
 21
65.6561
  0
LINE
  8
0
 10
71.5355
 20
65.6561
 11
71.6112
 21
65.677
  0
LINE
  8
0
 10
71.6112
 20
65.677
 11
71.6879
 21
65.6942
  0
LINE
  8
0
 10
71.6879
 20
65.6942
 11
71.7652
 21
65.7077
  0
LINE
  8
0
 10
71.7652
 20
65.7077
 11
71.8432
 21
65.7173
  0
LINE
  8
0
 10
71.8432
 20
65.7173
 11
71.9215
 21
65.7231
  0
LINE
  8
0
 10
71.9215
 20
65.7231
 11
72
 21
65.725
  0
LINE
  8
0
 10
72
 20
65.725
 11
72.0785
 21
65.7231
  0
LINE
  8
0
 10
72.0785
 20
65.7231
 11
72.1568
 21
65.7173
  0
LINE
  8
0
 10
72.1568
 20
65.7173
 11
72.2348
 21
65.7077
  0
LINE
  8
0
 10
72.2348
 20
65.7077
 11
72.3121
 21
65.6942
  0
LINE
  8
0
 10
72.3121
 20
65.6942
 11
72.3888
 21
65.677
  0
LINE
  8
0
 10
72.3888
 20
65.677
 11
72.4644
 21
65.6561
  0
LINE
  8
0
 10
72.4644
 20
65.6561
 11
72.539
 21
65.6315
  0
LINE
  8
0
 10
72.539
 20
65.6315
 11
72.6123
 21
65.6032
  0
LINE
  8
0
 10
72.6123
 20
65.6032
 11
72.6841
 21
65.5714
  0
LINE
  8
0
 10
72.6841
 20
65.5714
 11
72.7542
 21
65.5361
  0
LINE
  8
0
 10
72.7542
 20
65.5361
 11
72.8226
 21
65.4974
  0
LINE
  8
0
 10
72.8226
 20
65.4974
 11
72.8889
 21
65.4553
  0
LINE
  8
0
 10
72.8889
 20
65.4553
 11
72.9531
 21
65.4101
  0
LINE
  8
0
 10
72.9531
 20
65.4101
 11
73.015
 21
65.3618
  0
LINE
  8
0
 10
73.015
 20
65.3618
 11
73.0745
 21
65.3105
  0
LINE
  8
0
 10
73.0745
 20
65.3105
 11
73.1314
 21
65.2564
  0
LINE
  8
0
 10
73.1314
 20
65.2564
 11
73.1855
 21
65.1995
  0
LINE
  8
0
 10
73.1855
 20
65.1995
 11
73.2368
 21
65.14
  0
LINE
  8
0
 10
73.2368
 20
65.14
 11
73.2851
 21
65.0781
  0
LINE
  8
0
 10
73.2851
 20
65.0781
 11
73.3303
 21
65.0139
  0
LINE
  8
0
 10
73.3303
 20
65.0139
 11
73.3724
 21
64.9476
  0
LINE
  8
0
 10
73.3724
 20
64.9476
 11
73.4111
 21
64.8792
  0
LINE
  8
0
 10
73.4111
 20
64.8792
 11
73.4464
 21
64.8091
  0
LINE
  8
0
 10
73.4464
 20
64.8091
 11
73.4782
 21
64.7373
  0
LINE
  8
0
 10
73.4782
 20
64.7373
 11
73.5065
 21
64.664
  0
LINE
  8
0
 10
73.5065
 20
64.664
 11
73.5311
 21
64.5894
  0
LINE
  8
0
 10
73.5311
 20
64.5894
 11
73.552
 21
64.5138
  0
LINE
  8
0
 10
73.552
 20
64.5138
 11
73.5692
 21
64.4371
  0
LINE
  8
0
 10
73.5692
 20
64.4371
 11
73.5827
 21
64.3598
  0
LINE
  8
0
 10
73.5827
 20
64.3598
 11
73.5923
 21
64.2818
  0
LINE
  8
0
 10
73.5923
 20
64.2818
 11
73.5981
 21
64.2035
  0
LINE
  8
0
 10
73.5981
 20
64.2035
 11
73.6
 21
64.125
  0
LINE
  8
0
 10
73.6
 20
64.125
 11
73.5981
 21
64.0465
  0
LINE
  8
0
 10
73.5981
 20
64.0465
 11
73.5923
 21
63.9682
  0
LINE
  8
0
 10
73.5923
 20
63.9682
 11
73.5827
 21
63.8902
  0
LINE
  8
0
 10
73.5827
 20
63.8902
 11
73.5692
 21
63.8129
  0
LINE
  8
0
 10
73.5692
 20
63.8129
 11
73.552
 21
63.7362
  0
LINE
  8
0
 10
73.552
 20
63.7362
 11
73.5311
 21
63.6605
  0
LINE
  8
0
 10
73.5311
 20
63.6605
 11
73.5065
 21
63.586
  0
LINE
  8
0
 10
73.5065
 20
63.586
 11
73.4782
 21
63.5127
  0
LINE
  8
0
 10
73.4782
 20
63.5127
 11
73.4464
 21
63.4409
  0
LINE
  8
0
 10
73.4464
 20
63.4409
 11
73.4111
 21
63.3708
  0
LINE
  8
0
 10
73.4111
 20
63.3708
 11
73.3724
 21
63.3024
  0
LINE
  8
0
 10
73.3724
 20
63.3024
 11
73.3303
 21
63.2361
  0
LINE
  8
0
 10
73.3303
 20
63.2361
 11
73.2851
 21
63.1719
  0
LINE
  8
0
 10
73.2851
 20
63.1719
 11
73.2368
 21
63.11
  0
LINE
  8
0
 10
73.2368
 20
63.11
 11
73.1855
 21
63.0505
  0
LINE
  8
0
 10
73.1855
 20
63.0505
 11
73.1314
 21
62.9936
  0
LINE
  8
0
 10
73.1314
 20
62.9936
 11
73.0745
 21
62.9395
  0
LINE
  8
0
 10
73.0745
 20
62.9395
 11
73.015
 21
62.8882
  0
LINE
  8
0
 10
73.015
 20
62.8882
 11
72.9531
 21
62.8399
  0
LINE
  8
0
 10
72.9531
 20
62.8399
 11
72.8889
 21
62.7946
  0
LINE
  8
0
 10
72.8889
 20
62.7946
 11
72.8226
 21
62.7526
  0
LINE
  8
0
 10
72.8226
 20
62.7526
 11
72.7542
 21
62.7139
  0
LINE
  8
0
 10
72.7542
 20
62.7139
 11
72.6841
 21
62.6786
  0
LINE
  8
0
 10
72.6841
 20
62.6786
 11
72.6123
 21
62.6468
  0
LINE
  8
0
 10
72.6123
 20
62.6468
 11
72.539
 21
62.6185
  0
LINE
  8
0
 10
72.539
 20
62.6185
 11
72.4644
 21
62.5939
  0
LINE
  8
0
 10
72.4644
 20
62.5939
 11
72.3888
 21
62.5729
  0
LINE
  8
0
 10
72.3888
 20
62.5729
 11
72.3121
 21
62.5557
  0
LINE
  8
0
 10
72.3121
 20
62.5557
 11
72.2348
 21
62.5423
  0
LINE
  8
0
 10
72.2348
 20
62.5423
 11
72.1568
 21
62.5327
  0
LINE
  8
0
 10
72.1568
 20
62.5327
 11
72.0785
 21
62.5269
  0
LINE
  8
0
 10
72.0785
 20
62.5269
 11
72
 21
62.525
  0
LINE
  8
0
 10
72
 20
62.525
 11
71.9215
 21
62.5269
  0
LINE
  8
0
 10
-0.0785065
 20
62.5269
 11
-0.156815
 21
62.5327
  0
LINE
  8
0
 10
-0.156815
 20
62.5327
 11
-0.234756
 21
62.5423
  0
LINE
  8
0
 10
-0.234756
 20
62.5423
 11
-0.312134
 21
62.5557
  0
LINE
  8
0
 10
-0.312134
 20
62.5557
 11
-0.388763
 21
62.5729
  0
LINE
  8
0
 10
-0.388763
 20
62.5729
 11
-0.464447
 21
62.5939
  0
LINE
  8
0
 10
-0.464447
 20
62.5939
 11
-0.539017
 21
62.6185
  0
LINE
  8
0
 10
-0.539017
 20
62.6185
 11
-0.612289
 21
62.6468
  0
LINE
  8
0
 10
-0.612289
 20
62.6468
 11
-0.684082
 21
62.6786
  0
LINE
  8
0
 10
-0.684082
 20
62.6786
 11
-0.754227
 21
62.7139
  0
LINE
  8
0
 10
-0.754227
 20
62.7139
 11
-0.822556
 21
62.7526
  0
LINE
  8
0
 10
-0.822556
 20
62.7526
 11
-0.888901
 21
62.7946
  0
LINE
  8
0
 10
-0.888901
 20
62.7946
 11
-0.95311
 21
62.8399
  0
LINE
  8
0
 10
-0.95311
 20
62.8399
 11
-1.01501
 21
62.8882
  0
LINE
  8
0
 10
-1.01501
 20
62.8882
 11
-1.07449
 21
62.9395
  0
LINE
  8
0
 10
-1.07449
 20
62.9395
 11
-1.13136
 21
62.9936
  0
LINE
  8
0
 10
-1.13136
 20
62.9936
 11
-1.18552
 21
63.0505
  0
LINE
  8
0
 10
-1.18552
 20
63.0505
 11
-1.23682
 21
63.11
  0
LINE
  8
0
 10
-1.23682
 20
63.11
 11
-1.28513
 21
63.1719
  0
LINE
  8
0
 10
-1.28513
 20
63.1719
 11
-1.33034
 21
63.2361
  0
LINE
  8
0
 10
-1.33034
 20
63.2361
 11
-1.37236
 21
63.3024
  0
LINE
  8
0
 10
-1.37236
 20
63.3024
 11
-1.41107
 21
63.3708
  0
LINE
  8
0
 10
-1.41107
 20
63.3708
 11
-1.44638
 21
63.4409
  0
LINE
  8
0
 10
-1.44638
 20
63.4409
 11
-1.4782
 21
63.5127
  0
LINE
  8
0
 10
-1.4782
 20
63.5127
 11
-1.50647
 21
63.586
  0
LINE
  8
0
 10
-1.50647
 20
63.586
 11
-1.5311
 21
63.6605
  0
LINE
  8
0
 10
-1.5311
 20
63.6605
 11
-1.55205
 21
63.7362
  0
LINE
  8
0
 10
-1.55205
 20
63.7362
 11
-1.56924
 21
63.8129
  0
LINE
  8
0
 10
-1.56924
 20
63.8129
 11
-1.58267
 21
63.8902
  0
LINE
  8
0
 10
-1.58267
 20
63.8902
 11
-1.59229
 21
63.9682
  0
LINE
  8
0
 10
-1.59229
 20
63.9682
 11
-1.59807
 21
64.0465
  0
LINE
  8
0
 10
-1.59807
 20
64.0465
 11
-1.59999
 21
64.125
  0
LINE
  8
0
 10
-1.59999
 20
64.125
 11
-1.59807
 21
64.2035
  0
LINE
  8
0
 10
-1.59807
 20
64.2035
 11
-1.59229
 21
64.2818
  0
LINE
  8
0
 10
-1.59229
 20
64.2818
 11
-1.58267
 21
64.3598
  0
LINE
  8
0
 10
-1.58267
 20
64.3598
 11
-1.56924
 21
64.4371
  0
LINE
  8
0
 10
-1.56924
 20
64.4371
 11
-1.55205
 21
64.5138
  0
LINE
  8
0
 10
-1.55205
 20
64.5138
 11
-1.5311
 21
64.5894
  0
LINE
  8
0
 10
-1.5311
 20
64.5894
 11
-1.50647
 21
64.664
  0
LINE
  8
0
 10
-1.50647
 20
64.664
 11
-1.4782
 21
64.7373
  0
LINE
  8
0
 10
-1.4782
 20
64.7373
 11
-1.44638
 21
64.8091
  0
LINE
  8
0
 10
-1.44638
 20
64.8091
 11
-1.41107
 21
64.8792
  0
LINE
  8
0
 10
-1.41107
 20
64.8792
 11
-1.37236
 21
64.9476
  0
LINE
  8
0
 10
-1.37236
 20
64.9476
 11
-1.33034
 21
65.0139
  0
LINE
  8
0
 10
-1.33034
 20
65.0139
 11
-1.28513
 21
65.0781
  0
LINE
  8
0
 10
-1.28513
 20
65.0781
 11
-1.23682
 21
65.14
  0
LINE
  8
0
 10
-1.23682
 20
65.14
 11
-1.18552
 21
65.1995
  0
LINE
  8
0
 10
-1.18552
 20
65.1995
 11
-1.13136
 21
65.2564
  0
LINE
  8
0
 10
-1.13136
 20
65.2564
 11
-1.07449
 21
65.3105
  0
LINE
  8
0
 10
-1.07449
 20
65.3105
 11
-1.01501
 21
65.3618
  0
LINE
  8
0
 10
-1.01501
 20
65.3618
 11
-0.95311
 21
65.4101
  0
LINE
  8
0
 10
-0.95311
 20
65.4101
 11
-0.888901
 21
65.4553
  0
LINE
  8
0
 10
-0.888901
 20
65.4553
 11
-0.822556
 21
65.4974
  0
LINE
  8
0
 10
-0.822556
 20
65.4974
 11
-0.754227
 21
65.5361
  0
LINE
  8
0
 10
-0.754227
 20
65.5361
 11
-0.684082
 21
65.5714
  0
LINE
  8
0
 10
-0.684082
 20
65.5714
 11
-0.612289
 21
65.6032
  0
LINE
  8
0
 10
-0.612289
 20
65.6032
 11
-0.539017
 21
65.6315
  0
LINE
  8
0
 10
-0.539017
 20
65.6315
 11
-0.464447
 21
65.6561
  0
LINE
  8
0
 10
-0.464447
 20
65.6561
 11
-0.388763
 21
65.677
  0
LINE
  8
0
 10
-0.388763
 20
65.677
 11
-0.312134
 21
65.6942
  0
LINE
  8
0
 10
-0.312134
 20
65.6942
 11
-0.234756
 21
65.7077
  0
LINE
  8
0
 10
-0.234756
 20
65.7077
 11
-0.156815
 21
65.7173
  0
LINE
  8
0
 10
-0.156815
 20
65.7173
 11
-0.0785065
 21
65.7231
  0
LINE
  8
0
 10
-0.0785065
 20
65.7231
 11
0
 21
65.725
  0
LINE
  8
0
 10
0
 20
65.725
 11
0.0785217
 21
65.7231
  0
LINE
  8
0
 10
0.0785217
 20
65.7231
 11
0.15683
 21
65.7173
  0
LINE
  8
0
 10
0.15683
 20
65.7173
 11
0.234772
 21
65.7077
  0
LINE
  8
0
 10
0.234772
 20
65.7077
 11
0.312149
 21
65.6942
  0
LINE
  8
0
 10
0.312149
 20
65.6942
 11
0.388779
 21
65.677
  0
LINE
  8
0
 10
0.388779
 20
65.677
 11
0.464462
 21
65.6561
  0
LINE
  8
0
 10
0.464462
 20
65.6561
 11
0.539032
 21
65.6315
  0
LINE
  8
0
 10
0.539032
 20
65.6315
 11
0.612305
 21
65.6032
  0
LINE
  8
0
 10
0.612305
 20
65.6032
 11
0.684097
 21
65.5714
  0
LINE
  8
0
 10
0.684097
 20
65.5714
 11
0.754242
 21
65.5361
  0
LINE
  8
0
 10
0.754242
 20
65.5361
 11
0.822571
 21
65.4974
  0
LINE
  8
0
 10
0.822571
 20
65.4974
 11
0.888916
 21
65.4553
  0
LINE
  8
0
 10
0.888916
 20
65.4553
 11
0.953125
 21
65.4101
  0
LINE
  8
0
 10
0.953125
 20
65.4101
 11
1.01503
 21
65.3618
  0
LINE
  8
0
 10
1.01503
 20
65.3618
 11
1.07451
 21
65.3105
  0
LINE
  8
0
 10
1.07451
 20
65.3105
 11
1.13138
 21
65.2564
  0
LINE
  8
0
 10
1.13138
 20
65.2564
 11
1.18553
 21
65.1995
  0
LINE
  8
0
 10
1.18553
 20
65.1995
 11
1.23683
 21
65.14
  0
LINE
  8
0
 10
1.23683
 20
65.14
 11
1.28514
 21
65.0781
  0
LINE
  8
0
 10
1.28514
 20
65.0781
 11
1.33035
 21
65.0139
  0
LINE
  8
0
 10
1.33035
 20
65.0139
 11
1.37238
 21
64.9476
  0
LINE
  8
0
 10
1.37238
 20
64.9476
 11
1.41109
 21
64.8792
  0
LINE
  8
0
 10
1.41109
 20
64.8792
 11
1.4464
 21
64.8091
  0
LINE
  8
0
 10
1.4464
 20
64.8091
 11
1.47821
 21
64.7373
  0
LINE
  8
0
 10
1.47821
 20
64.7373
 11
1.50648
 21
64.664
  0
LINE
  8
0
 10
1.50648
 20
64.664
 11
1.53111
 21
64.5894
  0
LINE
  8
0
 10
1.53111
 20
64.5894
 11
1.55206
 21
64.5138
  0
LINE
  8
0
 10
1.55206
 20
64.5138
 11
1.56926
 21
64.4371
  0
LINE
  8
0
 10
1.56926
 20
64.4371
 11
1.58269
 21
64.3598
  0
LINE
  8
0
 10
1.58269
 20
64.3598
 11
1.5923
 21
64.2818
  0
LINE
  8
0
 10
1.5923
 20
64.2818
 11
1.59808
 21
64.2035
  0
LINE
  8
0
 10
1.59808
 20
64.2035
 11
1.60001
 21
64.125
  0
LINE
  8
0
 10
1.60001
 20
64.125
 11
1.59808
 21
64.0465
  0
LINE
  8
0
 10
1.59808
 20
64.0465
 11
1.5923
 21
63.9682
  0
LINE
  8
0
 10
1.5923
 20
63.9682
 11
1.58269
 21
63.8902
  0
LINE
  8
0
 10
1.58269
 20
63.8902
 11
1.56926
 21
63.8129
  0
LINE
  8
0
 10
1.56926
 20
63.8129
 11
1.55206
 21
63.7362
  0
LINE
  8
0
 10
1.55206
 20
63.7362
 11
1.53111
 21
63.6605
  0
LINE
  8
0
 10
1.53111
 20
63.6605
 11
1.50648
 21
63.586
  0
LINE
  8
0
 10
1.50648
 20
63.586
 11
1.47821
 21
63.5127
  0
LINE
  8
0
 10
1.47821
 20
63.5127
 11
1.4464
 21
63.4409
  0
LINE
  8
0
 10
1.4464
 20
63.4409
 11
1.41109
 21
63.3708
  0
LINE
  8
0
 10
1.41109
 20
63.3708
 11
1.37238
 21
63.3024
  0
LINE
  8
0
 10
1.37238
 20
63.3024
 11
1.33035
 21
63.2361
  0
LINE
  8
0
 10
1.33035
 20
63.2361
 11
1.28514
 21
63.1719
  0
LINE
  8
0
 10
1.28514
 20
63.1719
 11
1.23683
 21
63.11
  0
LINE
  8
0
 10
1.23683
 20
63.11
 11
1.18553
 21
63.0505
  0
LINE
  8
0
 10
1.18553
 20
63.0505
 11
1.13138
 21
62.9936
  0
LINE
  8
0
 10
1.13138
 20
62.9936
 11
1.07451
 21
62.9395
  0
LINE
  8
0
 10
1.07451
 20
62.9395
 11
1.01503
 21
62.8882
  0
LINE
  8
0
 10
1.01503
 20
62.8882
 11
0.953125
 21
62.8399
  0
LINE
  8
0
 10
0.953125
 20
62.8399
 11
0.888916
 21
62.7946
  0
LINE
  8
0
 10
0.888916
 20
62.7946
 11
0.822571
 21
62.7526
  0
LINE
  8
0
 10
0.822571
 20
62.7526
 11
0.754242
 21
62.7139
  0
LINE
  8
0
 10
0.754242
 20
62.7139
 11
0.684097
 21
62.6786
  0
LINE
  8
0
 10
0.684097
 20
62.6786
 11
0.612305
 21
62.6468
  0
LINE
  8
0
 10
0.612305
 20
62.6468
 11
0.539032
 21
62.6185
  0
LINE
  8
0
 10
0.539032
 20
62.6185
 11
0.464462
 21
62.5939
  0
LINE
  8
0
 10
0.464462
 20
62.5939
 11
0.388779
 21
62.5729
  0
LINE
  8
0
 10
0.388779
 20
62.5729
 11
0.312149
 21
62.5557
  0
LINE
  8
0
 10
0.312149
 20
62.5557
 11
0.234772
 21
62.5423
  0
LINE
  8
0
 10
0.234772
 20
62.5423
 11
0.15683
 21
62.5327
  0
LINE
  8
0
 10
0.15683
 20
62.5327
 11
0.0785217
 21
62.5269
  0
LINE
  8
0
 10
0.0785217
 20
62.5269
 11
0
 21
62.525
  0
LINE
  8
0
 10
0
 20
62.525
 11
-0.0785065
 21
62.5269
  0
LINE
  8
0
 10
85.3215
 20
56.8019
 11
85.2432
 21
56.8077
  0
LINE
  8
0
 10
85.2432
 20
56.8077
 11
85.1652
 21
56.8173
  0
LINE
  8
0
 10
85.1652
 20
56.8173
 11
85.0878
 21
56.8307
  0
LINE
  8
0
 10
85.0878
 20
56.8307
 11
85.0112
 21
56.8479
  0
LINE
  8
0
 10
85.0112
 20
56.8479
 11
84.9355
 21
56.8689
  0
LINE
  8
0
 10
84.9355
 20
56.8689
 11
84.861
 21
56.8935
  0
LINE
  8
0
 10
84.861
 20
56.8935
 11
84.7877
 21
56.9218
  0
LINE
  8
0
 10
84.7877
 20
56.9218
 11
84.7159
 21
56.9536
  0
LINE
  8
0
 10
84.7159
 20
56.9536
 11
84.6458
 21
56.9889
  0
LINE
  8
0
 10
84.6458
 20
56.9889
 11
84.5774
 21
57.0276
  0
LINE
  8
0
 10
84.5774
 20
57.0276
 11
84.5111
 21
57.0696
  0
LINE
  8
0
 10
84.5111
 20
57.0696
 11
84.4469
 21
57.1149
  0
LINE
  8
0
 10
84.4469
 20
57.1149
 11
84.385
 21
57.1632
  0
LINE
  8
0
 10
84.385
 20
57.1632
 11
84.3255
 21
57.2145
  0
LINE
  8
0
 10
84.3255
 20
57.2145
 11
84.2686
 21
57.2686
  0
LINE
  8
0
 10
84.2686
 20
57.2686
 11
84.2145
 21
57.3255
  0
LINE
  8
0
 10
84.2145
 20
57.3255
 11
84.1632
 21
57.385
  0
LINE
  8
0
 10
84.1632
 20
57.385
 11
84.1149
 21
57.4469
  0
LINE
  8
0
 10
84.1149
 20
57.4469
 11
84.0696
 21
57.5111
  0
LINE
  8
0
 10
84.0696
 20
57.5111
 11
84.0276
 21
57.5774
  0
LINE
  8
0
 10
84.0276
 20
57.5774
 11
83.9889
 21
57.6458
  0
LINE
  8
0
 10
83.9889
 20
57.6458
 11
83.9536
 21
57.7159
  0
LINE
  8
0
 10
83.9536
 20
57.7159
 11
83.9218
 21
57.7877
  0
LINE
  8
0
 10
83.9218
 20
57.7877
 11
83.8935
 21
57.861
  0
LINE
  8
0
 10
83.8935
 20
57.861
 11
83.8689
 21
57.9355
  0
LINE
  8
0
 10
83.8689
 20
57.9355
 11
83.8479
 21
58.0112
  0
LINE
  8
0
 10
83.8479
 20
58.0112
 11
83.8307
 21
58.0878
  0
LINE
  8
0
 10
83.8307
 20
58.0878
 11
83.8173
 21
58.1652
  0
LINE
  8
0
 10
83.8173
 20
58.1652
 11
83.8077
 21
58.2432
  0
LINE
  8
0
 10
83.8077
 20
58.2432
 11
83.8019
 21
58.3215
  0
LINE
  8
0
 10
83.8019
 20
58.3215
 11
83.8
 21
58.4
  0
LINE
  8
0
 10
83.8
 20
58.4
 11
83.8019
 21
58.4785
  0
LINE
  8
0
 10
83.8019
 20
58.4785
 11
83.8077
 21
58.5568
  0
LINE
  8
0
 10
83.8077
 20
58.5568
 11
83.8173
 21
58.6348
  0
LINE
  8
0
 10
83.8173
 20
58.6348
 11
83.8307
 21
58.7121
  0
LINE
  8
0
 10
83.8307
 20
58.7121
 11
83.8479
 21
58.7888
  0
LINE
  8
0
 10
83.8479
 20
58.7888
 11
83.8689
 21
58.8644
  0
LINE
  8
0
 10
83.8689
 20
58.8644
 11
83.8935
 21
58.939
  0
LINE
  8
0
 10
83.8935
 20
58.939
 11
83.9218
 21
59.0123
  0
LINE
  8
0
 10
83.9218
 20
59.0123
 11
83.9536
 21
59.0841
  0
LINE
  8
0
 10
83.9536
 20
59.0841
 11
83.9889
 21
59.1542
  0
LINE
  8
0
 10
83.9889
 20
59.1542
 11
84.0276
 21
59.2225
  0
LINE
  8
0
 10
84.0276
 20
59.2225
 11
84.0696
 21
59.2889
  0
LINE
  8
0
 10
84.0696
 20
59.2889
 11
84.1149
 21
59.3531
  0
LINE
  8
0
 10
84.1149
 20
59.3531
 11
84.1632
 21
59.415
  0
LINE
  8
0
 10
84.1632
 20
59.415
 11
84.2145
 21
59.4745
  0
LINE
  8
0
 10
84.2145
 20
59.4745
 11
84.2686
 21
59.5314
  0
LINE
  8
0
 10
84.2686
 20
59.5314
 11
84.3255
 21
59.5855
  0
LINE
  8
0
 10
84.3255
 20
59.5855
 11
84.385
 21
59.6368
  0
LINE
  8
0
 10
84.385
 20
59.6368
 11
84.4469
 21
59.6851
  0
LINE
  8
0
 10
84.4469
 20
59.6851
 11
84.5111
 21
59.7303
  0
LINE
  8
0
 10
84.5111
 20
59.7303
 11
84.5774
 21
59.7724
  0
LINE
  8
0
 10
84.5774
 20
59.7724
 11
84.6458
 21
59.8111
  0
LINE
  8
0
 10
84.6458
 20
59.8111
 11
84.7159
 21
59.8464
  0
LINE
  8
0
 10
84.7159
 20
59.8464
 11
84.7877
 21
59.8782
  0
LINE
  8
0
 10
84.7877
 20
59.8782
 11
84.861
 21
59.9065
  0
LINE
  8
0
 10
84.861
 20
59.9065
 11
84.9355
 21
59.9311
  0
LINE
  8
0
 10
84.9355
 20
59.9311
 11
85.0112
 21
59.952
  0
LINE
  8
0
 10
85.0112
 20
59.952
 11
85.0878
 21
59.9693
  0
LINE
  8
0
 10
85.0878
 20
59.9693
 11
85.1652
 21
59.9827
  0
LINE
  8
0
 10
85.1652
 20
59.9827
 11
85.2432
 21
59.9923
  0
LINE
  8
0
 10
85.2432
 20
59.9923
 11
85.3215
 21
59.9981
  0
LINE
  8
0
 10
85.3215
 20
59.9981
 11
85.4
 21
60
  0
LINE
  8
0
 10
85.4
 20
60
 11
85.4785
 21
59.9981
  0
LINE
  8
0
 10
85.4785
 20
59.9981
 11
85.5568
 21
59.9923
  0
LINE
  8
0
 10
85.5568
 20
59.9923
 11
85.6348
 21
59.9827
  0
LINE
  8
0
 10
85.6348
 20
59.9827
 11
85.7121
 21
59.9693
  0
LINE
  8
0
 10
85.7121
 20
59.9693
 11
85.7888
 21
59.952
  0
LINE
  8
0
 10
85.7888
 20
59.952
 11
85.8644
 21
59.9311
  0
LINE
  8
0
 10
85.8644
 20
59.9311
 11
85.939
 21
59.9065
  0
LINE
  8
0
 10
85.939
 20
59.9065
 11
86.0123
 21
59.8782
  0
LINE
  8
0
 10
86.0123
 20
59.8782
 11
86.0841
 21
59.8464
  0
LINE
  8
0
 10
86.0841
 20
59.8464
 11
86.1542
 21
59.8111
  0
LINE
  8
0
 10
86.1542
 20
59.8111
 11
86.2225
 21
59.7724
  0
LINE
  8
0
 10
86.2225
 20
59.7724
 11
86.2889
 21
59.7303
  0
LINE
  8
0
 10
86.2889
 20
59.7303
 11
86.3531
 21
59.6851
  0
LINE
  8
0
 10
86.3531
 20
59.6851
 11
86.415
 21
59.6368
  0
LINE
  8
0
 10
86.415
 20
59.6368
 11
86.4745
 21
59.5855
  0
LINE
  8
0
 10
86.4745
 20
59.5855
 11
86.5314
 21
59.5314
  0
LINE
  8
0
 10
86.5314
 20
59.5314
 11
86.5855
 21
59.4745
  0
LINE
  8
0
 10
86.5855
 20
59.4745
 11
86.6368
 21
59.415
  0
LINE
  8
0
 10
86.6368
 20
59.415
 11
86.6851
 21
59.3531
  0
LINE
  8
0
 10
86.6851
 20
59.3531
 11
86.7303
 21
59.2889
  0
LINE
  8
0
 10
86.7303
 20
59.2889
 11
86.7724
 21
59.2225
  0
LINE
  8
0
 10
86.7724
 20
59.2225
 11
86.8111
 21
59.1542
  0
LINE
  8
0
 10
86.8111
 20
59.1542
 11
86.8464
 21
59.0841
  0
LINE
  8
0
 10
86.8464
 20
59.0841
 11
86.8782
 21
59.0123
  0
LINE
  8
0
 10
86.8782
 20
59.0123
 11
86.9065
 21
58.939
  0
LINE
  8
0
 10
86.9065
 20
58.939
 11
86.9311
 21
58.8644
  0
LINE
  8
0
 10
86.9311
 20
58.8644
 11
86.952
 21
58.7888
  0
LINE
  8
0
 10
86.952
 20
58.7888
 11
86.9693
 21
58.7121
  0
LINE
  8
0
 10
86.9693
 20
58.7121
 11
86.9827
 21
58.6348
  0
LINE
  8
0
 10
86.9827
 20
58.6348
 11
86.9923
 21
58.5568
  0
LINE
  8
0
 10
86.9923
 20
58.5568
 11
86.9981
 21
58.4785
  0
LINE
  8
0
 10
86.9981
 20
58.4785
 11
87
 21
58.4
  0
LINE
  8
0
 10
87
 20
58.4
 11
86.9981
 21
58.3215
  0
LINE
  8
0
 10
86.9981
 20
58.3215
 11
86.9923
 21
58.2432
  0
LINE
  8
0
 10
86.9923
 20
58.2432
 11
86.9827
 21
58.1652
  0
LINE
  8
0
 10
86.9827
 20
58.1652
 11
86.9693
 21
58.0878
  0
LINE
  8
0
 10
86.9693
 20
58.0878
 11
86.952
 21
58.0112
  0
LINE
  8
0
 10
86.952
 20
58.0112
 11
86.9311
 21
57.9355
  0
LINE
  8
0
 10
86.9311
 20
57.9355
 11
86.9065
 21
57.861
  0
LINE
  8
0
 10
86.9065
 20
57.861
 11
86.8782
 21
57.7877
  0
LINE
  8
0
 10
86.8782
 20
57.7877
 11
86.8464
 21
57.7159
  0
LINE
  8
0
 10
86.8464
 20
57.7159
 11
86.8111
 21
57.6458
  0
LINE
  8
0
 10
86.8111
 20
57.6458
 11
86.7724
 21
57.5774
  0
LINE
  8
0
 10
86.7724
 20
57.5774
 11
86.7303
 21
57.5111
  0
LINE
  8
0
 10
86.7303
 20
57.5111
 11
86.6851
 21
57.4469
  0
LINE
  8
0
 10
86.6851
 20
57.4469
 11
86.6368
 21
57.385
  0
LINE
  8
0
 10
86.6368
 20
57.385
 11
86.5855
 21
57.3255
  0
LINE
  8
0
 10
86.5855
 20
57.3255
 11
86.5314
 21
57.2686
  0
LINE
  8
0
 10
86.5314
 20
57.2686
 11
86.4745
 21
57.2145
  0
LINE
  8
0
 10
86.4745
 20
57.2145
 11
86.415
 21
57.1632
  0
LINE
  8
0
 10
86.415
 20
57.1632
 11
86.3531
 21
57.1149
  0
LINE
  8
0
 10
86.3531
 20
57.1149
 11
86.2889
 21
57.0696
  0
LINE
  8
0
 10
86.2889
 20
57.0696
 11
86.2225
 21
57.0276
  0
LINE
  8
0
 10
86.2225
 20
57.0276
 11
86.1542
 21
56.9889
  0
LINE
  8
0
 10
86.1542
 20
56.9889
 11
86.0841
 21
56.9536
  0
LINE
  8
0
 10
86.0841
 20
56.9536
 11
86.0123
 21
56.9218
  0
LINE
  8
0
 10
86.0123
 20
56.9218
 11
85.939
 21
56.8935
  0
LINE
  8
0
 10
85.939
 20
56.8935
 11
85.8644
 21
56.8689
  0
LINE
  8
0
 10
85.8644
 20
56.8689
 11
85.7888
 21
56.8479
  0
LINE
  8
0
 10
85.7888
 20
56.8479
 11
85.7121
 21
56.8307
  0
LINE
  8
0
 10
85.7121
 20
56.8307
 11
85.6348
 21
56.8173
  0
LINE
  8
0
 10
85.6348
 20
56.8173
 11
85.5568
 21
56.8077
  0
LINE
  8
0
 10
85.5568
 20
56.8077
 11
85.4785
 21
56.8019
  0
LINE
  8
0
 10
85.4785
 20
56.8019
 11
85.4
 21
56.8
  0
LINE
  8
0
 10
85.4
 20
56.8
 11
85.3215
 21
56.8019
  0
LINE
  8
0
 10
-0.75
 20
24.375
 11
-0.75
 21
59.625
  0
LINE
  8
0
 10
-0.75
 20
59.625
 11
72.75
 21
59.625
  0
LINE
  8
0
 10
72.75
 20
59.625
 11
72.75
 21
24.375
  0
LINE
  8
0
 10
72.75
 20
24.375
 11
-0.75
 21
24.375
  0
LINE
  8
0
 10
71.9215
 20
18.2769
 11
71.8432
 21
18.2827
  0
LINE
  8
0
 10
71.8432
 20
18.2827
 11
71.7652
 21
18.2923
  0
LINE
  8
0
 10
71.7652
 20
18.2923
 11
71.6879
 21
18.3058
  0
LINE
  8
0
 10
71.6879
 20
18.3058
 11
71.6112
 21
18.323
  0
LINE
  8
0
 10
71.6112
 20
18.323
 11
71.5355
 21
18.3439
  0
LINE
  8
0
 10
71.5355
 20
18.3439
 11
71.461
 21
18.3685
  0
LINE
  8
0
 10
71.461
 20
18.3685
 11
71.3877
 21
18.3968
  0
LINE
  8
0
 10
71.3877
 20
18.3968
 11
71.3159
 21
18.4286
  0
LINE
  8
0
 10
71.3159
 20
18.4286
 11
71.2458
 21
18.4639
  0
LINE
  8
0
 10
71.2458
 20
18.4639
 11
71.1774
 21
18.5026
  0
LINE
  8
0
 10
71.1774
 20
18.5026
 11
71.1111
 21
18.5447
  0
LINE
  8
0
 10
71.1111
 20
18.5447
 11
71.0469
 21
18.5899
  0
LINE
  8
0
 10
71.0469
 20
18.5899
 11
70.985
 21
18.6382
  0
LINE
  8
0
 10
70.985
 20
18.6382
 11
70.9255
 21
18.6895
  0
LINE
  8
0
 10
70.9255
 20
18.6895
 11
70.8686
 21
18.7436
  0
LINE
  8
0
 10
70.8686
 20
18.7436
 11
70.8145
 21
18.8005
  0
LINE
  8
0
 10
70.8145
 20
18.8005
 11
70.7632
 21
18.86
  0
LINE
  8
0
 10
70.7632
 20
18.86
 11
70.7149
 21
18.9219
  0
LINE
  8
0
 10
70.7149
 20
18.9219
 11
70.6696
 21
18.9861
  0
LINE
  8
0
 10
70.6696
 20
18.9861
 11
70.6276
 21
19.0524
  0
LINE
  8
0
 10
70.6276
 20
19.0524
 11
70.5889
 21
19.1208
  0
LINE
  8
0
 10
70.5889
 20
19.1208
 11
70.5536
 21
19.1909
  0
LINE
  8
0
 10
70.5536
 20
19.1909
 11
70.5218
 21
19.2627
  0
LINE
  8
0
 10
70.5218
 20
19.2627
 11
70.4935
 21
19.336
  0
LINE
  8
0
 10
70.4935
 20
19.336
 11
70.4689
 21
19.4106
  0
LINE
  8
0
 10
70.4689
 20
19.4106
 11
70.4479
 21
19.4862
  0
LINE
  8
0
 10
70.4479
 20
19.4862
 11
70.4307
 21
19.5629
  0
LINE
  8
0
 10
70.4307
 20
19.5629
 11
70.4173
 21
19.6402
  0
LINE
  8
0
 10
70.4173
 20
19.6402
 11
70.4077
 21
19.7182
  0
LINE
  8
0
 10
70.4077
 20
19.7182
 11
70.4019
 21
19.7965
  0
LINE
  8
0
 10
70.4019
 20
19.7965
 11
70.4
 21
19.875
  0
LINE
  8
0
 10
70.4
 20
19.875
 11
70.4019
 21
19.9535
  0
LINE
  8
0
 10
70.4019
 20
19.9535
 11
70.4077
 21
20.0318
  0
LINE
  8
0
 10
70.4077
 20
20.0318
 11
70.4173
 21
20.1098
  0
LINE
  8
0
 10
70.4173
 20
20.1098
 11
70.4307
 21
20.1871
  0
LINE
  8
0
 10
70.4307
 20
20.1871
 11
70.4479
 21
20.2638
  0
LINE
  8
0
 10
70.4479
 20
20.2638
 11
70.4689
 21
20.3395
  0
LINE
  8
0
 10
70.4689
 20
20.3395
 11
70.4935
 21
20.414
  0
LINE
  8
0
 10
70.4935
 20
20.414
 11
70.5218
 21
20.4873
  0
LINE
  8
0
 10
70.5218
 20
20.4873
 11
70.5536
 21
20.5591
  0
LINE
  8
0
 10
70.5536
 20
20.5591
 11
70.5889
 21
20.6292
  0
LINE
  8
0
 10
70.5889
 20
20.6292
 11
70.6276
 21
20.6976
  0
LINE
  8
0
 10
70.6276
 20
20.6976
 11
70.6696
 21
20.7639
  0
LINE
  8
0
 10
70.6696
 20
20.7639
 11
70.7149
 21
20.8281
  0
LINE
  8
0
 10
70.7149
 20
20.8281
 11
70.7632
 21
20.89
  0
LINE
  8
0
 10
70.7632
 20
20.89
 11
70.8145
 21
20.9495
  0
LINE
  8
0
 10
70.8145
 20
20.9495
 11
70.8686
 21
21.0064
  0
LINE
  8
0
 10
70.8686
 20
21.0064
 11
70.9255
 21
21.0605
  0
LINE
  8
0
 10
70.9255
 20
21.0605
 11
70.985
 21
21.1118
  0
LINE
  8
0
 10
70.985
 20
21.1118
 11
71.0469
 21
21.1601
  0
LINE
  8
0
 10
71.0469
 20
21.1601
 11
71.1111
 21
21.2054
  0
LINE
  8
0
 10
71.1111
 20
21.2054
 11
71.1774
 21
21.2474
  0
LINE
  8
0
 10
71.1774
 20
21.2474
 11
71.2458
 21
21.2861
  0
LINE
  8
0
 10
71.2458
 20
21.2861
 11
71.3159
 21
21.3214
  0
LINE
  8
0
 10
71.3159
 20
21.3214
 11
71.3877
 21
21.3532
  0
LINE
  8
0
 10
71.3877
 20
21.3532
 11
71.461
 21
21.3815
  0
LINE
  8
0
 10
71.461
 20
21.3815
 11
71.5355
 21
21.4061
  0
LINE
  8
0
 10
71.5355
 20
21.4061
 11
71.6112
 21
21.4271
  0
LINE
  8
0
 10
71.6112
 20
21.4271
 11
71.6879
 21
21.4443
  0
LINE
  8
0
 10
71.6879
 20
21.4443
 11
71.7652
 21
21.4577
  0
LINE
  8
0
 10
71.7652
 20
21.4577
 11
71.8432
 21
21.4673
  0
LINE
  8
0
 10
71.8432
 20
21.4673
 11
71.9215
 21
21.4731
  0
LINE
  8
0
 10
71.9215
 20
21.4731
 11
72
 21
21.475
  0
LINE
  8
0
 10
72
 20
21.475
 11
72.0785
 21
21.4731
  0
LINE
  8
0
 10
72.0785
 20
21.4731
 11
72.1568
 21
21.4673
  0
LINE
  8
0
 10
72.1568
 20
21.4673
 11
72.2348
 21
21.4577
  0
LINE
  8
0
 10
72.2348
 20
21.4577
 11
72.3121
 21
21.4443
  0
LINE
  8
0
 10
72.3121
 20
21.4443
 11
72.3888
 21
21.4271
  0
LINE
  8
0
 10
72.3888
 20
21.4271
 11
72.4644
 21
21.4061
  0
LINE
  8
0
 10
72.4644
 20
21.4061
 11
72.539
 21
21.3815
  0
LINE
  8
0
 10
72.539
 20
21.3815
 11
72.6123
 21
21.3532
  0
LINE
  8
0
 10
72.6123
 20
21.3532
 11
72.6841
 21
21.3214
  0
LINE
  8
0
 10
72.6841
 20
21.3214
 11
72.7542
 21
21.2861
  0
LINE
  8
0
 10
72.7542
 20
21.2861
 11
72.8226
 21
21.2474
  0
LINE
  8
0
 10
72.8226
 20
21.2474
 11
72.8889
 21
21.2054
  0
LINE
  8
0
 10
72.8889
 20
21.2054
 11
72.9531
 21
21.1601
  0
LINE
  8
0
 10
72.9531
 20
21.1601
 11
73.015
 21
21.1118
  0
LINE
  8
0
 10
73.015
 20
21.1118
 11
73.0745
 21
21.0605
  0
LINE
  8
0
 10
73.0745
 20
21.0605
 11
73.1314
 21
21.0064
  0
LINE
  8
0
 10
73.1314
 20
21.0064
 11
73.1855
 21
20.9495
  0
LINE
  8
0
 10
73.1855
 20
20.9495
 11
73.2368
 21
20.89
  0
LINE
  8
0
 10
73.2368
 20
20.89
 11
73.2851
 21
20.8281
  0
LINE
  8
0
 10
73.2851
 20
20.8281
 11
73.3303
 21
20.7639
  0
LINE
  8
0
 10
73.3303
 20
20.7639
 11
73.3724
 21
20.6976
  0
LINE
  8
0
 10
73.3724
 20
20.6976
 11
73.4111
 21
20.6292
  0
LINE
  8
0
 10
73.4111
 20
20.6292
 11
73.4464
 21
20.5591
  0
LINE
  8
0
 10
73.4464
 20
20.5591
 11
73.4782
 21
20.4873
  0
LINE
  8
0
 10
73.4782
 20
20.4873
 11
73.5065
 21
20.414
  0
LINE
  8
0
 10
73.5065
 20
20.414
 11
73.5311
 21
20.3395
  0
LINE
  8
0
 10
73.5311
 20
20.3395
 11
73.552
 21
20.2638
  0
LINE
  8
0
 10
73.552
 20
20.2638
 11
73.5692
 21
20.1871
  0
LINE
  8
0
 10
73.5692
 20
20.1871
 11
73.5827
 21
20.1098
  0
LINE
  8
0
 10
73.5827
 20
20.1098
 11
73.5923
 21
20.0318
  0
LINE
  8
0
 10
73.5923
 20
20.0318
 11
73.5981
 21
19.9535
  0
LINE
  8
0
 10
73.5981
 20
19.9535
 11
73.6
 21
19.875
  0
LINE
  8
0
 10
73.6
 20
19.875
 11
73.5981
 21
19.7965
  0
LINE
  8
0
 10
73.5981
 20
19.7965
 11
73.5923
 21
19.7182
  0
LINE
  8
0
 10
73.5923
 20
19.7182
 11
73.5827
 21
19.6402
  0
LINE
  8
0
 10
73.5827
 20
19.6402
 11
73.5692
 21
19.5629
  0
LINE
  8
0
 10
73.5692
 20
19.5629
 11
73.552
 21
19.4862
  0
LINE
  8
0
 10
73.552
 20
19.4862
 11
73.5311
 21
19.4106
  0
LINE
  8
0
 10
73.5311
 20
19.4106
 11
73.5065
 21
19.336
  0
LINE
  8
0
 10
73.5065
 20
19.336
 11
73.4782
 21
19.2627
  0
LINE
  8
0
 10
73.4782
 20
19.2627
 11
73.4464
 21
19.1909
  0
LINE
  8
0
 10
73.4464
 20
19.1909
 11
73.4111
 21
19.1208
  0
LINE
  8
0
 10
73.4111
 20
19.1208
 11
73.3724
 21
19.0524
  0
LINE
  8
0
 10
73.3724
 20
19.0524
 11
73.3303
 21
18.9861
  0
LINE
  8
0
 10
73.3303
 20
18.9861
 11
73.2851
 21
18.9219
  0
LINE
  8
0
 10
73.2851
 20
18.9219
 11
73.2368
 21
18.86
  0
LINE
  8
0
 10
73.2368
 20
18.86
 11
73.1855
 21
18.8005
  0
LINE
  8
0
 10
73.1855
 20
18.8005
 11
73.1314
 21
18.7436
  0
LINE
  8
0
 10
73.1314
 20
18.7436
 11
73.0745
 21
18.6895
  0
LINE
  8
0
 10
73.0745
 20
18.6895
 11
73.015
 21
18.6382
  0
LINE
  8
0
 10
73.015
 20
18.6382
 11
72.9531
 21
18.5899
  0
LINE
  8
0
 10
72.9531
 20
18.5899
 11
72.8889
 21
18.5447
  0
LINE
  8
0
 10
72.8889
 20
18.5447
 11
72.8226
 21
18.5026
  0
LINE
  8
0
 10
72.8226
 20
18.5026
 11
72.7542
 21
18.4639
  0
LINE
  8
0
 10
72.7542
 20
18.4639
 11
72.6841
 21
18.4286
  0
LINE
  8
0
 10
72.6841
 20
18.4286
 11
72.6123
 21
18.3968
  0
LINE
  8
0
 10
72.6123
 20
18.3968
 11
72.539
 21
18.3685
  0
LINE
  8
0
 10
72.539
 20
18.3685
 11
72.4644
 21
18.3439
  0
LINE
  8
0
 10
72.4644
 20
18.3439
 11
72.3888
 21
18.323
  0
LINE
  8
0
 10
72.3888
 20
18.323
 11
72.3121
 21
18.3058
  0
LINE
  8
0
 10
72.3121
 20
18.3058
 11
72.2348
 21
18.2923
  0
LINE
  8
0
 10
72.2348
 20
18.2923
 11
72.1568
 21
18.2827
  0
LINE
  8
0
 10
72.1568
 20
18.2827
 11
72.0785
 21
18.2769
  0
LINE
  8
0
 10
72.0785
 20
18.2769
 11
72
 21
18.275
  0
LINE
  8
0
 10
72
 20
18.275
 11
71.9215
 21
18.2769
  0
LINE
  8
0
 10
-0.0785065
 20
18.2769
 11
-0.156815
 21
18.2827
  0
LINE
  8
0
 10
-0.156815
 20
18.2827
 11
-0.234756
 21
18.2923
  0
LINE
  8
0
 10
-0.234756
 20
18.2923
 11
-0.312134
 21
18.3058
  0
LINE
  8
0
 10
-0.312134
 20
18.3058
 11
-0.388763
 21
18.323
  0
LINE
  8
0
 10
-0.388763
 20
18.323
 11
-0.464447
 21
18.3439
  0
LINE
  8
0
 10
-0.464447
 20
18.3439
 11
-0.539017
 21
18.3685
  0
LINE
  8
0
 10
-0.539017
 20
18.3685
 11
-0.612289
 21
18.3968
  0
LINE
  8
0
 10
-0.612289
 20
18.3968
 11
-0.684082
 21
18.4286
  0
LINE
  8
0
 10
-0.684082
 20
18.4286
 11
-0.754227
 21
18.4639
  0
LINE
  8
0
 10
-0.754227
 20
18.4639
 11
-0.822556
 21
18.5026
  0
LINE
  8
0
 10
-0.822556
 20
18.5026
 11
-0.888901
 21
18.5447
  0
LINE
  8
0
 10
-0.888901
 20
18.5447
 11
-0.95311
 21
18.5899
  0
LINE
  8
0
 10
-0.95311
 20
18.5899
 11
-1.01501
 21
18.6382
  0
LINE
  8
0
 10
-1.01501
 20
18.6382
 11
-1.07449
 21
18.6895
  0
LINE
  8
0
 10
-1.07449
 20
18.6895
 11
-1.13136
 21
18.7436
  0
LINE
  8
0
 10
-1.13136
 20
18.7436
 11
-1.18552
 21
18.8005
  0
LINE
  8
0
 10
-1.18552
 20
18.8005
 11
-1.23682
 21
18.86
  0
LINE
  8
0
 10
-1.23682
 20
18.86
 11
-1.28513
 21
18.9219
  0
LINE
  8
0
 10
-1.28513
 20
18.9219
 11
-1.33034
 21
18.9861
  0
LINE
  8
0
 10
-1.33034
 20
18.9861
 11
-1.37236
 21
19.0524
  0
LINE
  8
0
 10
-1.37236
 20
19.0524
 11
-1.41107
 21
19.1208
  0
LINE
  8
0
 10
-1.41107
 20
19.1208
 11
-1.44638
 21
19.1909
  0
LINE
  8
0
 10
-1.44638
 20
19.1909
 11
-1.4782
 21
19.2627
  0
LINE
  8
0
 10
-1.4782
 20
19.2627
 11
-1.50647
 21
19.336
  0
LINE
  8
0
 10
-1.50647
 20
19.336
 11
-1.5311
 21
19.4106
  0
LINE
  8
0
 10
-1.5311
 20
19.4106
 11
-1.55205
 21
19.4862
  0
LINE
  8
0
 10
-1.55205
 20
19.4862
 11
-1.56924
 21
19.5629
  0
LINE
  8
0
 10
-1.56924
 20
19.5629
 11
-1.58267
 21
19.6402
  0
LINE
  8
0
 10
-1.58267
 20
19.6402
 11
-1.59229
 21
19.7182
  0
LINE
  8
0
 10
-1.59229
 20
19.7182
 11
-1.59807
 21
19.7965
  0
LINE
  8
0
 10
-1.59807
 20
19.7965
 11
-1.59999
 21
19.875
  0
LINE
  8
0
 10
-1.59999
 20
19.875
 11
-1.59807
 21
19.9535
  0
LINE
  8
0
 10
-1.59807
 20
19.9535
 11
-1.59229
 21
20.0318
  0
LINE
  8
0
 10
-1.59229
 20
20.0318
 11
-1.58267
 21
20.1098
  0
LINE
  8
0
 10
-1.58267
 20
20.1098
 11
-1.56924
 21
20.1871
  0
LINE
  8
0
 10
-1.56924
 20
20.1871
 11
-1.55205
 21
20.2638
  0
LINE
  8
0
 10
-1.55205
 20
20.2638
 11
-1.5311
 21
20.3395
  0
LINE
  8
0
 10
-1.5311
 20
20.3395
 11
-1.50647
 21
20.414
  0
LINE
  8
0
 10
-1.50647
 20
20.414
 11
-1.4782
 21
20.4873
  0
LINE
  8
0
 10
-1.4782
 20
20.4873
 11
-1.44638
 21
20.5591
  0
LINE
  8
0
 10
-1.44638
 20
20.5591
 11
-1.41107
 21
20.6292
  0
LINE
  8
0
 10
-1.41107
 20
20.6292
 11
-1.37236
 21
20.6976
  0
LINE
  8
0
 10
-1.37236
 20
20.6976
 11
-1.33034
 21
20.7639
  0
LINE
  8
0
 10
-1.33034
 20
20.7639
 11
-1.28513
 21
20.8281
  0
LINE
  8
0
 10
-1.28513
 20
20.8281
 11
-1.23682
 21
20.89
  0
LINE
  8
0
 10
-1.23682
 20
20.89
 11
-1.18552
 21
20.9495
  0
LINE
  8
0
 10
-1.18552
 20
20.9495
 11
-1.13136
 21
21.0064
  0
LINE
  8
0
 10
-1.13136
 20
21.0064
 11
-1.07449
 21
21.0605
  0
LINE
  8
0
 10
-1.07449
 20
21.0605
 11
-1.01501
 21
21.1118
  0
LINE
  8
0
 10
-1.01501
 20
21.1118
 11
-0.95311
 21
21.1601
  0
LINE
  8
0
 10
-0.95311
 20
21.1601
 11
-0.888901
 21
21.2054
  0
LINE
  8
0
 10
-0.888901
 20
21.2054
 11
-0.822556
 21
21.2474
  0
LINE
  8
0
 10
-0.822556
 20
21.2474
 11
-0.754227
 21
21.2861
  0
LINE
  8
0
 10
-0.754227
 20
21.2861
 11
-0.684082
 21
21.3214
  0
LINE
  8
0
 10
-0.684082
 20
21.3214
 11
-0.612289
 21
21.3532
  0
LINE
  8
0
 10
-0.612289
 20
21.3532
 11
-0.539017
 21
21.3815
  0
LINE
  8
0
 10
-0.539017
 20
21.3815
 11
-0.464447
 21
21.4061
  0
LINE
  8
0
 10
-0.464447
 20
21.4061
 11
-0.388763
 21
21.4271
  0
LINE
  8
0
 10
-0.388763
 20
21.4271
 11
-0.312134
 21
21.4443
  0
LINE
  8
0
 10
-0.312134
 20
21.4443
 11
-0.234756
 21
21.4577
  0
LINE
  8
0
 10
-0.234756
 20
21.4577
 11
-0.156815
 21
21.4673
  0
LINE
  8
0
 10
-0.156815
 20
21.4673
 11
-0.0785065
 21
21.4731
  0
LINE
  8
0
 10
-0.0785065
 20
21.4731
 11
0
 21
21.475
  0
LINE
  8
0
 10
0
 20
21.475
 11
0.0785217
 21
21.4731
  0
LINE
  8
0
 10
0.0785217
 20
21.4731
 11
0.15683
 21
21.4673
  0
LINE
  8
0
 10
0.15683
 20
21.4673
 11
0.234772
 21
21.4577
  0
LINE
  8
0
 10
0.234772
 20
21.4577
 11
0.312149
 21
21.4443
  0
LINE
  8
0
 10
0.312149
 20
21.4443
 11
0.388779
 21
21.4271
  0
LINE
  8
0
 10
0.388779
 20
21.4271
 11
0.464462
 21
21.4061
  0
LINE
  8
0
 10
0.464462
 20
21.4061
 11
0.539032
 21
21.3815
  0
LINE
  8
0
 10
0.539032
 20
21.3815
 11
0.612305
 21
21.3532
  0
LINE
  8
0
 10
0.612305
 20
21.3532
 11
0.684097
 21
21.3214
  0
LINE
  8
0
 10
0.684097
 20
21.3214
 11
0.754242
 21
21.2861
  0
LINE
  8
0
 10
0.754242
 20
21.2861
 11
0.822571
 21
21.2474
  0
LINE
  8
0
 10
0.822571
 20
21.2474
 11
0.888916
 21
21.2054
  0
LINE
  8
0
 10
0.888916
 20
21.2054
 11
0.953125
 21
21.1601
  0
LINE
  8
0
 10
0.953125
 20
21.1601
 11
1.01503
 21
21.1118
  0
LINE
  8
0
 10
1.01503
 20
21.1118
 11
1.07451
 21
21.0605
  0
LINE
  8
0
 10
1.07451
 20
21.0605
 11
1.13138
 21
21.0064
  0
LINE
  8
0
 10
1.13138
 20
21.0064
 11
1.18553
 21
20.9495
  0
LINE
  8
0
 10
1.18553
 20
20.9495
 11
1.23683
 21
20.89
  0
LINE
  8
0
 10
1.23683
 20
20.89
 11
1.28514
 21
20.8281
  0
LINE
  8
0
 10
1.28514
 20
20.8281
 11
1.33035
 21
20.7639
  0
LINE
  8
0
 10
1.33035
 20
20.7639
 11
1.37238
 21
20.6976
  0
LINE
  8
0
 10
1.37238
 20
20.6976
 11
1.41109
 21
20.6292
  0
LINE
  8
0
 10
1.41109
 20
20.6292
 11
1.4464
 21
20.5591
  0
LINE
  8
0
 10
1.4464
 20
20.5591
 11
1.47821
 21
20.4873
  0
LINE
  8
0
 10
1.47821
 20
20.4873
 11
1.50648
 21
20.414
  0
LINE
  8
0
 10
1.50648
 20
20.414
 11
1.53111
 21
20.3395
  0
LINE
  8
0
 10
1.53111
 20
20.3395
 11
1.55206
 21
20.2638
  0
LINE
  8
0
 10
1.55206
 20
20.2638
 11
1.56926
 21
20.1871
  0
LINE
  8
0
 10
1.56926
 20
20.1871
 11
1.58269
 21
20.1098
  0
LINE
  8
0
 10
1.58269
 20
20.1098
 11
1.5923
 21
20.0318
  0
LINE
  8
0
 10
1.5923
 20
20.0318
 11
1.59808
 21
19.9535
  0
LINE
  8
0
 10
1.59808
 20
19.9535
 11
1.60001
 21
19.875
  0
LINE
  8
0
 10
1.60001
 20
19.875
 11
1.59808
 21
19.7965
  0
LINE
  8
0
 10
1.59808
 20
19.7965
 11
1.5923
 21
19.7182
  0
LINE
  8
0
 10
1.5923
 20
19.7182
 11
1.58269
 21
19.6402
  0
LINE
  8
0
 10
1.58269
 20
19.6402
 11
1.56926
 21
19.5629
  0
LINE
  8
0
 10
1.56926
 20
19.5629
 11
1.55206
 21
19.4862
  0
LINE
  8
0
 10
1.55206
 20
19.4862
 11
1.53111
 21
19.4106
  0
LINE
  8
0
 10
1.53111
 20
19.4106
 11
1.50648
 21
19.336
  0
LINE
  8
0
 10
1.50648
 20
19.336
 11
1.47821
 21
19.2627
  0
LINE
  8
0
 10
1.47821
 20
19.2627
 11
1.4464
 21
19.1909
  0
LINE
  8
0
 10
1.4464
 20
19.1909
 11
1.41109
 21
19.1208
  0
LINE
  8
0
 10
1.41109
 20
19.1208
 11
1.37238
 21
19.0524
  0
LINE
  8
0
 10
1.37238
 20
19.0524
 11
1.33035
 21
18.9861
  0
LINE
  8
0
 10
1.33035
 20
18.9861
 11
1.28514
 21
18.9219
  0
LINE
  8
0
 10
1.28514
 20
18.9219
 11
1.23683
 21
18.86
  0
LINE
  8
0
 10
1.23683
 20
18.86
 11
1.18553
 21
18.8005
  0
LINE
  8
0
 10
1.18553
 20
18.8005
 11
1.13138
 21
18.7436
  0
LINE
  8
0
 10
1.13138
 20
18.7436
 11
1.07451
 21
18.6895
  0
LINE
  8
0
 10
1.07451
 20
18.6895
 11
1.01503
 21
18.6382
  0
LINE
  8
0
 10
1.01503
 20
18.6382
 11
0.953125
 21
18.5899
  0
LINE
  8
0
 10
0.953125
 20
18.5899
 11
0.888916
 21
18.5447
  0
LINE
  8
0
 10
0.888916
 20
18.5447
 11
0.822571
 21
18.5026
  0
LINE
  8
0
 10
0.822571
 20
18.5026
 11
0.754242
 21
18.4639
  0
LINE
  8
0
 10
0.754242
 20
18.4639
 11
0.684097
 21
18.4286
  0
LINE
  8
0
 10
0.684097
 20
18.4286
 11
0.612305
 21
18.3968
  0
LINE
  8
0
 10
0.612305
 20
18.3968
 11
0.539032
 21
18.3685
  0
LINE
  8
0
 10
0.539032
 20
18.3685
 11
0.464462
 21
18.3439
  0
LINE
  8
0
 10
0.464462
 20
18.3439
 11
0.388779
 21
18.323
  0
LINE
  8
0
 10
0.388779
 20
18.323
 11
0.312149
 21
18.3058
  0
LINE
  8
0
 10
0.312149
 20
18.3058
 11
0.234772
 21
18.2923
  0
LINE
  8
0
 10
0.234772
 20
18.2923
 11
0.15683
 21
18.2827
  0
LINE
  8
0
 10
0.15683
 20
18.2827
 11
0.0785217
 21
18.2769
  0
LINE
  8
0
 10
0.0785217
 20
18.2769
 11
0
 21
18.275
  0
LINE
  8
0
 10
0
 20
18.275
 11
-0.0785065
 21
18.2769
  0
LINE
  8
0
 10
1.52148
 20
0.00192261
 11
1.44316
 21
0.00769043
  0
LINE
  8
0
 10
1.44316
 20
0.00769043
 11
1.36522
 21
0.0173035
  0
LINE
  8
0
 10
1.36522
 20
0.0173035
 11
1.28784
 21
0.0307312
  0
LINE
  8
0
 10
1.28784
 20
0.0307312
 11
1.21123
 21
0.0479431
  0
LINE
  8
0
 10
1.21123
 20
0.0479431
 11
1.13554
 21
0.0688934
  0
LINE
  8
0
 10
1.13554
 20
0.0688934
 11
1.06097
 21
0.0935211
  0
LINE
  8
0
 10
1.06097
 20
0.0935211
 11
0.987701
 21
0.12178
  0
LINE
  8
0
 10
0.987701
 20
0.12178
 11
0.915909
 21
0.15361
  0
LINE
  8
0
 10
0.915909
 20
0.15361
 11
0.845764
 21
0.188919
  0
LINE
  8
0
 10
0.845764
 20
0.188919
 11
0.777435
 21
0.227631
  0
LINE
  8
0
 10
0.777435
 20
0.227631
 11
0.711075
 21
0.269638
  0
LINE
  8
0
 10
0.711075
 20
0.269638
 11
0.646881
 21
0.314865
  0
LINE
  8
0
 10
0.646881
 20
0.314865
 11
0.584961
 21
0.363174
  0
LINE
  8
0
 10
0.584961
 20
0.363174
 11
0.525497
 21
0.414474
  0
LINE
  8
0
 10
0.525497
 20
0.414474
 11
0.468628
 21
0.468628
  0
LINE
  8
0
 10
0.468628
 20
0.468628
 11
0.414474
 21
0.525497
  0
LINE
  8
0
 10
0.414474
 20
0.525497
 11
0.363174
 21
0.584961
  0
LINE
  8
0
 10
0.363174
 20
0.584961
 11
0.314865
 21
0.646881
  0
LINE
  8
0
 10
0.314865
 20
0.646881
 11
0.269638
 21
0.711075
  0
LINE
  8
0
 10
0.269638
 20
0.711075
 11
0.227631
 21
0.777435
  0
LINE
  8
0
 10
0.227631
 20
0.777435
 11
0.188919
 21
0.845764
  0
LINE
  8
0
 10
0.188919
 20
0.845764
 11
0.15361
 21
0.915909
  0
LINE
  8
0
 10
0.15361
 20
0.915909
 11
0.12178
 21
0.987701
  0
LINE
  8
0
 10
0.12178
 20
0.987701
 11
0.0935211
 21
1.06097
  0
LINE
  8
0
 10
0.0935211
 20
1.06097
 11
0.0688934
 21
1.13554
  0
LINE
  8
0
 10
0.0688934
 20
1.13554
 11
0.0479431
 21
1.21123
  0
LINE
  8
0
 10
0.0479431
 20
1.21123
 11
0.0307312
 21
1.28784
  0
LINE
  8
0
 10
0.0307312
 20
1.28784
 11
0.0173035
 21
1.36522
  0
LINE
  8
0
 10
0.0173035
 20
1.36522
 11
0.00769043
 21
1.44316
  0
LINE
  8
0
 10
0.00769043
 20
1.44316
 11
0.00192261
 21
1.52148
  0
LINE
  8
0
 10
0.00192261
 20
1.52148
 11
0
 21
1.59999
  0
LINE
  8
0
 10
0
 20
1.59999
 11
0.00192261
 21
1.6785
  0
LINE
  8
0
 10
0.00192261
 20
1.6785
 11
0.00769043
 21
1.75682
  0
LINE
  8
0
 10
0.00769043
 20
1.75682
 11
0.0173035
 21
1.83476
  0
LINE
  8
0
 10
0.0173035
 20
1.83476
 11
0.0307312
 21
1.91214
  0
LINE
  8
0
 10
0.0307312
 20
1.91214
 11
0.0479431
 21
1.98875
  0
LINE
  8
0
 10
0.0479431
 20
1.98875
 11
0.0688934
 21
2.06445
  0
LINE
  8
0
 10
0.0688934
 20
2.06445
 11
0.0935211
 21
2.13902
  0
LINE
  8
0
 10
0.0935211
 20
2.13902
 11
0.12178
 21
2.21228
  0
LINE
  8
0
 10
0.12178
 20
2.21228
 11
0.15361
 21
2.28409
  0
LINE
  8
0
 10
0.15361
 20
2.28409
 11
0.188919
 21
2.35423
  0
LINE
  8
0
 10
0.188919
 20
2.35423
 11
0.227631
 21
2.42256
  0
LINE
  8
0
 10
0.227631
 20
2.42256
 11
0.269638
 21
2.48891
  0
LINE
  8
0
 10
0.269638
 20
2.48891
 11
0.314865
 21
2.55312
  0
LINE
  8
0
 10
0.314865
 20
2.55312
 11
0.363174
 21
2.61502
  0
LINE
  8
0
 10
0.363174
 20
2.61502
 11
0.414474
 21
2.67448
  0
LINE
  8
0
 10
0.414474
 20
2.67448
 11
0.468628
 21
2.73137
  0
LINE
  8
0
 10
0.468628
 20
2.73137
 11
0.525497
 21
2.78551
  0
LINE
  8
0
 10
0.525497
 20
2.78551
 11
0.584961
 21
2.83681
  0
LINE
  8
0
 10
0.584961
 20
2.83681
 11
0.646881
 21
2.88513
  0
LINE
  8
0
 10
0.646881
 20
2.88513
 11
0.711075
 21
2.93034
  0
LINE
  8
0
 10
0.711075
 20
2.93034
 11
0.777435
 21
2.97235
  0
LINE
  8
0
 10
0.777435
 20
2.97235
 11
0.845764
 21
3.01106
  0
LINE
  8
0
 10
0.845764
 20
3.01106
 11
0.915909
 21
3.04637
  0
LINE
  8
0
 10
0.915909
 20
3.04637
 11
0.987701
 21
3.0782
  0
LINE
  8
0
 10
0.987701
 20
3.0782
 11
1.06097
 21
3.10646
  0
LINE
  8
0
 10
1.06097
 20
3.10646
 11
1.13554
 21
3.1311
  0
LINE
  8
0
 10
1.13554
 20
3.1311
 11
1.21123
 21
3.15204
  0
LINE
  8
0
 10
1.21123
 20
3.15204
 11
1.28784
 21
3.16925
  0
LINE
  8
0
 10
1.28784
 20
3.16925
 11
1.36522
 21
3.18268
  0
LINE
  8
0
 10
1.36522
 20
3.18268
 11
1.44316
 21
3.19229
  0
LINE
  8
0
 10
1.44316
 20
3.19229
 11
1.52148
 21
3.19806
  0
LINE
  8
0
 10
1.52148
 20
3.19806
 11
1.59999
 21
3.2
  0
LINE
  8
0
 10
1.59999
 20
3.2
 11
1.6785
 21
3.19806
  0
LINE
  8
0
 10
1.6785
 20
3.19806
 11
1.75682
 21
3.19229
  0
LINE
  8
0
 10
1.75682
 20
3.19229
 11
1.83476
 21
3.18268
  0
LINE
  8
0
 10
1.83476
 20
3.18268
 11
1.91214
 21
3.16925
  0
LINE
  8
0
 10
1.91214
 20
3.16925
 11
1.98875
 21
3.15204
  0
LINE
  8
0
 10
1.98875
 20
3.15204
 11
2.06445
 21
3.1311
  0
LINE
  8
0
 10
2.06445
 20
3.1311
 11
2.13902
 21
3.10646
  0
LINE
  8
0
 10
2.13902
 20
3.10646
 11
2.21228
 21
3.0782
  0
LINE
  8
0
 10
2.21228
 20
3.0782
 11
2.28409
 21
3.04637
  0
LINE
  8
0
 10
2.28409
 20
3.04637
 11
2.35423
 21
3.01106
  0
LINE
  8
0
 10
2.35423
 20
3.01106
 11
2.42256
 21
2.97235
  0
LINE
  8
0
 10
2.42256
 20
2.97235
 11
2.48891
 21
2.93034
  0
LINE
  8
0
 10
2.48891
 20
2.93034
 11
2.55312
 21
2.88513
  0
LINE
  8
0
 10
2.55312
 20
2.88513
 11
2.61502
 21
2.83681
  0
LINE
  8
0
 10
2.61502
 20
2.83681
 11
2.67448
 21
2.78551
  0
LINE
  8
0
 10
2.67448
 20
2.78551
 11
2.73137
 21
2.73137
  0
LINE
  8
0
 10
2.73137
 20
2.73137
 11
2.78551
 21
2.67448
  0
LINE
  8
0
 10
2.78551
 20
2.67448
 11
2.83681
 21
2.61502
  0
LINE
  8
0
 10
2.83681
 20
2.61502
 11
2.88513
 21
2.55312
  0
LINE
  8
0
 10
2.88513
 20
2.55312
 11
2.93034
 21
2.48891
  0
LINE
  8
0
 10
2.93034
 20
2.48891
 11
2.97235
 21
2.42256
  0
LINE
  8
0
 10
2.97235
 20
2.42256
 11
3.01106
 21
2.35423
  0
LINE
  8
0
 10
3.01106
 20
2.35423
 11
3.04637
 21
2.28409
  0
LINE
  8
0
 10
3.04637
 20
2.28409
 11
3.0782
 21
2.21228
  0
LINE
  8
0
 10
3.0782
 20
2.21228
 11
3.10646
 21
2.13902
  0
LINE
  8
0
 10
3.10646
 20
2.13902
 11
3.1311
 21
2.06445
  0
LINE
  8
0
 10
3.1311
 20
2.06445
 11
3.15204
 21
1.98875
  0
LINE
  8
0
 10
3.15204
 20
1.98875
 11
3.16925
 21
1.91214
  0
LINE
  8
0
 10
3.16925
 20
1.91214
 11
3.18268
 21
1.83476
  0
LINE
  8
0
 10
3.18268
 20
1.83476
 11
3.19229
 21
1.75682
  0
LINE
  8
0
 10
3.19229
 20
1.75682
 11
3.19806
 21
1.6785
  0
LINE
  8
0
 10
3.19806
 20
1.6785
 11
3.2
 21
1.59999
  0
LINE
  8
0
 10
3.2
 20
1.59999
 11
3.19806
 21
1.52148
  0
LINE
  8
0
 10
3.19806
 20
1.52148
 11
3.19229
 21
1.44316
  0
LINE
  8
0
 10
3.19229
 20
1.44316
 11
3.18268
 21
1.36522
  0
LINE
  8
0
 10
3.18268
 20
1.36522
 11
3.16925
 21
1.28784
  0
LINE
  8
0
 10
3.16925
 20
1.28784
 11
3.15204
 21
1.21123
  0
LINE
  8
0
 10
3.15204
 20
1.21123
 11
3.1311
 21
1.13554
  0
LINE
  8
0
 10
3.1311
 20
1.13554
 11
3.10646
 21
1.06097
  0
LINE
  8
0
 10
3.10646
 20
1.06097
 11
3.0782
 21
0.987701
  0
LINE
  8
0
 10
3.0782
 20
0.987701
 11
3.04637
 21
0.915909
  0
LINE
  8
0
 10
3.04637
 20
0.915909
 11
3.01106
 21
0.845764
  0
LINE
  8
0
 10
3.01106
 20
0.845764
 11
2.97235
 21
0.777435
  0
LINE
  8
0
 10
2.97235
 20
0.777435
 11
2.93034
 21
0.711075
  0
LINE
  8
0
 10
2.93034
 20
0.711075
 11
2.88513
 21
0.646881
  0
LINE
  8
0
 10
2.88513
 20
0.646881
 11
2.83681
 21
0.584961
  0
LINE
  8
0
 10
2.83681
 20
0.584961
 11
2.78551
 21
0.525497
  0
LINE
  8
0
 10
2.78551
 20
0.525497
 11
2.73137
 21
0.468628
  0
LINE
  8
0
 10
2.73137
 20
0.468628
 11
2.67448
 21
0.414474
  0
LINE
  8
0
 10
2.67448
 20
0.414474
 11
2.61502
 21
0.363174
  0
LINE
  8
0
 10
2.61502
 20
0.363174
 11
2.55312
 21
0.314865
  0
LINE
  8
0
 10
2.55312
 20
0.314865
 11
2.48891
 21
0.269638
  0
LINE
  8
0
 10
2.48891
 20
0.269638
 11
2.42256
 21
0.227631
  0
LINE
  8
0
 10
2.42256
 20
0.227631
 11
2.35423
 21
0.188919
  0
LINE
  8
0
 10
2.35423
 20
0.188919
 11
2.28409
 21
0.15361
  0
LINE
  8
0
 10
2.28409
 20
0.15361
 11
2.21228
 21
0.12178
  0
LINE
  8
0
 10
2.21228
 20
0.12178
 11
2.13902
 21
0.0935211
  0
LINE
  8
0
 10
2.13902
 20
0.0935211
 11
2.06445
 21
0.0688934
  0
LINE
  8
0
 10
2.06445
 20
0.0688934
 11
1.98875
 21
0.0479431
  0
LINE
  8
0
 10
1.98875
 20
0.0479431
 11
1.91214
 21
0.0307312
  0
LINE
  8
0
 10
1.91214
 20
0.0307312
 11
1.83476
 21
0.0173035
  0
LINE
  8
0
 10
1.83476
 20
0.0173035
 11
1.75682
 21
0.00769043
  0
LINE
  8
0
 10
1.75682
 20
0.00769043
 11
1.6785
 21
0.00192261
  0
LINE
  8
0
 10
1.6785
 20
0.00192261
 11
1.59999
 21
0
  0
LINE
  8
0
 10
1.59999
 20
0
 11
1.52148
 21
0.00192261
  0
LINE
  8
0
 10
86.3215
 20
0.00192261
 11
86.2432
 21
0.00769043
  0
LINE
  8
0
 10
86.2432
 20
0.00769043
 11
86.1652
 21
0.0173035
  0
LINE
  8
0
 10
86.1652
 20
0.0173035
 11
86.0878
 21
0.0307312
  0
LINE
  8
0
 10
86.0878
 20
0.0307312
 11
86.0112
 21
0.0479431
  0
LINE
  8
0
 10
86.0112
 20
0.0479431
 11
85.9355
 21
0.0688934
  0
LINE
  8
0
 10
85.9355
 20
0.0688934
 11
85.861
 21
0.0935211
  0
LINE
  8
0
 10
85.861
 20
0.0935211
 11
85.7877
 21
0.12178
  0
LINE
  8
0
 10
85.7877
 20
0.12178
 11
85.7159
 21
0.15361
  0
LINE
  8
0
 10
85.7159
 20
0.15361
 11
85.6458
 21
0.188919
  0
LINE
  8
0
 10
85.6458
 20
0.188919
 11
85.5774
 21
0.227631
  0
LINE
  8
0
 10
85.5774
 20
0.227631
 11
85.5111
 21
0.269638
  0
LINE
  8
0
 10
85.5111
 20
0.269638
 11
85.4469
 21
0.314865
  0
LINE
  8
0
 10
85.4469
 20
0.314865
 11
85.385
 21
0.363174
  0
LINE
  8
0
 10
85.385
 20
0.363174
 11
85.3255
 21
0.414474
  0
LINE
  8
0
 10
85.3255
 20
0.414474
 11
85.2686
 21
0.468628
  0
LINE
  8
0
 10
85.2686
 20
0.468628
 11
85.2145
 21
0.525497
  0
LINE
  8
0
 10
85.2145
 20
0.525497
 11
85.1632
 21
0.584961
  0
LINE
  8
0
 10
85.1632
 20
0.584961
 11
85.1149
 21
0.646881
  0
LINE
  8
0
 10
85.1149
 20
0.646881
 11
85.0696
 21
0.711075
  0
LINE
  8
0
 10
85.0696
 20
0.711075
 11
85.0276
 21
0.777435
  0
LINE
  8
0
 10
85.0276
 20
0.777435
 11
84.9889
 21
0.845764
  0
LINE
  8
0
 10
84.9889
 20
0.845764
 11
84.9536
 21
0.915909
  0
LINE
  8
0
 10
84.9536
 20
0.915909
 11
84.9218
 21
0.987701
  0
LINE
  8
0
 10
84.9218
 20
0.987701
 11
84.8935
 21
1.06097
  0
LINE
  8
0
 10
84.8935
 20
1.06097
 11
84.8689
 21
1.13554
  0
LINE
  8
0
 10
84.8689
 20
1.13554
 11
84.8479
 21
1.21123
  0
LINE
  8
0
 10
84.8479
 20
1.21123
 11
84.8307
 21
1.28784
  0
LINE
  8
0
 10
84.8307
 20
1.28784
 11
84.8173
 21
1.36522
  0
LINE
  8
0
 10
84.8173
 20
1.36522
 11
84.8077
 21
1.44316
  0
LINE
  8
0
 10
84.8077
 20
1.44316
 11
84.8019
 21
1.52148
  0
LINE
  8
0
 10
84.8019
 20
1.52148
 11
84.8
 21
1.59999
  0
LINE
  8
0
 10
84.8
 20
1.59999
 11
84.8019
 21
1.6785
  0
LINE
  8
0
 10
84.8019
 20
1.6785
 11
84.8077
 21
1.75682
  0
LINE
  8
0
 10
84.8077
 20
1.75682
 11
84.8173
 21
1.83476
  0
LINE
  8
0
 10
84.8173
 20
1.83476
 11
84.8307
 21
1.91214
  0
LINE
  8
0
 10
84.8307
 20
1.91214
 11
84.8479
 21
1.98875
  0
LINE
  8
0
 10
84.8479
 20
1.98875
 11
84.8689
 21
2.06445
  0
LINE
  8
0
 10
84.8689
 20
2.06445
 11
84.8935
 21
2.13902
  0
LINE
  8
0
 10
84.8935
 20
2.13902
 11
84.9218
 21
2.21228
  0
LINE
  8
0
 10
84.9218
 20
2.21228
 11
84.9536
 21
2.28409
  0
LINE
  8
0
 10
84.9536
 20
2.28409
 11
84.9889
 21
2.35423
  0
LINE
  8
0
 10
84.9889
 20
2.35423
 11
85.0276
 21
2.42256
  0
LINE
  8
0
 10
85.0276
 20
2.42256
 11
85.0696
 21
2.48891
  0
LINE
  8
0
 10
85.0696
 20
2.48891
 11
85.1149
 21
2.55312
  0
LINE
  8
0
 10
85.1149
 20
2.55312
 11
85.1632
 21
2.61502
  0
LINE
  8
0
 10
85.1632
 20
2.61502
 11
85.2145
 21
2.67448
  0
LINE
  8
0
 10
85.2145
 20
2.67448
 11
85.2686
 21
2.73137
  0
LINE
  8
0
 10
85.2686
 20
2.73137
 11
85.3255
 21
2.78551
  0
LINE
  8
0
 10
85.3255
 20
2.78551
 11
85.385
 21
2.83681
  0
LINE
  8
0
 10
85.385
 20
2.83681
 11
85.4469
 21
2.88513
  0
LINE
  8
0
 10
85.4469
 20
2.88513
 11
85.5111
 21
2.93034
  0
LINE
  8
0
 10
85.5111
 20
2.93034
 11
85.5774
 21
2.97235
  0
LINE
  8
0
 10
85.5774
 20
2.97235
 11
85.6458
 21
3.01106
  0
LINE
  8
0
 10
85.6458
 20
3.01106
 11
85.7159
 21
3.04637
  0
LINE
  8
0
 10
85.7159
 20
3.04637
 11
85.7877
 21
3.0782
  0
LINE
  8
0
 10
85.7877
 20
3.0782
 11
85.861
 21
3.10646
  0
LINE
  8
0
 10
85.861
 20
3.10646
 11
85.9355
 21
3.1311
  0
LINE
  8
0
 10
85.9355
 20
3.1311
 11
86.0112
 21
3.15204
  0
LINE
  8
0
 10
86.0112
 20
3.15204
 11
86.0878
 21
3.16925
  0
LINE
  8
0
 10
86.0878
 20
3.16925
 11
86.1652
 21
3.18268
  0
LINE
  8
0
 10
86.1652
 20
3.18268
 11
86.2432
 21
3.19229
  0
LINE
  8
0
 10
86.2432
 20
3.19229
 11
86.3215
 21
3.19806
  0
LINE
  8
0
 10
86.3215
 20
3.19806
 11
86.4
 21
3.2
  0
LINE
  8
0
 10
86.4
 20
3.2
 11
86.4785
 21
3.19806
  0
LINE
  8
0
 10
86.4785
 20
3.19806
 11
86.5568
 21
3.19229
  0
LINE
  8
0
 10
86.5568
 20
3.19229
 11
86.6348
 21
3.18268
  0
LINE
  8
0
 10
86.6348
 20
3.18268
 11
86.7121
 21
3.16925
  0
LINE
  8
0
 10
86.7121
 20
3.16925
 11
86.7888
 21
3.15204
  0
LINE
  8
0
 10
86.7888
 20
3.15204
 11
86.8644
 21
3.1311
  0
LINE
  8
0
 10
86.8644
 20
3.1311
 11
86.939
 21
3.10646
  0
LINE
  8
0
 10
86.939
 20
3.10646
 11
87.0123
 21
3.0782
  0
LINE
  8
0
 10
87.0123
 20
3.0782
 11
87.0841
 21
3.04637
  0
LINE
  8
0
 10
87.0841
 20
3.04637
 11
87.1542
 21
3.01106
  0
LINE
  8
0
 10
87.1542
 20
3.01106
 11
87.2225
 21
2.97235
  0
LINE
  8
0
 10
87.2225
 20
2.97235
 11
87.2889
 21
2.93034
  0
LINE
  8
0
 10
87.2889
 20
2.93034
 11
87.3531
 21
2.88513
  0
LINE
  8
0
 10
87.3531
 20
2.88513
 11
87.415
 21
2.83681
  0
LINE
  8
0
 10
87.415
 20
2.83681
 11
87.4745
 21
2.78551
  0
LINE
  8
0
 10
87.4745
 20
2.78551
 11
87.5314
 21
2.73137
  0
LINE
  8
0
 10
87.5314
 20
2.73137
 11
87.5855
 21
2.67448
  0
LINE
  8
0
 10
87.5855
 20
2.67448
 11
87.6368
 21
2.61502
  0
LINE
  8
0
 10
87.6368
 20
2.61502
 11
87.6851
 21
2.55312
  0
LINE
  8
0
 10
87.6851
 20
2.55312
 11
87.7303
 21
2.48891
  0
LINE
  8
0
 10
87.7303
 20
2.48891
 11
87.7724
 21
2.42256
  0
LINE
  8
0
 10
87.7724
 20
2.42256
 11
87.8111
 21
2.35423
  0
LINE
  8
0
 10
87.8111
 20
2.35423
 11
87.8464
 21
2.28409
  0
LINE
  8
0
 10
87.8464
 20
2.28409
 11
87.8782
 21
2.21228
  0
LINE
  8
0
 10
87.8782
 20
2.21228
 11
87.9065
 21
2.13902
  0
LINE
  8
0
 10
87.9065
 20
2.13902
 11
87.9311
 21
2.06445
  0
LINE
  8
0
 10
87.9311
 20
2.06445
 11
87.952
 21
1.98875
  0
LINE
  8
0
 10
87.952
 20
1.98875
 11
87.9693
 21
1.91214
  0
LINE
  8
0
 10
87.9693
 20
1.91214
 11
87.9827
 21
1.83476
  0
LINE
  8
0
 10
87.9827
 20
1.83476
 11
87.9923
 21
1.75682
  0
LINE
  8
0
 10
87.9923
 20
1.75682
 11
87.9981
 21
1.6785
  0
LINE
  8
0
 10
87.9981
 20
1.6785
 11
88
 21
1.59999
  0
LINE
  8
0
 10
88
 20
1.59999
 11
87.9981
 21
1.52148
  0
LINE
  8
0
 10
87.9981
 20
1.52148
 11
87.9923
 21
1.44316
  0
LINE
  8
0
 10
87.9923
 20
1.44316
 11
87.9827
 21
1.36522
  0
LINE
  8
0
 10
87.9827
 20
1.36522
 11
87.9693
 21
1.28784
  0
LINE
  8
0
 10
87.9693
 20
1.28784
 11
87.952
 21
1.21123
  0
LINE
  8
0
 10
87.952
 20
1.21123
 11
87.9311
 21
1.13554
  0
LINE
  8
0
 10
87.9311
 20
1.13554
 11
87.9065
 21
1.06097
  0
LINE
  8
0
 10
87.9065
 20
1.06097
 11
87.8782
 21
0.987701
  0
LINE
  8
0
 10
87.8782
 20
0.987701
 11
87.8464
 21
0.915909
  0
LINE
  8
0
 10
87.8464
 20
0.915909
 11
87.8111
 21
0.845764
  0
LINE
  8
0
 10
87.8111
 20
0.845764
 11
87.7724
 21
0.777435
  0
LINE
  8
0
 10
87.7724
 20
0.777435
 11
87.7303
 21
0.711075
  0
LINE
  8
0
 10
87.7303
 20
0.711075
 11
87.6851
 21
0.646881
  0
LINE
  8
0
 10
87.6851
 20
0.646881
 11
87.6368
 21
0.584961
  0
LINE
  8
0
 10
87.6368
 20
0.584961
 11
87.5855
 21
0.525497
  0
LINE
  8
0
 10
87.5855
 20
0.525497
 11
87.5314
 21
0.468628
  0
LINE
  8
0
 10
87.5314
 20
0.468628
 11
87.4745
 21
0.414474
  0
LINE
  8
0
 10
87.4745
 20
0.414474
 11
87.415
 21
0.363174
  0
LINE
  8
0
 10
87.415
 20
0.363174
 11
87.3531
 21
0.314865
  0
LINE
  8
0
 10
87.3531
 20
0.314865
 11
87.2889
 21
0.269638
  0
LINE
  8
0
 10
87.2889
 20
0.269638
 11
87.2225
 21
0.227631
  0
LINE
  8
0
 10
87.2225
 20
0.227631
 11
87.1542
 21
0.188919
  0
LINE
  8
0
 10
87.1542
 20
0.188919
 11
87.0841
 21
0.15361
  0
LINE
  8
0
 10
87.0841
 20
0.15361
 11
87.0123
 21
0.12178
  0
LINE
  8
0
 10
87.0123
 20
0.12178
 11
86.939
 21
0.0935211
  0
LINE
  8
0
 10
86.939
 20
0.0935211
 11
86.8644
 21
0.0688934
  0
LINE
  8
0
 10
86.8644
 20
0.0688934
 11
86.7888
 21
0.0479431
  0
LINE
  8
0
 10
86.7888
 20
0.0479431
 11
86.7121
 21
0.0307312
  0
LINE
  8
0
 10
86.7121
 20
0.0307312
 11
86.6348
 21
0.0173035
  0
LINE
  8
0
 10
86.6348
 20
0.0173035
 11
86.5568
 21
0.00769043
  0
LINE
  8
0
 10
86.5568
 20
0.00769043
 11
86.4785
 21
0.00192261
  0
LINE
  8
0
 10
86.4785
 20
0.00192261
 11
86.4
 21
0
  0
LINE
  8
0
 10
86.4
 20
0
 11
86.3215
 21
0.00192261
  0
ENDSEC
  0
SECTION
  2
OBJECTS
  0
DICTIONARY
  0
ENDSEC
  0
EOF
