  0
SECTION
  2
BLOCKS
  0
ENDSEC
  0
SECTION
  2
ENTITIES
  0
LINE
  8
0
 10
96.2453
 20
-12.994
 11
96.4901
 21
-12.9759
  0
LINE
  8
0
 10
96.4901
 20
-12.9759
 11
96.7336
 21
-12.9459
  0
LINE
  8
0
 10
96.7336
 20
-12.9459
 11
96.9754
 21
-12.9039
  0
LINE
  8
0
 10
96.9754
 20
-12.9039
 11
97.2149
 21
-12.8501
  0
LINE
  8
0
 10
97.2149
 20
-12.8501
 11
97.4514
 21
-12.7847
  0
LINE
  8
0
 10
97.4514
 20
-12.7847
 11
97.6844
 21
-12.7077
  0
LINE
  8
0
 10
97.6844
 20
-12.7077
 11
97.9134
 21
-12.6194
  0
LINE
  8
0
 10
97.9134
 20
-12.6194
 11
98.1378
 21
-12.5199
  0
LINE
  8
0
 10
98.1378
 20
-12.5199
 11
98.357
 21
-12.4096
  0
LINE
  8
0
 10
98.357
 20
-12.4096
 11
98.5705
 21
-12.2886
  0
LINE
  8
0
 10
98.5705
 20
-12.2886
 11
98.7778
 21
-12.1573
  0
LINE
  8
0
 10
98.7778
 20
-12.1573
 11
98.9785
 21
-12.016
  0
LINE
  8
0
 10
98.9785
 20
-12.016
 11
99.172
 21
-11.8651
  0
LINE
  8
0
 10
99.172
 20
-11.8651
 11
99.3578
 21
-11.7047
  0
LINE
  8
0
 10
99.3578
 20
-11.7047
 11
99.5355
 21
-11.5355
  0
LINE
  8
0
 10
99.5355
 20
-11.5355
 11
99.7047
 21
-11.3578
  0
LINE
  8
0
 10
99.7047
 20
-11.3578
 11
99.8651
 21
-11.172
  0
LINE
  8
0
 10
99.8651
 20
-11.172
 11
100.016
 21
-10.9785
  0
LINE
  8
0
 10
100.016
 20
-10.9785
 11
100.157
 21
-10.7778
  0
LINE
  8
0
 10
100.157
 20
-10.7778
 11
100.289
 21
-10.5705
  0
LINE
  8
0
 10
100.289
 20
-10.5705
 11
100.41
 21
-10.357
  0
LINE
  8
0
 10
100.41
 20
-10.357
 11
100.52
 21
-10.1378
  0
LINE
  8
0
 10
100.52
 20
-10.1378
 11
100.619
 21
-9.91341
  0
LINE
  8
0
 10
100.619
 20
-9.91341
 11
100.708
 21
-9.68445
  0
LINE
  8
0
 10
100.708
 20
-9.68445
 11
100.785
 21
-9.45142
  0
LINE
  8
0
 10
100.785
 20
-9.45142
 11
100.85
 21
-9.21489
  0
LINE
  8
0
 10
100.85
 20
-9.21489
 11
100.904
 21
-8.97545
  0
LINE
  8
0
 10
100.904
 20
-8.97545
 11
100.946
 21
-8.73364
  0
LINE
  8
0
 10
100.946
 20
-8.73364
 11
100.976
 21
-8.49008
  0
LINE
  8
0
 10
100.976
 20
-8.49008
 11
100.994
 21
-8.24533
  0
LINE
  8
0
 10
100.994
 20
-8.24533
 11
101
 21
-8
  0
LINE
  8
0
 10
101
 20
-8
 11
101
 21
148.5
  0
LINE
  8
0
 10
101
 20
148.5
 11
100.994
 21
148.745
  0
LINE
  8
0
 10
100.994
 20
148.745
 11
100.976
 21
148.99
  0
LINE
  8
0
 10
100.976
 20
148.99
 11
100.946
 21
149.234
  0
LINE
  8
0
 10
100.946
 20
149.234
 11
100.904
 21
149.475
  0
LINE
  8
0
 10
100.904
 20
149.475
 11
100.85
 21
149.715
  0
LINE
  8
0
 10
100.85
 20
149.715
 11
100.785
 21
149.951
  0
LINE
  8
0
 10
100.785
 20
149.951
 11
100.708
 21
150.184
  0
LINE
  8
0
 10
100.708
 20
150.184
 11
100.619
 21
150.413
  0
LINE
  8
0
 10
100.619
 20
150.413
 11
100.52
 21
150.638
  0
LINE
  8
0
 10
100.52
 20
150.638
 11
100.41
 21
150.857
  0
LINE
  8
0
 10
100.41
 20
150.857
 11
100.289
 21
151.071
  0
LINE
  8
0
 10
100.289
 20
151.071
 11
100.157
 21
151.278
  0
LINE
  8
0
 10
100.157
 20
151.278
 11
100.016
 21
151.478
  0
LINE
  8
0
 10
100.016
 20
151.478
 11
99.8651
 21
151.672
  0
LINE
  8
0
 10
99.8651
 20
151.672
 11
99.7047
 21
151.858
  0
LINE
  8
0
 10
99.7047
 20
151.858
 11
99.5355
 21
152.036
  0
LINE
  8
0
 10
99.5355
 20
152.036
 11
99.3578
 21
152.205
  0
LINE
  8
0
 10
99.3578
 20
152.205
 11
99.172
 21
152.365
  0
LINE
  8
0
 10
99.172
 20
152.365
 11
98.9785
 21
152.516
  0
LINE
  8
0
 10
98.9785
 20
152.516
 11
98.7778
 21
152.657
  0
LINE
  8
0
 10
98.7778
 20
152.657
 11
98.5705
 21
152.789
  0
LINE
  8
0
 10
98.5705
 20
152.789
 11
98.357
 21
152.91
  0
LINE
  8
0
 10
98.357
 20
152.91
 11
98.1378
 21
153.02
  0
LINE
  8
0
 10
98.1378
 20
153.02
 11
97.9134
 21
153.119
  0
LINE
  8
0
 10
97.9134
 20
153.119
 11
97.6844
 21
153.208
  0
LINE
  8
0
 10
97.6844
 20
153.208
 11
97.4514
 21
153.285
  0
LINE
  8
0
 10
97.4514
 20
153.285
 11
97.2149
 21
153.35
  0
LINE
  8
0
 10
97.2149
 20
153.35
 11
96.9754
 21
153.404
  0
LINE
  8
0
 10
96.9754
 20
153.404
 11
96.7336
 21
153.446
  0
LINE
  8
0
 10
96.7336
 20
153.446
 11
96.4901
 21
153.476
  0
LINE
  8
0
 10
96.4901
 20
153.476
 11
96.2453
 21
153.494
  0
LINE
  8
0
 10
96.2453
 20
153.494
 11
96
 21
153.5
  0
LINE
  8
0
 10
96
 20
153.5
 11
-8
 21
153.5
  0
LINE
  8
0
 10
-8
 20
153.5
 11
-8.24533
 21
153.494
  0
LINE
  8
0
 10
-8.24533
 20
153.494
 11
-8.49008
 21
153.476
  0
LINE
  8
0
 10
-8.49008
 20
153.476
 11
-8.73364
 21
153.446
  0
LINE
  8
0
 10
-8.73364
 20
153.446
 11
-8.97545
 21
153.404
  0
LINE
  8
0
 10
-8.97545
 20
153.404
 11
-9.21489
 21
153.35
  0
LINE
  8
0
 10
-9.21489
 20
153.35
 11
-9.45142
 21
153.285
  0
LINE
  8
0
 10
-9.45142
 20
153.285
 11
-9.68445
 21
153.208
  0
LINE
  8
0
 10
-9.68445
 20
153.208
 11
-9.91341
 21
153.119
  0
LINE
  8
0
 10
-9.91341
 20
153.119
 11
-10.1378
 21
153.02
  0
LINE
  8
0
 10
-10.1378
 20
153.02
 11
-10.357
 21
152.91
  0
LINE
  8
0
 10
-10.357
 20
152.91
 11
-10.5705
 21
152.789
  0
LINE
  8
0
 10
-10.5705
 20
152.789
 11
-10.7778
 21
152.657
  0
LINE
  8
0
 10
-10.7778
 20
152.657
 11
-10.9785
 21
152.516
  0
LINE
  8
0
 10
-10.9785
 20
152.516
 11
-11.172
 21
152.365
  0
LINE
  8
0
 10
-11.172
 20
152.365
 11
-11.3578
 21
152.205
  0
LINE
  8
0
 10
-11.3578
 20
152.205
 11
-11.5355
 21
152.036
  0
LINE
  8
0
 10
-11.5355
 20
152.036
 11
-11.7047
 21
151.858
  0
LINE
  8
0
 10
-11.7047
 20
151.858
 11
-11.8651
 21
151.672
  0
LINE
  8
0
 10
-11.8651
 20
151.672
 11
-12.016
 21
151.478
  0
LINE
  8
0
 10
-12.016
 20
151.478
 11
-12.1573
 21
151.278
  0
LINE
  8
0
 10
-12.1573
 20
151.278
 11
-12.2886
 21
151.071
  0
LINE
  8
0
 10
-12.2886
 20
151.071
 11
-12.4096
 21
150.857
  0
LINE
  8
0
 10
-12.4096
 20
150.857
 11
-12.5199
 21
150.638
  0
LINE
  8
0
 10
-12.5199
 20
150.638
 11
-12.6194
 21
150.413
  0
LINE
  8
0
 10
-12.6194
 20
150.413
 11
-12.7077
 21
150.184
  0
LINE
  8
0
 10
-12.7077
 20
150.184
 11
-12.7847
 21
149.951
  0
LINE
  8
0
 10
-12.7847
 20
149.951
 11
-12.8501
 21
149.715
  0
LINE
  8
0
 10
-12.8501
 20
149.715
 11
-12.9039
 21
149.475
  0
LINE
  8
0
 10
-12.9039
 20
149.475
 11
-12.9459
 21
149.234
  0
LINE
  8
0
 10
-12.9459
 20
149.234
 11
-12.9759
 21
148.99
  0
LINE
  8
0
 10
-12.9759
 20
148.99
 11
-12.994
 21
148.745
  0
LINE
  8
0
 10
-12.994
 20
148.745
 11
-13
 21
148.5
  0
LINE
  8
0
 10
-13
 20
148.5
 11
-13
 21
-7.99998
  0
LINE
  8
0
 10
-13
 20
-7.99998
 11
-12.994
 21
-8.24533
  0
LINE
  8
0
 10
-12.994
 20
-8.24533
 11
-12.9759
 21
-8.49008
  0
LINE
  8
0
 10
-12.9759
 20
-8.49008
 11
-12.9459
 21
-8.73364
  0
LINE
  8
0
 10
-12.9459
 20
-8.73364
 11
-12.9039
 21
-8.97545
  0
LINE
  8
0
 10
-12.9039
 20
-8.97545
 11
-12.8501
 21
-9.21489
  0
LINE
  8
0
 10
-12.8501
 20
-9.21489
 11
-12.7847
 21
-9.45142
  0
LINE
  8
0
 10
-12.7847
 20
-9.45142
 11
-12.7077
 21
-9.68445
  0
LINE
  8
0
 10
-12.7077
 20
-9.68445
 11
-12.6194
 21
-9.91341
  0
LINE
  8
0
 10
-12.6194
 20
-9.91341
 11
-12.5199
 21
-10.1378
  0
LINE
  8
0
 10
-12.5199
 20
-10.1378
 11
-12.4096
 21
-10.357
  0
LINE
  8
0
 10
-12.4096
 20
-10.357
 11
-12.2886
 21
-10.5705
  0
LINE
  8
0
 10
-12.2886
 20
-10.5705
 11
-12.1573
 21
-10.7778
  0
LINE
  8
0
 10
-12.1573
 20
-10.7778
 11
-12.016
 21
-10.9785
  0
LINE
  8
0
 10
-12.016
 20
-10.9785
 11
-11.8651
 21
-11.172
  0
LINE
  8
0
 10
-11.8651
 20
-11.172
 11
-11.7047
 21
-11.3578
  0
LINE
  8
0
 10
-11.7047
 20
-11.3578
 11
-11.5355
 21
-11.5355
  0
LINE
  8
0
 10
-11.5355
 20
-11.5355
 11
-11.3578
 21
-11.7047
  0
LINE
  8
0
 10
-11.3578
 20
-11.7047
 11
-11.172
 21
-11.8651
  0
LINE
  8
0
 10
-11.172
 20
-11.8651
 11
-10.9785
 21
-12.016
  0
LINE
  8
0
 10
-10.9785
 20
-12.016
 11
-10.7778
 21
-12.1573
  0
LINE
  8
0
 10
-10.7778
 20
-12.1573
 11
-10.5705
 21
-12.2886
  0
LINE
  8
0
 10
-10.5705
 20
-12.2886
 11
-10.357
 21
-12.4096
  0
LINE
  8
0
 10
-10.357
 20
-12.4096
 11
-10.1378
 21
-12.5199
  0
LINE
  8
0
 10
-10.1378
 20
-12.5199
 11
-9.91341
 21
-12.6194
  0
LINE
  8
0
 10
-9.91341
 20
-12.6194
 11
-9.68445
 21
-12.7077
  0
LINE
  8
0
 10
-9.68445
 20
-12.7077
 11
-9.45142
 21
-12.7847
  0
LINE
  8
0
 10
-9.45142
 20
-12.7847
 11
-9.21489
 21
-12.8501
  0
LINE
  8
0
 10
-9.21489
 20
-12.8501
 11
-8.97545
 21
-12.9039
  0
LINE
  8
0
 10
-8.97545
 20
-12.9039
 11
-8.73364
 21
-12.9459
  0
LINE
  8
0
 10
-8.73364
 20
-12.9459
 11
-8.49008
 21
-12.9759
  0
LINE
  8
0
 10
-8.49008
 20
-12.9759
 11
-8.24533
 21
-12.994
  0
LINE
  8
0
 10
-8.24533
 20
-12.994
 11
-8
 21
-13
  0
LINE
  8
0
 10
-8
 20
-13
 11
96
 21
-13
  0
LINE
  8
0
 10
96
 20
-13
 11
96.2453
 21
-12.994
  0
LINE
  8
0
 10
6.52148
 20
135.802
 11
6.44316
 21
135.808
  0
LINE
  8
0
 10
6.44316
 20
135.808
 11
6.36522
 21
135.817
  0
LINE
  8
0
 10
6.36522
 20
135.817
 11
6.28784
 21
135.831
  0
LINE
  8
0
 10
6.28784
 20
135.831
 11
6.21123
 21
135.848
  0
LINE
  8
0
 10
6.21123
 20
135.848
 11
6.13554
 21
135.869
  0
LINE
  8
0
 10
6.13554
 20
135.869
 11
6.06097
 21
135.894
  0
LINE
  8
0
 10
6.06097
 20
135.894
 11
5.9877
 21
135.922
  0
LINE
  8
0
 10
5.9877
 20
135.922
 11
5.91591
 21
135.954
  0
LINE
  8
0
 10
5.91591
 20
135.954
 11
5.84576
 21
135.989
  0
LINE
  8
0
 10
5.84576
 20
135.989
 11
5.77744
 21
136.028
  0
LINE
  8
0
 10
5.77744
 20
136.028
 11
5.71107
 21
136.07
  0
LINE
  8
0
 10
5.71107
 20
136.07
 11
5.64688
 21
136.115
  0
LINE
  8
0
 10
5.64688
 20
136.115
 11
5.58496
 21
136.163
  0
LINE
  8
0
 10
5.58496
 20
136.163
 11
5.5255
 21
136.214
  0
LINE
  8
0
 10
5.5255
 20
136.214
 11
5.46863
 21
136.269
  0
LINE
  8
0
 10
5.46863
 20
136.269
 11
5.41447
 21
136.326
  0
LINE
  8
0
 10
5.41447
 20
136.326
 11
5.36317
 21
136.385
  0
LINE
  8
0
 10
5.36317
 20
136.385
 11
5.31487
 21
136.447
  0
LINE
  8
0
 10
5.31487
 20
136.447
 11
5.26964
 21
136.511
  0
LINE
  8
0
 10
5.26964
 20
136.511
 11
5.22763
 21
136.577
  0
LINE
  8
0
 10
5.22763
 20
136.577
 11
5.18892
 21
136.646
  0
LINE
  8
0
 10
5.18892
 20
136.646
 11
5.15361
 21
136.716
  0
LINE
  8
0
 10
5.15361
 20
136.716
 11
5.12178
 21
136.788
  0
LINE
  8
0
 10
5.12178
 20
136.788
 11
5.09352
 21
136.861
  0
LINE
  8
0
 10
5.09352
 20
136.861
 11
5.06889
 21
136.936
  0
LINE
  8
0
 10
5.06889
 20
136.936
 11
5.04794
 21
137.011
  0
LINE
  8
0
 10
5.04794
 20
137.011
 11
5.03073
 21
137.088
  0
LINE
  8
0
 10
5.03073
 20
137.088
 11
5.0173
 21
137.165
  0
LINE
  8
0
 10
5.0173
 20
137.165
 11
5.00769
 21
137.243
  0
LINE
  8
0
 10
5.00769
 20
137.243
 11
5.00192
 21
137.321
  0
LINE
  8
0
 10
5.00192
 20
137.321
 11
5
 21
137.4
  0
LINE
  8
0
 10
5
 20
137.4
 11
5.00192
 21
137.479
  0
LINE
  8
0
 10
5.00192
 20
137.479
 11
5.00769
 21
137.557
  0
LINE
  8
0
 10
5.00769
 20
137.557
 11
5.0173
 21
137.635
  0
LINE
  8
0
 10
5.0173
 20
137.635
 11
5.03073
 21
137.712
  0
LINE
  8
0
 10
5.03073
 20
137.712
 11
5.04794
 21
137.789
  0
LINE
  8
0
 10
5.04794
 20
137.789
 11
5.06889
 21
137.864
  0
LINE
  8
0
 10
5.06889
 20
137.864
 11
5.09352
 21
137.939
  0
LINE
  8
0
 10
5.09352
 20
137.939
 11
5.12178
 21
138.012
  0
LINE
  8
0
 10
5.12178
 20
138.012
 11
5.15361
 21
138.084
  0
LINE
  8
0
 10
5.15361
 20
138.084
 11
5.18892
 21
138.154
  0
LINE
  8
0
 10
5.18892
 20
138.154
 11
5.22763
 21
138.223
  0
LINE
  8
0
 10
5.22763
 20
138.223
 11
5.26964
 21
138.289
  0
LINE
  8
0
 10
5.26964
 20
138.289
 11
5.31487
 21
138.353
  0
LINE
  8
0
 10
5.31487
 20
138.353
 11
5.36317
 21
138.415
  0
LINE
  8
0
 10
5.36317
 20
138.415
 11
5.41447
 21
138.474
  0
LINE
  8
0
 10
5.41447
 20
138.474
 11
5.46863
 21
138.531
  0
LINE
  8
0
 10
5.46863
 20
138.531
 11
5.5255
 21
138.586
  0
LINE
  8
0
 10
5.5255
 20
138.586
 11
5.58496
 21
138.637
  0
LINE
  8
0
 10
5.58496
 20
138.637
 11
5.64688
 21
138.685
  0
LINE
  8
0
 10
5.64688
 20
138.685
 11
5.71107
 21
138.73
  0
LINE
  8
0
 10
5.71107
 20
138.73
 11
5.77744
 21
138.772
  0
LINE
  8
0
 10
5.77744
 20
138.772
 11
5.84576
 21
138.811
  0
LINE
  8
0
 10
5.84576
 20
138.811
 11
5.91591
 21
138.846
  0
LINE
  8
0
 10
5.91591
 20
138.846
 11
5.9877
 21
138.878
  0
LINE
  8
0
 10
5.9877
 20
138.878
 11
6.06097
 21
138.906
  0
LINE
  8
0
 10
6.06097
 20
138.906
 11
6.13554
 21
138.931
  0
LINE
  8
0
 10
6.13554
 20
138.931
 11
6.21123
 21
138.952
  0
LINE
  8
0
 10
6.21123
 20
138.952
 11
6.28784
 21
138.969
  0
LINE
  8
0
 10
6.28784
 20
138.969
 11
6.36522
 21
138.983
  0
LINE
  8
0
 10
6.36522
 20
138.983
 11
6.44316
 21
138.992
  0
LINE
  8
0
 10
6.44316
 20
138.992
 11
6.52148
 21
138.998
  0
LINE
  8
0
 10
6.52148
 20
138.998
 11
6.59999
 21
139
  0
LINE
  8
0
 10
6.59999
 20
139
 11
6.6785
 21
138.998
  0
LINE
  8
0
 10
6.6785
 20
138.998
 11
6.75682
 21
138.992
  0
LINE
  8
0
 10
6.75682
 20
138.992
 11
6.83476
 21
138.983
  0
LINE
  8
0
 10
6.83476
 20
138.983
 11
6.91214
 21
138.969
  0
LINE
  8
0
 10
6.91214
 20
138.969
 11
6.98875
 21
138.952
  0
LINE
  8
0
 10
6.98875
 20
138.952
 11
7.06445
 21
138.931
  0
LINE
  8
0
 10
7.06445
 20
138.931
 11
7.13902
 21
138.906
  0
LINE
  8
0
 10
7.13902
 20
138.906
 11
7.21228
 21
138.878
  0
LINE
  8
0
 10
7.21228
 20
138.878
 11
7.28409
 21
138.846
  0
LINE
  8
0
 10
7.28409
 20
138.846
 11
7.35423
 21
138.811
  0
LINE
  8
0
 10
7.35423
 20
138.811
 11
7.42256
 21
138.772
  0
LINE
  8
0
 10
7.42256
 20
138.772
 11
7.48891
 21
138.73
  0
LINE
  8
0
 10
7.48891
 20
138.73
 11
7.55312
 21
138.685
  0
LINE
  8
0
 10
7.55312
 20
138.685
 11
7.61502
 21
138.637
  0
LINE
  8
0
 10
7.61502
 20
138.637
 11
7.67448
 21
138.586
  0
LINE
  8
0
 10
7.67448
 20
138.586
 11
7.73137
 21
138.531
  0
LINE
  8
0
 10
7.73137
 20
138.531
 11
7.78551
 21
138.474
  0
LINE
  8
0
 10
7.78551
 20
138.474
 11
7.83681
 21
138.415
  0
LINE
  8
0
 10
7.83681
 20
138.415
 11
7.88513
 21
138.353
  0
LINE
  8
0
 10
7.88513
 20
138.353
 11
7.93034
 21
138.289
  0
LINE
  8
0
 10
7.93034
 20
138.289
 11
7.97235
 21
138.223
  0
LINE
  8
0
 10
7.97235
 20
138.223
 11
8.01106
 21
138.154
  0
LINE
  8
0
 10
8.01106
 20
138.154
 11
8.04637
 21
138.084
  0
LINE
  8
0
 10
8.04637
 20
138.084
 11
8.0782
 21
138.012
  0
LINE
  8
0
 10
8.0782
 20
138.012
 11
8.10646
 21
137.939
  0
LINE
  8
0
 10
8.10646
 20
137.939
 11
8.1311
 21
137.864
  0
LINE
  8
0
 10
8.1311
 20
137.864
 11
8.15204
 21
137.789
  0
LINE
  8
0
 10
8.15204
 20
137.789
 11
8.16925
 21
137.712
  0
LINE
  8
0
 10
8.16925
 20
137.712
 11
8.18268
 21
137.635
  0
LINE
  8
0
 10
8.18268
 20
137.635
 11
8.19229
 21
137.557
  0
LINE
  8
0
 10
8.19229
 20
137.557
 11
8.19806
 21
137.479
  0
LINE
  8
0
 10
8.19806
 20
137.479
 11
8.2
 21
137.4
  0
LINE
  8
0
 10
8.2
 20
137.4
 11
8.19806
 21
137.321
  0
LINE
  8
0
 10
8.19806
 20
137.321
 11
8.19229
 21
137.243
  0
LINE
  8
0
 10
8.19229
 20
137.243
 11
8.18268
 21
137.165
  0
LINE
  8
0
 10
8.18268
 20
137.165
 11
8.16925
 21
137.088
  0
LINE
  8
0
 10
8.16925
 20
137.088
 11
8.15204
 21
137.011
  0
LINE
  8
0
 10
8.15204
 20
137.011
 11
8.1311
 21
136.936
  0
LINE
  8
0
 10
8.1311
 20
136.936
 11
8.10646
 21
136.861
  0
LINE
  8
0
 10
8.10646
 20
136.861
 11
8.0782
 21
136.788
  0
LINE
  8
0
 10
8.0782
 20
136.788
 11
8.04637
 21
136.716
  0
LINE
  8
0
 10
8.04637
 20
136.716
 11
8.01106
 21
136.646
  0
LINE
  8
0
 10
8.01106
 20
136.646
 11
7.97235
 21
136.577
  0
LINE
  8
0
 10
7.97235
 20
136.577
 11
7.93034
 21
136.511
  0
LINE
  8
0
 10
7.93034
 20
136.511
 11
7.88513
 21
136.447
  0
LINE
  8
0
 10
7.88513
 20
136.447
 11
7.83681
 21
136.385
  0
LINE
  8
0
 10
7.83681
 20
136.385
 11
7.78551
 21
136.326
  0
LINE
  8
0
 10
7.78551
 20
136.326
 11
7.73137
 21
136.269
  0
LINE
  8
0
 10
7.73137
 20
136.269
 11
7.67448
 21
136.214
  0
LINE
  8
0
 10
7.67448
 20
136.214
 11
7.61502
 21
136.163
  0
LINE
  8
0
 10
7.61502
 20
136.163
 11
7.55312
 21
136.115
  0
LINE
  8
0
 10
7.55312
 20
136.115
 11
7.48891
 21
136.07
  0
LINE
  8
0
 10
7.48891
 20
136.07
 11
7.42256
 21
136.028
  0
LINE
  8
0
 10
7.42256
 20
136.028
 11
7.35423
 21
135.989
  0
LINE
  8
0
 10
7.35423
 20
135.989
 11
7.28409
 21
135.954
  0
LINE
  8
0
 10
7.28409
 20
135.954
 11
7.21228
 21
135.922
  0
LINE
  8
0
 10
7.21228
 20
135.922
 11
7.13902
 21
135.894
  0
LINE
  8
0
 10
7.13902
 20
135.894
 11
7.06445
 21
135.869
  0
LINE
  8
0
 10
7.06445
 20
135.869
 11
6.98875
 21
135.848
  0
LINE
  8
0
 10
6.98875
 20
135.848
 11
6.91214
 21
135.831
  0
LINE
  8
0
 10
6.91214
 20
135.831
 11
6.83476
 21
135.817
  0
LINE
  8
0
 10
6.83476
 20
135.817
 11
6.75682
 21
135.808
  0
LINE
  8
0
 10
6.75682
 20
135.808
 11
6.6785
 21
135.802
  0
LINE
  8
0
 10
6.6785
 20
135.802
 11
6.59999
 21
135.8
  0
LINE
  8
0
 10
6.59999
 20
135.8
 11
6.52148
 21
135.802
  0
LINE
  8
0
 10
11.5
 20
10
 11
11.3037
 21
10.0048
  0
LINE
  8
0
 10
11.3037
 20
10.0048
 11
11.1079
 21
10.0193
  0
LINE
  8
0
 10
11.1079
 20
10.0193
 11
10.9131
 21
10.0433
  0
LINE
  8
0
 10
10.9131
 20
10.0433
 11
10.7196
 21
10.0769
  0
LINE
  8
0
 10
10.7196
 20
10.0769
 11
10.5281
 21
10.1199
  0
LINE
  8
0
 10
10.5281
 20
10.1199
 11
10.3389
 21
10.1722
  0
LINE
  8
0
 10
10.3389
 20
10.1722
 11
10.1524
 21
10.2338
  0
LINE
  8
0
 10
10.1524
 20
10.2338
 11
9.96925
 21
10.3045
  0
LINE
  8
0
 10
9.96925
 20
10.3045
 11
9.78976
 21
10.384
  0
LINE
  8
0
 10
9.78976
 20
10.384
 11
9.61441
 21
10.4723
  0
LINE
  8
0
 10
9.61441
 20
10.4723
 11
9.44359
 21
10.5691
  0
LINE
  8
0
 10
9.44359
 20
10.5691
 11
9.27771
 21
10.6741
  0
LINE
  8
0
 10
9.27771
 20
10.6741
 11
9.1172
 21
10.7872
  0
LINE
  8
0
 10
9.1172
 20
10.7872
 11
8.96242
 21
10.9079
  0
LINE
  8
0
 10
8.96242
 20
10.9079
 11
8.81375
 21
11.0362
  0
LINE
  8
0
 10
8.81375
 20
11.0362
 11
8.67157
 21
11.1716
  0
LINE
  8
0
 10
8.67157
 20
11.1716
 11
8.53619
 21
11.3138
  0
LINE
  8
0
 10
8.53619
 20
11.3138
 11
8.40794
 21
11.4624
  0
LINE
  8
0
 10
8.40794
 20
11.4624
 11
8.28716
 21
11.6172
  0
LINE
  8
0
 10
8.28716
 20
11.6172
 11
8.17412
 21
11.7777
  0
LINE
  8
0
 10
8.17412
 20
11.7777
 11
8.06908
 21
11.9436
  0
LINE
  8
0
 10
8.06908
 20
11.9436
 11
7.97231
 21
12.1144
  0
LINE
  8
0
 10
7.97231
 20
12.1144
 11
7.88403
 21
12.2898
  0
LINE
  8
0
 10
7.88403
 20
12.2898
 11
7.80447
 21
12.4693
  0
LINE
  8
0
 10
7.80447
 20
12.4693
 11
7.73381
 21
12.6524
  0
LINE
  8
0
 10
7.73381
 20
12.6524
 11
7.67223
 21
12.8389
  0
LINE
  8
0
 10
7.67223
 20
12.8389
 11
7.61987
 21
13.0281
  0
LINE
  8
0
 10
7.61987
 20
13.0281
 11
7.57686
 21
13.2196
  0
LINE
  8
0
 10
7.57686
 20
13.2196
 11
7.54329
 21
13.4131
  0
LINE
  8
0
 10
7.54329
 20
13.4131
 11
7.51926
 21
13.6079
  0
LINE
  8
0
 10
7.51926
 20
13.6079
 11
7.50481
 21
13.8037
  0
LINE
  8
0
 10
7.50481
 20
13.8037
 11
7.5
 21
14
  0
LINE
  8
0
 10
7.5
 20
14
 11
7.5
 21
73
  0
LINE
  8
0
 10
7.5
 20
73
 11
7.50481
 21
73.1963
  0
LINE
  8
0
 10
7.50481
 20
73.1963
 11
7.51926
 21
73.3921
  0
LINE
  8
0
 10
7.51926
 20
73.3921
 11
7.54329
 21
73.5869
  0
LINE
  8
0
 10
7.54329
 20
73.5869
 11
7.57686
 21
73.7803
  0
LINE
  8
0
 10
7.57686
 20
73.7803
 11
7.61987
 21
73.9719
  0
LINE
  8
0
 10
7.61987
 20
73.9719
 11
7.67223
 21
74.1611
  0
LINE
  8
0
 10
7.67223
 20
74.1611
 11
7.73381
 21
74.3475
  0
LINE
  8
0
 10
7.73381
 20
74.3475
 11
7.80447
 21
74.5307
  0
LINE
  8
0
 10
7.80447
 20
74.5307
 11
7.88403
 21
74.7102
  0
LINE
  8
0
 10
7.88403
 20
74.7102
 11
7.97231
 21
74.8856
  0
LINE
  8
0
 10
7.97231
 20
74.8856
 11
8.06908
 21
75.0564
  0
LINE
  8
0
 10
8.06908
 20
75.0564
 11
8.17412
 21
75.2223
  0
LINE
  8
0
 10
8.17412
 20
75.2223
 11
8.28716
 21
75.3828
  0
LINE
  8
0
 10
8.28716
 20
75.3828
 11
8.40794
 21
75.5376
  0
LINE
  8
0
 10
8.40794
 20
75.5376
 11
8.53619
 21
75.6862
  0
LINE
  8
0
 10
8.53619
 20
75.6862
 11
8.67157
 21
75.8284
  0
LINE
  8
0
 10
8.67157
 20
75.8284
 11
8.81375
 21
75.9638
  0
LINE
  8
0
 10
8.81375
 20
75.9638
 11
8.96242
 21
76.092
  0
LINE
  8
0
 10
8.96242
 20
76.092
 11
9.1172
 21
76.2128
  0
LINE
  8
0
 10
9.1172
 20
76.2128
 11
9.27771
 21
76.3259
  0
LINE
  8
0
 10
9.27771
 20
76.3259
 11
9.44359
 21
76.4309
  0
LINE
  8
0
 10
9.44359
 20
76.4309
 11
9.61441
 21
76.5277
  0
LINE
  8
0
 10
9.61441
 20
76.5277
 11
9.78976
 21
76.616
  0
LINE
  8
0
 10
9.78976
 20
76.616
 11
9.96925
 21
76.6955
  0
LINE
  8
0
 10
9.96925
 20
76.6955
 11
10.1524
 21
76.7662
  0
LINE
  8
0
 10
10.1524
 20
76.7662
 11
10.3389
 21
76.8278
  0
LINE
  8
0
 10
10.3389
 20
76.8278
 11
10.5281
 21
76.8801
  0
LINE
  8
0
 10
10.5281
 20
76.8801
 11
10.7196
 21
76.9231
  0
LINE
  8
0
 10
10.7196
 20
76.9231
 11
10.9131
 21
76.9567
  0
LINE
  8
0
 10
10.9131
 20
76.9567
 11
11.1079
 21
76.9807
  0
LINE
  8
0
 10
11.1079
 20
76.9807
 11
11.3037
 21
76.9952
  0
LINE
  8
0
 10
11.3037
 20
76.9952
 11
11.5
 21
77
  0
LINE
  8
0
 10
11.5
 20
77
 11
33.5
 21
77
  0
LINE
  8
0
 10
33.5
 20
77
 11
33.6963
 21
76.9952
  0
LINE
  8
0
 10
33.6963
 20
76.9952
 11
33.8921
 21
76.9807
  0
LINE
  8
0
 10
33.8921
 20
76.9807
 11
34.0869
 21
76.9567
  0
LINE
  8
0
 10
34.0869
 20
76.9567
 11
34.2803
 21
76.9231
  0
LINE
  8
0
 10
34.2803
 20
76.9231
 11
34.4719
 21
76.8801
  0
LINE
  8
0
 10
34.4719
 20
76.8801
 11
34.6611
 21
76.8278
  0
LINE
  8
0
 10
34.6611
 20
76.8278
 11
34.8475
 21
76.7662
  0
LINE
  8
0
 10
34.8475
 20
76.7662
 11
35.0307
 21
76.6955
  0
LINE
  8
0
 10
35.0307
 20
76.6955
 11
35.2102
 21
76.616
  0
LINE
  8
0
 10
35.2102
 20
76.616
 11
35.3856
 21
76.5277
  0
LINE
  8
0
 10
35.3856
 20
76.5277
 11
35.5564
 21
76.4309
  0
LINE
  8
0
 10
35.5564
 20
76.4309
 11
35.7223
 21
76.3259
  0
LINE
  8
0
 10
35.7223
 20
76.3259
 11
35.8828
 21
76.2128
  0
LINE
  8
0
 10
35.8828
 20
76.2128
 11
36.0376
 21
76.092
  0
LINE
  8
0
 10
36.0376
 20
76.092
 11
36.1862
 21
75.9638
  0
LINE
  8
0
 10
36.1862
 20
75.9638
 11
36.3284
 21
75.8284
  0
LINE
  8
0
 10
36.3284
 20
75.8284
 11
36.4638
 21
75.6862
  0
LINE
  8
0
 10
36.4638
 20
75.6862
 11
36.592
 21
75.5376
  0
LINE
  8
0
 10
36.592
 20
75.5376
 11
36.7128
 21
75.3828
  0
LINE
  8
0
 10
36.7128
 20
75.3828
 11
36.8259
 21
75.2223
  0
LINE
  8
0
 10
36.8259
 20
75.2223
 11
36.9309
 21
75.0564
  0
LINE
  8
0
 10
36.9309
 20
75.0564
 11
37.0277
 21
74.8856
  0
LINE
  8
0
 10
37.0277
 20
74.8856
 11
37.116
 21
74.7102
  0
LINE
  8
0
 10
37.116
 20
74.7102
 11
37.1955
 21
74.5307
  0
LINE
  8
0
 10
37.1955
 20
74.5307
 11
37.2662
 21
74.3475
  0
LINE
  8
0
 10
37.2662
 20
74.3475
 11
37.3278
 21
74.1611
  0
LINE
  8
0
 10
37.3278
 20
74.1611
 11
37.3801
 21
73.9719
  0
LINE
  8
0
 10
37.3801
 20
73.9719
 11
37.4231
 21
73.7803
  0
LINE
  8
0
 10
37.4231
 20
73.7803
 11
37.4567
 21
73.5869
  0
LINE
  8
0
 10
37.4567
 20
73.5869
 11
37.4807
 21
73.3921
  0
LINE
  8
0
 10
37.4807
 20
73.3921
 11
37.4952
 21
73.1963
  0
LINE
  8
0
 10
37.4952
 20
73.1963
 11
37.5
 21
73
  0
LINE
  8
0
 10
37.5
 20
73
 11
37.5
 21
14
  0
LINE
  8
0
 10
37.5
 20
14
 11
37.4952
 21
13.8037
  0
LINE
  8
0
 10
37.4952
 20
13.8037
 11
37.4807
 21
13.6079
  0
LINE
  8
0
 10
37.4807
 20
13.6079
 11
37.4567
 21
13.4131
  0
LINE
  8
0
 10
37.4567
 20
13.4131
 11
37.4231
 21
13.2196
  0
LINE
  8
0
 10
37.4231
 20
13.2196
 11
37.3801
 21
13.0281
  0
LINE
  8
0
 10
37.3801
 20
13.0281
 11
37.3278
 21
12.8389
  0
LINE
  8
0
 10
37.3278
 20
12.8389
 11
37.2662
 21
12.6524
  0
LINE
  8
0
 10
37.2662
 20
12.6524
 11
37.1955
 21
12.4693
  0
LINE
  8
0
 10
37.1955
 20
12.4693
 11
37.116
 21
12.2898
  0
LINE
  8
0
 10
37.116
 20
12.2898
 11
37.0277
 21
12.1144
  0
LINE
  8
0
 10
37.0277
 20
12.1144
 11
36.9309
 21
11.9436
  0
LINE
  8
0
 10
36.9309
 20
11.9436
 11
36.8259
 21
11.7777
  0
LINE
  8
0
 10
36.8259
 20
11.7777
 11
36.7128
 21
11.6172
  0
LINE
  8
0
 10
36.7128
 20
11.6172
 11
36.592
 21
11.4624
  0
LINE
  8
0
 10
36.592
 20
11.4624
 11
36.4638
 21
11.3138
  0
LINE
  8
0
 10
36.4638
 20
11.3138
 11
36.3284
 21
11.1716
  0
LINE
  8
0
 10
36.3284
 20
11.1716
 11
36.1862
 21
11.0362
  0
LINE
  8
0
 10
36.1862
 20
11.0362
 11
36.0376
 21
10.9079
  0
LINE
  8
0
 10
36.0376
 20
10.9079
 11
35.8828
 21
10.7872
  0
LINE
  8
0
 10
35.8828
 20
10.7872
 11
35.7223
 21
10.6741
  0
LINE
  8
0
 10
35.7223
 20
10.6741
 11
35.5564
 21
10.5691
  0
LINE
  8
0
 10
35.5564
 20
10.5691
 11
35.3856
 21
10.4723
  0
LINE
  8
0
 10
35.3856
 20
10.4723
 11
35.2102
 21
10.384
  0
LINE
  8
0
 10
35.2102
 20
10.384
 11
35.0307
 21
10.3045
  0
LINE
  8
0
 10
35.0307
 20
10.3045
 11
34.8475
 21
10.2338
  0
LINE
  8
0
 10
34.8475
 20
10.2338
 11
34.6611
 21
10.1722
  0
LINE
  8
0
 10
34.6611
 20
10.1722
 11
34.4719
 21
10.1199
  0
LINE
  8
0
 10
34.4719
 20
10.1199
 11
34.2803
 21
10.0769
  0
LINE
  8
0
 10
34.2803
 20
10.0769
 11
34.0869
 21
10.0433
  0
LINE
  8
0
 10
34.0869
 20
10.0433
 11
33.8921
 21
10.0193
  0
LINE
  8
0
 10
33.8921
 20
10.0193
 11
33.6963
 21
10.0048
  0
LINE
  8
0
 10
33.6963
 20
10.0048
 11
33.5
 21
10
  0
LINE
  8
0
 10
33.5
 20
10
 11
11.5
 21
10
  0
LINE
  8
0
 10
54.5
 20
10
 11
54.3037
 21
10.0048
  0
LINE
  8
0
 10
54.3037
 20
10.0048
 11
54.1079
 21
10.0193
  0
LINE
  8
0
 10
54.1079
 20
10.0193
 11
53.9131
 21
10.0433
  0
LINE
  8
0
 10
53.9131
 20
10.0433
 11
53.7196
 21
10.0769
  0
LINE
  8
0
 10
53.7196
 20
10.0769
 11
53.5281
 21
10.1199
  0
LINE
  8
0
 10
53.5281
 20
10.1199
 11
53.3389
 21
10.1722
  0
LINE
  8
0
 10
53.3389
 20
10.1722
 11
53.1524
 21
10.2338
  0
LINE
  8
0
 10
53.1524
 20
10.2338
 11
52.9693
 21
10.3045
  0
LINE
  8
0
 10
52.9693
 20
10.3045
 11
52.7898
 21
10.384
  0
LINE
  8
0
 10
52.7898
 20
10.384
 11
52.6144
 21
10.4723
  0
LINE
  8
0
 10
52.6144
 20
10.4723
 11
52.4436
 21
10.5691
  0
LINE
  8
0
 10
52.4436
 20
10.5691
 11
52.2777
 21
10.6741
  0
LINE
  8
0
 10
52.2777
 20
10.6741
 11
52.1172
 21
10.7872
  0
LINE
  8
0
 10
52.1172
 20
10.7872
 11
51.9624
 21
10.9079
  0
LINE
  8
0
 10
51.9624
 20
10.9079
 11
51.8138
 21
11.0362
  0
LINE
  8
0
 10
51.8138
 20
11.0362
 11
51.6716
 21
11.1716
  0
LINE
  8
0
 10
51.6716
 20
11.1716
 11
51.5362
 21
11.3138
  0
LINE
  8
0
 10
51.5362
 20
11.3138
 11
51.4079
 21
11.4624
  0
LINE
  8
0
 10
51.4079
 20
11.4624
 11
51.2872
 21
11.6172
  0
LINE
  8
0
 10
51.2872
 20
11.6172
 11
51.1741
 21
11.7777
  0
LINE
  8
0
 10
51.1741
 20
11.7777
 11
51.0691
 21
11.9436
  0
LINE
  8
0
 10
51.0691
 20
11.9436
 11
50.9723
 21
12.1144
  0
LINE
  8
0
 10
50.9723
 20
12.1144
 11
50.884
 21
12.2898
  0
LINE
  8
0
 10
50.884
 20
12.2898
 11
50.8045
 21
12.4693
  0
LINE
  8
0
 10
50.8045
 20
12.4693
 11
50.7338
 21
12.6524
  0
LINE
  8
0
 10
50.7338
 20
12.6524
 11
50.6722
 21
12.8389
  0
LINE
  8
0
 10
50.6722
 20
12.8389
 11
50.6199
 21
13.0281
  0
LINE
  8
0
 10
50.6199
 20
13.0281
 11
50.5769
 21
13.2196
  0
LINE
  8
0
 10
50.5769
 20
13.2196
 11
50.5433
 21
13.4131
  0
LINE
  8
0
 10
50.5433
 20
13.4131
 11
50.5193
 21
13.6079
  0
LINE
  8
0
 10
50.5193
 20
13.6079
 11
50.5048
 21
13.8037
  0
LINE
  8
0
 10
50.5048
 20
13.8037
 11
50.5
 21
14
  0
LINE
  8
0
 10
50.5
 20
14
 11
50.5
 21
73
  0
LINE
  8
0
 10
50.5
 20
73
 11
50.5048
 21
73.1963
  0
LINE
  8
0
 10
50.5048
 20
73.1963
 11
50.5193
 21
73.3921
  0
LINE
  8
0
 10
50.5193
 20
73.3921
 11
50.5433
 21
73.5869
  0
LINE
  8
0
 10
50.5433
 20
73.5869
 11
50.5769
 21
73.7803
  0
LINE
  8
0
 10
50.5769
 20
73.7803
 11
50.6199
 21
73.9719
  0
LINE
  8
0
 10
50.6199
 20
73.9719
 11
50.6722
 21
74.1611
  0
LINE
  8
0
 10
50.6722
 20
74.1611
 11
50.7338
 21
74.3475
  0
LINE
  8
0
 10
50.7338
 20
74.3475
 11
50.8045
 21
74.5307
  0
LINE
  8
0
 10
50.8045
 20
74.5307
 11
50.884
 21
74.7102
  0
LINE
  8
0
 10
50.884
 20
74.7102
 11
50.9723
 21
74.8856
  0
LINE
  8
0
 10
50.9723
 20
74.8856
 11
51.0691
 21
75.0564
  0
LINE
  8
0
 10
51.0691
 20
75.0564
 11
51.1741
 21
75.2223
  0
LINE
  8
0
 10
51.1741
 20
75.2223
 11
51.2872
 21
75.3828
  0
LINE
  8
0
 10
51.2872
 20
75.3828
 11
51.4079
 21
75.5376
  0
LINE
  8
0
 10
51.4079
 20
75.5376
 11
51.5362
 21
75.6862
  0
LINE
  8
0
 10
51.5362
 20
75.6862
 11
51.6716
 21
75.8284
  0
LINE
  8
0
 10
51.6716
 20
75.8284
 11
51.8138
 21
75.9638
  0
LINE
  8
0
 10
51.8138
 20
75.9638
 11
51.9624
 21
76.092
  0
LINE
  8
0
 10
51.9624
 20
76.092
 11
52.1172
 21
76.2128
  0
LINE
  8
0
 10
52.1172
 20
76.2128
 11
52.2777
 21
76.3259
  0
LINE
  8
0
 10
52.2777
 20
76.3259
 11
52.4436
 21
76.4309
  0
LINE
  8
0
 10
52.4436
 20
76.4309
 11
52.6144
 21
76.5277
  0
LINE
  8
0
 10
52.6144
 20
76.5277
 11
52.7898
 21
76.616
  0
LINE
  8
0
 10
52.7898
 20
76.616
 11
52.9693
 21
76.6955
  0
LINE
  8
0
 10
52.9693
 20
76.6955
 11
53.1524
 21
76.7662
  0
LINE
  8
0
 10
53.1524
 20
76.7662
 11
53.3389
 21
76.8278
  0
LINE
  8
0
 10
53.3389
 20
76.8278
 11
53.5281
 21
76.8801
  0
LINE
  8
0
 10
53.5281
 20
76.8801
 11
53.7196
 21
76.9231
  0
LINE
  8
0
 10
53.7196
 20
76.9231
 11
53.9131
 21
76.9567
  0
LINE
  8
0
 10
53.9131
 20
76.9567
 11
54.1079
 21
76.9807
  0
LINE
  8
0
 10
54.1079
 20
76.9807
 11
54.3037
 21
76.9952
  0
LINE
  8
0
 10
54.3037
 20
76.9952
 11
54.5
 21
77
  0
LINE
  8
0
 10
54.5
 20
77
 11
76.5
 21
77
  0
LINE
  8
0
 10
76.5
 20
77
 11
76.6963
 21
76.9952
  0
LINE
  8
0
 10
76.6963
 20
76.9952
 11
76.8921
 21
76.9807
  0
LINE
  8
0
 10
76.8921
 20
76.9807
 11
77.0869
 21
76.9567
  0
LINE
  8
0
 10
77.0869
 20
76.9567
 11
77.2803
 21
76.9231
  0
LINE
  8
0
 10
77.2803
 20
76.9231
 11
77.4719
 21
76.8801
  0
LINE
  8
0
 10
77.4719
 20
76.8801
 11
77.6611
 21
76.8278
  0
LINE
  8
0
 10
77.6611
 20
76.8278
 11
77.8475
 21
76.7662
  0
LINE
  8
0
 10
77.8475
 20
76.7662
 11
78.0307
 21
76.6955
  0
LINE
  8
0
 10
78.0307
 20
76.6955
 11
78.2102
 21
76.616
  0
LINE
  8
0
 10
78.2102
 20
76.616
 11
78.3856
 21
76.5277
  0
LINE
  8
0
 10
78.3856
 20
76.5277
 11
78.5564
 21
76.4309
  0
LINE
  8
0
 10
78.5564
 20
76.4309
 11
78.7223
 21
76.3259
  0
LINE
  8
0
 10
78.7223
 20
76.3259
 11
78.8828
 21
76.2128
  0
LINE
  8
0
 10
78.8828
 20
76.2128
 11
79.0376
 21
76.092
  0
LINE
  8
0
 10
79.0376
 20
76.092
 11
79.1862
 21
75.9638
  0
LINE
  8
0
 10
79.1862
 20
75.9638
 11
79.3284
 21
75.8284
  0
LINE
  8
0
 10
79.3284
 20
75.8284
 11
79.4638
 21
75.6862
  0
LINE
  8
0
 10
79.4638
 20
75.6862
 11
79.592
 21
75.5376
  0
LINE
  8
0
 10
79.592
 20
75.5376
 11
79.7128
 21
75.3828
  0
LINE
  8
0
 10
79.7128
 20
75.3828
 11
79.8259
 21
75.2223
  0
LINE
  8
0
 10
79.8259
 20
75.2223
 11
79.9309
 21
75.0564
  0
LINE
  8
0
 10
79.9309
 20
75.0564
 11
80.0277
 21
74.8856
  0
LINE
  8
0
 10
80.0277
 20
74.8856
 11
80.116
 21
74.7102
  0
LINE
  8
0
 10
80.116
 20
74.7102
 11
80.1955
 21
74.5307
  0
LINE
  8
0
 10
80.1955
 20
74.5307
 11
80.2662
 21
74.3475
  0
LINE
  8
0
 10
80.2662
 20
74.3475
 11
80.3278
 21
74.1611
  0
LINE
  8
0
 10
80.3278
 20
74.1611
 11
80.3801
 21
73.9719
  0
LINE
  8
0
 10
80.3801
 20
73.9719
 11
80.4231
 21
73.7803
  0
LINE
  8
0
 10
80.4231
 20
73.7803
 11
80.4567
 21
73.5869
  0
LINE
  8
0
 10
80.4567
 20
73.5869
 11
80.4807
 21
73.3921
  0
LINE
  8
0
 10
80.4807
 20
73.3921
 11
80.4952
 21
73.1963
  0
LINE
  8
0
 10
80.4952
 20
73.1963
 11
80.5
 21
73
  0
LINE
  8
0
 10
80.5
 20
73
 11
80.5
 21
14
  0
LINE
  8
0
 10
80.5
 20
14
 11
80.4952
 21
13.8037
  0
LINE
  8
0
 10
80.4952
 20
13.8037
 11
80.4807
 21
13.6079
  0
LINE
  8
0
 10
80.4807
 20
13.6079
 11
80.4567
 21
13.4131
  0
LINE
  8
0
 10
80.4567
 20
13.4131
 11
80.4231
 21
13.2196
  0
LINE
  8
0
 10
80.4231
 20
13.2196
 11
80.3801
 21
13.0281
  0
LINE
  8
0
 10
80.3801
 20
13.0281
 11
80.3278
 21
12.8389
  0
LINE
  8
0
 10
80.3278
 20
12.8389
 11
80.2662
 21
12.6524
  0
LINE
  8
0
 10
80.2662
 20
12.6524
 11
80.1955
 21
12.4693
  0
LINE
  8
0
 10
80.1955
 20
12.4693
 11
80.116
 21
12.2898
  0
LINE
  8
0
 10
80.116
 20
12.2898
 11
80.0277
 21
12.1144
  0
LINE
  8
0
 10
80.0277
 20
12.1144
 11
79.9309
 21
11.9436
  0
LINE
  8
0
 10
79.9309
 20
11.9436
 11
79.8259
 21
11.7777
  0
LINE
  8
0
 10
79.8259
 20
11.7777
 11
79.7128
 21
11.6172
  0
LINE
  8
0
 10
79.7128
 20
11.6172
 11
79.592
 21
11.4624
  0
LINE
  8
0
 10
79.592
 20
11.4624
 11
79.4638
 21
11.3138
  0
LINE
  8
0
 10
79.4638
 20
11.3138
 11
79.3284
 21
11.1716
  0
LINE
  8
0
 10
79.3284
 20
11.1716
 11
79.1862
 21
11.0362
  0
LINE
  8
0
 10
79.1862
 20
11.0362
 11
79.0376
 21
10.9079
  0
LINE
  8
0
 10
79.0376
 20
10.9079
 11
78.8828
 21
10.7872
  0
LINE
  8
0
 10
78.8828
 20
10.7872
 11
78.7223
 21
10.6741
  0
LINE
  8
0
 10
78.7223
 20
10.6741
 11
78.5564
 21
10.5691
  0
LINE
  8
0
 10
78.5564
 20
10.5691
 11
78.3856
 21
10.4723
  0
LINE
  8
0
 10
78.3856
 20
10.4723
 11
78.2102
 21
10.384
  0
LINE
  8
0
 10
78.2102
 20
10.384
 11
78.0307
 21
10.3045
  0
LINE
  8
0
 10
78.0307
 20
10.3045
 11
77.8475
 21
10.2338
  0
LINE
  8
0
 10
77.8475
 20
10.2338
 11
77.6611
 21
10.1722
  0
LINE
  8
0
 10
77.6611
 20
10.1722
 11
77.4719
 21
10.1199
  0
LINE
  8
0
 10
77.4719
 20
10.1199
 11
77.2803
 21
10.0769
  0
LINE
  8
0
 10
77.2803
 20
10.0769
 11
77.0869
 21
10.0433
  0
LINE
  8
0
 10
77.0869
 20
10.0433
 11
76.8921
 21
10.0193
  0
LINE
  8
0
 10
76.8921
 20
10.0193
 11
76.6963
 21
10.0048
  0
LINE
  8
0
 10
76.6963
 20
10.0048
 11
76.5
 21
10
  0
LINE
  8
0
 10
76.5
 20
10
 11
54.5
 21
10
  0
LINE
  8
0
 10
85.3215
 20
56.8019
 11
85.2432
 21
56.8077
  0
LINE
  8
0
 10
85.2432
 20
56.8077
 11
85.1652
 21
56.8173
  0
LINE
  8
0
 10
85.1652
 20
56.8173
 11
85.0878
 21
56.8307
  0
LINE
  8
0
 10
85.0878
 20
56.8307
 11
85.0112
 21
56.8479
  0
LINE
  8
0
 10
85.0112
 20
56.8479
 11
84.9355
 21
56.8689
  0
LINE
  8
0
 10
84.9355
 20
56.8689
 11
84.861
 21
56.8935
  0
LINE
  8
0
 10
84.861
 20
56.8935
 11
84.7877
 21
56.9218
  0
LINE
  8
0
 10
84.7877
 20
56.9218
 11
84.7159
 21
56.9536
  0
LINE
  8
0
 10
84.7159
 20
56.9536
 11
84.6458
 21
56.9889
  0
LINE
  8
0
 10
84.6458
 20
56.9889
 11
84.5774
 21
57.0276
  0
LINE
  8
0
 10
84.5774
 20
57.0276
 11
84.5111
 21
57.0696
  0
LINE
  8
0
 10
84.5111
 20
57.0696
 11
84.4469
 21
57.1149
  0
LINE
  8
0
 10
84.4469
 20
57.1149
 11
84.385
 21
57.1632
  0
LINE
  8
0
 10
84.385
 20
57.1632
 11
84.3255
 21
57.2145
  0
LINE
  8
0
 10
84.3255
 20
57.2145
 11
84.2686
 21
57.2686
  0
LINE
  8
0
 10
84.2686
 20
57.2686
 11
84.2145
 21
57.3255
  0
LINE
  8
0
 10
84.2145
 20
57.3255
 11
84.1632
 21
57.385
  0
LINE
  8
0
 10
84.1632
 20
57.385
 11
84.1149
 21
57.4469
  0
LINE
  8
0
 10
84.1149
 20
57.4469
 11
84.0696
 21
57.5111
  0
LINE
  8
0
 10
84.0696
 20
57.5111
 11
84.0276
 21
57.5774
  0
LINE
  8
0
 10
84.0276
 20
57.5774
 11
83.9889
 21
57.6458
  0
LINE
  8
0
 10
83.9889
 20
57.6458
 11
83.9536
 21
57.7159
  0
LINE
  8
0
 10
83.9536
 20
57.7159
 11
83.9218
 21
57.7877
  0
LINE
  8
0
 10
83.9218
 20
57.7877
 11
83.8935
 21
57.861
  0
LINE
  8
0
 10
83.8935
 20
57.861
 11
83.8689
 21
57.9355
  0
LINE
  8
0
 10
83.8689
 20
57.9355
 11
83.8479
 21
58.0112
  0
LINE
  8
0
 10
83.8479
 20
58.0112
 11
83.8307
 21
58.0878
  0
LINE
  8
0
 10
83.8307
 20
58.0878
 11
83.8173
 21
58.1652
  0
LINE
  8
0
 10
83.8173
 20
58.1652
 11
83.8077
 21
58.2432
  0
LINE
  8
0
 10
83.8077
 20
58.2432
 11
83.8019
 21
58.3215
  0
LINE
  8
0
 10
83.8019
 20
58.3215
 11
83.8
 21
58.4
  0
LINE
  8
0
 10
83.8
 20
58.4
 11
83.8019
 21
58.4785
  0
LINE
  8
0
 10
83.8019
 20
58.4785
 11
83.8077
 21
58.5568
  0
LINE
  8
0
 10
83.8077
 20
58.5568
 11
83.8173
 21
58.6348
  0
LINE
  8
0
 10
83.8173
 20
58.6348
 11
83.8307
 21
58.7121
  0
LINE
  8
0
 10
83.8307
 20
58.7121
 11
83.8479
 21
58.7888
  0
LINE
  8
0
 10
83.8479
 20
58.7888
 11
83.8689
 21
58.8644
  0
LINE
  8
0
 10
83.8689
 20
58.8644
 11
83.8935
 21
58.939
  0
LINE
  8
0
 10
83.8935
 20
58.939
 11
83.9218
 21
59.0123
  0
LINE
  8
0
 10
83.9218
 20
59.0123
 11
83.9536
 21
59.0841
  0
LINE
  8
0
 10
83.9536
 20
59.0841
 11
83.9889
 21
59.1542
  0
LINE
  8
0
 10
83.9889
 20
59.1542
 11
84.0276
 21
59.2225
  0
LINE
  8
0
 10
84.0276
 20
59.2225
 11
84.0696
 21
59.2889
  0
LINE
  8
0
 10
84.0696
 20
59.2889
 11
84.1149
 21
59.3531
  0
LINE
  8
0
 10
84.1149
 20
59.3531
 11
84.1632
 21
59.415
  0
LINE
  8
0
 10
84.1632
 20
59.415
 11
84.2145
 21
59.4745
  0
LINE
  8
0
 10
84.2145
 20
59.4745
 11
84.2686
 21
59.5314
  0
LINE
  8
0
 10
84.2686
 20
59.5314
 11
84.3255
 21
59.5855
  0
LINE
  8
0
 10
84.3255
 20
59.5855
 11
84.385
 21
59.6368
  0
LINE
  8
0
 10
84.385
 20
59.6368
 11
84.4469
 21
59.6851
  0
LINE
  8
0
 10
84.4469
 20
59.6851
 11
84.5111
 21
59.7303
  0
LINE
  8
0
 10
84.5111
 20
59.7303
 11
84.5774
 21
59.7724
  0
LINE
  8
0
 10
84.5774
 20
59.7724
 11
84.6458
 21
59.8111
  0
LINE
  8
0
 10
84.6458
 20
59.8111
 11
84.7159
 21
59.8464
  0
LINE
  8
0
 10
84.7159
 20
59.8464
 11
84.7877
 21
59.8782
  0
LINE
  8
0
 10
84.7877
 20
59.8782
 11
84.861
 21
59.9065
  0
LINE
  8
0
 10
84.861
 20
59.9065
 11
84.9355
 21
59.9311
  0
LINE
  8
0
 10
84.9355
 20
59.9311
 11
85.0112
 21
59.952
  0
LINE
  8
0
 10
85.0112
 20
59.952
 11
85.0878
 21
59.9693
  0
LINE
  8
0
 10
85.0878
 20
59.9693
 11
85.1652
 21
59.9827
  0
LINE
  8
0
 10
85.1652
 20
59.9827
 11
85.2432
 21
59.9923
  0
LINE
  8
0
 10
85.2432
 20
59.9923
 11
85.3215
 21
59.9981
  0
LINE
  8
0
 10
85.3215
 20
59.9981
 11
85.4
 21
60
  0
LINE
  8
0
 10
85.4
 20
60
 11
85.4785
 21
59.9981
  0
LINE
  8
0
 10
85.4785
 20
59.9981
 11
85.5568
 21
59.9923
  0
LINE
  8
0
 10
85.5568
 20
59.9923
 11
85.6348
 21
59.9827
  0
LINE
  8
0
 10
85.6348
 20
59.9827
 11
85.7121
 21
59.9693
  0
LINE
  8
0
 10
85.7121
 20
59.9693
 11
85.7888
 21
59.952
  0
LINE
  8
0
 10
85.7888
 20
59.952
 11
85.8644
 21
59.9311
  0
LINE
  8
0
 10
85.8644
 20
59.9311
 11
85.939
 21
59.9065
  0
LINE
  8
0
 10
85.939
 20
59.9065
 11
86.0123
 21
59.8782
  0
LINE
  8
0
 10
86.0123
 20
59.8782
 11
86.0841
 21
59.8464
  0
LINE
  8
0
 10
86.0841
 20
59.8464
 11
86.1542
 21
59.8111
  0
LINE
  8
0
 10
86.1542
 20
59.8111
 11
86.2225
 21
59.7724
  0
LINE
  8
0
 10
86.2225
 20
59.7724
 11
86.2889
 21
59.7303
  0
LINE
  8
0
 10
86.2889
 20
59.7303
 11
86.3531
 21
59.6851
  0
LINE
  8
0
 10
86.3531
 20
59.6851
 11
86.415
 21
59.6368
  0
LINE
  8
0
 10
86.415
 20
59.6368
 11
86.4745
 21
59.5855
  0
LINE
  8
0
 10
86.4745
 20
59.5855
 11
86.5314
 21
59.5314
  0
LINE
  8
0
 10
86.5314
 20
59.5314
 11
86.5855
 21
59.4745
  0
LINE
  8
0
 10
86.5855
 20
59.4745
 11
86.6368
 21
59.415
  0
LINE
  8
0
 10
86.6368
 20
59.415
 11
86.6851
 21
59.3531
  0
LINE
  8
0
 10
86.6851
 20
59.3531
 11
86.7303
 21
59.2889
  0
LINE
  8
0
 10
86.7303
 20
59.2889
 11
86.7724
 21
59.2225
  0
LINE
  8
0
 10
86.7724
 20
59.2225
 11
86.8111
 21
59.1542
  0
LINE
  8
0
 10
86.8111
 20
59.1542
 11
86.8464
 21
59.0841
  0
LINE
  8
0
 10
86.8464
 20
59.0841
 11
86.8782
 21
59.0123
  0
LINE
  8
0
 10
86.8782
 20
59.0123
 11
86.9065
 21
58.939
  0
LINE
  8
0
 10
86.9065
 20
58.939
 11
86.9311
 21
58.8644
  0
LINE
  8
0
 10
86.9311
 20
58.8644
 11
86.952
 21
58.7888
  0
LINE
  8
0
 10
86.952
 20
58.7888
 11
86.9693
 21
58.7121
  0
LINE
  8
0
 10
86.9693
 20
58.7121
 11
86.9827
 21
58.6348
  0
LINE
  8
0
 10
86.9827
 20
58.6348
 11
86.9923
 21
58.5568
  0
LINE
  8
0
 10
86.9923
 20
58.5568
 11
86.9981
 21
58.4785
  0
LINE
  8
0
 10
86.9981
 20
58.4785
 11
87
 21
58.4
  0
LINE
  8
0
 10
87
 20
58.4
 11
86.9981
 21
58.3215
  0
LINE
  8
0
 10
86.9981
 20
58.3215
 11
86.9923
 21
58.2432
  0
LINE
  8
0
 10
86.9923
 20
58.2432
 11
86.9827
 21
58.1652
  0
LINE
  8
0
 10
86.9827
 20
58.1652
 11
86.9693
 21
58.0878
  0
LINE
  8
0
 10
86.9693
 20
58.0878
 11
86.952
 21
58.0112
  0
LINE
  8
0
 10
86.952
 20
58.0112
 11
86.9311
 21
57.9355
  0
LINE
  8
0
 10
86.9311
 20
57.9355
 11
86.9065
 21
57.861
  0
LINE
  8
0
 10
86.9065
 20
57.861
 11
86.8782
 21
57.7877
  0
LINE
  8
0
 10
86.8782
 20
57.7877
 11
86.8464
 21
57.7159
  0
LINE
  8
0
 10
86.8464
 20
57.7159
 11
86.8111
 21
57.6458
  0
LINE
  8
0
 10
86.8111
 20
57.6458
 11
86.7724
 21
57.5774
  0
LINE
  8
0
 10
86.7724
 20
57.5774
 11
86.7303
 21
57.5111
  0
LINE
  8
0
 10
86.7303
 20
57.5111
 11
86.6851
 21
57.4469
  0
LINE
  8
0
 10
86.6851
 20
57.4469
 11
86.6368
 21
57.385
  0
LINE
  8
0
 10
86.6368
 20
57.385
 11
86.5855
 21
57.3255
  0
LINE
  8
0
 10
86.5855
 20
57.3255
 11
86.5314
 21
57.2686
  0
LINE
  8
0
 10
86.5314
 20
57.2686
 11
86.4745
 21
57.2145
  0
LINE
  8
0
 10
86.4745
 20
57.2145
 11
86.415
 21
57.1632
  0
LINE
  8
0
 10
86.415
 20
57.1632
 11
86.3531
 21
57.1149
  0
LINE
  8
0
 10
86.3531
 20
57.1149
 11
86.2889
 21
57.0696
  0
LINE
  8
0
 10
86.2889
 20
57.0696
 11
86.2225
 21
57.0276
  0
LINE
  8
0
 10
86.2225
 20
57.0276
 11
86.1542
 21
56.9889
  0
LINE
  8
0
 10
86.1542
 20
56.9889
 11
86.0841
 21
56.9536
  0
LINE
  8
0
 10
86.0841
 20
56.9536
 11
86.0123
 21
56.9218
  0
LINE
  8
0
 10
86.0123
 20
56.9218
 11
85.939
 21
56.8935
  0
LINE
  8
0
 10
85.939
 20
56.8935
 11
85.8644
 21
56.8689
  0
LINE
  8
0
 10
85.8644
 20
56.8689
 11
85.7888
 21
56.8479
  0
LINE
  8
0
 10
85.7888
 20
56.8479
 11
85.7121
 21
56.8307
  0
LINE
  8
0
 10
85.7121
 20
56.8307
 11
85.6348
 21
56.8173
  0
LINE
  8
0
 10
85.6348
 20
56.8173
 11
85.5568
 21
56.8077
  0
LINE
  8
0
 10
85.5568
 20
56.8077
 11
85.4785
 21
56.8019
  0
LINE
  8
0
 10
85.4785
 20
56.8019
 11
85.4
 21
56.8
  0
LINE
  8
0
 10
85.4
 20
56.8
 11
85.3215
 21
56.8019
  0
LINE
  8
0
 10
1.52148
 20
0.00192261
 11
1.44316
 21
0.00769043
  0
LINE
  8
0
 10
1.44316
 20
0.00769043
 11
1.36522
 21
0.0173035
  0
LINE
  8
0
 10
1.36522
 20
0.0173035
 11
1.28784
 21
0.0307312
  0
LINE
  8
0
 10
1.28784
 20
0.0307312
 11
1.21123
 21
0.0479431
  0
LINE
  8
0
 10
1.21123
 20
0.0479431
 11
1.13554
 21
0.0688934
  0
LINE
  8
0
 10
1.13554
 20
0.0688934
 11
1.06097
 21
0.0935211
  0
LINE
  8
0
 10
1.06097
 20
0.0935211
 11
0.987701
 21
0.12178
  0
LINE
  8
0
 10
0.987701
 20
0.12178
 11
0.915909
 21
0.15361
  0
LINE
  8
0
 10
0.915909
 20
0.15361
 11
0.845764
 21
0.188919
  0
LINE
  8
0
 10
0.845764
 20
0.188919
 11
0.777435
 21
0.227631
  0
LINE
  8
0
 10
0.777435
 20
0.227631
 11
0.711075
 21
0.269638
  0
LINE
  8
0
 10
0.711075
 20
0.269638
 11
0.646881
 21
0.314865
  0
LINE
  8
0
 10
0.646881
 20
0.314865
 11
0.584961
 21
0.363174
  0
LINE
  8
0
 10
0.584961
 20
0.363174
 11
0.525497
 21
0.414474
  0
LINE
  8
0
 10
0.525497
 20
0.414474
 11
0.468628
 21
0.468628
  0
LINE
  8
0
 10
0.468628
 20
0.468628
 11
0.414474
 21
0.525497
  0
LINE
  8
0
 10
0.414474
 20
0.525497
 11
0.363174
 21
0.584961
  0
LINE
  8
0
 10
0.363174
 20
0.584961
 11
0.314865
 21
0.646881
  0
LINE
  8
0
 10
0.314865
 20
0.646881
 11
0.269638
 21
0.711075
  0
LINE
  8
0
 10
0.269638
 20
0.711075
 11
0.227631
 21
0.777435
  0
LINE
  8
0
 10
0.227631
 20
0.777435
 11
0.188919
 21
0.845764
  0
LINE
  8
0
 10
0.188919
 20
0.845764
 11
0.15361
 21
0.915909
  0
LINE
  8
0
 10
0.15361
 20
0.915909
 11
0.12178
 21
0.987701
  0
LINE
  8
0
 10
0.12178
 20
0.987701
 11
0.0935211
 21
1.06097
  0
LINE
  8
0
 10
0.0935211
 20
1.06097
 11
0.0688934
 21
1.13554
  0
LINE
  8
0
 10
0.0688934
 20
1.13554
 11
0.0479431
 21
1.21123
  0
LINE
  8
0
 10
0.0479431
 20
1.21123
 11
0.0307312
 21
1.28784
  0
LINE
  8
0
 10
0.0307312
 20
1.28784
 11
0.0173035
 21
1.36522
  0
LINE
  8
0
 10
0.0173035
 20
1.36522
 11
0.00769043
 21
1.44316
  0
LINE
  8
0
 10
0.00769043
 20
1.44316
 11
0.00192261
 21
1.52148
  0
LINE
  8
0
 10
0.00192261
 20
1.52148
 11
0
 21
1.59999
  0
LINE
  8
0
 10
0
 20
1.59999
 11
0.00192261
 21
1.6785
  0
LINE
  8
0
 10
0.00192261
 20
1.6785
 11
0.00769043
 21
1.75682
  0
LINE
  8
0
 10
0.00769043
 20
1.75682
 11
0.0173035
 21
1.83476
  0
LINE
  8
0
 10
0.0173035
 20
1.83476
 11
0.0307312
 21
1.91214
  0
LINE
  8
0
 10
0.0307312
 20
1.91214
 11
0.0479431
 21
1.98875
  0
LINE
  8
0
 10
0.0479431
 20
1.98875
 11
0.0688934
 21
2.06445
  0
LINE
  8
0
 10
0.0688934
 20
2.06445
 11
0.0935211
 21
2.13902
  0
LINE
  8
0
 10
0.0935211
 20
2.13902
 11
0.12178
 21
2.21228
  0
LINE
  8
0
 10
0.12178
 20
2.21228
 11
0.15361
 21
2.28409
  0
LINE
  8
0
 10
0.15361
 20
2.28409
 11
0.188919
 21
2.35423
  0
LINE
  8
0
 10
0.188919
 20
2.35423
 11
0.227631
 21
2.42256
  0
LINE
  8
0
 10
0.227631
 20
2.42256
 11
0.269638
 21
2.48891
  0
LINE
  8
0
 10
0.269638
 20
2.48891
 11
0.314865
 21
2.55312
  0
LINE
  8
0
 10
0.314865
 20
2.55312
 11
0.363174
 21
2.61502
  0
LINE
  8
0
 10
0.363174
 20
2.61502
 11
0.414474
 21
2.67448
  0
LINE
  8
0
 10
0.414474
 20
2.67448
 11
0.468628
 21
2.73137
  0
LINE
  8
0
 10
0.468628
 20
2.73137
 11
0.525497
 21
2.78551
  0
LINE
  8
0
 10
0.525497
 20
2.78551
 11
0.584961
 21
2.83681
  0
LINE
  8
0
 10
0.584961
 20
2.83681
 11
0.646881
 21
2.88513
  0
LINE
  8
0
 10
0.646881
 20
2.88513
 11
0.711075
 21
2.93034
  0
LINE
  8
0
 10
0.711075
 20
2.93034
 11
0.777435
 21
2.97235
  0
LINE
  8
0
 10
0.777435
 20
2.97235
 11
0.845764
 21
3.01106
  0
LINE
  8
0
 10
0.845764
 20
3.01106
 11
0.915909
 21
3.04637
  0
LINE
  8
0
 10
0.915909
 20
3.04637
 11
0.987701
 21
3.0782
  0
LINE
  8
0
 10
0.987701
 20
3.0782
 11
1.06097
 21
3.10646
  0
LINE
  8
0
 10
1.06097
 20
3.10646
 11
1.13554
 21
3.1311
  0
LINE
  8
0
 10
1.13554
 20
3.1311
 11
1.21123
 21
3.15204
  0
LINE
  8
0
 10
1.21123
 20
3.15204
 11
1.28784
 21
3.16925
  0
LINE
  8
0
 10
1.28784
 20
3.16925
 11
1.36522
 21
3.18268
  0
LINE
  8
0
 10
1.36522
 20
3.18268
 11
1.44316
 21
3.19229
  0
LINE
  8
0
 10
1.44316
 20
3.19229
 11
1.52148
 21
3.19806
  0
LINE
  8
0
 10
1.52148
 20
3.19806
 11
1.59999
 21
3.2
  0
LINE
  8
0
 10
1.59999
 20
3.2
 11
1.6785
 21
3.19806
  0
LINE
  8
0
 10
1.6785
 20
3.19806
 11
1.75682
 21
3.19229
  0
LINE
  8
0
 10
1.75682
 20
3.19229
 11
1.83476
 21
3.18268
  0
LINE
  8
0
 10
1.83476
 20
3.18268
 11
1.91214
 21
3.16925
  0
LINE
  8
0
 10
1.91214
 20
3.16925
 11
1.98875
 21
3.15204
  0
LINE
  8
0
 10
1.98875
 20
3.15204
 11
2.06445
 21
3.1311
  0
LINE
  8
0
 10
2.06445
 20
3.1311
 11
2.13902
 21
3.10646
  0
LINE
  8
0
 10
2.13902
 20
3.10646
 11
2.21228
 21
3.0782
  0
LINE
  8
0
 10
2.21228
 20
3.0782
 11
2.28409
 21
3.04637
  0
LINE
  8
0
 10
2.28409
 20
3.04637
 11
2.35423
 21
3.01106
  0
LINE
  8
0
 10
2.35423
 20
3.01106
 11
2.42256
 21
2.97235
  0
LINE
  8
0
 10
2.42256
 20
2.97235
 11
2.48891
 21
2.93034
  0
LINE
  8
0
 10
2.48891
 20
2.93034
 11
2.55312
 21
2.88513
  0
LINE
  8
0
 10
2.55312
 20
2.88513
 11
2.61502
 21
2.83681
  0
LINE
  8
0
 10
2.61502
 20
2.83681
 11
2.67448
 21
2.78551
  0
LINE
  8
0
 10
2.67448
 20
2.78551
 11
2.73137
 21
2.73137
  0
LINE
  8
0
 10
2.73137
 20
2.73137
 11
2.78551
 21
2.67448
  0
LINE
  8
0
 10
2.78551
 20
2.67448
 11
2.83681
 21
2.61502
  0
LINE
  8
0
 10
2.83681
 20
2.61502
 11
2.88513
 21
2.55312
  0
LINE
  8
0
 10
2.88513
 20
2.55312
 11
2.93034
 21
2.48891
  0
LINE
  8
0
 10
2.93034
 20
2.48891
 11
2.97235
 21
2.42256
  0
LINE
  8
0
 10
2.97235
 20
2.42256
 11
3.01106
 21
2.35423
  0
LINE
  8
0
 10
3.01106
 20
2.35423
 11
3.04637
 21
2.28409
  0
LINE
  8
0
 10
3.04637
 20
2.28409
 11
3.0782
 21
2.21228
  0
LINE
  8
0
 10
3.0782
 20
2.21228
 11
3.10646
 21
2.13902
  0
LINE
  8
0
 10
3.10646
 20
2.13902
 11
3.1311
 21
2.06445
  0
LINE
  8
0
 10
3.1311
 20
2.06445
 11
3.15204
 21
1.98875
  0
LINE
  8
0
 10
3.15204
 20
1.98875
 11
3.16925
 21
1.91214
  0
LINE
  8
0
 10
3.16925
 20
1.91214
 11
3.18268
 21
1.83476
  0
LINE
  8
0
 10
3.18268
 20
1.83476
 11
3.19229
 21
1.75682
  0
LINE
  8
0
 10
3.19229
 20
1.75682
 11
3.19806
 21
1.6785
  0
LINE
  8
0
 10
3.19806
 20
1.6785
 11
3.2
 21
1.59999
  0
LINE
  8
0
 10
3.2
 20
1.59999
 11
3.19806
 21
1.52148
  0
LINE
  8
0
 10
3.19806
 20
1.52148
 11
3.19229
 21
1.44316
  0
LINE
  8
0
 10
3.19229
 20
1.44316
 11
3.18268
 21
1.36522
  0
LINE
  8
0
 10
3.18268
 20
1.36522
 11
3.16925
 21
1.28784
  0
LINE
  8
0
 10
3.16925
 20
1.28784
 11
3.15204
 21
1.21123
  0
LINE
  8
0
 10
3.15204
 20
1.21123
 11
3.1311
 21
1.13554
  0
LINE
  8
0
 10
3.1311
 20
1.13554
 11
3.10646
 21
1.06097
  0
LINE
  8
0
 10
3.10646
 20
1.06097
 11
3.0782
 21
0.987701
  0
LINE
  8
0
 10
3.0782
 20
0.987701
 11
3.04637
 21
0.915909
  0
LINE
  8
0
 10
3.04637
 20
0.915909
 11
3.01106
 21
0.845764
  0
LINE
  8
0
 10
3.01106
 20
0.845764
 11
2.97235
 21
0.777435
  0
LINE
  8
0
 10
2.97235
 20
0.777435
 11
2.93034
 21
0.711075
  0
LINE
  8
0
 10
2.93034
 20
0.711075
 11
2.88513
 21
0.646881
  0
LINE
  8
0
 10
2.88513
 20
0.646881
 11
2.83681
 21
0.584961
  0
LINE
  8
0
 10
2.83681
 20
0.584961
 11
2.78551
 21
0.525497
  0
LINE
  8
0
 10
2.78551
 20
0.525497
 11
2.73137
 21
0.468628
  0
LINE
  8
0
 10
2.73137
 20
0.468628
 11
2.67448
 21
0.414474
  0
LINE
  8
0
 10
2.67448
 20
0.414474
 11
2.61502
 21
0.363174
  0
LINE
  8
0
 10
2.61502
 20
0.363174
 11
2.55312
 21
0.314865
  0
LINE
  8
0
 10
2.55312
 20
0.314865
 11
2.48891
 21
0.269638
  0
LINE
  8
0
 10
2.48891
 20
0.269638
 11
2.42256
 21
0.227631
  0
LINE
  8
0
 10
2.42256
 20
0.227631
 11
2.35423
 21
0.188919
  0
LINE
  8
0
 10
2.35423
 20
0.188919
 11
2.28409
 21
0.15361
  0
LINE
  8
0
 10
2.28409
 20
0.15361
 11
2.21228
 21
0.12178
  0
LINE
  8
0
 10
2.21228
 20
0.12178
 11
2.13902
 21
0.0935211
  0
LINE
  8
0
 10
2.13902
 20
0.0935211
 11
2.06445
 21
0.0688934
  0
LINE
  8
0
 10
2.06445
 20
0.0688934
 11
1.98875
 21
0.0479431
  0
LINE
  8
0
 10
1.98875
 20
0.0479431
 11
1.91214
 21
0.0307312
  0
LINE
  8
0
 10
1.91214
 20
0.0307312
 11
1.83476
 21
0.0173035
  0
LINE
  8
0
 10
1.83476
 20
0.0173035
 11
1.75682
 21
0.00769043
  0
LINE
  8
0
 10
1.75682
 20
0.00769043
 11
1.6785
 21
0.00192261
  0
LINE
  8
0
 10
1.6785
 20
0.00192261
 11
1.59999
 21
0
  0
LINE
  8
0
 10
1.59999
 20
0
 11
1.52148
 21
0.00192261
  0
LINE
  8
0
 10
86.3215
 20
0.00192261
 11
86.2432
 21
0.00769043
  0
LINE
  8
0
 10
86.2432
 20
0.00769043
 11
86.1652
 21
0.0173035
  0
LINE
  8
0
 10
86.1652
 20
0.0173035
 11
86.0878
 21
0.0307312
  0
LINE
  8
0
 10
86.0878
 20
0.0307312
 11
86.0112
 21
0.0479431
  0
LINE
  8
0
 10
86.0112
 20
0.0479431
 11
85.9355
 21
0.0688934
  0
LINE
  8
0
 10
85.9355
 20
0.0688934
 11
85.861
 21
0.0935211
  0
LINE
  8
0
 10
85.861
 20
0.0935211
 11
85.7877
 21
0.12178
  0
LINE
  8
0
 10
85.7877
 20
0.12178
 11
85.7159
 21
0.15361
  0
LINE
  8
0
 10
85.7159
 20
0.15361
 11
85.6458
 21
0.188919
  0
LINE
  8
0
 10
85.6458
 20
0.188919
 11
85.5774
 21
0.227631
  0
LINE
  8
0
 10
85.5774
 20
0.227631
 11
85.5111
 21
0.269638
  0
LINE
  8
0
 10
85.5111
 20
0.269638
 11
85.4469
 21
0.314865
  0
LINE
  8
0
 10
85.4469
 20
0.314865
 11
85.385
 21
0.363174
  0
LINE
  8
0
 10
85.385
 20
0.363174
 11
85.3255
 21
0.414474
  0
LINE
  8
0
 10
85.3255
 20
0.414474
 11
85.2686
 21
0.468628
  0
LINE
  8
0
 10
85.2686
 20
0.468628
 11
85.2145
 21
0.525497
  0
LINE
  8
0
 10
85.2145
 20
0.525497
 11
85.1632
 21
0.584961
  0
LINE
  8
0
 10
85.1632
 20
0.584961
 11
85.1149
 21
0.646881
  0
LINE
  8
0
 10
85.1149
 20
0.646881
 11
85.0696
 21
0.711075
  0
LINE
  8
0
 10
85.0696
 20
0.711075
 11
85.0276
 21
0.777435
  0
LINE
  8
0
 10
85.0276
 20
0.777435
 11
84.9889
 21
0.845764
  0
LINE
  8
0
 10
84.9889
 20
0.845764
 11
84.9536
 21
0.915909
  0
LINE
  8
0
 10
84.9536
 20
0.915909
 11
84.9218
 21
0.987701
  0
LINE
  8
0
 10
84.9218
 20
0.987701
 11
84.8935
 21
1.06097
  0
LINE
  8
0
 10
84.8935
 20
1.06097
 11
84.8689
 21
1.13554
  0
LINE
  8
0
 10
84.8689
 20
1.13554
 11
84.8479
 21
1.21123
  0
LINE
  8
0
 10
84.8479
 20
1.21123
 11
84.8307
 21
1.28784
  0
LINE
  8
0
 10
84.8307
 20
1.28784
 11
84.8173
 21
1.36522
  0
LINE
  8
0
 10
84.8173
 20
1.36522
 11
84.8077
 21
1.44316
  0
LINE
  8
0
 10
84.8077
 20
1.44316
 11
84.8019
 21
1.52148
  0
LINE
  8
0
 10
84.8019
 20
1.52148
 11
84.8
 21
1.59999
  0
LINE
  8
0
 10
84.8
 20
1.59999
 11
84.8019
 21
1.6785
  0
LINE
  8
0
 10
84.8019
 20
1.6785
 11
84.8077
 21
1.75682
  0
LINE
  8
0
 10
84.8077
 20
1.75682
 11
84.8173
 21
1.83476
  0
LINE
  8
0
 10
84.8173
 20
1.83476
 11
84.8307
 21
1.91214
  0
LINE
  8
0
 10
84.8307
 20
1.91214
 11
84.8479
 21
1.98875
  0
LINE
  8
0
 10
84.8479
 20
1.98875
 11
84.8689
 21
2.06445
  0
LINE
  8
0
 10
84.8689
 20
2.06445
 11
84.8935
 21
2.13902
  0
LINE
  8
0
 10
84.8935
 20
2.13902
 11
84.9218
 21
2.21228
  0
LINE
  8
0
 10
84.9218
 20
2.21228
 11
84.9536
 21
2.28409
  0
LINE
  8
0
 10
84.9536
 20
2.28409
 11
84.9889
 21
2.35423
  0
LINE
  8
0
 10
84.9889
 20
2.35423
 11
85.0276
 21
2.42256
  0
LINE
  8
0
 10
85.0276
 20
2.42256
 11
85.0696
 21
2.48891
  0
LINE
  8
0
 10
85.0696
 20
2.48891
 11
85.1149
 21
2.55312
  0
LINE
  8
0
 10
85.1149
 20
2.55312
 11
85.1632
 21
2.61502
  0
LINE
  8
0
 10
85.1632
 20
2.61502
 11
85.2145
 21
2.67448
  0
LINE
  8
0
 10
85.2145
 20
2.67448
 11
85.2686
 21
2.73137
  0
LINE
  8
0
 10
85.2686
 20
2.73137
 11
85.3255
 21
2.78551
  0
LINE
  8
0
 10
85.3255
 20
2.78551
 11
85.385
 21
2.83681
  0
LINE
  8
0
 10
85.385
 20
2.83681
 11
85.4469
 21
2.88513
  0
LINE
  8
0
 10
85.4469
 20
2.88513
 11
85.5111
 21
2.93034
  0
LINE
  8
0
 10
85.5111
 20
2.93034
 11
85.5774
 21
2.97235
  0
LINE
  8
0
 10
85.5774
 20
2.97235
 11
85.6458
 21
3.01106
  0
LINE
  8
0
 10
85.6458
 20
3.01106
 11
85.7159
 21
3.04637
  0
LINE
  8
0
 10
85.7159
 20
3.04637
 11
85.7877
 21
3.0782
  0
LINE
  8
0
 10
85.7877
 20
3.0782
 11
85.861
 21
3.10646
  0
LINE
  8
0
 10
85.861
 20
3.10646
 11
85.9355
 21
3.1311
  0
LINE
  8
0
 10
85.9355
 20
3.1311
 11
86.0112
 21
3.15204
  0
LINE
  8
0
 10
86.0112
 20
3.15204
 11
86.0878
 21
3.16925
  0
LINE
  8
0
 10
86.0878
 20
3.16925
 11
86.1652
 21
3.18268
  0
LINE
  8
0
 10
86.1652
 20
3.18268
 11
86.2432
 21
3.19229
  0
LINE
  8
0
 10
86.2432
 20
3.19229
 11
86.3215
 21
3.19806
  0
LINE
  8
0
 10
86.3215
 20
3.19806
 11
86.4
 21
3.2
  0
LINE
  8
0
 10
86.4
 20
3.2
 11
86.4785
 21
3.19806
  0
LINE
  8
0
 10
86.4785
 20
3.19806
 11
86.5568
 21
3.19229
  0
LINE
  8
0
 10
86.5568
 20
3.19229
 11
86.6348
 21
3.18268
  0
LINE
  8
0
 10
86.6348
 20
3.18268
 11
86.7121
 21
3.16925
  0
LINE
  8
0
 10
86.7121
 20
3.16925
 11
86.7888
 21
3.15204
  0
LINE
  8
0
 10
86.7888
 20
3.15204
 11
86.8644
 21
3.1311
  0
LINE
  8
0
 10
86.8644
 20
3.1311
 11
86.939
 21
3.10646
  0
LINE
  8
0
 10
86.939
 20
3.10646
 11
87.0123
 21
3.0782
  0
LINE
  8
0
 10
87.0123
 20
3.0782
 11
87.0841
 21
3.04637
  0
LINE
  8
0
 10
87.0841
 20
3.04637
 11
87.1542
 21
3.01106
  0
LINE
  8
0
 10
87.1542
 20
3.01106
 11
87.2225
 21
2.97235
  0
LINE
  8
0
 10
87.2225
 20
2.97235
 11
87.2889
 21
2.93034
  0
LINE
  8
0
 10
87.2889
 20
2.93034
 11
87.3531
 21
2.88513
  0
LINE
  8
0
 10
87.3531
 20
2.88513
 11
87.415
 21
2.83681
  0
LINE
  8
0
 10
87.415
 20
2.83681
 11
87.4745
 21
2.78551
  0
LINE
  8
0
 10
87.4745
 20
2.78551
 11
87.5314
 21
2.73137
  0
LINE
  8
0
 10
87.5314
 20
2.73137
 11
87.5855
 21
2.67448
  0
LINE
  8
0
 10
87.5855
 20
2.67448
 11
87.6368
 21
2.61502
  0
LINE
  8
0
 10
87.6368
 20
2.61502
 11
87.6851
 21
2.55312
  0
LINE
  8
0
 10
87.6851
 20
2.55312
 11
87.7303
 21
2.48891
  0
LINE
  8
0
 10
87.7303
 20
2.48891
 11
87.7724
 21
2.42256
  0
LINE
  8
0
 10
87.7724
 20
2.42256
 11
87.8111
 21
2.35423
  0
LINE
  8
0
 10
87.8111
 20
2.35423
 11
87.8464
 21
2.28409
  0
LINE
  8
0
 10
87.8464
 20
2.28409
 11
87.8782
 21
2.21228
  0
LINE
  8
0
 10
87.8782
 20
2.21228
 11
87.9065
 21
2.13902
  0
LINE
  8
0
 10
87.9065
 20
2.13902
 11
87.9311
 21
2.06445
  0
LINE
  8
0
 10
87.9311
 20
2.06445
 11
87.952
 21
1.98875
  0
LINE
  8
0
 10
87.952
 20
1.98875
 11
87.9693
 21
1.91214
  0
LINE
  8
0
 10
87.9693
 20
1.91214
 11
87.9827
 21
1.83476
  0
LINE
  8
0
 10
87.9827
 20
1.83476
 11
87.9923
 21
1.75682
  0
LINE
  8
0
 10
87.9923
 20
1.75682
 11
87.9981
 21
1.6785
  0
LINE
  8
0
 10
87.9981
 20
1.6785
 11
88
 21
1.59999
  0
LINE
  8
0
 10
88
 20
1.59999
 11
87.9981
 21
1.52148
  0
LINE
  8
0
 10
87.9981
 20
1.52148
 11
87.9923
 21
1.44316
  0
LINE
  8
0
 10
87.9923
 20
1.44316
 11
87.9827
 21
1.36522
  0
LINE
  8
0
 10
87.9827
 20
1.36522
 11
87.9693
 21
1.28784
  0
LINE
  8
0
 10
87.9693
 20
1.28784
 11
87.952
 21
1.21123
  0
LINE
  8
0
 10
87.952
 20
1.21123
 11
87.9311
 21
1.13554
  0
LINE
  8
0
 10
87.9311
 20
1.13554
 11
87.9065
 21
1.06097
  0
LINE
  8
0
 10
87.9065
 20
1.06097
 11
87.8782
 21
0.987701
  0
LINE
  8
0
 10
87.8782
 20
0.987701
 11
87.8464
 21
0.915909
  0
LINE
  8
0
 10
87.8464
 20
0.915909
 11
87.8111
 21
0.845764
  0
LINE
  8
0
 10
87.8111
 20
0.845764
 11
87.7724
 21
0.777435
  0
LINE
  8
0
 10
87.7724
 20
0.777435
 11
87.7303
 21
0.711075
  0
LINE
  8
0
 10
87.7303
 20
0.711075
 11
87.6851
 21
0.646881
  0
LINE
  8
0
 10
87.6851
 20
0.646881
 11
87.6368
 21
0.584961
  0
LINE
  8
0
 10
87.6368
 20
0.584961
 11
87.5855
 21
0.525497
  0
LINE
  8
0
 10
87.5855
 20
0.525497
 11
87.5314
 21
0.468628
  0
LINE
  8
0
 10
87.5314
 20
0.468628
 11
87.4745
 21
0.414474
  0
LINE
  8
0
 10
87.4745
 20
0.414474
 11
87.415
 21
0.363174
  0
LINE
  8
0
 10
87.415
 20
0.363174
 11
87.3531
 21
0.314865
  0
LINE
  8
0
 10
87.3531
 20
0.314865
 11
87.2889
 21
0.269638
  0
LINE
  8
0
 10
87.2889
 20
0.269638
 11
87.2225
 21
0.227631
  0
LINE
  8
0
 10
87.2225
 20
0.227631
 11
87.1542
 21
0.188919
  0
LINE
  8
0
 10
87.1542
 20
0.188919
 11
87.0841
 21
0.15361
  0
LINE
  8
0
 10
87.0841
 20
0.15361
 11
87.0123
 21
0.12178
  0
LINE
  8
0
 10
87.0123
 20
0.12178
 11
86.939
 21
0.0935211
  0
LINE
  8
0
 10
86.939
 20
0.0935211
 11
86.8644
 21
0.0688934
  0
LINE
  8
0
 10
86.8644
 20
0.0688934
 11
86.7888
 21
0.0479431
  0
LINE
  8
0
 10
86.7888
 20
0.0479431
 11
86.7121
 21
0.0307312
  0
LINE
  8
0
 10
86.7121
 20
0.0307312
 11
86.6348
 21
0.0173035
  0
LINE
  8
0
 10
86.6348
 20
0.0173035
 11
86.5568
 21
0.00769043
  0
LINE
  8
0
 10
86.5568
 20
0.00769043
 11
86.4785
 21
0.00192261
  0
LINE
  8
0
 10
86.4785
 20
0.00192261
 11
86.4
 21
0
  0
LINE
  8
0
 10
86.4
 20
0
 11
86.3215
 21
0.00192261
  0
ENDSEC
  0
SECTION
  2
OBJECTS
  0
DICTIONARY
  0
ENDSEC
  0
EOF
