M48
; DRILL file {KiCad 5.1.4+dfsg1-1} date Tue 19 Nov 2019 12:30:27 PM PST
; FORMAT={-:-/ absolute / metric / decimal}
; #@! TF.CreationDate,2019-11-19T12:30:27-08:00
; #@! TF.GenerationSoftware,Kicad,Pcbnew,5.1.4+dfsg1-1
FMAT,2
METRIC
T1C0.400
T2C1.000
%
G90
G05
T1
X5.08Y-60.706
X5.715Y-42.926
X6.985Y-44.196
X6.985Y-48.006
X8.255Y-45.466
X8.89Y-54.356
X9.525Y-39.116
X10.795Y-46.907
X10.928Y-54.858
X12.065Y-41.656
X12.446Y-53.848
X13.97Y-18.67
X19.05Y-33.401
X20.32Y-39.751
X20.828Y-3.938
X21.59Y-41.656
X24.13Y-42.926
X24.13Y-44.196
X26.035Y-35.306
X26.67Y-50.546
X28.575Y-39.116
X30.638Y-45.466
X31.115Y-43.561
X33.655Y-45.466
X34.29Y-46.736
X34.925Y-15.876
X35.56Y-51.816
X36.83Y-35.306
X37.465Y-52.451
X37.636Y-39.116
X38.1Y-53.721
X39.37Y-43.561
X40.64Y-62.611
X41.91Y-49.276
X43.145Y-51.348
X43.688Y-56.642
X43.815Y-33.401
X45.466Y-44.196
X45.466Y-49.276
X46.228Y-39.37
X46.393Y-45.474
X47.549Y-51.112
X47.575Y-52.775
X47.752Y-39.37
X48.006Y-48.006
X48.409Y-53.233
X49.066Y-44.985
X50.374Y-45.805
X50.374Y-51.056
X50.763Y-52.738
X50.8Y-55.626
X51.07Y-53.64
X51.385Y-45.838
X52.039Y-53.371
X52.09Y-40.12
X52.324Y-49.022
X53.024Y-47.425
X53.848Y-48.26
X54.07Y-47.032
X54.61Y-62.611
X55.418Y-50.362
X56.388Y-45.72
X56.65Y-39.27
X56.662Y-48.876
X56.662Y-46.99
X56.896Y-17.4
X56.896Y-18.67
X57.112Y-41.059
X57.15Y-37.846
X57.688Y-39.308
X57.785Y-40.386
X57.912Y-35.56
X57.912Y-53.848
X58.791Y-48.305
X59.055Y-47.39
X59.436Y-17.908
X59.436Y-26.924
X59.569Y-62.68
T2
X48.895Y-10.161
X48.895Y-12.701
X51.435Y-10.161
X51.435Y-12.701
X53.975Y-10.161
X53.975Y-12.701
X56.515Y-10.161
X56.515Y-12.701
X59.055Y-10.161
X59.055Y-12.701
X61.595Y-10.161
X61.595Y-12.701
X3.175Y-10.161
X3.175Y-12.701
X5.715Y-10.161
X5.715Y-12.701
X8.255Y-10.161
X8.255Y-12.701
X10.795Y-10.161
X10.795Y-12.701
X13.335Y-10.161
X13.335Y-12.701
X15.875Y-10.161
X15.875Y-12.701
X62.865Y-31.496
X62.865Y-34.036
X62.865Y-36.576
X62.865Y-39.116
X62.865Y-41.656
X62.865Y-44.196
X62.865Y-46.736
X62.865Y-49.276
X62.865Y-51.816
X26.035Y-10.161
X26.035Y-12.701
X28.575Y-10.161
X28.575Y-12.701
X31.115Y-10.161
X31.115Y-12.701
X33.655Y-10.161
X33.655Y-12.701
X36.195Y-10.161
X36.195Y-12.701
X38.735Y-10.161
X38.735Y-12.701
X10.16Y-58.166
X10.16Y-60.706
X12.7Y-58.166
X12.7Y-60.706
X15.24Y-58.166
X15.24Y-60.706
X17.78Y-58.166
X17.78Y-60.706
X20.32Y-58.166
X20.32Y-60.706
X22.86Y-58.166
X22.86Y-60.706
X25.4Y-58.166
X25.4Y-60.706
X27.94Y-58.166
X27.94Y-60.706
X30.48Y-58.166
X30.48Y-60.706
X33.02Y-58.166
X33.02Y-60.706
X35.56Y-58.166
X35.56Y-60.706
X38.1Y-58.166
X38.1Y-60.706
X40.64Y-58.166
X40.64Y-60.706
X43.18Y-58.166
X43.18Y-60.706
X45.72Y-58.166
X45.72Y-60.706
X48.26Y-58.166
X48.26Y-60.706
X50.8Y-58.166
X50.8Y-60.706
X53.34Y-58.166
X53.34Y-60.706
X55.88Y-58.166
X55.88Y-60.706
X58.42Y-58.166
X58.42Y-60.706
T0
M30
