G04 #@! TF.GenerationSoftware,KiCad,Pcbnew,5.1.4+dfsg1-1*
G04 #@! TF.CreationDate,2019-11-19T12:30:17-08:00*
G04 #@! TF.ProjectId,cartridge,63617274-7269-4646-9765-2e6b69636164,rev?*
G04 #@! TF.SameCoordinates,PX40311b0PY2227a70*
G04 #@! TF.FileFunction,Legend,Top*
G04 #@! TF.FilePolarity,Positive*
%FSLAX46Y46*%
G04 Gerber Fmt 4.6, Leading zero omitted, Abs format (unit mm)*
G04 Created by KiCad (PCBNEW 5.1.4+dfsg1-1) date 2019-11-19 12:30:17*
%MOMM*%
%LPD*%
G04 APERTURE LIST*
%ADD10C,0.300000*%
%ADD11C,0.150000*%
%ADD12C,0.200000*%
%ADD13C,0.203200*%
%ADD14C,0.120000*%
%ADD15C,0.168910*%
%ADD16C,0.400000*%
G04 APERTURE END LIST*
D10*
X11547857Y-67099571D02*
X11547857Y-65599571D01*
X12047857Y-66671000D01*
X12547857Y-65599571D01*
X12547857Y-67099571D01*
X13476428Y-67099571D02*
X13333571Y-67028142D01*
X13262142Y-66956714D01*
X13190714Y-66813857D01*
X13190714Y-66385285D01*
X13262142Y-66242428D01*
X13333571Y-66171000D01*
X13476428Y-66099571D01*
X13690714Y-66099571D01*
X13833571Y-66171000D01*
X13905000Y-66242428D01*
X13976428Y-66385285D01*
X13976428Y-66813857D01*
X13905000Y-66956714D01*
X13833571Y-67028142D01*
X13690714Y-67099571D01*
X13476428Y-67099571D01*
X15262142Y-66099571D02*
X15262142Y-67099571D01*
X14619285Y-66099571D02*
X14619285Y-66885285D01*
X14690714Y-67028142D01*
X14833571Y-67099571D01*
X15047857Y-67099571D01*
X15190714Y-67028142D01*
X15262142Y-66956714D01*
X15976428Y-66099571D02*
X15976428Y-67099571D01*
X15976428Y-66242428D02*
X16047857Y-66171000D01*
X16190714Y-66099571D01*
X16405000Y-66099571D01*
X16547857Y-66171000D01*
X16619285Y-66313857D01*
X16619285Y-67099571D01*
X17119285Y-66099571D02*
X17690714Y-66099571D01*
X17333571Y-65599571D02*
X17333571Y-66885285D01*
X17405000Y-67028142D01*
X17547857Y-67099571D01*
X17690714Y-67099571D01*
X19976428Y-67028142D02*
X19833571Y-67099571D01*
X19547857Y-67099571D01*
X19405000Y-67028142D01*
X19333571Y-66956714D01*
X19262142Y-66813857D01*
X19262142Y-66385285D01*
X19333571Y-66242428D01*
X19405000Y-66171000D01*
X19547857Y-66099571D01*
X19833571Y-66099571D01*
X19976428Y-66171000D01*
X21262142Y-67099571D02*
X21262142Y-66313857D01*
X21190714Y-66171000D01*
X21047857Y-66099571D01*
X20762142Y-66099571D01*
X20619285Y-66171000D01*
X21262142Y-67028142D02*
X21119285Y-67099571D01*
X20762142Y-67099571D01*
X20619285Y-67028142D01*
X20547857Y-66885285D01*
X20547857Y-66742428D01*
X20619285Y-66599571D01*
X20762142Y-66528142D01*
X21119285Y-66528142D01*
X21262142Y-66456714D01*
X21976428Y-67099571D02*
X21976428Y-66099571D01*
X21976428Y-66385285D02*
X22047857Y-66242428D01*
X22119285Y-66171000D01*
X22262142Y-66099571D01*
X22405000Y-66099571D01*
X22690714Y-66099571D02*
X23262142Y-66099571D01*
X22905000Y-65599571D02*
X22905000Y-66885285D01*
X22976428Y-67028142D01*
X23119285Y-67099571D01*
X23262142Y-67099571D01*
X23762142Y-67099571D02*
X23762142Y-66099571D01*
X23762142Y-66385285D02*
X23833571Y-66242428D01*
X23905000Y-66171000D01*
X24047857Y-66099571D01*
X24190714Y-66099571D01*
X24690714Y-67099571D02*
X24690714Y-66099571D01*
X24690714Y-65599571D02*
X24619285Y-65671000D01*
X24690714Y-65742428D01*
X24762142Y-65671000D01*
X24690714Y-65599571D01*
X24690714Y-65742428D01*
X26047857Y-67099571D02*
X26047857Y-65599571D01*
X26047857Y-67028142D02*
X25905000Y-67099571D01*
X25619285Y-67099571D01*
X25476428Y-67028142D01*
X25405000Y-66956714D01*
X25333571Y-66813857D01*
X25333571Y-66385285D01*
X25405000Y-66242428D01*
X25476428Y-66171000D01*
X25619285Y-66099571D01*
X25905000Y-66099571D01*
X26047857Y-66171000D01*
X27405000Y-66099571D02*
X27405000Y-67313857D01*
X27333571Y-67456714D01*
X27262142Y-67528142D01*
X27119285Y-67599571D01*
X26905000Y-67599571D01*
X26762142Y-67528142D01*
X27405000Y-67028142D02*
X27262142Y-67099571D01*
X26976428Y-67099571D01*
X26833571Y-67028142D01*
X26762142Y-66956714D01*
X26690714Y-66813857D01*
X26690714Y-66385285D01*
X26762142Y-66242428D01*
X26833571Y-66171000D01*
X26976428Y-66099571D01*
X27262142Y-66099571D01*
X27405000Y-66171000D01*
X28690714Y-67028142D02*
X28547857Y-67099571D01*
X28262142Y-67099571D01*
X28119285Y-67028142D01*
X28047857Y-66885285D01*
X28047857Y-66313857D01*
X28119285Y-66171000D01*
X28262142Y-66099571D01*
X28547857Y-66099571D01*
X28690714Y-66171000D01*
X28762142Y-66313857D01*
X28762142Y-66456714D01*
X28047857Y-66599571D01*
X31190714Y-67028142D02*
X31047857Y-67099571D01*
X30762142Y-67099571D01*
X30619285Y-67028142D01*
X30547857Y-66956714D01*
X30476428Y-66813857D01*
X30476428Y-66385285D01*
X30547857Y-66242428D01*
X30619285Y-66171000D01*
X30762142Y-66099571D01*
X31047857Y-66099571D01*
X31190714Y-66171000D01*
X32047857Y-67099571D02*
X31905000Y-67028142D01*
X31833571Y-66956714D01*
X31762142Y-66813857D01*
X31762142Y-66385285D01*
X31833571Y-66242428D01*
X31905000Y-66171000D01*
X32047857Y-66099571D01*
X32262142Y-66099571D01*
X32405000Y-66171000D01*
X32476428Y-66242428D01*
X32547857Y-66385285D01*
X32547857Y-66813857D01*
X32476428Y-66956714D01*
X32405000Y-67028142D01*
X32262142Y-67099571D01*
X32047857Y-67099571D01*
X33190714Y-66099571D02*
X33190714Y-67099571D01*
X33190714Y-66242428D02*
X33262142Y-66171000D01*
X33405000Y-66099571D01*
X33619285Y-66099571D01*
X33762142Y-66171000D01*
X33833571Y-66313857D01*
X33833571Y-67099571D01*
X34547857Y-66099571D02*
X34547857Y-67099571D01*
X34547857Y-66242428D02*
X34619285Y-66171000D01*
X34762142Y-66099571D01*
X34976428Y-66099571D01*
X35119285Y-66171000D01*
X35190714Y-66313857D01*
X35190714Y-67099571D01*
X36476428Y-67028142D02*
X36333571Y-67099571D01*
X36047857Y-67099571D01*
X35905000Y-67028142D01*
X35833571Y-66885285D01*
X35833571Y-66313857D01*
X35905000Y-66171000D01*
X36047857Y-66099571D01*
X36333571Y-66099571D01*
X36476428Y-66171000D01*
X36547857Y-66313857D01*
X36547857Y-66456714D01*
X35833571Y-66599571D01*
X37833571Y-67028142D02*
X37690714Y-67099571D01*
X37405000Y-67099571D01*
X37262142Y-67028142D01*
X37190714Y-66956714D01*
X37119285Y-66813857D01*
X37119285Y-66385285D01*
X37190714Y-66242428D01*
X37262142Y-66171000D01*
X37405000Y-66099571D01*
X37690714Y-66099571D01*
X37833571Y-66171000D01*
X38262142Y-66099571D02*
X38833571Y-66099571D01*
X38476428Y-65599571D02*
X38476428Y-66885285D01*
X38547857Y-67028142D01*
X38690714Y-67099571D01*
X38833571Y-67099571D01*
X39547857Y-67099571D02*
X39405000Y-67028142D01*
X39333571Y-66956714D01*
X39262142Y-66813857D01*
X39262142Y-66385285D01*
X39333571Y-66242428D01*
X39405000Y-66171000D01*
X39547857Y-66099571D01*
X39762142Y-66099571D01*
X39905000Y-66171000D01*
X39976428Y-66242428D01*
X40047857Y-66385285D01*
X40047857Y-66813857D01*
X39976428Y-66956714D01*
X39905000Y-67028142D01*
X39762142Y-67099571D01*
X39547857Y-67099571D01*
X40690714Y-67099571D02*
X40690714Y-66099571D01*
X40690714Y-66385285D02*
X40762142Y-66242428D01*
X40833571Y-66171000D01*
X40976428Y-66099571D01*
X41119285Y-66099571D01*
X42976428Y-67099571D02*
X42833571Y-67028142D01*
X42762142Y-66956714D01*
X42690714Y-66813857D01*
X42690714Y-66385285D01*
X42762142Y-66242428D01*
X42833571Y-66171000D01*
X42976428Y-66099571D01*
X43190714Y-66099571D01*
X43333571Y-66171000D01*
X43405000Y-66242428D01*
X43476428Y-66385285D01*
X43476428Y-66813857D01*
X43405000Y-66956714D01*
X43333571Y-67028142D01*
X43190714Y-67099571D01*
X42976428Y-67099571D01*
X44119285Y-66099571D02*
X44119285Y-67099571D01*
X44119285Y-66242428D02*
X44190714Y-66171000D01*
X44333571Y-66099571D01*
X44547857Y-66099571D01*
X44690714Y-66171000D01*
X44762142Y-66313857D01*
X44762142Y-67099571D01*
X46405000Y-66099571D02*
X46976428Y-66099571D01*
X46619285Y-65599571D02*
X46619285Y-66885285D01*
X46690714Y-67028142D01*
X46833571Y-67099571D01*
X46976428Y-67099571D01*
X47476428Y-67099571D02*
X47476428Y-65599571D01*
X48119285Y-67099571D02*
X48119285Y-66313857D01*
X48047857Y-66171000D01*
X47905000Y-66099571D01*
X47690714Y-66099571D01*
X47547857Y-66171000D01*
X47476428Y-66242428D01*
X48833571Y-67099571D02*
X48833571Y-66099571D01*
X48833571Y-65599571D02*
X48762142Y-65671000D01*
X48833571Y-65742428D01*
X48905000Y-65671000D01*
X48833571Y-65599571D01*
X48833571Y-65742428D01*
X49476428Y-67028142D02*
X49619285Y-67099571D01*
X49905000Y-67099571D01*
X50047857Y-67028142D01*
X50119285Y-66885285D01*
X50119285Y-66813857D01*
X50047857Y-66671000D01*
X49905000Y-66599571D01*
X49690714Y-66599571D01*
X49547857Y-66528142D01*
X49476428Y-66385285D01*
X49476428Y-66313857D01*
X49547857Y-66171000D01*
X49690714Y-66099571D01*
X49905000Y-66099571D01*
X50047857Y-66171000D01*
X51833571Y-67028142D02*
X51976428Y-67099571D01*
X52262142Y-67099571D01*
X52405000Y-67028142D01*
X52476428Y-66885285D01*
X52476428Y-66813857D01*
X52405000Y-66671000D01*
X52262142Y-66599571D01*
X52047857Y-66599571D01*
X51905000Y-66528142D01*
X51833571Y-66385285D01*
X51833571Y-66313857D01*
X51905000Y-66171000D01*
X52047857Y-66099571D01*
X52262142Y-66099571D01*
X52405000Y-66171000D01*
X53119285Y-67099571D02*
X53119285Y-66099571D01*
X53119285Y-65599571D02*
X53047857Y-65671000D01*
X53119285Y-65742428D01*
X53190714Y-65671000D01*
X53119285Y-65599571D01*
X53119285Y-65742428D01*
X54476428Y-67099571D02*
X54476428Y-65599571D01*
X54476428Y-67028142D02*
X54333571Y-67099571D01*
X54047857Y-67099571D01*
X53905000Y-67028142D01*
X53833571Y-66956714D01*
X53762142Y-66813857D01*
X53762142Y-66385285D01*
X53833571Y-66242428D01*
X53905000Y-66171000D01*
X54047857Y-66099571D01*
X54333571Y-66099571D01*
X54476428Y-66171000D01*
X55762142Y-67028142D02*
X55619285Y-67099571D01*
X55333571Y-67099571D01*
X55190714Y-67028142D01*
X55119285Y-66885285D01*
X55119285Y-66313857D01*
X55190714Y-66171000D01*
X55333571Y-66099571D01*
X55619285Y-66099571D01*
X55762142Y-66171000D01*
X55833571Y-66313857D01*
X55833571Y-66456714D01*
X55119285Y-66599571D01*
X57546761Y-2286952D02*
X57546761Y-3429809D01*
X57546761Y-2858380D02*
X55546761Y-2858380D01*
X55832476Y-3048857D01*
X56022952Y-3239333D01*
X56118190Y-3429809D01*
X55546761Y-1620285D02*
X55546761Y-286952D01*
X57546761Y-1144095D01*
X54879761Y-2286952D02*
X54879761Y-3429809D01*
X54879761Y-2858380D02*
X52879761Y-2858380D01*
X53165476Y-3048857D01*
X53355952Y-3239333D01*
X53451190Y-3429809D01*
X54879761Y-1334571D02*
X54879761Y-953619D01*
X54784523Y-763142D01*
X54689285Y-667904D01*
X54403571Y-477428D01*
X54022619Y-382190D01*
X53260714Y-382190D01*
X53070238Y-477428D01*
X52975000Y-572666D01*
X52879761Y-763142D01*
X52879761Y-1144095D01*
X52975000Y-1334571D01*
X53070238Y-1429809D01*
X53260714Y-1525047D01*
X53736904Y-1525047D01*
X53927380Y-1429809D01*
X54022619Y-1334571D01*
X54117857Y-1144095D01*
X54117857Y-763142D01*
X54022619Y-572666D01*
X53927380Y-477428D01*
X53736904Y-382190D01*
X52212761Y-2286952D02*
X52212761Y-3429809D01*
X52212761Y-2858380D02*
X50212761Y-2858380D01*
X50498476Y-3048857D01*
X50688952Y-3239333D01*
X50784190Y-3429809D01*
X50879428Y-572666D02*
X52212761Y-572666D01*
X50117523Y-1048857D02*
X51546095Y-1525047D01*
X51546095Y-286952D01*
X49672761Y-2286952D02*
X49672761Y-3429809D01*
X49672761Y-2858380D02*
X47672761Y-2858380D01*
X47958476Y-3048857D01*
X48148952Y-3239333D01*
X48244190Y-3429809D01*
X47672761Y-572666D02*
X47672761Y-953619D01*
X47768000Y-1144095D01*
X47863238Y-1239333D01*
X48148952Y-1429809D01*
X48529904Y-1525047D01*
X49291809Y-1525047D01*
X49482285Y-1429809D01*
X49577523Y-1334571D01*
X49672761Y-1144095D01*
X49672761Y-763142D01*
X49577523Y-572666D01*
X49482285Y-477428D01*
X49291809Y-382190D01*
X48815619Y-382190D01*
X48625142Y-477428D01*
X48529904Y-572666D01*
X48434666Y-763142D01*
X48434666Y-1144095D01*
X48529904Y-1334571D01*
X48625142Y-1429809D01*
X48815619Y-1525047D01*
X52339761Y-6604952D02*
X52339761Y-7747809D01*
X52339761Y-7176380D02*
X50339761Y-7176380D01*
X50625476Y-7366857D01*
X50815952Y-7557333D01*
X50911190Y-7747809D01*
X50339761Y-5938285D02*
X50339761Y-4700190D01*
X51101666Y-5366857D01*
X51101666Y-5081142D01*
X51196904Y-4890666D01*
X51292142Y-4795428D01*
X51482619Y-4700190D01*
X51958809Y-4700190D01*
X52149285Y-4795428D01*
X52244523Y-4890666D01*
X52339761Y-5081142D01*
X52339761Y-5652571D01*
X52244523Y-5843047D01*
X52149285Y-5938285D01*
X55737238Y-7747809D02*
X55642000Y-7652571D01*
X55546761Y-7462095D01*
X55546761Y-6985904D01*
X55642000Y-6795428D01*
X55737238Y-6700190D01*
X55927714Y-6604952D01*
X56118190Y-6604952D01*
X56403904Y-6700190D01*
X57546761Y-7843047D01*
X57546761Y-6604952D01*
X57546761Y-5652571D02*
X57546761Y-5271619D01*
X57451523Y-5081142D01*
X57356285Y-4985904D01*
X57070571Y-4795428D01*
X56689619Y-4700190D01*
X55927714Y-4700190D01*
X55737238Y-4795428D01*
X55642000Y-4890666D01*
X55546761Y-5081142D01*
X55546761Y-5462095D01*
X55642000Y-5652571D01*
X55737238Y-5747809D01*
X55927714Y-5843047D01*
X56403904Y-5843047D01*
X56594380Y-5747809D01*
X56689619Y-5652571D01*
X56784857Y-5462095D01*
X56784857Y-5081142D01*
X56689619Y-4890666D01*
X56594380Y-4795428D01*
X56403904Y-4700190D01*
X47672761Y-7271619D02*
X47672761Y-7081142D01*
X47768000Y-6890666D01*
X47863238Y-6795428D01*
X48053714Y-6700190D01*
X48434666Y-6604952D01*
X48910857Y-6604952D01*
X49291809Y-6700190D01*
X49482285Y-6795428D01*
X49577523Y-6890666D01*
X49672761Y-7081142D01*
X49672761Y-7271619D01*
X49577523Y-7462095D01*
X49482285Y-7557333D01*
X49291809Y-7652571D01*
X48910857Y-7747809D01*
X48434666Y-7747809D01*
X48053714Y-7652571D01*
X47863238Y-7557333D01*
X47768000Y-7462095D01*
X47672761Y-7271619D01*
X47672761Y-5938285D02*
X47672761Y-4700190D01*
X48434666Y-5366857D01*
X48434666Y-5081142D01*
X48529904Y-4890666D01*
X48625142Y-4795428D01*
X48815619Y-4700190D01*
X49291809Y-4700190D01*
X49482285Y-4795428D01*
X49577523Y-4890666D01*
X49672761Y-5081142D01*
X49672761Y-5652571D01*
X49577523Y-5843047D01*
X49482285Y-5938285D01*
X47625000Y-4128500D02*
X57531000Y-4128500D01*
X53006761Y-7843047D02*
X53006761Y-6604952D01*
X53768666Y-7271619D01*
X53768666Y-6985904D01*
X53863904Y-6795428D01*
X53959142Y-6700190D01*
X54149619Y-6604952D01*
X54625809Y-6604952D01*
X54816285Y-6700190D01*
X54911523Y-6795428D01*
X55006761Y-6985904D01*
X55006761Y-7557333D01*
X54911523Y-7747809D01*
X54816285Y-7843047D01*
X53006761Y-5366857D02*
X53006761Y-5176380D01*
X53102000Y-4985904D01*
X53197238Y-4890666D01*
X53387714Y-4795428D01*
X53768666Y-4700190D01*
X54244857Y-4700190D01*
X54625809Y-4795428D01*
X54816285Y-4890666D01*
X54911523Y-4985904D01*
X55006761Y-5176380D01*
X55006761Y-5366857D01*
X54911523Y-5557333D01*
X54816285Y-5652571D01*
X54625809Y-5747809D01*
X54244857Y-5843047D01*
X53768666Y-5843047D01*
X53387714Y-5747809D01*
X53197238Y-5652571D01*
X53102000Y-5557333D01*
X53006761Y-5366857D01*
X26939761Y-2286952D02*
X26939761Y-3429809D01*
X26939761Y-2858380D02*
X24939761Y-2858380D01*
X25225476Y-3048857D01*
X25415952Y-3239333D01*
X25511190Y-3429809D01*
X24939761Y-477428D02*
X24939761Y-1429809D01*
X25892142Y-1525047D01*
X25796904Y-1429809D01*
X25701666Y-1239333D01*
X25701666Y-763142D01*
X25796904Y-572666D01*
X25892142Y-477428D01*
X26082619Y-382190D01*
X26558809Y-382190D01*
X26749285Y-477428D01*
X26844523Y-572666D01*
X26939761Y-763142D01*
X26939761Y-1239333D01*
X26844523Y-1429809D01*
X26749285Y-1525047D01*
X29479761Y-2286952D02*
X29479761Y-3429809D01*
X29479761Y-2858380D02*
X27479761Y-2858380D01*
X27765476Y-3048857D01*
X27955952Y-3239333D01*
X28051190Y-3429809D01*
X28336904Y-1144095D02*
X28241666Y-1334571D01*
X28146428Y-1429809D01*
X27955952Y-1525047D01*
X27860714Y-1525047D01*
X27670238Y-1429809D01*
X27575000Y-1334571D01*
X27479761Y-1144095D01*
X27479761Y-763142D01*
X27575000Y-572666D01*
X27670238Y-477428D01*
X27860714Y-382190D01*
X27955952Y-382190D01*
X28146428Y-477428D01*
X28241666Y-572666D01*
X28336904Y-763142D01*
X28336904Y-1144095D01*
X28432142Y-1334571D01*
X28527380Y-1429809D01*
X28717857Y-1525047D01*
X29098809Y-1525047D01*
X29289285Y-1429809D01*
X29384523Y-1334571D01*
X29479761Y-1144095D01*
X29479761Y-763142D01*
X29384523Y-572666D01*
X29289285Y-477428D01*
X29098809Y-382190D01*
X28717857Y-382190D01*
X28527380Y-477428D01*
X28432142Y-572666D01*
X28336904Y-763142D01*
X30210238Y-3429809D02*
X30115000Y-3334571D01*
X30019761Y-3144095D01*
X30019761Y-2667904D01*
X30115000Y-2477428D01*
X30210238Y-2382190D01*
X30400714Y-2286952D01*
X30591190Y-2286952D01*
X30876904Y-2382190D01*
X32019761Y-3525047D01*
X32019761Y-2286952D01*
X30019761Y-1048857D02*
X30019761Y-858380D01*
X30115000Y-667904D01*
X30210238Y-572666D01*
X30400714Y-477428D01*
X30781666Y-382190D01*
X31257857Y-382190D01*
X31638809Y-477428D01*
X31829285Y-572666D01*
X31924523Y-667904D01*
X32019761Y-858380D01*
X32019761Y-1048857D01*
X31924523Y-1239333D01*
X31829285Y-1334571D01*
X31638809Y-1429809D01*
X31257857Y-1525047D01*
X30781666Y-1525047D01*
X30400714Y-1429809D01*
X30210238Y-1334571D01*
X30115000Y-1239333D01*
X30019761Y-1048857D01*
X32750238Y-3429809D02*
X32655000Y-3334571D01*
X32559761Y-3144095D01*
X32559761Y-2667904D01*
X32655000Y-2477428D01*
X32750238Y-2382190D01*
X32940714Y-2286952D01*
X33131190Y-2286952D01*
X33416904Y-2382190D01*
X34559761Y-3525047D01*
X34559761Y-2286952D01*
X33226428Y-572666D02*
X34559761Y-572666D01*
X32464523Y-1048857D02*
X33893095Y-1525047D01*
X33893095Y-286952D01*
X34559761Y-6731952D02*
X34559761Y-7874809D01*
X34559761Y-7303380D02*
X32559761Y-7303380D01*
X32845476Y-7493857D01*
X33035952Y-7684333D01*
X33131190Y-7874809D01*
X32750238Y-5970047D02*
X32655000Y-5874809D01*
X32559761Y-5684333D01*
X32559761Y-5208142D01*
X32655000Y-5017666D01*
X32750238Y-4922428D01*
X32940714Y-4827190D01*
X33131190Y-4827190D01*
X33416904Y-4922428D01*
X34559761Y-6065285D01*
X34559761Y-4827190D01*
X30019761Y-7398619D02*
X30019761Y-7208142D01*
X30115000Y-7017666D01*
X30210238Y-6922428D01*
X30400714Y-6827190D01*
X30781666Y-6731952D01*
X31257857Y-6731952D01*
X31638809Y-6827190D01*
X31829285Y-6922428D01*
X31924523Y-7017666D01*
X32019761Y-7208142D01*
X32019761Y-7398619D01*
X31924523Y-7589095D01*
X31829285Y-7684333D01*
X31638809Y-7779571D01*
X31257857Y-7874809D01*
X30781666Y-7874809D01*
X30400714Y-7779571D01*
X30210238Y-7684333D01*
X30115000Y-7589095D01*
X30019761Y-7398619D01*
X32019761Y-5779571D02*
X32019761Y-5398619D01*
X31924523Y-5208142D01*
X31829285Y-5112904D01*
X31543571Y-4922428D01*
X31162619Y-4827190D01*
X30400714Y-4827190D01*
X30210238Y-4922428D01*
X30115000Y-5017666D01*
X30019761Y-5208142D01*
X30019761Y-5589095D01*
X30115000Y-5779571D01*
X30210238Y-5874809D01*
X30400714Y-5970047D01*
X30876904Y-5970047D01*
X31067380Y-5874809D01*
X31162619Y-5779571D01*
X31257857Y-5589095D01*
X31257857Y-5208142D01*
X31162619Y-5017666D01*
X31067380Y-4922428D01*
X30876904Y-4827190D01*
X24765000Y-4128500D02*
X34671000Y-4128500D01*
X24939761Y-7398619D02*
X24939761Y-7208142D01*
X25035000Y-7017666D01*
X25130238Y-6922428D01*
X25320714Y-6827190D01*
X25701666Y-6731952D01*
X26177857Y-6731952D01*
X26558809Y-6827190D01*
X26749285Y-6922428D01*
X26844523Y-7017666D01*
X26939761Y-7208142D01*
X26939761Y-7398619D01*
X26844523Y-7589095D01*
X26749285Y-7684333D01*
X26558809Y-7779571D01*
X26177857Y-7874809D01*
X25701666Y-7874809D01*
X25320714Y-7779571D01*
X25130238Y-7684333D01*
X25035000Y-7589095D01*
X24939761Y-7398619D01*
X25606428Y-5017666D02*
X26939761Y-5017666D01*
X24844523Y-5493857D02*
X26273095Y-5970047D01*
X26273095Y-4731952D01*
X27479761Y-7398619D02*
X27479761Y-7208142D01*
X27575000Y-7017666D01*
X27670238Y-6922428D01*
X27860714Y-6827190D01*
X28241666Y-6731952D01*
X28717857Y-6731952D01*
X29098809Y-6827190D01*
X29289285Y-6922428D01*
X29384523Y-7017666D01*
X29479761Y-7208142D01*
X29479761Y-7398619D01*
X29384523Y-7589095D01*
X29289285Y-7684333D01*
X29098809Y-7779571D01*
X28717857Y-7874809D01*
X28241666Y-7874809D01*
X27860714Y-7779571D01*
X27670238Y-7684333D01*
X27575000Y-7589095D01*
X27479761Y-7398619D01*
X28336904Y-5589095D02*
X28241666Y-5779571D01*
X28146428Y-5874809D01*
X27955952Y-5970047D01*
X27860714Y-5970047D01*
X27670238Y-5874809D01*
X27575000Y-5779571D01*
X27479761Y-5589095D01*
X27479761Y-5208142D01*
X27575000Y-5017666D01*
X27670238Y-4922428D01*
X27860714Y-4827190D01*
X27955952Y-4827190D01*
X28146428Y-4922428D01*
X28241666Y-5017666D01*
X28336904Y-5208142D01*
X28336904Y-5589095D01*
X28432142Y-5779571D01*
X28527380Y-5874809D01*
X28717857Y-5970047D01*
X29098809Y-5970047D01*
X29289285Y-5874809D01*
X29384523Y-5779571D01*
X29479761Y-5589095D01*
X29479761Y-5208142D01*
X29384523Y-5017666D01*
X29289285Y-4922428D01*
X29098809Y-4827190D01*
X28717857Y-4827190D01*
X28527380Y-4922428D01*
X28432142Y-5017666D01*
X28336904Y-5208142D01*
X1905000Y-4128500D02*
X11811000Y-4128500D01*
X58055000Y-5969809D02*
X57959761Y-6160285D01*
X57959761Y-6446000D01*
X58055000Y-6731714D01*
X58245476Y-6922190D01*
X58435952Y-7017428D01*
X58816904Y-7112666D01*
X59102619Y-7112666D01*
X59483571Y-7017428D01*
X59674047Y-6922190D01*
X59864523Y-6731714D01*
X59959761Y-6446000D01*
X59959761Y-6255523D01*
X59864523Y-5969809D01*
X59769285Y-5874571D01*
X59102619Y-5874571D01*
X59102619Y-6255523D01*
X59959761Y-5017428D02*
X57959761Y-5017428D01*
X59959761Y-3874571D01*
X57959761Y-3874571D01*
X59959761Y-2922190D02*
X57959761Y-2922190D01*
X57959761Y-2446000D01*
X58055000Y-2160285D01*
X58245476Y-1969809D01*
X58435952Y-1874571D01*
X58816904Y-1779333D01*
X59102619Y-1779333D01*
X59483571Y-1874571D01*
X59674047Y-1969809D01*
X59864523Y-2160285D01*
X59959761Y-2446000D01*
X59959761Y-2922190D01*
X35195000Y-5969809D02*
X35099761Y-6160285D01*
X35099761Y-6446000D01*
X35195000Y-6731714D01*
X35385476Y-6922190D01*
X35575952Y-7017428D01*
X35956904Y-7112666D01*
X36242619Y-7112666D01*
X36623571Y-7017428D01*
X36814047Y-6922190D01*
X37004523Y-6731714D01*
X37099761Y-6446000D01*
X37099761Y-6255523D01*
X37004523Y-5969809D01*
X36909285Y-5874571D01*
X36242619Y-5874571D01*
X36242619Y-6255523D01*
X37099761Y-5017428D02*
X35099761Y-5017428D01*
X37099761Y-3874571D01*
X35099761Y-3874571D01*
X37099761Y-2922190D02*
X35099761Y-2922190D01*
X35099761Y-2446000D01*
X35195000Y-2160285D01*
X35385476Y-1969809D01*
X35575952Y-1874571D01*
X35956904Y-1779333D01*
X36242619Y-1779333D01*
X36623571Y-1874571D01*
X36814047Y-1969809D01*
X37004523Y-2160285D01*
X37099761Y-2446000D01*
X37099761Y-2922190D01*
X60499761Y-7398380D02*
X60499761Y-6160285D01*
X61261666Y-6826952D01*
X61261666Y-6541238D01*
X61356904Y-6350761D01*
X61452142Y-6255523D01*
X61642619Y-6160285D01*
X62118809Y-6160285D01*
X62309285Y-6255523D01*
X62404523Y-6350761D01*
X62499761Y-6541238D01*
X62499761Y-7112666D01*
X62404523Y-7303142D01*
X62309285Y-7398380D01*
X62309285Y-5303142D02*
X62404523Y-5207904D01*
X62499761Y-5303142D01*
X62404523Y-5398380D01*
X62309285Y-5303142D01*
X62499761Y-5303142D01*
X60499761Y-4541238D02*
X60499761Y-3303142D01*
X61261666Y-3969809D01*
X61261666Y-3684095D01*
X61356904Y-3493619D01*
X61452142Y-3398380D01*
X61642619Y-3303142D01*
X62118809Y-3303142D01*
X62309285Y-3398380D01*
X62404523Y-3493619D01*
X62499761Y-3684095D01*
X62499761Y-4255523D01*
X62404523Y-4446000D01*
X62309285Y-4541238D01*
X60499761Y-2731714D02*
X62499761Y-2065047D01*
X60499761Y-1398380D01*
X37639761Y-7398380D02*
X37639761Y-6160285D01*
X38401666Y-6826952D01*
X38401666Y-6541238D01*
X38496904Y-6350761D01*
X38592142Y-6255523D01*
X38782619Y-6160285D01*
X39258809Y-6160285D01*
X39449285Y-6255523D01*
X39544523Y-6350761D01*
X39639761Y-6541238D01*
X39639761Y-7112666D01*
X39544523Y-7303142D01*
X39449285Y-7398380D01*
X39449285Y-5303142D02*
X39544523Y-5207904D01*
X39639761Y-5303142D01*
X39544523Y-5398380D01*
X39449285Y-5303142D01*
X39639761Y-5303142D01*
X37639761Y-4541238D02*
X37639761Y-3303142D01*
X38401666Y-3969809D01*
X38401666Y-3684095D01*
X38496904Y-3493619D01*
X38592142Y-3398380D01*
X38782619Y-3303142D01*
X39258809Y-3303142D01*
X39449285Y-3398380D01*
X39544523Y-3493619D01*
X39639761Y-3684095D01*
X39639761Y-4255523D01*
X39544523Y-4446000D01*
X39449285Y-4541238D01*
X37639761Y-2731714D02*
X39639761Y-2065047D01*
X37639761Y-1398380D01*
X14779761Y-7398380D02*
X14779761Y-6160285D01*
X15541666Y-6826952D01*
X15541666Y-6541238D01*
X15636904Y-6350761D01*
X15732142Y-6255523D01*
X15922619Y-6160285D01*
X16398809Y-6160285D01*
X16589285Y-6255523D01*
X16684523Y-6350761D01*
X16779761Y-6541238D01*
X16779761Y-7112666D01*
X16684523Y-7303142D01*
X16589285Y-7398380D01*
X16589285Y-5303142D02*
X16684523Y-5207904D01*
X16779761Y-5303142D01*
X16684523Y-5398380D01*
X16589285Y-5303142D01*
X16779761Y-5303142D01*
X14779761Y-4541238D02*
X14779761Y-3303142D01*
X15541666Y-3969809D01*
X15541666Y-3684095D01*
X15636904Y-3493619D01*
X15732142Y-3398380D01*
X15922619Y-3303142D01*
X16398809Y-3303142D01*
X16589285Y-3398380D01*
X16684523Y-3493619D01*
X16779761Y-3684095D01*
X16779761Y-4255523D01*
X16684523Y-4446000D01*
X16589285Y-4541238D01*
X14779761Y-2731714D02*
X16779761Y-2065047D01*
X14779761Y-1398380D01*
X12335000Y-5969809D02*
X12239761Y-6160285D01*
X12239761Y-6446000D01*
X12335000Y-6731714D01*
X12525476Y-6922190D01*
X12715952Y-7017428D01*
X13096904Y-7112666D01*
X13382619Y-7112666D01*
X13763571Y-7017428D01*
X13954047Y-6922190D01*
X14144523Y-6731714D01*
X14239761Y-6446000D01*
X14239761Y-6255523D01*
X14144523Y-5969809D01*
X14049285Y-5874571D01*
X13382619Y-5874571D01*
X13382619Y-6255523D01*
X14239761Y-5017428D02*
X12239761Y-5017428D01*
X14239761Y-3874571D01*
X12239761Y-3874571D01*
X14239761Y-2922190D02*
X12239761Y-2922190D01*
X12239761Y-2446000D01*
X12335000Y-2160285D01*
X12525476Y-1969809D01*
X12715952Y-1874571D01*
X13096904Y-1779333D01*
X13382619Y-1779333D01*
X13763571Y-1874571D01*
X13954047Y-1969809D01*
X14144523Y-2160285D01*
X14239761Y-2446000D01*
X14239761Y-2922190D01*
X11699761Y-2286952D02*
X11699761Y-3429809D01*
X11699761Y-2858380D02*
X9699761Y-2858380D01*
X9985476Y-3048857D01*
X10175952Y-3239333D01*
X10271190Y-3429809D01*
X11699761Y-382190D02*
X11699761Y-1525047D01*
X11699761Y-953619D02*
X9699761Y-953619D01*
X9985476Y-1144095D01*
X10175952Y-1334571D01*
X10271190Y-1525047D01*
X9159761Y-2286952D02*
X9159761Y-3429809D01*
X9159761Y-2858380D02*
X7159761Y-2858380D01*
X7445476Y-3048857D01*
X7635952Y-3239333D01*
X7731190Y-3429809D01*
X7159761Y-1048857D02*
X7159761Y-858380D01*
X7255000Y-667904D01*
X7350238Y-572666D01*
X7540714Y-477428D01*
X7921666Y-382190D01*
X8397857Y-382190D01*
X8778809Y-477428D01*
X8969285Y-572666D01*
X9064523Y-667904D01*
X9159761Y-858380D01*
X9159761Y-1048857D01*
X9064523Y-1239333D01*
X8969285Y-1334571D01*
X8778809Y-1429809D01*
X8397857Y-1525047D01*
X7921666Y-1525047D01*
X7540714Y-1429809D01*
X7350238Y-1334571D01*
X7255000Y-1239333D01*
X7159761Y-1048857D01*
X4810238Y-3429809D02*
X4715000Y-3334571D01*
X4619761Y-3144095D01*
X4619761Y-2667904D01*
X4715000Y-2477428D01*
X4810238Y-2382190D01*
X5000714Y-2286952D01*
X5191190Y-2286952D01*
X5476904Y-2382190D01*
X6619761Y-3525047D01*
X6619761Y-2286952D01*
X4810238Y-1525047D02*
X4715000Y-1429809D01*
X4619761Y-1239333D01*
X4619761Y-763142D01*
X4715000Y-572666D01*
X4810238Y-477428D01*
X5000714Y-382190D01*
X5191190Y-382190D01*
X5476904Y-477428D01*
X6619761Y-1620285D01*
X6619761Y-382190D01*
X2270238Y-3429809D02*
X2175000Y-3334571D01*
X2079761Y-3144095D01*
X2079761Y-2667904D01*
X2175000Y-2477428D01*
X2270238Y-2382190D01*
X2460714Y-2286952D01*
X2651190Y-2286952D01*
X2936904Y-2382190D01*
X4079761Y-3525047D01*
X4079761Y-2286952D01*
X2079761Y-1620285D02*
X2079761Y-382190D01*
X2841666Y-1048857D01*
X2841666Y-763142D01*
X2936904Y-572666D01*
X3032142Y-477428D01*
X3222619Y-382190D01*
X3698809Y-382190D01*
X3889285Y-477428D01*
X3984523Y-572666D01*
X4079761Y-763142D01*
X4079761Y-1334571D01*
X3984523Y-1525047D01*
X3889285Y-1620285D01*
X9699761Y-7398619D02*
X9699761Y-7208142D01*
X9795000Y-7017666D01*
X9890238Y-6922428D01*
X10080714Y-6827190D01*
X10461666Y-6731952D01*
X10937857Y-6731952D01*
X11318809Y-6827190D01*
X11509285Y-6922428D01*
X11604523Y-7017666D01*
X11699761Y-7208142D01*
X11699761Y-7398619D01*
X11604523Y-7589095D01*
X11509285Y-7684333D01*
X11318809Y-7779571D01*
X10937857Y-7874809D01*
X10461666Y-7874809D01*
X10080714Y-7779571D01*
X9890238Y-7684333D01*
X9795000Y-7589095D01*
X9699761Y-7398619D01*
X11699761Y-4827190D02*
X11699761Y-5970047D01*
X11699761Y-5398619D02*
X9699761Y-5398619D01*
X9985476Y-5589095D01*
X10175952Y-5779571D01*
X10271190Y-5970047D01*
X7159761Y-7398619D02*
X7159761Y-7208142D01*
X7255000Y-7017666D01*
X7350238Y-6922428D01*
X7540714Y-6827190D01*
X7921666Y-6731952D01*
X8397857Y-6731952D01*
X8778809Y-6827190D01*
X8969285Y-6922428D01*
X9064523Y-7017666D01*
X9159761Y-7208142D01*
X9159761Y-7398619D01*
X9064523Y-7589095D01*
X8969285Y-7684333D01*
X8778809Y-7779571D01*
X8397857Y-7874809D01*
X7921666Y-7874809D01*
X7540714Y-7779571D01*
X7350238Y-7684333D01*
X7255000Y-7589095D01*
X7159761Y-7398619D01*
X7350238Y-5970047D02*
X7255000Y-5874809D01*
X7159761Y-5684333D01*
X7159761Y-5208142D01*
X7255000Y-5017666D01*
X7350238Y-4922428D01*
X7540714Y-4827190D01*
X7731190Y-4827190D01*
X8016904Y-4922428D01*
X9159761Y-6065285D01*
X9159761Y-4827190D01*
X4619761Y-7398619D02*
X4619761Y-7208142D01*
X4715000Y-7017666D01*
X4810238Y-6922428D01*
X5000714Y-6827190D01*
X5381666Y-6731952D01*
X5857857Y-6731952D01*
X6238809Y-6827190D01*
X6429285Y-6922428D01*
X6524523Y-7017666D01*
X6619761Y-7208142D01*
X6619761Y-7398619D01*
X6524523Y-7589095D01*
X6429285Y-7684333D01*
X6238809Y-7779571D01*
X5857857Y-7874809D01*
X5381666Y-7874809D01*
X5000714Y-7779571D01*
X4810238Y-7684333D01*
X4715000Y-7589095D01*
X4619761Y-7398619D01*
X4619761Y-4922428D02*
X4619761Y-5874809D01*
X5572142Y-5970047D01*
X5476904Y-5874809D01*
X5381666Y-5684333D01*
X5381666Y-5208142D01*
X5476904Y-5017666D01*
X5572142Y-4922428D01*
X5762619Y-4827190D01*
X6238809Y-4827190D01*
X6429285Y-4922428D01*
X6524523Y-5017666D01*
X6619761Y-5208142D01*
X6619761Y-5684333D01*
X6524523Y-5874809D01*
X6429285Y-5970047D01*
X2079761Y-7398619D02*
X2079761Y-7208142D01*
X2175000Y-7017666D01*
X2270238Y-6922428D01*
X2460714Y-6827190D01*
X2841666Y-6731952D01*
X3317857Y-6731952D01*
X3698809Y-6827190D01*
X3889285Y-6922428D01*
X3984523Y-7017666D01*
X4079761Y-7208142D01*
X4079761Y-7398619D01*
X3984523Y-7589095D01*
X3889285Y-7684333D01*
X3698809Y-7779571D01*
X3317857Y-7874809D01*
X2841666Y-7874809D01*
X2460714Y-7779571D01*
X2270238Y-7684333D01*
X2175000Y-7589095D01*
X2079761Y-7398619D01*
X2079761Y-5017666D02*
X2079761Y-5398619D01*
X2175000Y-5589095D01*
X2270238Y-5684333D01*
X2555952Y-5874809D01*
X2936904Y-5970047D01*
X3698809Y-5970047D01*
X3889285Y-5874809D01*
X3984523Y-5779571D01*
X4079761Y-5589095D01*
X4079761Y-5208142D01*
X3984523Y-5017666D01*
X3889285Y-4922428D01*
X3698809Y-4827190D01*
X3222619Y-4827190D01*
X3032142Y-4922428D01*
X2936904Y-5017666D01*
X2841666Y-5208142D01*
X2841666Y-5589095D01*
X2936904Y-5779571D01*
X3032142Y-5874809D01*
X3222619Y-5970047D01*
D11*
X52420000Y-47076000D02*
X50920000Y-47076000D01*
X50920000Y-47076000D02*
X50920000Y-45076000D01*
X52420000Y-47076000D02*
X50920000Y-47076000D01*
X50920000Y-47076000D02*
X50920000Y-45076000D01*
X52420000Y-38776000D02*
X50920000Y-38776000D01*
X50920000Y-38776000D02*
X50920000Y-40776000D01*
X52420000Y-47076000D02*
X50920000Y-47076000D01*
X50920000Y-47076000D02*
X50920000Y-45076000D01*
X55720000Y-38776000D02*
X57220000Y-38776000D01*
X57220000Y-38776000D02*
X57220000Y-40776000D01*
X55720000Y-47076000D02*
X56070000Y-47076000D01*
X56070000Y-47076000D02*
X57220000Y-45926000D01*
X57220000Y-45926000D02*
X57220000Y-45076000D01*
D12*
X57170000Y-46926000D02*
G75*
G03X57170000Y-46926000I-100000J0D01*
G01*
D13*
X45180000Y-34846000D02*
X41180000Y-34846000D01*
X47180000Y-42346000D02*
X47180000Y-38846000D01*
X46380000Y-42346000D02*
X47180000Y-42346000D01*
X46380000Y-39846000D02*
X46380000Y-42346000D01*
X45180000Y-39846000D02*
X46380000Y-39846000D01*
X39980000Y-39846000D02*
X41180000Y-39846000D01*
X39980000Y-42346000D02*
X39980000Y-39846000D01*
X39180000Y-42346000D02*
X39980000Y-42346000D01*
X39180000Y-38846000D02*
X39180000Y-42346000D01*
X19780000Y-34846000D02*
X15780000Y-34846000D01*
X21780000Y-42346000D02*
X21780000Y-38846000D01*
X20980000Y-42346000D02*
X21780000Y-42346000D01*
X20980000Y-39846000D02*
X20980000Y-42346000D01*
X19780000Y-39846000D02*
X20980000Y-39846000D01*
X14580000Y-39846000D02*
X15780000Y-39846000D01*
X14580000Y-42346000D02*
X14580000Y-39846000D01*
X13780000Y-42346000D02*
X14580000Y-42346000D01*
X13780000Y-38846000D02*
X13780000Y-42346000D01*
D14*
X61595000Y-30226000D02*
X62865000Y-30226000D01*
X61595000Y-31496000D02*
X61595000Y-30226000D01*
X63907929Y-52196000D02*
X64305000Y-52196000D01*
X63907929Y-51436000D02*
X64305000Y-51436000D01*
X72965000Y-52196000D02*
X66965000Y-52196000D01*
X72965000Y-51436000D02*
X72965000Y-52196000D01*
X66965000Y-51436000D02*
X72965000Y-51436000D01*
X64305000Y-50546000D02*
X66965000Y-50546000D01*
X63907929Y-49656000D02*
X64305000Y-49656000D01*
X63907929Y-48896000D02*
X64305000Y-48896000D01*
X72965000Y-49656000D02*
X66965000Y-49656000D01*
X72965000Y-48896000D02*
X72965000Y-49656000D01*
X66965000Y-48896000D02*
X72965000Y-48896000D01*
X64305000Y-48006000D02*
X66965000Y-48006000D01*
X63907929Y-47116000D02*
X64305000Y-47116000D01*
X63907929Y-46356000D02*
X64305000Y-46356000D01*
X72965000Y-47116000D02*
X66965000Y-47116000D01*
X72965000Y-46356000D02*
X72965000Y-47116000D01*
X66965000Y-46356000D02*
X72965000Y-46356000D01*
X64305000Y-45466000D02*
X66965000Y-45466000D01*
X63907929Y-44576000D02*
X64305000Y-44576000D01*
X63907929Y-43816000D02*
X64305000Y-43816000D01*
X72965000Y-44576000D02*
X66965000Y-44576000D01*
X72965000Y-43816000D02*
X72965000Y-44576000D01*
X66965000Y-43816000D02*
X72965000Y-43816000D01*
X64305000Y-42926000D02*
X66965000Y-42926000D01*
X63907929Y-42036000D02*
X64305000Y-42036000D01*
X63907929Y-41276000D02*
X64305000Y-41276000D01*
X72965000Y-42036000D02*
X66965000Y-42036000D01*
X72965000Y-41276000D02*
X72965000Y-42036000D01*
X66965000Y-41276000D02*
X72965000Y-41276000D01*
X64305000Y-40386000D02*
X66965000Y-40386000D01*
X63907929Y-39496000D02*
X64305000Y-39496000D01*
X63907929Y-38736000D02*
X64305000Y-38736000D01*
X72965000Y-39496000D02*
X66965000Y-39496000D01*
X72965000Y-38736000D02*
X72965000Y-39496000D01*
X66965000Y-38736000D02*
X72965000Y-38736000D01*
X64305000Y-37846000D02*
X66965000Y-37846000D01*
X63907929Y-36956000D02*
X64305000Y-36956000D01*
X63907929Y-36196000D02*
X64305000Y-36196000D01*
X72965000Y-36956000D02*
X66965000Y-36956000D01*
X72965000Y-36196000D02*
X72965000Y-36956000D01*
X66965000Y-36196000D02*
X72965000Y-36196000D01*
X64305000Y-35306000D02*
X66965000Y-35306000D01*
X63907929Y-34416000D02*
X64305000Y-34416000D01*
X63907929Y-33656000D02*
X64305000Y-33656000D01*
X72965000Y-34416000D02*
X66965000Y-34416000D01*
X72965000Y-33656000D02*
X72965000Y-34416000D01*
X66965000Y-33656000D02*
X72965000Y-33656000D01*
X64305000Y-32766000D02*
X66965000Y-32766000D01*
X63975000Y-31876000D02*
X64305000Y-31876000D01*
X63975000Y-31116000D02*
X64305000Y-31116000D01*
X66965000Y-31776000D02*
X72965000Y-31776000D01*
X66965000Y-31656000D02*
X72965000Y-31656000D01*
X66965000Y-31536000D02*
X72965000Y-31536000D01*
X66965000Y-31416000D02*
X72965000Y-31416000D01*
X66965000Y-31296000D02*
X72965000Y-31296000D01*
X66965000Y-31176000D02*
X72965000Y-31176000D01*
X72965000Y-31876000D02*
X66965000Y-31876000D01*
X72965000Y-31116000D02*
X72965000Y-31876000D01*
X66965000Y-31116000D02*
X72965000Y-31116000D01*
X66965000Y-30166000D02*
X64305000Y-30166000D01*
X66965000Y-53146000D02*
X66965000Y-30166000D01*
X64305000Y-53146000D02*
X66965000Y-53146000D01*
X64305000Y-30166000D02*
X64305000Y-53146000D01*
X18041252Y-45391000D02*
X17518748Y-45391000D01*
X18041252Y-46811000D02*
X17518748Y-46811000D01*
X43441252Y-45391000D02*
X42918748Y-45391000D01*
X43441252Y-46811000D02*
X42918748Y-46811000D01*
X59765000Y-50807252D02*
X59765000Y-50284748D01*
X58345000Y-50807252D02*
X58345000Y-50284748D01*
X59892000Y-30741252D02*
X59892000Y-30218748D01*
X58472000Y-30741252D02*
X58472000Y-30218748D01*
X8830000Y-62146000D02*
X59750000Y-62146000D01*
X59750000Y-62146000D02*
X59750000Y-64806000D01*
X59750000Y-64806000D02*
X8830000Y-64806000D01*
X8830000Y-64806000D02*
X8830000Y-62146000D01*
X9780000Y-64806000D02*
X9780000Y-70806000D01*
X9780000Y-70806000D02*
X10540000Y-70806000D01*
X10540000Y-70806000D02*
X10540000Y-64806000D01*
X9840000Y-64806000D02*
X9840000Y-70806000D01*
X9960000Y-64806000D02*
X9960000Y-70806000D01*
X10080000Y-64806000D02*
X10080000Y-70806000D01*
X10200000Y-64806000D02*
X10200000Y-70806000D01*
X10320000Y-64806000D02*
X10320000Y-70806000D01*
X10440000Y-64806000D02*
X10440000Y-70806000D01*
X9780000Y-61748929D02*
X9780000Y-62146000D01*
X10540000Y-61748929D02*
X10540000Y-62146000D01*
X9780000Y-59276000D02*
X9780000Y-59663071D01*
X10540000Y-59276000D02*
X10540000Y-59663071D01*
X11430000Y-62146000D02*
X11430000Y-64806000D01*
X12320000Y-64806000D02*
X12320000Y-70806000D01*
X12320000Y-70806000D02*
X13080000Y-70806000D01*
X13080000Y-70806000D02*
X13080000Y-64806000D01*
X12320000Y-61748929D02*
X12320000Y-62146000D01*
X13080000Y-61748929D02*
X13080000Y-62146000D01*
X12320000Y-59208929D02*
X12320000Y-59663071D01*
X13080000Y-59208929D02*
X13080000Y-59663071D01*
X13970000Y-62146000D02*
X13970000Y-64806000D01*
X14860000Y-64806000D02*
X14860000Y-70806000D01*
X14860000Y-70806000D02*
X15620000Y-70806000D01*
X15620000Y-70806000D02*
X15620000Y-64806000D01*
X14860000Y-61748929D02*
X14860000Y-62146000D01*
X15620000Y-61748929D02*
X15620000Y-62146000D01*
X14860000Y-59208929D02*
X14860000Y-59663071D01*
X15620000Y-59208929D02*
X15620000Y-59663071D01*
X16510000Y-62146000D02*
X16510000Y-64806000D01*
X17400000Y-64806000D02*
X17400000Y-70806000D01*
X17400000Y-70806000D02*
X18160000Y-70806000D01*
X18160000Y-70806000D02*
X18160000Y-64806000D01*
X17400000Y-61748929D02*
X17400000Y-62146000D01*
X18160000Y-61748929D02*
X18160000Y-62146000D01*
X17400000Y-59208929D02*
X17400000Y-59663071D01*
X18160000Y-59208929D02*
X18160000Y-59663071D01*
X19050000Y-62146000D02*
X19050000Y-64806000D01*
X19940000Y-64806000D02*
X19940000Y-70806000D01*
X19940000Y-70806000D02*
X20700000Y-70806000D01*
X20700000Y-70806000D02*
X20700000Y-64806000D01*
X19940000Y-61748929D02*
X19940000Y-62146000D01*
X20700000Y-61748929D02*
X20700000Y-62146000D01*
X19940000Y-59208929D02*
X19940000Y-59663071D01*
X20700000Y-59208929D02*
X20700000Y-59663071D01*
X21590000Y-62146000D02*
X21590000Y-64806000D01*
X22480000Y-64806000D02*
X22480000Y-70806000D01*
X22480000Y-70806000D02*
X23240000Y-70806000D01*
X23240000Y-70806000D02*
X23240000Y-64806000D01*
X22480000Y-61748929D02*
X22480000Y-62146000D01*
X23240000Y-61748929D02*
X23240000Y-62146000D01*
X22480000Y-59208929D02*
X22480000Y-59663071D01*
X23240000Y-59208929D02*
X23240000Y-59663071D01*
X24130000Y-62146000D02*
X24130000Y-64806000D01*
X25020000Y-64806000D02*
X25020000Y-70806000D01*
X25020000Y-70806000D02*
X25780000Y-70806000D01*
X25780000Y-70806000D02*
X25780000Y-64806000D01*
X25020000Y-61748929D02*
X25020000Y-62146000D01*
X25780000Y-61748929D02*
X25780000Y-62146000D01*
X25020000Y-59208929D02*
X25020000Y-59663071D01*
X25780000Y-59208929D02*
X25780000Y-59663071D01*
X26670000Y-62146000D02*
X26670000Y-64806000D01*
X27560000Y-64806000D02*
X27560000Y-70806000D01*
X27560000Y-70806000D02*
X28320000Y-70806000D01*
X28320000Y-70806000D02*
X28320000Y-64806000D01*
X27560000Y-61748929D02*
X27560000Y-62146000D01*
X28320000Y-61748929D02*
X28320000Y-62146000D01*
X27560000Y-59208929D02*
X27560000Y-59663071D01*
X28320000Y-59208929D02*
X28320000Y-59663071D01*
X29210000Y-62146000D02*
X29210000Y-64806000D01*
X30100000Y-64806000D02*
X30100000Y-70806000D01*
X30100000Y-70806000D02*
X30860000Y-70806000D01*
X30860000Y-70806000D02*
X30860000Y-64806000D01*
X30100000Y-61748929D02*
X30100000Y-62146000D01*
X30860000Y-61748929D02*
X30860000Y-62146000D01*
X30100000Y-59208929D02*
X30100000Y-59663071D01*
X30860000Y-59208929D02*
X30860000Y-59663071D01*
X31750000Y-62146000D02*
X31750000Y-64806000D01*
X32640000Y-64806000D02*
X32640000Y-70806000D01*
X32640000Y-70806000D02*
X33400000Y-70806000D01*
X33400000Y-70806000D02*
X33400000Y-64806000D01*
X32640000Y-61748929D02*
X32640000Y-62146000D01*
X33400000Y-61748929D02*
X33400000Y-62146000D01*
X32640000Y-59208929D02*
X32640000Y-59663071D01*
X33400000Y-59208929D02*
X33400000Y-59663071D01*
X34290000Y-62146000D02*
X34290000Y-64806000D01*
X35180000Y-64806000D02*
X35180000Y-70806000D01*
X35180000Y-70806000D02*
X35940000Y-70806000D01*
X35940000Y-70806000D02*
X35940000Y-64806000D01*
X35180000Y-61748929D02*
X35180000Y-62146000D01*
X35940000Y-61748929D02*
X35940000Y-62146000D01*
X35180000Y-59208929D02*
X35180000Y-59663071D01*
X35940000Y-59208929D02*
X35940000Y-59663071D01*
X36830000Y-62146000D02*
X36830000Y-64806000D01*
X37720000Y-64806000D02*
X37720000Y-70806000D01*
X37720000Y-70806000D02*
X38480000Y-70806000D01*
X38480000Y-70806000D02*
X38480000Y-64806000D01*
X37720000Y-61748929D02*
X37720000Y-62146000D01*
X38480000Y-61748929D02*
X38480000Y-62146000D01*
X37720000Y-59208929D02*
X37720000Y-59663071D01*
X38480000Y-59208929D02*
X38480000Y-59663071D01*
X39370000Y-62146000D02*
X39370000Y-64806000D01*
X40260000Y-64806000D02*
X40260000Y-70806000D01*
X40260000Y-70806000D02*
X41020000Y-70806000D01*
X41020000Y-70806000D02*
X41020000Y-64806000D01*
X40260000Y-61748929D02*
X40260000Y-62146000D01*
X41020000Y-61748929D02*
X41020000Y-62146000D01*
X40260000Y-59208929D02*
X40260000Y-59663071D01*
X41020000Y-59208929D02*
X41020000Y-59663071D01*
X41910000Y-62146000D02*
X41910000Y-64806000D01*
X42800000Y-64806000D02*
X42800000Y-70806000D01*
X42800000Y-70806000D02*
X43560000Y-70806000D01*
X43560000Y-70806000D02*
X43560000Y-64806000D01*
X42800000Y-61748929D02*
X42800000Y-62146000D01*
X43560000Y-61748929D02*
X43560000Y-62146000D01*
X42800000Y-59208929D02*
X42800000Y-59663071D01*
X43560000Y-59208929D02*
X43560000Y-59663071D01*
X44450000Y-62146000D02*
X44450000Y-64806000D01*
X45340000Y-64806000D02*
X45340000Y-70806000D01*
X45340000Y-70806000D02*
X46100000Y-70806000D01*
X46100000Y-70806000D02*
X46100000Y-64806000D01*
X45340000Y-61748929D02*
X45340000Y-62146000D01*
X46100000Y-61748929D02*
X46100000Y-62146000D01*
X45340000Y-59208929D02*
X45340000Y-59663071D01*
X46100000Y-59208929D02*
X46100000Y-59663071D01*
X46990000Y-62146000D02*
X46990000Y-64806000D01*
X47880000Y-64806000D02*
X47880000Y-70806000D01*
X47880000Y-70806000D02*
X48640000Y-70806000D01*
X48640000Y-70806000D02*
X48640000Y-64806000D01*
X47880000Y-61748929D02*
X47880000Y-62146000D01*
X48640000Y-61748929D02*
X48640000Y-62146000D01*
X47880000Y-59208929D02*
X47880000Y-59663071D01*
X48640000Y-59208929D02*
X48640000Y-59663071D01*
X49530000Y-62146000D02*
X49530000Y-64806000D01*
X50420000Y-64806000D02*
X50420000Y-70806000D01*
X50420000Y-70806000D02*
X51180000Y-70806000D01*
X51180000Y-70806000D02*
X51180000Y-64806000D01*
X50420000Y-61748929D02*
X50420000Y-62146000D01*
X51180000Y-61748929D02*
X51180000Y-62146000D01*
X50420000Y-59208929D02*
X50420000Y-59663071D01*
X51180000Y-59208929D02*
X51180000Y-59663071D01*
X52070000Y-62146000D02*
X52070000Y-64806000D01*
X52960000Y-64806000D02*
X52960000Y-70806000D01*
X52960000Y-70806000D02*
X53720000Y-70806000D01*
X53720000Y-70806000D02*
X53720000Y-64806000D01*
X52960000Y-61748929D02*
X52960000Y-62146000D01*
X53720000Y-61748929D02*
X53720000Y-62146000D01*
X52960000Y-59208929D02*
X52960000Y-59663071D01*
X53720000Y-59208929D02*
X53720000Y-59663071D01*
X54610000Y-62146000D02*
X54610000Y-64806000D01*
X55500000Y-64806000D02*
X55500000Y-70806000D01*
X55500000Y-70806000D02*
X56260000Y-70806000D01*
X56260000Y-70806000D02*
X56260000Y-64806000D01*
X55500000Y-61748929D02*
X55500000Y-62146000D01*
X56260000Y-61748929D02*
X56260000Y-62146000D01*
X55500000Y-59208929D02*
X55500000Y-59663071D01*
X56260000Y-59208929D02*
X56260000Y-59663071D01*
X57150000Y-62146000D02*
X57150000Y-64806000D01*
X58040000Y-64806000D02*
X58040000Y-70806000D01*
X58040000Y-70806000D02*
X58800000Y-70806000D01*
X58800000Y-70806000D02*
X58800000Y-64806000D01*
X58040000Y-61748929D02*
X58040000Y-62146000D01*
X58800000Y-61748929D02*
X58800000Y-62146000D01*
X58040000Y-59208929D02*
X58040000Y-59663071D01*
X58800000Y-59208929D02*
X58800000Y-59663071D01*
X10160000Y-56896000D02*
X8890000Y-56896000D01*
X8890000Y-56896000D02*
X8890000Y-58166000D01*
X11615000Y-53011000D02*
X13290000Y-53011000D01*
X11615000Y-53271000D02*
X11615000Y-53011000D01*
X8890000Y-53271000D02*
X11615000Y-53271000D01*
X6165000Y-53271000D02*
X6165000Y-53011000D01*
X8890000Y-53271000D02*
X6165000Y-53271000D01*
X11615000Y-47821000D02*
X11615000Y-48081000D01*
X8890000Y-47821000D02*
X11615000Y-47821000D01*
X6165000Y-47821000D02*
X6165000Y-48081000D01*
X8890000Y-47821000D02*
X6165000Y-47821000D01*
X60586252Y-15166000D02*
X60063748Y-15166000D01*
X60586252Y-16586000D02*
X60063748Y-16586000D01*
X37726252Y-15166000D02*
X37203748Y-15166000D01*
X37726252Y-16586000D02*
X37203748Y-16586000D01*
X14866252Y-15166000D02*
X14343748Y-15166000D01*
X14866252Y-16586000D02*
X14343748Y-16586000D01*
X47550000Y-41394748D02*
X47550000Y-41917252D01*
X48970000Y-41394748D02*
X48970000Y-41917252D01*
X5885000Y-55364748D02*
X5885000Y-55887252D01*
X7305000Y-55364748D02*
X7305000Y-55887252D01*
X5640000Y-59419748D02*
X5640000Y-59942252D01*
X7060000Y-59419748D02*
X7060000Y-59942252D01*
X51995000Y-50919748D02*
X51995000Y-51442252D01*
X53415000Y-50919748D02*
X53415000Y-51442252D01*
X58345000Y-42664748D02*
X58345000Y-43187252D01*
X59765000Y-42664748D02*
X59765000Y-43187252D01*
D11*
X56388095Y-47378380D02*
X56388095Y-48187904D01*
X56435714Y-48283142D01*
X56483333Y-48330761D01*
X56578571Y-48378380D01*
X56769047Y-48378380D01*
X56864285Y-48330761D01*
X56911904Y-48283142D01*
X56959523Y-48187904D01*
X56959523Y-47378380D01*
X57959523Y-48378380D02*
X57388095Y-48378380D01*
X57673809Y-48378380D02*
X57673809Y-47378380D01*
X57578571Y-47521238D01*
X57483333Y-47616476D01*
X57388095Y-47664095D01*
D15*
X43552533Y-37062558D02*
X42346033Y-37062558D01*
X42104733Y-36982124D01*
X41943866Y-36821258D01*
X41863433Y-36579958D01*
X41863433Y-36419091D01*
X43552533Y-37706024D02*
X43552533Y-38751658D01*
X42909066Y-38188624D01*
X42909066Y-38429924D01*
X42828633Y-38590791D01*
X42748200Y-38671224D01*
X42587333Y-38751658D01*
X42185166Y-38751658D01*
X42024300Y-38671224D01*
X41943866Y-38590791D01*
X41863433Y-38429924D01*
X41863433Y-37947324D01*
X41943866Y-37786458D01*
X42024300Y-37706024D01*
X18152533Y-37062558D02*
X16946033Y-37062558D01*
X16704733Y-36982124D01*
X16543866Y-36821258D01*
X16463433Y-36579958D01*
X16463433Y-36419091D01*
X17991666Y-37786458D02*
X18072100Y-37866891D01*
X18152533Y-38027758D01*
X18152533Y-38429924D01*
X18072100Y-38590791D01*
X17991666Y-38671224D01*
X17830800Y-38751658D01*
X17669933Y-38751658D01*
X17428633Y-38671224D01*
X16463433Y-37706024D01*
X16463433Y-38751658D01*
D11*
X62912666Y-28662380D02*
X62912666Y-29376666D01*
X62865047Y-29519523D01*
X62769809Y-29614761D01*
X62626952Y-29662380D01*
X62531714Y-29662380D01*
X63912666Y-29662380D02*
X63341238Y-29662380D01*
X63626952Y-29662380D02*
X63626952Y-28662380D01*
X63531714Y-28805238D01*
X63436476Y-28900476D01*
X63341238Y-28948095D01*
X17613333Y-48108142D02*
X17565714Y-48155761D01*
X17422857Y-48203380D01*
X17327619Y-48203380D01*
X17184761Y-48155761D01*
X17089523Y-48060523D01*
X17041904Y-47965285D01*
X16994285Y-47774809D01*
X16994285Y-47631952D01*
X17041904Y-47441476D01*
X17089523Y-47346238D01*
X17184761Y-47251000D01*
X17327619Y-47203380D01*
X17422857Y-47203380D01*
X17565714Y-47251000D01*
X17613333Y-47298619D01*
X18184761Y-47631952D02*
X18089523Y-47584333D01*
X18041904Y-47536714D01*
X17994285Y-47441476D01*
X17994285Y-47393857D01*
X18041904Y-47298619D01*
X18089523Y-47251000D01*
X18184761Y-47203380D01*
X18375238Y-47203380D01*
X18470476Y-47251000D01*
X18518095Y-47298619D01*
X18565714Y-47393857D01*
X18565714Y-47441476D01*
X18518095Y-47536714D01*
X18470476Y-47584333D01*
X18375238Y-47631952D01*
X18184761Y-47631952D01*
X18089523Y-47679571D01*
X18041904Y-47727190D01*
X17994285Y-47822428D01*
X17994285Y-48012904D01*
X18041904Y-48108142D01*
X18089523Y-48155761D01*
X18184761Y-48203380D01*
X18375238Y-48203380D01*
X18470476Y-48155761D01*
X18518095Y-48108142D01*
X18565714Y-48012904D01*
X18565714Y-47822428D01*
X18518095Y-47727190D01*
X18470476Y-47679571D01*
X18375238Y-47631952D01*
X43013333Y-48108142D02*
X42965714Y-48155761D01*
X42822857Y-48203380D01*
X42727619Y-48203380D01*
X42584761Y-48155761D01*
X42489523Y-48060523D01*
X42441904Y-47965285D01*
X42394285Y-47774809D01*
X42394285Y-47631952D01*
X42441904Y-47441476D01*
X42489523Y-47346238D01*
X42584761Y-47251000D01*
X42727619Y-47203380D01*
X42822857Y-47203380D01*
X42965714Y-47251000D01*
X43013333Y-47298619D01*
X43870476Y-47203380D02*
X43680000Y-47203380D01*
X43584761Y-47251000D01*
X43537142Y-47298619D01*
X43441904Y-47441476D01*
X43394285Y-47631952D01*
X43394285Y-48012904D01*
X43441904Y-48108142D01*
X43489523Y-48155761D01*
X43584761Y-48203380D01*
X43775238Y-48203380D01*
X43870476Y-48155761D01*
X43918095Y-48108142D01*
X43965714Y-48012904D01*
X43965714Y-47774809D01*
X43918095Y-47679571D01*
X43870476Y-47631952D01*
X43775238Y-47584333D01*
X43584761Y-47584333D01*
X43489523Y-47631952D01*
X43441904Y-47679571D01*
X43394285Y-47774809D01*
X57762142Y-50712666D02*
X57809761Y-50760285D01*
X57857380Y-50903142D01*
X57857380Y-50998380D01*
X57809761Y-51141238D01*
X57714523Y-51236476D01*
X57619285Y-51284095D01*
X57428809Y-51331714D01*
X57285952Y-51331714D01*
X57095476Y-51284095D01*
X57000238Y-51236476D01*
X56905000Y-51141238D01*
X56857380Y-50998380D01*
X56857380Y-50903142D01*
X56905000Y-50760285D01*
X56952619Y-50712666D01*
X57857380Y-50236476D02*
X57857380Y-50046000D01*
X57809761Y-49950761D01*
X57762142Y-49903142D01*
X57619285Y-49807904D01*
X57428809Y-49760285D01*
X57047857Y-49760285D01*
X56952619Y-49807904D01*
X56905000Y-49855523D01*
X56857380Y-49950761D01*
X56857380Y-50141238D01*
X56905000Y-50236476D01*
X56952619Y-50284095D01*
X57047857Y-50331714D01*
X57285952Y-50331714D01*
X57381190Y-50284095D01*
X57428809Y-50236476D01*
X57476428Y-50141238D01*
X57476428Y-49950761D01*
X57428809Y-49855523D01*
X57381190Y-49807904D01*
X57285952Y-49760285D01*
X57889142Y-30646666D02*
X57936761Y-30694285D01*
X57984380Y-30837142D01*
X57984380Y-30932380D01*
X57936761Y-31075238D01*
X57841523Y-31170476D01*
X57746285Y-31218095D01*
X57555809Y-31265714D01*
X57412952Y-31265714D01*
X57222476Y-31218095D01*
X57127238Y-31170476D01*
X57032000Y-31075238D01*
X56984380Y-30932380D01*
X56984380Y-30837142D01*
X57032000Y-30694285D01*
X57079619Y-30646666D01*
X56984380Y-30313333D02*
X56984380Y-29646666D01*
X57984380Y-30075238D01*
X7532857Y-62606714D02*
X7485238Y-62559095D01*
X7437619Y-62416238D01*
X7437619Y-62321000D01*
X7485238Y-62178142D01*
X7580476Y-62082904D01*
X7675714Y-62035285D01*
X7866190Y-61987666D01*
X8009047Y-61987666D01*
X8199523Y-62035285D01*
X8294761Y-62082904D01*
X8390000Y-62178142D01*
X8437619Y-62321000D01*
X8437619Y-62416238D01*
X8390000Y-62559095D01*
X8342380Y-62606714D01*
X8437619Y-63225761D02*
X8437619Y-63416238D01*
X8390000Y-63511476D01*
X8294761Y-63606714D01*
X8104285Y-63654333D01*
X7770952Y-63654333D01*
X7580476Y-63606714D01*
X7485238Y-63511476D01*
X7437619Y-63416238D01*
X7437619Y-63225761D01*
X7485238Y-63130523D01*
X7580476Y-63035285D01*
X7770952Y-62987666D01*
X8104285Y-62987666D01*
X8294761Y-63035285D01*
X8390000Y-63130523D01*
X8437619Y-63225761D01*
X7437619Y-64082904D02*
X8437619Y-64082904D01*
X7437619Y-64654333D01*
X8437619Y-64654333D01*
X7437619Y-65654333D02*
X7437619Y-65082904D01*
X7437619Y-65368619D02*
X8437619Y-65368619D01*
X8294761Y-65273380D01*
X8199523Y-65178142D01*
X8151904Y-65082904D01*
D16*
X49411666Y-19800952D02*
X49411666Y-17300952D01*
X50364047Y-17300952D01*
X50602142Y-17420000D01*
X50721190Y-17539047D01*
X50840238Y-17777142D01*
X50840238Y-18134285D01*
X50721190Y-18372380D01*
X50602142Y-18491428D01*
X50364047Y-18610476D01*
X49411666Y-18610476D01*
X51911666Y-19800952D02*
X51911666Y-17300952D01*
X52745000Y-19086666D01*
X53578333Y-17300952D01*
X53578333Y-19800952D01*
X55245000Y-17300952D02*
X55721190Y-17300952D01*
X55959285Y-17420000D01*
X56197380Y-17658095D01*
X56316428Y-18134285D01*
X56316428Y-18967619D01*
X56197380Y-19443809D01*
X55959285Y-19681904D01*
X55721190Y-19800952D01*
X55245000Y-19800952D01*
X55006904Y-19681904D01*
X54768809Y-19443809D01*
X54649761Y-18967619D01*
X54649761Y-18134285D01*
X54768809Y-17658095D01*
X55006904Y-17420000D01*
X55245000Y-17300952D01*
X57387857Y-19800952D02*
X57387857Y-17300952D01*
X57983095Y-17300952D01*
X58340238Y-17420000D01*
X58578333Y-17658095D01*
X58697380Y-17896190D01*
X58816428Y-18372380D01*
X58816428Y-18729523D01*
X58697380Y-19205714D01*
X58578333Y-19443809D01*
X58340238Y-19681904D01*
X57983095Y-19800952D01*
X57387857Y-19800952D01*
X60959285Y-18134285D02*
X60959285Y-19800952D01*
X60364047Y-17181904D02*
X59768809Y-18967619D01*
X61316428Y-18967619D01*
X26551666Y-19800952D02*
X26551666Y-17300952D01*
X27504047Y-17300952D01*
X27742142Y-17420000D01*
X27861190Y-17539047D01*
X27980238Y-17777142D01*
X27980238Y-18134285D01*
X27861190Y-18372380D01*
X27742142Y-18491428D01*
X27504047Y-18610476D01*
X26551666Y-18610476D01*
X29051666Y-19800952D02*
X29051666Y-17300952D01*
X29885000Y-19086666D01*
X30718333Y-17300952D01*
X30718333Y-19800952D01*
X32385000Y-17300952D02*
X32861190Y-17300952D01*
X33099285Y-17420000D01*
X33337380Y-17658095D01*
X33456428Y-18134285D01*
X33456428Y-18967619D01*
X33337380Y-19443809D01*
X33099285Y-19681904D01*
X32861190Y-19800952D01*
X32385000Y-19800952D01*
X32146904Y-19681904D01*
X31908809Y-19443809D01*
X31789761Y-18967619D01*
X31789761Y-18134285D01*
X31908809Y-17658095D01*
X32146904Y-17420000D01*
X32385000Y-17300952D01*
X34527857Y-19800952D02*
X34527857Y-17300952D01*
X35123095Y-17300952D01*
X35480238Y-17420000D01*
X35718333Y-17658095D01*
X35837380Y-17896190D01*
X35956428Y-18372380D01*
X35956428Y-18729523D01*
X35837380Y-19205714D01*
X35718333Y-19443809D01*
X35480238Y-19681904D01*
X35123095Y-19800952D01*
X34527857Y-19800952D01*
X36789761Y-17300952D02*
X38337380Y-17300952D01*
X37504047Y-18253333D01*
X37861190Y-18253333D01*
X38099285Y-18372380D01*
X38218333Y-18491428D01*
X38337380Y-18729523D01*
X38337380Y-19324761D01*
X38218333Y-19562857D01*
X38099285Y-19681904D01*
X37861190Y-19800952D01*
X37146904Y-19800952D01*
X36908809Y-19681904D01*
X36789761Y-19562857D01*
X3691666Y-19800952D02*
X3691666Y-17300952D01*
X4644047Y-17300952D01*
X4882142Y-17420000D01*
X5001190Y-17539047D01*
X5120238Y-17777142D01*
X5120238Y-18134285D01*
X5001190Y-18372380D01*
X4882142Y-18491428D01*
X4644047Y-18610476D01*
X3691666Y-18610476D01*
X6191666Y-19800952D02*
X6191666Y-17300952D01*
X7025000Y-19086666D01*
X7858333Y-17300952D01*
X7858333Y-19800952D01*
X9525000Y-17300952D02*
X10001190Y-17300952D01*
X10239285Y-17420000D01*
X10477380Y-17658095D01*
X10596428Y-18134285D01*
X10596428Y-18967619D01*
X10477380Y-19443809D01*
X10239285Y-19681904D01*
X10001190Y-19800952D01*
X9525000Y-19800952D01*
X9286904Y-19681904D01*
X9048809Y-19443809D01*
X8929761Y-18967619D01*
X8929761Y-18134285D01*
X9048809Y-17658095D01*
X9286904Y-17420000D01*
X9525000Y-17300952D01*
X11667857Y-19800952D02*
X11667857Y-17300952D01*
X12263095Y-17300952D01*
X12620238Y-17420000D01*
X12858333Y-17658095D01*
X12977380Y-17896190D01*
X13096428Y-18372380D01*
X13096428Y-18729523D01*
X12977380Y-19205714D01*
X12858333Y-19443809D01*
X12620238Y-19681904D01*
X12263095Y-19800952D01*
X11667857Y-19800952D01*
X14048809Y-17539047D02*
X14167857Y-17420000D01*
X14405952Y-17300952D01*
X15001190Y-17300952D01*
X15239285Y-17420000D01*
X15358333Y-17539047D01*
X15477380Y-17777142D01*
X15477380Y-18015238D01*
X15358333Y-18372380D01*
X13929761Y-19800952D01*
X15477380Y-19800952D01*
D11*
X8128095Y-49998380D02*
X8128095Y-50807904D01*
X8175714Y-50903142D01*
X8223333Y-50950761D01*
X8318571Y-50998380D01*
X8509047Y-50998380D01*
X8604285Y-50950761D01*
X8651904Y-50903142D01*
X8699523Y-50807904D01*
X8699523Y-49998380D01*
X9128095Y-50093619D02*
X9175714Y-50046000D01*
X9270952Y-49998380D01*
X9509047Y-49998380D01*
X9604285Y-50046000D01*
X9651904Y-50093619D01*
X9699523Y-50188857D01*
X9699523Y-50284095D01*
X9651904Y-50426952D01*
X9080476Y-50998380D01*
X9699523Y-50998380D01*
X64111142Y-12708857D02*
X64158761Y-12756476D01*
X64206380Y-12899333D01*
X64206380Y-12994571D01*
X64158761Y-13137428D01*
X64063523Y-13232666D01*
X63968285Y-13280285D01*
X63777809Y-13327904D01*
X63634952Y-13327904D01*
X63444476Y-13280285D01*
X63349238Y-13232666D01*
X63254000Y-13137428D01*
X63206380Y-12994571D01*
X63206380Y-12899333D01*
X63254000Y-12756476D01*
X63301619Y-12708857D01*
X64206380Y-11756476D02*
X64206380Y-12327904D01*
X64206380Y-12042190D02*
X63206380Y-12042190D01*
X63349238Y-12137428D01*
X63444476Y-12232666D01*
X63492095Y-12327904D01*
X63301619Y-11375523D02*
X63254000Y-11327904D01*
X63206380Y-11232666D01*
X63206380Y-10994571D01*
X63254000Y-10899333D01*
X63301619Y-10851714D01*
X63396857Y-10804095D01*
X63492095Y-10804095D01*
X63634952Y-10851714D01*
X64206380Y-11423142D01*
X64206380Y-10804095D01*
X41251142Y-13724857D02*
X41298761Y-13772476D01*
X41346380Y-13915333D01*
X41346380Y-14010571D01*
X41298761Y-14153428D01*
X41203523Y-14248666D01*
X41108285Y-14296285D01*
X40917809Y-14343904D01*
X40774952Y-14343904D01*
X40584476Y-14296285D01*
X40489238Y-14248666D01*
X40394000Y-14153428D01*
X40346380Y-14010571D01*
X40346380Y-13915333D01*
X40394000Y-13772476D01*
X40441619Y-13724857D01*
X41346380Y-12772476D02*
X41346380Y-13343904D01*
X41346380Y-13058190D02*
X40346380Y-13058190D01*
X40489238Y-13153428D01*
X40584476Y-13248666D01*
X40632095Y-13343904D01*
X41346380Y-11820095D02*
X41346380Y-12391523D01*
X41346380Y-12105809D02*
X40346380Y-12105809D01*
X40489238Y-12201047D01*
X40584476Y-12296285D01*
X40632095Y-12391523D01*
X18137142Y-13724857D02*
X18184761Y-13772476D01*
X18232380Y-13915333D01*
X18232380Y-14010571D01*
X18184761Y-14153428D01*
X18089523Y-14248666D01*
X17994285Y-14296285D01*
X17803809Y-14343904D01*
X17660952Y-14343904D01*
X17470476Y-14296285D01*
X17375238Y-14248666D01*
X17280000Y-14153428D01*
X17232380Y-14010571D01*
X17232380Y-13915333D01*
X17280000Y-13772476D01*
X17327619Y-13724857D01*
X18232380Y-12772476D02*
X18232380Y-13343904D01*
X18232380Y-13058190D02*
X17232380Y-13058190D01*
X17375238Y-13153428D01*
X17470476Y-13248666D01*
X17518095Y-13343904D01*
X17232380Y-12153428D02*
X17232380Y-12058190D01*
X17280000Y-11962952D01*
X17327619Y-11915333D01*
X17422857Y-11867714D01*
X17613333Y-11820095D01*
X17851428Y-11820095D01*
X18041904Y-11867714D01*
X18137142Y-11915333D01*
X18184761Y-11962952D01*
X18232380Y-12058190D01*
X18232380Y-12153428D01*
X18184761Y-12248666D01*
X18137142Y-12296285D01*
X18041904Y-12343904D01*
X17851428Y-12391523D01*
X17613333Y-12391523D01*
X17422857Y-12343904D01*
X17327619Y-12296285D01*
X17280000Y-12248666D01*
X17232380Y-12153428D01*
X50267142Y-41822666D02*
X50314761Y-41870285D01*
X50362380Y-42013142D01*
X50362380Y-42108380D01*
X50314761Y-42251238D01*
X50219523Y-42346476D01*
X50124285Y-42394095D01*
X49933809Y-42441714D01*
X49790952Y-42441714D01*
X49600476Y-42394095D01*
X49505238Y-42346476D01*
X49410000Y-42251238D01*
X49362380Y-42108380D01*
X49362380Y-42013142D01*
X49410000Y-41870285D01*
X49457619Y-41822666D01*
X50362380Y-40870285D02*
X50362380Y-41441714D01*
X50362380Y-41156000D02*
X49362380Y-41156000D01*
X49505238Y-41251238D01*
X49600476Y-41346476D01*
X49648095Y-41441714D01*
X4802142Y-55792666D02*
X4849761Y-55840285D01*
X4897380Y-55983142D01*
X4897380Y-56078380D01*
X4849761Y-56221238D01*
X4754523Y-56316476D01*
X4659285Y-56364095D01*
X4468809Y-56411714D01*
X4325952Y-56411714D01*
X4135476Y-56364095D01*
X4040238Y-56316476D01*
X3945000Y-56221238D01*
X3897380Y-56078380D01*
X3897380Y-55983142D01*
X3945000Y-55840285D01*
X3992619Y-55792666D01*
X3897380Y-54887904D02*
X3897380Y-55364095D01*
X4373571Y-55411714D01*
X4325952Y-55364095D01*
X4278333Y-55268857D01*
X4278333Y-55030761D01*
X4325952Y-54935523D01*
X4373571Y-54887904D01*
X4468809Y-54840285D01*
X4706904Y-54840285D01*
X4802142Y-54887904D01*
X4849761Y-54935523D01*
X4897380Y-55030761D01*
X4897380Y-55268857D01*
X4849761Y-55364095D01*
X4802142Y-55411714D01*
X8357142Y-59847666D02*
X8404761Y-59895285D01*
X8452380Y-60038142D01*
X8452380Y-60133380D01*
X8404761Y-60276238D01*
X8309523Y-60371476D01*
X8214285Y-60419095D01*
X8023809Y-60466714D01*
X7880952Y-60466714D01*
X7690476Y-60419095D01*
X7595238Y-60371476D01*
X7500000Y-60276238D01*
X7452380Y-60133380D01*
X7452380Y-60038142D01*
X7500000Y-59895285D01*
X7547619Y-59847666D01*
X7785714Y-58990523D02*
X8452380Y-58990523D01*
X7404761Y-59228619D02*
X8119047Y-59466714D01*
X8119047Y-58847666D01*
X54712142Y-51347666D02*
X54759761Y-51395285D01*
X54807380Y-51538142D01*
X54807380Y-51633380D01*
X54759761Y-51776238D01*
X54664523Y-51871476D01*
X54569285Y-51919095D01*
X54378809Y-51966714D01*
X54235952Y-51966714D01*
X54045476Y-51919095D01*
X53950238Y-51871476D01*
X53855000Y-51776238D01*
X53807380Y-51633380D01*
X53807380Y-51538142D01*
X53855000Y-51395285D01*
X53902619Y-51347666D01*
X53807380Y-51014333D02*
X53807380Y-50395285D01*
X54188333Y-50728619D01*
X54188333Y-50585761D01*
X54235952Y-50490523D01*
X54283571Y-50442904D01*
X54378809Y-50395285D01*
X54616904Y-50395285D01*
X54712142Y-50442904D01*
X54759761Y-50490523D01*
X54807380Y-50585761D01*
X54807380Y-50871476D01*
X54759761Y-50966714D01*
X54712142Y-51014333D01*
X59793142Y-40298666D02*
X59840761Y-40346285D01*
X59888380Y-40489142D01*
X59888380Y-40584380D01*
X59840761Y-40727238D01*
X59745523Y-40822476D01*
X59650285Y-40870095D01*
X59459809Y-40917714D01*
X59316952Y-40917714D01*
X59126476Y-40870095D01*
X59031238Y-40822476D01*
X58936000Y-40727238D01*
X58888380Y-40584380D01*
X58888380Y-40489142D01*
X58936000Y-40346285D01*
X58983619Y-40298666D01*
X58983619Y-39917714D02*
X58936000Y-39870095D01*
X58888380Y-39774857D01*
X58888380Y-39536761D01*
X58936000Y-39441523D01*
X58983619Y-39393904D01*
X59078857Y-39346285D01*
X59174095Y-39346285D01*
X59316952Y-39393904D01*
X59888380Y-39965333D01*
X59888380Y-39346285D01*
M02*
