G04 #@! TF.GenerationSoftware,KiCad,Pcbnew,5.1.4-e60b266~84~ubuntu19.04.1*
G04 #@! TF.CreationDate,2019-11-17T18:28:13-08:00*
G04 #@! TF.ProjectId,cartridge,63617274-7269-4646-9765-2e6b69636164,rev?*
G04 #@! TF.SameCoordinates,PX40311b0PY292dfe0*
G04 #@! TF.FileFunction,Copper,L1,Top*
G04 #@! TF.FilePolarity,Positive*
%FSLAX46Y46*%
G04 Gerber Fmt 4.6, Leading zero omitted, Abs format (unit mm)*
G04 Created by KiCad (PCBNEW 5.1.4-e60b266~84~ubuntu19.04.1) date 2019-11-17 18:28:13*
%MOMM*%
%LPD*%
G04 APERTURE LIST*
%ADD10C,0.400000*%
%ADD11R,1.600000X3.400000*%
%ADD12R,1.000000X4.600000*%
%ADD13O,3.400000X1.700000*%
%ADD14C,0.050000*%
%ADD15C,1.150000*%
%ADD16R,1.700000X1.700000*%
%ADD17O,1.700000X1.700000*%
%ADD18O,1.700000X2.540000*%
%ADD19C,0.600000*%
%ADD20C,0.800000*%
%ADD21C,0.508000*%
%ADD22C,0.203200*%
%ADD23C,1.016000*%
%ADD24C,0.762000*%
%ADD25C,0.304800*%
%ADD26C,0.254000*%
%ADD27C,0.152400*%
G04 APERTURE END LIST*
D10*
X56070000Y-36560000D03*
X56070000Y-35560000D03*
X56070000Y-34560000D03*
X56070000Y-33560000D03*
X55070000Y-37560000D03*
X55070000Y-36560000D03*
X55070000Y-35560000D03*
X55070000Y-34560000D03*
X55070000Y-33560000D03*
X54070000Y-37560000D03*
X54070000Y-36560000D03*
X54070000Y-35560000D03*
X54070000Y-34560000D03*
X54070000Y-33560000D03*
X53070000Y-37560000D03*
X53070000Y-36560000D03*
X53070000Y-35560000D03*
X53070000Y-34560000D03*
X53070000Y-33560000D03*
X52070000Y-37560000D03*
X52070000Y-36560000D03*
X52070000Y-35560000D03*
X52070000Y-34560000D03*
X52070000Y-33560000D03*
D11*
X46580000Y-28980000D03*
X39780000Y-28980000D03*
D12*
X44180000Y-34180000D03*
X42180000Y-34180000D03*
D11*
X21180000Y-28980000D03*
X14380000Y-28980000D03*
D12*
X18780000Y-34180000D03*
X16780000Y-34180000D03*
D13*
X62165000Y-44450000D03*
X62165000Y-41910000D03*
X62165000Y-39370000D03*
X62165000Y-36830000D03*
X62165000Y-34290000D03*
X62165000Y-31750000D03*
X62165000Y-29210000D03*
X62165000Y-26670000D03*
X62165000Y-24130000D03*
D14*
G36*
X17104505Y-38036204D02*
G01*
X17128773Y-38039804D01*
X17152572Y-38045765D01*
X17175671Y-38054030D01*
X17197850Y-38064520D01*
X17218893Y-38077132D01*
X17238599Y-38091747D01*
X17256777Y-38108223D01*
X17273253Y-38126401D01*
X17287868Y-38146107D01*
X17300480Y-38167150D01*
X17310970Y-38189329D01*
X17319235Y-38212428D01*
X17325196Y-38236227D01*
X17328796Y-38260495D01*
X17330000Y-38284999D01*
X17330000Y-39185001D01*
X17328796Y-39209505D01*
X17325196Y-39233773D01*
X17319235Y-39257572D01*
X17310970Y-39280671D01*
X17300480Y-39302850D01*
X17287868Y-39323893D01*
X17273253Y-39343599D01*
X17256777Y-39361777D01*
X17238599Y-39378253D01*
X17218893Y-39392868D01*
X17197850Y-39405480D01*
X17175671Y-39415970D01*
X17152572Y-39424235D01*
X17128773Y-39430196D01*
X17104505Y-39433796D01*
X17080001Y-39435000D01*
X16429999Y-39435000D01*
X16405495Y-39433796D01*
X16381227Y-39430196D01*
X16357428Y-39424235D01*
X16334329Y-39415970D01*
X16312150Y-39405480D01*
X16291107Y-39392868D01*
X16271401Y-39378253D01*
X16253223Y-39361777D01*
X16236747Y-39343599D01*
X16222132Y-39323893D01*
X16209520Y-39302850D01*
X16199030Y-39280671D01*
X16190765Y-39257572D01*
X16184804Y-39233773D01*
X16181204Y-39209505D01*
X16180000Y-39185001D01*
X16180000Y-38284999D01*
X16181204Y-38260495D01*
X16184804Y-38236227D01*
X16190765Y-38212428D01*
X16199030Y-38189329D01*
X16209520Y-38167150D01*
X16222132Y-38146107D01*
X16236747Y-38126401D01*
X16253223Y-38108223D01*
X16271401Y-38091747D01*
X16291107Y-38077132D01*
X16312150Y-38064520D01*
X16334329Y-38054030D01*
X16357428Y-38045765D01*
X16381227Y-38039804D01*
X16405495Y-38036204D01*
X16429999Y-38035000D01*
X17080001Y-38035000D01*
X17104505Y-38036204D01*
X17104505Y-38036204D01*
G37*
D15*
X16755000Y-38735000D03*
D14*
G36*
X19154505Y-38036204D02*
G01*
X19178773Y-38039804D01*
X19202572Y-38045765D01*
X19225671Y-38054030D01*
X19247850Y-38064520D01*
X19268893Y-38077132D01*
X19288599Y-38091747D01*
X19306777Y-38108223D01*
X19323253Y-38126401D01*
X19337868Y-38146107D01*
X19350480Y-38167150D01*
X19360970Y-38189329D01*
X19369235Y-38212428D01*
X19375196Y-38236227D01*
X19378796Y-38260495D01*
X19380000Y-38284999D01*
X19380000Y-39185001D01*
X19378796Y-39209505D01*
X19375196Y-39233773D01*
X19369235Y-39257572D01*
X19360970Y-39280671D01*
X19350480Y-39302850D01*
X19337868Y-39323893D01*
X19323253Y-39343599D01*
X19306777Y-39361777D01*
X19288599Y-39378253D01*
X19268893Y-39392868D01*
X19247850Y-39405480D01*
X19225671Y-39415970D01*
X19202572Y-39424235D01*
X19178773Y-39430196D01*
X19154505Y-39433796D01*
X19130001Y-39435000D01*
X18479999Y-39435000D01*
X18455495Y-39433796D01*
X18431227Y-39430196D01*
X18407428Y-39424235D01*
X18384329Y-39415970D01*
X18362150Y-39405480D01*
X18341107Y-39392868D01*
X18321401Y-39378253D01*
X18303223Y-39361777D01*
X18286747Y-39343599D01*
X18272132Y-39323893D01*
X18259520Y-39302850D01*
X18249030Y-39280671D01*
X18240765Y-39257572D01*
X18234804Y-39233773D01*
X18231204Y-39209505D01*
X18230000Y-39185001D01*
X18230000Y-38284999D01*
X18231204Y-38260495D01*
X18234804Y-38236227D01*
X18240765Y-38212428D01*
X18249030Y-38189329D01*
X18259520Y-38167150D01*
X18272132Y-38146107D01*
X18286747Y-38126401D01*
X18303223Y-38108223D01*
X18321401Y-38091747D01*
X18341107Y-38077132D01*
X18362150Y-38064520D01*
X18384329Y-38054030D01*
X18407428Y-38045765D01*
X18431227Y-38039804D01*
X18455495Y-38036204D01*
X18479999Y-38035000D01*
X19130001Y-38035000D01*
X19154505Y-38036204D01*
X19154505Y-38036204D01*
G37*
D15*
X18805000Y-38735000D03*
D14*
G36*
X42504505Y-38036204D02*
G01*
X42528773Y-38039804D01*
X42552572Y-38045765D01*
X42575671Y-38054030D01*
X42597850Y-38064520D01*
X42618893Y-38077132D01*
X42638599Y-38091747D01*
X42656777Y-38108223D01*
X42673253Y-38126401D01*
X42687868Y-38146107D01*
X42700480Y-38167150D01*
X42710970Y-38189329D01*
X42719235Y-38212428D01*
X42725196Y-38236227D01*
X42728796Y-38260495D01*
X42730000Y-38284999D01*
X42730000Y-39185001D01*
X42728796Y-39209505D01*
X42725196Y-39233773D01*
X42719235Y-39257572D01*
X42710970Y-39280671D01*
X42700480Y-39302850D01*
X42687868Y-39323893D01*
X42673253Y-39343599D01*
X42656777Y-39361777D01*
X42638599Y-39378253D01*
X42618893Y-39392868D01*
X42597850Y-39405480D01*
X42575671Y-39415970D01*
X42552572Y-39424235D01*
X42528773Y-39430196D01*
X42504505Y-39433796D01*
X42480001Y-39435000D01*
X41829999Y-39435000D01*
X41805495Y-39433796D01*
X41781227Y-39430196D01*
X41757428Y-39424235D01*
X41734329Y-39415970D01*
X41712150Y-39405480D01*
X41691107Y-39392868D01*
X41671401Y-39378253D01*
X41653223Y-39361777D01*
X41636747Y-39343599D01*
X41622132Y-39323893D01*
X41609520Y-39302850D01*
X41599030Y-39280671D01*
X41590765Y-39257572D01*
X41584804Y-39233773D01*
X41581204Y-39209505D01*
X41580000Y-39185001D01*
X41580000Y-38284999D01*
X41581204Y-38260495D01*
X41584804Y-38236227D01*
X41590765Y-38212428D01*
X41599030Y-38189329D01*
X41609520Y-38167150D01*
X41622132Y-38146107D01*
X41636747Y-38126401D01*
X41653223Y-38108223D01*
X41671401Y-38091747D01*
X41691107Y-38077132D01*
X41712150Y-38064520D01*
X41734329Y-38054030D01*
X41757428Y-38045765D01*
X41781227Y-38039804D01*
X41805495Y-38036204D01*
X41829999Y-38035000D01*
X42480001Y-38035000D01*
X42504505Y-38036204D01*
X42504505Y-38036204D01*
G37*
D15*
X42155000Y-38735000D03*
D14*
G36*
X44554505Y-38036204D02*
G01*
X44578773Y-38039804D01*
X44602572Y-38045765D01*
X44625671Y-38054030D01*
X44647850Y-38064520D01*
X44668893Y-38077132D01*
X44688599Y-38091747D01*
X44706777Y-38108223D01*
X44723253Y-38126401D01*
X44737868Y-38146107D01*
X44750480Y-38167150D01*
X44760970Y-38189329D01*
X44769235Y-38212428D01*
X44775196Y-38236227D01*
X44778796Y-38260495D01*
X44780000Y-38284999D01*
X44780000Y-39185001D01*
X44778796Y-39209505D01*
X44775196Y-39233773D01*
X44769235Y-39257572D01*
X44760970Y-39280671D01*
X44750480Y-39302850D01*
X44737868Y-39323893D01*
X44723253Y-39343599D01*
X44706777Y-39361777D01*
X44688599Y-39378253D01*
X44668893Y-39392868D01*
X44647850Y-39405480D01*
X44625671Y-39415970D01*
X44602572Y-39424235D01*
X44578773Y-39430196D01*
X44554505Y-39433796D01*
X44530001Y-39435000D01*
X43879999Y-39435000D01*
X43855495Y-39433796D01*
X43831227Y-39430196D01*
X43807428Y-39424235D01*
X43784329Y-39415970D01*
X43762150Y-39405480D01*
X43741107Y-39392868D01*
X43721401Y-39378253D01*
X43703223Y-39361777D01*
X43686747Y-39343599D01*
X43672132Y-39323893D01*
X43659520Y-39302850D01*
X43649030Y-39280671D01*
X43640765Y-39257572D01*
X43634804Y-39233773D01*
X43631204Y-39209505D01*
X43630000Y-39185001D01*
X43630000Y-38284999D01*
X43631204Y-38260495D01*
X43634804Y-38236227D01*
X43640765Y-38212428D01*
X43649030Y-38189329D01*
X43659520Y-38167150D01*
X43672132Y-38146107D01*
X43686747Y-38126401D01*
X43703223Y-38108223D01*
X43721401Y-38091747D01*
X43741107Y-38077132D01*
X43762150Y-38064520D01*
X43784329Y-38054030D01*
X43807428Y-38045765D01*
X43831227Y-38039804D01*
X43855495Y-38036204D01*
X43879999Y-38035000D01*
X44530001Y-38035000D01*
X44554505Y-38036204D01*
X44554505Y-38036204D01*
G37*
D15*
X44205000Y-38735000D03*
D14*
G36*
X59529505Y-41581204D02*
G01*
X59553773Y-41584804D01*
X59577572Y-41590765D01*
X59600671Y-41599030D01*
X59622850Y-41609520D01*
X59643893Y-41622132D01*
X59663599Y-41636747D01*
X59681777Y-41653223D01*
X59698253Y-41671401D01*
X59712868Y-41691107D01*
X59725480Y-41712150D01*
X59735970Y-41734329D01*
X59744235Y-41757428D01*
X59750196Y-41781227D01*
X59753796Y-41805495D01*
X59755000Y-41829999D01*
X59755000Y-42480001D01*
X59753796Y-42504505D01*
X59750196Y-42528773D01*
X59744235Y-42552572D01*
X59735970Y-42575671D01*
X59725480Y-42597850D01*
X59712868Y-42618893D01*
X59698253Y-42638599D01*
X59681777Y-42656777D01*
X59663599Y-42673253D01*
X59643893Y-42687868D01*
X59622850Y-42700480D01*
X59600671Y-42710970D01*
X59577572Y-42719235D01*
X59553773Y-42725196D01*
X59529505Y-42728796D01*
X59505001Y-42730000D01*
X58604999Y-42730000D01*
X58580495Y-42728796D01*
X58556227Y-42725196D01*
X58532428Y-42719235D01*
X58509329Y-42710970D01*
X58487150Y-42700480D01*
X58466107Y-42687868D01*
X58446401Y-42673253D01*
X58428223Y-42656777D01*
X58411747Y-42638599D01*
X58397132Y-42618893D01*
X58384520Y-42597850D01*
X58374030Y-42575671D01*
X58365765Y-42552572D01*
X58359804Y-42528773D01*
X58356204Y-42504505D01*
X58355000Y-42480001D01*
X58355000Y-41829999D01*
X58356204Y-41805495D01*
X58359804Y-41781227D01*
X58365765Y-41757428D01*
X58374030Y-41734329D01*
X58384520Y-41712150D01*
X58397132Y-41691107D01*
X58411747Y-41671401D01*
X58428223Y-41653223D01*
X58446401Y-41636747D01*
X58466107Y-41622132D01*
X58487150Y-41609520D01*
X58509329Y-41599030D01*
X58532428Y-41590765D01*
X58556227Y-41584804D01*
X58580495Y-41581204D01*
X58604999Y-41580000D01*
X59505001Y-41580000D01*
X59529505Y-41581204D01*
X59529505Y-41581204D01*
G37*
D15*
X59055000Y-42155000D03*
D14*
G36*
X59529505Y-43631204D02*
G01*
X59553773Y-43634804D01*
X59577572Y-43640765D01*
X59600671Y-43649030D01*
X59622850Y-43659520D01*
X59643893Y-43672132D01*
X59663599Y-43686747D01*
X59681777Y-43703223D01*
X59698253Y-43721401D01*
X59712868Y-43741107D01*
X59725480Y-43762150D01*
X59735970Y-43784329D01*
X59744235Y-43807428D01*
X59750196Y-43831227D01*
X59753796Y-43855495D01*
X59755000Y-43879999D01*
X59755000Y-44530001D01*
X59753796Y-44554505D01*
X59750196Y-44578773D01*
X59744235Y-44602572D01*
X59735970Y-44625671D01*
X59725480Y-44647850D01*
X59712868Y-44668893D01*
X59698253Y-44688599D01*
X59681777Y-44706777D01*
X59663599Y-44723253D01*
X59643893Y-44737868D01*
X59622850Y-44750480D01*
X59600671Y-44760970D01*
X59577572Y-44769235D01*
X59553773Y-44775196D01*
X59529505Y-44778796D01*
X59505001Y-44780000D01*
X58604999Y-44780000D01*
X58580495Y-44778796D01*
X58556227Y-44775196D01*
X58532428Y-44769235D01*
X58509329Y-44760970D01*
X58487150Y-44750480D01*
X58466107Y-44737868D01*
X58446401Y-44723253D01*
X58428223Y-44706777D01*
X58411747Y-44688599D01*
X58397132Y-44668893D01*
X58384520Y-44647850D01*
X58374030Y-44625671D01*
X58365765Y-44602572D01*
X58359804Y-44578773D01*
X58356204Y-44554505D01*
X58355000Y-44530001D01*
X58355000Y-43879999D01*
X58356204Y-43855495D01*
X58359804Y-43831227D01*
X58365765Y-43807428D01*
X58374030Y-43784329D01*
X58384520Y-43762150D01*
X58397132Y-43741107D01*
X58411747Y-43721401D01*
X58428223Y-43703223D01*
X58446401Y-43686747D01*
X58466107Y-43672132D01*
X58487150Y-43659520D01*
X58509329Y-43649030D01*
X58532428Y-43640765D01*
X58556227Y-43634804D01*
X58580495Y-43631204D01*
X58604999Y-43630000D01*
X59505001Y-43630000D01*
X59529505Y-43631204D01*
X59529505Y-43631204D01*
G37*
D15*
X59055000Y-44205000D03*
D14*
G36*
X59656505Y-21515204D02*
G01*
X59680773Y-21518804D01*
X59704572Y-21524765D01*
X59727671Y-21533030D01*
X59749850Y-21543520D01*
X59770893Y-21556132D01*
X59790599Y-21570747D01*
X59808777Y-21587223D01*
X59825253Y-21605401D01*
X59839868Y-21625107D01*
X59852480Y-21646150D01*
X59862970Y-21668329D01*
X59871235Y-21691428D01*
X59877196Y-21715227D01*
X59880796Y-21739495D01*
X59882000Y-21763999D01*
X59882000Y-22414001D01*
X59880796Y-22438505D01*
X59877196Y-22462773D01*
X59871235Y-22486572D01*
X59862970Y-22509671D01*
X59852480Y-22531850D01*
X59839868Y-22552893D01*
X59825253Y-22572599D01*
X59808777Y-22590777D01*
X59790599Y-22607253D01*
X59770893Y-22621868D01*
X59749850Y-22634480D01*
X59727671Y-22644970D01*
X59704572Y-22653235D01*
X59680773Y-22659196D01*
X59656505Y-22662796D01*
X59632001Y-22664000D01*
X58731999Y-22664000D01*
X58707495Y-22662796D01*
X58683227Y-22659196D01*
X58659428Y-22653235D01*
X58636329Y-22644970D01*
X58614150Y-22634480D01*
X58593107Y-22621868D01*
X58573401Y-22607253D01*
X58555223Y-22590777D01*
X58538747Y-22572599D01*
X58524132Y-22552893D01*
X58511520Y-22531850D01*
X58501030Y-22509671D01*
X58492765Y-22486572D01*
X58486804Y-22462773D01*
X58483204Y-22438505D01*
X58482000Y-22414001D01*
X58482000Y-21763999D01*
X58483204Y-21739495D01*
X58486804Y-21715227D01*
X58492765Y-21691428D01*
X58501030Y-21668329D01*
X58511520Y-21646150D01*
X58524132Y-21625107D01*
X58538747Y-21605401D01*
X58555223Y-21587223D01*
X58573401Y-21570747D01*
X58593107Y-21556132D01*
X58614150Y-21543520D01*
X58636329Y-21533030D01*
X58659428Y-21524765D01*
X58683227Y-21518804D01*
X58707495Y-21515204D01*
X58731999Y-21514000D01*
X59632001Y-21514000D01*
X59656505Y-21515204D01*
X59656505Y-21515204D01*
G37*
D15*
X59182000Y-22089000D03*
D14*
G36*
X59656505Y-23565204D02*
G01*
X59680773Y-23568804D01*
X59704572Y-23574765D01*
X59727671Y-23583030D01*
X59749850Y-23593520D01*
X59770893Y-23606132D01*
X59790599Y-23620747D01*
X59808777Y-23637223D01*
X59825253Y-23655401D01*
X59839868Y-23675107D01*
X59852480Y-23696150D01*
X59862970Y-23718329D01*
X59871235Y-23741428D01*
X59877196Y-23765227D01*
X59880796Y-23789495D01*
X59882000Y-23813999D01*
X59882000Y-24464001D01*
X59880796Y-24488505D01*
X59877196Y-24512773D01*
X59871235Y-24536572D01*
X59862970Y-24559671D01*
X59852480Y-24581850D01*
X59839868Y-24602893D01*
X59825253Y-24622599D01*
X59808777Y-24640777D01*
X59790599Y-24657253D01*
X59770893Y-24671868D01*
X59749850Y-24684480D01*
X59727671Y-24694970D01*
X59704572Y-24703235D01*
X59680773Y-24709196D01*
X59656505Y-24712796D01*
X59632001Y-24714000D01*
X58731999Y-24714000D01*
X58707495Y-24712796D01*
X58683227Y-24709196D01*
X58659428Y-24703235D01*
X58636329Y-24694970D01*
X58614150Y-24684480D01*
X58593107Y-24671868D01*
X58573401Y-24657253D01*
X58555223Y-24640777D01*
X58538747Y-24622599D01*
X58524132Y-24602893D01*
X58511520Y-24581850D01*
X58501030Y-24559671D01*
X58492765Y-24536572D01*
X58486804Y-24512773D01*
X58483204Y-24488505D01*
X58482000Y-24464001D01*
X58482000Y-23813999D01*
X58483204Y-23789495D01*
X58486804Y-23765227D01*
X58492765Y-23741428D01*
X58501030Y-23718329D01*
X58511520Y-23696150D01*
X58524132Y-23675107D01*
X58538747Y-23655401D01*
X58555223Y-23637223D01*
X58573401Y-23620747D01*
X58593107Y-23606132D01*
X58614150Y-23593520D01*
X58636329Y-23583030D01*
X58659428Y-23574765D01*
X58683227Y-23568804D01*
X58707495Y-23565204D01*
X58731999Y-23564000D01*
X59632001Y-23564000D01*
X59656505Y-23565204D01*
X59656505Y-23565204D01*
G37*
D15*
X59182000Y-24139000D03*
D16*
X10160000Y-53340000D03*
D17*
X10160000Y-50800000D03*
X12700000Y-53340000D03*
X12700000Y-50800000D03*
X15240000Y-53340000D03*
X15240000Y-50800000D03*
X17780000Y-53340000D03*
X17780000Y-50800000D03*
X20320000Y-53340000D03*
X20320000Y-50800000D03*
X22860000Y-53340000D03*
X22860000Y-50800000D03*
X25400000Y-53340000D03*
X25400000Y-50800000D03*
X27940000Y-53340000D03*
X27940000Y-50800000D03*
X30480000Y-53340000D03*
X30480000Y-50800000D03*
X33020000Y-53340000D03*
X33020000Y-50800000D03*
X35560000Y-53340000D03*
X35560000Y-50800000D03*
X38100000Y-53340000D03*
X38100000Y-50800000D03*
X40640000Y-53340000D03*
X40640000Y-50800000D03*
X43180000Y-53340000D03*
X43180000Y-50800000D03*
X45720000Y-53340000D03*
X45720000Y-50800000D03*
X48260000Y-53340000D03*
X48260000Y-50800000D03*
X50800000Y-53340000D03*
X50800000Y-50800000D03*
X53340000Y-53340000D03*
X53340000Y-50800000D03*
X55880000Y-53340000D03*
X55880000Y-50800000D03*
X58420000Y-53340000D03*
X58420000Y-50800000D03*
D18*
X61595000Y-13735000D03*
X61595000Y-10395000D03*
X59055000Y-13735000D03*
X59055000Y-10395000D03*
X56515000Y-13735000D03*
X56515000Y-10395000D03*
X53975000Y-13735000D03*
X53975000Y-10395000D03*
X51435000Y-13735000D03*
X51435000Y-10395000D03*
X48895000Y-13735000D03*
X48895000Y-10395000D03*
X38735000Y-13735000D03*
X38735000Y-10395000D03*
X36195000Y-13735000D03*
X36195000Y-10395000D03*
X33655000Y-13735000D03*
X33655000Y-10395000D03*
X31115000Y-13735000D03*
X31115000Y-10395000D03*
X28575000Y-13735000D03*
X28575000Y-10395000D03*
X26035000Y-13735000D03*
X26035000Y-10395000D03*
X15875000Y-13735000D03*
X15875000Y-10395000D03*
X13335000Y-13735000D03*
X13335000Y-10395000D03*
X10795000Y-13735000D03*
X10795000Y-10395000D03*
X8255000Y-13735000D03*
X8255000Y-10395000D03*
X5715000Y-13735000D03*
X5715000Y-10395000D03*
X3175000Y-13735000D03*
X3175000Y-10395000D03*
D14*
G36*
X5954703Y-44785722D02*
G01*
X5969264Y-44787882D01*
X5983543Y-44791459D01*
X5997403Y-44796418D01*
X6010710Y-44802712D01*
X6023336Y-44810280D01*
X6035159Y-44819048D01*
X6046066Y-44828934D01*
X6055952Y-44839841D01*
X6064720Y-44851664D01*
X6072288Y-44864290D01*
X6078582Y-44877597D01*
X6083541Y-44891457D01*
X6087118Y-44905736D01*
X6089278Y-44920297D01*
X6090000Y-44935000D01*
X6090000Y-45235000D01*
X6089278Y-45249703D01*
X6087118Y-45264264D01*
X6083541Y-45278543D01*
X6078582Y-45292403D01*
X6072288Y-45305710D01*
X6064720Y-45318336D01*
X6055952Y-45330159D01*
X6046066Y-45341066D01*
X6035159Y-45350952D01*
X6023336Y-45359720D01*
X6010710Y-45367288D01*
X5997403Y-45373582D01*
X5983543Y-45378541D01*
X5969264Y-45382118D01*
X5954703Y-45384278D01*
X5940000Y-45385000D01*
X4640000Y-45385000D01*
X4625297Y-45384278D01*
X4610736Y-45382118D01*
X4596457Y-45378541D01*
X4582597Y-45373582D01*
X4569290Y-45367288D01*
X4556664Y-45359720D01*
X4544841Y-45350952D01*
X4533934Y-45341066D01*
X4524048Y-45330159D01*
X4515280Y-45318336D01*
X4507712Y-45305710D01*
X4501418Y-45292403D01*
X4496459Y-45278543D01*
X4492882Y-45264264D01*
X4490722Y-45249703D01*
X4490000Y-45235000D01*
X4490000Y-44935000D01*
X4490722Y-44920297D01*
X4492882Y-44905736D01*
X4496459Y-44891457D01*
X4501418Y-44877597D01*
X4507712Y-44864290D01*
X4515280Y-44851664D01*
X4524048Y-44839841D01*
X4533934Y-44828934D01*
X4544841Y-44819048D01*
X4556664Y-44810280D01*
X4569290Y-44802712D01*
X4582597Y-44796418D01*
X4596457Y-44791459D01*
X4610736Y-44787882D01*
X4625297Y-44785722D01*
X4640000Y-44785000D01*
X5940000Y-44785000D01*
X5954703Y-44785722D01*
X5954703Y-44785722D01*
G37*
D19*
X5290000Y-45085000D03*
D14*
G36*
X5954703Y-43515722D02*
G01*
X5969264Y-43517882D01*
X5983543Y-43521459D01*
X5997403Y-43526418D01*
X6010710Y-43532712D01*
X6023336Y-43540280D01*
X6035159Y-43549048D01*
X6046066Y-43558934D01*
X6055952Y-43569841D01*
X6064720Y-43581664D01*
X6072288Y-43594290D01*
X6078582Y-43607597D01*
X6083541Y-43621457D01*
X6087118Y-43635736D01*
X6089278Y-43650297D01*
X6090000Y-43665000D01*
X6090000Y-43965000D01*
X6089278Y-43979703D01*
X6087118Y-43994264D01*
X6083541Y-44008543D01*
X6078582Y-44022403D01*
X6072288Y-44035710D01*
X6064720Y-44048336D01*
X6055952Y-44060159D01*
X6046066Y-44071066D01*
X6035159Y-44080952D01*
X6023336Y-44089720D01*
X6010710Y-44097288D01*
X5997403Y-44103582D01*
X5983543Y-44108541D01*
X5969264Y-44112118D01*
X5954703Y-44114278D01*
X5940000Y-44115000D01*
X4640000Y-44115000D01*
X4625297Y-44114278D01*
X4610736Y-44112118D01*
X4596457Y-44108541D01*
X4582597Y-44103582D01*
X4569290Y-44097288D01*
X4556664Y-44089720D01*
X4544841Y-44080952D01*
X4533934Y-44071066D01*
X4524048Y-44060159D01*
X4515280Y-44048336D01*
X4507712Y-44035710D01*
X4501418Y-44022403D01*
X4496459Y-44008543D01*
X4492882Y-43994264D01*
X4490722Y-43979703D01*
X4490000Y-43965000D01*
X4490000Y-43665000D01*
X4490722Y-43650297D01*
X4492882Y-43635736D01*
X4496459Y-43621457D01*
X4501418Y-43607597D01*
X4507712Y-43594290D01*
X4515280Y-43581664D01*
X4524048Y-43569841D01*
X4533934Y-43558934D01*
X4544841Y-43549048D01*
X4556664Y-43540280D01*
X4569290Y-43532712D01*
X4582597Y-43526418D01*
X4596457Y-43521459D01*
X4610736Y-43517882D01*
X4625297Y-43515722D01*
X4640000Y-43515000D01*
X5940000Y-43515000D01*
X5954703Y-43515722D01*
X5954703Y-43515722D01*
G37*
D19*
X5290000Y-43815000D03*
D14*
G36*
X5954703Y-42245722D02*
G01*
X5969264Y-42247882D01*
X5983543Y-42251459D01*
X5997403Y-42256418D01*
X6010710Y-42262712D01*
X6023336Y-42270280D01*
X6035159Y-42279048D01*
X6046066Y-42288934D01*
X6055952Y-42299841D01*
X6064720Y-42311664D01*
X6072288Y-42324290D01*
X6078582Y-42337597D01*
X6083541Y-42351457D01*
X6087118Y-42365736D01*
X6089278Y-42380297D01*
X6090000Y-42395000D01*
X6090000Y-42695000D01*
X6089278Y-42709703D01*
X6087118Y-42724264D01*
X6083541Y-42738543D01*
X6078582Y-42752403D01*
X6072288Y-42765710D01*
X6064720Y-42778336D01*
X6055952Y-42790159D01*
X6046066Y-42801066D01*
X6035159Y-42810952D01*
X6023336Y-42819720D01*
X6010710Y-42827288D01*
X5997403Y-42833582D01*
X5983543Y-42838541D01*
X5969264Y-42842118D01*
X5954703Y-42844278D01*
X5940000Y-42845000D01*
X4640000Y-42845000D01*
X4625297Y-42844278D01*
X4610736Y-42842118D01*
X4596457Y-42838541D01*
X4582597Y-42833582D01*
X4569290Y-42827288D01*
X4556664Y-42819720D01*
X4544841Y-42810952D01*
X4533934Y-42801066D01*
X4524048Y-42790159D01*
X4515280Y-42778336D01*
X4507712Y-42765710D01*
X4501418Y-42752403D01*
X4496459Y-42738543D01*
X4492882Y-42724264D01*
X4490722Y-42709703D01*
X4490000Y-42695000D01*
X4490000Y-42395000D01*
X4490722Y-42380297D01*
X4492882Y-42365736D01*
X4496459Y-42351457D01*
X4501418Y-42337597D01*
X4507712Y-42324290D01*
X4515280Y-42311664D01*
X4524048Y-42299841D01*
X4533934Y-42288934D01*
X4544841Y-42279048D01*
X4556664Y-42270280D01*
X4569290Y-42262712D01*
X4582597Y-42256418D01*
X4596457Y-42251459D01*
X4610736Y-42247882D01*
X4625297Y-42245722D01*
X4640000Y-42245000D01*
X5940000Y-42245000D01*
X5954703Y-42245722D01*
X5954703Y-42245722D01*
G37*
D19*
X5290000Y-42545000D03*
D14*
G36*
X5954703Y-40975722D02*
G01*
X5969264Y-40977882D01*
X5983543Y-40981459D01*
X5997403Y-40986418D01*
X6010710Y-40992712D01*
X6023336Y-41000280D01*
X6035159Y-41009048D01*
X6046066Y-41018934D01*
X6055952Y-41029841D01*
X6064720Y-41041664D01*
X6072288Y-41054290D01*
X6078582Y-41067597D01*
X6083541Y-41081457D01*
X6087118Y-41095736D01*
X6089278Y-41110297D01*
X6090000Y-41125000D01*
X6090000Y-41425000D01*
X6089278Y-41439703D01*
X6087118Y-41454264D01*
X6083541Y-41468543D01*
X6078582Y-41482403D01*
X6072288Y-41495710D01*
X6064720Y-41508336D01*
X6055952Y-41520159D01*
X6046066Y-41531066D01*
X6035159Y-41540952D01*
X6023336Y-41549720D01*
X6010710Y-41557288D01*
X5997403Y-41563582D01*
X5983543Y-41568541D01*
X5969264Y-41572118D01*
X5954703Y-41574278D01*
X5940000Y-41575000D01*
X4640000Y-41575000D01*
X4625297Y-41574278D01*
X4610736Y-41572118D01*
X4596457Y-41568541D01*
X4582597Y-41563582D01*
X4569290Y-41557288D01*
X4556664Y-41549720D01*
X4544841Y-41540952D01*
X4533934Y-41531066D01*
X4524048Y-41520159D01*
X4515280Y-41508336D01*
X4507712Y-41495710D01*
X4501418Y-41482403D01*
X4496459Y-41468543D01*
X4492882Y-41454264D01*
X4490722Y-41439703D01*
X4490000Y-41425000D01*
X4490000Y-41125000D01*
X4490722Y-41110297D01*
X4492882Y-41095736D01*
X4496459Y-41081457D01*
X4501418Y-41067597D01*
X4507712Y-41054290D01*
X4515280Y-41041664D01*
X4524048Y-41029841D01*
X4533934Y-41018934D01*
X4544841Y-41009048D01*
X4556664Y-41000280D01*
X4569290Y-40992712D01*
X4582597Y-40986418D01*
X4596457Y-40981459D01*
X4610736Y-40977882D01*
X4625297Y-40975722D01*
X4640000Y-40975000D01*
X5940000Y-40975000D01*
X5954703Y-40975722D01*
X5954703Y-40975722D01*
G37*
D19*
X5290000Y-41275000D03*
D14*
G36*
X13154703Y-40975722D02*
G01*
X13169264Y-40977882D01*
X13183543Y-40981459D01*
X13197403Y-40986418D01*
X13210710Y-40992712D01*
X13223336Y-41000280D01*
X13235159Y-41009048D01*
X13246066Y-41018934D01*
X13255952Y-41029841D01*
X13264720Y-41041664D01*
X13272288Y-41054290D01*
X13278582Y-41067597D01*
X13283541Y-41081457D01*
X13287118Y-41095736D01*
X13289278Y-41110297D01*
X13290000Y-41125000D01*
X13290000Y-41425000D01*
X13289278Y-41439703D01*
X13287118Y-41454264D01*
X13283541Y-41468543D01*
X13278582Y-41482403D01*
X13272288Y-41495710D01*
X13264720Y-41508336D01*
X13255952Y-41520159D01*
X13246066Y-41531066D01*
X13235159Y-41540952D01*
X13223336Y-41549720D01*
X13210710Y-41557288D01*
X13197403Y-41563582D01*
X13183543Y-41568541D01*
X13169264Y-41572118D01*
X13154703Y-41574278D01*
X13140000Y-41575000D01*
X11840000Y-41575000D01*
X11825297Y-41574278D01*
X11810736Y-41572118D01*
X11796457Y-41568541D01*
X11782597Y-41563582D01*
X11769290Y-41557288D01*
X11756664Y-41549720D01*
X11744841Y-41540952D01*
X11733934Y-41531066D01*
X11724048Y-41520159D01*
X11715280Y-41508336D01*
X11707712Y-41495710D01*
X11701418Y-41482403D01*
X11696459Y-41468543D01*
X11692882Y-41454264D01*
X11690722Y-41439703D01*
X11690000Y-41425000D01*
X11690000Y-41125000D01*
X11690722Y-41110297D01*
X11692882Y-41095736D01*
X11696459Y-41081457D01*
X11701418Y-41067597D01*
X11707712Y-41054290D01*
X11715280Y-41041664D01*
X11724048Y-41029841D01*
X11733934Y-41018934D01*
X11744841Y-41009048D01*
X11756664Y-41000280D01*
X11769290Y-40992712D01*
X11782597Y-40986418D01*
X11796457Y-40981459D01*
X11810736Y-40977882D01*
X11825297Y-40975722D01*
X11840000Y-40975000D01*
X13140000Y-40975000D01*
X13154703Y-40975722D01*
X13154703Y-40975722D01*
G37*
D19*
X12490000Y-41275000D03*
D14*
G36*
X13154703Y-42245722D02*
G01*
X13169264Y-42247882D01*
X13183543Y-42251459D01*
X13197403Y-42256418D01*
X13210710Y-42262712D01*
X13223336Y-42270280D01*
X13235159Y-42279048D01*
X13246066Y-42288934D01*
X13255952Y-42299841D01*
X13264720Y-42311664D01*
X13272288Y-42324290D01*
X13278582Y-42337597D01*
X13283541Y-42351457D01*
X13287118Y-42365736D01*
X13289278Y-42380297D01*
X13290000Y-42395000D01*
X13290000Y-42695000D01*
X13289278Y-42709703D01*
X13287118Y-42724264D01*
X13283541Y-42738543D01*
X13278582Y-42752403D01*
X13272288Y-42765710D01*
X13264720Y-42778336D01*
X13255952Y-42790159D01*
X13246066Y-42801066D01*
X13235159Y-42810952D01*
X13223336Y-42819720D01*
X13210710Y-42827288D01*
X13197403Y-42833582D01*
X13183543Y-42838541D01*
X13169264Y-42842118D01*
X13154703Y-42844278D01*
X13140000Y-42845000D01*
X11840000Y-42845000D01*
X11825297Y-42844278D01*
X11810736Y-42842118D01*
X11796457Y-42838541D01*
X11782597Y-42833582D01*
X11769290Y-42827288D01*
X11756664Y-42819720D01*
X11744841Y-42810952D01*
X11733934Y-42801066D01*
X11724048Y-42790159D01*
X11715280Y-42778336D01*
X11707712Y-42765710D01*
X11701418Y-42752403D01*
X11696459Y-42738543D01*
X11692882Y-42724264D01*
X11690722Y-42709703D01*
X11690000Y-42695000D01*
X11690000Y-42395000D01*
X11690722Y-42380297D01*
X11692882Y-42365736D01*
X11696459Y-42351457D01*
X11701418Y-42337597D01*
X11707712Y-42324290D01*
X11715280Y-42311664D01*
X11724048Y-42299841D01*
X11733934Y-42288934D01*
X11744841Y-42279048D01*
X11756664Y-42270280D01*
X11769290Y-42262712D01*
X11782597Y-42256418D01*
X11796457Y-42251459D01*
X11810736Y-42247882D01*
X11825297Y-42245722D01*
X11840000Y-42245000D01*
X13140000Y-42245000D01*
X13154703Y-42245722D01*
X13154703Y-42245722D01*
G37*
D19*
X12490000Y-42545000D03*
D14*
G36*
X13154703Y-43515722D02*
G01*
X13169264Y-43517882D01*
X13183543Y-43521459D01*
X13197403Y-43526418D01*
X13210710Y-43532712D01*
X13223336Y-43540280D01*
X13235159Y-43549048D01*
X13246066Y-43558934D01*
X13255952Y-43569841D01*
X13264720Y-43581664D01*
X13272288Y-43594290D01*
X13278582Y-43607597D01*
X13283541Y-43621457D01*
X13287118Y-43635736D01*
X13289278Y-43650297D01*
X13290000Y-43665000D01*
X13290000Y-43965000D01*
X13289278Y-43979703D01*
X13287118Y-43994264D01*
X13283541Y-44008543D01*
X13278582Y-44022403D01*
X13272288Y-44035710D01*
X13264720Y-44048336D01*
X13255952Y-44060159D01*
X13246066Y-44071066D01*
X13235159Y-44080952D01*
X13223336Y-44089720D01*
X13210710Y-44097288D01*
X13197403Y-44103582D01*
X13183543Y-44108541D01*
X13169264Y-44112118D01*
X13154703Y-44114278D01*
X13140000Y-44115000D01*
X11840000Y-44115000D01*
X11825297Y-44114278D01*
X11810736Y-44112118D01*
X11796457Y-44108541D01*
X11782597Y-44103582D01*
X11769290Y-44097288D01*
X11756664Y-44089720D01*
X11744841Y-44080952D01*
X11733934Y-44071066D01*
X11724048Y-44060159D01*
X11715280Y-44048336D01*
X11707712Y-44035710D01*
X11701418Y-44022403D01*
X11696459Y-44008543D01*
X11692882Y-43994264D01*
X11690722Y-43979703D01*
X11690000Y-43965000D01*
X11690000Y-43665000D01*
X11690722Y-43650297D01*
X11692882Y-43635736D01*
X11696459Y-43621457D01*
X11701418Y-43607597D01*
X11707712Y-43594290D01*
X11715280Y-43581664D01*
X11724048Y-43569841D01*
X11733934Y-43558934D01*
X11744841Y-43549048D01*
X11756664Y-43540280D01*
X11769290Y-43532712D01*
X11782597Y-43526418D01*
X11796457Y-43521459D01*
X11810736Y-43517882D01*
X11825297Y-43515722D01*
X11840000Y-43515000D01*
X13140000Y-43515000D01*
X13154703Y-43515722D01*
X13154703Y-43515722D01*
G37*
D19*
X12490000Y-43815000D03*
D14*
G36*
X13154703Y-44785722D02*
G01*
X13169264Y-44787882D01*
X13183543Y-44791459D01*
X13197403Y-44796418D01*
X13210710Y-44802712D01*
X13223336Y-44810280D01*
X13235159Y-44819048D01*
X13246066Y-44828934D01*
X13255952Y-44839841D01*
X13264720Y-44851664D01*
X13272288Y-44864290D01*
X13278582Y-44877597D01*
X13283541Y-44891457D01*
X13287118Y-44905736D01*
X13289278Y-44920297D01*
X13290000Y-44935000D01*
X13290000Y-45235000D01*
X13289278Y-45249703D01*
X13287118Y-45264264D01*
X13283541Y-45278543D01*
X13278582Y-45292403D01*
X13272288Y-45305710D01*
X13264720Y-45318336D01*
X13255952Y-45330159D01*
X13246066Y-45341066D01*
X13235159Y-45350952D01*
X13223336Y-45359720D01*
X13210710Y-45367288D01*
X13197403Y-45373582D01*
X13183543Y-45378541D01*
X13169264Y-45382118D01*
X13154703Y-45384278D01*
X13140000Y-45385000D01*
X11840000Y-45385000D01*
X11825297Y-45384278D01*
X11810736Y-45382118D01*
X11796457Y-45378541D01*
X11782597Y-45373582D01*
X11769290Y-45367288D01*
X11756664Y-45359720D01*
X11744841Y-45350952D01*
X11733934Y-45341066D01*
X11724048Y-45330159D01*
X11715280Y-45318336D01*
X11707712Y-45305710D01*
X11701418Y-45292403D01*
X11696459Y-45278543D01*
X11692882Y-45264264D01*
X11690722Y-45249703D01*
X11690000Y-45235000D01*
X11690000Y-44935000D01*
X11690722Y-44920297D01*
X11692882Y-44905736D01*
X11696459Y-44891457D01*
X11701418Y-44877597D01*
X11707712Y-44864290D01*
X11715280Y-44851664D01*
X11724048Y-44839841D01*
X11733934Y-44828934D01*
X11744841Y-44819048D01*
X11756664Y-44810280D01*
X11769290Y-44802712D01*
X11782597Y-44796418D01*
X11796457Y-44791459D01*
X11810736Y-44787882D01*
X11825297Y-44785722D01*
X11840000Y-44785000D01*
X13140000Y-44785000D01*
X13154703Y-44785722D01*
X13154703Y-44785722D01*
G37*
D19*
X12490000Y-45085000D03*
D14*
G36*
X59649505Y-15811204D02*
G01*
X59673773Y-15814804D01*
X59697572Y-15820765D01*
X59720671Y-15829030D01*
X59742850Y-15839520D01*
X59763893Y-15852132D01*
X59783599Y-15866747D01*
X59801777Y-15883223D01*
X59818253Y-15901401D01*
X59832868Y-15921107D01*
X59845480Y-15942150D01*
X59855970Y-15964329D01*
X59864235Y-15987428D01*
X59870196Y-16011227D01*
X59873796Y-16035495D01*
X59875000Y-16059999D01*
X59875000Y-16960001D01*
X59873796Y-16984505D01*
X59870196Y-17008773D01*
X59864235Y-17032572D01*
X59855970Y-17055671D01*
X59845480Y-17077850D01*
X59832868Y-17098893D01*
X59818253Y-17118599D01*
X59801777Y-17136777D01*
X59783599Y-17153253D01*
X59763893Y-17167868D01*
X59742850Y-17180480D01*
X59720671Y-17190970D01*
X59697572Y-17199235D01*
X59673773Y-17205196D01*
X59649505Y-17208796D01*
X59625001Y-17210000D01*
X58974999Y-17210000D01*
X58950495Y-17208796D01*
X58926227Y-17205196D01*
X58902428Y-17199235D01*
X58879329Y-17190970D01*
X58857150Y-17180480D01*
X58836107Y-17167868D01*
X58816401Y-17153253D01*
X58798223Y-17136777D01*
X58781747Y-17118599D01*
X58767132Y-17098893D01*
X58754520Y-17077850D01*
X58744030Y-17055671D01*
X58735765Y-17032572D01*
X58729804Y-17008773D01*
X58726204Y-16984505D01*
X58725000Y-16960001D01*
X58725000Y-16059999D01*
X58726204Y-16035495D01*
X58729804Y-16011227D01*
X58735765Y-15987428D01*
X58744030Y-15964329D01*
X58754520Y-15942150D01*
X58767132Y-15921107D01*
X58781747Y-15901401D01*
X58798223Y-15883223D01*
X58816401Y-15866747D01*
X58836107Y-15852132D01*
X58857150Y-15839520D01*
X58879329Y-15829030D01*
X58902428Y-15820765D01*
X58926227Y-15814804D01*
X58950495Y-15811204D01*
X58974999Y-15810000D01*
X59625001Y-15810000D01*
X59649505Y-15811204D01*
X59649505Y-15811204D01*
G37*
D15*
X59300000Y-16510000D03*
D14*
G36*
X61699505Y-15811204D02*
G01*
X61723773Y-15814804D01*
X61747572Y-15820765D01*
X61770671Y-15829030D01*
X61792850Y-15839520D01*
X61813893Y-15852132D01*
X61833599Y-15866747D01*
X61851777Y-15883223D01*
X61868253Y-15901401D01*
X61882868Y-15921107D01*
X61895480Y-15942150D01*
X61905970Y-15964329D01*
X61914235Y-15987428D01*
X61920196Y-16011227D01*
X61923796Y-16035495D01*
X61925000Y-16059999D01*
X61925000Y-16960001D01*
X61923796Y-16984505D01*
X61920196Y-17008773D01*
X61914235Y-17032572D01*
X61905970Y-17055671D01*
X61895480Y-17077850D01*
X61882868Y-17098893D01*
X61868253Y-17118599D01*
X61851777Y-17136777D01*
X61833599Y-17153253D01*
X61813893Y-17167868D01*
X61792850Y-17180480D01*
X61770671Y-17190970D01*
X61747572Y-17199235D01*
X61723773Y-17205196D01*
X61699505Y-17208796D01*
X61675001Y-17210000D01*
X61024999Y-17210000D01*
X61000495Y-17208796D01*
X60976227Y-17205196D01*
X60952428Y-17199235D01*
X60929329Y-17190970D01*
X60907150Y-17180480D01*
X60886107Y-17167868D01*
X60866401Y-17153253D01*
X60848223Y-17136777D01*
X60831747Y-17118599D01*
X60817132Y-17098893D01*
X60804520Y-17077850D01*
X60794030Y-17055671D01*
X60785765Y-17032572D01*
X60779804Y-17008773D01*
X60776204Y-16984505D01*
X60775000Y-16960001D01*
X60775000Y-16059999D01*
X60776204Y-16035495D01*
X60779804Y-16011227D01*
X60785765Y-15987428D01*
X60794030Y-15964329D01*
X60804520Y-15942150D01*
X60817132Y-15921107D01*
X60831747Y-15901401D01*
X60848223Y-15883223D01*
X60866401Y-15866747D01*
X60886107Y-15852132D01*
X60907150Y-15839520D01*
X60929329Y-15829030D01*
X60952428Y-15820765D01*
X60976227Y-15814804D01*
X61000495Y-15811204D01*
X61024999Y-15810000D01*
X61675001Y-15810000D01*
X61699505Y-15811204D01*
X61699505Y-15811204D01*
G37*
D15*
X61350000Y-16510000D03*
D14*
G36*
X36789505Y-15811204D02*
G01*
X36813773Y-15814804D01*
X36837572Y-15820765D01*
X36860671Y-15829030D01*
X36882850Y-15839520D01*
X36903893Y-15852132D01*
X36923599Y-15866747D01*
X36941777Y-15883223D01*
X36958253Y-15901401D01*
X36972868Y-15921107D01*
X36985480Y-15942150D01*
X36995970Y-15964329D01*
X37004235Y-15987428D01*
X37010196Y-16011227D01*
X37013796Y-16035495D01*
X37015000Y-16059999D01*
X37015000Y-16960001D01*
X37013796Y-16984505D01*
X37010196Y-17008773D01*
X37004235Y-17032572D01*
X36995970Y-17055671D01*
X36985480Y-17077850D01*
X36972868Y-17098893D01*
X36958253Y-17118599D01*
X36941777Y-17136777D01*
X36923599Y-17153253D01*
X36903893Y-17167868D01*
X36882850Y-17180480D01*
X36860671Y-17190970D01*
X36837572Y-17199235D01*
X36813773Y-17205196D01*
X36789505Y-17208796D01*
X36765001Y-17210000D01*
X36114999Y-17210000D01*
X36090495Y-17208796D01*
X36066227Y-17205196D01*
X36042428Y-17199235D01*
X36019329Y-17190970D01*
X35997150Y-17180480D01*
X35976107Y-17167868D01*
X35956401Y-17153253D01*
X35938223Y-17136777D01*
X35921747Y-17118599D01*
X35907132Y-17098893D01*
X35894520Y-17077850D01*
X35884030Y-17055671D01*
X35875765Y-17032572D01*
X35869804Y-17008773D01*
X35866204Y-16984505D01*
X35865000Y-16960001D01*
X35865000Y-16059999D01*
X35866204Y-16035495D01*
X35869804Y-16011227D01*
X35875765Y-15987428D01*
X35884030Y-15964329D01*
X35894520Y-15942150D01*
X35907132Y-15921107D01*
X35921747Y-15901401D01*
X35938223Y-15883223D01*
X35956401Y-15866747D01*
X35976107Y-15852132D01*
X35997150Y-15839520D01*
X36019329Y-15829030D01*
X36042428Y-15820765D01*
X36066227Y-15814804D01*
X36090495Y-15811204D01*
X36114999Y-15810000D01*
X36765001Y-15810000D01*
X36789505Y-15811204D01*
X36789505Y-15811204D01*
G37*
D15*
X36440000Y-16510000D03*
D14*
G36*
X38839505Y-15811204D02*
G01*
X38863773Y-15814804D01*
X38887572Y-15820765D01*
X38910671Y-15829030D01*
X38932850Y-15839520D01*
X38953893Y-15852132D01*
X38973599Y-15866747D01*
X38991777Y-15883223D01*
X39008253Y-15901401D01*
X39022868Y-15921107D01*
X39035480Y-15942150D01*
X39045970Y-15964329D01*
X39054235Y-15987428D01*
X39060196Y-16011227D01*
X39063796Y-16035495D01*
X39065000Y-16059999D01*
X39065000Y-16960001D01*
X39063796Y-16984505D01*
X39060196Y-17008773D01*
X39054235Y-17032572D01*
X39045970Y-17055671D01*
X39035480Y-17077850D01*
X39022868Y-17098893D01*
X39008253Y-17118599D01*
X38991777Y-17136777D01*
X38973599Y-17153253D01*
X38953893Y-17167868D01*
X38932850Y-17180480D01*
X38910671Y-17190970D01*
X38887572Y-17199235D01*
X38863773Y-17205196D01*
X38839505Y-17208796D01*
X38815001Y-17210000D01*
X38164999Y-17210000D01*
X38140495Y-17208796D01*
X38116227Y-17205196D01*
X38092428Y-17199235D01*
X38069329Y-17190970D01*
X38047150Y-17180480D01*
X38026107Y-17167868D01*
X38006401Y-17153253D01*
X37988223Y-17136777D01*
X37971747Y-17118599D01*
X37957132Y-17098893D01*
X37944520Y-17077850D01*
X37934030Y-17055671D01*
X37925765Y-17032572D01*
X37919804Y-17008773D01*
X37916204Y-16984505D01*
X37915000Y-16960001D01*
X37915000Y-16059999D01*
X37916204Y-16035495D01*
X37919804Y-16011227D01*
X37925765Y-15987428D01*
X37934030Y-15964329D01*
X37944520Y-15942150D01*
X37957132Y-15921107D01*
X37971747Y-15901401D01*
X37988223Y-15883223D01*
X38006401Y-15866747D01*
X38026107Y-15852132D01*
X38047150Y-15839520D01*
X38069329Y-15829030D01*
X38092428Y-15820765D01*
X38116227Y-15814804D01*
X38140495Y-15811204D01*
X38164999Y-15810000D01*
X38815001Y-15810000D01*
X38839505Y-15811204D01*
X38839505Y-15811204D01*
G37*
D15*
X38490000Y-16510000D03*
D14*
G36*
X13929505Y-15811204D02*
G01*
X13953773Y-15814804D01*
X13977572Y-15820765D01*
X14000671Y-15829030D01*
X14022850Y-15839520D01*
X14043893Y-15852132D01*
X14063599Y-15866747D01*
X14081777Y-15883223D01*
X14098253Y-15901401D01*
X14112868Y-15921107D01*
X14125480Y-15942150D01*
X14135970Y-15964329D01*
X14144235Y-15987428D01*
X14150196Y-16011227D01*
X14153796Y-16035495D01*
X14155000Y-16059999D01*
X14155000Y-16960001D01*
X14153796Y-16984505D01*
X14150196Y-17008773D01*
X14144235Y-17032572D01*
X14135970Y-17055671D01*
X14125480Y-17077850D01*
X14112868Y-17098893D01*
X14098253Y-17118599D01*
X14081777Y-17136777D01*
X14063599Y-17153253D01*
X14043893Y-17167868D01*
X14022850Y-17180480D01*
X14000671Y-17190970D01*
X13977572Y-17199235D01*
X13953773Y-17205196D01*
X13929505Y-17208796D01*
X13905001Y-17210000D01*
X13254999Y-17210000D01*
X13230495Y-17208796D01*
X13206227Y-17205196D01*
X13182428Y-17199235D01*
X13159329Y-17190970D01*
X13137150Y-17180480D01*
X13116107Y-17167868D01*
X13096401Y-17153253D01*
X13078223Y-17136777D01*
X13061747Y-17118599D01*
X13047132Y-17098893D01*
X13034520Y-17077850D01*
X13024030Y-17055671D01*
X13015765Y-17032572D01*
X13009804Y-17008773D01*
X13006204Y-16984505D01*
X13005000Y-16960001D01*
X13005000Y-16059999D01*
X13006204Y-16035495D01*
X13009804Y-16011227D01*
X13015765Y-15987428D01*
X13024030Y-15964329D01*
X13034520Y-15942150D01*
X13047132Y-15921107D01*
X13061747Y-15901401D01*
X13078223Y-15883223D01*
X13096401Y-15866747D01*
X13116107Y-15852132D01*
X13137150Y-15839520D01*
X13159329Y-15829030D01*
X13182428Y-15820765D01*
X13206227Y-15814804D01*
X13230495Y-15811204D01*
X13254999Y-15810000D01*
X13905001Y-15810000D01*
X13929505Y-15811204D01*
X13929505Y-15811204D01*
G37*
D15*
X13580000Y-16510000D03*
D14*
G36*
X15979505Y-15811204D02*
G01*
X16003773Y-15814804D01*
X16027572Y-15820765D01*
X16050671Y-15829030D01*
X16072850Y-15839520D01*
X16093893Y-15852132D01*
X16113599Y-15866747D01*
X16131777Y-15883223D01*
X16148253Y-15901401D01*
X16162868Y-15921107D01*
X16175480Y-15942150D01*
X16185970Y-15964329D01*
X16194235Y-15987428D01*
X16200196Y-16011227D01*
X16203796Y-16035495D01*
X16205000Y-16059999D01*
X16205000Y-16960001D01*
X16203796Y-16984505D01*
X16200196Y-17008773D01*
X16194235Y-17032572D01*
X16185970Y-17055671D01*
X16175480Y-17077850D01*
X16162868Y-17098893D01*
X16148253Y-17118599D01*
X16131777Y-17136777D01*
X16113599Y-17153253D01*
X16093893Y-17167868D01*
X16072850Y-17180480D01*
X16050671Y-17190970D01*
X16027572Y-17199235D01*
X16003773Y-17205196D01*
X15979505Y-17208796D01*
X15955001Y-17210000D01*
X15304999Y-17210000D01*
X15280495Y-17208796D01*
X15256227Y-17205196D01*
X15232428Y-17199235D01*
X15209329Y-17190970D01*
X15187150Y-17180480D01*
X15166107Y-17167868D01*
X15146401Y-17153253D01*
X15128223Y-17136777D01*
X15111747Y-17118599D01*
X15097132Y-17098893D01*
X15084520Y-17077850D01*
X15074030Y-17055671D01*
X15065765Y-17032572D01*
X15059804Y-17008773D01*
X15056204Y-16984505D01*
X15055000Y-16960001D01*
X15055000Y-16059999D01*
X15056204Y-16035495D01*
X15059804Y-16011227D01*
X15065765Y-15987428D01*
X15074030Y-15964329D01*
X15084520Y-15942150D01*
X15097132Y-15921107D01*
X15111747Y-15901401D01*
X15128223Y-15883223D01*
X15146401Y-15866747D01*
X15166107Y-15852132D01*
X15187150Y-15839520D01*
X15209329Y-15829030D01*
X15232428Y-15820765D01*
X15256227Y-15814804D01*
X15280495Y-15811204D01*
X15304999Y-15810000D01*
X15955001Y-15810000D01*
X15979505Y-15811204D01*
X15979505Y-15811204D01*
G37*
D15*
X15630000Y-16510000D03*
D14*
G36*
X48734505Y-34741204D02*
G01*
X48758773Y-34744804D01*
X48782572Y-34750765D01*
X48805671Y-34759030D01*
X48827850Y-34769520D01*
X48848893Y-34782132D01*
X48868599Y-34796747D01*
X48886777Y-34813223D01*
X48903253Y-34831401D01*
X48917868Y-34851107D01*
X48930480Y-34872150D01*
X48940970Y-34894329D01*
X48949235Y-34917428D01*
X48955196Y-34941227D01*
X48958796Y-34965495D01*
X48960000Y-34989999D01*
X48960000Y-35640001D01*
X48958796Y-35664505D01*
X48955196Y-35688773D01*
X48949235Y-35712572D01*
X48940970Y-35735671D01*
X48930480Y-35757850D01*
X48917868Y-35778893D01*
X48903253Y-35798599D01*
X48886777Y-35816777D01*
X48868599Y-35833253D01*
X48848893Y-35847868D01*
X48827850Y-35860480D01*
X48805671Y-35870970D01*
X48782572Y-35879235D01*
X48758773Y-35885196D01*
X48734505Y-35888796D01*
X48710001Y-35890000D01*
X47809999Y-35890000D01*
X47785495Y-35888796D01*
X47761227Y-35885196D01*
X47737428Y-35879235D01*
X47714329Y-35870970D01*
X47692150Y-35860480D01*
X47671107Y-35847868D01*
X47651401Y-35833253D01*
X47633223Y-35816777D01*
X47616747Y-35798599D01*
X47602132Y-35778893D01*
X47589520Y-35757850D01*
X47579030Y-35735671D01*
X47570765Y-35712572D01*
X47564804Y-35688773D01*
X47561204Y-35664505D01*
X47560000Y-35640001D01*
X47560000Y-34989999D01*
X47561204Y-34965495D01*
X47564804Y-34941227D01*
X47570765Y-34917428D01*
X47579030Y-34894329D01*
X47589520Y-34872150D01*
X47602132Y-34851107D01*
X47616747Y-34831401D01*
X47633223Y-34813223D01*
X47651401Y-34796747D01*
X47671107Y-34782132D01*
X47692150Y-34769520D01*
X47714329Y-34759030D01*
X47737428Y-34750765D01*
X47761227Y-34744804D01*
X47785495Y-34741204D01*
X47809999Y-34740000D01*
X48710001Y-34740000D01*
X48734505Y-34741204D01*
X48734505Y-34741204D01*
G37*
D15*
X48260000Y-35315000D03*
D14*
G36*
X48734505Y-32691204D02*
G01*
X48758773Y-32694804D01*
X48782572Y-32700765D01*
X48805671Y-32709030D01*
X48827850Y-32719520D01*
X48848893Y-32732132D01*
X48868599Y-32746747D01*
X48886777Y-32763223D01*
X48903253Y-32781401D01*
X48917868Y-32801107D01*
X48930480Y-32822150D01*
X48940970Y-32844329D01*
X48949235Y-32867428D01*
X48955196Y-32891227D01*
X48958796Y-32915495D01*
X48960000Y-32939999D01*
X48960000Y-33590001D01*
X48958796Y-33614505D01*
X48955196Y-33638773D01*
X48949235Y-33662572D01*
X48940970Y-33685671D01*
X48930480Y-33707850D01*
X48917868Y-33728893D01*
X48903253Y-33748599D01*
X48886777Y-33766777D01*
X48868599Y-33783253D01*
X48848893Y-33797868D01*
X48827850Y-33810480D01*
X48805671Y-33820970D01*
X48782572Y-33829235D01*
X48758773Y-33835196D01*
X48734505Y-33838796D01*
X48710001Y-33840000D01*
X47809999Y-33840000D01*
X47785495Y-33838796D01*
X47761227Y-33835196D01*
X47737428Y-33829235D01*
X47714329Y-33820970D01*
X47692150Y-33810480D01*
X47671107Y-33797868D01*
X47651401Y-33783253D01*
X47633223Y-33766777D01*
X47616747Y-33748599D01*
X47602132Y-33728893D01*
X47589520Y-33707850D01*
X47579030Y-33685671D01*
X47570765Y-33662572D01*
X47564804Y-33638773D01*
X47561204Y-33614505D01*
X47560000Y-33590001D01*
X47560000Y-32939999D01*
X47561204Y-32915495D01*
X47564804Y-32891227D01*
X47570765Y-32867428D01*
X47579030Y-32844329D01*
X47589520Y-32822150D01*
X47602132Y-32801107D01*
X47616747Y-32781401D01*
X47633223Y-32763223D01*
X47651401Y-32746747D01*
X47671107Y-32732132D01*
X47692150Y-32719520D01*
X47714329Y-32709030D01*
X47737428Y-32700765D01*
X47761227Y-32694804D01*
X47785495Y-32691204D01*
X47809999Y-32690000D01*
X48710001Y-32690000D01*
X48734505Y-32691204D01*
X48734505Y-32691204D01*
G37*
D15*
X48260000Y-33265000D03*
D14*
G36*
X7069505Y-48711204D02*
G01*
X7093773Y-48714804D01*
X7117572Y-48720765D01*
X7140671Y-48729030D01*
X7162850Y-48739520D01*
X7183893Y-48752132D01*
X7203599Y-48766747D01*
X7221777Y-48783223D01*
X7238253Y-48801401D01*
X7252868Y-48821107D01*
X7265480Y-48842150D01*
X7275970Y-48864329D01*
X7284235Y-48887428D01*
X7290196Y-48911227D01*
X7293796Y-48935495D01*
X7295000Y-48959999D01*
X7295000Y-49610001D01*
X7293796Y-49634505D01*
X7290196Y-49658773D01*
X7284235Y-49682572D01*
X7275970Y-49705671D01*
X7265480Y-49727850D01*
X7252868Y-49748893D01*
X7238253Y-49768599D01*
X7221777Y-49786777D01*
X7203599Y-49803253D01*
X7183893Y-49817868D01*
X7162850Y-49830480D01*
X7140671Y-49840970D01*
X7117572Y-49849235D01*
X7093773Y-49855196D01*
X7069505Y-49858796D01*
X7045001Y-49860000D01*
X6144999Y-49860000D01*
X6120495Y-49858796D01*
X6096227Y-49855196D01*
X6072428Y-49849235D01*
X6049329Y-49840970D01*
X6027150Y-49830480D01*
X6006107Y-49817868D01*
X5986401Y-49803253D01*
X5968223Y-49786777D01*
X5951747Y-49768599D01*
X5937132Y-49748893D01*
X5924520Y-49727850D01*
X5914030Y-49705671D01*
X5905765Y-49682572D01*
X5899804Y-49658773D01*
X5896204Y-49634505D01*
X5895000Y-49610001D01*
X5895000Y-48959999D01*
X5896204Y-48935495D01*
X5899804Y-48911227D01*
X5905765Y-48887428D01*
X5914030Y-48864329D01*
X5924520Y-48842150D01*
X5937132Y-48821107D01*
X5951747Y-48801401D01*
X5968223Y-48783223D01*
X5986401Y-48766747D01*
X6006107Y-48752132D01*
X6027150Y-48739520D01*
X6049329Y-48729030D01*
X6072428Y-48720765D01*
X6096227Y-48714804D01*
X6120495Y-48711204D01*
X6144999Y-48710000D01*
X7045001Y-48710000D01*
X7069505Y-48711204D01*
X7069505Y-48711204D01*
G37*
D15*
X6595000Y-49285000D03*
D14*
G36*
X7069505Y-46661204D02*
G01*
X7093773Y-46664804D01*
X7117572Y-46670765D01*
X7140671Y-46679030D01*
X7162850Y-46689520D01*
X7183893Y-46702132D01*
X7203599Y-46716747D01*
X7221777Y-46733223D01*
X7238253Y-46751401D01*
X7252868Y-46771107D01*
X7265480Y-46792150D01*
X7275970Y-46814329D01*
X7284235Y-46837428D01*
X7290196Y-46861227D01*
X7293796Y-46885495D01*
X7295000Y-46909999D01*
X7295000Y-47560001D01*
X7293796Y-47584505D01*
X7290196Y-47608773D01*
X7284235Y-47632572D01*
X7275970Y-47655671D01*
X7265480Y-47677850D01*
X7252868Y-47698893D01*
X7238253Y-47718599D01*
X7221777Y-47736777D01*
X7203599Y-47753253D01*
X7183893Y-47767868D01*
X7162850Y-47780480D01*
X7140671Y-47790970D01*
X7117572Y-47799235D01*
X7093773Y-47805196D01*
X7069505Y-47808796D01*
X7045001Y-47810000D01*
X6144999Y-47810000D01*
X6120495Y-47808796D01*
X6096227Y-47805196D01*
X6072428Y-47799235D01*
X6049329Y-47790970D01*
X6027150Y-47780480D01*
X6006107Y-47767868D01*
X5986401Y-47753253D01*
X5968223Y-47736777D01*
X5951747Y-47718599D01*
X5937132Y-47698893D01*
X5924520Y-47677850D01*
X5914030Y-47655671D01*
X5905765Y-47632572D01*
X5899804Y-47608773D01*
X5896204Y-47584505D01*
X5895000Y-47560001D01*
X5895000Y-46909999D01*
X5896204Y-46885495D01*
X5899804Y-46861227D01*
X5905765Y-46837428D01*
X5914030Y-46814329D01*
X5924520Y-46792150D01*
X5937132Y-46771107D01*
X5951747Y-46751401D01*
X5968223Y-46733223D01*
X5986401Y-46716747D01*
X6006107Y-46702132D01*
X6027150Y-46689520D01*
X6049329Y-46679030D01*
X6072428Y-46670765D01*
X6096227Y-46664804D01*
X6120495Y-46661204D01*
X6144999Y-46660000D01*
X7045001Y-46660000D01*
X7069505Y-46661204D01*
X7069505Y-46661204D01*
G37*
D15*
X6595000Y-47235000D03*
D14*
G36*
X6824505Y-52766204D02*
G01*
X6848773Y-52769804D01*
X6872572Y-52775765D01*
X6895671Y-52784030D01*
X6917850Y-52794520D01*
X6938893Y-52807132D01*
X6958599Y-52821747D01*
X6976777Y-52838223D01*
X6993253Y-52856401D01*
X7007868Y-52876107D01*
X7020480Y-52897150D01*
X7030970Y-52919329D01*
X7039235Y-52942428D01*
X7045196Y-52966227D01*
X7048796Y-52990495D01*
X7050000Y-53014999D01*
X7050000Y-53665001D01*
X7048796Y-53689505D01*
X7045196Y-53713773D01*
X7039235Y-53737572D01*
X7030970Y-53760671D01*
X7020480Y-53782850D01*
X7007868Y-53803893D01*
X6993253Y-53823599D01*
X6976777Y-53841777D01*
X6958599Y-53858253D01*
X6938893Y-53872868D01*
X6917850Y-53885480D01*
X6895671Y-53895970D01*
X6872572Y-53904235D01*
X6848773Y-53910196D01*
X6824505Y-53913796D01*
X6800001Y-53915000D01*
X5899999Y-53915000D01*
X5875495Y-53913796D01*
X5851227Y-53910196D01*
X5827428Y-53904235D01*
X5804329Y-53895970D01*
X5782150Y-53885480D01*
X5761107Y-53872868D01*
X5741401Y-53858253D01*
X5723223Y-53841777D01*
X5706747Y-53823599D01*
X5692132Y-53803893D01*
X5679520Y-53782850D01*
X5669030Y-53760671D01*
X5660765Y-53737572D01*
X5654804Y-53713773D01*
X5651204Y-53689505D01*
X5650000Y-53665001D01*
X5650000Y-53014999D01*
X5651204Y-52990495D01*
X5654804Y-52966227D01*
X5660765Y-52942428D01*
X5669030Y-52919329D01*
X5679520Y-52897150D01*
X5692132Y-52876107D01*
X5706747Y-52856401D01*
X5723223Y-52838223D01*
X5741401Y-52821747D01*
X5761107Y-52807132D01*
X5782150Y-52794520D01*
X5804329Y-52784030D01*
X5827428Y-52775765D01*
X5851227Y-52769804D01*
X5875495Y-52766204D01*
X5899999Y-52765000D01*
X6800001Y-52765000D01*
X6824505Y-52766204D01*
X6824505Y-52766204D01*
G37*
D15*
X6350000Y-53340000D03*
D14*
G36*
X6824505Y-50716204D02*
G01*
X6848773Y-50719804D01*
X6872572Y-50725765D01*
X6895671Y-50734030D01*
X6917850Y-50744520D01*
X6938893Y-50757132D01*
X6958599Y-50771747D01*
X6976777Y-50788223D01*
X6993253Y-50806401D01*
X7007868Y-50826107D01*
X7020480Y-50847150D01*
X7030970Y-50869329D01*
X7039235Y-50892428D01*
X7045196Y-50916227D01*
X7048796Y-50940495D01*
X7050000Y-50964999D01*
X7050000Y-51615001D01*
X7048796Y-51639505D01*
X7045196Y-51663773D01*
X7039235Y-51687572D01*
X7030970Y-51710671D01*
X7020480Y-51732850D01*
X7007868Y-51753893D01*
X6993253Y-51773599D01*
X6976777Y-51791777D01*
X6958599Y-51808253D01*
X6938893Y-51822868D01*
X6917850Y-51835480D01*
X6895671Y-51845970D01*
X6872572Y-51854235D01*
X6848773Y-51860196D01*
X6824505Y-51863796D01*
X6800001Y-51865000D01*
X5899999Y-51865000D01*
X5875495Y-51863796D01*
X5851227Y-51860196D01*
X5827428Y-51854235D01*
X5804329Y-51845970D01*
X5782150Y-51835480D01*
X5761107Y-51822868D01*
X5741401Y-51808253D01*
X5723223Y-51791777D01*
X5706747Y-51773599D01*
X5692132Y-51753893D01*
X5679520Y-51732850D01*
X5669030Y-51710671D01*
X5660765Y-51687572D01*
X5654804Y-51663773D01*
X5651204Y-51639505D01*
X5650000Y-51615001D01*
X5650000Y-50964999D01*
X5651204Y-50940495D01*
X5654804Y-50916227D01*
X5660765Y-50892428D01*
X5669030Y-50869329D01*
X5679520Y-50847150D01*
X5692132Y-50826107D01*
X5706747Y-50806401D01*
X5723223Y-50788223D01*
X5741401Y-50771747D01*
X5761107Y-50757132D01*
X5782150Y-50744520D01*
X5804329Y-50734030D01*
X5827428Y-50725765D01*
X5851227Y-50719804D01*
X5875495Y-50716204D01*
X5899999Y-50715000D01*
X6800001Y-50715000D01*
X6824505Y-50716204D01*
X6824505Y-50716204D01*
G37*
D15*
X6350000Y-51290000D03*
D14*
G36*
X53179505Y-44266204D02*
G01*
X53203773Y-44269804D01*
X53227572Y-44275765D01*
X53250671Y-44284030D01*
X53272850Y-44294520D01*
X53293893Y-44307132D01*
X53313599Y-44321747D01*
X53331777Y-44338223D01*
X53348253Y-44356401D01*
X53362868Y-44376107D01*
X53375480Y-44397150D01*
X53385970Y-44419329D01*
X53394235Y-44442428D01*
X53400196Y-44466227D01*
X53403796Y-44490495D01*
X53405000Y-44514999D01*
X53405000Y-45165001D01*
X53403796Y-45189505D01*
X53400196Y-45213773D01*
X53394235Y-45237572D01*
X53385970Y-45260671D01*
X53375480Y-45282850D01*
X53362868Y-45303893D01*
X53348253Y-45323599D01*
X53331777Y-45341777D01*
X53313599Y-45358253D01*
X53293893Y-45372868D01*
X53272850Y-45385480D01*
X53250671Y-45395970D01*
X53227572Y-45404235D01*
X53203773Y-45410196D01*
X53179505Y-45413796D01*
X53155001Y-45415000D01*
X52254999Y-45415000D01*
X52230495Y-45413796D01*
X52206227Y-45410196D01*
X52182428Y-45404235D01*
X52159329Y-45395970D01*
X52137150Y-45385480D01*
X52116107Y-45372868D01*
X52096401Y-45358253D01*
X52078223Y-45341777D01*
X52061747Y-45323599D01*
X52047132Y-45303893D01*
X52034520Y-45282850D01*
X52024030Y-45260671D01*
X52015765Y-45237572D01*
X52009804Y-45213773D01*
X52006204Y-45189505D01*
X52005000Y-45165001D01*
X52005000Y-44514999D01*
X52006204Y-44490495D01*
X52009804Y-44466227D01*
X52015765Y-44442428D01*
X52024030Y-44419329D01*
X52034520Y-44397150D01*
X52047132Y-44376107D01*
X52061747Y-44356401D01*
X52078223Y-44338223D01*
X52096401Y-44321747D01*
X52116107Y-44307132D01*
X52137150Y-44294520D01*
X52159329Y-44284030D01*
X52182428Y-44275765D01*
X52206227Y-44269804D01*
X52230495Y-44266204D01*
X52254999Y-44265000D01*
X53155001Y-44265000D01*
X53179505Y-44266204D01*
X53179505Y-44266204D01*
G37*
D15*
X52705000Y-44840000D03*
D14*
G36*
X53179505Y-42216204D02*
G01*
X53203773Y-42219804D01*
X53227572Y-42225765D01*
X53250671Y-42234030D01*
X53272850Y-42244520D01*
X53293893Y-42257132D01*
X53313599Y-42271747D01*
X53331777Y-42288223D01*
X53348253Y-42306401D01*
X53362868Y-42326107D01*
X53375480Y-42347150D01*
X53385970Y-42369329D01*
X53394235Y-42392428D01*
X53400196Y-42416227D01*
X53403796Y-42440495D01*
X53405000Y-42464999D01*
X53405000Y-43115001D01*
X53403796Y-43139505D01*
X53400196Y-43163773D01*
X53394235Y-43187572D01*
X53385970Y-43210671D01*
X53375480Y-43232850D01*
X53362868Y-43253893D01*
X53348253Y-43273599D01*
X53331777Y-43291777D01*
X53313599Y-43308253D01*
X53293893Y-43322868D01*
X53272850Y-43335480D01*
X53250671Y-43345970D01*
X53227572Y-43354235D01*
X53203773Y-43360196D01*
X53179505Y-43363796D01*
X53155001Y-43365000D01*
X52254999Y-43365000D01*
X52230495Y-43363796D01*
X52206227Y-43360196D01*
X52182428Y-43354235D01*
X52159329Y-43345970D01*
X52137150Y-43335480D01*
X52116107Y-43322868D01*
X52096401Y-43308253D01*
X52078223Y-43291777D01*
X52061747Y-43273599D01*
X52047132Y-43253893D01*
X52034520Y-43232850D01*
X52024030Y-43210671D01*
X52015765Y-43187572D01*
X52009804Y-43163773D01*
X52006204Y-43139505D01*
X52005000Y-43115001D01*
X52005000Y-42464999D01*
X52006204Y-42440495D01*
X52009804Y-42416227D01*
X52015765Y-42392428D01*
X52024030Y-42369329D01*
X52034520Y-42347150D01*
X52047132Y-42326107D01*
X52061747Y-42306401D01*
X52078223Y-42288223D01*
X52096401Y-42271747D01*
X52116107Y-42257132D01*
X52137150Y-42244520D01*
X52159329Y-42234030D01*
X52182428Y-42225765D01*
X52206227Y-42219804D01*
X52230495Y-42216204D01*
X52254999Y-42215000D01*
X53155001Y-42215000D01*
X53179505Y-42216204D01*
X53179505Y-42216204D01*
G37*
D15*
X52705000Y-42790000D03*
D14*
G36*
X59529505Y-36011204D02*
G01*
X59553773Y-36014804D01*
X59577572Y-36020765D01*
X59600671Y-36029030D01*
X59622850Y-36039520D01*
X59643893Y-36052132D01*
X59663599Y-36066747D01*
X59681777Y-36083223D01*
X59698253Y-36101401D01*
X59712868Y-36121107D01*
X59725480Y-36142150D01*
X59735970Y-36164329D01*
X59744235Y-36187428D01*
X59750196Y-36211227D01*
X59753796Y-36235495D01*
X59755000Y-36259999D01*
X59755000Y-36910001D01*
X59753796Y-36934505D01*
X59750196Y-36958773D01*
X59744235Y-36982572D01*
X59735970Y-37005671D01*
X59725480Y-37027850D01*
X59712868Y-37048893D01*
X59698253Y-37068599D01*
X59681777Y-37086777D01*
X59663599Y-37103253D01*
X59643893Y-37117868D01*
X59622850Y-37130480D01*
X59600671Y-37140970D01*
X59577572Y-37149235D01*
X59553773Y-37155196D01*
X59529505Y-37158796D01*
X59505001Y-37160000D01*
X58604999Y-37160000D01*
X58580495Y-37158796D01*
X58556227Y-37155196D01*
X58532428Y-37149235D01*
X58509329Y-37140970D01*
X58487150Y-37130480D01*
X58466107Y-37117868D01*
X58446401Y-37103253D01*
X58428223Y-37086777D01*
X58411747Y-37068599D01*
X58397132Y-37048893D01*
X58384520Y-37027850D01*
X58374030Y-37005671D01*
X58365765Y-36982572D01*
X58359804Y-36958773D01*
X58356204Y-36934505D01*
X58355000Y-36910001D01*
X58355000Y-36259999D01*
X58356204Y-36235495D01*
X58359804Y-36211227D01*
X58365765Y-36187428D01*
X58374030Y-36164329D01*
X58384520Y-36142150D01*
X58397132Y-36121107D01*
X58411747Y-36101401D01*
X58428223Y-36083223D01*
X58446401Y-36066747D01*
X58466107Y-36052132D01*
X58487150Y-36039520D01*
X58509329Y-36029030D01*
X58532428Y-36020765D01*
X58556227Y-36014804D01*
X58580495Y-36011204D01*
X58604999Y-36010000D01*
X59505001Y-36010000D01*
X59529505Y-36011204D01*
X59529505Y-36011204D01*
G37*
D15*
X59055000Y-36585000D03*
D14*
G36*
X59529505Y-33961204D02*
G01*
X59553773Y-33964804D01*
X59577572Y-33970765D01*
X59600671Y-33979030D01*
X59622850Y-33989520D01*
X59643893Y-34002132D01*
X59663599Y-34016747D01*
X59681777Y-34033223D01*
X59698253Y-34051401D01*
X59712868Y-34071107D01*
X59725480Y-34092150D01*
X59735970Y-34114329D01*
X59744235Y-34137428D01*
X59750196Y-34161227D01*
X59753796Y-34185495D01*
X59755000Y-34209999D01*
X59755000Y-34860001D01*
X59753796Y-34884505D01*
X59750196Y-34908773D01*
X59744235Y-34932572D01*
X59735970Y-34955671D01*
X59725480Y-34977850D01*
X59712868Y-34998893D01*
X59698253Y-35018599D01*
X59681777Y-35036777D01*
X59663599Y-35053253D01*
X59643893Y-35067868D01*
X59622850Y-35080480D01*
X59600671Y-35090970D01*
X59577572Y-35099235D01*
X59553773Y-35105196D01*
X59529505Y-35108796D01*
X59505001Y-35110000D01*
X58604999Y-35110000D01*
X58580495Y-35108796D01*
X58556227Y-35105196D01*
X58532428Y-35099235D01*
X58509329Y-35090970D01*
X58487150Y-35080480D01*
X58466107Y-35067868D01*
X58446401Y-35053253D01*
X58428223Y-35036777D01*
X58411747Y-35018599D01*
X58397132Y-34998893D01*
X58384520Y-34977850D01*
X58374030Y-34955671D01*
X58365765Y-34932572D01*
X58359804Y-34908773D01*
X58356204Y-34884505D01*
X58355000Y-34860001D01*
X58355000Y-34209999D01*
X58356204Y-34185495D01*
X58359804Y-34161227D01*
X58365765Y-34137428D01*
X58374030Y-34114329D01*
X58384520Y-34092150D01*
X58397132Y-34071107D01*
X58411747Y-34051401D01*
X58428223Y-34033223D01*
X58446401Y-34016747D01*
X58466107Y-34002132D01*
X58487150Y-33989520D01*
X58509329Y-33979030D01*
X58532428Y-33970765D01*
X58556227Y-33964804D01*
X58580495Y-33961204D01*
X58604999Y-33960000D01*
X59505001Y-33960000D01*
X59529505Y-33961204D01*
X59529505Y-33961204D01*
G37*
D15*
X59055000Y-34535000D03*
D20*
X53024137Y-40059297D03*
X5080000Y-53340000D03*
X13970000Y-19304000D03*
X34925000Y-16510000D03*
X45466000Y-36830000D03*
X56388000Y-38354000D03*
X45466000Y-41910000D03*
X48006000Y-40640000D03*
X51069683Y-46274189D03*
X56896000Y-19304000D03*
X59436000Y-18542000D03*
X59436000Y-19558000D03*
X56896000Y-18034000D03*
X20828000Y-4572000D03*
X47752000Y-32004000D03*
X46228000Y-32004000D03*
X52324000Y-41656000D03*
X57912000Y-46482000D03*
X21590000Y-34290000D03*
X12065000Y-34290000D03*
X20320000Y-32385000D03*
X9525000Y-31750000D03*
X26670000Y-43180000D03*
X51385284Y-38472117D03*
X52039374Y-46004746D03*
X24130000Y-36830000D03*
X6985000Y-36830000D03*
X24130000Y-35560000D03*
X5715000Y-35560000D03*
X30637810Y-38100000D03*
X8255000Y-38100000D03*
X34290000Y-39370000D03*
X10795000Y-39541400D03*
X38100000Y-46355000D03*
X52090368Y-32753847D03*
X48409494Y-45867447D03*
X35560000Y-44450000D03*
X50374422Y-38439465D03*
X50763468Y-45372345D03*
X36830000Y-27940000D03*
X26035000Y-27940000D03*
X37465000Y-45085000D03*
X49066410Y-37618519D03*
X47574611Y-45409126D03*
X40640000Y-55245000D03*
X54610000Y-55245000D03*
X57150000Y-30480000D03*
X59055000Y-40024010D03*
X37636400Y-31750000D03*
X28575000Y-31750000D03*
X43144590Y-43981792D03*
X47549289Y-43745504D03*
X39370000Y-36195000D03*
X31115000Y-36195000D03*
X50800000Y-48260000D03*
X57785000Y-33020000D03*
X53848000Y-40894000D03*
X57912000Y-28194000D03*
X41910000Y-41910000D03*
X43688000Y-49276000D03*
X6985000Y-40640000D03*
X50374422Y-43689514D03*
X33655000Y-38100000D03*
X46393189Y-38107911D03*
X54070000Y-39665831D03*
X56661997Y-39624000D03*
X55417740Y-42996092D03*
X57687545Y-31942455D03*
X58790764Y-40939033D03*
X56650450Y-31904460D03*
X57111543Y-33693457D03*
X56661989Y-41509990D03*
X8890000Y-46990000D03*
X12446000Y-46482000D03*
X10927792Y-47492210D03*
X43815000Y-26035000D03*
X19050000Y-26035000D03*
X59569390Y-55313825D03*
D21*
X52705000Y-44840000D02*
X52315000Y-44840000D01*
D22*
X53615999Y-37755262D02*
X53244777Y-38126483D01*
X53244777Y-38126483D02*
X53244777Y-39838657D01*
X54070000Y-36560000D02*
X53615999Y-37014001D01*
X53615999Y-37014001D02*
X53615999Y-37755262D01*
X53244777Y-39838657D02*
X53024137Y-40059297D01*
D23*
X59055000Y-16265000D02*
X59300000Y-16510000D01*
X59055000Y-13335000D02*
X59055000Y-16265000D01*
X13335000Y-16265000D02*
X13580000Y-16510000D01*
X13335000Y-13335000D02*
X13335000Y-16265000D01*
X36195000Y-16265000D02*
X36440000Y-16510000D01*
X36195000Y-13335000D02*
X36195000Y-16265000D01*
X8645000Y-49285000D02*
X10160000Y-50800000D01*
X6595000Y-49285000D02*
X8645000Y-49285000D01*
D24*
X62620000Y-42155000D02*
X62865000Y-41910000D01*
X59055000Y-42155000D02*
X62620000Y-42155000D01*
D21*
X52070000Y-33560000D02*
X50578000Y-33560000D01*
X57041999Y-36531999D02*
X57041999Y-37446001D01*
D24*
X45466000Y-38804315D02*
X45466000Y-39370000D01*
X45459788Y-38798103D02*
X45466000Y-38804315D01*
X45466000Y-37395685D02*
X45459788Y-37401897D01*
X45459788Y-37401897D02*
X45459788Y-38798103D01*
X45466000Y-36830000D02*
X45466000Y-37395685D01*
D21*
X48260000Y-35315000D02*
X48260000Y-40386000D01*
X48260000Y-40386000D02*
X48006000Y-40640000D01*
X52705000Y-45515000D02*
X52845776Y-45655776D01*
X52705000Y-44840000D02*
X52705000Y-45515000D01*
X52845776Y-46391820D02*
X52426448Y-46811148D01*
X52845776Y-45655776D02*
X52845776Y-46391820D01*
X51606642Y-46811148D02*
X51069683Y-46274189D01*
X52426448Y-46811148D02*
X51606642Y-46811148D01*
D22*
X58395000Y-34560000D02*
X58665000Y-34290000D01*
X56070000Y-34560000D02*
X58395000Y-34560000D01*
X52014524Y-39598077D02*
X52014524Y-42099524D01*
X52014524Y-42099524D02*
X52705000Y-42790000D01*
X52524001Y-37434077D02*
X52524001Y-39088600D01*
X52524001Y-39088600D02*
X52014524Y-39598077D01*
X53070000Y-36888078D02*
X52524001Y-37434077D01*
X53070000Y-36560000D02*
X53070000Y-36888078D01*
D23*
X8110000Y-51290000D02*
X6350000Y-51290000D01*
X10160000Y-53340000D02*
X8110000Y-51290000D01*
X15875000Y-8255000D02*
X15875000Y-10795000D01*
X61595000Y-10378958D02*
X61595000Y-10795000D01*
X59471042Y-8255000D02*
X61595000Y-10378958D01*
X38735000Y-8255000D02*
X38735000Y-10795000D01*
X15875000Y-8255000D02*
X38735000Y-8255000D01*
X38735000Y-10795000D02*
X38735000Y-13335000D01*
X38735000Y-16265000D02*
X38490000Y-16510000D01*
X38735000Y-13335000D02*
X38735000Y-16265000D01*
X61595000Y-10795000D02*
X61595000Y-13335000D01*
X61595000Y-16265000D02*
X61350000Y-16510000D01*
X61595000Y-13335000D02*
X61595000Y-16265000D01*
X15875000Y-10795000D02*
X15875000Y-13335000D01*
X15875000Y-16265000D02*
X15630000Y-16510000D01*
X15875000Y-13335000D02*
X15875000Y-16265000D01*
X61350000Y-22615000D02*
X62865000Y-24130000D01*
X61350000Y-16510000D02*
X61350000Y-22615000D01*
D25*
X5290000Y-45930000D02*
X6595000Y-47235000D01*
X5290000Y-45085000D02*
X5290000Y-45930000D01*
D23*
X6595000Y-47235000D02*
X5795000Y-47235000D01*
X5795000Y-47235000D02*
X4200000Y-48830000D01*
X6350000Y-51290000D02*
X4200000Y-49140000D01*
X4200000Y-48830000D02*
X4200000Y-49140000D01*
X2758958Y-8255000D02*
X1664590Y-9349368D01*
X15875000Y-8255000D02*
X2758958Y-8255000D01*
X2540000Y-47480000D02*
X4200000Y-49140000D01*
X1664590Y-9349368D02*
X1664590Y-14780632D01*
X1664590Y-14780632D02*
X2540000Y-15656042D01*
X2540000Y-15656042D02*
X2540000Y-47480000D01*
D24*
X62620000Y-44205000D02*
X62865000Y-44450000D01*
X59055000Y-44205000D02*
X62620000Y-44205000D01*
D23*
X45085000Y-8255000D02*
X59471042Y-8255000D01*
X38735000Y-8255000D02*
X45085000Y-8255000D01*
D22*
X53070000Y-33560000D02*
X53070000Y-32765557D01*
X53070000Y-32765557D02*
X52404289Y-32099846D01*
X52404289Y-32099846D02*
X49425154Y-32099846D01*
D23*
X48260000Y-32512000D02*
X47752000Y-32004000D01*
X45085000Y-8255000D02*
X45085000Y-31096278D01*
X48260000Y-33265000D02*
X48260000Y-32512000D01*
X45992722Y-32004000D02*
X46227980Y-32004000D01*
X45085000Y-31096278D02*
X45992722Y-32004000D01*
X52324000Y-42409000D02*
X52705000Y-42790000D01*
X52324000Y-41656000D02*
X52324000Y-42409000D01*
X59055000Y-45339000D02*
X57912000Y-46482000D01*
X59055000Y-44205000D02*
X59055000Y-45339000D01*
D22*
X49329308Y-32004000D02*
X47752000Y-32004000D01*
X49425154Y-32099846D02*
X49329308Y-32004000D01*
D21*
X59182000Y-34408000D02*
X59055000Y-34535000D01*
D24*
X59055000Y-34535000D02*
X59690000Y-33900000D01*
X60452000Y-25576563D02*
X60452000Y-24130000D01*
X59690000Y-26338563D02*
X60452000Y-25576563D01*
X59690000Y-33900000D02*
X59690000Y-26338563D01*
D23*
X62865000Y-24130000D02*
X60452000Y-24130000D01*
X60452000Y-24130000D02*
X59300000Y-24130000D01*
D21*
X20320000Y-53340000D02*
X21590000Y-52070000D01*
X21590000Y-52070000D02*
X21590000Y-34290000D01*
X12065000Y-34290000D02*
X12065000Y-12065000D01*
X12065000Y-12065000D02*
X10795000Y-10795000D01*
X20320000Y-50800000D02*
X20320000Y-32385000D01*
X9525000Y-31750000D02*
X9525000Y-12065000D01*
X9525000Y-12065000D02*
X8255000Y-10795000D01*
D22*
X26670000Y-53703922D02*
X26670000Y-43180000D01*
X25929921Y-54444001D02*
X26670000Y-53703922D01*
X23964001Y-54444001D02*
X25929921Y-54444001D01*
X22860000Y-53340000D02*
X23964001Y-54444001D01*
X51885999Y-37014001D02*
X51385284Y-37514716D01*
X52885999Y-36014001D02*
X52524001Y-36375999D01*
X53615999Y-36014001D02*
X52885999Y-36014001D01*
X52287921Y-37014001D02*
X51885999Y-37014001D01*
X51385284Y-37514716D02*
X51385284Y-38472117D01*
X52524001Y-36777921D02*
X52287921Y-37014001D01*
X54070000Y-35560000D02*
X53615999Y-36014001D01*
X52524001Y-36375999D02*
X52524001Y-36777921D01*
X51639375Y-45280328D02*
X51639375Y-45604747D01*
X51385284Y-45026237D02*
X51639375Y-45280328D01*
X51385284Y-38472117D02*
X51385284Y-45026237D01*
X51639375Y-45604747D02*
X52039374Y-46004746D01*
D21*
X22860000Y-13970000D02*
X26035000Y-10795000D01*
X22860000Y-50800000D02*
X22860000Y-13970000D01*
X25400000Y-53340000D02*
X24130000Y-52070000D01*
X24130000Y-52070000D02*
X24130000Y-36830000D01*
X6985000Y-36830000D02*
X6985000Y-12065000D01*
X6985000Y-12065000D02*
X5715000Y-10795000D01*
X25228598Y-36658598D02*
X24130000Y-35560000D01*
X25400000Y-49597919D02*
X25228598Y-49426517D01*
X25400000Y-50800000D02*
X25400000Y-49597919D01*
X25228598Y-49426517D02*
X25228598Y-36658598D01*
X6171045Y-35103955D02*
X5715000Y-35560000D01*
X4458590Y-18741456D02*
X6171045Y-20453911D01*
X6171045Y-20453911D02*
X6171045Y-35103955D01*
X3175000Y-10795000D02*
X4458590Y-12078590D01*
X4458590Y-12078590D02*
X4458590Y-18741456D01*
X27940000Y-40716524D02*
X27940000Y-50800000D01*
X27305000Y-12065000D02*
X27305000Y-40081524D01*
X27305000Y-40081524D02*
X27940000Y-40716524D01*
X27305000Y-12065000D02*
X28575000Y-10795000D01*
X29223599Y-52083599D02*
X30480000Y-53340000D01*
X29831410Y-12065000D02*
X29831410Y-49589116D01*
X29223599Y-50196927D02*
X29223599Y-52083599D01*
X29831410Y-49589116D02*
X29223599Y-50196927D01*
X29845000Y-12065000D02*
X31115000Y-10795000D01*
X29831410Y-12065000D02*
X29845000Y-12065000D01*
X30480000Y-50800000D02*
X31329999Y-49950001D01*
X31329999Y-38792189D02*
X30637810Y-38100000D01*
X31329999Y-49950001D02*
X31329999Y-38792189D01*
X8255000Y-38100000D02*
X8255000Y-13335000D01*
X33020000Y-53340000D02*
X34290000Y-52070000D01*
X34290000Y-52070000D02*
X34290000Y-39370000D01*
X10795000Y-39541400D02*
X10795000Y-13335000D01*
X32398590Y-48976509D02*
X32398590Y-12051410D01*
X33020000Y-50800000D02*
X33020000Y-49597919D01*
X32398590Y-12051410D02*
X33655000Y-10795000D01*
X33020000Y-49597919D02*
X32398590Y-48976509D01*
D22*
X35560000Y-53340000D02*
X36664001Y-54444001D01*
X38629921Y-54444001D02*
X39204001Y-53869921D01*
X39204001Y-53869921D02*
X39204001Y-47459001D01*
X36664001Y-54444001D02*
X38629921Y-54444001D01*
X39204001Y-47459001D02*
X38100000Y-46355000D01*
X52615999Y-33279478D02*
X52090368Y-32753847D01*
X53070000Y-34560000D02*
X52615999Y-34105999D01*
X52615999Y-34105999D02*
X52615999Y-33279478D01*
X48409494Y-45860416D02*
X48409494Y-45867447D01*
X48804954Y-45464956D02*
X48409494Y-45860416D01*
X49720412Y-44556529D02*
X48409494Y-45867447D01*
X52524001Y-35105999D02*
X51852079Y-35105999D01*
X53070000Y-34560000D02*
X52524001Y-35105999D01*
X51852079Y-35105999D02*
X49720412Y-37237666D01*
X49720412Y-37237666D02*
X49720412Y-44556529D01*
X35560000Y-50800000D02*
X35560000Y-44450000D01*
X52223456Y-36078466D02*
X51879612Y-36078466D01*
X53070000Y-35560000D02*
X52741922Y-35560000D01*
X52741922Y-35560000D02*
X52223456Y-36078466D01*
X51879612Y-36078466D02*
X50563961Y-37394117D01*
X50563961Y-37394117D02*
X50563961Y-38498961D01*
X50433918Y-38498961D02*
X50374422Y-38439465D01*
X50563961Y-38498961D02*
X50433918Y-38498961D01*
X51028423Y-44541705D02*
X50763468Y-44806660D01*
X50763468Y-44806660D02*
X50763468Y-45372345D01*
X51028423Y-43375593D02*
X51028423Y-44541705D01*
X50563961Y-42911131D02*
X51028423Y-43375593D01*
X50563961Y-38498961D02*
X50563961Y-42911131D01*
D21*
X36830000Y-47548476D02*
X36830000Y-52070000D01*
X36430001Y-28339999D02*
X36430001Y-47148477D01*
X36830000Y-52070000D02*
X38100000Y-53340000D01*
X36430001Y-47148477D02*
X36830000Y-47548476D01*
X36830000Y-27940000D02*
X36430001Y-28339999D01*
X26035000Y-27940000D02*
X26035000Y-13335000D01*
D22*
X37445998Y-45669687D02*
X37465000Y-45650685D01*
X38100000Y-50800000D02*
X38100000Y-49597919D01*
X37465000Y-45650685D02*
X37465000Y-45085000D01*
X38100000Y-49597919D02*
X37445998Y-48943917D01*
X37445998Y-48943917D02*
X37445998Y-45669687D01*
X49066410Y-37280748D02*
X49066410Y-37618519D01*
X52070000Y-34560000D02*
X51787158Y-34560000D01*
X51787158Y-34560000D02*
X49066410Y-37280748D01*
X49066410Y-37618519D02*
X49066410Y-42886682D01*
X48412391Y-44571346D02*
X47574611Y-45409126D01*
X48412391Y-43540701D02*
X48412391Y-44571346D01*
X49066410Y-42886682D02*
X48412391Y-43540701D01*
X40640000Y-53340000D02*
X40640000Y-55245000D01*
X56515000Y-31115000D02*
X54070000Y-33560000D01*
X57150000Y-30480000D02*
X56515000Y-30480000D01*
X56515000Y-30480000D02*
X56515000Y-31115000D01*
X57048379Y-47198933D02*
X56794379Y-46944934D01*
X57048379Y-51265543D02*
X57048379Y-47198933D01*
X56794379Y-46944934D02*
X56794379Y-45511066D01*
X58489315Y-40024010D02*
X59055000Y-40024010D01*
X54610000Y-52644080D02*
X55350079Y-51904001D01*
X57315998Y-41197327D02*
X58489315Y-40024010D01*
X55350079Y-51904001D02*
X56409921Y-51904001D01*
X56794379Y-45511066D02*
X57315998Y-44989447D01*
X57315998Y-44989447D02*
X57315998Y-41197327D01*
X54610000Y-55245000D02*
X54610000Y-52644080D01*
X56409921Y-51904001D02*
X57048379Y-51265543D01*
X55410990Y-29375990D02*
X55410990Y-14439010D01*
X55410990Y-14439010D02*
X56515000Y-13335000D01*
X56515000Y-30480000D02*
X55410990Y-29375990D01*
D21*
X37636400Y-31750000D02*
X37636400Y-44062924D01*
X39712012Y-49872012D02*
X40640000Y-50800000D01*
X37636400Y-44062924D02*
X38608011Y-45034535D01*
X38608011Y-45669535D02*
X39712012Y-46773536D01*
X39712012Y-46773536D02*
X39712012Y-49872012D01*
X38608011Y-45034535D02*
X38608011Y-45669535D01*
X28575000Y-31750000D02*
X28575000Y-13335000D01*
D22*
X47231223Y-36588777D02*
X47231223Y-36436223D01*
X53615999Y-34105999D02*
X53615999Y-33342079D01*
X53615999Y-33342079D02*
X54142038Y-32816040D01*
X54142038Y-32816040D02*
X54142038Y-31917038D01*
X54070000Y-34560000D02*
X53615999Y-34105999D01*
X54729505Y-31329572D02*
X54729505Y-14605000D01*
X54142038Y-31917038D02*
X54729505Y-31329572D01*
X44445901Y-48063547D02*
X43144590Y-46762236D01*
X43180000Y-53340000D02*
X44445901Y-52074099D01*
X43144590Y-46762236D02*
X43144590Y-43981792D01*
X44445901Y-52074099D02*
X44445901Y-48063547D01*
X53466990Y-31241990D02*
X47436364Y-31241990D01*
X46989990Y-32319636D02*
X47231223Y-32560869D01*
X47231223Y-32560869D02*
X47231223Y-36588777D01*
X46989990Y-31688364D02*
X46989990Y-32319636D01*
X54142038Y-31917038D02*
X53466990Y-31241990D01*
X47436364Y-31241990D02*
X46989990Y-31688364D01*
X47231223Y-36588777D02*
X47231223Y-42861753D01*
X47231223Y-42861753D02*
X47549289Y-43179819D01*
X47549289Y-43179819D02*
X47549289Y-43745504D01*
D21*
X39370000Y-45497562D02*
X39370000Y-36195000D01*
X40372423Y-46499985D02*
X39370000Y-45497562D01*
X40372423Y-47426738D02*
X40372423Y-46499985D01*
X40640000Y-47694315D02*
X40372423Y-47426738D01*
X31115000Y-36195000D02*
X31115000Y-13335000D01*
X40640000Y-48260000D02*
X43180000Y-50800000D01*
X40640000Y-47694315D02*
X40640000Y-48260000D01*
D22*
X53070000Y-37560000D02*
X52889166Y-37740834D01*
X52889166Y-37740834D02*
X52889166Y-39226344D01*
X52889166Y-39226344D02*
X52370135Y-39745375D01*
X52370135Y-40373219D02*
X53659010Y-41662094D01*
X52370135Y-39745375D02*
X52370135Y-40373219D01*
X53659010Y-41662094D02*
X53659010Y-41082990D01*
X53659010Y-41082990D02*
X53848000Y-40894000D01*
X53659010Y-41662094D02*
X53659010Y-46297022D01*
X51696032Y-48260000D02*
X50800000Y-48260000D01*
X53659010Y-46297022D02*
X51696032Y-48260000D01*
X57912000Y-28759685D02*
X58420000Y-29267685D01*
X57912000Y-28194000D02*
X57912000Y-28759685D01*
X58420000Y-32385000D02*
X57785000Y-33020000D01*
X58420000Y-29267685D02*
X58420000Y-32385000D01*
D21*
X41357579Y-42462421D02*
X41357579Y-46989999D01*
X41910000Y-41910000D02*
X41357579Y-42462421D01*
X41357579Y-46989999D02*
X41401999Y-46989999D01*
X41401999Y-46989999D02*
X43688000Y-49276000D01*
X4908599Y-30039573D02*
X4908599Y-38563599D01*
X5510634Y-20727462D02*
X5510634Y-29437537D01*
X5510634Y-29437537D02*
X4908599Y-30039573D01*
X4908599Y-38563599D02*
X6985000Y-40640000D01*
X3175000Y-13335000D02*
X3454411Y-13614411D01*
X3454411Y-13614411D02*
X3454411Y-18671239D01*
X3454411Y-18671239D02*
X5510634Y-20727462D01*
X49530000Y-52070000D02*
X49530000Y-45465377D01*
X49530000Y-45465377D02*
X50228423Y-44766954D01*
X50228423Y-44401198D02*
X50374422Y-44255199D01*
X50374422Y-44255199D02*
X50374422Y-43689514D01*
X50228423Y-44766954D02*
X50228423Y-44401198D01*
X48260000Y-53340000D02*
X49530000Y-52070000D01*
X33655000Y-38100000D02*
X33655000Y-13335000D01*
X48260000Y-48236828D02*
X46393189Y-46370017D01*
X46393189Y-46370017D02*
X46393189Y-38107911D01*
X48260000Y-50800000D02*
X48260000Y-48236828D01*
D22*
X54370241Y-43075669D02*
X54857613Y-42588297D01*
X51904001Y-52235999D02*
X51904001Y-49695999D01*
X54857613Y-42588297D02*
X54857613Y-38090695D01*
X54857613Y-38090695D02*
X54571998Y-37805080D01*
X54571998Y-35058002D02*
X55070000Y-34560000D01*
X50800000Y-53340000D02*
X51904001Y-52235999D01*
X54370241Y-47229759D02*
X54370241Y-43075669D01*
X51904001Y-49695999D02*
X54370241Y-47229759D01*
X54571998Y-37805080D02*
X54571998Y-35058002D01*
X53600388Y-38273781D02*
X54070000Y-37804169D01*
X54070000Y-37804169D02*
X54070000Y-37560000D01*
X53600388Y-39196219D02*
X53600388Y-38273781D01*
X54070000Y-39665831D02*
X53600388Y-39196219D01*
X54014630Y-42928371D02*
X54502002Y-42440999D01*
X54502002Y-40097833D02*
X54070000Y-39665831D01*
X54014630Y-46444311D02*
X54014630Y-42928371D01*
X50800000Y-50800000D02*
X50800000Y-49658941D01*
X54502002Y-42440999D02*
X54502002Y-40097833D01*
X50800000Y-49658941D02*
X54014630Y-46444311D01*
X57503780Y-39624000D02*
X56661997Y-39624000D01*
X60009010Y-37118770D02*
X57503780Y-39624000D01*
X60009010Y-36574685D02*
X60009010Y-37118770D01*
X62293695Y-34290000D02*
X60009010Y-36574685D01*
X62865000Y-34290000D02*
X62293695Y-34290000D01*
X62865000Y-36830000D02*
X62280990Y-37414010D01*
X53340000Y-53340000D02*
X54444001Y-52235999D01*
X56071741Y-42287676D02*
X56007987Y-42223922D01*
X56007987Y-42223922D02*
X56007987Y-40258013D01*
X56071741Y-48642339D02*
X56071741Y-42287676D01*
X54444001Y-50270079D02*
X56071741Y-48642339D01*
X54444001Y-52235999D02*
X54444001Y-50270079D01*
X56007987Y-38941909D02*
X56007987Y-40258013D01*
X55733999Y-38667921D02*
X56007987Y-38941909D01*
X55733999Y-38070832D02*
X55733999Y-38667921D01*
X56070000Y-37734831D02*
X55733999Y-38070832D01*
X56070000Y-36560000D02*
X56070000Y-37734831D01*
X62865000Y-36830000D02*
X62293695Y-36830000D01*
X58260679Y-39370009D02*
X57352687Y-40278001D01*
X59753685Y-39370009D02*
X58260679Y-39370009D01*
X62293695Y-36830000D02*
X59753685Y-39370009D01*
X57352687Y-40278001D02*
X56027975Y-40278001D01*
X56027975Y-40278001D02*
X56007987Y-40258013D01*
X55417740Y-44622740D02*
X55417740Y-42996092D01*
X55524001Y-44729001D02*
X55417740Y-44622740D01*
X55070000Y-36560000D02*
X55524001Y-37014001D01*
X55524001Y-38960832D02*
X55524001Y-48615999D01*
X55524001Y-48615999D02*
X53340000Y-50800000D01*
X55378388Y-38815219D02*
X55524001Y-38960832D01*
X55378388Y-37923534D02*
X55378388Y-38815219D01*
X55524001Y-37777921D02*
X55378388Y-37923534D01*
X55524001Y-37014001D02*
X55524001Y-37777921D01*
X56070000Y-33560000D02*
X57264002Y-32365998D01*
X56070000Y-33560000D02*
X57687545Y-31942455D01*
X57149990Y-46797636D02*
X57149990Y-45658364D01*
X57804010Y-41360102D02*
X58225079Y-40939033D01*
X58949921Y-51904001D02*
X59524001Y-51329921D01*
X57804010Y-45004344D02*
X57804010Y-41360102D01*
X59524001Y-51329921D02*
X59524001Y-49171647D01*
X57315999Y-51904001D02*
X58949921Y-51904001D01*
X59524001Y-49171647D02*
X57149990Y-46797636D01*
X55880000Y-53340000D02*
X57315999Y-51904001D01*
X58225079Y-40939033D02*
X58790764Y-40939033D01*
X57149990Y-45658364D02*
X57804010Y-45004344D01*
X57687545Y-31942455D02*
X57687545Y-31376770D01*
X55987999Y-28350077D02*
X55987999Y-17418001D01*
X55987999Y-17418001D02*
X57785000Y-15621000D01*
X57785000Y-15621000D02*
X57785000Y-12065000D01*
X57785000Y-12065000D02*
X56515000Y-10795000D01*
X58064389Y-30426467D02*
X55987999Y-28350077D01*
X58064389Y-30999926D02*
X58064389Y-30426467D01*
X57687545Y-31376770D02*
X58064389Y-30999926D01*
X56650450Y-31979550D02*
X56650450Y-31904460D01*
X55070000Y-33560000D02*
X56650450Y-31979550D01*
X55603456Y-34093456D02*
X56711544Y-34093456D01*
X56711544Y-34093456D02*
X57111543Y-33693457D01*
X55070000Y-33560000D02*
X55603456Y-34093456D01*
X56438768Y-49039151D02*
X56438768Y-42298896D01*
X56661989Y-42075675D02*
X56661989Y-41509990D01*
X56438768Y-42298896D02*
X56661989Y-42075675D01*
X55880000Y-50800000D02*
X55880000Y-49597919D01*
X55880000Y-49597919D02*
X56438768Y-49039151D01*
D26*
X11570599Y-52210599D02*
X11570599Y-49670599D01*
X12700000Y-53340000D02*
X11570599Y-52210599D01*
X11570599Y-49670599D02*
X8890000Y-46990000D01*
X12490000Y-45085000D02*
X12490000Y-46438000D01*
X12490000Y-46438000D02*
X12446000Y-46482000D01*
X12490000Y-50590000D02*
X12700000Y-50800000D01*
X8685598Y-46310598D02*
X9216114Y-46310598D01*
X9216114Y-46310598D02*
X9569402Y-46663886D01*
X9569402Y-47094651D02*
X12700000Y-50225249D01*
X6190000Y-43815000D02*
X8685598Y-46310598D01*
X12700000Y-50225249D02*
X12700000Y-50800000D01*
X9569402Y-46663886D02*
X9569402Y-47094651D01*
X5290000Y-43815000D02*
X6190000Y-43815000D01*
X16369401Y-52210599D02*
X15240000Y-53340000D01*
X16369401Y-47557121D02*
X16369401Y-52210599D01*
X12997990Y-44185710D02*
X16369401Y-47557121D01*
X12860710Y-44185710D02*
X12997990Y-44185710D01*
X12490000Y-43815000D02*
X12860710Y-44185710D01*
X10527793Y-47047526D02*
X10527793Y-47092211D01*
X10527793Y-47092211D02*
X10927792Y-47492210D01*
X9384454Y-45904187D02*
X10527793Y-47047526D01*
X5290000Y-42545000D02*
X5660710Y-42915710D01*
X9330704Y-45904187D02*
X9384454Y-45904187D01*
X6342227Y-42915710D02*
X9330704Y-45904187D01*
X5660710Y-42915710D02*
X6342227Y-42915710D01*
X18909401Y-52210599D02*
X17780000Y-53340000D01*
X18909401Y-48827121D02*
X18909401Y-52210599D01*
X12997990Y-42915710D02*
X18909401Y-48827121D01*
X12860710Y-42915710D02*
X12997990Y-42915710D01*
X12490000Y-42545000D02*
X12860710Y-42915710D01*
X5797990Y-41645710D02*
X8625710Y-44473430D01*
X5660710Y-41645710D02*
X5290000Y-41275000D01*
X5797990Y-41645710D02*
X5660710Y-41645710D01*
X10965089Y-46812809D02*
X11253905Y-46812809D01*
X5797990Y-41645710D02*
X10965089Y-46812809D01*
X13970000Y-49528904D02*
X13970000Y-53741514D01*
X13970000Y-53741514D02*
X14838486Y-54610000D01*
X16650599Y-53600915D02*
X16650599Y-52504152D01*
X14838486Y-54610000D02*
X15641514Y-54610000D01*
X16930001Y-51649999D02*
X17780000Y-50800000D01*
X11253905Y-46812809D02*
X13970000Y-49528904D01*
X16930001Y-52224750D02*
X16930001Y-51649999D01*
X15641514Y-54610000D02*
X16650599Y-53600915D01*
X16650599Y-52504152D02*
X16930001Y-52224750D01*
D23*
X18780000Y-38710000D02*
X18805000Y-38735000D01*
X18780000Y-34180000D02*
X18780000Y-38710000D01*
X44205000Y-34205000D02*
X44180000Y-34180000D01*
X44205000Y-38735000D02*
X44205000Y-34205000D01*
D24*
X44205000Y-38735000D02*
X44205000Y-45475000D01*
X44205000Y-45475000D02*
X46990000Y-48260000D01*
X46990000Y-48260000D02*
X46990000Y-49530000D01*
D25*
X46990000Y-49530000D02*
X46990000Y-54610000D01*
D23*
X18780000Y-26305000D02*
X19050000Y-26035000D01*
X18780000Y-34180000D02*
X18780000Y-26305000D01*
D24*
X49936389Y-57556389D02*
X57326826Y-57556389D01*
X57326826Y-57556389D02*
X59569390Y-55313825D01*
X46990000Y-54610000D02*
X49936389Y-57556389D01*
D23*
X42664000Y-27186000D02*
X43815000Y-26035000D01*
X42664000Y-30864000D02*
X42664000Y-27186000D01*
X44180000Y-34180000D02*
X44180000Y-32380000D01*
X44180000Y-32380000D02*
X42664000Y-30864000D01*
D27*
X32766000Y-58166000D02*
X27940000Y-53340000D01*
X64093610Y-30438610D02*
X64093610Y-47158390D01*
X62865000Y-29210000D02*
X64093610Y-30438610D01*
X64093610Y-47158390D02*
X60198000Y-51054000D01*
X60198000Y-51054000D02*
X60198000Y-56134000D01*
X58166000Y-58166000D02*
X32766000Y-58166000D01*
X60198000Y-56134000D02*
X58166000Y-58166000D01*
D26*
G36*
X1600201Y-47433833D02*
G01*
X1595654Y-47480000D01*
X1613799Y-47664233D01*
X1667538Y-47841386D01*
X1754804Y-48004651D01*
X1795069Y-48053713D01*
X1872247Y-48147754D01*
X1908110Y-48177186D01*
X3502822Y-49771900D01*
X3532247Y-49807754D01*
X3568099Y-49837177D01*
X3568106Y-49837184D01*
X3568117Y-49837193D01*
X5216111Y-51485189D01*
X5216111Y-51615001D01*
X5229252Y-51748421D01*
X5268169Y-51876714D01*
X5331367Y-51994949D01*
X5416417Y-52098583D01*
X5481985Y-52152393D01*
X5405820Y-52175498D01*
X5295506Y-52234463D01*
X5198815Y-52313815D01*
X5119463Y-52410506D01*
X5060498Y-52520820D01*
X5024188Y-52640518D01*
X5011928Y-52765000D01*
X5015000Y-53054250D01*
X5173750Y-53213000D01*
X6223000Y-53213000D01*
X6223000Y-53193000D01*
X6477000Y-53193000D01*
X6477000Y-53213000D01*
X7526250Y-53213000D01*
X7685000Y-53054250D01*
X7688072Y-52765000D01*
X7675812Y-52640518D01*
X7639502Y-52520820D01*
X7580537Y-52410506D01*
X7501185Y-52313815D01*
X7404494Y-52234463D01*
X7395770Y-52229800D01*
X7720724Y-52229800D01*
X8876111Y-53385188D01*
X8876111Y-54190000D01*
X8884448Y-54274648D01*
X8909139Y-54356042D01*
X8949234Y-54431056D01*
X9003194Y-54496806D01*
X9068944Y-54550766D01*
X9143958Y-54590861D01*
X9225352Y-54615552D01*
X9310000Y-54623889D01*
X11010000Y-54623889D01*
X11094648Y-54615552D01*
X11176042Y-54590861D01*
X11251056Y-54550766D01*
X11316806Y-54496806D01*
X11370766Y-54431056D01*
X11410861Y-54356042D01*
X11435552Y-54274648D01*
X11443889Y-54190000D01*
X11443889Y-53614821D01*
X11510041Y-53832897D01*
X11629065Y-54055576D01*
X11789245Y-54250755D01*
X11984424Y-54410935D01*
X12207103Y-54529959D01*
X12448723Y-54603253D01*
X12637031Y-54621800D01*
X12762969Y-54621800D01*
X12951277Y-54603253D01*
X13192897Y-54529959D01*
X13415576Y-54410935D01*
X13610755Y-54250755D01*
X13646015Y-54207791D01*
X14423948Y-54985725D01*
X14441443Y-55007043D01*
X14462760Y-55024537D01*
X14526531Y-55076873D01*
X14623608Y-55128761D01*
X14728941Y-55160714D01*
X14838486Y-55171503D01*
X14865930Y-55168800D01*
X15614072Y-55168800D01*
X15641514Y-55171503D01*
X15668956Y-55168800D01*
X15668958Y-55168800D01*
X15751058Y-55160714D01*
X15856392Y-55128761D01*
X15953468Y-55076873D01*
X16038557Y-55007043D01*
X16056057Y-54985719D01*
X16833985Y-54207791D01*
X16869245Y-54250755D01*
X17064424Y-54410935D01*
X17287103Y-54529959D01*
X17528723Y-54603253D01*
X17717031Y-54621800D01*
X17842969Y-54621800D01*
X18031277Y-54603253D01*
X18272897Y-54529959D01*
X18495576Y-54410935D01*
X18690755Y-54250755D01*
X18850935Y-54055576D01*
X18969959Y-53832897D01*
X19043253Y-53591277D01*
X19050000Y-53522775D01*
X19056747Y-53591277D01*
X19130041Y-53832897D01*
X19249065Y-54055576D01*
X19409245Y-54250755D01*
X19604424Y-54410935D01*
X19827103Y-54529959D01*
X20068723Y-54603253D01*
X20257031Y-54621800D01*
X20382969Y-54621800D01*
X20571277Y-54603253D01*
X20812897Y-54529959D01*
X21035576Y-54410935D01*
X21230755Y-54250755D01*
X21390935Y-54055576D01*
X21509959Y-53832897D01*
X21583253Y-53591277D01*
X21590000Y-53522775D01*
X21596747Y-53591277D01*
X21670041Y-53832897D01*
X21789065Y-54055576D01*
X21949245Y-54250755D01*
X22144424Y-54410935D01*
X22367103Y-54529959D01*
X22608723Y-54603253D01*
X22797031Y-54621800D01*
X22922969Y-54621800D01*
X23111277Y-54603253D01*
X23308949Y-54543290D01*
X23568310Y-54802652D01*
X23585006Y-54822996D01*
X23605350Y-54839692D01*
X23605352Y-54839694D01*
X23624796Y-54855651D01*
X23666226Y-54889652D01*
X23758890Y-54939182D01*
X23859436Y-54969682D01*
X23937806Y-54977401D01*
X23937813Y-54977401D01*
X23964000Y-54979980D01*
X23990187Y-54977401D01*
X25903734Y-54977401D01*
X25929921Y-54979980D01*
X25956108Y-54977401D01*
X25956116Y-54977401D01*
X26034486Y-54969682D01*
X26135032Y-54939182D01*
X26227696Y-54889652D01*
X26308916Y-54822996D01*
X26325617Y-54802646D01*
X26960849Y-54167414D01*
X27029245Y-54250755D01*
X27224424Y-54410935D01*
X27447103Y-54529959D01*
X27688723Y-54603253D01*
X27877031Y-54621800D01*
X28002969Y-54621800D01*
X28191277Y-54603253D01*
X28416510Y-54534930D01*
X32389145Y-58507565D01*
X32405052Y-58526948D01*
X32482405Y-58590429D01*
X32570657Y-58637601D01*
X32666415Y-58666649D01*
X32741053Y-58674000D01*
X32741056Y-58674000D01*
X32766000Y-58676457D01*
X32790944Y-58674000D01*
X58141056Y-58674000D01*
X58166000Y-58676457D01*
X58190944Y-58674000D01*
X58190947Y-58674000D01*
X58265585Y-58666649D01*
X58361343Y-58637601D01*
X58449595Y-58590429D01*
X58526948Y-58526948D01*
X58542855Y-58507565D01*
X60503200Y-56547221D01*
X60503201Y-59500786D01*
X59500788Y-60503200D01*
X9079213Y-60503200D01*
X8076800Y-59500788D01*
X8076800Y-54632438D01*
X8079010Y-54610000D01*
X8070190Y-54520452D01*
X8044070Y-54434344D01*
X8001653Y-54354988D01*
X7944569Y-54285431D01*
X7875012Y-54228347D01*
X7795656Y-54185930D01*
X7709548Y-54159810D01*
X7642438Y-54153200D01*
X7641349Y-54153093D01*
X7675812Y-54039482D01*
X7688072Y-53915000D01*
X7685000Y-53625750D01*
X7526250Y-53467000D01*
X6477000Y-53467000D01*
X6477000Y-53487000D01*
X6223000Y-53487000D01*
X6223000Y-53467000D01*
X5173750Y-53467000D01*
X5015000Y-53625750D01*
X5011928Y-53915000D01*
X5024188Y-54039482D01*
X5058684Y-54153200D01*
X2562342Y-54153200D01*
X2135793Y-54111376D01*
X1746989Y-53993989D01*
X1388384Y-53803315D01*
X1073649Y-53546623D01*
X814762Y-53233682D01*
X621594Y-52876424D01*
X501496Y-52488448D01*
X457851Y-52073194D01*
X813211Y-52073194D01*
X813335Y-52090926D01*
X815380Y-52110380D01*
X815380Y-52114576D01*
X815505Y-52115206D01*
X815505Y-52132308D01*
X816171Y-52138651D01*
X843800Y-52384968D01*
X852410Y-52425476D01*
X860450Y-52466077D01*
X862335Y-52472170D01*
X937280Y-52708428D01*
X953587Y-52746475D01*
X969368Y-52784761D01*
X972401Y-52790371D01*
X1091809Y-53007574D01*
X1115211Y-53041750D01*
X1138111Y-53076218D01*
X1142176Y-53081133D01*
X1301497Y-53271005D01*
X1331109Y-53300003D01*
X1360252Y-53329350D01*
X1365195Y-53333382D01*
X1558361Y-53488692D01*
X1593025Y-53511374D01*
X1627329Y-53534513D01*
X1632960Y-53537508D01*
X1852615Y-53652341D01*
X1890999Y-53667849D01*
X1929170Y-53683894D01*
X1935276Y-53685738D01*
X2173052Y-53755719D01*
X2213765Y-53763485D01*
X2254277Y-53771801D01*
X2260624Y-53772424D01*
X2507464Y-53794888D01*
X2548831Y-53794599D01*
X2590265Y-53794888D01*
X2596613Y-53794266D01*
X2843116Y-53768358D01*
X2883676Y-53760032D01*
X2924343Y-53752274D01*
X2930449Y-53750431D01*
X3167224Y-53677136D01*
X3205372Y-53661099D01*
X3243776Y-53645583D01*
X3249408Y-53642589D01*
X3467437Y-53524701D01*
X3501753Y-53501555D01*
X3536405Y-53478879D01*
X3541348Y-53474848D01*
X3732328Y-53316855D01*
X3761473Y-53287506D01*
X3791082Y-53258510D01*
X3795148Y-53253596D01*
X3951802Y-53061518D01*
X3974699Y-53027055D01*
X3998104Y-52992873D01*
X4001138Y-52987262D01*
X4117502Y-52768414D01*
X4133278Y-52730138D01*
X4149589Y-52692080D01*
X4151476Y-52685988D01*
X4223115Y-52448705D01*
X4231154Y-52408103D01*
X4239764Y-52367596D01*
X4240431Y-52361253D01*
X4264618Y-52114576D01*
X4264618Y-52093834D01*
X4266788Y-52073183D01*
X4266789Y-52066805D01*
X4266665Y-52049074D01*
X4264618Y-52029600D01*
X4264618Y-52025424D01*
X4264495Y-52024804D01*
X4264495Y-52007692D01*
X4263829Y-52001349D01*
X4236200Y-51755033D01*
X4227590Y-51714529D01*
X4219550Y-51673923D01*
X4217665Y-51667830D01*
X4142720Y-51431572D01*
X4126407Y-51393512D01*
X4110632Y-51355240D01*
X4107599Y-51349629D01*
X3988191Y-51132427D01*
X3964806Y-51098274D01*
X3941888Y-51063781D01*
X3937823Y-51058866D01*
X3778501Y-50868994D01*
X3748906Y-50840013D01*
X3719748Y-50810651D01*
X3714806Y-50806619D01*
X3521638Y-50651308D01*
X3487010Y-50628648D01*
X3452669Y-50605485D01*
X3447037Y-50602490D01*
X3227382Y-50487659D01*
X3189011Y-50472156D01*
X3150831Y-50456107D01*
X3144725Y-50454263D01*
X2906949Y-50384281D01*
X2866251Y-50376517D01*
X2825722Y-50368198D01*
X2819377Y-50367575D01*
X2819375Y-50367575D01*
X2572535Y-50345111D01*
X2531168Y-50345400D01*
X2489734Y-50345111D01*
X2483387Y-50345733D01*
X2236883Y-50371641D01*
X2196317Y-50379968D01*
X2155657Y-50387725D01*
X2149551Y-50389568D01*
X1912775Y-50462863D01*
X1874611Y-50478906D01*
X1836222Y-50494416D01*
X1830590Y-50497410D01*
X1612560Y-50615298D01*
X1578225Y-50638458D01*
X1543592Y-50661121D01*
X1538649Y-50665152D01*
X1347669Y-50823145D01*
X1318489Y-50852530D01*
X1288916Y-50881490D01*
X1284850Y-50886404D01*
X1128195Y-51078482D01*
X1105269Y-51112989D01*
X1081893Y-51147129D01*
X1078859Y-51152740D01*
X962496Y-51371587D01*
X946733Y-51409832D01*
X930410Y-51447917D01*
X928524Y-51454010D01*
X856884Y-51691291D01*
X848851Y-51731862D01*
X840234Y-51772403D01*
X839567Y-51778746D01*
X815380Y-52025424D01*
X815380Y-52046185D01*
X813212Y-52066816D01*
X813211Y-52073194D01*
X457851Y-52073194D01*
X456800Y-52063197D01*
X456800Y-21756259D01*
X953646Y-21164141D01*
X999317Y-21098916D01*
X1468925Y-20285531D01*
X1479627Y-20262581D01*
X1502577Y-20213366D01*
X1600200Y-19945148D01*
X1600201Y-47433833D01*
X1600201Y-47433833D01*
G37*
X1600201Y-47433833D02*
X1595654Y-47480000D01*
X1613799Y-47664233D01*
X1667538Y-47841386D01*
X1754804Y-48004651D01*
X1795069Y-48053713D01*
X1872247Y-48147754D01*
X1908110Y-48177186D01*
X3502822Y-49771900D01*
X3532247Y-49807754D01*
X3568099Y-49837177D01*
X3568106Y-49837184D01*
X3568117Y-49837193D01*
X5216111Y-51485189D01*
X5216111Y-51615001D01*
X5229252Y-51748421D01*
X5268169Y-51876714D01*
X5331367Y-51994949D01*
X5416417Y-52098583D01*
X5481985Y-52152393D01*
X5405820Y-52175498D01*
X5295506Y-52234463D01*
X5198815Y-52313815D01*
X5119463Y-52410506D01*
X5060498Y-52520820D01*
X5024188Y-52640518D01*
X5011928Y-52765000D01*
X5015000Y-53054250D01*
X5173750Y-53213000D01*
X6223000Y-53213000D01*
X6223000Y-53193000D01*
X6477000Y-53193000D01*
X6477000Y-53213000D01*
X7526250Y-53213000D01*
X7685000Y-53054250D01*
X7688072Y-52765000D01*
X7675812Y-52640518D01*
X7639502Y-52520820D01*
X7580537Y-52410506D01*
X7501185Y-52313815D01*
X7404494Y-52234463D01*
X7395770Y-52229800D01*
X7720724Y-52229800D01*
X8876111Y-53385188D01*
X8876111Y-54190000D01*
X8884448Y-54274648D01*
X8909139Y-54356042D01*
X8949234Y-54431056D01*
X9003194Y-54496806D01*
X9068944Y-54550766D01*
X9143958Y-54590861D01*
X9225352Y-54615552D01*
X9310000Y-54623889D01*
X11010000Y-54623889D01*
X11094648Y-54615552D01*
X11176042Y-54590861D01*
X11251056Y-54550766D01*
X11316806Y-54496806D01*
X11370766Y-54431056D01*
X11410861Y-54356042D01*
X11435552Y-54274648D01*
X11443889Y-54190000D01*
X11443889Y-53614821D01*
X11510041Y-53832897D01*
X11629065Y-54055576D01*
X11789245Y-54250755D01*
X11984424Y-54410935D01*
X12207103Y-54529959D01*
X12448723Y-54603253D01*
X12637031Y-54621800D01*
X12762969Y-54621800D01*
X12951277Y-54603253D01*
X13192897Y-54529959D01*
X13415576Y-54410935D01*
X13610755Y-54250755D01*
X13646015Y-54207791D01*
X14423948Y-54985725D01*
X14441443Y-55007043D01*
X14462760Y-55024537D01*
X14526531Y-55076873D01*
X14623608Y-55128761D01*
X14728941Y-55160714D01*
X14838486Y-55171503D01*
X14865930Y-55168800D01*
X15614072Y-55168800D01*
X15641514Y-55171503D01*
X15668956Y-55168800D01*
X15668958Y-55168800D01*
X15751058Y-55160714D01*
X15856392Y-55128761D01*
X15953468Y-55076873D01*
X16038557Y-55007043D01*
X16056057Y-54985719D01*
X16833985Y-54207791D01*
X16869245Y-54250755D01*
X17064424Y-54410935D01*
X17287103Y-54529959D01*
X17528723Y-54603253D01*
X17717031Y-54621800D01*
X17842969Y-54621800D01*
X18031277Y-54603253D01*
X18272897Y-54529959D01*
X18495576Y-54410935D01*
X18690755Y-54250755D01*
X18850935Y-54055576D01*
X18969959Y-53832897D01*
X19043253Y-53591277D01*
X19050000Y-53522775D01*
X19056747Y-53591277D01*
X19130041Y-53832897D01*
X19249065Y-54055576D01*
X19409245Y-54250755D01*
X19604424Y-54410935D01*
X19827103Y-54529959D01*
X20068723Y-54603253D01*
X20257031Y-54621800D01*
X20382969Y-54621800D01*
X20571277Y-54603253D01*
X20812897Y-54529959D01*
X21035576Y-54410935D01*
X21230755Y-54250755D01*
X21390935Y-54055576D01*
X21509959Y-53832897D01*
X21583253Y-53591277D01*
X21590000Y-53522775D01*
X21596747Y-53591277D01*
X21670041Y-53832897D01*
X21789065Y-54055576D01*
X21949245Y-54250755D01*
X22144424Y-54410935D01*
X22367103Y-54529959D01*
X22608723Y-54603253D01*
X22797031Y-54621800D01*
X22922969Y-54621800D01*
X23111277Y-54603253D01*
X23308949Y-54543290D01*
X23568310Y-54802652D01*
X23585006Y-54822996D01*
X23605350Y-54839692D01*
X23605352Y-54839694D01*
X23624796Y-54855651D01*
X23666226Y-54889652D01*
X23758890Y-54939182D01*
X23859436Y-54969682D01*
X23937806Y-54977401D01*
X23937813Y-54977401D01*
X23964000Y-54979980D01*
X23990187Y-54977401D01*
X25903734Y-54977401D01*
X25929921Y-54979980D01*
X25956108Y-54977401D01*
X25956116Y-54977401D01*
X26034486Y-54969682D01*
X26135032Y-54939182D01*
X26227696Y-54889652D01*
X26308916Y-54822996D01*
X26325617Y-54802646D01*
X26960849Y-54167414D01*
X27029245Y-54250755D01*
X27224424Y-54410935D01*
X27447103Y-54529959D01*
X27688723Y-54603253D01*
X27877031Y-54621800D01*
X28002969Y-54621800D01*
X28191277Y-54603253D01*
X28416510Y-54534930D01*
X32389145Y-58507565D01*
X32405052Y-58526948D01*
X32482405Y-58590429D01*
X32570657Y-58637601D01*
X32666415Y-58666649D01*
X32741053Y-58674000D01*
X32741056Y-58674000D01*
X32766000Y-58676457D01*
X32790944Y-58674000D01*
X58141056Y-58674000D01*
X58166000Y-58676457D01*
X58190944Y-58674000D01*
X58190947Y-58674000D01*
X58265585Y-58666649D01*
X58361343Y-58637601D01*
X58449595Y-58590429D01*
X58526948Y-58526948D01*
X58542855Y-58507565D01*
X60503200Y-56547221D01*
X60503201Y-59500786D01*
X59500788Y-60503200D01*
X9079213Y-60503200D01*
X8076800Y-59500788D01*
X8076800Y-54632438D01*
X8079010Y-54610000D01*
X8070190Y-54520452D01*
X8044070Y-54434344D01*
X8001653Y-54354988D01*
X7944569Y-54285431D01*
X7875012Y-54228347D01*
X7795656Y-54185930D01*
X7709548Y-54159810D01*
X7642438Y-54153200D01*
X7641349Y-54153093D01*
X7675812Y-54039482D01*
X7688072Y-53915000D01*
X7685000Y-53625750D01*
X7526250Y-53467000D01*
X6477000Y-53467000D01*
X6477000Y-53487000D01*
X6223000Y-53487000D01*
X6223000Y-53467000D01*
X5173750Y-53467000D01*
X5015000Y-53625750D01*
X5011928Y-53915000D01*
X5024188Y-54039482D01*
X5058684Y-54153200D01*
X2562342Y-54153200D01*
X2135793Y-54111376D01*
X1746989Y-53993989D01*
X1388384Y-53803315D01*
X1073649Y-53546623D01*
X814762Y-53233682D01*
X621594Y-52876424D01*
X501496Y-52488448D01*
X457851Y-52073194D01*
X813211Y-52073194D01*
X813335Y-52090926D01*
X815380Y-52110380D01*
X815380Y-52114576D01*
X815505Y-52115206D01*
X815505Y-52132308D01*
X816171Y-52138651D01*
X843800Y-52384968D01*
X852410Y-52425476D01*
X860450Y-52466077D01*
X862335Y-52472170D01*
X937280Y-52708428D01*
X953587Y-52746475D01*
X969368Y-52784761D01*
X972401Y-52790371D01*
X1091809Y-53007574D01*
X1115211Y-53041750D01*
X1138111Y-53076218D01*
X1142176Y-53081133D01*
X1301497Y-53271005D01*
X1331109Y-53300003D01*
X1360252Y-53329350D01*
X1365195Y-53333382D01*
X1558361Y-53488692D01*
X1593025Y-53511374D01*
X1627329Y-53534513D01*
X1632960Y-53537508D01*
X1852615Y-53652341D01*
X1890999Y-53667849D01*
X1929170Y-53683894D01*
X1935276Y-53685738D01*
X2173052Y-53755719D01*
X2213765Y-53763485D01*
X2254277Y-53771801D01*
X2260624Y-53772424D01*
X2507464Y-53794888D01*
X2548831Y-53794599D01*
X2590265Y-53794888D01*
X2596613Y-53794266D01*
X2843116Y-53768358D01*
X2883676Y-53760032D01*
X2924343Y-53752274D01*
X2930449Y-53750431D01*
X3167224Y-53677136D01*
X3205372Y-53661099D01*
X3243776Y-53645583D01*
X3249408Y-53642589D01*
X3467437Y-53524701D01*
X3501753Y-53501555D01*
X3536405Y-53478879D01*
X3541348Y-53474848D01*
X3732328Y-53316855D01*
X3761473Y-53287506D01*
X3791082Y-53258510D01*
X3795148Y-53253596D01*
X3951802Y-53061518D01*
X3974699Y-53027055D01*
X3998104Y-52992873D01*
X4001138Y-52987262D01*
X4117502Y-52768414D01*
X4133278Y-52730138D01*
X4149589Y-52692080D01*
X4151476Y-52685988D01*
X4223115Y-52448705D01*
X4231154Y-52408103D01*
X4239764Y-52367596D01*
X4240431Y-52361253D01*
X4264618Y-52114576D01*
X4264618Y-52093834D01*
X4266788Y-52073183D01*
X4266789Y-52066805D01*
X4266665Y-52049074D01*
X4264618Y-52029600D01*
X4264618Y-52025424D01*
X4264495Y-52024804D01*
X4264495Y-52007692D01*
X4263829Y-52001349D01*
X4236200Y-51755033D01*
X4227590Y-51714529D01*
X4219550Y-51673923D01*
X4217665Y-51667830D01*
X4142720Y-51431572D01*
X4126407Y-51393512D01*
X4110632Y-51355240D01*
X4107599Y-51349629D01*
X3988191Y-51132427D01*
X3964806Y-51098274D01*
X3941888Y-51063781D01*
X3937823Y-51058866D01*
X3778501Y-50868994D01*
X3748906Y-50840013D01*
X3719748Y-50810651D01*
X3714806Y-50806619D01*
X3521638Y-50651308D01*
X3487010Y-50628648D01*
X3452669Y-50605485D01*
X3447037Y-50602490D01*
X3227382Y-50487659D01*
X3189011Y-50472156D01*
X3150831Y-50456107D01*
X3144725Y-50454263D01*
X2906949Y-50384281D01*
X2866251Y-50376517D01*
X2825722Y-50368198D01*
X2819377Y-50367575D01*
X2819375Y-50367575D01*
X2572535Y-50345111D01*
X2531168Y-50345400D01*
X2489734Y-50345111D01*
X2483387Y-50345733D01*
X2236883Y-50371641D01*
X2196317Y-50379968D01*
X2155657Y-50387725D01*
X2149551Y-50389568D01*
X1912775Y-50462863D01*
X1874611Y-50478906D01*
X1836222Y-50494416D01*
X1830590Y-50497410D01*
X1612560Y-50615298D01*
X1578225Y-50638458D01*
X1543592Y-50661121D01*
X1538649Y-50665152D01*
X1347669Y-50823145D01*
X1318489Y-50852530D01*
X1288916Y-50881490D01*
X1284850Y-50886404D01*
X1128195Y-51078482D01*
X1105269Y-51112989D01*
X1081893Y-51147129D01*
X1078859Y-51152740D01*
X962496Y-51371587D01*
X946733Y-51409832D01*
X930410Y-51447917D01*
X928524Y-51454010D01*
X856884Y-51691291D01*
X848851Y-51731862D01*
X840234Y-51772403D01*
X839567Y-51778746D01*
X815380Y-52025424D01*
X815380Y-52046185D01*
X813212Y-52066816D01*
X813211Y-52073194D01*
X457851Y-52073194D01*
X456800Y-52063197D01*
X456800Y-21756259D01*
X953646Y-21164141D01*
X999317Y-21098916D01*
X1468925Y-20285531D01*
X1479627Y-20262581D01*
X1502577Y-20213366D01*
X1600200Y-19945148D01*
X1600201Y-47433833D01*
G36*
X8164029Y-46579292D02*
G01*
X8152868Y-46595995D01*
X8090165Y-46747373D01*
X8058200Y-46908075D01*
X8058200Y-47071925D01*
X8090165Y-47232627D01*
X8152868Y-47384005D01*
X8243899Y-47520242D01*
X8359758Y-47636101D01*
X8495995Y-47727132D01*
X8647373Y-47789835D01*
X8808075Y-47821800D01*
X8931538Y-47821800D01*
X10485060Y-49375322D01*
X10287000Y-49479845D01*
X10287000Y-50673000D01*
X10307000Y-50673000D01*
X10307000Y-50927000D01*
X10287000Y-50927000D01*
X10287000Y-50947000D01*
X10033000Y-50947000D01*
X10033000Y-50927000D01*
X10013000Y-50927000D01*
X10013000Y-50673000D01*
X10033000Y-50673000D01*
X10033000Y-49479845D01*
X9803110Y-49358524D01*
X9655901Y-49403175D01*
X9393080Y-49528359D01*
X9159731Y-49702412D01*
X8964822Y-49918645D01*
X8815843Y-50168748D01*
X8718519Y-50443109D01*
X8839185Y-50672998D01*
X8822074Y-50672998D01*
X8807191Y-50658115D01*
X8777754Y-50622246D01*
X8634651Y-50504804D01*
X8471386Y-50417537D01*
X8294233Y-50363798D01*
X8156167Y-50350200D01*
X8156157Y-50350200D01*
X8110000Y-50345654D01*
X8063843Y-50350200D01*
X7698645Y-50350200D01*
X7746185Y-50311185D01*
X7825537Y-50214494D01*
X7884502Y-50104180D01*
X7920812Y-49984482D01*
X7933072Y-49860000D01*
X7930000Y-49570750D01*
X7771250Y-49412000D01*
X6722000Y-49412000D01*
X6722000Y-49432000D01*
X6468000Y-49432000D01*
X6468000Y-49412000D01*
X6448000Y-49412000D01*
X6448000Y-49158000D01*
X6468000Y-49158000D01*
X6468000Y-49138000D01*
X6722000Y-49138000D01*
X6722000Y-49158000D01*
X7771250Y-49158000D01*
X7930000Y-48999250D01*
X7933072Y-48710000D01*
X7920812Y-48585518D01*
X7884502Y-48465820D01*
X7825537Y-48355506D01*
X7746185Y-48258815D01*
X7649494Y-48179463D01*
X7539180Y-48120498D01*
X7463015Y-48097393D01*
X7528583Y-48043583D01*
X7613633Y-47939949D01*
X7676831Y-47821714D01*
X7715748Y-47693421D01*
X7728889Y-47560001D01*
X7728889Y-46909999D01*
X7715748Y-46776579D01*
X7676831Y-46648286D01*
X7613633Y-46530051D01*
X7528583Y-46426417D01*
X7424949Y-46341367D01*
X7306714Y-46278169D01*
X7178421Y-46239252D01*
X7045001Y-46226111D01*
X6412295Y-46226111D01*
X5999238Y-45813055D01*
X6053911Y-45807670D01*
X6163445Y-45774443D01*
X6264391Y-45720486D01*
X6352872Y-45647872D01*
X6425486Y-45559391D01*
X6479443Y-45458445D01*
X6512670Y-45348911D01*
X6523889Y-45235000D01*
X6523889Y-44939151D01*
X8164029Y-46579292D01*
X8164029Y-46579292D01*
G37*
X8164029Y-46579292D02*
X8152868Y-46595995D01*
X8090165Y-46747373D01*
X8058200Y-46908075D01*
X8058200Y-47071925D01*
X8090165Y-47232627D01*
X8152868Y-47384005D01*
X8243899Y-47520242D01*
X8359758Y-47636101D01*
X8495995Y-47727132D01*
X8647373Y-47789835D01*
X8808075Y-47821800D01*
X8931538Y-47821800D01*
X10485060Y-49375322D01*
X10287000Y-49479845D01*
X10287000Y-50673000D01*
X10307000Y-50673000D01*
X10307000Y-50927000D01*
X10287000Y-50927000D01*
X10287000Y-50947000D01*
X10033000Y-50947000D01*
X10033000Y-50927000D01*
X10013000Y-50927000D01*
X10013000Y-50673000D01*
X10033000Y-50673000D01*
X10033000Y-49479845D01*
X9803110Y-49358524D01*
X9655901Y-49403175D01*
X9393080Y-49528359D01*
X9159731Y-49702412D01*
X8964822Y-49918645D01*
X8815843Y-50168748D01*
X8718519Y-50443109D01*
X8839185Y-50672998D01*
X8822074Y-50672998D01*
X8807191Y-50658115D01*
X8777754Y-50622246D01*
X8634651Y-50504804D01*
X8471386Y-50417537D01*
X8294233Y-50363798D01*
X8156167Y-50350200D01*
X8156157Y-50350200D01*
X8110000Y-50345654D01*
X8063843Y-50350200D01*
X7698645Y-50350200D01*
X7746185Y-50311185D01*
X7825537Y-50214494D01*
X7884502Y-50104180D01*
X7920812Y-49984482D01*
X7933072Y-49860000D01*
X7930000Y-49570750D01*
X7771250Y-49412000D01*
X6722000Y-49412000D01*
X6722000Y-49432000D01*
X6468000Y-49432000D01*
X6468000Y-49412000D01*
X6448000Y-49412000D01*
X6448000Y-49158000D01*
X6468000Y-49158000D01*
X6468000Y-49138000D01*
X6722000Y-49138000D01*
X6722000Y-49158000D01*
X7771250Y-49158000D01*
X7930000Y-48999250D01*
X7933072Y-48710000D01*
X7920812Y-48585518D01*
X7884502Y-48465820D01*
X7825537Y-48355506D01*
X7746185Y-48258815D01*
X7649494Y-48179463D01*
X7539180Y-48120498D01*
X7463015Y-48097393D01*
X7528583Y-48043583D01*
X7613633Y-47939949D01*
X7676831Y-47821714D01*
X7715748Y-47693421D01*
X7728889Y-47560001D01*
X7728889Y-46909999D01*
X7715748Y-46776579D01*
X7676831Y-46648286D01*
X7613633Y-46530051D01*
X7528583Y-46426417D01*
X7424949Y-46341367D01*
X7306714Y-46278169D01*
X7178421Y-46239252D01*
X7045001Y-46226111D01*
X6412295Y-46226111D01*
X5999238Y-45813055D01*
X6053911Y-45807670D01*
X6163445Y-45774443D01*
X6264391Y-45720486D01*
X6352872Y-45647872D01*
X6425486Y-45559391D01*
X6479443Y-45458445D01*
X6512670Y-45348911D01*
X6523889Y-45235000D01*
X6523889Y-44939151D01*
X8164029Y-46579292D01*
G36*
X24964065Y-9259424D02*
G01*
X24845041Y-9482103D01*
X24771747Y-9723723D01*
X24753200Y-9912031D01*
X24753200Y-10877968D01*
X24771747Y-11066276D01*
X24776893Y-11083239D01*
X22398886Y-13461247D01*
X22372721Y-13482720D01*
X22351248Y-13508885D01*
X22351245Y-13508888D01*
X22287020Y-13587147D01*
X22223339Y-13706286D01*
X22184124Y-13835560D01*
X22170883Y-13970000D01*
X22174201Y-14003689D01*
X22174201Y-26894190D01*
X22146042Y-26879139D01*
X22064648Y-26854448D01*
X21980000Y-26846111D01*
X20380000Y-26846111D01*
X20295352Y-26854448D01*
X20213958Y-26879139D01*
X20138944Y-26919234D01*
X20073194Y-26973194D01*
X20019234Y-27038944D01*
X19979139Y-27113958D01*
X19954448Y-27195352D01*
X19946111Y-27280000D01*
X19946111Y-30680000D01*
X19954448Y-30764648D01*
X19979139Y-30846042D01*
X20019234Y-30921056D01*
X20073194Y-30986806D01*
X20138944Y-31040766D01*
X20213958Y-31080861D01*
X20295352Y-31105552D01*
X20380000Y-31113889D01*
X21980000Y-31113889D01*
X22064648Y-31105552D01*
X22146042Y-31080861D01*
X22174201Y-31065810D01*
X22174200Y-33697857D01*
X22120242Y-33643899D01*
X21984005Y-33552868D01*
X21832627Y-33490165D01*
X21671925Y-33458200D01*
X21508075Y-33458200D01*
X21347373Y-33490165D01*
X21195995Y-33552868D01*
X21059758Y-33643899D01*
X21005800Y-33697857D01*
X21005800Y-32855828D01*
X21057132Y-32779005D01*
X21119835Y-32627627D01*
X21151800Y-32466925D01*
X21151800Y-32303075D01*
X21119835Y-32142373D01*
X21057132Y-31990995D01*
X20966101Y-31854758D01*
X20850242Y-31738899D01*
X20714005Y-31647868D01*
X20562627Y-31585165D01*
X20401925Y-31553200D01*
X20238075Y-31553200D01*
X20077373Y-31585165D01*
X19925995Y-31647868D01*
X19789758Y-31738899D01*
X19719800Y-31808857D01*
X19719800Y-26694277D01*
X19747184Y-26666893D01*
X19835196Y-26559651D01*
X19922463Y-26396385D01*
X19976201Y-26219233D01*
X19994347Y-26035000D01*
X19976201Y-25850767D01*
X19922463Y-25673614D01*
X19835196Y-25510349D01*
X19717754Y-25367246D01*
X19574651Y-25249804D01*
X19411386Y-25162537D01*
X19234233Y-25108799D01*
X19050000Y-25090653D01*
X18865767Y-25108799D01*
X18688615Y-25162537D01*
X18525349Y-25249804D01*
X18418107Y-25337816D01*
X18148109Y-25607814D01*
X18112247Y-25637246D01*
X18054959Y-25707052D01*
X17994804Y-25780349D01*
X17907538Y-25943614D01*
X17853799Y-26120767D01*
X17835654Y-26305000D01*
X17840201Y-26351167D01*
X17840200Y-31581001D01*
X17810537Y-31525506D01*
X17731185Y-31428815D01*
X17634494Y-31349463D01*
X17524180Y-31290498D01*
X17404482Y-31254188D01*
X17280000Y-31241928D01*
X17065750Y-31245000D01*
X16907000Y-31403750D01*
X16907000Y-34053000D01*
X16927000Y-34053000D01*
X16927000Y-34307000D01*
X16907000Y-34307000D01*
X16907000Y-36956250D01*
X17065750Y-37115000D01*
X17280000Y-37118072D01*
X17404482Y-37105812D01*
X17524180Y-37069502D01*
X17634494Y-37010537D01*
X17731185Y-36931185D01*
X17810537Y-36834494D01*
X17840201Y-36778998D01*
X17840201Y-37655726D01*
X17781185Y-37583815D01*
X17684494Y-37504463D01*
X17574180Y-37445498D01*
X17454482Y-37409188D01*
X17330000Y-37396928D01*
X17040750Y-37400000D01*
X16882000Y-37558750D01*
X16882000Y-38608000D01*
X16902000Y-38608000D01*
X16902000Y-38862000D01*
X16882000Y-38862000D01*
X16882000Y-39911250D01*
X17040750Y-40070000D01*
X17330000Y-40073072D01*
X17454482Y-40060812D01*
X17574180Y-40024502D01*
X17684494Y-39965537D01*
X17781185Y-39886185D01*
X17860537Y-39789494D01*
X17919502Y-39679180D01*
X17942607Y-39603015D01*
X17996417Y-39668583D01*
X18100051Y-39753633D01*
X18218286Y-39816831D01*
X18346579Y-39855748D01*
X18479999Y-39868889D01*
X19130001Y-39868889D01*
X19263421Y-39855748D01*
X19391714Y-39816831D01*
X19509949Y-39753633D01*
X19613583Y-39668583D01*
X19634201Y-39643460D01*
X19634200Y-49713149D01*
X19604424Y-49729065D01*
X19468201Y-49840861D01*
X19468201Y-48854565D01*
X19470904Y-48827121D01*
X19460115Y-48717577D01*
X19428162Y-48612243D01*
X19376274Y-48515166D01*
X19323938Y-48451395D01*
X19306444Y-48430078D01*
X19285126Y-48412583D01*
X13705404Y-42832862D01*
X13712670Y-42808911D01*
X13723889Y-42695000D01*
X13723889Y-42395000D01*
X13712670Y-42281089D01*
X13679443Y-42171555D01*
X13644231Y-42105678D01*
X13644494Y-42105537D01*
X13741185Y-42026185D01*
X13820537Y-41929494D01*
X13879502Y-41819180D01*
X13915812Y-41699482D01*
X13928072Y-41575000D01*
X13925000Y-41560750D01*
X13766250Y-41402000D01*
X12617000Y-41402000D01*
X12617000Y-41422000D01*
X12363000Y-41422000D01*
X12363000Y-41402000D01*
X11213750Y-41402000D01*
X11055000Y-41560750D01*
X11051928Y-41575000D01*
X11064188Y-41699482D01*
X11100498Y-41819180D01*
X11159463Y-41929494D01*
X11238815Y-42026185D01*
X11335506Y-42105537D01*
X11335769Y-42105678D01*
X11300557Y-42171555D01*
X11267330Y-42281089D01*
X11256111Y-42395000D01*
X11256111Y-42695000D01*
X11267330Y-42808911D01*
X11300557Y-42918445D01*
X11354514Y-43019391D01*
X11427128Y-43107872D01*
X11515017Y-43180000D01*
X11427128Y-43252128D01*
X11354514Y-43340609D01*
X11300557Y-43441555D01*
X11267330Y-43551089D01*
X11256111Y-43665000D01*
X11256111Y-43965000D01*
X11267330Y-44078911D01*
X11300557Y-44188445D01*
X11354514Y-44289391D01*
X11427128Y-44377872D01*
X11515017Y-44450000D01*
X11427128Y-44522128D01*
X11354514Y-44610609D01*
X11300557Y-44711555D01*
X11267330Y-44821089D01*
X11256111Y-44935000D01*
X11256111Y-45235000D01*
X11267330Y-45348911D01*
X11300557Y-45458445D01*
X11354514Y-45559391D01*
X11427128Y-45647872D01*
X11515609Y-45720486D01*
X11616555Y-45774443D01*
X11726089Y-45807670D01*
X11840000Y-45818889D01*
X11931201Y-45818889D01*
X11931201Y-45825581D01*
X11915758Y-45835899D01*
X11799899Y-45951758D01*
X11708868Y-46087995D01*
X11646165Y-46239373D01*
X11616674Y-46387638D01*
X11565859Y-46345936D01*
X11468783Y-46294048D01*
X11363449Y-46262095D01*
X11281349Y-46254009D01*
X11281347Y-46254009D01*
X11253905Y-46251306D01*
X11226463Y-46254009D01*
X11196551Y-46254009D01*
X9040252Y-44097710D01*
X9040247Y-44097704D01*
X6505404Y-41562862D01*
X6512670Y-41538911D01*
X6523889Y-41425000D01*
X6523889Y-41332293D01*
X6590995Y-41377132D01*
X6742373Y-41439835D01*
X6903075Y-41471800D01*
X7066925Y-41471800D01*
X7227627Y-41439835D01*
X7379005Y-41377132D01*
X7515242Y-41286101D01*
X7631101Y-41170242D01*
X7722132Y-41034005D01*
X7746572Y-40975000D01*
X11051928Y-40975000D01*
X11055000Y-40989250D01*
X11213750Y-41148000D01*
X12363000Y-41148000D01*
X12363000Y-40498750D01*
X12617000Y-40498750D01*
X12617000Y-41148000D01*
X13766250Y-41148000D01*
X13925000Y-40989250D01*
X13928072Y-40975000D01*
X13915812Y-40850518D01*
X13879502Y-40730820D01*
X13820537Y-40620506D01*
X13741185Y-40523815D01*
X13644494Y-40444463D01*
X13534180Y-40385498D01*
X13414482Y-40349188D01*
X13290000Y-40336928D01*
X12775750Y-40340000D01*
X12617000Y-40498750D01*
X12363000Y-40498750D01*
X12204250Y-40340000D01*
X11690000Y-40336928D01*
X11565518Y-40349188D01*
X11445820Y-40385498D01*
X11335506Y-40444463D01*
X11238815Y-40523815D01*
X11159463Y-40620506D01*
X11100498Y-40730820D01*
X11064188Y-40850518D01*
X11051928Y-40975000D01*
X7746572Y-40975000D01*
X7784835Y-40882627D01*
X7816800Y-40721925D01*
X7816800Y-40558075D01*
X7784835Y-40397373D01*
X7722132Y-40245995D01*
X7631101Y-40109758D01*
X7515242Y-39993899D01*
X7379005Y-39902868D01*
X7227627Y-39840165D01*
X7137008Y-39822140D01*
X5594399Y-38279532D01*
X5594399Y-36384107D01*
X5633075Y-36391800D01*
X5796925Y-36391800D01*
X5957627Y-36359835D01*
X6109005Y-36297132D01*
X6245242Y-36206101D01*
X6299200Y-36152143D01*
X6299200Y-36359171D01*
X6247868Y-36435995D01*
X6185165Y-36587373D01*
X6153200Y-36748075D01*
X6153200Y-36911925D01*
X6185165Y-37072627D01*
X6247868Y-37224005D01*
X6338899Y-37360242D01*
X6454758Y-37476101D01*
X6590995Y-37567132D01*
X6742373Y-37629835D01*
X6903075Y-37661800D01*
X7066925Y-37661800D01*
X7227627Y-37629835D01*
X7379005Y-37567132D01*
X7515242Y-37476101D01*
X7569200Y-37422143D01*
X7569200Y-37629171D01*
X7517868Y-37705995D01*
X7455165Y-37857373D01*
X7423200Y-38018075D01*
X7423200Y-38181925D01*
X7455165Y-38342627D01*
X7517868Y-38494005D01*
X7608899Y-38630242D01*
X7724758Y-38746101D01*
X7860995Y-38837132D01*
X8012373Y-38899835D01*
X8173075Y-38931800D01*
X8336925Y-38931800D01*
X8497627Y-38899835D01*
X8649005Y-38837132D01*
X8785242Y-38746101D01*
X8901101Y-38630242D01*
X8992132Y-38494005D01*
X9054835Y-38342627D01*
X9086800Y-38181925D01*
X9086800Y-38018075D01*
X9054835Y-37857373D01*
X8992132Y-37705995D01*
X8940800Y-37629172D01*
X8940800Y-32342143D01*
X8994758Y-32396101D01*
X9130995Y-32487132D01*
X9282373Y-32549835D01*
X9443075Y-32581800D01*
X9606925Y-32581800D01*
X9767627Y-32549835D01*
X9919005Y-32487132D01*
X10055242Y-32396101D01*
X10109200Y-32342143D01*
X10109200Y-39070571D01*
X10057868Y-39147395D01*
X9995165Y-39298773D01*
X9963200Y-39459475D01*
X9963200Y-39623325D01*
X9995165Y-39784027D01*
X10057868Y-39935405D01*
X10148899Y-40071642D01*
X10264758Y-40187501D01*
X10400995Y-40278532D01*
X10552373Y-40341235D01*
X10713075Y-40373200D01*
X10876925Y-40373200D01*
X11037627Y-40341235D01*
X11189005Y-40278532D01*
X11325242Y-40187501D01*
X11441101Y-40071642D01*
X11532132Y-39935405D01*
X11594835Y-39784027D01*
X11626800Y-39623325D01*
X11626800Y-39459475D01*
X11621932Y-39435000D01*
X15541928Y-39435000D01*
X15554188Y-39559482D01*
X15590498Y-39679180D01*
X15649463Y-39789494D01*
X15728815Y-39886185D01*
X15825506Y-39965537D01*
X15935820Y-40024502D01*
X16055518Y-40060812D01*
X16180000Y-40073072D01*
X16469250Y-40070000D01*
X16628000Y-39911250D01*
X16628000Y-38862000D01*
X15703750Y-38862000D01*
X15545000Y-39020750D01*
X15541928Y-39435000D01*
X11621932Y-39435000D01*
X11594835Y-39298773D01*
X11532132Y-39147395D01*
X11480800Y-39070572D01*
X11480800Y-38035000D01*
X15541928Y-38035000D01*
X15545000Y-38449250D01*
X15703750Y-38608000D01*
X16628000Y-38608000D01*
X16628000Y-37558750D01*
X16469250Y-37400000D01*
X16180000Y-37396928D01*
X16055518Y-37409188D01*
X15935820Y-37445498D01*
X15825506Y-37504463D01*
X15728815Y-37583815D01*
X15649463Y-37680506D01*
X15590498Y-37790820D01*
X15554188Y-37910518D01*
X15541928Y-38035000D01*
X11480800Y-38035000D01*
X11480800Y-36480000D01*
X15641928Y-36480000D01*
X15654188Y-36604482D01*
X15690498Y-36724180D01*
X15749463Y-36834494D01*
X15828815Y-36931185D01*
X15925506Y-37010537D01*
X16035820Y-37069502D01*
X16155518Y-37105812D01*
X16280000Y-37118072D01*
X16494250Y-37115000D01*
X16653000Y-36956250D01*
X16653000Y-34307000D01*
X15803750Y-34307000D01*
X15645000Y-34465750D01*
X15641928Y-36480000D01*
X11480800Y-36480000D01*
X11480800Y-34882143D01*
X11534758Y-34936101D01*
X11670995Y-35027132D01*
X11822373Y-35089835D01*
X11983075Y-35121800D01*
X12146925Y-35121800D01*
X12307627Y-35089835D01*
X12459005Y-35027132D01*
X12595242Y-34936101D01*
X12711101Y-34820242D01*
X12802132Y-34684005D01*
X12864835Y-34532627D01*
X12896800Y-34371925D01*
X12896800Y-34208075D01*
X12864835Y-34047373D01*
X12802132Y-33895995D01*
X12750800Y-33819172D01*
X12750800Y-31880000D01*
X15641928Y-31880000D01*
X15645000Y-33894250D01*
X15803750Y-34053000D01*
X16653000Y-34053000D01*
X16653000Y-31403750D01*
X16494250Y-31245000D01*
X16280000Y-31241928D01*
X16155518Y-31254188D01*
X16035820Y-31290498D01*
X15925506Y-31349463D01*
X15828815Y-31428815D01*
X15749463Y-31525506D01*
X15690498Y-31635820D01*
X15654188Y-31755518D01*
X15641928Y-31880000D01*
X12750800Y-31880000D01*
X12750800Y-27280000D01*
X13146111Y-27280000D01*
X13146111Y-30680000D01*
X13154448Y-30764648D01*
X13179139Y-30846042D01*
X13219234Y-30921056D01*
X13273194Y-30986806D01*
X13338944Y-31040766D01*
X13413958Y-31080861D01*
X13495352Y-31105552D01*
X13580000Y-31113889D01*
X15180000Y-31113889D01*
X15264648Y-31105552D01*
X15346042Y-31080861D01*
X15421056Y-31040766D01*
X15486806Y-30986806D01*
X15540766Y-30921056D01*
X15580861Y-30846042D01*
X15605552Y-30764648D01*
X15613889Y-30680000D01*
X15613889Y-27280000D01*
X15605552Y-27195352D01*
X15580861Y-27113958D01*
X15540766Y-27038944D01*
X15486806Y-26973194D01*
X15421056Y-26919234D01*
X15346042Y-26879139D01*
X15264648Y-26854448D01*
X15180000Y-26846111D01*
X13580000Y-26846111D01*
X13495352Y-26854448D01*
X13413958Y-26879139D01*
X13338944Y-26919234D01*
X13273194Y-26973194D01*
X13219234Y-27038944D01*
X13179139Y-27113958D01*
X13154448Y-27195352D01*
X13146111Y-27280000D01*
X12750800Y-27280000D01*
X12750800Y-17794146D01*
X12760820Y-17799502D01*
X12880518Y-17835812D01*
X13005000Y-17848072D01*
X13294250Y-17845000D01*
X13453000Y-17686250D01*
X13453000Y-16637000D01*
X13433000Y-16637000D01*
X13433000Y-16383000D01*
X13453000Y-16383000D01*
X13453000Y-16363000D01*
X13707000Y-16363000D01*
X13707000Y-16383000D01*
X13727000Y-16383000D01*
X13727000Y-16637000D01*
X13707000Y-16637000D01*
X13707000Y-17686250D01*
X13865750Y-17845000D01*
X14155000Y-17848072D01*
X14279482Y-17835812D01*
X14399180Y-17799502D01*
X14509494Y-17740537D01*
X14606185Y-17661185D01*
X14685537Y-17564494D01*
X14744502Y-17454180D01*
X14767607Y-17378015D01*
X14821417Y-17443583D01*
X14925051Y-17528633D01*
X15043286Y-17591831D01*
X15171579Y-17630748D01*
X15304999Y-17643889D01*
X15955001Y-17643889D01*
X16088421Y-17630748D01*
X16216714Y-17591831D01*
X16334949Y-17528633D01*
X16438583Y-17443583D01*
X16523633Y-17339949D01*
X16586831Y-17221714D01*
X16625748Y-17093421D01*
X16638889Y-16960001D01*
X16638889Y-16815614D01*
X16660196Y-16789651D01*
X16747463Y-16626386D01*
X16801202Y-16449233D01*
X16814800Y-16311167D01*
X16814800Y-16311158D01*
X16819346Y-16265001D01*
X16814800Y-16218844D01*
X16814800Y-15030364D01*
X16945935Y-14870576D01*
X17064959Y-14647897D01*
X17138253Y-14406277D01*
X17156800Y-14217969D01*
X17156800Y-13252032D01*
X17138253Y-13063723D01*
X17064959Y-12822103D01*
X16945935Y-12599424D01*
X16814800Y-12439636D01*
X16814800Y-11690364D01*
X16945935Y-11530576D01*
X17064959Y-11307897D01*
X17138253Y-11066277D01*
X17156800Y-10877969D01*
X17156800Y-9912032D01*
X17138253Y-9723723D01*
X17064959Y-9482103D01*
X16945935Y-9259424D01*
X16892899Y-9194800D01*
X25017101Y-9194800D01*
X24964065Y-9259424D01*
X24964065Y-9259424D01*
G37*
X24964065Y-9259424D02*
X24845041Y-9482103D01*
X24771747Y-9723723D01*
X24753200Y-9912031D01*
X24753200Y-10877968D01*
X24771747Y-11066276D01*
X24776893Y-11083239D01*
X22398886Y-13461247D01*
X22372721Y-13482720D01*
X22351248Y-13508885D01*
X22351245Y-13508888D01*
X22287020Y-13587147D01*
X22223339Y-13706286D01*
X22184124Y-13835560D01*
X22170883Y-13970000D01*
X22174201Y-14003689D01*
X22174201Y-26894190D01*
X22146042Y-26879139D01*
X22064648Y-26854448D01*
X21980000Y-26846111D01*
X20380000Y-26846111D01*
X20295352Y-26854448D01*
X20213958Y-26879139D01*
X20138944Y-26919234D01*
X20073194Y-26973194D01*
X20019234Y-27038944D01*
X19979139Y-27113958D01*
X19954448Y-27195352D01*
X19946111Y-27280000D01*
X19946111Y-30680000D01*
X19954448Y-30764648D01*
X19979139Y-30846042D01*
X20019234Y-30921056D01*
X20073194Y-30986806D01*
X20138944Y-31040766D01*
X20213958Y-31080861D01*
X20295352Y-31105552D01*
X20380000Y-31113889D01*
X21980000Y-31113889D01*
X22064648Y-31105552D01*
X22146042Y-31080861D01*
X22174201Y-31065810D01*
X22174200Y-33697857D01*
X22120242Y-33643899D01*
X21984005Y-33552868D01*
X21832627Y-33490165D01*
X21671925Y-33458200D01*
X21508075Y-33458200D01*
X21347373Y-33490165D01*
X21195995Y-33552868D01*
X21059758Y-33643899D01*
X21005800Y-33697857D01*
X21005800Y-32855828D01*
X21057132Y-32779005D01*
X21119835Y-32627627D01*
X21151800Y-32466925D01*
X21151800Y-32303075D01*
X21119835Y-32142373D01*
X21057132Y-31990995D01*
X20966101Y-31854758D01*
X20850242Y-31738899D01*
X20714005Y-31647868D01*
X20562627Y-31585165D01*
X20401925Y-31553200D01*
X20238075Y-31553200D01*
X20077373Y-31585165D01*
X19925995Y-31647868D01*
X19789758Y-31738899D01*
X19719800Y-31808857D01*
X19719800Y-26694277D01*
X19747184Y-26666893D01*
X19835196Y-26559651D01*
X19922463Y-26396385D01*
X19976201Y-26219233D01*
X19994347Y-26035000D01*
X19976201Y-25850767D01*
X19922463Y-25673614D01*
X19835196Y-25510349D01*
X19717754Y-25367246D01*
X19574651Y-25249804D01*
X19411386Y-25162537D01*
X19234233Y-25108799D01*
X19050000Y-25090653D01*
X18865767Y-25108799D01*
X18688615Y-25162537D01*
X18525349Y-25249804D01*
X18418107Y-25337816D01*
X18148109Y-25607814D01*
X18112247Y-25637246D01*
X18054959Y-25707052D01*
X17994804Y-25780349D01*
X17907538Y-25943614D01*
X17853799Y-26120767D01*
X17835654Y-26305000D01*
X17840201Y-26351167D01*
X17840200Y-31581001D01*
X17810537Y-31525506D01*
X17731185Y-31428815D01*
X17634494Y-31349463D01*
X17524180Y-31290498D01*
X17404482Y-31254188D01*
X17280000Y-31241928D01*
X17065750Y-31245000D01*
X16907000Y-31403750D01*
X16907000Y-34053000D01*
X16927000Y-34053000D01*
X16927000Y-34307000D01*
X16907000Y-34307000D01*
X16907000Y-36956250D01*
X17065750Y-37115000D01*
X17280000Y-37118072D01*
X17404482Y-37105812D01*
X17524180Y-37069502D01*
X17634494Y-37010537D01*
X17731185Y-36931185D01*
X17810537Y-36834494D01*
X17840201Y-36778998D01*
X17840201Y-37655726D01*
X17781185Y-37583815D01*
X17684494Y-37504463D01*
X17574180Y-37445498D01*
X17454482Y-37409188D01*
X17330000Y-37396928D01*
X17040750Y-37400000D01*
X16882000Y-37558750D01*
X16882000Y-38608000D01*
X16902000Y-38608000D01*
X16902000Y-38862000D01*
X16882000Y-38862000D01*
X16882000Y-39911250D01*
X17040750Y-40070000D01*
X17330000Y-40073072D01*
X17454482Y-40060812D01*
X17574180Y-40024502D01*
X17684494Y-39965537D01*
X17781185Y-39886185D01*
X17860537Y-39789494D01*
X17919502Y-39679180D01*
X17942607Y-39603015D01*
X17996417Y-39668583D01*
X18100051Y-39753633D01*
X18218286Y-39816831D01*
X18346579Y-39855748D01*
X18479999Y-39868889D01*
X19130001Y-39868889D01*
X19263421Y-39855748D01*
X19391714Y-39816831D01*
X19509949Y-39753633D01*
X19613583Y-39668583D01*
X19634201Y-39643460D01*
X19634200Y-49713149D01*
X19604424Y-49729065D01*
X19468201Y-49840861D01*
X19468201Y-48854565D01*
X19470904Y-48827121D01*
X19460115Y-48717577D01*
X19428162Y-48612243D01*
X19376274Y-48515166D01*
X19323938Y-48451395D01*
X19306444Y-48430078D01*
X19285126Y-48412583D01*
X13705404Y-42832862D01*
X13712670Y-42808911D01*
X13723889Y-42695000D01*
X13723889Y-42395000D01*
X13712670Y-42281089D01*
X13679443Y-42171555D01*
X13644231Y-42105678D01*
X13644494Y-42105537D01*
X13741185Y-42026185D01*
X13820537Y-41929494D01*
X13879502Y-41819180D01*
X13915812Y-41699482D01*
X13928072Y-41575000D01*
X13925000Y-41560750D01*
X13766250Y-41402000D01*
X12617000Y-41402000D01*
X12617000Y-41422000D01*
X12363000Y-41422000D01*
X12363000Y-41402000D01*
X11213750Y-41402000D01*
X11055000Y-41560750D01*
X11051928Y-41575000D01*
X11064188Y-41699482D01*
X11100498Y-41819180D01*
X11159463Y-41929494D01*
X11238815Y-42026185D01*
X11335506Y-42105537D01*
X11335769Y-42105678D01*
X11300557Y-42171555D01*
X11267330Y-42281089D01*
X11256111Y-42395000D01*
X11256111Y-42695000D01*
X11267330Y-42808911D01*
X11300557Y-42918445D01*
X11354514Y-43019391D01*
X11427128Y-43107872D01*
X11515017Y-43180000D01*
X11427128Y-43252128D01*
X11354514Y-43340609D01*
X11300557Y-43441555D01*
X11267330Y-43551089D01*
X11256111Y-43665000D01*
X11256111Y-43965000D01*
X11267330Y-44078911D01*
X11300557Y-44188445D01*
X11354514Y-44289391D01*
X11427128Y-44377872D01*
X11515017Y-44450000D01*
X11427128Y-44522128D01*
X11354514Y-44610609D01*
X11300557Y-44711555D01*
X11267330Y-44821089D01*
X11256111Y-44935000D01*
X11256111Y-45235000D01*
X11267330Y-45348911D01*
X11300557Y-45458445D01*
X11354514Y-45559391D01*
X11427128Y-45647872D01*
X11515609Y-45720486D01*
X11616555Y-45774443D01*
X11726089Y-45807670D01*
X11840000Y-45818889D01*
X11931201Y-45818889D01*
X11931201Y-45825581D01*
X11915758Y-45835899D01*
X11799899Y-45951758D01*
X11708868Y-46087995D01*
X11646165Y-46239373D01*
X11616674Y-46387638D01*
X11565859Y-46345936D01*
X11468783Y-46294048D01*
X11363449Y-46262095D01*
X11281349Y-46254009D01*
X11281347Y-46254009D01*
X11253905Y-46251306D01*
X11226463Y-46254009D01*
X11196551Y-46254009D01*
X9040252Y-44097710D01*
X9040247Y-44097704D01*
X6505404Y-41562862D01*
X6512670Y-41538911D01*
X6523889Y-41425000D01*
X6523889Y-41332293D01*
X6590995Y-41377132D01*
X6742373Y-41439835D01*
X6903075Y-41471800D01*
X7066925Y-41471800D01*
X7227627Y-41439835D01*
X7379005Y-41377132D01*
X7515242Y-41286101D01*
X7631101Y-41170242D01*
X7722132Y-41034005D01*
X7746572Y-40975000D01*
X11051928Y-40975000D01*
X11055000Y-40989250D01*
X11213750Y-41148000D01*
X12363000Y-41148000D01*
X12363000Y-40498750D01*
X12617000Y-40498750D01*
X12617000Y-41148000D01*
X13766250Y-41148000D01*
X13925000Y-40989250D01*
X13928072Y-40975000D01*
X13915812Y-40850518D01*
X13879502Y-40730820D01*
X13820537Y-40620506D01*
X13741185Y-40523815D01*
X13644494Y-40444463D01*
X13534180Y-40385498D01*
X13414482Y-40349188D01*
X13290000Y-40336928D01*
X12775750Y-40340000D01*
X12617000Y-40498750D01*
X12363000Y-40498750D01*
X12204250Y-40340000D01*
X11690000Y-40336928D01*
X11565518Y-40349188D01*
X11445820Y-40385498D01*
X11335506Y-40444463D01*
X11238815Y-40523815D01*
X11159463Y-40620506D01*
X11100498Y-40730820D01*
X11064188Y-40850518D01*
X11051928Y-40975000D01*
X7746572Y-40975000D01*
X7784835Y-40882627D01*
X7816800Y-40721925D01*
X7816800Y-40558075D01*
X7784835Y-40397373D01*
X7722132Y-40245995D01*
X7631101Y-40109758D01*
X7515242Y-39993899D01*
X7379005Y-39902868D01*
X7227627Y-39840165D01*
X7137008Y-39822140D01*
X5594399Y-38279532D01*
X5594399Y-36384107D01*
X5633075Y-36391800D01*
X5796925Y-36391800D01*
X5957627Y-36359835D01*
X6109005Y-36297132D01*
X6245242Y-36206101D01*
X6299200Y-36152143D01*
X6299200Y-36359171D01*
X6247868Y-36435995D01*
X6185165Y-36587373D01*
X6153200Y-36748075D01*
X6153200Y-36911925D01*
X6185165Y-37072627D01*
X6247868Y-37224005D01*
X6338899Y-37360242D01*
X6454758Y-37476101D01*
X6590995Y-37567132D01*
X6742373Y-37629835D01*
X6903075Y-37661800D01*
X7066925Y-37661800D01*
X7227627Y-37629835D01*
X7379005Y-37567132D01*
X7515242Y-37476101D01*
X7569200Y-37422143D01*
X7569200Y-37629171D01*
X7517868Y-37705995D01*
X7455165Y-37857373D01*
X7423200Y-38018075D01*
X7423200Y-38181925D01*
X7455165Y-38342627D01*
X7517868Y-38494005D01*
X7608899Y-38630242D01*
X7724758Y-38746101D01*
X7860995Y-38837132D01*
X8012373Y-38899835D01*
X8173075Y-38931800D01*
X8336925Y-38931800D01*
X8497627Y-38899835D01*
X8649005Y-38837132D01*
X8785242Y-38746101D01*
X8901101Y-38630242D01*
X8992132Y-38494005D01*
X9054835Y-38342627D01*
X9086800Y-38181925D01*
X9086800Y-38018075D01*
X9054835Y-37857373D01*
X8992132Y-37705995D01*
X8940800Y-37629172D01*
X8940800Y-32342143D01*
X8994758Y-32396101D01*
X9130995Y-32487132D01*
X9282373Y-32549835D01*
X9443075Y-32581800D01*
X9606925Y-32581800D01*
X9767627Y-32549835D01*
X9919005Y-32487132D01*
X10055242Y-32396101D01*
X10109200Y-32342143D01*
X10109200Y-39070571D01*
X10057868Y-39147395D01*
X9995165Y-39298773D01*
X9963200Y-39459475D01*
X9963200Y-39623325D01*
X9995165Y-39784027D01*
X10057868Y-39935405D01*
X10148899Y-40071642D01*
X10264758Y-40187501D01*
X10400995Y-40278532D01*
X10552373Y-40341235D01*
X10713075Y-40373200D01*
X10876925Y-40373200D01*
X11037627Y-40341235D01*
X11189005Y-40278532D01*
X11325242Y-40187501D01*
X11441101Y-40071642D01*
X11532132Y-39935405D01*
X11594835Y-39784027D01*
X11626800Y-39623325D01*
X11626800Y-39459475D01*
X11621932Y-39435000D01*
X15541928Y-39435000D01*
X15554188Y-39559482D01*
X15590498Y-39679180D01*
X15649463Y-39789494D01*
X15728815Y-39886185D01*
X15825506Y-39965537D01*
X15935820Y-40024502D01*
X16055518Y-40060812D01*
X16180000Y-40073072D01*
X16469250Y-40070000D01*
X16628000Y-39911250D01*
X16628000Y-38862000D01*
X15703750Y-38862000D01*
X15545000Y-39020750D01*
X15541928Y-39435000D01*
X11621932Y-39435000D01*
X11594835Y-39298773D01*
X11532132Y-39147395D01*
X11480800Y-39070572D01*
X11480800Y-38035000D01*
X15541928Y-38035000D01*
X15545000Y-38449250D01*
X15703750Y-38608000D01*
X16628000Y-38608000D01*
X16628000Y-37558750D01*
X16469250Y-37400000D01*
X16180000Y-37396928D01*
X16055518Y-37409188D01*
X15935820Y-37445498D01*
X15825506Y-37504463D01*
X15728815Y-37583815D01*
X15649463Y-37680506D01*
X15590498Y-37790820D01*
X15554188Y-37910518D01*
X15541928Y-38035000D01*
X11480800Y-38035000D01*
X11480800Y-36480000D01*
X15641928Y-36480000D01*
X15654188Y-36604482D01*
X15690498Y-36724180D01*
X15749463Y-36834494D01*
X15828815Y-36931185D01*
X15925506Y-37010537D01*
X16035820Y-37069502D01*
X16155518Y-37105812D01*
X16280000Y-37118072D01*
X16494250Y-37115000D01*
X16653000Y-36956250D01*
X16653000Y-34307000D01*
X15803750Y-34307000D01*
X15645000Y-34465750D01*
X15641928Y-36480000D01*
X11480800Y-36480000D01*
X11480800Y-34882143D01*
X11534758Y-34936101D01*
X11670995Y-35027132D01*
X11822373Y-35089835D01*
X11983075Y-35121800D01*
X12146925Y-35121800D01*
X12307627Y-35089835D01*
X12459005Y-35027132D01*
X12595242Y-34936101D01*
X12711101Y-34820242D01*
X12802132Y-34684005D01*
X12864835Y-34532627D01*
X12896800Y-34371925D01*
X12896800Y-34208075D01*
X12864835Y-34047373D01*
X12802132Y-33895995D01*
X12750800Y-33819172D01*
X12750800Y-31880000D01*
X15641928Y-31880000D01*
X15645000Y-33894250D01*
X15803750Y-34053000D01*
X16653000Y-34053000D01*
X16653000Y-31403750D01*
X16494250Y-31245000D01*
X16280000Y-31241928D01*
X16155518Y-31254188D01*
X16035820Y-31290498D01*
X15925506Y-31349463D01*
X15828815Y-31428815D01*
X15749463Y-31525506D01*
X15690498Y-31635820D01*
X15654188Y-31755518D01*
X15641928Y-31880000D01*
X12750800Y-31880000D01*
X12750800Y-27280000D01*
X13146111Y-27280000D01*
X13146111Y-30680000D01*
X13154448Y-30764648D01*
X13179139Y-30846042D01*
X13219234Y-30921056D01*
X13273194Y-30986806D01*
X13338944Y-31040766D01*
X13413958Y-31080861D01*
X13495352Y-31105552D01*
X13580000Y-31113889D01*
X15180000Y-31113889D01*
X15264648Y-31105552D01*
X15346042Y-31080861D01*
X15421056Y-31040766D01*
X15486806Y-30986806D01*
X15540766Y-30921056D01*
X15580861Y-30846042D01*
X15605552Y-30764648D01*
X15613889Y-30680000D01*
X15613889Y-27280000D01*
X15605552Y-27195352D01*
X15580861Y-27113958D01*
X15540766Y-27038944D01*
X15486806Y-26973194D01*
X15421056Y-26919234D01*
X15346042Y-26879139D01*
X15264648Y-26854448D01*
X15180000Y-26846111D01*
X13580000Y-26846111D01*
X13495352Y-26854448D01*
X13413958Y-26879139D01*
X13338944Y-26919234D01*
X13273194Y-26973194D01*
X13219234Y-27038944D01*
X13179139Y-27113958D01*
X13154448Y-27195352D01*
X13146111Y-27280000D01*
X12750800Y-27280000D01*
X12750800Y-17794146D01*
X12760820Y-17799502D01*
X12880518Y-17835812D01*
X13005000Y-17848072D01*
X13294250Y-17845000D01*
X13453000Y-17686250D01*
X13453000Y-16637000D01*
X13433000Y-16637000D01*
X13433000Y-16383000D01*
X13453000Y-16383000D01*
X13453000Y-16363000D01*
X13707000Y-16363000D01*
X13707000Y-16383000D01*
X13727000Y-16383000D01*
X13727000Y-16637000D01*
X13707000Y-16637000D01*
X13707000Y-17686250D01*
X13865750Y-17845000D01*
X14155000Y-17848072D01*
X14279482Y-17835812D01*
X14399180Y-17799502D01*
X14509494Y-17740537D01*
X14606185Y-17661185D01*
X14685537Y-17564494D01*
X14744502Y-17454180D01*
X14767607Y-17378015D01*
X14821417Y-17443583D01*
X14925051Y-17528633D01*
X15043286Y-17591831D01*
X15171579Y-17630748D01*
X15304999Y-17643889D01*
X15955001Y-17643889D01*
X16088421Y-17630748D01*
X16216714Y-17591831D01*
X16334949Y-17528633D01*
X16438583Y-17443583D01*
X16523633Y-17339949D01*
X16586831Y-17221714D01*
X16625748Y-17093421D01*
X16638889Y-16960001D01*
X16638889Y-16815614D01*
X16660196Y-16789651D01*
X16747463Y-16626386D01*
X16801202Y-16449233D01*
X16814800Y-16311167D01*
X16814800Y-16311158D01*
X16819346Y-16265001D01*
X16814800Y-16218844D01*
X16814800Y-15030364D01*
X16945935Y-14870576D01*
X17064959Y-14647897D01*
X17138253Y-14406277D01*
X17156800Y-14217969D01*
X17156800Y-13252032D01*
X17138253Y-13063723D01*
X17064959Y-12822103D01*
X16945935Y-12599424D01*
X16814800Y-12439636D01*
X16814800Y-11690364D01*
X16945935Y-11530576D01*
X17064959Y-11307897D01*
X17138253Y-11066277D01*
X17156800Y-10877969D01*
X17156800Y-9912032D01*
X17138253Y-9723723D01*
X17064959Y-9482103D01*
X16945935Y-9259424D01*
X16892899Y-9194800D01*
X25017101Y-9194800D01*
X24964065Y-9259424D01*
G36*
X44145201Y-25153077D02*
G01*
X43999233Y-25108799D01*
X43815000Y-25090654D01*
X43630766Y-25108799D01*
X43453614Y-25162537D01*
X43290348Y-25249804D01*
X43183106Y-25337816D01*
X42032110Y-26488814D01*
X41996247Y-26518246D01*
X41938959Y-26588052D01*
X41878804Y-26661349D01*
X41791538Y-26824614D01*
X41737799Y-27001767D01*
X41719654Y-27186000D01*
X41724201Y-27232167D01*
X41724200Y-30817843D01*
X41719654Y-30864000D01*
X41724200Y-30910157D01*
X41724200Y-30910166D01*
X41737798Y-31048232D01*
X41791537Y-31225385D01*
X41801309Y-31243667D01*
X41680000Y-31241928D01*
X41555518Y-31254188D01*
X41435820Y-31290498D01*
X41325506Y-31349463D01*
X41228815Y-31428815D01*
X41149463Y-31525506D01*
X41090498Y-31635820D01*
X41054188Y-31755518D01*
X41041928Y-31880000D01*
X41045000Y-33894250D01*
X41203750Y-34053000D01*
X42053000Y-34053000D01*
X42053000Y-34033000D01*
X42307000Y-34033000D01*
X42307000Y-34053000D01*
X42327000Y-34053000D01*
X42327000Y-34307000D01*
X42307000Y-34307000D01*
X42307000Y-36956250D01*
X42465750Y-37115000D01*
X42680000Y-37118072D01*
X42804482Y-37105812D01*
X42924180Y-37069502D01*
X43034494Y-37010537D01*
X43131185Y-36931185D01*
X43210537Y-36834494D01*
X43265200Y-36732228D01*
X43265200Y-37689230D01*
X43260537Y-37680506D01*
X43181185Y-37583815D01*
X43084494Y-37504463D01*
X42974180Y-37445498D01*
X42854482Y-37409188D01*
X42730000Y-37396928D01*
X42440750Y-37400000D01*
X42282000Y-37558750D01*
X42282000Y-38608000D01*
X42302000Y-38608000D01*
X42302000Y-38862000D01*
X42282000Y-38862000D01*
X42282000Y-39911250D01*
X42440750Y-40070000D01*
X42730000Y-40073072D01*
X42854482Y-40060812D01*
X42974180Y-40024502D01*
X43084494Y-39965537D01*
X43181185Y-39886185D01*
X43260537Y-39789494D01*
X43319502Y-39679180D01*
X43342607Y-39603015D01*
X43392200Y-39663445D01*
X43392201Y-43184021D01*
X43387217Y-43181957D01*
X43226515Y-43149992D01*
X43062665Y-43149992D01*
X42901963Y-43181957D01*
X42750585Y-43244660D01*
X42614348Y-43335691D01*
X42498489Y-43451550D01*
X42407458Y-43587787D01*
X42344755Y-43739165D01*
X42312790Y-43899867D01*
X42312790Y-44063717D01*
X42344755Y-44224419D01*
X42407458Y-44375797D01*
X42498489Y-44512034D01*
X42611191Y-44624736D01*
X42611190Y-46736049D01*
X42608611Y-46762236D01*
X42611190Y-46788423D01*
X42611190Y-46788430D01*
X42618909Y-46866800D01*
X42649409Y-46967346D01*
X42698939Y-47060011D01*
X42765595Y-47141231D01*
X42785945Y-47157932D01*
X43912502Y-48284489D01*
X43912502Y-48472560D01*
X43840007Y-48458140D01*
X42043379Y-46661512D01*
X42043379Y-42746488D01*
X42062007Y-42727860D01*
X42152627Y-42709835D01*
X42304005Y-42647132D01*
X42440242Y-42556101D01*
X42556101Y-42440242D01*
X42647132Y-42304005D01*
X42709835Y-42152627D01*
X42741800Y-41991925D01*
X42741800Y-41828075D01*
X42709835Y-41667373D01*
X42647132Y-41515995D01*
X42556101Y-41379758D01*
X42440242Y-41263899D01*
X42304005Y-41172868D01*
X42152627Y-41110165D01*
X41991925Y-41078200D01*
X41828075Y-41078200D01*
X41667373Y-41110165D01*
X41515995Y-41172868D01*
X41379758Y-41263899D01*
X41263899Y-41379758D01*
X41172868Y-41515995D01*
X41110165Y-41667373D01*
X41092140Y-41757993D01*
X40896465Y-41953668D01*
X40870299Y-41975142D01*
X40848826Y-42001307D01*
X40848824Y-42001309D01*
X40819533Y-42037000D01*
X40784598Y-42079569D01*
X40720917Y-42198708D01*
X40681702Y-42327982D01*
X40671779Y-42428733D01*
X40671779Y-42428742D01*
X40668462Y-42462421D01*
X40671779Y-42496100D01*
X40671780Y-45829474D01*
X40055800Y-45213495D01*
X40055800Y-39435000D01*
X40941928Y-39435000D01*
X40954188Y-39559482D01*
X40990498Y-39679180D01*
X41049463Y-39789494D01*
X41128815Y-39886185D01*
X41225506Y-39965537D01*
X41335820Y-40024502D01*
X41455518Y-40060812D01*
X41580000Y-40073072D01*
X41869250Y-40070000D01*
X42028000Y-39911250D01*
X42028000Y-38862000D01*
X41103750Y-38862000D01*
X40945000Y-39020750D01*
X40941928Y-39435000D01*
X40055800Y-39435000D01*
X40055800Y-38035000D01*
X40941928Y-38035000D01*
X40945000Y-38449250D01*
X41103750Y-38608000D01*
X42028000Y-38608000D01*
X42028000Y-37558750D01*
X41869250Y-37400000D01*
X41580000Y-37396928D01*
X41455518Y-37409188D01*
X41335820Y-37445498D01*
X41225506Y-37504463D01*
X41128815Y-37583815D01*
X41049463Y-37680506D01*
X40990498Y-37790820D01*
X40954188Y-37910518D01*
X40941928Y-38035000D01*
X40055800Y-38035000D01*
X40055800Y-36665828D01*
X40107132Y-36589005D01*
X40152283Y-36480000D01*
X41041928Y-36480000D01*
X41054188Y-36604482D01*
X41090498Y-36724180D01*
X41149463Y-36834494D01*
X41228815Y-36931185D01*
X41325506Y-37010537D01*
X41435820Y-37069502D01*
X41555518Y-37105812D01*
X41680000Y-37118072D01*
X41894250Y-37115000D01*
X42053000Y-36956250D01*
X42053000Y-34307000D01*
X41203750Y-34307000D01*
X41045000Y-34465750D01*
X41041928Y-36480000D01*
X40152283Y-36480000D01*
X40169835Y-36437627D01*
X40201800Y-36276925D01*
X40201800Y-36113075D01*
X40169835Y-35952373D01*
X40107132Y-35800995D01*
X40016101Y-35664758D01*
X39900242Y-35548899D01*
X39764005Y-35457868D01*
X39612627Y-35395165D01*
X39451925Y-35363200D01*
X39288075Y-35363200D01*
X39127373Y-35395165D01*
X38975995Y-35457868D01*
X38839758Y-35548899D01*
X38723899Y-35664758D01*
X38632868Y-35800995D01*
X38570165Y-35952373D01*
X38538200Y-36113075D01*
X38538200Y-36276925D01*
X38570165Y-36437627D01*
X38632868Y-36589005D01*
X38684201Y-36665830D01*
X38684200Y-44140857D01*
X38322200Y-43778857D01*
X38322200Y-32220828D01*
X38373532Y-32144005D01*
X38436235Y-31992627D01*
X38468200Y-31831925D01*
X38468200Y-31668075D01*
X38436235Y-31507373D01*
X38373532Y-31355995D01*
X38282501Y-31219758D01*
X38166642Y-31103899D01*
X38030405Y-31012868D01*
X37879027Y-30950165D01*
X37718325Y-30918200D01*
X37554475Y-30918200D01*
X37393773Y-30950165D01*
X37242395Y-31012868D01*
X37115801Y-31097456D01*
X37115801Y-28721952D01*
X37224005Y-28677132D01*
X37360242Y-28586101D01*
X37476101Y-28470242D01*
X37567132Y-28334005D01*
X37629835Y-28182627D01*
X37661800Y-28021925D01*
X37661800Y-27858075D01*
X37629835Y-27697373D01*
X37567132Y-27545995D01*
X37476101Y-27409758D01*
X37360242Y-27293899D01*
X37339441Y-27280000D01*
X38546111Y-27280000D01*
X38546111Y-30680000D01*
X38554448Y-30764648D01*
X38579139Y-30846042D01*
X38619234Y-30921056D01*
X38673194Y-30986806D01*
X38738944Y-31040766D01*
X38813958Y-31080861D01*
X38895352Y-31105552D01*
X38980000Y-31113889D01*
X40580000Y-31113889D01*
X40664648Y-31105552D01*
X40746042Y-31080861D01*
X40821056Y-31040766D01*
X40886806Y-30986806D01*
X40940766Y-30921056D01*
X40980861Y-30846042D01*
X41005552Y-30764648D01*
X41013889Y-30680000D01*
X41013889Y-27280000D01*
X41005552Y-27195352D01*
X40980861Y-27113958D01*
X40940766Y-27038944D01*
X40886806Y-26973194D01*
X40821056Y-26919234D01*
X40746042Y-26879139D01*
X40664648Y-26854448D01*
X40580000Y-26846111D01*
X38980000Y-26846111D01*
X38895352Y-26854448D01*
X38813958Y-26879139D01*
X38738944Y-26919234D01*
X38673194Y-26973194D01*
X38619234Y-27038944D01*
X38579139Y-27113958D01*
X38554448Y-27195352D01*
X38546111Y-27280000D01*
X37339441Y-27280000D01*
X37224005Y-27202868D01*
X37072627Y-27140165D01*
X36911925Y-27108200D01*
X36748075Y-27108200D01*
X36587373Y-27140165D01*
X36435995Y-27202868D01*
X36299758Y-27293899D01*
X36183899Y-27409758D01*
X36092868Y-27545995D01*
X36030165Y-27697373D01*
X36012140Y-27787993D01*
X35968888Y-27831245D01*
X35942721Y-27852720D01*
X35921248Y-27878885D01*
X35921246Y-27878887D01*
X35907017Y-27896225D01*
X35857020Y-27957147D01*
X35793339Y-28076286D01*
X35754124Y-28205560D01*
X35744201Y-28306311D01*
X35744201Y-28306320D01*
X35740884Y-28339999D01*
X35744201Y-28373678D01*
X35744202Y-43638544D01*
X35641925Y-43618200D01*
X35478075Y-43618200D01*
X35317373Y-43650165D01*
X35165995Y-43712868D01*
X35029758Y-43803899D01*
X34975800Y-43857857D01*
X34975800Y-39840828D01*
X35027132Y-39764005D01*
X35089835Y-39612627D01*
X35121800Y-39451925D01*
X35121800Y-39288075D01*
X35089835Y-39127373D01*
X35027132Y-38975995D01*
X34936101Y-38839758D01*
X34820242Y-38723899D01*
X34684005Y-38632868D01*
X34532627Y-38570165D01*
X34371925Y-38538200D01*
X34362602Y-38538200D01*
X34392132Y-38494005D01*
X34454835Y-38342627D01*
X34486800Y-38181925D01*
X34486800Y-38018075D01*
X34454835Y-37857373D01*
X34392132Y-37705995D01*
X34340800Y-37629172D01*
X34340800Y-17210000D01*
X35226928Y-17210000D01*
X35239188Y-17334482D01*
X35275498Y-17454180D01*
X35334463Y-17564494D01*
X35413815Y-17661185D01*
X35510506Y-17740537D01*
X35620820Y-17799502D01*
X35740518Y-17835812D01*
X35865000Y-17848072D01*
X36154250Y-17845000D01*
X36313000Y-17686250D01*
X36313000Y-16637000D01*
X35388750Y-16637000D01*
X35230000Y-16795750D01*
X35226928Y-17210000D01*
X34340800Y-17210000D01*
X34340800Y-15241850D01*
X34370575Y-15225935D01*
X34565755Y-15065755D01*
X34725935Y-14870576D01*
X34816189Y-14701723D01*
X34871639Y-14840618D01*
X35030824Y-15085619D01*
X35234748Y-15294857D01*
X35382824Y-15396577D01*
X35334463Y-15455506D01*
X35275498Y-15565820D01*
X35239188Y-15685518D01*
X35226928Y-15810000D01*
X35230000Y-16224250D01*
X35388750Y-16383000D01*
X36313000Y-16383000D01*
X36313000Y-16363000D01*
X36567000Y-16363000D01*
X36567000Y-16383000D01*
X36587000Y-16383000D01*
X36587000Y-16637000D01*
X36567000Y-16637000D01*
X36567000Y-17686250D01*
X36725750Y-17845000D01*
X37015000Y-17848072D01*
X37139482Y-17835812D01*
X37259180Y-17799502D01*
X37369494Y-17740537D01*
X37466185Y-17661185D01*
X37545537Y-17564494D01*
X37604502Y-17454180D01*
X37627607Y-17378015D01*
X37681417Y-17443583D01*
X37785051Y-17528633D01*
X37903286Y-17591831D01*
X38031579Y-17630748D01*
X38164999Y-17643889D01*
X38815001Y-17643889D01*
X38948421Y-17630748D01*
X39076714Y-17591831D01*
X39194949Y-17528633D01*
X39298583Y-17443583D01*
X39383633Y-17339949D01*
X39446831Y-17221714D01*
X39485748Y-17093421D01*
X39498889Y-16960001D01*
X39498889Y-16815614D01*
X39520196Y-16789651D01*
X39607463Y-16626386D01*
X39661202Y-16449233D01*
X39674800Y-16311167D01*
X39674800Y-16311158D01*
X39679346Y-16265001D01*
X39674800Y-16218844D01*
X39674800Y-15030364D01*
X39805935Y-14870576D01*
X39924959Y-14647897D01*
X39998253Y-14406277D01*
X40016800Y-14217969D01*
X40016800Y-13252032D01*
X39998253Y-13063723D01*
X39924959Y-12822103D01*
X39805935Y-12599424D01*
X39674800Y-12439636D01*
X39674800Y-11690364D01*
X39805935Y-11530576D01*
X39924959Y-11307897D01*
X39998253Y-11066277D01*
X40016800Y-10877969D01*
X40016800Y-9912032D01*
X39998253Y-9723723D01*
X39924959Y-9482103D01*
X39805935Y-9259424D01*
X39752899Y-9194800D01*
X44145200Y-9194800D01*
X44145201Y-25153077D01*
X44145201Y-25153077D01*
G37*
X44145201Y-25153077D02*
X43999233Y-25108799D01*
X43815000Y-25090654D01*
X43630766Y-25108799D01*
X43453614Y-25162537D01*
X43290348Y-25249804D01*
X43183106Y-25337816D01*
X42032110Y-26488814D01*
X41996247Y-26518246D01*
X41938959Y-26588052D01*
X41878804Y-26661349D01*
X41791538Y-26824614D01*
X41737799Y-27001767D01*
X41719654Y-27186000D01*
X41724201Y-27232167D01*
X41724200Y-30817843D01*
X41719654Y-30864000D01*
X41724200Y-30910157D01*
X41724200Y-30910166D01*
X41737798Y-31048232D01*
X41791537Y-31225385D01*
X41801309Y-31243667D01*
X41680000Y-31241928D01*
X41555518Y-31254188D01*
X41435820Y-31290498D01*
X41325506Y-31349463D01*
X41228815Y-31428815D01*
X41149463Y-31525506D01*
X41090498Y-31635820D01*
X41054188Y-31755518D01*
X41041928Y-31880000D01*
X41045000Y-33894250D01*
X41203750Y-34053000D01*
X42053000Y-34053000D01*
X42053000Y-34033000D01*
X42307000Y-34033000D01*
X42307000Y-34053000D01*
X42327000Y-34053000D01*
X42327000Y-34307000D01*
X42307000Y-34307000D01*
X42307000Y-36956250D01*
X42465750Y-37115000D01*
X42680000Y-37118072D01*
X42804482Y-37105812D01*
X42924180Y-37069502D01*
X43034494Y-37010537D01*
X43131185Y-36931185D01*
X43210537Y-36834494D01*
X43265200Y-36732228D01*
X43265200Y-37689230D01*
X43260537Y-37680506D01*
X43181185Y-37583815D01*
X43084494Y-37504463D01*
X42974180Y-37445498D01*
X42854482Y-37409188D01*
X42730000Y-37396928D01*
X42440750Y-37400000D01*
X42282000Y-37558750D01*
X42282000Y-38608000D01*
X42302000Y-38608000D01*
X42302000Y-38862000D01*
X42282000Y-38862000D01*
X42282000Y-39911250D01*
X42440750Y-40070000D01*
X42730000Y-40073072D01*
X42854482Y-40060812D01*
X42974180Y-40024502D01*
X43084494Y-39965537D01*
X43181185Y-39886185D01*
X43260537Y-39789494D01*
X43319502Y-39679180D01*
X43342607Y-39603015D01*
X43392200Y-39663445D01*
X43392201Y-43184021D01*
X43387217Y-43181957D01*
X43226515Y-43149992D01*
X43062665Y-43149992D01*
X42901963Y-43181957D01*
X42750585Y-43244660D01*
X42614348Y-43335691D01*
X42498489Y-43451550D01*
X42407458Y-43587787D01*
X42344755Y-43739165D01*
X42312790Y-43899867D01*
X42312790Y-44063717D01*
X42344755Y-44224419D01*
X42407458Y-44375797D01*
X42498489Y-44512034D01*
X42611191Y-44624736D01*
X42611190Y-46736049D01*
X42608611Y-46762236D01*
X42611190Y-46788423D01*
X42611190Y-46788430D01*
X42618909Y-46866800D01*
X42649409Y-46967346D01*
X42698939Y-47060011D01*
X42765595Y-47141231D01*
X42785945Y-47157932D01*
X43912502Y-48284489D01*
X43912502Y-48472560D01*
X43840007Y-48458140D01*
X42043379Y-46661512D01*
X42043379Y-42746488D01*
X42062007Y-42727860D01*
X42152627Y-42709835D01*
X42304005Y-42647132D01*
X42440242Y-42556101D01*
X42556101Y-42440242D01*
X42647132Y-42304005D01*
X42709835Y-42152627D01*
X42741800Y-41991925D01*
X42741800Y-41828075D01*
X42709835Y-41667373D01*
X42647132Y-41515995D01*
X42556101Y-41379758D01*
X42440242Y-41263899D01*
X42304005Y-41172868D01*
X42152627Y-41110165D01*
X41991925Y-41078200D01*
X41828075Y-41078200D01*
X41667373Y-41110165D01*
X41515995Y-41172868D01*
X41379758Y-41263899D01*
X41263899Y-41379758D01*
X41172868Y-41515995D01*
X41110165Y-41667373D01*
X41092140Y-41757993D01*
X40896465Y-41953668D01*
X40870299Y-41975142D01*
X40848826Y-42001307D01*
X40848824Y-42001309D01*
X40819533Y-42037000D01*
X40784598Y-42079569D01*
X40720917Y-42198708D01*
X40681702Y-42327982D01*
X40671779Y-42428733D01*
X40671779Y-42428742D01*
X40668462Y-42462421D01*
X40671779Y-42496100D01*
X40671780Y-45829474D01*
X40055800Y-45213495D01*
X40055800Y-39435000D01*
X40941928Y-39435000D01*
X40954188Y-39559482D01*
X40990498Y-39679180D01*
X41049463Y-39789494D01*
X41128815Y-39886185D01*
X41225506Y-39965537D01*
X41335820Y-40024502D01*
X41455518Y-40060812D01*
X41580000Y-40073072D01*
X41869250Y-40070000D01*
X42028000Y-39911250D01*
X42028000Y-38862000D01*
X41103750Y-38862000D01*
X40945000Y-39020750D01*
X40941928Y-39435000D01*
X40055800Y-39435000D01*
X40055800Y-38035000D01*
X40941928Y-38035000D01*
X40945000Y-38449250D01*
X41103750Y-38608000D01*
X42028000Y-38608000D01*
X42028000Y-37558750D01*
X41869250Y-37400000D01*
X41580000Y-37396928D01*
X41455518Y-37409188D01*
X41335820Y-37445498D01*
X41225506Y-37504463D01*
X41128815Y-37583815D01*
X41049463Y-37680506D01*
X40990498Y-37790820D01*
X40954188Y-37910518D01*
X40941928Y-38035000D01*
X40055800Y-38035000D01*
X40055800Y-36665828D01*
X40107132Y-36589005D01*
X40152283Y-36480000D01*
X41041928Y-36480000D01*
X41054188Y-36604482D01*
X41090498Y-36724180D01*
X41149463Y-36834494D01*
X41228815Y-36931185D01*
X41325506Y-37010537D01*
X41435820Y-37069502D01*
X41555518Y-37105812D01*
X41680000Y-37118072D01*
X41894250Y-37115000D01*
X42053000Y-36956250D01*
X42053000Y-34307000D01*
X41203750Y-34307000D01*
X41045000Y-34465750D01*
X41041928Y-36480000D01*
X40152283Y-36480000D01*
X40169835Y-36437627D01*
X40201800Y-36276925D01*
X40201800Y-36113075D01*
X40169835Y-35952373D01*
X40107132Y-35800995D01*
X40016101Y-35664758D01*
X39900242Y-35548899D01*
X39764005Y-35457868D01*
X39612627Y-35395165D01*
X39451925Y-35363200D01*
X39288075Y-35363200D01*
X39127373Y-35395165D01*
X38975995Y-35457868D01*
X38839758Y-35548899D01*
X38723899Y-35664758D01*
X38632868Y-35800995D01*
X38570165Y-35952373D01*
X38538200Y-36113075D01*
X38538200Y-36276925D01*
X38570165Y-36437627D01*
X38632868Y-36589005D01*
X38684201Y-36665830D01*
X38684200Y-44140857D01*
X38322200Y-43778857D01*
X38322200Y-32220828D01*
X38373532Y-32144005D01*
X38436235Y-31992627D01*
X38468200Y-31831925D01*
X38468200Y-31668075D01*
X38436235Y-31507373D01*
X38373532Y-31355995D01*
X38282501Y-31219758D01*
X38166642Y-31103899D01*
X38030405Y-31012868D01*
X37879027Y-30950165D01*
X37718325Y-30918200D01*
X37554475Y-30918200D01*
X37393773Y-30950165D01*
X37242395Y-31012868D01*
X37115801Y-31097456D01*
X37115801Y-28721952D01*
X37224005Y-28677132D01*
X37360242Y-28586101D01*
X37476101Y-28470242D01*
X37567132Y-28334005D01*
X37629835Y-28182627D01*
X37661800Y-28021925D01*
X37661800Y-27858075D01*
X37629835Y-27697373D01*
X37567132Y-27545995D01*
X37476101Y-27409758D01*
X37360242Y-27293899D01*
X37339441Y-27280000D01*
X38546111Y-27280000D01*
X38546111Y-30680000D01*
X38554448Y-30764648D01*
X38579139Y-30846042D01*
X38619234Y-30921056D01*
X38673194Y-30986806D01*
X38738944Y-31040766D01*
X38813958Y-31080861D01*
X38895352Y-31105552D01*
X38980000Y-31113889D01*
X40580000Y-31113889D01*
X40664648Y-31105552D01*
X40746042Y-31080861D01*
X40821056Y-31040766D01*
X40886806Y-30986806D01*
X40940766Y-30921056D01*
X40980861Y-30846042D01*
X41005552Y-30764648D01*
X41013889Y-30680000D01*
X41013889Y-27280000D01*
X41005552Y-27195352D01*
X40980861Y-27113958D01*
X40940766Y-27038944D01*
X40886806Y-26973194D01*
X40821056Y-26919234D01*
X40746042Y-26879139D01*
X40664648Y-26854448D01*
X40580000Y-26846111D01*
X38980000Y-26846111D01*
X38895352Y-26854448D01*
X38813958Y-26879139D01*
X38738944Y-26919234D01*
X38673194Y-26973194D01*
X38619234Y-27038944D01*
X38579139Y-27113958D01*
X38554448Y-27195352D01*
X38546111Y-27280000D01*
X37339441Y-27280000D01*
X37224005Y-27202868D01*
X37072627Y-27140165D01*
X36911925Y-27108200D01*
X36748075Y-27108200D01*
X36587373Y-27140165D01*
X36435995Y-27202868D01*
X36299758Y-27293899D01*
X36183899Y-27409758D01*
X36092868Y-27545995D01*
X36030165Y-27697373D01*
X36012140Y-27787993D01*
X35968888Y-27831245D01*
X35942721Y-27852720D01*
X35921248Y-27878885D01*
X35921246Y-27878887D01*
X35907017Y-27896225D01*
X35857020Y-27957147D01*
X35793339Y-28076286D01*
X35754124Y-28205560D01*
X35744201Y-28306311D01*
X35744201Y-28306320D01*
X35740884Y-28339999D01*
X35744201Y-28373678D01*
X35744202Y-43638544D01*
X35641925Y-43618200D01*
X35478075Y-43618200D01*
X35317373Y-43650165D01*
X35165995Y-43712868D01*
X35029758Y-43803899D01*
X34975800Y-43857857D01*
X34975800Y-39840828D01*
X35027132Y-39764005D01*
X35089835Y-39612627D01*
X35121800Y-39451925D01*
X35121800Y-39288075D01*
X35089835Y-39127373D01*
X35027132Y-38975995D01*
X34936101Y-38839758D01*
X34820242Y-38723899D01*
X34684005Y-38632868D01*
X34532627Y-38570165D01*
X34371925Y-38538200D01*
X34362602Y-38538200D01*
X34392132Y-38494005D01*
X34454835Y-38342627D01*
X34486800Y-38181925D01*
X34486800Y-38018075D01*
X34454835Y-37857373D01*
X34392132Y-37705995D01*
X34340800Y-37629172D01*
X34340800Y-17210000D01*
X35226928Y-17210000D01*
X35239188Y-17334482D01*
X35275498Y-17454180D01*
X35334463Y-17564494D01*
X35413815Y-17661185D01*
X35510506Y-17740537D01*
X35620820Y-17799502D01*
X35740518Y-17835812D01*
X35865000Y-17848072D01*
X36154250Y-17845000D01*
X36313000Y-17686250D01*
X36313000Y-16637000D01*
X35388750Y-16637000D01*
X35230000Y-16795750D01*
X35226928Y-17210000D01*
X34340800Y-17210000D01*
X34340800Y-15241850D01*
X34370575Y-15225935D01*
X34565755Y-15065755D01*
X34725935Y-14870576D01*
X34816189Y-14701723D01*
X34871639Y-14840618D01*
X35030824Y-15085619D01*
X35234748Y-15294857D01*
X35382824Y-15396577D01*
X35334463Y-15455506D01*
X35275498Y-15565820D01*
X35239188Y-15685518D01*
X35226928Y-15810000D01*
X35230000Y-16224250D01*
X35388750Y-16383000D01*
X36313000Y-16383000D01*
X36313000Y-16363000D01*
X36567000Y-16363000D01*
X36567000Y-16383000D01*
X36587000Y-16383000D01*
X36587000Y-16637000D01*
X36567000Y-16637000D01*
X36567000Y-17686250D01*
X36725750Y-17845000D01*
X37015000Y-17848072D01*
X37139482Y-17835812D01*
X37259180Y-17799502D01*
X37369494Y-17740537D01*
X37466185Y-17661185D01*
X37545537Y-17564494D01*
X37604502Y-17454180D01*
X37627607Y-17378015D01*
X37681417Y-17443583D01*
X37785051Y-17528633D01*
X37903286Y-17591831D01*
X38031579Y-17630748D01*
X38164999Y-17643889D01*
X38815001Y-17643889D01*
X38948421Y-17630748D01*
X39076714Y-17591831D01*
X39194949Y-17528633D01*
X39298583Y-17443583D01*
X39383633Y-17339949D01*
X39446831Y-17221714D01*
X39485748Y-17093421D01*
X39498889Y-16960001D01*
X39498889Y-16815614D01*
X39520196Y-16789651D01*
X39607463Y-16626386D01*
X39661202Y-16449233D01*
X39674800Y-16311167D01*
X39674800Y-16311158D01*
X39679346Y-16265001D01*
X39674800Y-16218844D01*
X39674800Y-15030364D01*
X39805935Y-14870576D01*
X39924959Y-14647897D01*
X39998253Y-14406277D01*
X40016800Y-14217969D01*
X40016800Y-13252032D01*
X39998253Y-13063723D01*
X39924959Y-12822103D01*
X39805935Y-12599424D01*
X39674800Y-12439636D01*
X39674800Y-11690364D01*
X39805935Y-11530576D01*
X39924959Y-11307897D01*
X39998253Y-11066277D01*
X40016800Y-10877969D01*
X40016800Y-9912032D01*
X39998253Y-9723723D01*
X39924959Y-9482103D01*
X39805935Y-9259424D01*
X39752899Y-9194800D01*
X44145200Y-9194800D01*
X44145201Y-25153077D01*
G36*
X50233226Y-46018446D02*
G01*
X50369463Y-46109477D01*
X50520841Y-46172180D01*
X50681543Y-46204145D01*
X50845393Y-46204145D01*
X51006095Y-46172180D01*
X51157473Y-46109477D01*
X51207574Y-46076000D01*
X51207574Y-46086671D01*
X51239539Y-46247373D01*
X51302242Y-46398751D01*
X51393273Y-46534988D01*
X51509132Y-46650847D01*
X51645369Y-46741878D01*
X51796747Y-46804581D01*
X51957449Y-46836546D01*
X52121299Y-46836546D01*
X52282001Y-46804581D01*
X52433379Y-46741878D01*
X52513041Y-46688649D01*
X51475091Y-47726600D01*
X51442943Y-47726600D01*
X51330242Y-47613899D01*
X51194005Y-47522868D01*
X51042627Y-47460165D01*
X50881925Y-47428200D01*
X50718075Y-47428200D01*
X50557373Y-47460165D01*
X50405995Y-47522868D01*
X50269758Y-47613899D01*
X50215800Y-47667857D01*
X50215800Y-46001020D01*
X50233226Y-46018446D01*
X50233226Y-46018446D01*
G37*
X50233226Y-46018446D02*
X50369463Y-46109477D01*
X50520841Y-46172180D01*
X50681543Y-46204145D01*
X50845393Y-46204145D01*
X51006095Y-46172180D01*
X51157473Y-46109477D01*
X51207574Y-46076000D01*
X51207574Y-46086671D01*
X51239539Y-46247373D01*
X51302242Y-46398751D01*
X51393273Y-46534988D01*
X51509132Y-46650847D01*
X51645369Y-46741878D01*
X51796747Y-46804581D01*
X51957449Y-46836546D01*
X52121299Y-46836546D01*
X52282001Y-46804581D01*
X52433379Y-46741878D01*
X52513041Y-46688649D01*
X51475091Y-47726600D01*
X51442943Y-47726600D01*
X51330242Y-47613899D01*
X51194005Y-47522868D01*
X51042627Y-47460165D01*
X50881925Y-47428200D01*
X50718075Y-47428200D01*
X50557373Y-47460165D01*
X50405995Y-47522868D01*
X50269758Y-47613899D01*
X50215800Y-47667857D01*
X50215800Y-46001020D01*
X50233226Y-46018446D01*
G36*
X52990750Y-46050000D02*
G01*
X53125611Y-46051000D01*
X53125611Y-46076079D01*
X52723277Y-46478413D01*
X52776506Y-46398751D01*
X52839209Y-46247373D01*
X52871174Y-46086671D01*
X52871174Y-45930424D01*
X52990750Y-46050000D01*
X52990750Y-46050000D01*
G37*
X52990750Y-46050000D02*
X53125611Y-46051000D01*
X53125611Y-46076079D01*
X52723277Y-46478413D01*
X52776506Y-46398751D01*
X52839209Y-46247373D01*
X52871174Y-46086671D01*
X52871174Y-45930424D01*
X52990750Y-46050000D01*
G36*
X45295539Y-32635895D02*
G01*
X45324968Y-32671754D01*
X45360826Y-32701182D01*
X45360828Y-32701184D01*
X45468070Y-32789196D01*
X45592334Y-32855616D01*
X45631336Y-32876463D01*
X45808489Y-32930202D01*
X45946555Y-32943800D01*
X45946565Y-32943800D01*
X45992722Y-32948346D01*
X46038879Y-32943800D01*
X46274147Y-32943800D01*
X46412213Y-32930202D01*
X46589366Y-32876463D01*
X46697823Y-32818491D01*
X46697824Y-36410018D01*
X46697823Y-36410028D01*
X46697823Y-37333760D01*
X46635816Y-37308076D01*
X46475114Y-37276111D01*
X46311264Y-37276111D01*
X46150562Y-37308076D01*
X45999184Y-37370779D01*
X45862947Y-37461810D01*
X45747088Y-37577669D01*
X45656057Y-37713906D01*
X45593354Y-37865284D01*
X45561389Y-38025986D01*
X45561389Y-38189836D01*
X45593354Y-38350538D01*
X45656057Y-38501916D01*
X45707390Y-38578741D01*
X45707389Y-45827917D01*
X45017800Y-45138328D01*
X45017800Y-39663445D01*
X45098633Y-39564949D01*
X45161831Y-39446714D01*
X45200748Y-39318421D01*
X45213889Y-39185001D01*
X45213889Y-38284999D01*
X45200748Y-38151579D01*
X45161831Y-38023286D01*
X45144800Y-37991423D01*
X45144800Y-34251156D01*
X45149346Y-34204999D01*
X45144800Y-34158842D01*
X45144800Y-34158833D01*
X45131202Y-34020767D01*
X45119800Y-33983180D01*
X45119800Y-32460156D01*
X45295539Y-32635895D01*
X45295539Y-32635895D01*
G37*
X45295539Y-32635895D02*
X45324968Y-32671754D01*
X45360826Y-32701182D01*
X45360828Y-32701184D01*
X45468070Y-32789196D01*
X45592334Y-32855616D01*
X45631336Y-32876463D01*
X45808489Y-32930202D01*
X45946555Y-32943800D01*
X45946565Y-32943800D01*
X45992722Y-32948346D01*
X46038879Y-32943800D01*
X46274147Y-32943800D01*
X46412213Y-32930202D01*
X46589366Y-32876463D01*
X46697823Y-32818491D01*
X46697824Y-36410018D01*
X46697823Y-36410028D01*
X46697823Y-37333760D01*
X46635816Y-37308076D01*
X46475114Y-37276111D01*
X46311264Y-37276111D01*
X46150562Y-37308076D01*
X45999184Y-37370779D01*
X45862947Y-37461810D01*
X45747088Y-37577669D01*
X45656057Y-37713906D01*
X45593354Y-37865284D01*
X45561389Y-38025986D01*
X45561389Y-38189836D01*
X45593354Y-38350538D01*
X45656057Y-38501916D01*
X45707390Y-38578741D01*
X45707389Y-45827917D01*
X45017800Y-45138328D01*
X45017800Y-39663445D01*
X45098633Y-39564949D01*
X45161831Y-39446714D01*
X45200748Y-39318421D01*
X45213889Y-39185001D01*
X45213889Y-38284999D01*
X45200748Y-38151579D01*
X45161831Y-38023286D01*
X45144800Y-37991423D01*
X45144800Y-34251156D01*
X45149346Y-34204999D01*
X45144800Y-34158842D01*
X45144800Y-34158833D01*
X45131202Y-34020767D01*
X45119800Y-33983180D01*
X45119800Y-32460156D01*
X45295539Y-32635895D01*
G36*
X52832000Y-44713000D02*
G01*
X52852000Y-44713000D01*
X52852000Y-44967000D01*
X52832000Y-44967000D01*
X52832000Y-44987000D01*
X52578000Y-44987000D01*
X52578000Y-44967000D01*
X52558000Y-44967000D01*
X52558000Y-44713000D01*
X52578000Y-44713000D01*
X52578000Y-44693000D01*
X52832000Y-44693000D01*
X52832000Y-44713000D01*
X52832000Y-44713000D01*
G37*
X52832000Y-44713000D02*
X52852000Y-44713000D01*
X52852000Y-44967000D01*
X52832000Y-44967000D01*
X52832000Y-44987000D01*
X52578000Y-44987000D01*
X52578000Y-44967000D01*
X52558000Y-44967000D01*
X52558000Y-44713000D01*
X52578000Y-44713000D01*
X52578000Y-44693000D01*
X52832000Y-44693000D01*
X52832000Y-44713000D01*
G36*
X49320589Y-32625527D02*
G01*
X49398959Y-32633246D01*
X49398960Y-32633246D01*
X49425154Y-32635826D01*
X49451348Y-32633246D01*
X51266261Y-32633246D01*
X51258568Y-32671922D01*
X51258568Y-32835772D01*
X51290533Y-32996474D01*
X51347688Y-33134458D01*
X51280360Y-33276354D01*
X51240195Y-33435855D01*
X51231921Y-33600128D01*
X51255853Y-33762858D01*
X51311072Y-33917792D01*
X51350869Y-33992247D01*
X51461420Y-33988972D01*
X51387339Y-34063053D01*
X51461510Y-34137224D01*
X51408163Y-34181005D01*
X51391465Y-34201352D01*
X49586629Y-36006188D01*
X49598072Y-35890000D01*
X49595000Y-35600750D01*
X49436250Y-35442000D01*
X48387000Y-35442000D01*
X48387000Y-36366250D01*
X48545750Y-36525000D01*
X48960000Y-36528072D01*
X49076188Y-36516629D01*
X48739025Y-36853792D01*
X48672405Y-36881387D01*
X48536168Y-36972418D01*
X48420309Y-37088277D01*
X48329278Y-37224514D01*
X48266575Y-37375892D01*
X48234610Y-37536594D01*
X48234610Y-37700444D01*
X48266575Y-37861146D01*
X48329278Y-38012524D01*
X48420309Y-38148761D01*
X48533010Y-38261462D01*
X48533011Y-42665740D01*
X48089440Y-43109312D01*
X48079531Y-43099403D01*
X48077195Y-43097842D01*
X48074970Y-43075254D01*
X48044470Y-42974708D01*
X47994940Y-42882044D01*
X47928284Y-42800824D01*
X47907934Y-42784123D01*
X47764623Y-42640812D01*
X47764623Y-36526555D01*
X47974250Y-36525000D01*
X48133000Y-36366250D01*
X48133000Y-35442000D01*
X48113000Y-35442000D01*
X48113000Y-35188000D01*
X48133000Y-35188000D01*
X48133000Y-35168000D01*
X48387000Y-35168000D01*
X48387000Y-35188000D01*
X49436250Y-35188000D01*
X49595000Y-35029250D01*
X49598072Y-34740000D01*
X49585812Y-34615518D01*
X49549502Y-34495820D01*
X49490537Y-34385506D01*
X49411185Y-34288815D01*
X49314494Y-34209463D01*
X49204180Y-34150498D01*
X49128015Y-34127393D01*
X49193583Y-34073583D01*
X49278633Y-33969949D01*
X49341831Y-33851714D01*
X49380748Y-33723421D01*
X49393889Y-33590001D01*
X49393889Y-32939999D01*
X49380748Y-32806579D01*
X49341831Y-32678286D01*
X49312284Y-32623008D01*
X49320589Y-32625527D01*
X49320589Y-32625527D01*
G37*
X49320589Y-32625527D02*
X49398959Y-32633246D01*
X49398960Y-32633246D01*
X49425154Y-32635826D01*
X49451348Y-32633246D01*
X51266261Y-32633246D01*
X51258568Y-32671922D01*
X51258568Y-32835772D01*
X51290533Y-32996474D01*
X51347688Y-33134458D01*
X51280360Y-33276354D01*
X51240195Y-33435855D01*
X51231921Y-33600128D01*
X51255853Y-33762858D01*
X51311072Y-33917792D01*
X51350869Y-33992247D01*
X51461420Y-33988972D01*
X51387339Y-34063053D01*
X51461510Y-34137224D01*
X51408163Y-34181005D01*
X51391465Y-34201352D01*
X49586629Y-36006188D01*
X49598072Y-35890000D01*
X49595000Y-35600750D01*
X49436250Y-35442000D01*
X48387000Y-35442000D01*
X48387000Y-36366250D01*
X48545750Y-36525000D01*
X48960000Y-36528072D01*
X49076188Y-36516629D01*
X48739025Y-36853792D01*
X48672405Y-36881387D01*
X48536168Y-36972418D01*
X48420309Y-37088277D01*
X48329278Y-37224514D01*
X48266575Y-37375892D01*
X48234610Y-37536594D01*
X48234610Y-37700444D01*
X48266575Y-37861146D01*
X48329278Y-38012524D01*
X48420309Y-38148761D01*
X48533010Y-38261462D01*
X48533011Y-42665740D01*
X48089440Y-43109312D01*
X48079531Y-43099403D01*
X48077195Y-43097842D01*
X48074970Y-43075254D01*
X48044470Y-42974708D01*
X47994940Y-42882044D01*
X47928284Y-42800824D01*
X47907934Y-42784123D01*
X47764623Y-42640812D01*
X47764623Y-36526555D01*
X47974250Y-36525000D01*
X48133000Y-36366250D01*
X48133000Y-35442000D01*
X48113000Y-35442000D01*
X48113000Y-35188000D01*
X48133000Y-35188000D01*
X48133000Y-35168000D01*
X48387000Y-35168000D01*
X48387000Y-35188000D01*
X49436250Y-35188000D01*
X49595000Y-35029250D01*
X49598072Y-34740000D01*
X49585812Y-34615518D01*
X49549502Y-34495820D01*
X49490537Y-34385506D01*
X49411185Y-34288815D01*
X49314494Y-34209463D01*
X49204180Y-34150498D01*
X49128015Y-34127393D01*
X49193583Y-34073583D01*
X49278633Y-33969949D01*
X49341831Y-33851714D01*
X49380748Y-33723421D01*
X49393889Y-33590001D01*
X49393889Y-32939999D01*
X49380748Y-32806579D01*
X49341831Y-32678286D01*
X49312284Y-32623008D01*
X49320589Y-32625527D01*
G36*
X59182000Y-42028000D02*
G01*
X59202000Y-42028000D01*
X59202000Y-42282000D01*
X59182000Y-42282000D01*
X59182000Y-42302000D01*
X58928000Y-42302000D01*
X58928000Y-42282000D01*
X58908000Y-42282000D01*
X58908000Y-42028000D01*
X58928000Y-42028000D01*
X58928000Y-42008000D01*
X59182000Y-42008000D01*
X59182000Y-42028000D01*
X59182000Y-42028000D01*
G37*
X59182000Y-42028000D02*
X59202000Y-42028000D01*
X59202000Y-42282000D01*
X59182000Y-42282000D01*
X59182000Y-42302000D01*
X58928000Y-42302000D01*
X58928000Y-42282000D01*
X58908000Y-42282000D01*
X58908000Y-42028000D01*
X58928000Y-42028000D01*
X58928000Y-42008000D01*
X59182000Y-42008000D01*
X59182000Y-42028000D01*
G36*
X62292000Y-41783000D02*
G01*
X62312000Y-41783000D01*
X62312000Y-42037000D01*
X62292000Y-42037000D01*
X62292000Y-42057000D01*
X62038000Y-42057000D01*
X62038000Y-42037000D01*
X62018000Y-42037000D01*
X62018000Y-41783000D01*
X62038000Y-41783000D01*
X62038000Y-41763000D01*
X62292000Y-41763000D01*
X62292000Y-41783000D01*
X62292000Y-41783000D01*
G37*
X62292000Y-41783000D02*
X62312000Y-41783000D01*
X62312000Y-42037000D01*
X62292000Y-42037000D01*
X62292000Y-42057000D01*
X62038000Y-42057000D01*
X62038000Y-42037000D01*
X62018000Y-42037000D01*
X62018000Y-41783000D01*
X62038000Y-41783000D01*
X62038000Y-41763000D01*
X62292000Y-41763000D01*
X62292000Y-41783000D01*
G36*
X53238200Y-39747756D02*
G01*
X53270165Y-39908458D01*
X53332868Y-40059836D01*
X53415078Y-40182872D01*
X53317758Y-40247899D01*
X53201899Y-40363758D01*
X53167098Y-40415841D01*
X52903535Y-40152278D01*
X52903535Y-39966316D01*
X53238200Y-39631651D01*
X53238200Y-39747756D01*
X53238200Y-39747756D01*
G37*
X53238200Y-39747756D02*
X53270165Y-39908458D01*
X53332868Y-40059836D01*
X53415078Y-40182872D01*
X53317758Y-40247899D01*
X53201899Y-40363758D01*
X53167098Y-40415841D01*
X52903535Y-40152278D01*
X52903535Y-39966316D01*
X53238200Y-39631651D01*
X53238200Y-39747756D01*
G36*
X57973169Y-35121714D02*
G01*
X58036367Y-35239949D01*
X58121417Y-35343583D01*
X58186985Y-35397393D01*
X58110820Y-35420498D01*
X58000506Y-35479463D01*
X57903815Y-35558815D01*
X57824463Y-35655506D01*
X57765498Y-35765820D01*
X57729188Y-35885518D01*
X57716928Y-36010000D01*
X57720000Y-36299250D01*
X57878750Y-36458000D01*
X58928000Y-36458000D01*
X58928000Y-36438000D01*
X59182000Y-36438000D01*
X59182000Y-36458000D01*
X59202000Y-36458000D01*
X59202000Y-36712000D01*
X59182000Y-36712000D01*
X59182000Y-36732000D01*
X58928000Y-36732000D01*
X58928000Y-36712000D01*
X57878750Y-36712000D01*
X57720000Y-36870750D01*
X57716928Y-37160000D01*
X57729188Y-37284482D01*
X57765498Y-37404180D01*
X57824463Y-37514494D01*
X57903815Y-37611185D01*
X58000506Y-37690537D01*
X58110820Y-37749502D01*
X58230518Y-37785812D01*
X58355000Y-37798072D01*
X58577013Y-37796426D01*
X57293889Y-39079549D01*
X57192239Y-38977899D01*
X57056002Y-38886868D01*
X56904624Y-38824165D01*
X56743922Y-38792200D01*
X56580072Y-38792200D01*
X56523394Y-38803474D01*
X56503168Y-38736798D01*
X56453638Y-38644134D01*
X56386982Y-38562914D01*
X56366627Y-38546209D01*
X56267399Y-38446981D01*
X56267399Y-38291773D01*
X56428645Y-38130527D01*
X56448995Y-38113826D01*
X56515651Y-38032606D01*
X56565181Y-37939942D01*
X56595681Y-37839396D01*
X56603400Y-37761026D01*
X56603400Y-37761019D01*
X56605979Y-37734832D01*
X56603400Y-37708645D01*
X56603400Y-36898921D01*
X56629894Y-36859270D01*
X56677520Y-36744289D01*
X56701800Y-36622227D01*
X56701800Y-36497773D01*
X56677520Y-36375711D01*
X56629894Y-36260730D01*
X56560751Y-36157251D01*
X56496741Y-36093241D01*
X56496641Y-36089879D01*
X56070000Y-35663238D01*
X56017674Y-35715564D01*
X55914436Y-35612326D01*
X55966762Y-35560000D01*
X55914436Y-35507674D01*
X56017674Y-35404436D01*
X56070000Y-35456762D01*
X56122326Y-35404436D01*
X56225564Y-35507674D01*
X56173238Y-35560000D01*
X56599879Y-35986641D01*
X56789131Y-35992247D01*
X56859640Y-35843646D01*
X56899805Y-35684145D01*
X56908079Y-35519872D01*
X56884147Y-35357142D01*
X56828928Y-35202208D01*
X56789131Y-35127753D01*
X56678580Y-35131028D01*
X56716208Y-35093400D01*
X57964580Y-35093400D01*
X57973169Y-35121714D01*
X57973169Y-35121714D01*
G37*
X57973169Y-35121714D02*
X58036367Y-35239949D01*
X58121417Y-35343583D01*
X58186985Y-35397393D01*
X58110820Y-35420498D01*
X58000506Y-35479463D01*
X57903815Y-35558815D01*
X57824463Y-35655506D01*
X57765498Y-35765820D01*
X57729188Y-35885518D01*
X57716928Y-36010000D01*
X57720000Y-36299250D01*
X57878750Y-36458000D01*
X58928000Y-36458000D01*
X58928000Y-36438000D01*
X59182000Y-36438000D01*
X59182000Y-36458000D01*
X59202000Y-36458000D01*
X59202000Y-36712000D01*
X59182000Y-36712000D01*
X59182000Y-36732000D01*
X58928000Y-36732000D01*
X58928000Y-36712000D01*
X57878750Y-36712000D01*
X57720000Y-36870750D01*
X57716928Y-37160000D01*
X57729188Y-37284482D01*
X57765498Y-37404180D01*
X57824463Y-37514494D01*
X57903815Y-37611185D01*
X58000506Y-37690537D01*
X58110820Y-37749502D01*
X58230518Y-37785812D01*
X58355000Y-37798072D01*
X58577013Y-37796426D01*
X57293889Y-39079549D01*
X57192239Y-38977899D01*
X57056002Y-38886868D01*
X56904624Y-38824165D01*
X56743922Y-38792200D01*
X56580072Y-38792200D01*
X56523394Y-38803474D01*
X56503168Y-38736798D01*
X56453638Y-38644134D01*
X56386982Y-38562914D01*
X56366627Y-38546209D01*
X56267399Y-38446981D01*
X56267399Y-38291773D01*
X56428645Y-38130527D01*
X56448995Y-38113826D01*
X56515651Y-38032606D01*
X56565181Y-37939942D01*
X56595681Y-37839396D01*
X56603400Y-37761026D01*
X56603400Y-37761019D01*
X56605979Y-37734832D01*
X56603400Y-37708645D01*
X56603400Y-36898921D01*
X56629894Y-36859270D01*
X56677520Y-36744289D01*
X56701800Y-36622227D01*
X56701800Y-36497773D01*
X56677520Y-36375711D01*
X56629894Y-36260730D01*
X56560751Y-36157251D01*
X56496741Y-36093241D01*
X56496641Y-36089879D01*
X56070000Y-35663238D01*
X56017674Y-35715564D01*
X55914436Y-35612326D01*
X55966762Y-35560000D01*
X55914436Y-35507674D01*
X56017674Y-35404436D01*
X56070000Y-35456762D01*
X56122326Y-35404436D01*
X56225564Y-35507674D01*
X56173238Y-35560000D01*
X56599879Y-35986641D01*
X56789131Y-35992247D01*
X56859640Y-35843646D01*
X56899805Y-35684145D01*
X56908079Y-35519872D01*
X56884147Y-35357142D01*
X56828928Y-35202208D01*
X56789131Y-35127753D01*
X56678580Y-35131028D01*
X56716208Y-35093400D01*
X57964580Y-35093400D01*
X57973169Y-35121714D01*
G36*
X54038599Y-36425361D02*
G01*
X54038598Y-36694640D01*
X54017674Y-36715564D01*
X53914436Y-36612326D01*
X53966762Y-36560000D01*
X53914436Y-36507674D01*
X54017674Y-36404436D01*
X54038599Y-36425361D01*
X54038599Y-36425361D01*
G37*
X54038599Y-36425361D02*
X54038598Y-36694640D01*
X54017674Y-36715564D01*
X53914436Y-36612326D01*
X53966762Y-36560000D01*
X53914436Y-36507674D01*
X54017674Y-36404436D01*
X54038599Y-36425361D01*
G36*
X52008443Y-33585647D02*
G01*
X52082599Y-33585647D01*
X52082599Y-33675837D01*
X52070000Y-33663238D01*
X52017674Y-33715564D01*
X51914436Y-33612326D01*
X51952285Y-33574477D01*
X52008443Y-33585647D01*
X52008443Y-33585647D01*
G37*
X52008443Y-33585647D02*
X52082599Y-33585647D01*
X52082599Y-33675837D01*
X52070000Y-33663238D01*
X52017674Y-33715564D01*
X51914436Y-33612326D01*
X51952285Y-33574477D01*
X52008443Y-33585647D01*
G36*
X58090000Y-16224250D02*
G01*
X58248750Y-16383000D01*
X59173000Y-16383000D01*
X59173000Y-16363000D01*
X59427000Y-16363000D01*
X59427000Y-16383000D01*
X59447000Y-16383000D01*
X59447000Y-16637000D01*
X59427000Y-16637000D01*
X59427000Y-17686250D01*
X59585750Y-17845000D01*
X59875000Y-17848072D01*
X59999482Y-17835812D01*
X60119180Y-17799502D01*
X60229494Y-17740537D01*
X60326185Y-17661185D01*
X60405537Y-17564494D01*
X60410200Y-17555770D01*
X60410201Y-21156659D01*
X60333185Y-21062815D01*
X60236494Y-20983463D01*
X60126180Y-20924498D01*
X60006482Y-20888188D01*
X59882000Y-20875928D01*
X59467750Y-20879000D01*
X59309000Y-21037750D01*
X59309000Y-21962000D01*
X59329000Y-21962000D01*
X59329000Y-22216000D01*
X59309000Y-22216000D01*
X59309000Y-22236000D01*
X59055000Y-22236000D01*
X59055000Y-22216000D01*
X58005750Y-22216000D01*
X57847000Y-22374750D01*
X57843928Y-22664000D01*
X57856188Y-22788482D01*
X57892498Y-22908180D01*
X57951463Y-23018494D01*
X58030815Y-23115185D01*
X58127506Y-23194537D01*
X58237820Y-23253502D01*
X58313985Y-23276607D01*
X58248417Y-23330417D01*
X58163367Y-23434051D01*
X58100169Y-23552286D01*
X58061252Y-23680579D01*
X58048111Y-23813999D01*
X58048111Y-24464001D01*
X58061252Y-24597421D01*
X58100169Y-24725714D01*
X58163367Y-24843949D01*
X58248417Y-24947583D01*
X58352051Y-25032633D01*
X58470286Y-25095831D01*
X58598579Y-25134748D01*
X58731999Y-25147889D01*
X59632001Y-25147889D01*
X59639200Y-25147180D01*
X59639200Y-25239890D01*
X59143495Y-25735596D01*
X59112484Y-25761046D01*
X59087034Y-25792057D01*
X59010912Y-25884812D01*
X58935438Y-26026014D01*
X58888962Y-26179227D01*
X58873268Y-26338563D01*
X58877201Y-26378493D01*
X58877201Y-28991518D01*
X58865651Y-28969910D01*
X58798995Y-28888690D01*
X58778651Y-28871994D01*
X58587260Y-28680603D01*
X58649132Y-28588005D01*
X58711835Y-28436627D01*
X58743800Y-28275925D01*
X58743800Y-28112075D01*
X58711835Y-27951373D01*
X58649132Y-27799995D01*
X58558101Y-27663758D01*
X58442242Y-27547899D01*
X58306005Y-27456868D01*
X58154627Y-27394165D01*
X57993925Y-27362200D01*
X57830075Y-27362200D01*
X57669373Y-27394165D01*
X57517995Y-27456868D01*
X57381758Y-27547899D01*
X57265899Y-27663758D01*
X57174868Y-27799995D01*
X57112165Y-27951373D01*
X57080200Y-28112075D01*
X57080200Y-28275925D01*
X57112165Y-28436627D01*
X57174868Y-28588005D01*
X57265899Y-28724242D01*
X57381758Y-28840101D01*
X57384094Y-28841662D01*
X57384793Y-28848754D01*
X57386319Y-28864249D01*
X57416819Y-28964795D01*
X57443471Y-29014657D01*
X57466350Y-29057460D01*
X57470548Y-29062575D01*
X57516307Y-29118333D01*
X57516310Y-29118336D01*
X57533006Y-29138680D01*
X57553350Y-29155376D01*
X57886600Y-29488627D01*
X57886600Y-29494336D01*
X56521399Y-28129136D01*
X56521399Y-21514000D01*
X57843928Y-21514000D01*
X57847000Y-21803250D01*
X58005750Y-21962000D01*
X59055000Y-21962000D01*
X59055000Y-21037750D01*
X58896250Y-20879000D01*
X58482000Y-20875928D01*
X58357518Y-20888188D01*
X58237820Y-20924498D01*
X58127506Y-20983463D01*
X58030815Y-21062815D01*
X57951463Y-21159506D01*
X57892498Y-21269820D01*
X57856188Y-21389518D01*
X57843928Y-21514000D01*
X56521399Y-21514000D01*
X56521399Y-17638942D01*
X56950341Y-17210000D01*
X58086928Y-17210000D01*
X58099188Y-17334482D01*
X58135498Y-17454180D01*
X58194463Y-17564494D01*
X58273815Y-17661185D01*
X58370506Y-17740537D01*
X58480820Y-17799502D01*
X58600518Y-17835812D01*
X58725000Y-17848072D01*
X59014250Y-17845000D01*
X59173000Y-17686250D01*
X59173000Y-16637000D01*
X58248750Y-16637000D01*
X58090000Y-16795750D01*
X58086928Y-17210000D01*
X56950341Y-17210000D01*
X58088867Y-16071475D01*
X58090000Y-16224250D01*
X58090000Y-16224250D01*
G37*
X58090000Y-16224250D02*
X58248750Y-16383000D01*
X59173000Y-16383000D01*
X59173000Y-16363000D01*
X59427000Y-16363000D01*
X59427000Y-16383000D01*
X59447000Y-16383000D01*
X59447000Y-16637000D01*
X59427000Y-16637000D01*
X59427000Y-17686250D01*
X59585750Y-17845000D01*
X59875000Y-17848072D01*
X59999482Y-17835812D01*
X60119180Y-17799502D01*
X60229494Y-17740537D01*
X60326185Y-17661185D01*
X60405537Y-17564494D01*
X60410200Y-17555770D01*
X60410201Y-21156659D01*
X60333185Y-21062815D01*
X60236494Y-20983463D01*
X60126180Y-20924498D01*
X60006482Y-20888188D01*
X59882000Y-20875928D01*
X59467750Y-20879000D01*
X59309000Y-21037750D01*
X59309000Y-21962000D01*
X59329000Y-21962000D01*
X59329000Y-22216000D01*
X59309000Y-22216000D01*
X59309000Y-22236000D01*
X59055000Y-22236000D01*
X59055000Y-22216000D01*
X58005750Y-22216000D01*
X57847000Y-22374750D01*
X57843928Y-22664000D01*
X57856188Y-22788482D01*
X57892498Y-22908180D01*
X57951463Y-23018494D01*
X58030815Y-23115185D01*
X58127506Y-23194537D01*
X58237820Y-23253502D01*
X58313985Y-23276607D01*
X58248417Y-23330417D01*
X58163367Y-23434051D01*
X58100169Y-23552286D01*
X58061252Y-23680579D01*
X58048111Y-23813999D01*
X58048111Y-24464001D01*
X58061252Y-24597421D01*
X58100169Y-24725714D01*
X58163367Y-24843949D01*
X58248417Y-24947583D01*
X58352051Y-25032633D01*
X58470286Y-25095831D01*
X58598579Y-25134748D01*
X58731999Y-25147889D01*
X59632001Y-25147889D01*
X59639200Y-25147180D01*
X59639200Y-25239890D01*
X59143495Y-25735596D01*
X59112484Y-25761046D01*
X59087034Y-25792057D01*
X59010912Y-25884812D01*
X58935438Y-26026014D01*
X58888962Y-26179227D01*
X58873268Y-26338563D01*
X58877201Y-26378493D01*
X58877201Y-28991518D01*
X58865651Y-28969910D01*
X58798995Y-28888690D01*
X58778651Y-28871994D01*
X58587260Y-28680603D01*
X58649132Y-28588005D01*
X58711835Y-28436627D01*
X58743800Y-28275925D01*
X58743800Y-28112075D01*
X58711835Y-27951373D01*
X58649132Y-27799995D01*
X58558101Y-27663758D01*
X58442242Y-27547899D01*
X58306005Y-27456868D01*
X58154627Y-27394165D01*
X57993925Y-27362200D01*
X57830075Y-27362200D01*
X57669373Y-27394165D01*
X57517995Y-27456868D01*
X57381758Y-27547899D01*
X57265899Y-27663758D01*
X57174868Y-27799995D01*
X57112165Y-27951373D01*
X57080200Y-28112075D01*
X57080200Y-28275925D01*
X57112165Y-28436627D01*
X57174868Y-28588005D01*
X57265899Y-28724242D01*
X57381758Y-28840101D01*
X57384094Y-28841662D01*
X57384793Y-28848754D01*
X57386319Y-28864249D01*
X57416819Y-28964795D01*
X57443471Y-29014657D01*
X57466350Y-29057460D01*
X57470548Y-29062575D01*
X57516307Y-29118333D01*
X57516310Y-29118336D01*
X57533006Y-29138680D01*
X57553350Y-29155376D01*
X57886600Y-29488627D01*
X57886600Y-29494336D01*
X56521399Y-28129136D01*
X56521399Y-21514000D01*
X57843928Y-21514000D01*
X57847000Y-21803250D01*
X58005750Y-21962000D01*
X59055000Y-21962000D01*
X59055000Y-21037750D01*
X58896250Y-20879000D01*
X58482000Y-20875928D01*
X58357518Y-20888188D01*
X58237820Y-20924498D01*
X58127506Y-20983463D01*
X58030815Y-21062815D01*
X57951463Y-21159506D01*
X57892498Y-21269820D01*
X57856188Y-21389518D01*
X57843928Y-21514000D01*
X56521399Y-21514000D01*
X56521399Y-17638942D01*
X56950341Y-17210000D01*
X58086928Y-17210000D01*
X58099188Y-17334482D01*
X58135498Y-17454180D01*
X58194463Y-17564494D01*
X58273815Y-17661185D01*
X58370506Y-17740537D01*
X58480820Y-17799502D01*
X58600518Y-17835812D01*
X58725000Y-17848072D01*
X59014250Y-17845000D01*
X59173000Y-17686250D01*
X59173000Y-16637000D01*
X58248750Y-16637000D01*
X58090000Y-16795750D01*
X58086928Y-17210000D01*
X56950341Y-17210000D01*
X58088867Y-16071475D01*
X58090000Y-16224250D01*
G36*
X62292000Y-26543000D02*
G01*
X62312000Y-26543000D01*
X62312000Y-26797000D01*
X62292000Y-26797000D01*
X62292000Y-26817000D01*
X62038000Y-26817000D01*
X62038000Y-26797000D01*
X62018000Y-26797000D01*
X62018000Y-26543000D01*
X62038000Y-26543000D01*
X62038000Y-26523000D01*
X62292000Y-26523000D01*
X62292000Y-26543000D01*
X62292000Y-26543000D01*
G37*
X62292000Y-26543000D02*
X62312000Y-26543000D01*
X62312000Y-26797000D01*
X62292000Y-26797000D01*
X62292000Y-26817000D01*
X62038000Y-26817000D01*
X62038000Y-26797000D01*
X62018000Y-26797000D01*
X62018000Y-26543000D01*
X62038000Y-26543000D01*
X62038000Y-26523000D01*
X62292000Y-26523000D01*
X62292000Y-26543000D01*
G36*
X62634203Y-1133623D02*
G01*
X63023014Y-1251012D01*
X63381611Y-1441682D01*
X63696350Y-1698376D01*
X63955237Y-2011317D01*
X64148405Y-2368574D01*
X64268505Y-2756553D01*
X64313200Y-3181802D01*
X64313201Y-13803740D01*
X63816357Y-14395856D01*
X63816354Y-14395859D01*
X63770683Y-14461084D01*
X63301076Y-15274467D01*
X63301075Y-15274469D01*
X63267423Y-15346634D01*
X62946192Y-16229210D01*
X62925585Y-16306120D01*
X62925584Y-16306122D01*
X62762490Y-17231070D01*
X62762490Y-17231071D01*
X62755550Y-17310393D01*
X62755550Y-18249610D01*
X62762490Y-18328932D01*
X62925584Y-19253878D01*
X62925584Y-19253880D01*
X62946192Y-19330792D01*
X63267423Y-20213368D01*
X63292129Y-20266349D01*
X63301075Y-20285533D01*
X63770682Y-21098916D01*
X63770683Y-21098918D01*
X63816354Y-21164143D01*
X64313201Y-21756262D01*
X64313201Y-25940253D01*
X64154857Y-25709748D01*
X63945619Y-25505824D01*
X63700618Y-25346639D01*
X63561723Y-25291189D01*
X63730576Y-25200935D01*
X63925755Y-25040755D01*
X64085935Y-24845576D01*
X64204959Y-24622897D01*
X64278253Y-24381277D01*
X64303002Y-24130000D01*
X64278253Y-23878723D01*
X64204959Y-23637103D01*
X64085935Y-23414424D01*
X63925755Y-23219245D01*
X63730576Y-23059065D01*
X63507897Y-22940041D01*
X63266277Y-22866747D01*
X63077969Y-22848200D01*
X62912277Y-22848200D01*
X62289800Y-22225724D01*
X62289800Y-17253577D01*
X62306831Y-17221714D01*
X62345748Y-17093421D01*
X62358889Y-16960001D01*
X62358889Y-16815614D01*
X62380196Y-16789651D01*
X62467463Y-16626386D01*
X62521202Y-16449233D01*
X62534800Y-16311167D01*
X62534800Y-16311158D01*
X62539346Y-16265001D01*
X62534800Y-16218844D01*
X62534800Y-15030364D01*
X62665935Y-14870576D01*
X62784959Y-14647897D01*
X62858253Y-14406277D01*
X62876800Y-14217969D01*
X62876800Y-13252032D01*
X62858253Y-13063723D01*
X62784959Y-12822103D01*
X62665935Y-12599424D01*
X62534800Y-12439636D01*
X62534800Y-11690364D01*
X62665935Y-11530576D01*
X62784959Y-11307897D01*
X62858253Y-11066277D01*
X62876800Y-10877969D01*
X62876800Y-9912032D01*
X62858253Y-9723723D01*
X62784959Y-9482103D01*
X62665935Y-9259424D01*
X62505755Y-9064245D01*
X62310576Y-8904065D01*
X62087897Y-8785041D01*
X61846277Y-8711747D01*
X61595000Y-8686998D01*
X61343724Y-8711747D01*
X61277082Y-8731963D01*
X60168233Y-7623115D01*
X60138796Y-7587246D01*
X59995693Y-7469804D01*
X59832428Y-7382537D01*
X59655275Y-7328798D01*
X59517209Y-7315200D01*
X59517199Y-7315200D01*
X59471042Y-7310654D01*
X59424885Y-7315200D01*
X45131167Y-7315200D01*
X45085000Y-7310653D01*
X45038833Y-7315200D01*
X38781167Y-7315200D01*
X38735000Y-7310653D01*
X38688833Y-7315200D01*
X15921167Y-7315200D01*
X15875000Y-7310653D01*
X15828833Y-7315200D01*
X2805114Y-7315200D01*
X2758957Y-7310654D01*
X2712800Y-7315200D01*
X2712791Y-7315200D01*
X2574725Y-7328798D01*
X2397572Y-7382537D01*
X2321573Y-7423159D01*
X2234306Y-7469804D01*
X2127063Y-7557817D01*
X2091204Y-7587246D01*
X2061775Y-7623105D01*
X1032705Y-8652177D01*
X996836Y-8681614D01*
X879394Y-8824717D01*
X792127Y-8987983D01*
X738388Y-9165136D01*
X724790Y-9303202D01*
X724790Y-9303211D01*
X720244Y-9349368D01*
X724790Y-9395525D01*
X724791Y-14123118D01*
X456800Y-13803739D01*
X456800Y-3197343D01*
X498623Y-2770797D01*
X616012Y-2381986D01*
X806682Y-2023389D01*
X1063376Y-1708650D01*
X1376317Y-1449763D01*
X1733574Y-1256595D01*
X2121553Y-1136495D01*
X2546802Y-1091800D01*
X62207657Y-1091800D01*
X62634203Y-1133623D01*
X62634203Y-1133623D01*
G37*
X62634203Y-1133623D02*
X63023014Y-1251012D01*
X63381611Y-1441682D01*
X63696350Y-1698376D01*
X63955237Y-2011317D01*
X64148405Y-2368574D01*
X64268505Y-2756553D01*
X64313200Y-3181802D01*
X64313201Y-13803740D01*
X63816357Y-14395856D01*
X63816354Y-14395859D01*
X63770683Y-14461084D01*
X63301076Y-15274467D01*
X63301075Y-15274469D01*
X63267423Y-15346634D01*
X62946192Y-16229210D01*
X62925585Y-16306120D01*
X62925584Y-16306122D01*
X62762490Y-17231070D01*
X62762490Y-17231071D01*
X62755550Y-17310393D01*
X62755550Y-18249610D01*
X62762490Y-18328932D01*
X62925584Y-19253878D01*
X62925584Y-19253880D01*
X62946192Y-19330792D01*
X63267423Y-20213368D01*
X63292129Y-20266349D01*
X63301075Y-20285533D01*
X63770682Y-21098916D01*
X63770683Y-21098918D01*
X63816354Y-21164143D01*
X64313201Y-21756262D01*
X64313201Y-25940253D01*
X64154857Y-25709748D01*
X63945619Y-25505824D01*
X63700618Y-25346639D01*
X63561723Y-25291189D01*
X63730576Y-25200935D01*
X63925755Y-25040755D01*
X64085935Y-24845576D01*
X64204959Y-24622897D01*
X64278253Y-24381277D01*
X64303002Y-24130000D01*
X64278253Y-23878723D01*
X64204959Y-23637103D01*
X64085935Y-23414424D01*
X63925755Y-23219245D01*
X63730576Y-23059065D01*
X63507897Y-22940041D01*
X63266277Y-22866747D01*
X63077969Y-22848200D01*
X62912277Y-22848200D01*
X62289800Y-22225724D01*
X62289800Y-17253577D01*
X62306831Y-17221714D01*
X62345748Y-17093421D01*
X62358889Y-16960001D01*
X62358889Y-16815614D01*
X62380196Y-16789651D01*
X62467463Y-16626386D01*
X62521202Y-16449233D01*
X62534800Y-16311167D01*
X62534800Y-16311158D01*
X62539346Y-16265001D01*
X62534800Y-16218844D01*
X62534800Y-15030364D01*
X62665935Y-14870576D01*
X62784959Y-14647897D01*
X62858253Y-14406277D01*
X62876800Y-14217969D01*
X62876800Y-13252032D01*
X62858253Y-13063723D01*
X62784959Y-12822103D01*
X62665935Y-12599424D01*
X62534800Y-12439636D01*
X62534800Y-11690364D01*
X62665935Y-11530576D01*
X62784959Y-11307897D01*
X62858253Y-11066277D01*
X62876800Y-10877969D01*
X62876800Y-9912032D01*
X62858253Y-9723723D01*
X62784959Y-9482103D01*
X62665935Y-9259424D01*
X62505755Y-9064245D01*
X62310576Y-8904065D01*
X62087897Y-8785041D01*
X61846277Y-8711747D01*
X61595000Y-8686998D01*
X61343724Y-8711747D01*
X61277082Y-8731963D01*
X60168233Y-7623115D01*
X60138796Y-7587246D01*
X59995693Y-7469804D01*
X59832428Y-7382537D01*
X59655275Y-7328798D01*
X59517209Y-7315200D01*
X59517199Y-7315200D01*
X59471042Y-7310654D01*
X59424885Y-7315200D01*
X45131167Y-7315200D01*
X45085000Y-7310653D01*
X45038833Y-7315200D01*
X38781167Y-7315200D01*
X38735000Y-7310653D01*
X38688833Y-7315200D01*
X15921167Y-7315200D01*
X15875000Y-7310653D01*
X15828833Y-7315200D01*
X2805114Y-7315200D01*
X2758957Y-7310654D01*
X2712800Y-7315200D01*
X2712791Y-7315200D01*
X2574725Y-7328798D01*
X2397572Y-7382537D01*
X2321573Y-7423159D01*
X2234306Y-7469804D01*
X2127063Y-7557817D01*
X2091204Y-7587246D01*
X2061775Y-7623105D01*
X1032705Y-8652177D01*
X996836Y-8681614D01*
X879394Y-8824717D01*
X792127Y-8987983D01*
X738388Y-9165136D01*
X724790Y-9303202D01*
X724790Y-9303211D01*
X720244Y-9349368D01*
X724790Y-9395525D01*
X724791Y-14123118D01*
X456800Y-13803739D01*
X456800Y-3197343D01*
X498623Y-2770797D01*
X616012Y-2381986D01*
X806682Y-2023389D01*
X1063376Y-1708650D01*
X1376317Y-1449763D01*
X1733574Y-1256595D01*
X2121553Y-1136495D01*
X2546802Y-1091800D01*
X62207657Y-1091800D01*
X62634203Y-1133623D01*
G36*
X59182000Y-10268000D02*
G01*
X59202000Y-10268000D01*
X59202000Y-10522000D01*
X59182000Y-10522000D01*
X59182000Y-13608000D01*
X59202000Y-13608000D01*
X59202000Y-13862000D01*
X59182000Y-13862000D01*
X59182000Y-13882000D01*
X58928000Y-13882000D01*
X58928000Y-13862000D01*
X58908000Y-13862000D01*
X58908000Y-13608000D01*
X58928000Y-13608000D01*
X58928000Y-10522000D01*
X58908000Y-10522000D01*
X58908000Y-10268000D01*
X58928000Y-10268000D01*
X58928000Y-10248000D01*
X59182000Y-10248000D01*
X59182000Y-10268000D01*
X59182000Y-10268000D01*
G37*
X59182000Y-10268000D02*
X59202000Y-10268000D01*
X59202000Y-10522000D01*
X59182000Y-10522000D01*
X59182000Y-13608000D01*
X59202000Y-13608000D01*
X59202000Y-13862000D01*
X59182000Y-13862000D01*
X59182000Y-13882000D01*
X58928000Y-13882000D01*
X58928000Y-13862000D01*
X58908000Y-13862000D01*
X58908000Y-13608000D01*
X58928000Y-13608000D01*
X58928000Y-10522000D01*
X58908000Y-10522000D01*
X58908000Y-10268000D01*
X58928000Y-10268000D01*
X58928000Y-10248000D01*
X59182000Y-10248000D01*
X59182000Y-10268000D01*
G36*
X13462000Y-10268000D02*
G01*
X13482000Y-10268000D01*
X13482000Y-10522000D01*
X13462000Y-10522000D01*
X13462000Y-13608000D01*
X13482000Y-13608000D01*
X13482000Y-13862000D01*
X13462000Y-13862000D01*
X13462000Y-13882000D01*
X13208000Y-13882000D01*
X13208000Y-13862000D01*
X13188000Y-13862000D01*
X13188000Y-13608000D01*
X13208000Y-13608000D01*
X13208000Y-10522000D01*
X13188000Y-10522000D01*
X13188000Y-10268000D01*
X13208000Y-10268000D01*
X13208000Y-10248000D01*
X13462000Y-10248000D01*
X13462000Y-10268000D01*
X13462000Y-10268000D01*
G37*
X13462000Y-10268000D02*
X13482000Y-10268000D01*
X13482000Y-10522000D01*
X13462000Y-10522000D01*
X13462000Y-13608000D01*
X13482000Y-13608000D01*
X13482000Y-13862000D01*
X13462000Y-13862000D01*
X13462000Y-13882000D01*
X13208000Y-13882000D01*
X13208000Y-13862000D01*
X13188000Y-13862000D01*
X13188000Y-13608000D01*
X13208000Y-13608000D01*
X13208000Y-10522000D01*
X13188000Y-10522000D01*
X13188000Y-10268000D01*
X13208000Y-10268000D01*
X13208000Y-10248000D01*
X13462000Y-10248000D01*
X13462000Y-10268000D01*
G36*
X36322000Y-10268000D02*
G01*
X36342000Y-10268000D01*
X36342000Y-10522000D01*
X36322000Y-10522000D01*
X36322000Y-13608000D01*
X36342000Y-13608000D01*
X36342000Y-13862000D01*
X36322000Y-13862000D01*
X36322000Y-13882000D01*
X36068000Y-13882000D01*
X36068000Y-13862000D01*
X36048000Y-13862000D01*
X36048000Y-13608000D01*
X36068000Y-13608000D01*
X36068000Y-10522000D01*
X36048000Y-10522000D01*
X36048000Y-10268000D01*
X36068000Y-10268000D01*
X36068000Y-10248000D01*
X36322000Y-10248000D01*
X36322000Y-10268000D01*
X36322000Y-10268000D01*
G37*
X36322000Y-10268000D02*
X36342000Y-10268000D01*
X36342000Y-10522000D01*
X36322000Y-10522000D01*
X36322000Y-13608000D01*
X36342000Y-13608000D01*
X36342000Y-13862000D01*
X36322000Y-13862000D01*
X36322000Y-13882000D01*
X36068000Y-13882000D01*
X36068000Y-13862000D01*
X36048000Y-13862000D01*
X36048000Y-13608000D01*
X36068000Y-13608000D01*
X36068000Y-10522000D01*
X36048000Y-10522000D01*
X36048000Y-10268000D01*
X36068000Y-10268000D01*
X36068000Y-10248000D01*
X36322000Y-10248000D01*
X36322000Y-10268000D01*
M02*
