M48
; DRILL file {KiCad 5.1.4-e60b266~84~ubuntu19.04.1} date Sun 17 Nov 2019 06:28:03 PM PST
; FORMAT={-:-/ absolute / metric / decimal}
; #@! TF.CreationDate,2019-11-17T18:28:03-08:00
; #@! TF.GenerationSoftware,Kicad,Pcbnew,5.1.4-e60b266~84~ubuntu19.04.1
FMAT,2
METRIC
T1C0.400
T2C1.000
%
G90
G05
T1
X5.08Y-53.34
X5.715Y-35.56
X6.985Y-36.83
X6.985Y-40.64
X8.255Y-38.1
X8.89Y-46.99
X9.525Y-31.75
X10.795Y-39.541
X10.928Y-47.492
X12.065Y-34.29
X12.446Y-46.482
X13.97Y-19.304
X19.05Y-26.035
X20.32Y-32.385
X20.828Y-4.572
X21.59Y-34.29
X24.13Y-35.56
X24.13Y-36.83
X26.035Y-27.94
X26.67Y-43.18
X28.575Y-31.75
X30.638Y-38.1
X31.115Y-36.195
X33.655Y-38.1
X34.29Y-39.37
X34.925Y-16.51
X35.56Y-44.45
X36.83Y-27.94
X37.465Y-45.085
X37.636Y-31.75
X38.1Y-46.355
X39.37Y-36.195
X40.64Y-55.245
X41.91Y-41.91
X43.145Y-43.982
X43.688Y-49.276
X43.815Y-26.035
X45.466Y-36.83
X45.466Y-41.91
X46.228Y-32.004
X46.393Y-38.108
X47.549Y-43.746
X47.575Y-45.409
X47.752Y-32.004
X48.006Y-40.64
X48.409Y-45.867
X49.066Y-37.619
X50.374Y-38.439
X50.374Y-43.69
X50.763Y-45.372
X50.8Y-48.26
X51.07Y-46.274
X51.385Y-38.472
X52.039Y-46.005
X52.09Y-32.754
X52.324Y-41.656
X53.024Y-40.059
X53.848Y-40.894
X54.07Y-39.666
X54.61Y-55.245
X55.418Y-42.996
X56.388Y-38.354
X56.65Y-31.904
X56.662Y-41.51
X56.662Y-39.624
X56.896Y-18.034
X56.896Y-19.304
X57.112Y-33.693
X57.15Y-30.48
X57.688Y-31.942
X57.785Y-33.02
X57.912Y-28.194
X57.912Y-46.482
X58.791Y-40.939
X59.055Y-40.024
X59.436Y-18.542
X59.436Y-19.558
X59.569Y-55.314
T2
X48.895Y-10.795
X48.895Y-13.335
X51.435Y-10.795
X51.435Y-13.335
X53.975Y-10.795
X53.975Y-13.335
X56.515Y-10.795
X56.515Y-13.335
X59.055Y-10.795
X59.055Y-13.335
X61.595Y-10.795
X61.595Y-13.335
X10.16Y-50.8
X10.16Y-53.34
X12.7Y-50.8
X12.7Y-53.34
X15.24Y-50.8
X15.24Y-53.34
X17.78Y-50.8
X17.78Y-53.34
X20.32Y-50.8
X20.32Y-53.34
X22.86Y-50.8
X22.86Y-53.34
X25.4Y-50.8
X25.4Y-53.34
X27.94Y-50.8
X27.94Y-53.34
X30.48Y-50.8
X30.48Y-53.34
X33.02Y-50.8
X33.02Y-53.34
X35.56Y-50.8
X35.56Y-53.34
X38.1Y-50.8
X38.1Y-53.34
X40.64Y-50.8
X40.64Y-53.34
X43.18Y-50.8
X43.18Y-53.34
X45.72Y-50.8
X45.72Y-53.34
X48.26Y-50.8
X48.26Y-53.34
X50.8Y-50.8
X50.8Y-53.34
X53.34Y-50.8
X53.34Y-53.34
X55.88Y-50.8
X55.88Y-53.34
X58.42Y-50.8
X58.42Y-53.34
X26.035Y-10.795
X26.035Y-13.335
X28.575Y-10.795
X28.575Y-13.335
X31.115Y-10.795
X31.115Y-13.335
X33.655Y-10.795
X33.655Y-13.335
X36.195Y-10.795
X36.195Y-13.335
X38.735Y-10.795
X38.735Y-13.335
X3.175Y-10.795
X3.175Y-13.335
X5.715Y-10.795
X5.715Y-13.335
X8.255Y-10.795
X8.255Y-13.335
X10.795Y-10.795
X10.795Y-13.335
X13.335Y-10.795
X13.335Y-13.335
X15.875Y-10.795
X15.875Y-13.335
X62.865Y-24.13
X62.865Y-26.67
X62.865Y-29.21
X62.865Y-31.75
X62.865Y-34.29
X62.865Y-36.83
X62.865Y-39.37
X62.865Y-41.91
X62.865Y-44.45
T0
M30
