G04 #@! TF.GenerationSoftware,KiCad,Pcbnew,5.1.4-e60b266~84~ubuntu19.04.1*
G04 #@! TF.CreationDate,2019-11-17T18:28:13-08:00*
G04 #@! TF.ProjectId,cartridge,63617274-7269-4646-9765-2e6b69636164,rev?*
G04 #@! TF.SameCoordinates,PX40311b0PY292dfe0*
G04 #@! TF.FileFunction,Profile,NP*
%FSLAX46Y46*%
G04 Gerber Fmt 4.6, Leading zero omitted, Abs format (unit mm)*
G04 Created by KiCad (PCBNEW 5.1.4-e60b266~84~ubuntu19.04.1) date 2019-11-17 18:28:13*
%MOMM*%
%LPD*%
G04 APERTURE LIST*
%ADD10C,0.050000*%
G04 APERTURE END LIST*
D10*
X7620000Y-54610000D02*
X7620000Y-59690000D01*
X60960000Y-54610000D02*
X60960000Y-59690000D01*
X64770000Y-3175000D02*
X64770000Y-13970000D01*
X0Y-13970000D02*
X0Y-3175000D01*
X2540000Y-635000D02*
X62230000Y-635000D01*
X2539999Y-54610000D02*
G75*
G02X0Y-52070000I1J2540000D01*
G01*
X64769998Y-52070001D02*
G75*
G02X62229999Y-54609999I-2539999J1D01*
G01*
X63499998Y-52070000D02*
G75*
G02X60960000Y-52070000I-1269999J0D01*
G01*
X60960000Y-52070000D02*
G75*
G02X63500000Y-52070000I1270000J0D01*
G01*
X1270000Y-52070000D02*
G75*
G02X3810000Y-52070000I1270000J0D01*
G01*
X3809998Y-52070000D02*
G75*
G02X1270000Y-52070000I-1269999J0D01*
G01*
X0Y-13970000D02*
G75*
G02X0Y-21589998I-3809999J-3809999D01*
G01*
X64770000Y-21590000D02*
G75*
G02X64770000Y-13970002I3809999J3809999D01*
G01*
X0Y-3175000D02*
G75*
G02X2540000Y-635000I2540000J0D01*
G01*
X62230000Y-635000D02*
G75*
G02X64770000Y-3175000I0J-2540000D01*
G01*
X60960000Y-54610000D02*
X62230000Y-54610000D01*
X0Y-52070000D02*
X0Y-21589998D01*
X7620000Y-54610000D02*
X2539999Y-54610000D01*
X8890000Y-60960000D02*
X7620000Y-59690000D01*
X64770000Y-52070000D02*
X64770000Y-21590000D01*
X59690000Y-60960000D02*
X60960000Y-59690000D01*
X8890000Y-60960000D02*
X59690000Y-60960000D01*
M02*
