M48
; DRILL file {KiCad 5.1.4-e60b266~84~ubuntu19.04.1} date Sun 13 Oct 2019 04:53:07 PM PDT
; FORMAT={-:-/ absolute / inch / decimal}
; #@! TF.CreationDate,2019-10-13T16:53:07-07:00
; #@! TF.GenerationSoftware,Kicad,Pcbnew,5.1.4-e60b266~84~ubuntu19.04.1
FMAT,2
INCH
T1C0.0157
T2C0.0394
%
G90
G05
T1
X0.225Y-1.4
X0.225Y-2.0
X0.275Y-1.45
X0.275Y-1.6
X0.325Y-1.5
X0.327Y-2.1407
X0.3724Y-1.9276
X0.375Y-1.25
X0.4Y-1.9
X0.425Y-1.5567
X0.475Y-1.35
X0.625Y-0.65
X0.7Y-1.175
X0.725Y-1.3
X0.8Y-1.275
X0.85Y-1.35
X0.95Y-1.4
X0.95Y-1.45
X1.025Y-1.1
X1.05Y-1.7
X1.125Y-1.25
X1.2062Y-1.5
X1.225Y-1.425
X1.325Y-1.5
X1.35Y-1.55
X1.4Y-1.75
X1.45Y-1.1
X1.475Y-1.775
X1.4817Y-1.25
X1.5Y-1.825
X1.525Y-0.7
X1.55Y-1.425
X1.6Y-1.175
X1.6Y-1.325
X1.6Y-1.4
X1.6Y-1.55
X1.6Y-1.9
X1.6Y-2.175
X1.6Y-2.225
X1.6283Y-1.85
X1.65Y-1.1
X1.65Y-1.325
X1.65Y-1.55
X1.65Y-1.65
X1.7Y-2.225
X1.7083Y-1.5667
X1.725Y-0.625
X1.725Y-1.45
X1.7469Y-1.2469
X1.75Y-1.1
X1.75Y-1.6743
X1.8Y-1.175
X1.8243Y-1.5
X1.8595Y-1.6723
X1.875Y-1.775
X1.89Y-1.45
X1.8993Y-1.2823
X1.9Y-1.5
X1.9057Y-1.8057
X1.9493Y-1.6035
X1.975Y-1.525
X2.0Y-1.8
X2.0Y-1.85
X2.0Y-1.9
X2.0065Y-1.755
X2.023Y-1.5147
X2.0374Y-1.724
X2.0507Y-1.2916
X2.075Y-1.65
X2.1Y-1.575
X2.15Y-2.175
X2.25Y-1.475
X2.25Y-1.525
X2.25Y-1.65
X2.35Y-1.3
X2.4Y-1.25
X2.4Y-1.325
T2
X0.125Y-0.425
X0.125Y-0.525
X0.225Y-0.425
X0.225Y-0.525
X0.325Y-0.425
X0.325Y-0.525
X0.425Y-0.425
X0.425Y-0.525
X0.525Y-0.425
X0.525Y-0.525
X0.625Y-0.425
X0.625Y-0.525
X1.65Y-0.8
X1.65Y-0.9
X1.65Y-1.0
X1.8Y-0.8
X1.8Y-0.9
X1.8Y-1.0
X1.025Y-0.425
X1.025Y-0.525
X1.125Y-0.425
X1.125Y-0.525
X1.225Y-0.425
X1.225Y-0.525
X1.325Y-0.425
X1.325Y-0.525
X1.425Y-0.425
X1.425Y-0.525
X1.525Y-0.425
X1.525Y-0.525
X0.4Y-2.0
X0.4Y-2.1
X0.5Y-2.0
X0.5Y-2.1
X0.6Y-2.0
X0.6Y-2.1
X0.7Y-2.0
X0.7Y-2.1
X0.8Y-2.0
X0.8Y-2.1
X0.9Y-2.0
X0.9Y-2.1
X1.0Y-2.0
X1.0Y-2.1
X1.1Y-2.0
X1.1Y-2.1
X1.2Y-2.0
X1.2Y-2.1
X1.3Y-2.0
X1.3Y-2.1
X1.4Y-2.0
X1.4Y-2.1
X1.5Y-2.0
X1.5Y-2.1
X1.6Y-2.0
X1.6Y-2.1
X1.7Y-2.0
X1.7Y-2.1
X1.8Y-2.0
X1.8Y-2.1
X1.9Y-2.0
X1.9Y-2.1
X2.0Y-2.0
X2.0Y-2.1
X2.1Y-2.0
X2.1Y-2.1
X2.2Y-2.0
X2.2Y-2.1
X2.3Y-2.0
X2.3Y-2.1
X1.925Y-0.425
X1.925Y-0.525
X2.025Y-0.425
X2.025Y-0.525
X2.125Y-0.425
X2.125Y-0.525
X2.225Y-0.425
X2.225Y-0.525
X2.325Y-0.425
X2.325Y-0.525
X2.425Y-0.425
X2.425Y-0.525
X0.75Y-0.8
X0.75Y-0.9
X0.75Y-1.0
T0
M30
