G04 #@! TF.GenerationSoftware,KiCad,Pcbnew,5.1.4-e60b266~84~ubuntu19.04.1*
G04 #@! TF.CreationDate,2019-11-17T18:28:13-08:00*
G04 #@! TF.ProjectId,cartridge,63617274-7269-4646-9765-2e6b69636164,rev?*
G04 #@! TF.SameCoordinates,PX40311b0PY292dfe0*
G04 #@! TF.FileFunction,Copper,L2,Bot*
G04 #@! TF.FilePolarity,Positive*
%FSLAX46Y46*%
G04 Gerber Fmt 4.6, Leading zero omitted, Abs format (unit mm)*
G04 Created by KiCad (PCBNEW 5.1.4-e60b266~84~ubuntu19.04.1) date 2019-11-17 18:28:13*
%MOMM*%
%LPD*%
G04 APERTURE LIST*
%ADD10O,3.400000X1.700000*%
%ADD11R,1.700000X1.700000*%
%ADD12O,1.700000X1.700000*%
%ADD13O,1.700000X2.540000*%
%ADD14C,0.800000*%
%ADD15C,0.508000*%
%ADD16C,1.016000*%
%ADD17C,0.203200*%
%ADD18C,0.254000*%
%ADD19C,0.762000*%
G04 APERTURE END LIST*
D10*
X62165000Y-44450000D03*
X62165000Y-41910000D03*
X62165000Y-39370000D03*
X62165000Y-36830000D03*
X62165000Y-34290000D03*
X62165000Y-31750000D03*
X62165000Y-29210000D03*
X62165000Y-26670000D03*
X62165000Y-24130000D03*
D11*
X10160000Y-53340000D03*
D12*
X10160000Y-50800000D03*
X12700000Y-53340000D03*
X12700000Y-50800000D03*
X15240000Y-53340000D03*
X15240000Y-50800000D03*
X17780000Y-53340000D03*
X17780000Y-50800000D03*
X20320000Y-53340000D03*
X20320000Y-50800000D03*
X22860000Y-53340000D03*
X22860000Y-50800000D03*
X25400000Y-53340000D03*
X25400000Y-50800000D03*
X27940000Y-53340000D03*
X27940000Y-50800000D03*
X30480000Y-53340000D03*
X30480000Y-50800000D03*
X33020000Y-53340000D03*
X33020000Y-50800000D03*
X35560000Y-53340000D03*
X35560000Y-50800000D03*
X38100000Y-53340000D03*
X38100000Y-50800000D03*
X40640000Y-53340000D03*
X40640000Y-50800000D03*
X43180000Y-53340000D03*
X43180000Y-50800000D03*
X45720000Y-53340000D03*
X45720000Y-50800000D03*
X48260000Y-53340000D03*
X48260000Y-50800000D03*
X50800000Y-53340000D03*
X50800000Y-50800000D03*
X53340000Y-53340000D03*
X53340000Y-50800000D03*
X55880000Y-53340000D03*
X55880000Y-50800000D03*
X58420000Y-53340000D03*
X58420000Y-50800000D03*
D13*
X61595000Y-13735000D03*
X61595000Y-10395000D03*
X59055000Y-13735000D03*
X59055000Y-10395000D03*
X56515000Y-13735000D03*
X56515000Y-10395000D03*
X53975000Y-13735000D03*
X53975000Y-10395000D03*
X51435000Y-13735000D03*
X51435000Y-10395000D03*
X48895000Y-13735000D03*
X48895000Y-10395000D03*
X38735000Y-13735000D03*
X38735000Y-10395000D03*
X36195000Y-13735000D03*
X36195000Y-10395000D03*
X33655000Y-13735000D03*
X33655000Y-10395000D03*
X31115000Y-13735000D03*
X31115000Y-10395000D03*
X28575000Y-13735000D03*
X28575000Y-10395000D03*
X26035000Y-13735000D03*
X26035000Y-10395000D03*
X15875000Y-13735000D03*
X15875000Y-10395000D03*
X13335000Y-13735000D03*
X13335000Y-10395000D03*
X10795000Y-13735000D03*
X10795000Y-10395000D03*
X8255000Y-13735000D03*
X8255000Y-10395000D03*
X5715000Y-13735000D03*
X5715000Y-10395000D03*
X3175000Y-13735000D03*
X3175000Y-10395000D03*
D14*
X53024137Y-40059297D03*
X5080000Y-53340000D03*
X13970000Y-19304000D03*
X34925000Y-16510000D03*
X45466000Y-36830000D03*
X56388000Y-38354000D03*
X45466000Y-41910000D03*
X48006000Y-40640000D03*
X51069683Y-46274189D03*
X56896000Y-19304000D03*
X59436000Y-18542000D03*
X59436000Y-19558000D03*
X56896000Y-18034000D03*
X20828000Y-4572000D03*
X47752000Y-32004000D03*
X46228000Y-32004000D03*
X52324000Y-41656000D03*
X57912000Y-46482000D03*
X21590000Y-34290000D03*
X12065000Y-34290000D03*
X20320000Y-32385000D03*
X9525000Y-31750000D03*
X26670000Y-43180000D03*
X51385284Y-38472117D03*
X52039374Y-46004746D03*
X24130000Y-36830000D03*
X6985000Y-36830000D03*
X24130000Y-35560000D03*
X5715000Y-35560000D03*
X30637810Y-38100000D03*
X8255000Y-38100000D03*
X34290000Y-39370000D03*
X10795000Y-39541400D03*
X38100000Y-46355000D03*
X52090368Y-32753847D03*
X48409494Y-45867447D03*
X35560000Y-44450000D03*
X50374422Y-38439465D03*
X50763468Y-45372345D03*
X36830000Y-27940000D03*
X26035000Y-27940000D03*
X37465000Y-45085000D03*
X49066410Y-37618519D03*
X47574611Y-45409126D03*
X40640000Y-55245000D03*
X54610000Y-55245000D03*
X57150000Y-30480000D03*
X59055000Y-40024010D03*
X37636400Y-31750000D03*
X28575000Y-31750000D03*
X43144590Y-43981792D03*
X47549289Y-43745504D03*
X39370000Y-36195000D03*
X31115000Y-36195000D03*
X50800000Y-48260000D03*
X57785000Y-33020000D03*
X53848000Y-40894000D03*
X57912000Y-28194000D03*
X41910000Y-41910000D03*
X43688000Y-49276000D03*
X6985000Y-40640000D03*
X50374422Y-43689514D03*
X33655000Y-38100000D03*
X46393189Y-38107911D03*
X54070000Y-39665831D03*
X56661997Y-39624000D03*
X55417740Y-42996092D03*
X57687545Y-31942455D03*
X58790764Y-40939033D03*
X56650450Y-31904460D03*
X57111543Y-33693457D03*
X56661989Y-41509990D03*
X8890000Y-46990000D03*
X12446000Y-46482000D03*
X10927792Y-47492210D03*
X43815000Y-26035000D03*
X19050000Y-26035000D03*
X59569390Y-55313825D03*
D15*
X62865000Y-41910000D02*
X62992000Y-41910000D01*
D16*
X47752000Y-32004000D02*
X46228000Y-32004000D01*
X55372000Y-44450000D02*
X52578000Y-41656000D01*
X52578000Y-41656000D02*
X52324000Y-41656000D01*
X55880000Y-44450000D02*
X55372000Y-44450000D01*
X57912000Y-46482000D02*
X55880000Y-44450000D01*
D15*
X51638526Y-41656000D02*
X52324000Y-41656000D01*
X47199599Y-37217073D02*
X51638526Y-41656000D01*
X47199599Y-32556401D02*
X47199599Y-37217073D01*
X47752000Y-32004000D02*
X47199599Y-32556401D01*
X21590000Y-34290000D02*
X12065000Y-34290000D01*
X20320000Y-32385000D02*
X19685000Y-31750000D01*
X19685000Y-31750000D02*
X9525000Y-31750000D01*
D17*
X52539010Y-21597295D02*
X52539010Y-12700000D01*
X51385284Y-38472117D02*
X51385284Y-22751021D01*
X51385284Y-22751021D02*
X52539010Y-21597295D01*
X52050000Y-12210990D02*
X50310990Y-12210990D01*
X50310990Y-12210990D02*
X48895000Y-10795000D01*
X52539010Y-12700000D02*
X52050000Y-12210990D01*
X26670000Y-43180000D02*
X41374874Y-43180000D01*
X43778022Y-44399505D02*
X50999818Y-44399505D01*
X43541733Y-44635794D02*
X43778022Y-44399505D01*
X50999818Y-44399505D02*
X52039374Y-45439061D01*
X42830668Y-44635794D02*
X43541733Y-44635794D01*
X41374874Y-43180000D02*
X42830668Y-44635794D01*
X52039374Y-45439061D02*
X52039374Y-46004746D01*
D15*
X24130000Y-36830000D02*
X6985000Y-36830000D01*
X24130000Y-35560000D02*
X5715000Y-35560000D01*
X30637810Y-38100000D02*
X8255000Y-38100000D01*
X33890001Y-39769999D02*
X27927435Y-39769999D01*
X27927435Y-39769999D02*
X27298837Y-39141401D01*
X27298837Y-39141401D02*
X11194999Y-39141401D01*
X11194999Y-39141401D02*
X10795000Y-39541400D01*
X34290000Y-39370000D02*
X33890001Y-39769999D01*
D17*
X52559010Y-11919010D02*
X54464010Y-11919010D01*
X51435000Y-10795000D02*
X52559010Y-11919010D01*
X54464010Y-11919010D02*
X55079010Y-12534010D01*
X55079010Y-12700000D02*
X55079010Y-14439010D01*
X55079010Y-12534010D02*
X55079010Y-14439010D01*
X47921941Y-46355000D02*
X48409494Y-45867447D01*
X38100000Y-46355000D02*
X47921941Y-46355000D01*
X52090368Y-32753847D02*
X52090368Y-23347632D01*
X52090368Y-23347632D02*
X53340000Y-22098000D01*
X55079010Y-14612295D02*
X55079010Y-14439010D01*
X53340000Y-16351305D02*
X55079010Y-14612295D01*
X53340000Y-22098000D02*
X53340000Y-16351305D01*
X50374422Y-14395578D02*
X50374422Y-38439465D01*
X51435000Y-13335000D02*
X50374422Y-14395578D01*
X35560000Y-44450000D02*
X35959999Y-44050001D01*
X43902466Y-44991405D02*
X44138755Y-44755116D01*
X42683370Y-44991405D02*
X43902466Y-44991405D01*
X41741966Y-44050001D02*
X42683370Y-44991405D01*
X35959999Y-44050001D02*
X41741966Y-44050001D01*
X50146239Y-44755116D02*
X50763468Y-45372345D01*
X44138755Y-44755116D02*
X50146239Y-44755116D01*
D15*
X36830000Y-27940000D02*
X26035000Y-27940000D01*
D17*
X48895000Y-13335000D02*
X49066410Y-13506410D01*
X49066410Y-13506410D02*
X49066410Y-37618519D01*
X38354811Y-45409126D02*
X47574611Y-45409126D01*
X38030685Y-45085000D02*
X38354811Y-45409126D01*
X37465000Y-45085000D02*
X38030685Y-45085000D01*
X40640000Y-55245000D02*
X54610000Y-55245000D01*
X59055000Y-32385000D02*
X59055000Y-40024010D01*
X57150000Y-30480000D02*
X59055000Y-32385000D01*
D15*
X37636400Y-31750000D02*
X28575000Y-31750000D01*
D17*
X43144590Y-43981792D02*
X47313001Y-43981792D01*
X47313001Y-43981792D02*
X47549289Y-43745504D01*
D15*
X39370000Y-36195000D02*
X31115000Y-36195000D01*
D17*
X49695999Y-49364001D02*
X49695999Y-53809001D01*
X50800000Y-48260000D02*
X49695999Y-49364001D01*
X49060999Y-54444001D02*
X49695999Y-53809001D01*
X46824001Y-54444001D02*
X49060999Y-54444001D01*
X45720000Y-53340000D02*
X46824001Y-54444001D01*
X57785000Y-33020000D02*
X57785000Y-41783000D01*
X57785000Y-41783000D02*
X57404000Y-42164000D01*
X54552315Y-42164000D02*
X57404000Y-42164000D01*
X53848000Y-41459685D02*
X54552315Y-42164000D01*
X53848000Y-40894000D02*
X53848000Y-41459685D01*
X62865000Y-31750000D02*
X61468000Y-31750000D01*
X61468000Y-31750000D02*
X57912000Y-28194000D01*
D15*
X7061526Y-41910000D02*
X4908599Y-39757073D01*
X4908599Y-39757073D02*
X4908599Y-14141401D01*
X4908599Y-14141401D02*
X5715000Y-13335000D01*
X41910000Y-41910000D02*
X7061526Y-41910000D01*
X44196000Y-49276000D02*
X45720000Y-50800000D01*
X43688000Y-49276000D02*
X44196000Y-49276000D01*
X49435121Y-43289515D02*
X49974423Y-43289515D01*
X6985000Y-40640000D02*
X46785606Y-40640000D01*
X46785606Y-40640000D02*
X49435121Y-43289515D01*
X49974423Y-43289515D02*
X50374422Y-43689514D01*
X33655000Y-38100000D02*
X46385278Y-38100000D01*
X46385278Y-38100000D02*
X46393189Y-38107911D01*
D17*
X54332813Y-39665831D02*
X54070000Y-39665831D01*
X56620166Y-39665831D02*
X56661997Y-39624000D01*
X54070000Y-39665831D02*
X56620166Y-39665831D01*
X57701627Y-42996092D02*
X55417740Y-42996092D01*
X61327719Y-39370000D02*
X57701627Y-42996092D01*
X62865000Y-39370000D02*
X61327719Y-39370000D01*
X58390765Y-40539034D02*
X58790764Y-40939033D01*
X57687545Y-31942455D02*
X58439001Y-32693911D01*
X58439001Y-38837907D02*
X58390765Y-38886143D01*
X58390765Y-38886143D02*
X58390765Y-40539034D01*
X58439001Y-32693911D02*
X58439001Y-38837907D01*
X57111543Y-33693457D02*
X57111543Y-34259142D01*
X57367259Y-34514858D02*
X57367259Y-40804720D01*
X57367259Y-40804720D02*
X56661989Y-41509990D01*
X57111543Y-34259142D02*
X57367259Y-34514858D01*
X56250451Y-31504461D02*
X56650450Y-31904460D01*
X56250451Y-21219549D02*
X56250451Y-31504461D01*
X55099010Y-11919010D02*
X56838020Y-11919010D01*
X57619010Y-12700000D02*
X57619010Y-19850990D01*
X53975000Y-10795000D02*
X55099010Y-11919010D01*
X56838020Y-11919010D02*
X57619010Y-12700000D01*
X57619010Y-19850990D02*
X56250451Y-21219549D01*
D18*
X9398000Y-46482000D02*
X8890000Y-46990000D01*
X12446000Y-46482000D02*
X9398000Y-46482000D01*
X11932210Y-47492210D02*
X10927792Y-47492210D01*
X15240000Y-50800000D02*
X11932210Y-47492210D01*
D16*
X43815000Y-26035000D02*
X19050000Y-26035000D01*
D19*
X58420000Y-50800000D02*
X59969389Y-52349389D01*
X59969389Y-54913826D02*
X59569390Y-55313825D01*
X59969389Y-52349389D02*
X59969389Y-54913826D01*
D18*
G36*
X62634203Y-1133623D02*
G01*
X63023014Y-1251012D01*
X63381611Y-1441682D01*
X63696350Y-1698376D01*
X63955237Y-2011317D01*
X64148405Y-2368574D01*
X64268505Y-2756553D01*
X64313200Y-3181802D01*
X64313201Y-13803740D01*
X63816357Y-14395856D01*
X63816354Y-14395859D01*
X63770683Y-14461084D01*
X63301076Y-15274467D01*
X63301075Y-15274469D01*
X63267423Y-15346634D01*
X62946192Y-16229210D01*
X62941495Y-16246741D01*
X62925584Y-16306122D01*
X62762490Y-17231070D01*
X62762490Y-17231071D01*
X62755550Y-17310393D01*
X62755550Y-18249610D01*
X62762490Y-18328932D01*
X62925584Y-19253878D01*
X62925584Y-19253880D01*
X62946192Y-19330792D01*
X63267423Y-20213368D01*
X63301074Y-20285530D01*
X63301075Y-20285533D01*
X63770682Y-21098916D01*
X63770683Y-21098918D01*
X63816354Y-21164143D01*
X64313201Y-21756262D01*
X64313201Y-25940253D01*
X64154857Y-25709748D01*
X63945619Y-25505824D01*
X63700618Y-25346639D01*
X63561723Y-25291189D01*
X63730576Y-25200935D01*
X63925755Y-25040755D01*
X64085935Y-24845576D01*
X64204959Y-24622897D01*
X64278253Y-24381277D01*
X64303002Y-24130000D01*
X64278253Y-23878723D01*
X64204959Y-23637103D01*
X64085935Y-23414424D01*
X63925755Y-23219245D01*
X63730576Y-23059065D01*
X63507897Y-22940041D01*
X63266277Y-22866747D01*
X63077969Y-22848200D01*
X61252031Y-22848200D01*
X61063723Y-22866747D01*
X60822103Y-22940041D01*
X60599424Y-23059065D01*
X60404245Y-23219245D01*
X60244065Y-23414424D01*
X60125041Y-23637103D01*
X60051747Y-23878723D01*
X60026998Y-24130000D01*
X60051747Y-24381277D01*
X60125041Y-24622897D01*
X60244065Y-24845576D01*
X60404245Y-25040755D01*
X60599424Y-25200935D01*
X60768277Y-25291189D01*
X60629382Y-25346639D01*
X60384381Y-25505824D01*
X60175143Y-25709748D01*
X60009709Y-25950574D01*
X59894437Y-26219047D01*
X59873524Y-26313110D01*
X59994845Y-26543000D01*
X62038000Y-26543000D01*
X62038000Y-26523000D01*
X62292000Y-26523000D01*
X62292000Y-26543000D01*
X62312000Y-26543000D01*
X62312000Y-26797000D01*
X62292000Y-26797000D01*
X62292000Y-26817000D01*
X62038000Y-26817000D01*
X62038000Y-26797000D01*
X59994845Y-26797000D01*
X59873524Y-27026890D01*
X59894437Y-27120953D01*
X60009709Y-27389426D01*
X60175143Y-27630252D01*
X60384381Y-27834176D01*
X60629382Y-27993361D01*
X60768277Y-28048811D01*
X60599424Y-28139065D01*
X60404245Y-28299245D01*
X60244065Y-28494424D01*
X60125041Y-28717103D01*
X60051747Y-28958723D01*
X60026998Y-29210000D01*
X60051747Y-29461277D01*
X60103184Y-29630842D01*
X58743800Y-28271459D01*
X58743800Y-28112075D01*
X58711835Y-27951373D01*
X58649132Y-27799995D01*
X58558101Y-27663758D01*
X58442242Y-27547899D01*
X58306005Y-27456868D01*
X58154627Y-27394165D01*
X57993925Y-27362200D01*
X57830075Y-27362200D01*
X57669373Y-27394165D01*
X57517995Y-27456868D01*
X57381758Y-27547899D01*
X57265899Y-27663758D01*
X57174868Y-27799995D01*
X57112165Y-27951373D01*
X57080200Y-28112075D01*
X57080200Y-28275925D01*
X57112165Y-28436627D01*
X57174868Y-28588005D01*
X57265899Y-28724242D01*
X57381758Y-28840101D01*
X57517995Y-28931132D01*
X57669373Y-28993835D01*
X57830075Y-29025800D01*
X57989459Y-29025800D01*
X60158383Y-31194725D01*
X60125041Y-31257103D01*
X60051747Y-31498723D01*
X60026998Y-31750000D01*
X60051747Y-32001277D01*
X60125041Y-32242897D01*
X60244065Y-32465576D01*
X60404245Y-32660755D01*
X60599424Y-32820935D01*
X60822103Y-32939959D01*
X61063723Y-33013253D01*
X61132225Y-33020000D01*
X61063723Y-33026747D01*
X60822103Y-33100041D01*
X60599424Y-33219065D01*
X60404245Y-33379245D01*
X60244065Y-33574424D01*
X60125041Y-33797103D01*
X60051747Y-34038723D01*
X60026998Y-34290000D01*
X60051747Y-34541277D01*
X60125041Y-34782897D01*
X60244065Y-35005576D01*
X60404245Y-35200755D01*
X60599424Y-35360935D01*
X60822103Y-35479959D01*
X61063723Y-35553253D01*
X61132225Y-35560000D01*
X61063723Y-35566747D01*
X60822103Y-35640041D01*
X60599424Y-35759065D01*
X60404245Y-35919245D01*
X60244065Y-36114424D01*
X60125041Y-36337103D01*
X60051747Y-36578723D01*
X60026998Y-36830000D01*
X60051747Y-37081277D01*
X60125041Y-37322897D01*
X60244065Y-37545576D01*
X60404245Y-37740755D01*
X60599424Y-37900935D01*
X60822103Y-38019959D01*
X61063723Y-38093253D01*
X61132225Y-38100000D01*
X61063723Y-38106747D01*
X60822103Y-38180041D01*
X60599424Y-38299065D01*
X60404245Y-38459245D01*
X60244065Y-38654424D01*
X60125041Y-38877103D01*
X60051747Y-39118723D01*
X60026998Y-39370000D01*
X60051747Y-39621277D01*
X60114670Y-39828707D01*
X59886800Y-40056577D01*
X59886800Y-39942085D01*
X59854835Y-39781383D01*
X59792132Y-39630005D01*
X59701101Y-39493768D01*
X59588400Y-39381067D01*
X59588400Y-32411187D01*
X59590979Y-32385000D01*
X59588400Y-32358813D01*
X59588400Y-32358805D01*
X59580681Y-32280435D01*
X59550181Y-32179889D01*
X59500651Y-32087225D01*
X59433995Y-32006005D01*
X59413645Y-31989304D01*
X57981800Y-30557459D01*
X57981800Y-30398075D01*
X57949835Y-30237373D01*
X57887132Y-30085995D01*
X57796101Y-29949758D01*
X57680242Y-29833899D01*
X57544005Y-29742868D01*
X57392627Y-29680165D01*
X57231925Y-29648200D01*
X57068075Y-29648200D01*
X56907373Y-29680165D01*
X56783851Y-29731330D01*
X56783851Y-21440490D01*
X57977655Y-20246686D01*
X57998005Y-20229985D01*
X58064661Y-20148765D01*
X58114191Y-20056101D01*
X58144691Y-19955555D01*
X58152410Y-19877185D01*
X58152410Y-19877184D01*
X58154990Y-19850990D01*
X58152410Y-19824796D01*
X58152410Y-15334468D01*
X58335574Y-15460291D01*
X58604047Y-15575563D01*
X58698110Y-15596476D01*
X58928000Y-15475155D01*
X58928000Y-13862000D01*
X58908000Y-13862000D01*
X58908000Y-13608000D01*
X58928000Y-13608000D01*
X58928000Y-10522000D01*
X58908000Y-10522000D01*
X58908000Y-10268000D01*
X58928000Y-10268000D01*
X58928000Y-8654845D01*
X59182000Y-8654845D01*
X59182000Y-10268000D01*
X59202000Y-10268000D01*
X59202000Y-10522000D01*
X59182000Y-10522000D01*
X59182000Y-13608000D01*
X59202000Y-13608000D01*
X59202000Y-13862000D01*
X59182000Y-13862000D01*
X59182000Y-15475155D01*
X59411890Y-15596476D01*
X59505953Y-15575563D01*
X59774426Y-15460291D01*
X60015252Y-15294857D01*
X60219176Y-15085619D01*
X60378361Y-14840618D01*
X60433812Y-14701722D01*
X60524065Y-14870575D01*
X60684245Y-15065755D01*
X60879424Y-15225935D01*
X61102103Y-15344959D01*
X61343723Y-15418253D01*
X61595000Y-15443002D01*
X61846276Y-15418253D01*
X62087896Y-15344959D01*
X62310575Y-15225935D01*
X62505755Y-15065755D01*
X62665935Y-14870576D01*
X62784959Y-14647897D01*
X62858253Y-14406277D01*
X62876800Y-14217969D01*
X62876800Y-13252032D01*
X62858253Y-13063723D01*
X62784959Y-12822103D01*
X62665935Y-12599424D01*
X62505755Y-12404245D01*
X62310576Y-12244065D01*
X62087897Y-12125041D01*
X61889966Y-12065000D01*
X62087896Y-12004959D01*
X62310575Y-11885935D01*
X62505755Y-11725755D01*
X62665935Y-11530576D01*
X62784959Y-11307897D01*
X62858253Y-11066277D01*
X62876800Y-10877969D01*
X62876800Y-9912032D01*
X62858253Y-9723723D01*
X62784959Y-9482103D01*
X62665935Y-9259424D01*
X62505755Y-9064245D01*
X62310576Y-8904065D01*
X62087897Y-8785041D01*
X61846277Y-8711747D01*
X61595000Y-8686998D01*
X61343724Y-8711747D01*
X61102104Y-8785041D01*
X60879425Y-8904065D01*
X60684246Y-9064245D01*
X60524065Y-9259424D01*
X60433811Y-9428277D01*
X60378361Y-9289382D01*
X60219176Y-9044381D01*
X60015252Y-8835143D01*
X59774426Y-8669709D01*
X59505953Y-8554437D01*
X59411890Y-8533524D01*
X59182000Y-8654845D01*
X58928000Y-8654845D01*
X58698110Y-8533524D01*
X58604047Y-8554437D01*
X58335574Y-8669709D01*
X58094748Y-8835143D01*
X57890824Y-9044381D01*
X57731639Y-9289382D01*
X57676189Y-9428277D01*
X57585935Y-9259424D01*
X57425755Y-9064245D01*
X57230576Y-8904065D01*
X57007897Y-8785041D01*
X56766277Y-8711747D01*
X56515000Y-8686998D01*
X56263724Y-8711747D01*
X56022104Y-8785041D01*
X55799425Y-8904065D01*
X55604246Y-9064245D01*
X55444065Y-9259424D01*
X55325041Y-9482103D01*
X55251747Y-9723723D01*
X55245000Y-9792226D01*
X55238253Y-9723723D01*
X55164959Y-9482103D01*
X55045935Y-9259424D01*
X54885755Y-9064245D01*
X54690576Y-8904065D01*
X54467897Y-8785041D01*
X54226277Y-8711747D01*
X53975000Y-8686998D01*
X53723724Y-8711747D01*
X53482104Y-8785041D01*
X53259425Y-8904065D01*
X53064246Y-9064245D01*
X52904065Y-9259424D01*
X52785041Y-9482103D01*
X52711747Y-9723723D01*
X52705000Y-9792226D01*
X52698253Y-9723723D01*
X52624959Y-9482103D01*
X52505935Y-9259424D01*
X52345755Y-9064245D01*
X52150576Y-8904065D01*
X51927897Y-8785041D01*
X51686277Y-8711747D01*
X51435000Y-8686998D01*
X51183724Y-8711747D01*
X50942104Y-8785041D01*
X50719425Y-8904065D01*
X50524246Y-9064245D01*
X50364065Y-9259424D01*
X50245041Y-9482103D01*
X50171747Y-9723723D01*
X50165000Y-9792226D01*
X50158253Y-9723723D01*
X50084959Y-9482103D01*
X49965935Y-9259424D01*
X49805755Y-9064245D01*
X49610576Y-8904065D01*
X49387897Y-8785041D01*
X49146277Y-8711747D01*
X48895000Y-8686998D01*
X48643724Y-8711747D01*
X48402104Y-8785041D01*
X48179425Y-8904065D01*
X47984246Y-9064245D01*
X47824065Y-9259424D01*
X47705041Y-9482103D01*
X47631747Y-9723723D01*
X47613200Y-9912031D01*
X47613200Y-10877968D01*
X47631747Y-11066276D01*
X47705041Y-11307896D01*
X47824065Y-11530575D01*
X47984245Y-11725755D01*
X48179424Y-11885935D01*
X48402103Y-12004959D01*
X48600034Y-12065000D01*
X48402104Y-12125041D01*
X48179425Y-12244065D01*
X47984246Y-12404245D01*
X47824065Y-12599424D01*
X47705041Y-12822103D01*
X47631747Y-13063723D01*
X47613200Y-13252031D01*
X47613200Y-14217968D01*
X47631747Y-14406276D01*
X47705041Y-14647896D01*
X47824065Y-14870575D01*
X47984245Y-15065755D01*
X48179424Y-15225935D01*
X48402103Y-15344959D01*
X48533010Y-15384669D01*
X48533011Y-31474249D01*
X48419754Y-31336246D01*
X48276651Y-31218804D01*
X48113386Y-31131537D01*
X47936233Y-31077798D01*
X47798167Y-31064200D01*
X46181833Y-31064200D01*
X46043767Y-31077798D01*
X45866614Y-31131537D01*
X45703349Y-31218804D01*
X45560246Y-31336246D01*
X45442804Y-31479349D01*
X45355537Y-31642614D01*
X45301798Y-31819767D01*
X45283653Y-32004000D01*
X45301798Y-32188233D01*
X45355537Y-32365386D01*
X45442804Y-32528651D01*
X45560246Y-32671754D01*
X45703349Y-32789196D01*
X45866614Y-32876463D01*
X46043767Y-32930202D01*
X46181833Y-32943800D01*
X46513799Y-32943800D01*
X46513800Y-37183384D01*
X46510482Y-37217073D01*
X46517120Y-37284466D01*
X46475114Y-37276111D01*
X46311264Y-37276111D01*
X46150562Y-37308076D01*
X45999184Y-37370779D01*
X45934200Y-37414200D01*
X34125828Y-37414200D01*
X34049005Y-37362868D01*
X33897627Y-37300165D01*
X33736925Y-37268200D01*
X33573075Y-37268200D01*
X33412373Y-37300165D01*
X33260995Y-37362868D01*
X33124758Y-37453899D01*
X33008899Y-37569758D01*
X32917868Y-37705995D01*
X32855165Y-37857373D01*
X32823200Y-38018075D01*
X32823200Y-38181925D01*
X32855165Y-38342627D01*
X32917868Y-38494005D01*
X33008899Y-38630242D01*
X33124758Y-38746101D01*
X33260995Y-38837132D01*
X33412373Y-38899835D01*
X33573075Y-38931800D01*
X33582398Y-38931800D01*
X33552868Y-38975995D01*
X33508048Y-39084199D01*
X28211502Y-39084199D01*
X27913103Y-38785800D01*
X30166982Y-38785800D01*
X30243805Y-38837132D01*
X30395183Y-38899835D01*
X30555885Y-38931800D01*
X30719735Y-38931800D01*
X30880437Y-38899835D01*
X31031815Y-38837132D01*
X31168052Y-38746101D01*
X31283911Y-38630242D01*
X31374942Y-38494005D01*
X31437645Y-38342627D01*
X31469610Y-38181925D01*
X31469610Y-38018075D01*
X31437645Y-37857373D01*
X31374942Y-37705995D01*
X31283911Y-37569758D01*
X31168052Y-37453899D01*
X31031815Y-37362868D01*
X30880437Y-37300165D01*
X30719735Y-37268200D01*
X30555885Y-37268200D01*
X30395183Y-37300165D01*
X30243805Y-37362868D01*
X30166982Y-37414200D01*
X24722143Y-37414200D01*
X24776101Y-37360242D01*
X24867132Y-37224005D01*
X24929835Y-37072627D01*
X24961800Y-36911925D01*
X24961800Y-36748075D01*
X24929835Y-36587373D01*
X24867132Y-36435995D01*
X24776101Y-36299758D01*
X24671343Y-36195000D01*
X24753268Y-36113075D01*
X30283200Y-36113075D01*
X30283200Y-36276925D01*
X30315165Y-36437627D01*
X30377868Y-36589005D01*
X30468899Y-36725242D01*
X30584758Y-36841101D01*
X30720995Y-36932132D01*
X30872373Y-36994835D01*
X31033075Y-37026800D01*
X31196925Y-37026800D01*
X31357627Y-36994835D01*
X31509005Y-36932132D01*
X31585828Y-36880800D01*
X38899172Y-36880800D01*
X38975995Y-36932132D01*
X39127373Y-36994835D01*
X39288075Y-37026800D01*
X39451925Y-37026800D01*
X39612627Y-36994835D01*
X39764005Y-36932132D01*
X39900242Y-36841101D01*
X40016101Y-36725242D01*
X40107132Y-36589005D01*
X40169835Y-36437627D01*
X40201800Y-36276925D01*
X40201800Y-36113075D01*
X40169835Y-35952373D01*
X40107132Y-35800995D01*
X40016101Y-35664758D01*
X39900242Y-35548899D01*
X39764005Y-35457868D01*
X39612627Y-35395165D01*
X39451925Y-35363200D01*
X39288075Y-35363200D01*
X39127373Y-35395165D01*
X38975995Y-35457868D01*
X38899172Y-35509200D01*
X31585828Y-35509200D01*
X31509005Y-35457868D01*
X31357627Y-35395165D01*
X31196925Y-35363200D01*
X31033075Y-35363200D01*
X30872373Y-35395165D01*
X30720995Y-35457868D01*
X30584758Y-35548899D01*
X30468899Y-35664758D01*
X30377868Y-35800995D01*
X30315165Y-35952373D01*
X30283200Y-36113075D01*
X24753268Y-36113075D01*
X24776101Y-36090242D01*
X24867132Y-35954005D01*
X24929835Y-35802627D01*
X24961800Y-35641925D01*
X24961800Y-35478075D01*
X24929835Y-35317373D01*
X24867132Y-35165995D01*
X24776101Y-35029758D01*
X24660242Y-34913899D01*
X24524005Y-34822868D01*
X24372627Y-34760165D01*
X24211925Y-34728200D01*
X24048075Y-34728200D01*
X23887373Y-34760165D01*
X23735995Y-34822868D01*
X23659172Y-34874200D01*
X22182143Y-34874200D01*
X22236101Y-34820242D01*
X22327132Y-34684005D01*
X22389835Y-34532627D01*
X22421800Y-34371925D01*
X22421800Y-34208075D01*
X22389835Y-34047373D01*
X22327132Y-33895995D01*
X22236101Y-33759758D01*
X22120242Y-33643899D01*
X21984005Y-33552868D01*
X21832627Y-33490165D01*
X21671925Y-33458200D01*
X21508075Y-33458200D01*
X21347373Y-33490165D01*
X21195995Y-33552868D01*
X21119172Y-33604200D01*
X12535828Y-33604200D01*
X12459005Y-33552868D01*
X12307627Y-33490165D01*
X12146925Y-33458200D01*
X11983075Y-33458200D01*
X11822373Y-33490165D01*
X11670995Y-33552868D01*
X11534758Y-33643899D01*
X11418899Y-33759758D01*
X11327868Y-33895995D01*
X11265165Y-34047373D01*
X11233200Y-34208075D01*
X11233200Y-34371925D01*
X11265165Y-34532627D01*
X11327868Y-34684005D01*
X11418899Y-34820242D01*
X11472857Y-34874200D01*
X6185828Y-34874200D01*
X6109005Y-34822868D01*
X5957627Y-34760165D01*
X5796925Y-34728200D01*
X5633075Y-34728200D01*
X5594399Y-34735893D01*
X5594399Y-31668075D01*
X8693200Y-31668075D01*
X8693200Y-31831925D01*
X8725165Y-31992627D01*
X8787868Y-32144005D01*
X8878899Y-32280242D01*
X8994758Y-32396101D01*
X9130995Y-32487132D01*
X9282373Y-32549835D01*
X9443075Y-32581800D01*
X9606925Y-32581800D01*
X9767627Y-32549835D01*
X9919005Y-32487132D01*
X9995828Y-32435800D01*
X19400933Y-32435800D01*
X19502140Y-32537007D01*
X19520165Y-32627627D01*
X19582868Y-32779005D01*
X19673899Y-32915242D01*
X19789758Y-33031101D01*
X19925995Y-33122132D01*
X20077373Y-33184835D01*
X20238075Y-33216800D01*
X20401925Y-33216800D01*
X20562627Y-33184835D01*
X20714005Y-33122132D01*
X20850242Y-33031101D01*
X20966101Y-32915242D01*
X21057132Y-32779005D01*
X21119835Y-32627627D01*
X21151800Y-32466925D01*
X21151800Y-32303075D01*
X21119835Y-32142373D01*
X21057132Y-31990995D01*
X20966101Y-31854758D01*
X20850242Y-31738899D01*
X20744247Y-31668075D01*
X27743200Y-31668075D01*
X27743200Y-31831925D01*
X27775165Y-31992627D01*
X27837868Y-32144005D01*
X27928899Y-32280242D01*
X28044758Y-32396101D01*
X28180995Y-32487132D01*
X28332373Y-32549835D01*
X28493075Y-32581800D01*
X28656925Y-32581800D01*
X28817627Y-32549835D01*
X28969005Y-32487132D01*
X29045828Y-32435800D01*
X37165572Y-32435800D01*
X37242395Y-32487132D01*
X37393773Y-32549835D01*
X37554475Y-32581800D01*
X37718325Y-32581800D01*
X37879027Y-32549835D01*
X38030405Y-32487132D01*
X38166642Y-32396101D01*
X38282501Y-32280242D01*
X38373532Y-32144005D01*
X38436235Y-31992627D01*
X38468200Y-31831925D01*
X38468200Y-31668075D01*
X38436235Y-31507373D01*
X38373532Y-31355995D01*
X38282501Y-31219758D01*
X38166642Y-31103899D01*
X38030405Y-31012868D01*
X37879027Y-30950165D01*
X37718325Y-30918200D01*
X37554475Y-30918200D01*
X37393773Y-30950165D01*
X37242395Y-31012868D01*
X37165572Y-31064200D01*
X29045828Y-31064200D01*
X28969005Y-31012868D01*
X28817627Y-30950165D01*
X28656925Y-30918200D01*
X28493075Y-30918200D01*
X28332373Y-30950165D01*
X28180995Y-31012868D01*
X28044758Y-31103899D01*
X27928899Y-31219758D01*
X27837868Y-31355995D01*
X27775165Y-31507373D01*
X27743200Y-31668075D01*
X20744247Y-31668075D01*
X20714005Y-31647868D01*
X20562627Y-31585165D01*
X20472007Y-31567140D01*
X20193758Y-31288891D01*
X20172280Y-31262720D01*
X20067853Y-31177019D01*
X19948714Y-31113338D01*
X19819440Y-31074123D01*
X19718689Y-31064200D01*
X19718679Y-31064200D01*
X19685000Y-31060883D01*
X19651321Y-31064200D01*
X9995828Y-31064200D01*
X9919005Y-31012868D01*
X9767627Y-30950165D01*
X9606925Y-30918200D01*
X9443075Y-30918200D01*
X9282373Y-30950165D01*
X9130995Y-31012868D01*
X8994758Y-31103899D01*
X8878899Y-31219758D01*
X8787868Y-31355995D01*
X8725165Y-31507373D01*
X8693200Y-31668075D01*
X5594399Y-31668075D01*
X5594399Y-27858075D01*
X25203200Y-27858075D01*
X25203200Y-28021925D01*
X25235165Y-28182627D01*
X25297868Y-28334005D01*
X25388899Y-28470242D01*
X25504758Y-28586101D01*
X25640995Y-28677132D01*
X25792373Y-28739835D01*
X25953075Y-28771800D01*
X26116925Y-28771800D01*
X26277627Y-28739835D01*
X26429005Y-28677132D01*
X26505828Y-28625800D01*
X36359172Y-28625800D01*
X36435995Y-28677132D01*
X36587373Y-28739835D01*
X36748075Y-28771800D01*
X36911925Y-28771800D01*
X37072627Y-28739835D01*
X37224005Y-28677132D01*
X37360242Y-28586101D01*
X37476101Y-28470242D01*
X37567132Y-28334005D01*
X37629835Y-28182627D01*
X37661800Y-28021925D01*
X37661800Y-27858075D01*
X37629835Y-27697373D01*
X37567132Y-27545995D01*
X37476101Y-27409758D01*
X37360242Y-27293899D01*
X37224005Y-27202868D01*
X37072627Y-27140165D01*
X36911925Y-27108200D01*
X36748075Y-27108200D01*
X36587373Y-27140165D01*
X36435995Y-27202868D01*
X36359172Y-27254200D01*
X26505828Y-27254200D01*
X26429005Y-27202868D01*
X26277627Y-27140165D01*
X26116925Y-27108200D01*
X25953075Y-27108200D01*
X25792373Y-27140165D01*
X25640995Y-27202868D01*
X25504758Y-27293899D01*
X25388899Y-27409758D01*
X25297868Y-27545995D01*
X25235165Y-27697373D01*
X25203200Y-27858075D01*
X5594399Y-27858075D01*
X5594399Y-26035000D01*
X18105653Y-26035000D01*
X18123798Y-26219233D01*
X18177537Y-26396386D01*
X18264804Y-26559651D01*
X18382246Y-26702754D01*
X18525349Y-26820196D01*
X18688614Y-26907463D01*
X18865767Y-26961202D01*
X19003833Y-26974800D01*
X43861167Y-26974800D01*
X43999233Y-26961202D01*
X44176386Y-26907463D01*
X44339651Y-26820196D01*
X44482754Y-26702754D01*
X44600196Y-26559651D01*
X44687463Y-26396386D01*
X44741202Y-26219233D01*
X44759347Y-26035000D01*
X44741202Y-25850767D01*
X44687463Y-25673614D01*
X44600196Y-25510349D01*
X44482754Y-25367246D01*
X44339651Y-25249804D01*
X44176386Y-25162537D01*
X43999233Y-25108798D01*
X43861167Y-25095200D01*
X19003833Y-25095200D01*
X18865767Y-25108798D01*
X18688614Y-25162537D01*
X18525349Y-25249804D01*
X18382246Y-25367246D01*
X18264804Y-25510349D01*
X18177537Y-25673614D01*
X18123798Y-25850767D01*
X18105653Y-26035000D01*
X5594399Y-26035000D01*
X5594399Y-15431124D01*
X5715000Y-15443002D01*
X5966276Y-15418253D01*
X6207896Y-15344959D01*
X6430575Y-15225935D01*
X6625755Y-15065755D01*
X6785935Y-14870576D01*
X6904959Y-14647897D01*
X6978253Y-14406277D01*
X6985000Y-14337774D01*
X6991747Y-14406276D01*
X7065041Y-14647896D01*
X7184065Y-14870575D01*
X7344245Y-15065755D01*
X7539424Y-15225935D01*
X7762103Y-15344959D01*
X8003723Y-15418253D01*
X8255000Y-15443002D01*
X8506276Y-15418253D01*
X8747896Y-15344959D01*
X8970575Y-15225935D01*
X9165755Y-15065755D01*
X9325935Y-14870576D01*
X9444959Y-14647897D01*
X9518253Y-14406277D01*
X9525000Y-14337774D01*
X9531747Y-14406276D01*
X9605041Y-14647896D01*
X9724065Y-14870575D01*
X9884245Y-15065755D01*
X10079424Y-15225935D01*
X10302103Y-15344959D01*
X10543723Y-15418253D01*
X10795000Y-15443002D01*
X11046276Y-15418253D01*
X11287896Y-15344959D01*
X11510575Y-15225935D01*
X11705755Y-15065755D01*
X11865935Y-14870576D01*
X11956189Y-14701723D01*
X12011639Y-14840618D01*
X12170824Y-15085619D01*
X12374748Y-15294857D01*
X12615574Y-15460291D01*
X12884047Y-15575563D01*
X12978110Y-15596476D01*
X13208000Y-15475155D01*
X13208000Y-13862000D01*
X13188000Y-13862000D01*
X13188000Y-13608000D01*
X13208000Y-13608000D01*
X13208000Y-10522000D01*
X13188000Y-10522000D01*
X13188000Y-10268000D01*
X13208000Y-10268000D01*
X13208000Y-8654845D01*
X13462000Y-8654845D01*
X13462000Y-10268000D01*
X13482000Y-10268000D01*
X13482000Y-10522000D01*
X13462000Y-10522000D01*
X13462000Y-13608000D01*
X13482000Y-13608000D01*
X13482000Y-13862000D01*
X13462000Y-13862000D01*
X13462000Y-15475155D01*
X13691890Y-15596476D01*
X13785953Y-15575563D01*
X14054426Y-15460291D01*
X14295252Y-15294857D01*
X14499176Y-15085619D01*
X14658361Y-14840618D01*
X14713812Y-14701722D01*
X14804065Y-14870575D01*
X14964245Y-15065755D01*
X15159424Y-15225935D01*
X15382103Y-15344959D01*
X15623723Y-15418253D01*
X15875000Y-15443002D01*
X16126276Y-15418253D01*
X16367896Y-15344959D01*
X16590575Y-15225935D01*
X16785755Y-15065755D01*
X16945935Y-14870576D01*
X17064959Y-14647897D01*
X17138253Y-14406277D01*
X17156800Y-14217969D01*
X17156800Y-13252032D01*
X17138253Y-13063723D01*
X17064959Y-12822103D01*
X16945935Y-12599424D01*
X16785755Y-12404245D01*
X16590576Y-12244065D01*
X16367897Y-12125041D01*
X16169966Y-12065000D01*
X16367896Y-12004959D01*
X16590575Y-11885935D01*
X16785755Y-11725755D01*
X16945935Y-11530576D01*
X17064959Y-11307897D01*
X17138253Y-11066277D01*
X17156800Y-10877969D01*
X17156800Y-9912032D01*
X17156800Y-9912031D01*
X24753200Y-9912031D01*
X24753200Y-10877968D01*
X24771747Y-11066276D01*
X24845041Y-11307896D01*
X24964065Y-11530575D01*
X25124245Y-11725755D01*
X25319424Y-11885935D01*
X25542103Y-12004959D01*
X25740034Y-12065000D01*
X25542104Y-12125041D01*
X25319425Y-12244065D01*
X25124246Y-12404245D01*
X24964065Y-12599424D01*
X24845041Y-12822103D01*
X24771747Y-13063723D01*
X24753200Y-13252031D01*
X24753200Y-14217968D01*
X24771747Y-14406276D01*
X24845041Y-14647896D01*
X24964065Y-14870575D01*
X25124245Y-15065755D01*
X25319424Y-15225935D01*
X25542103Y-15344959D01*
X25783723Y-15418253D01*
X26035000Y-15443002D01*
X26286276Y-15418253D01*
X26527896Y-15344959D01*
X26750575Y-15225935D01*
X26945755Y-15065755D01*
X27105935Y-14870576D01*
X27224959Y-14647897D01*
X27298253Y-14406277D01*
X27305000Y-14337774D01*
X27311747Y-14406276D01*
X27385041Y-14647896D01*
X27504065Y-14870575D01*
X27664245Y-15065755D01*
X27859424Y-15225935D01*
X28082103Y-15344959D01*
X28323723Y-15418253D01*
X28575000Y-15443002D01*
X28826276Y-15418253D01*
X29067896Y-15344959D01*
X29290575Y-15225935D01*
X29485755Y-15065755D01*
X29645935Y-14870576D01*
X29764959Y-14647897D01*
X29838253Y-14406277D01*
X29845000Y-14337774D01*
X29851747Y-14406276D01*
X29925041Y-14647896D01*
X30044065Y-14870575D01*
X30204245Y-15065755D01*
X30399424Y-15225935D01*
X30622103Y-15344959D01*
X30863723Y-15418253D01*
X31115000Y-15443002D01*
X31366276Y-15418253D01*
X31607896Y-15344959D01*
X31830575Y-15225935D01*
X32025755Y-15065755D01*
X32185935Y-14870576D01*
X32304959Y-14647897D01*
X32378253Y-14406277D01*
X32385000Y-14337774D01*
X32391747Y-14406276D01*
X32465041Y-14647896D01*
X32584065Y-14870575D01*
X32744245Y-15065755D01*
X32939424Y-15225935D01*
X33162103Y-15344959D01*
X33403723Y-15418253D01*
X33655000Y-15443002D01*
X33906276Y-15418253D01*
X34147896Y-15344959D01*
X34370575Y-15225935D01*
X34565755Y-15065755D01*
X34725935Y-14870576D01*
X34816189Y-14701723D01*
X34871639Y-14840618D01*
X35030824Y-15085619D01*
X35234748Y-15294857D01*
X35475574Y-15460291D01*
X35744047Y-15575563D01*
X35838110Y-15596476D01*
X36068000Y-15475155D01*
X36068000Y-13862000D01*
X36048000Y-13862000D01*
X36048000Y-13608000D01*
X36068000Y-13608000D01*
X36068000Y-10522000D01*
X36048000Y-10522000D01*
X36048000Y-10268000D01*
X36068000Y-10268000D01*
X36068000Y-8654845D01*
X36322000Y-8654845D01*
X36322000Y-10268000D01*
X36342000Y-10268000D01*
X36342000Y-10522000D01*
X36322000Y-10522000D01*
X36322000Y-13608000D01*
X36342000Y-13608000D01*
X36342000Y-13862000D01*
X36322000Y-13862000D01*
X36322000Y-15475155D01*
X36551890Y-15596476D01*
X36645953Y-15575563D01*
X36914426Y-15460291D01*
X37155252Y-15294857D01*
X37359176Y-15085619D01*
X37518361Y-14840618D01*
X37573812Y-14701722D01*
X37664065Y-14870575D01*
X37824245Y-15065755D01*
X38019424Y-15225935D01*
X38242103Y-15344959D01*
X38483723Y-15418253D01*
X38735000Y-15443002D01*
X38986276Y-15418253D01*
X39227896Y-15344959D01*
X39450575Y-15225935D01*
X39645755Y-15065755D01*
X39805935Y-14870576D01*
X39924959Y-14647897D01*
X39998253Y-14406277D01*
X40016800Y-14217969D01*
X40016800Y-13252032D01*
X39998253Y-13063723D01*
X39924959Y-12822103D01*
X39805935Y-12599424D01*
X39645755Y-12404245D01*
X39450576Y-12244065D01*
X39227897Y-12125041D01*
X39029966Y-12065000D01*
X39227896Y-12004959D01*
X39450575Y-11885935D01*
X39645755Y-11725755D01*
X39805935Y-11530576D01*
X39924959Y-11307897D01*
X39998253Y-11066277D01*
X40016800Y-10877969D01*
X40016800Y-9912032D01*
X39998253Y-9723723D01*
X39924959Y-9482103D01*
X39805935Y-9259424D01*
X39645755Y-9064245D01*
X39450576Y-8904065D01*
X39227897Y-8785041D01*
X38986277Y-8711747D01*
X38735000Y-8686998D01*
X38483724Y-8711747D01*
X38242104Y-8785041D01*
X38019425Y-8904065D01*
X37824246Y-9064245D01*
X37664065Y-9259424D01*
X37573811Y-9428277D01*
X37518361Y-9289382D01*
X37359176Y-9044381D01*
X37155252Y-8835143D01*
X36914426Y-8669709D01*
X36645953Y-8554437D01*
X36551890Y-8533524D01*
X36322000Y-8654845D01*
X36068000Y-8654845D01*
X35838110Y-8533524D01*
X35744047Y-8554437D01*
X35475574Y-8669709D01*
X35234748Y-8835143D01*
X35030824Y-9044381D01*
X34871639Y-9289382D01*
X34816189Y-9428277D01*
X34725935Y-9259424D01*
X34565755Y-9064245D01*
X34370576Y-8904065D01*
X34147897Y-8785041D01*
X33906277Y-8711747D01*
X33655000Y-8686998D01*
X33403724Y-8711747D01*
X33162104Y-8785041D01*
X32939425Y-8904065D01*
X32744246Y-9064245D01*
X32584065Y-9259424D01*
X32465041Y-9482103D01*
X32391747Y-9723723D01*
X32385000Y-9792226D01*
X32378253Y-9723723D01*
X32304959Y-9482103D01*
X32185935Y-9259424D01*
X32025755Y-9064245D01*
X31830576Y-8904065D01*
X31607897Y-8785041D01*
X31366277Y-8711747D01*
X31115000Y-8686998D01*
X30863724Y-8711747D01*
X30622104Y-8785041D01*
X30399425Y-8904065D01*
X30204246Y-9064245D01*
X30044065Y-9259424D01*
X29925041Y-9482103D01*
X29851747Y-9723723D01*
X29845000Y-9792226D01*
X29838253Y-9723723D01*
X29764959Y-9482103D01*
X29645935Y-9259424D01*
X29485755Y-9064245D01*
X29290576Y-8904065D01*
X29067897Y-8785041D01*
X28826277Y-8711747D01*
X28575000Y-8686998D01*
X28323724Y-8711747D01*
X28082104Y-8785041D01*
X27859425Y-8904065D01*
X27664246Y-9064245D01*
X27504065Y-9259424D01*
X27385041Y-9482103D01*
X27311747Y-9723723D01*
X27305000Y-9792226D01*
X27298253Y-9723723D01*
X27224959Y-9482103D01*
X27105935Y-9259424D01*
X26945755Y-9064245D01*
X26750576Y-8904065D01*
X26527897Y-8785041D01*
X26286277Y-8711747D01*
X26035000Y-8686998D01*
X25783724Y-8711747D01*
X25542104Y-8785041D01*
X25319425Y-8904065D01*
X25124246Y-9064245D01*
X24964065Y-9259424D01*
X24845041Y-9482103D01*
X24771747Y-9723723D01*
X24753200Y-9912031D01*
X17156800Y-9912031D01*
X17138253Y-9723723D01*
X17064959Y-9482103D01*
X16945935Y-9259424D01*
X16785755Y-9064245D01*
X16590576Y-8904065D01*
X16367897Y-8785041D01*
X16126277Y-8711747D01*
X15875000Y-8686998D01*
X15623724Y-8711747D01*
X15382104Y-8785041D01*
X15159425Y-8904065D01*
X14964246Y-9064245D01*
X14804065Y-9259424D01*
X14713811Y-9428277D01*
X14658361Y-9289382D01*
X14499176Y-9044381D01*
X14295252Y-8835143D01*
X14054426Y-8669709D01*
X13785953Y-8554437D01*
X13691890Y-8533524D01*
X13462000Y-8654845D01*
X13208000Y-8654845D01*
X12978110Y-8533524D01*
X12884047Y-8554437D01*
X12615574Y-8669709D01*
X12374748Y-8835143D01*
X12170824Y-9044381D01*
X12011639Y-9289382D01*
X11956189Y-9428277D01*
X11865935Y-9259424D01*
X11705755Y-9064245D01*
X11510576Y-8904065D01*
X11287897Y-8785041D01*
X11046277Y-8711747D01*
X10795000Y-8686998D01*
X10543724Y-8711747D01*
X10302104Y-8785041D01*
X10079425Y-8904065D01*
X9884246Y-9064245D01*
X9724065Y-9259424D01*
X9605041Y-9482103D01*
X9531747Y-9723723D01*
X9525000Y-9792226D01*
X9518253Y-9723723D01*
X9444959Y-9482103D01*
X9325935Y-9259424D01*
X9165755Y-9064245D01*
X8970576Y-8904065D01*
X8747897Y-8785041D01*
X8506277Y-8711747D01*
X8255000Y-8686998D01*
X8003724Y-8711747D01*
X7762104Y-8785041D01*
X7539425Y-8904065D01*
X7344246Y-9064245D01*
X7184065Y-9259424D01*
X7065041Y-9482103D01*
X6991747Y-9723723D01*
X6985000Y-9792226D01*
X6978253Y-9723723D01*
X6904959Y-9482103D01*
X6785935Y-9259424D01*
X6625755Y-9064245D01*
X6430576Y-8904065D01*
X6207897Y-8785041D01*
X5966277Y-8711747D01*
X5715000Y-8686998D01*
X5463724Y-8711747D01*
X5222104Y-8785041D01*
X4999425Y-8904065D01*
X4804246Y-9064245D01*
X4644065Y-9259424D01*
X4525041Y-9482103D01*
X4451747Y-9723723D01*
X4445000Y-9792226D01*
X4438253Y-9723723D01*
X4364959Y-9482103D01*
X4245935Y-9259424D01*
X4085755Y-9064245D01*
X3890576Y-8904065D01*
X3667897Y-8785041D01*
X3426277Y-8711747D01*
X3175000Y-8686998D01*
X2923724Y-8711747D01*
X2682104Y-8785041D01*
X2459425Y-8904065D01*
X2264246Y-9064245D01*
X2104065Y-9259424D01*
X1985041Y-9482103D01*
X1911747Y-9723723D01*
X1893200Y-9912031D01*
X1893200Y-10877968D01*
X1911747Y-11066276D01*
X1985041Y-11307896D01*
X2104065Y-11530575D01*
X2264245Y-11725755D01*
X2459424Y-11885935D01*
X2682103Y-12004959D01*
X2880034Y-12065000D01*
X2682104Y-12125041D01*
X2459425Y-12244065D01*
X2264246Y-12404245D01*
X2104065Y-12599424D01*
X1985041Y-12822103D01*
X1911747Y-13063723D01*
X1893200Y-13252031D01*
X1893200Y-14217968D01*
X1911747Y-14406276D01*
X1985041Y-14647896D01*
X2104065Y-14870575D01*
X2264245Y-15065755D01*
X2459424Y-15225935D01*
X2682103Y-15344959D01*
X2923723Y-15418253D01*
X3175000Y-15443002D01*
X3426276Y-15418253D01*
X3667896Y-15344959D01*
X3890575Y-15225935D01*
X4085755Y-15065755D01*
X4222800Y-14898766D01*
X4222799Y-39723394D01*
X4219482Y-39757073D01*
X4222799Y-39790752D01*
X4222799Y-39790761D01*
X4232722Y-39891512D01*
X4271937Y-40020786D01*
X4335618Y-40139925D01*
X4346119Y-40152720D01*
X4386406Y-40201810D01*
X4421319Y-40244352D01*
X4447486Y-40265827D01*
X6552768Y-42371109D01*
X6574246Y-42397280D01*
X6678673Y-42482981D01*
X6712218Y-42500911D01*
X6797812Y-42546662D01*
X6927085Y-42585877D01*
X7061526Y-42599118D01*
X7095215Y-42595800D01*
X26077857Y-42595800D01*
X26023899Y-42649758D01*
X25932868Y-42785995D01*
X25870165Y-42937373D01*
X25838200Y-43098075D01*
X25838200Y-43261925D01*
X25870165Y-43422627D01*
X25932868Y-43574005D01*
X26023899Y-43710242D01*
X26139758Y-43826101D01*
X26275995Y-43917132D01*
X26427373Y-43979835D01*
X26588075Y-44011800D01*
X26751925Y-44011800D01*
X26912627Y-43979835D01*
X27064005Y-43917132D01*
X27200242Y-43826101D01*
X27312943Y-43713400D01*
X35165199Y-43713400D01*
X35029758Y-43803899D01*
X34913899Y-43919758D01*
X34822868Y-44055995D01*
X34760165Y-44207373D01*
X34728200Y-44368075D01*
X34728200Y-44531925D01*
X34760165Y-44692627D01*
X34822868Y-44844005D01*
X34913899Y-44980242D01*
X35029758Y-45096101D01*
X35165995Y-45187132D01*
X35317373Y-45249835D01*
X35478075Y-45281800D01*
X35641925Y-45281800D01*
X35802627Y-45249835D01*
X35954005Y-45187132D01*
X36090242Y-45096101D01*
X36206101Y-44980242D01*
X36297132Y-44844005D01*
X36359835Y-44692627D01*
X36381561Y-44583401D01*
X36799760Y-44583401D01*
X36727868Y-44690995D01*
X36665165Y-44842373D01*
X36633200Y-45003075D01*
X36633200Y-45166925D01*
X36665165Y-45327627D01*
X36727868Y-45479005D01*
X36818899Y-45615242D01*
X36934758Y-45731101D01*
X37070995Y-45822132D01*
X37222373Y-45884835D01*
X37383075Y-45916800D01*
X37392398Y-45916800D01*
X37362868Y-45960995D01*
X37300165Y-46112373D01*
X37268200Y-46273075D01*
X37268200Y-46436925D01*
X37300165Y-46597627D01*
X37362868Y-46749005D01*
X37453899Y-46885242D01*
X37569758Y-47001101D01*
X37705995Y-47092132D01*
X37857373Y-47154835D01*
X38018075Y-47186800D01*
X38181925Y-47186800D01*
X38342627Y-47154835D01*
X38494005Y-47092132D01*
X38630242Y-47001101D01*
X38742943Y-46888400D01*
X47895754Y-46888400D01*
X47921941Y-46890979D01*
X47948128Y-46888400D01*
X47948136Y-46888400D01*
X48026506Y-46880681D01*
X48127052Y-46850181D01*
X48219716Y-46800651D01*
X48300936Y-46733995D01*
X48317636Y-46713646D01*
X48332035Y-46699247D01*
X48491419Y-46699247D01*
X48652121Y-46667282D01*
X48803499Y-46604579D01*
X48939736Y-46513548D01*
X49055595Y-46397689D01*
X49146626Y-46261452D01*
X49209329Y-46110074D01*
X49241294Y-45949372D01*
X49241294Y-45785522D01*
X49209329Y-45624820D01*
X49146626Y-45473442D01*
X49055595Y-45337205D01*
X49006906Y-45288516D01*
X49925298Y-45288516D01*
X49931668Y-45294886D01*
X49931668Y-45454270D01*
X49963633Y-45614972D01*
X50026336Y-45766350D01*
X50117367Y-45902587D01*
X50233226Y-46018446D01*
X50369463Y-46109477D01*
X50520841Y-46172180D01*
X50681543Y-46204145D01*
X50845393Y-46204145D01*
X51006095Y-46172180D01*
X51157473Y-46109477D01*
X51207574Y-46076000D01*
X51207574Y-46086671D01*
X51239539Y-46247373D01*
X51302242Y-46398751D01*
X51393273Y-46534988D01*
X51509132Y-46650847D01*
X51645369Y-46741878D01*
X51796747Y-46804581D01*
X51957449Y-46836546D01*
X52121299Y-46836546D01*
X52282001Y-46804581D01*
X52433379Y-46741878D01*
X52569616Y-46650847D01*
X52685475Y-46534988D01*
X52776506Y-46398751D01*
X52839209Y-46247373D01*
X52871174Y-46086671D01*
X52871174Y-45922821D01*
X52839209Y-45762119D01*
X52776506Y-45610741D01*
X52685475Y-45474504D01*
X52569616Y-45358645D01*
X52567280Y-45357084D01*
X52565055Y-45334496D01*
X52534555Y-45233950D01*
X52485025Y-45141286D01*
X52460458Y-45111351D01*
X52435067Y-45080412D01*
X52435065Y-45080410D01*
X52418369Y-45060066D01*
X52398025Y-45043370D01*
X51395513Y-44040859D01*
X51378813Y-44020510D01*
X51297593Y-43953854D01*
X51204929Y-43904324D01*
X51181221Y-43897132D01*
X51206222Y-43771439D01*
X51206222Y-43607589D01*
X51174257Y-43446887D01*
X51111554Y-43295509D01*
X51020523Y-43159272D01*
X50904664Y-43043413D01*
X50768427Y-42952382D01*
X50617049Y-42889679D01*
X50526429Y-42871654D01*
X50483181Y-42828406D01*
X50461703Y-42802235D01*
X50357276Y-42716534D01*
X50238137Y-42652853D01*
X50108863Y-42613638D01*
X50008112Y-42603715D01*
X50008102Y-42603715D01*
X49974423Y-42600398D01*
X49940744Y-42603715D01*
X49719189Y-42603715D01*
X47294364Y-40178891D01*
X47272886Y-40152720D01*
X47168459Y-40067019D01*
X47049320Y-40003338D01*
X46920046Y-39964123D01*
X46819295Y-39954200D01*
X46819285Y-39954200D01*
X46785606Y-39950883D01*
X46751927Y-39954200D01*
X34882143Y-39954200D01*
X34936101Y-39900242D01*
X35027132Y-39764005D01*
X35089835Y-39612627D01*
X35121800Y-39451925D01*
X35121800Y-39288075D01*
X35089835Y-39127373D01*
X35027132Y-38975995D01*
X34936101Y-38839758D01*
X34882143Y-38785800D01*
X45910521Y-38785800D01*
X45999184Y-38845043D01*
X46150562Y-38907746D01*
X46311264Y-38939711D01*
X46475114Y-38939711D01*
X46635816Y-38907746D01*
X46787194Y-38845043D01*
X46923431Y-38754012D01*
X47039290Y-38638153D01*
X47130321Y-38501916D01*
X47193024Y-38350538D01*
X47221257Y-38208598D01*
X51129768Y-42117109D01*
X51151246Y-42143280D01*
X51255673Y-42228981D01*
X51374812Y-42292662D01*
X51504086Y-42331877D01*
X51604837Y-42341800D01*
X51604840Y-42341800D01*
X51638526Y-42345118D01*
X51672212Y-42341800D01*
X51678235Y-42341800D01*
X51799349Y-42441196D01*
X51962614Y-42528463D01*
X52139767Y-42582202D01*
X52178989Y-42586065D01*
X54674818Y-45081896D01*
X54704246Y-45117754D01*
X54740104Y-45147182D01*
X54740106Y-45147184D01*
X54847348Y-45235196D01*
X54977122Y-45304561D01*
X55010614Y-45322463D01*
X55187767Y-45376202D01*
X55325833Y-45389800D01*
X55325843Y-45389800D01*
X55372000Y-45394346D01*
X55418157Y-45389800D01*
X55490724Y-45389800D01*
X57280106Y-47179183D01*
X57387348Y-47267196D01*
X57550614Y-47354463D01*
X57727766Y-47408201D01*
X57912000Y-47426346D01*
X58096233Y-47408201D01*
X58273386Y-47354463D01*
X58436651Y-47267196D01*
X58579754Y-47149754D01*
X58697196Y-47006651D01*
X58784463Y-46843386D01*
X58838201Y-46666233D01*
X58856346Y-46482000D01*
X58838201Y-46297766D01*
X58784463Y-46120614D01*
X58697196Y-45957348D01*
X58609183Y-45850106D01*
X56577191Y-43818115D01*
X56547754Y-43782246D01*
X56404651Y-43664804D01*
X56241386Y-43577537D01*
X56083004Y-43529492D01*
X57675440Y-43529492D01*
X57701627Y-43532071D01*
X57727814Y-43529492D01*
X57727822Y-43529492D01*
X57806192Y-43521773D01*
X57906738Y-43491273D01*
X57999402Y-43441743D01*
X58080622Y-43375087D01*
X58097323Y-43354737D01*
X59882307Y-41569753D01*
X59994845Y-41783000D01*
X62038000Y-41783000D01*
X62038000Y-41763000D01*
X62292000Y-41763000D01*
X62292000Y-41783000D01*
X62312000Y-41783000D01*
X62312000Y-42037000D01*
X62292000Y-42037000D01*
X62292000Y-42057000D01*
X62038000Y-42057000D01*
X62038000Y-42037000D01*
X59994845Y-42037000D01*
X59873524Y-42266890D01*
X59894437Y-42360953D01*
X60009709Y-42629426D01*
X60175143Y-42870252D01*
X60384381Y-43074176D01*
X60629382Y-43233361D01*
X60768277Y-43288811D01*
X60599424Y-43379065D01*
X60404245Y-43539245D01*
X60244065Y-43734424D01*
X60125041Y-43957103D01*
X60051747Y-44198723D01*
X60026998Y-44450000D01*
X60051747Y-44701277D01*
X60125041Y-44942897D01*
X60244065Y-45165576D01*
X60404245Y-45360755D01*
X60599424Y-45520935D01*
X60822103Y-45639959D01*
X61063723Y-45713253D01*
X61252031Y-45731800D01*
X63077969Y-45731800D01*
X63266277Y-45713253D01*
X63507897Y-45639959D01*
X63730576Y-45520935D01*
X63925755Y-45360755D01*
X64085935Y-45165576D01*
X64204959Y-44942897D01*
X64278253Y-44701277D01*
X64303002Y-44450000D01*
X64278253Y-44198723D01*
X64204959Y-43957103D01*
X64085935Y-43734424D01*
X63925755Y-43539245D01*
X63730576Y-43379065D01*
X63561723Y-43288811D01*
X63700618Y-43233361D01*
X63945619Y-43074176D01*
X64154857Y-42870252D01*
X64313200Y-42639748D01*
X64313200Y-52047638D01*
X64271374Y-52474207D01*
X64153986Y-52863013D01*
X63963315Y-53221614D01*
X63706619Y-53536353D01*
X63393688Y-53795232D01*
X63036418Y-53988407D01*
X62648446Y-54108503D01*
X62223187Y-54153200D01*
X60982438Y-54153200D01*
X60960000Y-54150990D01*
X60937562Y-54153200D01*
X60870452Y-54159810D01*
X60784344Y-54185930D01*
X60782189Y-54187082D01*
X60782189Y-53008129D01*
X60805211Y-53041750D01*
X60828111Y-53076218D01*
X60832176Y-53081133D01*
X60991497Y-53271005D01*
X61021109Y-53300003D01*
X61050252Y-53329350D01*
X61055195Y-53333382D01*
X61248361Y-53488692D01*
X61283025Y-53511374D01*
X61317329Y-53534513D01*
X61322960Y-53537508D01*
X61542615Y-53652341D01*
X61580999Y-53667849D01*
X61619170Y-53683894D01*
X61625276Y-53685738D01*
X61863052Y-53755719D01*
X61903765Y-53763485D01*
X61944277Y-53771801D01*
X61950624Y-53772424D01*
X62197464Y-53794888D01*
X62238831Y-53794599D01*
X62280265Y-53794888D01*
X62286613Y-53794266D01*
X62533116Y-53768358D01*
X62573676Y-53760032D01*
X62614343Y-53752274D01*
X62620449Y-53750431D01*
X62857224Y-53677136D01*
X62895372Y-53661099D01*
X62933776Y-53645583D01*
X62939408Y-53642589D01*
X63157437Y-53524701D01*
X63191753Y-53501555D01*
X63226405Y-53478879D01*
X63231348Y-53474848D01*
X63422328Y-53316855D01*
X63451473Y-53287506D01*
X63481082Y-53258510D01*
X63485148Y-53253596D01*
X63641802Y-53061518D01*
X63664699Y-53027055D01*
X63688104Y-52992873D01*
X63691138Y-52987262D01*
X63807502Y-52768414D01*
X63823278Y-52730138D01*
X63839589Y-52692080D01*
X63841476Y-52685988D01*
X63913115Y-52448705D01*
X63921154Y-52408103D01*
X63929764Y-52367596D01*
X63930431Y-52361253D01*
X63954618Y-52114576D01*
X63954618Y-52093834D01*
X63956788Y-52073183D01*
X63956789Y-52066805D01*
X63956665Y-52049074D01*
X63954618Y-52029600D01*
X63954618Y-52025424D01*
X63954495Y-52024804D01*
X63954495Y-52007692D01*
X63953829Y-52001349D01*
X63926200Y-51755033D01*
X63917590Y-51714529D01*
X63909550Y-51673923D01*
X63907665Y-51667830D01*
X63832720Y-51431572D01*
X63816407Y-51393512D01*
X63800632Y-51355240D01*
X63797599Y-51349629D01*
X63678191Y-51132427D01*
X63654806Y-51098274D01*
X63631888Y-51063781D01*
X63627823Y-51058866D01*
X63468501Y-50868994D01*
X63438906Y-50840013D01*
X63409748Y-50810651D01*
X63404806Y-50806619D01*
X63211638Y-50651308D01*
X63177010Y-50628648D01*
X63142669Y-50605485D01*
X63137037Y-50602490D01*
X62917382Y-50487659D01*
X62879011Y-50472156D01*
X62840831Y-50456107D01*
X62834725Y-50454263D01*
X62596949Y-50384281D01*
X62556251Y-50376517D01*
X62515722Y-50368198D01*
X62509377Y-50367575D01*
X62509375Y-50367575D01*
X62262535Y-50345111D01*
X62221168Y-50345400D01*
X62179734Y-50345111D01*
X62173387Y-50345733D01*
X61926883Y-50371641D01*
X61886317Y-50379968D01*
X61845657Y-50387725D01*
X61839551Y-50389568D01*
X61602775Y-50462863D01*
X61564611Y-50478906D01*
X61526222Y-50494416D01*
X61520590Y-50497410D01*
X61302560Y-50615298D01*
X61268225Y-50638458D01*
X61233592Y-50661121D01*
X61228649Y-50665152D01*
X61037669Y-50823145D01*
X61008489Y-50852530D01*
X60978916Y-50881490D01*
X60974850Y-50886404D01*
X60818195Y-51078482D01*
X60795269Y-51112989D01*
X60771893Y-51147129D01*
X60768859Y-51152740D01*
X60652496Y-51371587D01*
X60636733Y-51409832D01*
X60620410Y-51447917D01*
X60618524Y-51454010D01*
X60546884Y-51691291D01*
X60538851Y-51731862D01*
X60532806Y-51760301D01*
X60515896Y-51746423D01*
X59695581Y-50926109D01*
X59708002Y-50800000D01*
X59683253Y-50548723D01*
X59609959Y-50307103D01*
X59490935Y-50084424D01*
X59330755Y-49889245D01*
X59135576Y-49729065D01*
X58912897Y-49610041D01*
X58671277Y-49536747D01*
X58482969Y-49518200D01*
X58357031Y-49518200D01*
X58168723Y-49536747D01*
X57927103Y-49610041D01*
X57704424Y-49729065D01*
X57509245Y-49889245D01*
X57349065Y-50084424D01*
X57230041Y-50307103D01*
X57156747Y-50548723D01*
X57150000Y-50617225D01*
X57143253Y-50548723D01*
X57069959Y-50307103D01*
X56950935Y-50084424D01*
X56790755Y-49889245D01*
X56595576Y-49729065D01*
X56372897Y-49610041D01*
X56131277Y-49536747D01*
X55942969Y-49518200D01*
X55817031Y-49518200D01*
X55628723Y-49536747D01*
X55387103Y-49610041D01*
X55164424Y-49729065D01*
X54969245Y-49889245D01*
X54809065Y-50084424D01*
X54690041Y-50307103D01*
X54616747Y-50548723D01*
X54610000Y-50617225D01*
X54603253Y-50548723D01*
X54529959Y-50307103D01*
X54410935Y-50084424D01*
X54250755Y-49889245D01*
X54055576Y-49729065D01*
X53832897Y-49610041D01*
X53591277Y-49536747D01*
X53402969Y-49518200D01*
X53277031Y-49518200D01*
X53088723Y-49536747D01*
X52847103Y-49610041D01*
X52624424Y-49729065D01*
X52429245Y-49889245D01*
X52269065Y-50084424D01*
X52150041Y-50307103D01*
X52076747Y-50548723D01*
X52070000Y-50617225D01*
X52063253Y-50548723D01*
X51989959Y-50307103D01*
X51870935Y-50084424D01*
X51710755Y-49889245D01*
X51515576Y-49729065D01*
X51292897Y-49610041D01*
X51051277Y-49536747D01*
X50862969Y-49518200D01*
X50737031Y-49518200D01*
X50548723Y-49536747D01*
X50307103Y-49610041D01*
X50229399Y-49651575D01*
X50229399Y-49584942D01*
X50722542Y-49091800D01*
X50881925Y-49091800D01*
X51042627Y-49059835D01*
X51194005Y-48997132D01*
X51330242Y-48906101D01*
X51446101Y-48790242D01*
X51537132Y-48654005D01*
X51599835Y-48502627D01*
X51631800Y-48341925D01*
X51631800Y-48178075D01*
X51599835Y-48017373D01*
X51537132Y-47865995D01*
X51446101Y-47729758D01*
X51330242Y-47613899D01*
X51194005Y-47522868D01*
X51042627Y-47460165D01*
X50881925Y-47428200D01*
X50718075Y-47428200D01*
X50557373Y-47460165D01*
X50405995Y-47522868D01*
X50269758Y-47613899D01*
X50153899Y-47729758D01*
X50062868Y-47865995D01*
X50000165Y-48017373D01*
X49968200Y-48178075D01*
X49968200Y-48337458D01*
X49337353Y-48968306D01*
X49317004Y-48985006D01*
X49250348Y-49066226D01*
X49200818Y-49158891D01*
X49170318Y-49259437D01*
X49162599Y-49337807D01*
X49162599Y-49337814D01*
X49160020Y-49364001D01*
X49162599Y-49390188D01*
X49162599Y-49882552D01*
X48975576Y-49729065D01*
X48752897Y-49610041D01*
X48511277Y-49536747D01*
X48322969Y-49518200D01*
X48197031Y-49518200D01*
X48008723Y-49536747D01*
X47767103Y-49610041D01*
X47544424Y-49729065D01*
X47349245Y-49889245D01*
X47189065Y-50084424D01*
X47070041Y-50307103D01*
X46996747Y-50548723D01*
X46990000Y-50617225D01*
X46983253Y-50548723D01*
X46909959Y-50307103D01*
X46790935Y-50084424D01*
X46630755Y-49889245D01*
X46435576Y-49729065D01*
X46212897Y-49610041D01*
X45971277Y-49536747D01*
X45782969Y-49518200D01*
X45657031Y-49518200D01*
X45468723Y-49536747D01*
X45436415Y-49546547D01*
X44704758Y-48814891D01*
X44683280Y-48788720D01*
X44578853Y-48703019D01*
X44459714Y-48639338D01*
X44330440Y-48600123D01*
X44229689Y-48590200D01*
X44229679Y-48590200D01*
X44196000Y-48586883D01*
X44162321Y-48590200D01*
X44158828Y-48590200D01*
X44082005Y-48538868D01*
X43930627Y-48476165D01*
X43769925Y-48444200D01*
X43606075Y-48444200D01*
X43445373Y-48476165D01*
X43293995Y-48538868D01*
X43157758Y-48629899D01*
X43041899Y-48745758D01*
X42950868Y-48881995D01*
X42888165Y-49033373D01*
X42856200Y-49194075D01*
X42856200Y-49357925D01*
X42888165Y-49518627D01*
X42899360Y-49545654D01*
X42687103Y-49610041D01*
X42464424Y-49729065D01*
X42269245Y-49889245D01*
X42109065Y-50084424D01*
X41990041Y-50307103D01*
X41916747Y-50548723D01*
X41910000Y-50617225D01*
X41903253Y-50548723D01*
X41829959Y-50307103D01*
X41710935Y-50084424D01*
X41550755Y-49889245D01*
X41355576Y-49729065D01*
X41132897Y-49610041D01*
X40891277Y-49536747D01*
X40702969Y-49518200D01*
X40577031Y-49518200D01*
X40388723Y-49536747D01*
X40147103Y-49610041D01*
X39924424Y-49729065D01*
X39729245Y-49889245D01*
X39569065Y-50084424D01*
X39450041Y-50307103D01*
X39376747Y-50548723D01*
X39370000Y-50617225D01*
X39363253Y-50548723D01*
X39289959Y-50307103D01*
X39170935Y-50084424D01*
X39010755Y-49889245D01*
X38815576Y-49729065D01*
X38592897Y-49610041D01*
X38351277Y-49536747D01*
X38162969Y-49518200D01*
X38037031Y-49518200D01*
X37848723Y-49536747D01*
X37607103Y-49610041D01*
X37384424Y-49729065D01*
X37189245Y-49889245D01*
X37029065Y-50084424D01*
X36910041Y-50307103D01*
X36836747Y-50548723D01*
X36830000Y-50617225D01*
X36823253Y-50548723D01*
X36749959Y-50307103D01*
X36630935Y-50084424D01*
X36470755Y-49889245D01*
X36275576Y-49729065D01*
X36052897Y-49610041D01*
X35811277Y-49536747D01*
X35622969Y-49518200D01*
X35497031Y-49518200D01*
X35308723Y-49536747D01*
X35067103Y-49610041D01*
X34844424Y-49729065D01*
X34649245Y-49889245D01*
X34489065Y-50084424D01*
X34370041Y-50307103D01*
X34296747Y-50548723D01*
X34290000Y-50617225D01*
X34283253Y-50548723D01*
X34209959Y-50307103D01*
X34090935Y-50084424D01*
X33930755Y-49889245D01*
X33735576Y-49729065D01*
X33512897Y-49610041D01*
X33271277Y-49536747D01*
X33082969Y-49518200D01*
X32957031Y-49518200D01*
X32768723Y-49536747D01*
X32527103Y-49610041D01*
X32304424Y-49729065D01*
X32109245Y-49889245D01*
X31949065Y-50084424D01*
X31830041Y-50307103D01*
X31756747Y-50548723D01*
X31750000Y-50617225D01*
X31743253Y-50548723D01*
X31669959Y-50307103D01*
X31550935Y-50084424D01*
X31390755Y-49889245D01*
X31195576Y-49729065D01*
X30972897Y-49610041D01*
X30731277Y-49536747D01*
X30542969Y-49518200D01*
X30417031Y-49518200D01*
X30228723Y-49536747D01*
X29987103Y-49610041D01*
X29764424Y-49729065D01*
X29569245Y-49889245D01*
X29409065Y-50084424D01*
X29290041Y-50307103D01*
X29216747Y-50548723D01*
X29210000Y-50617225D01*
X29203253Y-50548723D01*
X29129959Y-50307103D01*
X29010935Y-50084424D01*
X28850755Y-49889245D01*
X28655576Y-49729065D01*
X28432897Y-49610041D01*
X28191277Y-49536747D01*
X28002969Y-49518200D01*
X27877031Y-49518200D01*
X27688723Y-49536747D01*
X27447103Y-49610041D01*
X27224424Y-49729065D01*
X27029245Y-49889245D01*
X26869065Y-50084424D01*
X26750041Y-50307103D01*
X26676747Y-50548723D01*
X26670000Y-50617225D01*
X26663253Y-50548723D01*
X26589959Y-50307103D01*
X26470935Y-50084424D01*
X26310755Y-49889245D01*
X26115576Y-49729065D01*
X25892897Y-49610041D01*
X25651277Y-49536747D01*
X25462969Y-49518200D01*
X25337031Y-49518200D01*
X25148723Y-49536747D01*
X24907103Y-49610041D01*
X24684424Y-49729065D01*
X24489245Y-49889245D01*
X24329065Y-50084424D01*
X24210041Y-50307103D01*
X24136747Y-50548723D01*
X24130000Y-50617225D01*
X24123253Y-50548723D01*
X24049959Y-50307103D01*
X23930935Y-50084424D01*
X23770755Y-49889245D01*
X23575576Y-49729065D01*
X23352897Y-49610041D01*
X23111277Y-49536747D01*
X22922969Y-49518200D01*
X22797031Y-49518200D01*
X22608723Y-49536747D01*
X22367103Y-49610041D01*
X22144424Y-49729065D01*
X21949245Y-49889245D01*
X21789065Y-50084424D01*
X21670041Y-50307103D01*
X21596747Y-50548723D01*
X21590000Y-50617225D01*
X21583253Y-50548723D01*
X21509959Y-50307103D01*
X21390935Y-50084424D01*
X21230755Y-49889245D01*
X21035576Y-49729065D01*
X20812897Y-49610041D01*
X20571277Y-49536747D01*
X20382969Y-49518200D01*
X20257031Y-49518200D01*
X20068723Y-49536747D01*
X19827103Y-49610041D01*
X19604424Y-49729065D01*
X19409245Y-49889245D01*
X19249065Y-50084424D01*
X19130041Y-50307103D01*
X19056747Y-50548723D01*
X19050000Y-50617225D01*
X19043253Y-50548723D01*
X18969959Y-50307103D01*
X18850935Y-50084424D01*
X18690755Y-49889245D01*
X18495576Y-49729065D01*
X18272897Y-49610041D01*
X18031277Y-49536747D01*
X17842969Y-49518200D01*
X17717031Y-49518200D01*
X17528723Y-49536747D01*
X17287103Y-49610041D01*
X17064424Y-49729065D01*
X16869245Y-49889245D01*
X16709065Y-50084424D01*
X16590041Y-50307103D01*
X16516747Y-50548723D01*
X16510000Y-50617225D01*
X16503253Y-50548723D01*
X16429959Y-50307103D01*
X16310935Y-50084424D01*
X16150755Y-49889245D01*
X15955576Y-49729065D01*
X15732897Y-49610041D01*
X15491277Y-49536747D01*
X15302969Y-49518200D01*
X15177031Y-49518200D01*
X14988723Y-49536747D01*
X14818611Y-49588349D01*
X12541385Y-47311123D01*
X12688627Y-47281835D01*
X12840005Y-47219132D01*
X12976242Y-47128101D01*
X13092101Y-47012242D01*
X13183132Y-46876005D01*
X13245835Y-46724627D01*
X13277800Y-46563925D01*
X13277800Y-46400075D01*
X13245835Y-46239373D01*
X13183132Y-46087995D01*
X13092101Y-45951758D01*
X12976242Y-45835899D01*
X12840005Y-45744868D01*
X12688627Y-45682165D01*
X12527925Y-45650200D01*
X12364075Y-45650200D01*
X12203373Y-45682165D01*
X12051995Y-45744868D01*
X11915758Y-45835899D01*
X11828457Y-45923200D01*
X9425441Y-45923200D01*
X9397999Y-45920497D01*
X9370557Y-45923200D01*
X9370556Y-45923200D01*
X9288456Y-45931286D01*
X9183122Y-45963239D01*
X9086046Y-46015127D01*
X9000957Y-46084957D01*
X8983457Y-46106281D01*
X8931538Y-46158200D01*
X8808075Y-46158200D01*
X8647373Y-46190165D01*
X8495995Y-46252868D01*
X8359758Y-46343899D01*
X8243899Y-46459758D01*
X8152868Y-46595995D01*
X8090165Y-46747373D01*
X8058200Y-46908075D01*
X8058200Y-47071925D01*
X8090165Y-47232627D01*
X8152868Y-47384005D01*
X8243899Y-47520242D01*
X8359758Y-47636101D01*
X8495995Y-47727132D01*
X8647373Y-47789835D01*
X8808075Y-47821800D01*
X8971925Y-47821800D01*
X9132627Y-47789835D01*
X9284005Y-47727132D01*
X9420242Y-47636101D01*
X9536101Y-47520242D01*
X9627132Y-47384005D01*
X9689835Y-47232627D01*
X9721800Y-47071925D01*
X9721800Y-47040800D01*
X10229017Y-47040800D01*
X10190660Y-47098205D01*
X10127957Y-47249583D01*
X10095992Y-47410285D01*
X10095992Y-47574135D01*
X10127957Y-47734837D01*
X10190660Y-47886215D01*
X10281691Y-48022452D01*
X10397550Y-48138311D01*
X10533787Y-48229342D01*
X10685165Y-48292045D01*
X10845867Y-48324010D01*
X11009717Y-48324010D01*
X11170419Y-48292045D01*
X11321797Y-48229342D01*
X11458034Y-48138311D01*
X11545335Y-48051010D01*
X11700748Y-48051010D01*
X13336578Y-49686840D01*
X13192897Y-49610041D01*
X12951277Y-49536747D01*
X12762969Y-49518200D01*
X12637031Y-49518200D01*
X12448723Y-49536747D01*
X12207103Y-49610041D01*
X11984424Y-49729065D01*
X11789245Y-49889245D01*
X11629065Y-50084424D01*
X11536005Y-50258528D01*
X11504157Y-50168748D01*
X11355178Y-49918645D01*
X11160269Y-49702412D01*
X10926920Y-49528359D01*
X10664099Y-49403175D01*
X10516890Y-49358524D01*
X10287000Y-49479845D01*
X10287000Y-50673000D01*
X10307000Y-50673000D01*
X10307000Y-50927000D01*
X10287000Y-50927000D01*
X10287000Y-50947000D01*
X10033000Y-50947000D01*
X10033000Y-50927000D01*
X8839186Y-50927000D01*
X8718519Y-51156891D01*
X8815843Y-51431252D01*
X8964822Y-51681355D01*
X9159731Y-51897588D01*
X9372259Y-52056111D01*
X9310000Y-52056111D01*
X9225352Y-52064448D01*
X9143958Y-52089139D01*
X9068944Y-52129234D01*
X9003194Y-52183194D01*
X8949234Y-52248944D01*
X8909139Y-52323958D01*
X8884448Y-52405352D01*
X8876111Y-52490000D01*
X8876111Y-54190000D01*
X8884448Y-54274648D01*
X8909139Y-54356042D01*
X8949234Y-54431056D01*
X9003194Y-54496806D01*
X9068944Y-54550766D01*
X9143958Y-54590861D01*
X9225352Y-54615552D01*
X9310000Y-54623889D01*
X11010000Y-54623889D01*
X11094648Y-54615552D01*
X11176042Y-54590861D01*
X11251056Y-54550766D01*
X11316806Y-54496806D01*
X11370766Y-54431056D01*
X11410861Y-54356042D01*
X11435552Y-54274648D01*
X11443889Y-54190000D01*
X11443889Y-53614821D01*
X11510041Y-53832897D01*
X11629065Y-54055576D01*
X11789245Y-54250755D01*
X11984424Y-54410935D01*
X12207103Y-54529959D01*
X12448723Y-54603253D01*
X12637031Y-54621800D01*
X12762969Y-54621800D01*
X12951277Y-54603253D01*
X13192897Y-54529959D01*
X13415576Y-54410935D01*
X13610755Y-54250755D01*
X13770935Y-54055576D01*
X13889959Y-53832897D01*
X13963253Y-53591277D01*
X13970000Y-53522775D01*
X13976747Y-53591277D01*
X14050041Y-53832897D01*
X14169065Y-54055576D01*
X14329245Y-54250755D01*
X14524424Y-54410935D01*
X14747103Y-54529959D01*
X14988723Y-54603253D01*
X15177031Y-54621800D01*
X15302969Y-54621800D01*
X15491277Y-54603253D01*
X15732897Y-54529959D01*
X15955576Y-54410935D01*
X16150755Y-54250755D01*
X16310935Y-54055576D01*
X16429959Y-53832897D01*
X16503253Y-53591277D01*
X16510000Y-53522775D01*
X16516747Y-53591277D01*
X16590041Y-53832897D01*
X16709065Y-54055576D01*
X16869245Y-54250755D01*
X17064424Y-54410935D01*
X17287103Y-54529959D01*
X17528723Y-54603253D01*
X17717031Y-54621800D01*
X17842969Y-54621800D01*
X18031277Y-54603253D01*
X18272897Y-54529959D01*
X18495576Y-54410935D01*
X18690755Y-54250755D01*
X18850935Y-54055576D01*
X18969959Y-53832897D01*
X19043253Y-53591277D01*
X19050000Y-53522775D01*
X19056747Y-53591277D01*
X19130041Y-53832897D01*
X19249065Y-54055576D01*
X19409245Y-54250755D01*
X19604424Y-54410935D01*
X19827103Y-54529959D01*
X20068723Y-54603253D01*
X20257031Y-54621800D01*
X20382969Y-54621800D01*
X20571277Y-54603253D01*
X20812897Y-54529959D01*
X21035576Y-54410935D01*
X21230755Y-54250755D01*
X21390935Y-54055576D01*
X21509959Y-53832897D01*
X21583253Y-53591277D01*
X21590000Y-53522775D01*
X21596747Y-53591277D01*
X21670041Y-53832897D01*
X21789065Y-54055576D01*
X21949245Y-54250755D01*
X22144424Y-54410935D01*
X22367103Y-54529959D01*
X22608723Y-54603253D01*
X22797031Y-54621800D01*
X22922969Y-54621800D01*
X23111277Y-54603253D01*
X23352897Y-54529959D01*
X23575576Y-54410935D01*
X23770755Y-54250755D01*
X23930935Y-54055576D01*
X24049959Y-53832897D01*
X24123253Y-53591277D01*
X24130000Y-53522775D01*
X24136747Y-53591277D01*
X24210041Y-53832897D01*
X24329065Y-54055576D01*
X24489245Y-54250755D01*
X24684424Y-54410935D01*
X24907103Y-54529959D01*
X25148723Y-54603253D01*
X25337031Y-54621800D01*
X25462969Y-54621800D01*
X25651277Y-54603253D01*
X25892897Y-54529959D01*
X26115576Y-54410935D01*
X26310755Y-54250755D01*
X26470935Y-54055576D01*
X26589959Y-53832897D01*
X26663253Y-53591277D01*
X26670000Y-53522775D01*
X26676747Y-53591277D01*
X26750041Y-53832897D01*
X26869065Y-54055576D01*
X27029245Y-54250755D01*
X27224424Y-54410935D01*
X27447103Y-54529959D01*
X27688723Y-54603253D01*
X27877031Y-54621800D01*
X28002969Y-54621800D01*
X28191277Y-54603253D01*
X28432897Y-54529959D01*
X28655576Y-54410935D01*
X28850755Y-54250755D01*
X29010935Y-54055576D01*
X29129959Y-53832897D01*
X29203253Y-53591277D01*
X29210000Y-53522775D01*
X29216747Y-53591277D01*
X29290041Y-53832897D01*
X29409065Y-54055576D01*
X29569245Y-54250755D01*
X29764424Y-54410935D01*
X29987103Y-54529959D01*
X30228723Y-54603253D01*
X30417031Y-54621800D01*
X30542969Y-54621800D01*
X30731277Y-54603253D01*
X30972897Y-54529959D01*
X31195576Y-54410935D01*
X31390755Y-54250755D01*
X31550935Y-54055576D01*
X31669959Y-53832897D01*
X31743253Y-53591277D01*
X31750000Y-53522775D01*
X31756747Y-53591277D01*
X31830041Y-53832897D01*
X31949065Y-54055576D01*
X32109245Y-54250755D01*
X32304424Y-54410935D01*
X32527103Y-54529959D01*
X32768723Y-54603253D01*
X32957031Y-54621800D01*
X33082969Y-54621800D01*
X33271277Y-54603253D01*
X33512897Y-54529959D01*
X33735576Y-54410935D01*
X33930755Y-54250755D01*
X34090935Y-54055576D01*
X34209959Y-53832897D01*
X34283253Y-53591277D01*
X34290000Y-53522775D01*
X34296747Y-53591277D01*
X34370041Y-53832897D01*
X34489065Y-54055576D01*
X34649245Y-54250755D01*
X34844424Y-54410935D01*
X35067103Y-54529959D01*
X35308723Y-54603253D01*
X35497031Y-54621800D01*
X35622969Y-54621800D01*
X35811277Y-54603253D01*
X36052897Y-54529959D01*
X36275576Y-54410935D01*
X36470755Y-54250755D01*
X36630935Y-54055576D01*
X36749959Y-53832897D01*
X36823253Y-53591277D01*
X36830000Y-53522775D01*
X36836747Y-53591277D01*
X36910041Y-53832897D01*
X37029065Y-54055576D01*
X37189245Y-54250755D01*
X37384424Y-54410935D01*
X37607103Y-54529959D01*
X37848723Y-54603253D01*
X38037031Y-54621800D01*
X38162969Y-54621800D01*
X38351277Y-54603253D01*
X38592897Y-54529959D01*
X38815576Y-54410935D01*
X39010755Y-54250755D01*
X39170935Y-54055576D01*
X39289959Y-53832897D01*
X39363253Y-53591277D01*
X39370000Y-53522775D01*
X39376747Y-53591277D01*
X39450041Y-53832897D01*
X39569065Y-54055576D01*
X39729245Y-54250755D01*
X39924424Y-54410935D01*
X40147103Y-54529959D01*
X40192379Y-54543693D01*
X40109758Y-54598899D01*
X39993899Y-54714758D01*
X39902868Y-54850995D01*
X39840165Y-55002373D01*
X39808200Y-55163075D01*
X39808200Y-55326925D01*
X39840165Y-55487627D01*
X39902868Y-55639005D01*
X39993899Y-55775242D01*
X40109758Y-55891101D01*
X40245995Y-55982132D01*
X40397373Y-56044835D01*
X40558075Y-56076800D01*
X40721925Y-56076800D01*
X40882627Y-56044835D01*
X41034005Y-55982132D01*
X41170242Y-55891101D01*
X41282943Y-55778400D01*
X53967057Y-55778400D01*
X54079758Y-55891101D01*
X54215995Y-55982132D01*
X54367373Y-56044835D01*
X54528075Y-56076800D01*
X54691925Y-56076800D01*
X54852627Y-56044835D01*
X55004005Y-55982132D01*
X55140242Y-55891101D01*
X55256101Y-55775242D01*
X55347132Y-55639005D01*
X55409835Y-55487627D01*
X55441800Y-55326925D01*
X55441800Y-55163075D01*
X55409835Y-55002373D01*
X55347132Y-54850995D01*
X55256101Y-54714758D01*
X55140242Y-54598899D01*
X55004005Y-54507868D01*
X54852627Y-54445165D01*
X54691925Y-54413200D01*
X54528075Y-54413200D01*
X54367373Y-54445165D01*
X54215995Y-54507868D01*
X54079758Y-54598899D01*
X53967057Y-54711600D01*
X49547741Y-54711600D01*
X49954792Y-54304549D01*
X50084424Y-54410935D01*
X50307103Y-54529959D01*
X50548723Y-54603253D01*
X50737031Y-54621800D01*
X50862969Y-54621800D01*
X51051277Y-54603253D01*
X51292897Y-54529959D01*
X51515576Y-54410935D01*
X51710755Y-54250755D01*
X51870935Y-54055576D01*
X51989959Y-53832897D01*
X52063253Y-53591277D01*
X52070000Y-53522775D01*
X52076747Y-53591277D01*
X52150041Y-53832897D01*
X52269065Y-54055576D01*
X52429245Y-54250755D01*
X52624424Y-54410935D01*
X52847103Y-54529959D01*
X53088723Y-54603253D01*
X53277031Y-54621800D01*
X53402969Y-54621800D01*
X53591277Y-54603253D01*
X53832897Y-54529959D01*
X54055576Y-54410935D01*
X54250755Y-54250755D01*
X54410935Y-54055576D01*
X54529959Y-53832897D01*
X54603253Y-53591277D01*
X54610000Y-53522775D01*
X54616747Y-53591277D01*
X54690041Y-53832897D01*
X54809065Y-54055576D01*
X54969245Y-54250755D01*
X55164424Y-54410935D01*
X55387103Y-54529959D01*
X55628723Y-54603253D01*
X55817031Y-54621800D01*
X55942969Y-54621800D01*
X56131277Y-54603253D01*
X56372897Y-54529959D01*
X56595576Y-54410935D01*
X56790755Y-54250755D01*
X56950935Y-54055576D01*
X57069959Y-53832897D01*
X57143253Y-53591277D01*
X57150000Y-53522775D01*
X57156747Y-53591277D01*
X57230041Y-53832897D01*
X57349065Y-54055576D01*
X57509245Y-54250755D01*
X57704424Y-54410935D01*
X57927103Y-54529959D01*
X58168723Y-54603253D01*
X58357031Y-54621800D01*
X58482969Y-54621800D01*
X58671277Y-54603253D01*
X58912897Y-54529959D01*
X59135576Y-54410935D01*
X59156590Y-54393689D01*
X59156590Y-54577153D01*
X59120129Y-54613614D01*
X59039148Y-54667724D01*
X58923289Y-54783583D01*
X58832258Y-54919820D01*
X58769555Y-55071198D01*
X58737590Y-55231900D01*
X58737590Y-55395750D01*
X58769555Y-55556452D01*
X58832258Y-55707830D01*
X58923289Y-55844067D01*
X59039148Y-55959926D01*
X59175385Y-56050957D01*
X59326763Y-56113660D01*
X59487465Y-56145625D01*
X59651315Y-56145625D01*
X59812017Y-56113660D01*
X59963395Y-56050957D01*
X60099632Y-55959926D01*
X60215491Y-55844067D01*
X60269601Y-55763086D01*
X60503200Y-55529487D01*
X60503201Y-59500786D01*
X59500788Y-60503200D01*
X9079213Y-60503200D01*
X8076800Y-59500788D01*
X8076800Y-54632438D01*
X8079010Y-54610000D01*
X8070190Y-54520452D01*
X8044070Y-54434344D01*
X8001653Y-54354988D01*
X7944569Y-54285431D01*
X7875012Y-54228347D01*
X7795656Y-54185930D01*
X7709548Y-54159810D01*
X7642438Y-54153200D01*
X7620000Y-54150990D01*
X7597562Y-54153200D01*
X2562342Y-54153200D01*
X2135793Y-54111376D01*
X1746989Y-53993989D01*
X1388384Y-53803315D01*
X1073649Y-53546623D01*
X814762Y-53233682D01*
X621594Y-52876424D01*
X501496Y-52488448D01*
X457851Y-52073194D01*
X813211Y-52073194D01*
X813335Y-52090926D01*
X815380Y-52110380D01*
X815380Y-52114576D01*
X815505Y-52115206D01*
X815505Y-52132308D01*
X816171Y-52138651D01*
X843800Y-52384968D01*
X852411Y-52425479D01*
X860450Y-52466077D01*
X862335Y-52472170D01*
X937280Y-52708428D01*
X953587Y-52746475D01*
X969368Y-52784761D01*
X972401Y-52790371D01*
X1091809Y-53007574D01*
X1115211Y-53041750D01*
X1138111Y-53076218D01*
X1142176Y-53081133D01*
X1301497Y-53271005D01*
X1331109Y-53300003D01*
X1360252Y-53329350D01*
X1365195Y-53333382D01*
X1558361Y-53488692D01*
X1593025Y-53511374D01*
X1627329Y-53534513D01*
X1632960Y-53537508D01*
X1852615Y-53652341D01*
X1890999Y-53667849D01*
X1929170Y-53683894D01*
X1935276Y-53685738D01*
X2173052Y-53755719D01*
X2213765Y-53763485D01*
X2254277Y-53771801D01*
X2260624Y-53772424D01*
X2507464Y-53794888D01*
X2548831Y-53794599D01*
X2590265Y-53794888D01*
X2596613Y-53794266D01*
X2843116Y-53768358D01*
X2883676Y-53760032D01*
X2924343Y-53752274D01*
X2930449Y-53750431D01*
X3167224Y-53677136D01*
X3205372Y-53661099D01*
X3243776Y-53645583D01*
X3249408Y-53642589D01*
X3467437Y-53524701D01*
X3501753Y-53501555D01*
X3536405Y-53478879D01*
X3541348Y-53474848D01*
X3732328Y-53316855D01*
X3761473Y-53287506D01*
X3791082Y-53258510D01*
X3795148Y-53253596D01*
X3951802Y-53061518D01*
X3974699Y-53027055D01*
X3998104Y-52992873D01*
X4001138Y-52987262D01*
X4117502Y-52768414D01*
X4133278Y-52730138D01*
X4149589Y-52692080D01*
X4151476Y-52685988D01*
X4223115Y-52448705D01*
X4231154Y-52408103D01*
X4239764Y-52367596D01*
X4240431Y-52361253D01*
X4264618Y-52114576D01*
X4264618Y-52093834D01*
X4266788Y-52073183D01*
X4266789Y-52066805D01*
X4266665Y-52049074D01*
X4264618Y-52029600D01*
X4264618Y-52025424D01*
X4264495Y-52024804D01*
X4264495Y-52007692D01*
X4263829Y-52001349D01*
X4236200Y-51755033D01*
X4227590Y-51714529D01*
X4219550Y-51673923D01*
X4217665Y-51667830D01*
X4142720Y-51431572D01*
X4126407Y-51393512D01*
X4110632Y-51355240D01*
X4107599Y-51349629D01*
X3988191Y-51132427D01*
X3964806Y-51098274D01*
X3941888Y-51063781D01*
X3937823Y-51058866D01*
X3778501Y-50868994D01*
X3748906Y-50840013D01*
X3719748Y-50810651D01*
X3714806Y-50806619D01*
X3521638Y-50651308D01*
X3487010Y-50628648D01*
X3452669Y-50605485D01*
X3447037Y-50602490D01*
X3227382Y-50487659D01*
X3189011Y-50472156D01*
X3150831Y-50456107D01*
X3144725Y-50454263D01*
X3106828Y-50443109D01*
X8718519Y-50443109D01*
X8839186Y-50673000D01*
X10033000Y-50673000D01*
X10033000Y-49479845D01*
X9803110Y-49358524D01*
X9655901Y-49403175D01*
X9393080Y-49528359D01*
X9159731Y-49702412D01*
X8964822Y-49918645D01*
X8815843Y-50168748D01*
X8718519Y-50443109D01*
X3106828Y-50443109D01*
X2906949Y-50384281D01*
X2866251Y-50376517D01*
X2825722Y-50368198D01*
X2819377Y-50367575D01*
X2819375Y-50367575D01*
X2572535Y-50345111D01*
X2531168Y-50345400D01*
X2489734Y-50345111D01*
X2483387Y-50345733D01*
X2236883Y-50371641D01*
X2196317Y-50379968D01*
X2155657Y-50387725D01*
X2149551Y-50389568D01*
X1912775Y-50462863D01*
X1874611Y-50478906D01*
X1836222Y-50494416D01*
X1830590Y-50497410D01*
X1612560Y-50615298D01*
X1578225Y-50638458D01*
X1543592Y-50661121D01*
X1538649Y-50665152D01*
X1347669Y-50823145D01*
X1318489Y-50852530D01*
X1288916Y-50881490D01*
X1284850Y-50886404D01*
X1128195Y-51078482D01*
X1105269Y-51112989D01*
X1081893Y-51147129D01*
X1078859Y-51152740D01*
X962496Y-51371587D01*
X946733Y-51409832D01*
X930410Y-51447917D01*
X928524Y-51454010D01*
X856884Y-51691291D01*
X848851Y-51731862D01*
X840234Y-51772403D01*
X839567Y-51778746D01*
X815380Y-52025424D01*
X815380Y-52046185D01*
X813212Y-52066816D01*
X813211Y-52073194D01*
X457851Y-52073194D01*
X456800Y-52063197D01*
X456800Y-21756259D01*
X953646Y-21164141D01*
X999317Y-21098916D01*
X1468925Y-20285531D01*
X1479627Y-20262581D01*
X1502577Y-20213366D01*
X1823808Y-19330789D01*
X1844415Y-19253880D01*
X1844416Y-19253878D01*
X2007510Y-18328930D01*
X2014450Y-18249608D01*
X2014450Y-17310391D01*
X2007510Y-17231069D01*
X2007510Y-17231068D01*
X1844416Y-16306120D01*
X1838894Y-16285512D01*
X1823808Y-16229209D01*
X1502577Y-15346632D01*
X1478433Y-15294857D01*
X1468925Y-15274467D01*
X999317Y-14461082D01*
X953646Y-14395857D01*
X953645Y-14395856D01*
X456800Y-13803739D01*
X456800Y-3197343D01*
X498623Y-2770797D01*
X616012Y-2381986D01*
X806682Y-2023389D01*
X1063376Y-1708650D01*
X1376317Y-1449763D01*
X1733574Y-1256595D01*
X2121553Y-1136495D01*
X2546802Y-1091800D01*
X62207657Y-1091800D01*
X62634203Y-1133623D01*
X62634203Y-1133623D01*
G37*
X62634203Y-1133623D02*
X63023014Y-1251012D01*
X63381611Y-1441682D01*
X63696350Y-1698376D01*
X63955237Y-2011317D01*
X64148405Y-2368574D01*
X64268505Y-2756553D01*
X64313200Y-3181802D01*
X64313201Y-13803740D01*
X63816357Y-14395856D01*
X63816354Y-14395859D01*
X63770683Y-14461084D01*
X63301076Y-15274467D01*
X63301075Y-15274469D01*
X63267423Y-15346634D01*
X62946192Y-16229210D01*
X62941495Y-16246741D01*
X62925584Y-16306122D01*
X62762490Y-17231070D01*
X62762490Y-17231071D01*
X62755550Y-17310393D01*
X62755550Y-18249610D01*
X62762490Y-18328932D01*
X62925584Y-19253878D01*
X62925584Y-19253880D01*
X62946192Y-19330792D01*
X63267423Y-20213368D01*
X63301074Y-20285530D01*
X63301075Y-20285533D01*
X63770682Y-21098916D01*
X63770683Y-21098918D01*
X63816354Y-21164143D01*
X64313201Y-21756262D01*
X64313201Y-25940253D01*
X64154857Y-25709748D01*
X63945619Y-25505824D01*
X63700618Y-25346639D01*
X63561723Y-25291189D01*
X63730576Y-25200935D01*
X63925755Y-25040755D01*
X64085935Y-24845576D01*
X64204959Y-24622897D01*
X64278253Y-24381277D01*
X64303002Y-24130000D01*
X64278253Y-23878723D01*
X64204959Y-23637103D01*
X64085935Y-23414424D01*
X63925755Y-23219245D01*
X63730576Y-23059065D01*
X63507897Y-22940041D01*
X63266277Y-22866747D01*
X63077969Y-22848200D01*
X61252031Y-22848200D01*
X61063723Y-22866747D01*
X60822103Y-22940041D01*
X60599424Y-23059065D01*
X60404245Y-23219245D01*
X60244065Y-23414424D01*
X60125041Y-23637103D01*
X60051747Y-23878723D01*
X60026998Y-24130000D01*
X60051747Y-24381277D01*
X60125041Y-24622897D01*
X60244065Y-24845576D01*
X60404245Y-25040755D01*
X60599424Y-25200935D01*
X60768277Y-25291189D01*
X60629382Y-25346639D01*
X60384381Y-25505824D01*
X60175143Y-25709748D01*
X60009709Y-25950574D01*
X59894437Y-26219047D01*
X59873524Y-26313110D01*
X59994845Y-26543000D01*
X62038000Y-26543000D01*
X62038000Y-26523000D01*
X62292000Y-26523000D01*
X62292000Y-26543000D01*
X62312000Y-26543000D01*
X62312000Y-26797000D01*
X62292000Y-26797000D01*
X62292000Y-26817000D01*
X62038000Y-26817000D01*
X62038000Y-26797000D01*
X59994845Y-26797000D01*
X59873524Y-27026890D01*
X59894437Y-27120953D01*
X60009709Y-27389426D01*
X60175143Y-27630252D01*
X60384381Y-27834176D01*
X60629382Y-27993361D01*
X60768277Y-28048811D01*
X60599424Y-28139065D01*
X60404245Y-28299245D01*
X60244065Y-28494424D01*
X60125041Y-28717103D01*
X60051747Y-28958723D01*
X60026998Y-29210000D01*
X60051747Y-29461277D01*
X60103184Y-29630842D01*
X58743800Y-28271459D01*
X58743800Y-28112075D01*
X58711835Y-27951373D01*
X58649132Y-27799995D01*
X58558101Y-27663758D01*
X58442242Y-27547899D01*
X58306005Y-27456868D01*
X58154627Y-27394165D01*
X57993925Y-27362200D01*
X57830075Y-27362200D01*
X57669373Y-27394165D01*
X57517995Y-27456868D01*
X57381758Y-27547899D01*
X57265899Y-27663758D01*
X57174868Y-27799995D01*
X57112165Y-27951373D01*
X57080200Y-28112075D01*
X57080200Y-28275925D01*
X57112165Y-28436627D01*
X57174868Y-28588005D01*
X57265899Y-28724242D01*
X57381758Y-28840101D01*
X57517995Y-28931132D01*
X57669373Y-28993835D01*
X57830075Y-29025800D01*
X57989459Y-29025800D01*
X60158383Y-31194725D01*
X60125041Y-31257103D01*
X60051747Y-31498723D01*
X60026998Y-31750000D01*
X60051747Y-32001277D01*
X60125041Y-32242897D01*
X60244065Y-32465576D01*
X60404245Y-32660755D01*
X60599424Y-32820935D01*
X60822103Y-32939959D01*
X61063723Y-33013253D01*
X61132225Y-33020000D01*
X61063723Y-33026747D01*
X60822103Y-33100041D01*
X60599424Y-33219065D01*
X60404245Y-33379245D01*
X60244065Y-33574424D01*
X60125041Y-33797103D01*
X60051747Y-34038723D01*
X60026998Y-34290000D01*
X60051747Y-34541277D01*
X60125041Y-34782897D01*
X60244065Y-35005576D01*
X60404245Y-35200755D01*
X60599424Y-35360935D01*
X60822103Y-35479959D01*
X61063723Y-35553253D01*
X61132225Y-35560000D01*
X61063723Y-35566747D01*
X60822103Y-35640041D01*
X60599424Y-35759065D01*
X60404245Y-35919245D01*
X60244065Y-36114424D01*
X60125041Y-36337103D01*
X60051747Y-36578723D01*
X60026998Y-36830000D01*
X60051747Y-37081277D01*
X60125041Y-37322897D01*
X60244065Y-37545576D01*
X60404245Y-37740755D01*
X60599424Y-37900935D01*
X60822103Y-38019959D01*
X61063723Y-38093253D01*
X61132225Y-38100000D01*
X61063723Y-38106747D01*
X60822103Y-38180041D01*
X60599424Y-38299065D01*
X60404245Y-38459245D01*
X60244065Y-38654424D01*
X60125041Y-38877103D01*
X60051747Y-39118723D01*
X60026998Y-39370000D01*
X60051747Y-39621277D01*
X60114670Y-39828707D01*
X59886800Y-40056577D01*
X59886800Y-39942085D01*
X59854835Y-39781383D01*
X59792132Y-39630005D01*
X59701101Y-39493768D01*
X59588400Y-39381067D01*
X59588400Y-32411187D01*
X59590979Y-32385000D01*
X59588400Y-32358813D01*
X59588400Y-32358805D01*
X59580681Y-32280435D01*
X59550181Y-32179889D01*
X59500651Y-32087225D01*
X59433995Y-32006005D01*
X59413645Y-31989304D01*
X57981800Y-30557459D01*
X57981800Y-30398075D01*
X57949835Y-30237373D01*
X57887132Y-30085995D01*
X57796101Y-29949758D01*
X57680242Y-29833899D01*
X57544005Y-29742868D01*
X57392627Y-29680165D01*
X57231925Y-29648200D01*
X57068075Y-29648200D01*
X56907373Y-29680165D01*
X56783851Y-29731330D01*
X56783851Y-21440490D01*
X57977655Y-20246686D01*
X57998005Y-20229985D01*
X58064661Y-20148765D01*
X58114191Y-20056101D01*
X58144691Y-19955555D01*
X58152410Y-19877185D01*
X58152410Y-19877184D01*
X58154990Y-19850990D01*
X58152410Y-19824796D01*
X58152410Y-15334468D01*
X58335574Y-15460291D01*
X58604047Y-15575563D01*
X58698110Y-15596476D01*
X58928000Y-15475155D01*
X58928000Y-13862000D01*
X58908000Y-13862000D01*
X58908000Y-13608000D01*
X58928000Y-13608000D01*
X58928000Y-10522000D01*
X58908000Y-10522000D01*
X58908000Y-10268000D01*
X58928000Y-10268000D01*
X58928000Y-8654845D01*
X59182000Y-8654845D01*
X59182000Y-10268000D01*
X59202000Y-10268000D01*
X59202000Y-10522000D01*
X59182000Y-10522000D01*
X59182000Y-13608000D01*
X59202000Y-13608000D01*
X59202000Y-13862000D01*
X59182000Y-13862000D01*
X59182000Y-15475155D01*
X59411890Y-15596476D01*
X59505953Y-15575563D01*
X59774426Y-15460291D01*
X60015252Y-15294857D01*
X60219176Y-15085619D01*
X60378361Y-14840618D01*
X60433812Y-14701722D01*
X60524065Y-14870575D01*
X60684245Y-15065755D01*
X60879424Y-15225935D01*
X61102103Y-15344959D01*
X61343723Y-15418253D01*
X61595000Y-15443002D01*
X61846276Y-15418253D01*
X62087896Y-15344959D01*
X62310575Y-15225935D01*
X62505755Y-15065755D01*
X62665935Y-14870576D01*
X62784959Y-14647897D01*
X62858253Y-14406277D01*
X62876800Y-14217969D01*
X62876800Y-13252032D01*
X62858253Y-13063723D01*
X62784959Y-12822103D01*
X62665935Y-12599424D01*
X62505755Y-12404245D01*
X62310576Y-12244065D01*
X62087897Y-12125041D01*
X61889966Y-12065000D01*
X62087896Y-12004959D01*
X62310575Y-11885935D01*
X62505755Y-11725755D01*
X62665935Y-11530576D01*
X62784959Y-11307897D01*
X62858253Y-11066277D01*
X62876800Y-10877969D01*
X62876800Y-9912032D01*
X62858253Y-9723723D01*
X62784959Y-9482103D01*
X62665935Y-9259424D01*
X62505755Y-9064245D01*
X62310576Y-8904065D01*
X62087897Y-8785041D01*
X61846277Y-8711747D01*
X61595000Y-8686998D01*
X61343724Y-8711747D01*
X61102104Y-8785041D01*
X60879425Y-8904065D01*
X60684246Y-9064245D01*
X60524065Y-9259424D01*
X60433811Y-9428277D01*
X60378361Y-9289382D01*
X60219176Y-9044381D01*
X60015252Y-8835143D01*
X59774426Y-8669709D01*
X59505953Y-8554437D01*
X59411890Y-8533524D01*
X59182000Y-8654845D01*
X58928000Y-8654845D01*
X58698110Y-8533524D01*
X58604047Y-8554437D01*
X58335574Y-8669709D01*
X58094748Y-8835143D01*
X57890824Y-9044381D01*
X57731639Y-9289382D01*
X57676189Y-9428277D01*
X57585935Y-9259424D01*
X57425755Y-9064245D01*
X57230576Y-8904065D01*
X57007897Y-8785041D01*
X56766277Y-8711747D01*
X56515000Y-8686998D01*
X56263724Y-8711747D01*
X56022104Y-8785041D01*
X55799425Y-8904065D01*
X55604246Y-9064245D01*
X55444065Y-9259424D01*
X55325041Y-9482103D01*
X55251747Y-9723723D01*
X55245000Y-9792226D01*
X55238253Y-9723723D01*
X55164959Y-9482103D01*
X55045935Y-9259424D01*
X54885755Y-9064245D01*
X54690576Y-8904065D01*
X54467897Y-8785041D01*
X54226277Y-8711747D01*
X53975000Y-8686998D01*
X53723724Y-8711747D01*
X53482104Y-8785041D01*
X53259425Y-8904065D01*
X53064246Y-9064245D01*
X52904065Y-9259424D01*
X52785041Y-9482103D01*
X52711747Y-9723723D01*
X52705000Y-9792226D01*
X52698253Y-9723723D01*
X52624959Y-9482103D01*
X52505935Y-9259424D01*
X52345755Y-9064245D01*
X52150576Y-8904065D01*
X51927897Y-8785041D01*
X51686277Y-8711747D01*
X51435000Y-8686998D01*
X51183724Y-8711747D01*
X50942104Y-8785041D01*
X50719425Y-8904065D01*
X50524246Y-9064245D01*
X50364065Y-9259424D01*
X50245041Y-9482103D01*
X50171747Y-9723723D01*
X50165000Y-9792226D01*
X50158253Y-9723723D01*
X50084959Y-9482103D01*
X49965935Y-9259424D01*
X49805755Y-9064245D01*
X49610576Y-8904065D01*
X49387897Y-8785041D01*
X49146277Y-8711747D01*
X48895000Y-8686998D01*
X48643724Y-8711747D01*
X48402104Y-8785041D01*
X48179425Y-8904065D01*
X47984246Y-9064245D01*
X47824065Y-9259424D01*
X47705041Y-9482103D01*
X47631747Y-9723723D01*
X47613200Y-9912031D01*
X47613200Y-10877968D01*
X47631747Y-11066276D01*
X47705041Y-11307896D01*
X47824065Y-11530575D01*
X47984245Y-11725755D01*
X48179424Y-11885935D01*
X48402103Y-12004959D01*
X48600034Y-12065000D01*
X48402104Y-12125041D01*
X48179425Y-12244065D01*
X47984246Y-12404245D01*
X47824065Y-12599424D01*
X47705041Y-12822103D01*
X47631747Y-13063723D01*
X47613200Y-13252031D01*
X47613200Y-14217968D01*
X47631747Y-14406276D01*
X47705041Y-14647896D01*
X47824065Y-14870575D01*
X47984245Y-15065755D01*
X48179424Y-15225935D01*
X48402103Y-15344959D01*
X48533010Y-15384669D01*
X48533011Y-31474249D01*
X48419754Y-31336246D01*
X48276651Y-31218804D01*
X48113386Y-31131537D01*
X47936233Y-31077798D01*
X47798167Y-31064200D01*
X46181833Y-31064200D01*
X46043767Y-31077798D01*
X45866614Y-31131537D01*
X45703349Y-31218804D01*
X45560246Y-31336246D01*
X45442804Y-31479349D01*
X45355537Y-31642614D01*
X45301798Y-31819767D01*
X45283653Y-32004000D01*
X45301798Y-32188233D01*
X45355537Y-32365386D01*
X45442804Y-32528651D01*
X45560246Y-32671754D01*
X45703349Y-32789196D01*
X45866614Y-32876463D01*
X46043767Y-32930202D01*
X46181833Y-32943800D01*
X46513799Y-32943800D01*
X46513800Y-37183384D01*
X46510482Y-37217073D01*
X46517120Y-37284466D01*
X46475114Y-37276111D01*
X46311264Y-37276111D01*
X46150562Y-37308076D01*
X45999184Y-37370779D01*
X45934200Y-37414200D01*
X34125828Y-37414200D01*
X34049005Y-37362868D01*
X33897627Y-37300165D01*
X33736925Y-37268200D01*
X33573075Y-37268200D01*
X33412373Y-37300165D01*
X33260995Y-37362868D01*
X33124758Y-37453899D01*
X33008899Y-37569758D01*
X32917868Y-37705995D01*
X32855165Y-37857373D01*
X32823200Y-38018075D01*
X32823200Y-38181925D01*
X32855165Y-38342627D01*
X32917868Y-38494005D01*
X33008899Y-38630242D01*
X33124758Y-38746101D01*
X33260995Y-38837132D01*
X33412373Y-38899835D01*
X33573075Y-38931800D01*
X33582398Y-38931800D01*
X33552868Y-38975995D01*
X33508048Y-39084199D01*
X28211502Y-39084199D01*
X27913103Y-38785800D01*
X30166982Y-38785800D01*
X30243805Y-38837132D01*
X30395183Y-38899835D01*
X30555885Y-38931800D01*
X30719735Y-38931800D01*
X30880437Y-38899835D01*
X31031815Y-38837132D01*
X31168052Y-38746101D01*
X31283911Y-38630242D01*
X31374942Y-38494005D01*
X31437645Y-38342627D01*
X31469610Y-38181925D01*
X31469610Y-38018075D01*
X31437645Y-37857373D01*
X31374942Y-37705995D01*
X31283911Y-37569758D01*
X31168052Y-37453899D01*
X31031815Y-37362868D01*
X30880437Y-37300165D01*
X30719735Y-37268200D01*
X30555885Y-37268200D01*
X30395183Y-37300165D01*
X30243805Y-37362868D01*
X30166982Y-37414200D01*
X24722143Y-37414200D01*
X24776101Y-37360242D01*
X24867132Y-37224005D01*
X24929835Y-37072627D01*
X24961800Y-36911925D01*
X24961800Y-36748075D01*
X24929835Y-36587373D01*
X24867132Y-36435995D01*
X24776101Y-36299758D01*
X24671343Y-36195000D01*
X24753268Y-36113075D01*
X30283200Y-36113075D01*
X30283200Y-36276925D01*
X30315165Y-36437627D01*
X30377868Y-36589005D01*
X30468899Y-36725242D01*
X30584758Y-36841101D01*
X30720995Y-36932132D01*
X30872373Y-36994835D01*
X31033075Y-37026800D01*
X31196925Y-37026800D01*
X31357627Y-36994835D01*
X31509005Y-36932132D01*
X31585828Y-36880800D01*
X38899172Y-36880800D01*
X38975995Y-36932132D01*
X39127373Y-36994835D01*
X39288075Y-37026800D01*
X39451925Y-37026800D01*
X39612627Y-36994835D01*
X39764005Y-36932132D01*
X39900242Y-36841101D01*
X40016101Y-36725242D01*
X40107132Y-36589005D01*
X40169835Y-36437627D01*
X40201800Y-36276925D01*
X40201800Y-36113075D01*
X40169835Y-35952373D01*
X40107132Y-35800995D01*
X40016101Y-35664758D01*
X39900242Y-35548899D01*
X39764005Y-35457868D01*
X39612627Y-35395165D01*
X39451925Y-35363200D01*
X39288075Y-35363200D01*
X39127373Y-35395165D01*
X38975995Y-35457868D01*
X38899172Y-35509200D01*
X31585828Y-35509200D01*
X31509005Y-35457868D01*
X31357627Y-35395165D01*
X31196925Y-35363200D01*
X31033075Y-35363200D01*
X30872373Y-35395165D01*
X30720995Y-35457868D01*
X30584758Y-35548899D01*
X30468899Y-35664758D01*
X30377868Y-35800995D01*
X30315165Y-35952373D01*
X30283200Y-36113075D01*
X24753268Y-36113075D01*
X24776101Y-36090242D01*
X24867132Y-35954005D01*
X24929835Y-35802627D01*
X24961800Y-35641925D01*
X24961800Y-35478075D01*
X24929835Y-35317373D01*
X24867132Y-35165995D01*
X24776101Y-35029758D01*
X24660242Y-34913899D01*
X24524005Y-34822868D01*
X24372627Y-34760165D01*
X24211925Y-34728200D01*
X24048075Y-34728200D01*
X23887373Y-34760165D01*
X23735995Y-34822868D01*
X23659172Y-34874200D01*
X22182143Y-34874200D01*
X22236101Y-34820242D01*
X22327132Y-34684005D01*
X22389835Y-34532627D01*
X22421800Y-34371925D01*
X22421800Y-34208075D01*
X22389835Y-34047373D01*
X22327132Y-33895995D01*
X22236101Y-33759758D01*
X22120242Y-33643899D01*
X21984005Y-33552868D01*
X21832627Y-33490165D01*
X21671925Y-33458200D01*
X21508075Y-33458200D01*
X21347373Y-33490165D01*
X21195995Y-33552868D01*
X21119172Y-33604200D01*
X12535828Y-33604200D01*
X12459005Y-33552868D01*
X12307627Y-33490165D01*
X12146925Y-33458200D01*
X11983075Y-33458200D01*
X11822373Y-33490165D01*
X11670995Y-33552868D01*
X11534758Y-33643899D01*
X11418899Y-33759758D01*
X11327868Y-33895995D01*
X11265165Y-34047373D01*
X11233200Y-34208075D01*
X11233200Y-34371925D01*
X11265165Y-34532627D01*
X11327868Y-34684005D01*
X11418899Y-34820242D01*
X11472857Y-34874200D01*
X6185828Y-34874200D01*
X6109005Y-34822868D01*
X5957627Y-34760165D01*
X5796925Y-34728200D01*
X5633075Y-34728200D01*
X5594399Y-34735893D01*
X5594399Y-31668075D01*
X8693200Y-31668075D01*
X8693200Y-31831925D01*
X8725165Y-31992627D01*
X8787868Y-32144005D01*
X8878899Y-32280242D01*
X8994758Y-32396101D01*
X9130995Y-32487132D01*
X9282373Y-32549835D01*
X9443075Y-32581800D01*
X9606925Y-32581800D01*
X9767627Y-32549835D01*
X9919005Y-32487132D01*
X9995828Y-32435800D01*
X19400933Y-32435800D01*
X19502140Y-32537007D01*
X19520165Y-32627627D01*
X19582868Y-32779005D01*
X19673899Y-32915242D01*
X19789758Y-33031101D01*
X19925995Y-33122132D01*
X20077373Y-33184835D01*
X20238075Y-33216800D01*
X20401925Y-33216800D01*
X20562627Y-33184835D01*
X20714005Y-33122132D01*
X20850242Y-33031101D01*
X20966101Y-32915242D01*
X21057132Y-32779005D01*
X21119835Y-32627627D01*
X21151800Y-32466925D01*
X21151800Y-32303075D01*
X21119835Y-32142373D01*
X21057132Y-31990995D01*
X20966101Y-31854758D01*
X20850242Y-31738899D01*
X20744247Y-31668075D01*
X27743200Y-31668075D01*
X27743200Y-31831925D01*
X27775165Y-31992627D01*
X27837868Y-32144005D01*
X27928899Y-32280242D01*
X28044758Y-32396101D01*
X28180995Y-32487132D01*
X28332373Y-32549835D01*
X28493075Y-32581800D01*
X28656925Y-32581800D01*
X28817627Y-32549835D01*
X28969005Y-32487132D01*
X29045828Y-32435800D01*
X37165572Y-32435800D01*
X37242395Y-32487132D01*
X37393773Y-32549835D01*
X37554475Y-32581800D01*
X37718325Y-32581800D01*
X37879027Y-32549835D01*
X38030405Y-32487132D01*
X38166642Y-32396101D01*
X38282501Y-32280242D01*
X38373532Y-32144005D01*
X38436235Y-31992627D01*
X38468200Y-31831925D01*
X38468200Y-31668075D01*
X38436235Y-31507373D01*
X38373532Y-31355995D01*
X38282501Y-31219758D01*
X38166642Y-31103899D01*
X38030405Y-31012868D01*
X37879027Y-30950165D01*
X37718325Y-30918200D01*
X37554475Y-30918200D01*
X37393773Y-30950165D01*
X37242395Y-31012868D01*
X37165572Y-31064200D01*
X29045828Y-31064200D01*
X28969005Y-31012868D01*
X28817627Y-30950165D01*
X28656925Y-30918200D01*
X28493075Y-30918200D01*
X28332373Y-30950165D01*
X28180995Y-31012868D01*
X28044758Y-31103899D01*
X27928899Y-31219758D01*
X27837868Y-31355995D01*
X27775165Y-31507373D01*
X27743200Y-31668075D01*
X20744247Y-31668075D01*
X20714005Y-31647868D01*
X20562627Y-31585165D01*
X20472007Y-31567140D01*
X20193758Y-31288891D01*
X20172280Y-31262720D01*
X20067853Y-31177019D01*
X19948714Y-31113338D01*
X19819440Y-31074123D01*
X19718689Y-31064200D01*
X19718679Y-31064200D01*
X19685000Y-31060883D01*
X19651321Y-31064200D01*
X9995828Y-31064200D01*
X9919005Y-31012868D01*
X9767627Y-30950165D01*
X9606925Y-30918200D01*
X9443075Y-30918200D01*
X9282373Y-30950165D01*
X9130995Y-31012868D01*
X8994758Y-31103899D01*
X8878899Y-31219758D01*
X8787868Y-31355995D01*
X8725165Y-31507373D01*
X8693200Y-31668075D01*
X5594399Y-31668075D01*
X5594399Y-27858075D01*
X25203200Y-27858075D01*
X25203200Y-28021925D01*
X25235165Y-28182627D01*
X25297868Y-28334005D01*
X25388899Y-28470242D01*
X25504758Y-28586101D01*
X25640995Y-28677132D01*
X25792373Y-28739835D01*
X25953075Y-28771800D01*
X26116925Y-28771800D01*
X26277627Y-28739835D01*
X26429005Y-28677132D01*
X26505828Y-28625800D01*
X36359172Y-28625800D01*
X36435995Y-28677132D01*
X36587373Y-28739835D01*
X36748075Y-28771800D01*
X36911925Y-28771800D01*
X37072627Y-28739835D01*
X37224005Y-28677132D01*
X37360242Y-28586101D01*
X37476101Y-28470242D01*
X37567132Y-28334005D01*
X37629835Y-28182627D01*
X37661800Y-28021925D01*
X37661800Y-27858075D01*
X37629835Y-27697373D01*
X37567132Y-27545995D01*
X37476101Y-27409758D01*
X37360242Y-27293899D01*
X37224005Y-27202868D01*
X37072627Y-27140165D01*
X36911925Y-27108200D01*
X36748075Y-27108200D01*
X36587373Y-27140165D01*
X36435995Y-27202868D01*
X36359172Y-27254200D01*
X26505828Y-27254200D01*
X26429005Y-27202868D01*
X26277627Y-27140165D01*
X26116925Y-27108200D01*
X25953075Y-27108200D01*
X25792373Y-27140165D01*
X25640995Y-27202868D01*
X25504758Y-27293899D01*
X25388899Y-27409758D01*
X25297868Y-27545995D01*
X25235165Y-27697373D01*
X25203200Y-27858075D01*
X5594399Y-27858075D01*
X5594399Y-26035000D01*
X18105653Y-26035000D01*
X18123798Y-26219233D01*
X18177537Y-26396386D01*
X18264804Y-26559651D01*
X18382246Y-26702754D01*
X18525349Y-26820196D01*
X18688614Y-26907463D01*
X18865767Y-26961202D01*
X19003833Y-26974800D01*
X43861167Y-26974800D01*
X43999233Y-26961202D01*
X44176386Y-26907463D01*
X44339651Y-26820196D01*
X44482754Y-26702754D01*
X44600196Y-26559651D01*
X44687463Y-26396386D01*
X44741202Y-26219233D01*
X44759347Y-26035000D01*
X44741202Y-25850767D01*
X44687463Y-25673614D01*
X44600196Y-25510349D01*
X44482754Y-25367246D01*
X44339651Y-25249804D01*
X44176386Y-25162537D01*
X43999233Y-25108798D01*
X43861167Y-25095200D01*
X19003833Y-25095200D01*
X18865767Y-25108798D01*
X18688614Y-25162537D01*
X18525349Y-25249804D01*
X18382246Y-25367246D01*
X18264804Y-25510349D01*
X18177537Y-25673614D01*
X18123798Y-25850767D01*
X18105653Y-26035000D01*
X5594399Y-26035000D01*
X5594399Y-15431124D01*
X5715000Y-15443002D01*
X5966276Y-15418253D01*
X6207896Y-15344959D01*
X6430575Y-15225935D01*
X6625755Y-15065755D01*
X6785935Y-14870576D01*
X6904959Y-14647897D01*
X6978253Y-14406277D01*
X6985000Y-14337774D01*
X6991747Y-14406276D01*
X7065041Y-14647896D01*
X7184065Y-14870575D01*
X7344245Y-15065755D01*
X7539424Y-15225935D01*
X7762103Y-15344959D01*
X8003723Y-15418253D01*
X8255000Y-15443002D01*
X8506276Y-15418253D01*
X8747896Y-15344959D01*
X8970575Y-15225935D01*
X9165755Y-15065755D01*
X9325935Y-14870576D01*
X9444959Y-14647897D01*
X9518253Y-14406277D01*
X9525000Y-14337774D01*
X9531747Y-14406276D01*
X9605041Y-14647896D01*
X9724065Y-14870575D01*
X9884245Y-15065755D01*
X10079424Y-15225935D01*
X10302103Y-15344959D01*
X10543723Y-15418253D01*
X10795000Y-15443002D01*
X11046276Y-15418253D01*
X11287896Y-15344959D01*
X11510575Y-15225935D01*
X11705755Y-15065755D01*
X11865935Y-14870576D01*
X11956189Y-14701723D01*
X12011639Y-14840618D01*
X12170824Y-15085619D01*
X12374748Y-15294857D01*
X12615574Y-15460291D01*
X12884047Y-15575563D01*
X12978110Y-15596476D01*
X13208000Y-15475155D01*
X13208000Y-13862000D01*
X13188000Y-13862000D01*
X13188000Y-13608000D01*
X13208000Y-13608000D01*
X13208000Y-10522000D01*
X13188000Y-10522000D01*
X13188000Y-10268000D01*
X13208000Y-10268000D01*
X13208000Y-8654845D01*
X13462000Y-8654845D01*
X13462000Y-10268000D01*
X13482000Y-10268000D01*
X13482000Y-10522000D01*
X13462000Y-10522000D01*
X13462000Y-13608000D01*
X13482000Y-13608000D01*
X13482000Y-13862000D01*
X13462000Y-13862000D01*
X13462000Y-15475155D01*
X13691890Y-15596476D01*
X13785953Y-15575563D01*
X14054426Y-15460291D01*
X14295252Y-15294857D01*
X14499176Y-15085619D01*
X14658361Y-14840618D01*
X14713812Y-14701722D01*
X14804065Y-14870575D01*
X14964245Y-15065755D01*
X15159424Y-15225935D01*
X15382103Y-15344959D01*
X15623723Y-15418253D01*
X15875000Y-15443002D01*
X16126276Y-15418253D01*
X16367896Y-15344959D01*
X16590575Y-15225935D01*
X16785755Y-15065755D01*
X16945935Y-14870576D01*
X17064959Y-14647897D01*
X17138253Y-14406277D01*
X17156800Y-14217969D01*
X17156800Y-13252032D01*
X17138253Y-13063723D01*
X17064959Y-12822103D01*
X16945935Y-12599424D01*
X16785755Y-12404245D01*
X16590576Y-12244065D01*
X16367897Y-12125041D01*
X16169966Y-12065000D01*
X16367896Y-12004959D01*
X16590575Y-11885935D01*
X16785755Y-11725755D01*
X16945935Y-11530576D01*
X17064959Y-11307897D01*
X17138253Y-11066277D01*
X17156800Y-10877969D01*
X17156800Y-9912032D01*
X17156800Y-9912031D01*
X24753200Y-9912031D01*
X24753200Y-10877968D01*
X24771747Y-11066276D01*
X24845041Y-11307896D01*
X24964065Y-11530575D01*
X25124245Y-11725755D01*
X25319424Y-11885935D01*
X25542103Y-12004959D01*
X25740034Y-12065000D01*
X25542104Y-12125041D01*
X25319425Y-12244065D01*
X25124246Y-12404245D01*
X24964065Y-12599424D01*
X24845041Y-12822103D01*
X24771747Y-13063723D01*
X24753200Y-13252031D01*
X24753200Y-14217968D01*
X24771747Y-14406276D01*
X24845041Y-14647896D01*
X24964065Y-14870575D01*
X25124245Y-15065755D01*
X25319424Y-15225935D01*
X25542103Y-15344959D01*
X25783723Y-15418253D01*
X26035000Y-15443002D01*
X26286276Y-15418253D01*
X26527896Y-15344959D01*
X26750575Y-15225935D01*
X26945755Y-15065755D01*
X27105935Y-14870576D01*
X27224959Y-14647897D01*
X27298253Y-14406277D01*
X27305000Y-14337774D01*
X27311747Y-14406276D01*
X27385041Y-14647896D01*
X27504065Y-14870575D01*
X27664245Y-15065755D01*
X27859424Y-15225935D01*
X28082103Y-15344959D01*
X28323723Y-15418253D01*
X28575000Y-15443002D01*
X28826276Y-15418253D01*
X29067896Y-15344959D01*
X29290575Y-15225935D01*
X29485755Y-15065755D01*
X29645935Y-14870576D01*
X29764959Y-14647897D01*
X29838253Y-14406277D01*
X29845000Y-14337774D01*
X29851747Y-14406276D01*
X29925041Y-14647896D01*
X30044065Y-14870575D01*
X30204245Y-15065755D01*
X30399424Y-15225935D01*
X30622103Y-15344959D01*
X30863723Y-15418253D01*
X31115000Y-15443002D01*
X31366276Y-15418253D01*
X31607896Y-15344959D01*
X31830575Y-15225935D01*
X32025755Y-15065755D01*
X32185935Y-14870576D01*
X32304959Y-14647897D01*
X32378253Y-14406277D01*
X32385000Y-14337774D01*
X32391747Y-14406276D01*
X32465041Y-14647896D01*
X32584065Y-14870575D01*
X32744245Y-15065755D01*
X32939424Y-15225935D01*
X33162103Y-15344959D01*
X33403723Y-15418253D01*
X33655000Y-15443002D01*
X33906276Y-15418253D01*
X34147896Y-15344959D01*
X34370575Y-15225935D01*
X34565755Y-15065755D01*
X34725935Y-14870576D01*
X34816189Y-14701723D01*
X34871639Y-14840618D01*
X35030824Y-15085619D01*
X35234748Y-15294857D01*
X35475574Y-15460291D01*
X35744047Y-15575563D01*
X35838110Y-15596476D01*
X36068000Y-15475155D01*
X36068000Y-13862000D01*
X36048000Y-13862000D01*
X36048000Y-13608000D01*
X36068000Y-13608000D01*
X36068000Y-10522000D01*
X36048000Y-10522000D01*
X36048000Y-10268000D01*
X36068000Y-10268000D01*
X36068000Y-8654845D01*
X36322000Y-8654845D01*
X36322000Y-10268000D01*
X36342000Y-10268000D01*
X36342000Y-10522000D01*
X36322000Y-10522000D01*
X36322000Y-13608000D01*
X36342000Y-13608000D01*
X36342000Y-13862000D01*
X36322000Y-13862000D01*
X36322000Y-15475155D01*
X36551890Y-15596476D01*
X36645953Y-15575563D01*
X36914426Y-15460291D01*
X37155252Y-15294857D01*
X37359176Y-15085619D01*
X37518361Y-14840618D01*
X37573812Y-14701722D01*
X37664065Y-14870575D01*
X37824245Y-15065755D01*
X38019424Y-15225935D01*
X38242103Y-15344959D01*
X38483723Y-15418253D01*
X38735000Y-15443002D01*
X38986276Y-15418253D01*
X39227896Y-15344959D01*
X39450575Y-15225935D01*
X39645755Y-15065755D01*
X39805935Y-14870576D01*
X39924959Y-14647897D01*
X39998253Y-14406277D01*
X40016800Y-14217969D01*
X40016800Y-13252032D01*
X39998253Y-13063723D01*
X39924959Y-12822103D01*
X39805935Y-12599424D01*
X39645755Y-12404245D01*
X39450576Y-12244065D01*
X39227897Y-12125041D01*
X39029966Y-12065000D01*
X39227896Y-12004959D01*
X39450575Y-11885935D01*
X39645755Y-11725755D01*
X39805935Y-11530576D01*
X39924959Y-11307897D01*
X39998253Y-11066277D01*
X40016800Y-10877969D01*
X40016800Y-9912032D01*
X39998253Y-9723723D01*
X39924959Y-9482103D01*
X39805935Y-9259424D01*
X39645755Y-9064245D01*
X39450576Y-8904065D01*
X39227897Y-8785041D01*
X38986277Y-8711747D01*
X38735000Y-8686998D01*
X38483724Y-8711747D01*
X38242104Y-8785041D01*
X38019425Y-8904065D01*
X37824246Y-9064245D01*
X37664065Y-9259424D01*
X37573811Y-9428277D01*
X37518361Y-9289382D01*
X37359176Y-9044381D01*
X37155252Y-8835143D01*
X36914426Y-8669709D01*
X36645953Y-8554437D01*
X36551890Y-8533524D01*
X36322000Y-8654845D01*
X36068000Y-8654845D01*
X35838110Y-8533524D01*
X35744047Y-8554437D01*
X35475574Y-8669709D01*
X35234748Y-8835143D01*
X35030824Y-9044381D01*
X34871639Y-9289382D01*
X34816189Y-9428277D01*
X34725935Y-9259424D01*
X34565755Y-9064245D01*
X34370576Y-8904065D01*
X34147897Y-8785041D01*
X33906277Y-8711747D01*
X33655000Y-8686998D01*
X33403724Y-8711747D01*
X33162104Y-8785041D01*
X32939425Y-8904065D01*
X32744246Y-9064245D01*
X32584065Y-9259424D01*
X32465041Y-9482103D01*
X32391747Y-9723723D01*
X32385000Y-9792226D01*
X32378253Y-9723723D01*
X32304959Y-9482103D01*
X32185935Y-9259424D01*
X32025755Y-9064245D01*
X31830576Y-8904065D01*
X31607897Y-8785041D01*
X31366277Y-8711747D01*
X31115000Y-8686998D01*
X30863724Y-8711747D01*
X30622104Y-8785041D01*
X30399425Y-8904065D01*
X30204246Y-9064245D01*
X30044065Y-9259424D01*
X29925041Y-9482103D01*
X29851747Y-9723723D01*
X29845000Y-9792226D01*
X29838253Y-9723723D01*
X29764959Y-9482103D01*
X29645935Y-9259424D01*
X29485755Y-9064245D01*
X29290576Y-8904065D01*
X29067897Y-8785041D01*
X28826277Y-8711747D01*
X28575000Y-8686998D01*
X28323724Y-8711747D01*
X28082104Y-8785041D01*
X27859425Y-8904065D01*
X27664246Y-9064245D01*
X27504065Y-9259424D01*
X27385041Y-9482103D01*
X27311747Y-9723723D01*
X27305000Y-9792226D01*
X27298253Y-9723723D01*
X27224959Y-9482103D01*
X27105935Y-9259424D01*
X26945755Y-9064245D01*
X26750576Y-8904065D01*
X26527897Y-8785041D01*
X26286277Y-8711747D01*
X26035000Y-8686998D01*
X25783724Y-8711747D01*
X25542104Y-8785041D01*
X25319425Y-8904065D01*
X25124246Y-9064245D01*
X24964065Y-9259424D01*
X24845041Y-9482103D01*
X24771747Y-9723723D01*
X24753200Y-9912031D01*
X17156800Y-9912031D01*
X17138253Y-9723723D01*
X17064959Y-9482103D01*
X16945935Y-9259424D01*
X16785755Y-9064245D01*
X16590576Y-8904065D01*
X16367897Y-8785041D01*
X16126277Y-8711747D01*
X15875000Y-8686998D01*
X15623724Y-8711747D01*
X15382104Y-8785041D01*
X15159425Y-8904065D01*
X14964246Y-9064245D01*
X14804065Y-9259424D01*
X14713811Y-9428277D01*
X14658361Y-9289382D01*
X14499176Y-9044381D01*
X14295252Y-8835143D01*
X14054426Y-8669709D01*
X13785953Y-8554437D01*
X13691890Y-8533524D01*
X13462000Y-8654845D01*
X13208000Y-8654845D01*
X12978110Y-8533524D01*
X12884047Y-8554437D01*
X12615574Y-8669709D01*
X12374748Y-8835143D01*
X12170824Y-9044381D01*
X12011639Y-9289382D01*
X11956189Y-9428277D01*
X11865935Y-9259424D01*
X11705755Y-9064245D01*
X11510576Y-8904065D01*
X11287897Y-8785041D01*
X11046277Y-8711747D01*
X10795000Y-8686998D01*
X10543724Y-8711747D01*
X10302104Y-8785041D01*
X10079425Y-8904065D01*
X9884246Y-9064245D01*
X9724065Y-9259424D01*
X9605041Y-9482103D01*
X9531747Y-9723723D01*
X9525000Y-9792226D01*
X9518253Y-9723723D01*
X9444959Y-9482103D01*
X9325935Y-9259424D01*
X9165755Y-9064245D01*
X8970576Y-8904065D01*
X8747897Y-8785041D01*
X8506277Y-8711747D01*
X8255000Y-8686998D01*
X8003724Y-8711747D01*
X7762104Y-8785041D01*
X7539425Y-8904065D01*
X7344246Y-9064245D01*
X7184065Y-9259424D01*
X7065041Y-9482103D01*
X6991747Y-9723723D01*
X6985000Y-9792226D01*
X6978253Y-9723723D01*
X6904959Y-9482103D01*
X6785935Y-9259424D01*
X6625755Y-9064245D01*
X6430576Y-8904065D01*
X6207897Y-8785041D01*
X5966277Y-8711747D01*
X5715000Y-8686998D01*
X5463724Y-8711747D01*
X5222104Y-8785041D01*
X4999425Y-8904065D01*
X4804246Y-9064245D01*
X4644065Y-9259424D01*
X4525041Y-9482103D01*
X4451747Y-9723723D01*
X4445000Y-9792226D01*
X4438253Y-9723723D01*
X4364959Y-9482103D01*
X4245935Y-9259424D01*
X4085755Y-9064245D01*
X3890576Y-8904065D01*
X3667897Y-8785041D01*
X3426277Y-8711747D01*
X3175000Y-8686998D01*
X2923724Y-8711747D01*
X2682104Y-8785041D01*
X2459425Y-8904065D01*
X2264246Y-9064245D01*
X2104065Y-9259424D01*
X1985041Y-9482103D01*
X1911747Y-9723723D01*
X1893200Y-9912031D01*
X1893200Y-10877968D01*
X1911747Y-11066276D01*
X1985041Y-11307896D01*
X2104065Y-11530575D01*
X2264245Y-11725755D01*
X2459424Y-11885935D01*
X2682103Y-12004959D01*
X2880034Y-12065000D01*
X2682104Y-12125041D01*
X2459425Y-12244065D01*
X2264246Y-12404245D01*
X2104065Y-12599424D01*
X1985041Y-12822103D01*
X1911747Y-13063723D01*
X1893200Y-13252031D01*
X1893200Y-14217968D01*
X1911747Y-14406276D01*
X1985041Y-14647896D01*
X2104065Y-14870575D01*
X2264245Y-15065755D01*
X2459424Y-15225935D01*
X2682103Y-15344959D01*
X2923723Y-15418253D01*
X3175000Y-15443002D01*
X3426276Y-15418253D01*
X3667896Y-15344959D01*
X3890575Y-15225935D01*
X4085755Y-15065755D01*
X4222800Y-14898766D01*
X4222799Y-39723394D01*
X4219482Y-39757073D01*
X4222799Y-39790752D01*
X4222799Y-39790761D01*
X4232722Y-39891512D01*
X4271937Y-40020786D01*
X4335618Y-40139925D01*
X4346119Y-40152720D01*
X4386406Y-40201810D01*
X4421319Y-40244352D01*
X4447486Y-40265827D01*
X6552768Y-42371109D01*
X6574246Y-42397280D01*
X6678673Y-42482981D01*
X6712218Y-42500911D01*
X6797812Y-42546662D01*
X6927085Y-42585877D01*
X7061526Y-42599118D01*
X7095215Y-42595800D01*
X26077857Y-42595800D01*
X26023899Y-42649758D01*
X25932868Y-42785995D01*
X25870165Y-42937373D01*
X25838200Y-43098075D01*
X25838200Y-43261925D01*
X25870165Y-43422627D01*
X25932868Y-43574005D01*
X26023899Y-43710242D01*
X26139758Y-43826101D01*
X26275995Y-43917132D01*
X26427373Y-43979835D01*
X26588075Y-44011800D01*
X26751925Y-44011800D01*
X26912627Y-43979835D01*
X27064005Y-43917132D01*
X27200242Y-43826101D01*
X27312943Y-43713400D01*
X35165199Y-43713400D01*
X35029758Y-43803899D01*
X34913899Y-43919758D01*
X34822868Y-44055995D01*
X34760165Y-44207373D01*
X34728200Y-44368075D01*
X34728200Y-44531925D01*
X34760165Y-44692627D01*
X34822868Y-44844005D01*
X34913899Y-44980242D01*
X35029758Y-45096101D01*
X35165995Y-45187132D01*
X35317373Y-45249835D01*
X35478075Y-45281800D01*
X35641925Y-45281800D01*
X35802627Y-45249835D01*
X35954005Y-45187132D01*
X36090242Y-45096101D01*
X36206101Y-44980242D01*
X36297132Y-44844005D01*
X36359835Y-44692627D01*
X36381561Y-44583401D01*
X36799760Y-44583401D01*
X36727868Y-44690995D01*
X36665165Y-44842373D01*
X36633200Y-45003075D01*
X36633200Y-45166925D01*
X36665165Y-45327627D01*
X36727868Y-45479005D01*
X36818899Y-45615242D01*
X36934758Y-45731101D01*
X37070995Y-45822132D01*
X37222373Y-45884835D01*
X37383075Y-45916800D01*
X37392398Y-45916800D01*
X37362868Y-45960995D01*
X37300165Y-46112373D01*
X37268200Y-46273075D01*
X37268200Y-46436925D01*
X37300165Y-46597627D01*
X37362868Y-46749005D01*
X37453899Y-46885242D01*
X37569758Y-47001101D01*
X37705995Y-47092132D01*
X37857373Y-47154835D01*
X38018075Y-47186800D01*
X38181925Y-47186800D01*
X38342627Y-47154835D01*
X38494005Y-47092132D01*
X38630242Y-47001101D01*
X38742943Y-46888400D01*
X47895754Y-46888400D01*
X47921941Y-46890979D01*
X47948128Y-46888400D01*
X47948136Y-46888400D01*
X48026506Y-46880681D01*
X48127052Y-46850181D01*
X48219716Y-46800651D01*
X48300936Y-46733995D01*
X48317636Y-46713646D01*
X48332035Y-46699247D01*
X48491419Y-46699247D01*
X48652121Y-46667282D01*
X48803499Y-46604579D01*
X48939736Y-46513548D01*
X49055595Y-46397689D01*
X49146626Y-46261452D01*
X49209329Y-46110074D01*
X49241294Y-45949372D01*
X49241294Y-45785522D01*
X49209329Y-45624820D01*
X49146626Y-45473442D01*
X49055595Y-45337205D01*
X49006906Y-45288516D01*
X49925298Y-45288516D01*
X49931668Y-45294886D01*
X49931668Y-45454270D01*
X49963633Y-45614972D01*
X50026336Y-45766350D01*
X50117367Y-45902587D01*
X50233226Y-46018446D01*
X50369463Y-46109477D01*
X50520841Y-46172180D01*
X50681543Y-46204145D01*
X50845393Y-46204145D01*
X51006095Y-46172180D01*
X51157473Y-46109477D01*
X51207574Y-46076000D01*
X51207574Y-46086671D01*
X51239539Y-46247373D01*
X51302242Y-46398751D01*
X51393273Y-46534988D01*
X51509132Y-46650847D01*
X51645369Y-46741878D01*
X51796747Y-46804581D01*
X51957449Y-46836546D01*
X52121299Y-46836546D01*
X52282001Y-46804581D01*
X52433379Y-46741878D01*
X52569616Y-46650847D01*
X52685475Y-46534988D01*
X52776506Y-46398751D01*
X52839209Y-46247373D01*
X52871174Y-46086671D01*
X52871174Y-45922821D01*
X52839209Y-45762119D01*
X52776506Y-45610741D01*
X52685475Y-45474504D01*
X52569616Y-45358645D01*
X52567280Y-45357084D01*
X52565055Y-45334496D01*
X52534555Y-45233950D01*
X52485025Y-45141286D01*
X52460458Y-45111351D01*
X52435067Y-45080412D01*
X52435065Y-45080410D01*
X52418369Y-45060066D01*
X52398025Y-45043370D01*
X51395513Y-44040859D01*
X51378813Y-44020510D01*
X51297593Y-43953854D01*
X51204929Y-43904324D01*
X51181221Y-43897132D01*
X51206222Y-43771439D01*
X51206222Y-43607589D01*
X51174257Y-43446887D01*
X51111554Y-43295509D01*
X51020523Y-43159272D01*
X50904664Y-43043413D01*
X50768427Y-42952382D01*
X50617049Y-42889679D01*
X50526429Y-42871654D01*
X50483181Y-42828406D01*
X50461703Y-42802235D01*
X50357276Y-42716534D01*
X50238137Y-42652853D01*
X50108863Y-42613638D01*
X50008112Y-42603715D01*
X50008102Y-42603715D01*
X49974423Y-42600398D01*
X49940744Y-42603715D01*
X49719189Y-42603715D01*
X47294364Y-40178891D01*
X47272886Y-40152720D01*
X47168459Y-40067019D01*
X47049320Y-40003338D01*
X46920046Y-39964123D01*
X46819295Y-39954200D01*
X46819285Y-39954200D01*
X46785606Y-39950883D01*
X46751927Y-39954200D01*
X34882143Y-39954200D01*
X34936101Y-39900242D01*
X35027132Y-39764005D01*
X35089835Y-39612627D01*
X35121800Y-39451925D01*
X35121800Y-39288075D01*
X35089835Y-39127373D01*
X35027132Y-38975995D01*
X34936101Y-38839758D01*
X34882143Y-38785800D01*
X45910521Y-38785800D01*
X45999184Y-38845043D01*
X46150562Y-38907746D01*
X46311264Y-38939711D01*
X46475114Y-38939711D01*
X46635816Y-38907746D01*
X46787194Y-38845043D01*
X46923431Y-38754012D01*
X47039290Y-38638153D01*
X47130321Y-38501916D01*
X47193024Y-38350538D01*
X47221257Y-38208598D01*
X51129768Y-42117109D01*
X51151246Y-42143280D01*
X51255673Y-42228981D01*
X51374812Y-42292662D01*
X51504086Y-42331877D01*
X51604837Y-42341800D01*
X51604840Y-42341800D01*
X51638526Y-42345118D01*
X51672212Y-42341800D01*
X51678235Y-42341800D01*
X51799349Y-42441196D01*
X51962614Y-42528463D01*
X52139767Y-42582202D01*
X52178989Y-42586065D01*
X54674818Y-45081896D01*
X54704246Y-45117754D01*
X54740104Y-45147182D01*
X54740106Y-45147184D01*
X54847348Y-45235196D01*
X54977122Y-45304561D01*
X55010614Y-45322463D01*
X55187767Y-45376202D01*
X55325833Y-45389800D01*
X55325843Y-45389800D01*
X55372000Y-45394346D01*
X55418157Y-45389800D01*
X55490724Y-45389800D01*
X57280106Y-47179183D01*
X57387348Y-47267196D01*
X57550614Y-47354463D01*
X57727766Y-47408201D01*
X57912000Y-47426346D01*
X58096233Y-47408201D01*
X58273386Y-47354463D01*
X58436651Y-47267196D01*
X58579754Y-47149754D01*
X58697196Y-47006651D01*
X58784463Y-46843386D01*
X58838201Y-46666233D01*
X58856346Y-46482000D01*
X58838201Y-46297766D01*
X58784463Y-46120614D01*
X58697196Y-45957348D01*
X58609183Y-45850106D01*
X56577191Y-43818115D01*
X56547754Y-43782246D01*
X56404651Y-43664804D01*
X56241386Y-43577537D01*
X56083004Y-43529492D01*
X57675440Y-43529492D01*
X57701627Y-43532071D01*
X57727814Y-43529492D01*
X57727822Y-43529492D01*
X57806192Y-43521773D01*
X57906738Y-43491273D01*
X57999402Y-43441743D01*
X58080622Y-43375087D01*
X58097323Y-43354737D01*
X59882307Y-41569753D01*
X59994845Y-41783000D01*
X62038000Y-41783000D01*
X62038000Y-41763000D01*
X62292000Y-41763000D01*
X62292000Y-41783000D01*
X62312000Y-41783000D01*
X62312000Y-42037000D01*
X62292000Y-42037000D01*
X62292000Y-42057000D01*
X62038000Y-42057000D01*
X62038000Y-42037000D01*
X59994845Y-42037000D01*
X59873524Y-42266890D01*
X59894437Y-42360953D01*
X60009709Y-42629426D01*
X60175143Y-42870252D01*
X60384381Y-43074176D01*
X60629382Y-43233361D01*
X60768277Y-43288811D01*
X60599424Y-43379065D01*
X60404245Y-43539245D01*
X60244065Y-43734424D01*
X60125041Y-43957103D01*
X60051747Y-44198723D01*
X60026998Y-44450000D01*
X60051747Y-44701277D01*
X60125041Y-44942897D01*
X60244065Y-45165576D01*
X60404245Y-45360755D01*
X60599424Y-45520935D01*
X60822103Y-45639959D01*
X61063723Y-45713253D01*
X61252031Y-45731800D01*
X63077969Y-45731800D01*
X63266277Y-45713253D01*
X63507897Y-45639959D01*
X63730576Y-45520935D01*
X63925755Y-45360755D01*
X64085935Y-45165576D01*
X64204959Y-44942897D01*
X64278253Y-44701277D01*
X64303002Y-44450000D01*
X64278253Y-44198723D01*
X64204959Y-43957103D01*
X64085935Y-43734424D01*
X63925755Y-43539245D01*
X63730576Y-43379065D01*
X63561723Y-43288811D01*
X63700618Y-43233361D01*
X63945619Y-43074176D01*
X64154857Y-42870252D01*
X64313200Y-42639748D01*
X64313200Y-52047638D01*
X64271374Y-52474207D01*
X64153986Y-52863013D01*
X63963315Y-53221614D01*
X63706619Y-53536353D01*
X63393688Y-53795232D01*
X63036418Y-53988407D01*
X62648446Y-54108503D01*
X62223187Y-54153200D01*
X60982438Y-54153200D01*
X60960000Y-54150990D01*
X60937562Y-54153200D01*
X60870452Y-54159810D01*
X60784344Y-54185930D01*
X60782189Y-54187082D01*
X60782189Y-53008129D01*
X60805211Y-53041750D01*
X60828111Y-53076218D01*
X60832176Y-53081133D01*
X60991497Y-53271005D01*
X61021109Y-53300003D01*
X61050252Y-53329350D01*
X61055195Y-53333382D01*
X61248361Y-53488692D01*
X61283025Y-53511374D01*
X61317329Y-53534513D01*
X61322960Y-53537508D01*
X61542615Y-53652341D01*
X61580999Y-53667849D01*
X61619170Y-53683894D01*
X61625276Y-53685738D01*
X61863052Y-53755719D01*
X61903765Y-53763485D01*
X61944277Y-53771801D01*
X61950624Y-53772424D01*
X62197464Y-53794888D01*
X62238831Y-53794599D01*
X62280265Y-53794888D01*
X62286613Y-53794266D01*
X62533116Y-53768358D01*
X62573676Y-53760032D01*
X62614343Y-53752274D01*
X62620449Y-53750431D01*
X62857224Y-53677136D01*
X62895372Y-53661099D01*
X62933776Y-53645583D01*
X62939408Y-53642589D01*
X63157437Y-53524701D01*
X63191753Y-53501555D01*
X63226405Y-53478879D01*
X63231348Y-53474848D01*
X63422328Y-53316855D01*
X63451473Y-53287506D01*
X63481082Y-53258510D01*
X63485148Y-53253596D01*
X63641802Y-53061518D01*
X63664699Y-53027055D01*
X63688104Y-52992873D01*
X63691138Y-52987262D01*
X63807502Y-52768414D01*
X63823278Y-52730138D01*
X63839589Y-52692080D01*
X63841476Y-52685988D01*
X63913115Y-52448705D01*
X63921154Y-52408103D01*
X63929764Y-52367596D01*
X63930431Y-52361253D01*
X63954618Y-52114576D01*
X63954618Y-52093834D01*
X63956788Y-52073183D01*
X63956789Y-52066805D01*
X63956665Y-52049074D01*
X63954618Y-52029600D01*
X63954618Y-52025424D01*
X63954495Y-52024804D01*
X63954495Y-52007692D01*
X63953829Y-52001349D01*
X63926200Y-51755033D01*
X63917590Y-51714529D01*
X63909550Y-51673923D01*
X63907665Y-51667830D01*
X63832720Y-51431572D01*
X63816407Y-51393512D01*
X63800632Y-51355240D01*
X63797599Y-51349629D01*
X63678191Y-51132427D01*
X63654806Y-51098274D01*
X63631888Y-51063781D01*
X63627823Y-51058866D01*
X63468501Y-50868994D01*
X63438906Y-50840013D01*
X63409748Y-50810651D01*
X63404806Y-50806619D01*
X63211638Y-50651308D01*
X63177010Y-50628648D01*
X63142669Y-50605485D01*
X63137037Y-50602490D01*
X62917382Y-50487659D01*
X62879011Y-50472156D01*
X62840831Y-50456107D01*
X62834725Y-50454263D01*
X62596949Y-50384281D01*
X62556251Y-50376517D01*
X62515722Y-50368198D01*
X62509377Y-50367575D01*
X62509375Y-50367575D01*
X62262535Y-50345111D01*
X62221168Y-50345400D01*
X62179734Y-50345111D01*
X62173387Y-50345733D01*
X61926883Y-50371641D01*
X61886317Y-50379968D01*
X61845657Y-50387725D01*
X61839551Y-50389568D01*
X61602775Y-50462863D01*
X61564611Y-50478906D01*
X61526222Y-50494416D01*
X61520590Y-50497410D01*
X61302560Y-50615298D01*
X61268225Y-50638458D01*
X61233592Y-50661121D01*
X61228649Y-50665152D01*
X61037669Y-50823145D01*
X61008489Y-50852530D01*
X60978916Y-50881490D01*
X60974850Y-50886404D01*
X60818195Y-51078482D01*
X60795269Y-51112989D01*
X60771893Y-51147129D01*
X60768859Y-51152740D01*
X60652496Y-51371587D01*
X60636733Y-51409832D01*
X60620410Y-51447917D01*
X60618524Y-51454010D01*
X60546884Y-51691291D01*
X60538851Y-51731862D01*
X60532806Y-51760301D01*
X60515896Y-51746423D01*
X59695581Y-50926109D01*
X59708002Y-50800000D01*
X59683253Y-50548723D01*
X59609959Y-50307103D01*
X59490935Y-50084424D01*
X59330755Y-49889245D01*
X59135576Y-49729065D01*
X58912897Y-49610041D01*
X58671277Y-49536747D01*
X58482969Y-49518200D01*
X58357031Y-49518200D01*
X58168723Y-49536747D01*
X57927103Y-49610041D01*
X57704424Y-49729065D01*
X57509245Y-49889245D01*
X57349065Y-50084424D01*
X57230041Y-50307103D01*
X57156747Y-50548723D01*
X57150000Y-50617225D01*
X57143253Y-50548723D01*
X57069959Y-50307103D01*
X56950935Y-50084424D01*
X56790755Y-49889245D01*
X56595576Y-49729065D01*
X56372897Y-49610041D01*
X56131277Y-49536747D01*
X55942969Y-49518200D01*
X55817031Y-49518200D01*
X55628723Y-49536747D01*
X55387103Y-49610041D01*
X55164424Y-49729065D01*
X54969245Y-49889245D01*
X54809065Y-50084424D01*
X54690041Y-50307103D01*
X54616747Y-50548723D01*
X54610000Y-50617225D01*
X54603253Y-50548723D01*
X54529959Y-50307103D01*
X54410935Y-50084424D01*
X54250755Y-49889245D01*
X54055576Y-49729065D01*
X53832897Y-49610041D01*
X53591277Y-49536747D01*
X53402969Y-49518200D01*
X53277031Y-49518200D01*
X53088723Y-49536747D01*
X52847103Y-49610041D01*
X52624424Y-49729065D01*
X52429245Y-49889245D01*
X52269065Y-50084424D01*
X52150041Y-50307103D01*
X52076747Y-50548723D01*
X52070000Y-50617225D01*
X52063253Y-50548723D01*
X51989959Y-50307103D01*
X51870935Y-50084424D01*
X51710755Y-49889245D01*
X51515576Y-49729065D01*
X51292897Y-49610041D01*
X51051277Y-49536747D01*
X50862969Y-49518200D01*
X50737031Y-49518200D01*
X50548723Y-49536747D01*
X50307103Y-49610041D01*
X50229399Y-49651575D01*
X50229399Y-49584942D01*
X50722542Y-49091800D01*
X50881925Y-49091800D01*
X51042627Y-49059835D01*
X51194005Y-48997132D01*
X51330242Y-48906101D01*
X51446101Y-48790242D01*
X51537132Y-48654005D01*
X51599835Y-48502627D01*
X51631800Y-48341925D01*
X51631800Y-48178075D01*
X51599835Y-48017373D01*
X51537132Y-47865995D01*
X51446101Y-47729758D01*
X51330242Y-47613899D01*
X51194005Y-47522868D01*
X51042627Y-47460165D01*
X50881925Y-47428200D01*
X50718075Y-47428200D01*
X50557373Y-47460165D01*
X50405995Y-47522868D01*
X50269758Y-47613899D01*
X50153899Y-47729758D01*
X50062868Y-47865995D01*
X50000165Y-48017373D01*
X49968200Y-48178075D01*
X49968200Y-48337458D01*
X49337353Y-48968306D01*
X49317004Y-48985006D01*
X49250348Y-49066226D01*
X49200818Y-49158891D01*
X49170318Y-49259437D01*
X49162599Y-49337807D01*
X49162599Y-49337814D01*
X49160020Y-49364001D01*
X49162599Y-49390188D01*
X49162599Y-49882552D01*
X48975576Y-49729065D01*
X48752897Y-49610041D01*
X48511277Y-49536747D01*
X48322969Y-49518200D01*
X48197031Y-49518200D01*
X48008723Y-49536747D01*
X47767103Y-49610041D01*
X47544424Y-49729065D01*
X47349245Y-49889245D01*
X47189065Y-50084424D01*
X47070041Y-50307103D01*
X46996747Y-50548723D01*
X46990000Y-50617225D01*
X46983253Y-50548723D01*
X46909959Y-50307103D01*
X46790935Y-50084424D01*
X46630755Y-49889245D01*
X46435576Y-49729065D01*
X46212897Y-49610041D01*
X45971277Y-49536747D01*
X45782969Y-49518200D01*
X45657031Y-49518200D01*
X45468723Y-49536747D01*
X45436415Y-49546547D01*
X44704758Y-48814891D01*
X44683280Y-48788720D01*
X44578853Y-48703019D01*
X44459714Y-48639338D01*
X44330440Y-48600123D01*
X44229689Y-48590200D01*
X44229679Y-48590200D01*
X44196000Y-48586883D01*
X44162321Y-48590200D01*
X44158828Y-48590200D01*
X44082005Y-48538868D01*
X43930627Y-48476165D01*
X43769925Y-48444200D01*
X43606075Y-48444200D01*
X43445373Y-48476165D01*
X43293995Y-48538868D01*
X43157758Y-48629899D01*
X43041899Y-48745758D01*
X42950868Y-48881995D01*
X42888165Y-49033373D01*
X42856200Y-49194075D01*
X42856200Y-49357925D01*
X42888165Y-49518627D01*
X42899360Y-49545654D01*
X42687103Y-49610041D01*
X42464424Y-49729065D01*
X42269245Y-49889245D01*
X42109065Y-50084424D01*
X41990041Y-50307103D01*
X41916747Y-50548723D01*
X41910000Y-50617225D01*
X41903253Y-50548723D01*
X41829959Y-50307103D01*
X41710935Y-50084424D01*
X41550755Y-49889245D01*
X41355576Y-49729065D01*
X41132897Y-49610041D01*
X40891277Y-49536747D01*
X40702969Y-49518200D01*
X40577031Y-49518200D01*
X40388723Y-49536747D01*
X40147103Y-49610041D01*
X39924424Y-49729065D01*
X39729245Y-49889245D01*
X39569065Y-50084424D01*
X39450041Y-50307103D01*
X39376747Y-50548723D01*
X39370000Y-50617225D01*
X39363253Y-50548723D01*
X39289959Y-50307103D01*
X39170935Y-50084424D01*
X39010755Y-49889245D01*
X38815576Y-49729065D01*
X38592897Y-49610041D01*
X38351277Y-49536747D01*
X38162969Y-49518200D01*
X38037031Y-49518200D01*
X37848723Y-49536747D01*
X37607103Y-49610041D01*
X37384424Y-49729065D01*
X37189245Y-49889245D01*
X37029065Y-50084424D01*
X36910041Y-50307103D01*
X36836747Y-50548723D01*
X36830000Y-50617225D01*
X36823253Y-50548723D01*
X36749959Y-50307103D01*
X36630935Y-50084424D01*
X36470755Y-49889245D01*
X36275576Y-49729065D01*
X36052897Y-49610041D01*
X35811277Y-49536747D01*
X35622969Y-49518200D01*
X35497031Y-49518200D01*
X35308723Y-49536747D01*
X35067103Y-49610041D01*
X34844424Y-49729065D01*
X34649245Y-49889245D01*
X34489065Y-50084424D01*
X34370041Y-50307103D01*
X34296747Y-50548723D01*
X34290000Y-50617225D01*
X34283253Y-50548723D01*
X34209959Y-50307103D01*
X34090935Y-50084424D01*
X33930755Y-49889245D01*
X33735576Y-49729065D01*
X33512897Y-49610041D01*
X33271277Y-49536747D01*
X33082969Y-49518200D01*
X32957031Y-49518200D01*
X32768723Y-49536747D01*
X32527103Y-49610041D01*
X32304424Y-49729065D01*
X32109245Y-49889245D01*
X31949065Y-50084424D01*
X31830041Y-50307103D01*
X31756747Y-50548723D01*
X31750000Y-50617225D01*
X31743253Y-50548723D01*
X31669959Y-50307103D01*
X31550935Y-50084424D01*
X31390755Y-49889245D01*
X31195576Y-49729065D01*
X30972897Y-49610041D01*
X30731277Y-49536747D01*
X30542969Y-49518200D01*
X30417031Y-49518200D01*
X30228723Y-49536747D01*
X29987103Y-49610041D01*
X29764424Y-49729065D01*
X29569245Y-49889245D01*
X29409065Y-50084424D01*
X29290041Y-50307103D01*
X29216747Y-50548723D01*
X29210000Y-50617225D01*
X29203253Y-50548723D01*
X29129959Y-50307103D01*
X29010935Y-50084424D01*
X28850755Y-49889245D01*
X28655576Y-49729065D01*
X28432897Y-49610041D01*
X28191277Y-49536747D01*
X28002969Y-49518200D01*
X27877031Y-49518200D01*
X27688723Y-49536747D01*
X27447103Y-49610041D01*
X27224424Y-49729065D01*
X27029245Y-49889245D01*
X26869065Y-50084424D01*
X26750041Y-50307103D01*
X26676747Y-50548723D01*
X26670000Y-50617225D01*
X26663253Y-50548723D01*
X26589959Y-50307103D01*
X26470935Y-50084424D01*
X26310755Y-49889245D01*
X26115576Y-49729065D01*
X25892897Y-49610041D01*
X25651277Y-49536747D01*
X25462969Y-49518200D01*
X25337031Y-49518200D01*
X25148723Y-49536747D01*
X24907103Y-49610041D01*
X24684424Y-49729065D01*
X24489245Y-49889245D01*
X24329065Y-50084424D01*
X24210041Y-50307103D01*
X24136747Y-50548723D01*
X24130000Y-50617225D01*
X24123253Y-50548723D01*
X24049959Y-50307103D01*
X23930935Y-50084424D01*
X23770755Y-49889245D01*
X23575576Y-49729065D01*
X23352897Y-49610041D01*
X23111277Y-49536747D01*
X22922969Y-49518200D01*
X22797031Y-49518200D01*
X22608723Y-49536747D01*
X22367103Y-49610041D01*
X22144424Y-49729065D01*
X21949245Y-49889245D01*
X21789065Y-50084424D01*
X21670041Y-50307103D01*
X21596747Y-50548723D01*
X21590000Y-50617225D01*
X21583253Y-50548723D01*
X21509959Y-50307103D01*
X21390935Y-50084424D01*
X21230755Y-49889245D01*
X21035576Y-49729065D01*
X20812897Y-49610041D01*
X20571277Y-49536747D01*
X20382969Y-49518200D01*
X20257031Y-49518200D01*
X20068723Y-49536747D01*
X19827103Y-49610041D01*
X19604424Y-49729065D01*
X19409245Y-49889245D01*
X19249065Y-50084424D01*
X19130041Y-50307103D01*
X19056747Y-50548723D01*
X19050000Y-50617225D01*
X19043253Y-50548723D01*
X18969959Y-50307103D01*
X18850935Y-50084424D01*
X18690755Y-49889245D01*
X18495576Y-49729065D01*
X18272897Y-49610041D01*
X18031277Y-49536747D01*
X17842969Y-49518200D01*
X17717031Y-49518200D01*
X17528723Y-49536747D01*
X17287103Y-49610041D01*
X17064424Y-49729065D01*
X16869245Y-49889245D01*
X16709065Y-50084424D01*
X16590041Y-50307103D01*
X16516747Y-50548723D01*
X16510000Y-50617225D01*
X16503253Y-50548723D01*
X16429959Y-50307103D01*
X16310935Y-50084424D01*
X16150755Y-49889245D01*
X15955576Y-49729065D01*
X15732897Y-49610041D01*
X15491277Y-49536747D01*
X15302969Y-49518200D01*
X15177031Y-49518200D01*
X14988723Y-49536747D01*
X14818611Y-49588349D01*
X12541385Y-47311123D01*
X12688627Y-47281835D01*
X12840005Y-47219132D01*
X12976242Y-47128101D01*
X13092101Y-47012242D01*
X13183132Y-46876005D01*
X13245835Y-46724627D01*
X13277800Y-46563925D01*
X13277800Y-46400075D01*
X13245835Y-46239373D01*
X13183132Y-46087995D01*
X13092101Y-45951758D01*
X12976242Y-45835899D01*
X12840005Y-45744868D01*
X12688627Y-45682165D01*
X12527925Y-45650200D01*
X12364075Y-45650200D01*
X12203373Y-45682165D01*
X12051995Y-45744868D01*
X11915758Y-45835899D01*
X11828457Y-45923200D01*
X9425441Y-45923200D01*
X9397999Y-45920497D01*
X9370557Y-45923200D01*
X9370556Y-45923200D01*
X9288456Y-45931286D01*
X9183122Y-45963239D01*
X9086046Y-46015127D01*
X9000957Y-46084957D01*
X8983457Y-46106281D01*
X8931538Y-46158200D01*
X8808075Y-46158200D01*
X8647373Y-46190165D01*
X8495995Y-46252868D01*
X8359758Y-46343899D01*
X8243899Y-46459758D01*
X8152868Y-46595995D01*
X8090165Y-46747373D01*
X8058200Y-46908075D01*
X8058200Y-47071925D01*
X8090165Y-47232627D01*
X8152868Y-47384005D01*
X8243899Y-47520242D01*
X8359758Y-47636101D01*
X8495995Y-47727132D01*
X8647373Y-47789835D01*
X8808075Y-47821800D01*
X8971925Y-47821800D01*
X9132627Y-47789835D01*
X9284005Y-47727132D01*
X9420242Y-47636101D01*
X9536101Y-47520242D01*
X9627132Y-47384005D01*
X9689835Y-47232627D01*
X9721800Y-47071925D01*
X9721800Y-47040800D01*
X10229017Y-47040800D01*
X10190660Y-47098205D01*
X10127957Y-47249583D01*
X10095992Y-47410285D01*
X10095992Y-47574135D01*
X10127957Y-47734837D01*
X10190660Y-47886215D01*
X10281691Y-48022452D01*
X10397550Y-48138311D01*
X10533787Y-48229342D01*
X10685165Y-48292045D01*
X10845867Y-48324010D01*
X11009717Y-48324010D01*
X11170419Y-48292045D01*
X11321797Y-48229342D01*
X11458034Y-48138311D01*
X11545335Y-48051010D01*
X11700748Y-48051010D01*
X13336578Y-49686840D01*
X13192897Y-49610041D01*
X12951277Y-49536747D01*
X12762969Y-49518200D01*
X12637031Y-49518200D01*
X12448723Y-49536747D01*
X12207103Y-49610041D01*
X11984424Y-49729065D01*
X11789245Y-49889245D01*
X11629065Y-50084424D01*
X11536005Y-50258528D01*
X11504157Y-50168748D01*
X11355178Y-49918645D01*
X11160269Y-49702412D01*
X10926920Y-49528359D01*
X10664099Y-49403175D01*
X10516890Y-49358524D01*
X10287000Y-49479845D01*
X10287000Y-50673000D01*
X10307000Y-50673000D01*
X10307000Y-50927000D01*
X10287000Y-50927000D01*
X10287000Y-50947000D01*
X10033000Y-50947000D01*
X10033000Y-50927000D01*
X8839186Y-50927000D01*
X8718519Y-51156891D01*
X8815843Y-51431252D01*
X8964822Y-51681355D01*
X9159731Y-51897588D01*
X9372259Y-52056111D01*
X9310000Y-52056111D01*
X9225352Y-52064448D01*
X9143958Y-52089139D01*
X9068944Y-52129234D01*
X9003194Y-52183194D01*
X8949234Y-52248944D01*
X8909139Y-52323958D01*
X8884448Y-52405352D01*
X8876111Y-52490000D01*
X8876111Y-54190000D01*
X8884448Y-54274648D01*
X8909139Y-54356042D01*
X8949234Y-54431056D01*
X9003194Y-54496806D01*
X9068944Y-54550766D01*
X9143958Y-54590861D01*
X9225352Y-54615552D01*
X9310000Y-54623889D01*
X11010000Y-54623889D01*
X11094648Y-54615552D01*
X11176042Y-54590861D01*
X11251056Y-54550766D01*
X11316806Y-54496806D01*
X11370766Y-54431056D01*
X11410861Y-54356042D01*
X11435552Y-54274648D01*
X11443889Y-54190000D01*
X11443889Y-53614821D01*
X11510041Y-53832897D01*
X11629065Y-54055576D01*
X11789245Y-54250755D01*
X11984424Y-54410935D01*
X12207103Y-54529959D01*
X12448723Y-54603253D01*
X12637031Y-54621800D01*
X12762969Y-54621800D01*
X12951277Y-54603253D01*
X13192897Y-54529959D01*
X13415576Y-54410935D01*
X13610755Y-54250755D01*
X13770935Y-54055576D01*
X13889959Y-53832897D01*
X13963253Y-53591277D01*
X13970000Y-53522775D01*
X13976747Y-53591277D01*
X14050041Y-53832897D01*
X14169065Y-54055576D01*
X14329245Y-54250755D01*
X14524424Y-54410935D01*
X14747103Y-54529959D01*
X14988723Y-54603253D01*
X15177031Y-54621800D01*
X15302969Y-54621800D01*
X15491277Y-54603253D01*
X15732897Y-54529959D01*
X15955576Y-54410935D01*
X16150755Y-54250755D01*
X16310935Y-54055576D01*
X16429959Y-53832897D01*
X16503253Y-53591277D01*
X16510000Y-53522775D01*
X16516747Y-53591277D01*
X16590041Y-53832897D01*
X16709065Y-54055576D01*
X16869245Y-54250755D01*
X17064424Y-54410935D01*
X17287103Y-54529959D01*
X17528723Y-54603253D01*
X17717031Y-54621800D01*
X17842969Y-54621800D01*
X18031277Y-54603253D01*
X18272897Y-54529959D01*
X18495576Y-54410935D01*
X18690755Y-54250755D01*
X18850935Y-54055576D01*
X18969959Y-53832897D01*
X19043253Y-53591277D01*
X19050000Y-53522775D01*
X19056747Y-53591277D01*
X19130041Y-53832897D01*
X19249065Y-54055576D01*
X19409245Y-54250755D01*
X19604424Y-54410935D01*
X19827103Y-54529959D01*
X20068723Y-54603253D01*
X20257031Y-54621800D01*
X20382969Y-54621800D01*
X20571277Y-54603253D01*
X20812897Y-54529959D01*
X21035576Y-54410935D01*
X21230755Y-54250755D01*
X21390935Y-54055576D01*
X21509959Y-53832897D01*
X21583253Y-53591277D01*
X21590000Y-53522775D01*
X21596747Y-53591277D01*
X21670041Y-53832897D01*
X21789065Y-54055576D01*
X21949245Y-54250755D01*
X22144424Y-54410935D01*
X22367103Y-54529959D01*
X22608723Y-54603253D01*
X22797031Y-54621800D01*
X22922969Y-54621800D01*
X23111277Y-54603253D01*
X23352897Y-54529959D01*
X23575576Y-54410935D01*
X23770755Y-54250755D01*
X23930935Y-54055576D01*
X24049959Y-53832897D01*
X24123253Y-53591277D01*
X24130000Y-53522775D01*
X24136747Y-53591277D01*
X24210041Y-53832897D01*
X24329065Y-54055576D01*
X24489245Y-54250755D01*
X24684424Y-54410935D01*
X24907103Y-54529959D01*
X25148723Y-54603253D01*
X25337031Y-54621800D01*
X25462969Y-54621800D01*
X25651277Y-54603253D01*
X25892897Y-54529959D01*
X26115576Y-54410935D01*
X26310755Y-54250755D01*
X26470935Y-54055576D01*
X26589959Y-53832897D01*
X26663253Y-53591277D01*
X26670000Y-53522775D01*
X26676747Y-53591277D01*
X26750041Y-53832897D01*
X26869065Y-54055576D01*
X27029245Y-54250755D01*
X27224424Y-54410935D01*
X27447103Y-54529959D01*
X27688723Y-54603253D01*
X27877031Y-54621800D01*
X28002969Y-54621800D01*
X28191277Y-54603253D01*
X28432897Y-54529959D01*
X28655576Y-54410935D01*
X28850755Y-54250755D01*
X29010935Y-54055576D01*
X29129959Y-53832897D01*
X29203253Y-53591277D01*
X29210000Y-53522775D01*
X29216747Y-53591277D01*
X29290041Y-53832897D01*
X29409065Y-54055576D01*
X29569245Y-54250755D01*
X29764424Y-54410935D01*
X29987103Y-54529959D01*
X30228723Y-54603253D01*
X30417031Y-54621800D01*
X30542969Y-54621800D01*
X30731277Y-54603253D01*
X30972897Y-54529959D01*
X31195576Y-54410935D01*
X31390755Y-54250755D01*
X31550935Y-54055576D01*
X31669959Y-53832897D01*
X31743253Y-53591277D01*
X31750000Y-53522775D01*
X31756747Y-53591277D01*
X31830041Y-53832897D01*
X31949065Y-54055576D01*
X32109245Y-54250755D01*
X32304424Y-54410935D01*
X32527103Y-54529959D01*
X32768723Y-54603253D01*
X32957031Y-54621800D01*
X33082969Y-54621800D01*
X33271277Y-54603253D01*
X33512897Y-54529959D01*
X33735576Y-54410935D01*
X33930755Y-54250755D01*
X34090935Y-54055576D01*
X34209959Y-53832897D01*
X34283253Y-53591277D01*
X34290000Y-53522775D01*
X34296747Y-53591277D01*
X34370041Y-53832897D01*
X34489065Y-54055576D01*
X34649245Y-54250755D01*
X34844424Y-54410935D01*
X35067103Y-54529959D01*
X35308723Y-54603253D01*
X35497031Y-54621800D01*
X35622969Y-54621800D01*
X35811277Y-54603253D01*
X36052897Y-54529959D01*
X36275576Y-54410935D01*
X36470755Y-54250755D01*
X36630935Y-54055576D01*
X36749959Y-53832897D01*
X36823253Y-53591277D01*
X36830000Y-53522775D01*
X36836747Y-53591277D01*
X36910041Y-53832897D01*
X37029065Y-54055576D01*
X37189245Y-54250755D01*
X37384424Y-54410935D01*
X37607103Y-54529959D01*
X37848723Y-54603253D01*
X38037031Y-54621800D01*
X38162969Y-54621800D01*
X38351277Y-54603253D01*
X38592897Y-54529959D01*
X38815576Y-54410935D01*
X39010755Y-54250755D01*
X39170935Y-54055576D01*
X39289959Y-53832897D01*
X39363253Y-53591277D01*
X39370000Y-53522775D01*
X39376747Y-53591277D01*
X39450041Y-53832897D01*
X39569065Y-54055576D01*
X39729245Y-54250755D01*
X39924424Y-54410935D01*
X40147103Y-54529959D01*
X40192379Y-54543693D01*
X40109758Y-54598899D01*
X39993899Y-54714758D01*
X39902868Y-54850995D01*
X39840165Y-55002373D01*
X39808200Y-55163075D01*
X39808200Y-55326925D01*
X39840165Y-55487627D01*
X39902868Y-55639005D01*
X39993899Y-55775242D01*
X40109758Y-55891101D01*
X40245995Y-55982132D01*
X40397373Y-56044835D01*
X40558075Y-56076800D01*
X40721925Y-56076800D01*
X40882627Y-56044835D01*
X41034005Y-55982132D01*
X41170242Y-55891101D01*
X41282943Y-55778400D01*
X53967057Y-55778400D01*
X54079758Y-55891101D01*
X54215995Y-55982132D01*
X54367373Y-56044835D01*
X54528075Y-56076800D01*
X54691925Y-56076800D01*
X54852627Y-56044835D01*
X55004005Y-55982132D01*
X55140242Y-55891101D01*
X55256101Y-55775242D01*
X55347132Y-55639005D01*
X55409835Y-55487627D01*
X55441800Y-55326925D01*
X55441800Y-55163075D01*
X55409835Y-55002373D01*
X55347132Y-54850995D01*
X55256101Y-54714758D01*
X55140242Y-54598899D01*
X55004005Y-54507868D01*
X54852627Y-54445165D01*
X54691925Y-54413200D01*
X54528075Y-54413200D01*
X54367373Y-54445165D01*
X54215995Y-54507868D01*
X54079758Y-54598899D01*
X53967057Y-54711600D01*
X49547741Y-54711600D01*
X49954792Y-54304549D01*
X50084424Y-54410935D01*
X50307103Y-54529959D01*
X50548723Y-54603253D01*
X50737031Y-54621800D01*
X50862969Y-54621800D01*
X51051277Y-54603253D01*
X51292897Y-54529959D01*
X51515576Y-54410935D01*
X51710755Y-54250755D01*
X51870935Y-54055576D01*
X51989959Y-53832897D01*
X52063253Y-53591277D01*
X52070000Y-53522775D01*
X52076747Y-53591277D01*
X52150041Y-53832897D01*
X52269065Y-54055576D01*
X52429245Y-54250755D01*
X52624424Y-54410935D01*
X52847103Y-54529959D01*
X53088723Y-54603253D01*
X53277031Y-54621800D01*
X53402969Y-54621800D01*
X53591277Y-54603253D01*
X53832897Y-54529959D01*
X54055576Y-54410935D01*
X54250755Y-54250755D01*
X54410935Y-54055576D01*
X54529959Y-53832897D01*
X54603253Y-53591277D01*
X54610000Y-53522775D01*
X54616747Y-53591277D01*
X54690041Y-53832897D01*
X54809065Y-54055576D01*
X54969245Y-54250755D01*
X55164424Y-54410935D01*
X55387103Y-54529959D01*
X55628723Y-54603253D01*
X55817031Y-54621800D01*
X55942969Y-54621800D01*
X56131277Y-54603253D01*
X56372897Y-54529959D01*
X56595576Y-54410935D01*
X56790755Y-54250755D01*
X56950935Y-54055576D01*
X57069959Y-53832897D01*
X57143253Y-53591277D01*
X57150000Y-53522775D01*
X57156747Y-53591277D01*
X57230041Y-53832897D01*
X57349065Y-54055576D01*
X57509245Y-54250755D01*
X57704424Y-54410935D01*
X57927103Y-54529959D01*
X58168723Y-54603253D01*
X58357031Y-54621800D01*
X58482969Y-54621800D01*
X58671277Y-54603253D01*
X58912897Y-54529959D01*
X59135576Y-54410935D01*
X59156590Y-54393689D01*
X59156590Y-54577153D01*
X59120129Y-54613614D01*
X59039148Y-54667724D01*
X58923289Y-54783583D01*
X58832258Y-54919820D01*
X58769555Y-55071198D01*
X58737590Y-55231900D01*
X58737590Y-55395750D01*
X58769555Y-55556452D01*
X58832258Y-55707830D01*
X58923289Y-55844067D01*
X59039148Y-55959926D01*
X59175385Y-56050957D01*
X59326763Y-56113660D01*
X59487465Y-56145625D01*
X59651315Y-56145625D01*
X59812017Y-56113660D01*
X59963395Y-56050957D01*
X60099632Y-55959926D01*
X60215491Y-55844067D01*
X60269601Y-55763086D01*
X60503200Y-55529487D01*
X60503201Y-59500786D01*
X59500788Y-60503200D01*
X9079213Y-60503200D01*
X8076800Y-59500788D01*
X8076800Y-54632438D01*
X8079010Y-54610000D01*
X8070190Y-54520452D01*
X8044070Y-54434344D01*
X8001653Y-54354988D01*
X7944569Y-54285431D01*
X7875012Y-54228347D01*
X7795656Y-54185930D01*
X7709548Y-54159810D01*
X7642438Y-54153200D01*
X7620000Y-54150990D01*
X7597562Y-54153200D01*
X2562342Y-54153200D01*
X2135793Y-54111376D01*
X1746989Y-53993989D01*
X1388384Y-53803315D01*
X1073649Y-53546623D01*
X814762Y-53233682D01*
X621594Y-52876424D01*
X501496Y-52488448D01*
X457851Y-52073194D01*
X813211Y-52073194D01*
X813335Y-52090926D01*
X815380Y-52110380D01*
X815380Y-52114576D01*
X815505Y-52115206D01*
X815505Y-52132308D01*
X816171Y-52138651D01*
X843800Y-52384968D01*
X852411Y-52425479D01*
X860450Y-52466077D01*
X862335Y-52472170D01*
X937280Y-52708428D01*
X953587Y-52746475D01*
X969368Y-52784761D01*
X972401Y-52790371D01*
X1091809Y-53007574D01*
X1115211Y-53041750D01*
X1138111Y-53076218D01*
X1142176Y-53081133D01*
X1301497Y-53271005D01*
X1331109Y-53300003D01*
X1360252Y-53329350D01*
X1365195Y-53333382D01*
X1558361Y-53488692D01*
X1593025Y-53511374D01*
X1627329Y-53534513D01*
X1632960Y-53537508D01*
X1852615Y-53652341D01*
X1890999Y-53667849D01*
X1929170Y-53683894D01*
X1935276Y-53685738D01*
X2173052Y-53755719D01*
X2213765Y-53763485D01*
X2254277Y-53771801D01*
X2260624Y-53772424D01*
X2507464Y-53794888D01*
X2548831Y-53794599D01*
X2590265Y-53794888D01*
X2596613Y-53794266D01*
X2843116Y-53768358D01*
X2883676Y-53760032D01*
X2924343Y-53752274D01*
X2930449Y-53750431D01*
X3167224Y-53677136D01*
X3205372Y-53661099D01*
X3243776Y-53645583D01*
X3249408Y-53642589D01*
X3467437Y-53524701D01*
X3501753Y-53501555D01*
X3536405Y-53478879D01*
X3541348Y-53474848D01*
X3732328Y-53316855D01*
X3761473Y-53287506D01*
X3791082Y-53258510D01*
X3795148Y-53253596D01*
X3951802Y-53061518D01*
X3974699Y-53027055D01*
X3998104Y-52992873D01*
X4001138Y-52987262D01*
X4117502Y-52768414D01*
X4133278Y-52730138D01*
X4149589Y-52692080D01*
X4151476Y-52685988D01*
X4223115Y-52448705D01*
X4231154Y-52408103D01*
X4239764Y-52367596D01*
X4240431Y-52361253D01*
X4264618Y-52114576D01*
X4264618Y-52093834D01*
X4266788Y-52073183D01*
X4266789Y-52066805D01*
X4266665Y-52049074D01*
X4264618Y-52029600D01*
X4264618Y-52025424D01*
X4264495Y-52024804D01*
X4264495Y-52007692D01*
X4263829Y-52001349D01*
X4236200Y-51755033D01*
X4227590Y-51714529D01*
X4219550Y-51673923D01*
X4217665Y-51667830D01*
X4142720Y-51431572D01*
X4126407Y-51393512D01*
X4110632Y-51355240D01*
X4107599Y-51349629D01*
X3988191Y-51132427D01*
X3964806Y-51098274D01*
X3941888Y-51063781D01*
X3937823Y-51058866D01*
X3778501Y-50868994D01*
X3748906Y-50840013D01*
X3719748Y-50810651D01*
X3714806Y-50806619D01*
X3521638Y-50651308D01*
X3487010Y-50628648D01*
X3452669Y-50605485D01*
X3447037Y-50602490D01*
X3227382Y-50487659D01*
X3189011Y-50472156D01*
X3150831Y-50456107D01*
X3144725Y-50454263D01*
X3106828Y-50443109D01*
X8718519Y-50443109D01*
X8839186Y-50673000D01*
X10033000Y-50673000D01*
X10033000Y-49479845D01*
X9803110Y-49358524D01*
X9655901Y-49403175D01*
X9393080Y-49528359D01*
X9159731Y-49702412D01*
X8964822Y-49918645D01*
X8815843Y-50168748D01*
X8718519Y-50443109D01*
X3106828Y-50443109D01*
X2906949Y-50384281D01*
X2866251Y-50376517D01*
X2825722Y-50368198D01*
X2819377Y-50367575D01*
X2819375Y-50367575D01*
X2572535Y-50345111D01*
X2531168Y-50345400D01*
X2489734Y-50345111D01*
X2483387Y-50345733D01*
X2236883Y-50371641D01*
X2196317Y-50379968D01*
X2155657Y-50387725D01*
X2149551Y-50389568D01*
X1912775Y-50462863D01*
X1874611Y-50478906D01*
X1836222Y-50494416D01*
X1830590Y-50497410D01*
X1612560Y-50615298D01*
X1578225Y-50638458D01*
X1543592Y-50661121D01*
X1538649Y-50665152D01*
X1347669Y-50823145D01*
X1318489Y-50852530D01*
X1288916Y-50881490D01*
X1284850Y-50886404D01*
X1128195Y-51078482D01*
X1105269Y-51112989D01*
X1081893Y-51147129D01*
X1078859Y-51152740D01*
X962496Y-51371587D01*
X946733Y-51409832D01*
X930410Y-51447917D01*
X928524Y-51454010D01*
X856884Y-51691291D01*
X848851Y-51731862D01*
X840234Y-51772403D01*
X839567Y-51778746D01*
X815380Y-52025424D01*
X815380Y-52046185D01*
X813212Y-52066816D01*
X813211Y-52073194D01*
X457851Y-52073194D01*
X456800Y-52063197D01*
X456800Y-21756259D01*
X953646Y-21164141D01*
X999317Y-21098916D01*
X1468925Y-20285531D01*
X1479627Y-20262581D01*
X1502577Y-20213366D01*
X1823808Y-19330789D01*
X1844415Y-19253880D01*
X1844416Y-19253878D01*
X2007510Y-18328930D01*
X2014450Y-18249608D01*
X2014450Y-17310391D01*
X2007510Y-17231069D01*
X2007510Y-17231068D01*
X1844416Y-16306120D01*
X1838894Y-16285512D01*
X1823808Y-16229209D01*
X1502577Y-15346632D01*
X1478433Y-15294857D01*
X1468925Y-15274467D01*
X999317Y-14461082D01*
X953646Y-14395857D01*
X953645Y-14395856D01*
X456800Y-13803739D01*
X456800Y-3197343D01*
X498623Y-2770797D01*
X616012Y-2381986D01*
X806682Y-2023389D01*
X1063376Y-1708650D01*
X1376317Y-1449763D01*
X1733574Y-1256595D01*
X2121553Y-1136495D01*
X2546802Y-1091800D01*
X62207657Y-1091800D01*
X62634203Y-1133623D01*
G36*
X48926365Y-43750627D02*
G01*
X48947841Y-43776795D01*
X48974006Y-43798268D01*
X48974008Y-43798270D01*
X49009539Y-43827429D01*
X49052268Y-43862496D01*
X49059020Y-43866105D01*
X48373396Y-43866105D01*
X48381089Y-43827429D01*
X48381089Y-43663579D01*
X48349124Y-43502877D01*
X48286421Y-43351499D01*
X48195390Y-43215262D01*
X48079531Y-43099403D01*
X47943294Y-43008372D01*
X47791916Y-42945669D01*
X47631214Y-42913704D01*
X47467364Y-42913704D01*
X47306662Y-42945669D01*
X47155284Y-43008372D01*
X47019047Y-43099403D01*
X46903188Y-43215262D01*
X46812157Y-43351499D01*
X46772022Y-43448392D01*
X43787533Y-43448392D01*
X43674832Y-43335691D01*
X43538595Y-43244660D01*
X43387217Y-43181957D01*
X43226515Y-43149992D01*
X43062665Y-43149992D01*
X42901963Y-43181957D01*
X42750585Y-43244660D01*
X42614348Y-43335691D01*
X42498489Y-43451550D01*
X42459346Y-43510131D01*
X41770570Y-42821355D01*
X41753869Y-42801005D01*
X41672649Y-42734349D01*
X41579985Y-42684819D01*
X41479439Y-42654319D01*
X41401069Y-42646600D01*
X41401061Y-42646600D01*
X41374874Y-42644021D01*
X41348687Y-42646600D01*
X27312943Y-42646600D01*
X27262143Y-42595800D01*
X41439172Y-42595800D01*
X41515995Y-42647132D01*
X41667373Y-42709835D01*
X41828075Y-42741800D01*
X41991925Y-42741800D01*
X42152627Y-42709835D01*
X42304005Y-42647132D01*
X42440242Y-42556101D01*
X42556101Y-42440242D01*
X42647132Y-42304005D01*
X42709835Y-42152627D01*
X42741800Y-41991925D01*
X42741800Y-41828075D01*
X42709835Y-41667373D01*
X42647132Y-41515995D01*
X42556101Y-41379758D01*
X42502143Y-41325800D01*
X46501539Y-41325800D01*
X48926365Y-43750627D01*
X48926365Y-43750627D01*
G37*
X48926365Y-43750627D02*
X48947841Y-43776795D01*
X48974006Y-43798268D01*
X48974008Y-43798270D01*
X49009539Y-43827429D01*
X49052268Y-43862496D01*
X49059020Y-43866105D01*
X48373396Y-43866105D01*
X48381089Y-43827429D01*
X48381089Y-43663579D01*
X48349124Y-43502877D01*
X48286421Y-43351499D01*
X48195390Y-43215262D01*
X48079531Y-43099403D01*
X47943294Y-43008372D01*
X47791916Y-42945669D01*
X47631214Y-42913704D01*
X47467364Y-42913704D01*
X47306662Y-42945669D01*
X47155284Y-43008372D01*
X47019047Y-43099403D01*
X46903188Y-43215262D01*
X46812157Y-43351499D01*
X46772022Y-43448392D01*
X43787533Y-43448392D01*
X43674832Y-43335691D01*
X43538595Y-43244660D01*
X43387217Y-43181957D01*
X43226515Y-43149992D01*
X43062665Y-43149992D01*
X42901963Y-43181957D01*
X42750585Y-43244660D01*
X42614348Y-43335691D01*
X42498489Y-43451550D01*
X42459346Y-43510131D01*
X41770570Y-42821355D01*
X41753869Y-42801005D01*
X41672649Y-42734349D01*
X41579985Y-42684819D01*
X41479439Y-42654319D01*
X41401069Y-42646600D01*
X41401061Y-42646600D01*
X41374874Y-42644021D01*
X41348687Y-42646600D01*
X27312943Y-42646600D01*
X27262143Y-42595800D01*
X41439172Y-42595800D01*
X41515995Y-42647132D01*
X41667373Y-42709835D01*
X41828075Y-42741800D01*
X41991925Y-42741800D01*
X42152627Y-42709835D01*
X42304005Y-42647132D01*
X42440242Y-42556101D01*
X42556101Y-42440242D01*
X42647132Y-42304005D01*
X42709835Y-42152627D01*
X42741800Y-41991925D01*
X42741800Y-41828075D01*
X42709835Y-41667373D01*
X42647132Y-41515995D01*
X42556101Y-41379758D01*
X42502143Y-41325800D01*
X46501539Y-41325800D01*
X48926365Y-43750627D01*
G36*
X55604245Y-15065755D02*
G01*
X55799424Y-15225935D01*
X56022103Y-15344959D01*
X56263723Y-15418253D01*
X56515000Y-15443002D01*
X56766276Y-15418253D01*
X57007896Y-15344959D01*
X57085610Y-15303420D01*
X57085611Y-19630048D01*
X55891806Y-20823853D01*
X55871456Y-20840554D01*
X55804800Y-20921774D01*
X55755270Y-21014439D01*
X55724770Y-21114985D01*
X55717051Y-21193355D01*
X55717051Y-21193362D01*
X55714472Y-21219549D01*
X55717051Y-21245736D01*
X55717052Y-31478264D01*
X55714472Y-31504461D01*
X55724770Y-31609025D01*
X55755270Y-31709571D01*
X55776880Y-31750000D01*
X55804801Y-31802236D01*
X55819198Y-31819779D01*
X55818650Y-31822535D01*
X55818650Y-31986385D01*
X55850615Y-32147087D01*
X55913318Y-32298465D01*
X56004349Y-32434702D01*
X56120208Y-32550561D01*
X56256445Y-32641592D01*
X56407823Y-32704295D01*
X56568525Y-32736260D01*
X56732375Y-32736260D01*
X56893077Y-32704295D01*
X57040776Y-32643116D01*
X56985165Y-32777373D01*
X56965878Y-32874335D01*
X56868916Y-32893622D01*
X56717538Y-32956325D01*
X56581301Y-33047356D01*
X56465442Y-33163215D01*
X56374411Y-33299452D01*
X56311708Y-33450830D01*
X56279743Y-33611532D01*
X56279743Y-33775382D01*
X56311708Y-33936084D01*
X56374411Y-34087462D01*
X56465442Y-34223699D01*
X56581301Y-34339558D01*
X56583637Y-34341119D01*
X56585862Y-34363706D01*
X56616362Y-34464252D01*
X56643411Y-34514857D01*
X56665893Y-34556917D01*
X56693217Y-34590211D01*
X56715850Y-34617790D01*
X56715853Y-34617793D01*
X56732549Y-34638137D01*
X56752893Y-34654833D01*
X56833859Y-34735799D01*
X56833860Y-38810089D01*
X56743922Y-38792200D01*
X56580072Y-38792200D01*
X56419370Y-38824165D01*
X56267992Y-38886868D01*
X56131755Y-38977899D01*
X56015896Y-39093758D01*
X55990055Y-39132431D01*
X54712943Y-39132431D01*
X54600242Y-39019730D01*
X54464005Y-38928699D01*
X54312627Y-38865996D01*
X54151925Y-38834031D01*
X53988075Y-38834031D01*
X53827373Y-38865996D01*
X53675995Y-38928699D01*
X53539758Y-39019730D01*
X53423899Y-39135589D01*
X53332868Y-39271826D01*
X53270165Y-39423204D01*
X53238200Y-39583906D01*
X53238200Y-39747756D01*
X53270165Y-39908458D01*
X53332868Y-40059836D01*
X53415078Y-40182872D01*
X53317758Y-40247899D01*
X53201899Y-40363758D01*
X53110868Y-40499995D01*
X53048165Y-40651373D01*
X53016200Y-40812075D01*
X53016200Y-40824595D01*
X52939386Y-40783537D01*
X52762233Y-40729798D01*
X52624167Y-40716200D01*
X52624157Y-40716200D01*
X52578000Y-40711654D01*
X52531843Y-40716200D01*
X52277833Y-40716200D01*
X52139767Y-40729798D01*
X51962614Y-40783537D01*
X51814890Y-40862497D01*
X50206565Y-39254172D01*
X50292497Y-39271265D01*
X50456347Y-39271265D01*
X50617049Y-39239300D01*
X50768427Y-39176597D01*
X50855420Y-39118470D01*
X50991279Y-39209249D01*
X51142657Y-39271952D01*
X51303359Y-39303917D01*
X51467209Y-39303917D01*
X51627911Y-39271952D01*
X51779289Y-39209249D01*
X51915526Y-39118218D01*
X52031385Y-39002359D01*
X52122416Y-38866122D01*
X52185119Y-38714744D01*
X52217084Y-38554042D01*
X52217084Y-38390192D01*
X52185119Y-38229490D01*
X52122416Y-38078112D01*
X52031385Y-37941875D01*
X51918684Y-37829174D01*
X51918684Y-33567793D01*
X52008443Y-33585647D01*
X52172293Y-33585647D01*
X52332995Y-33553682D01*
X52484373Y-33490979D01*
X52620610Y-33399948D01*
X52736469Y-33284089D01*
X52827500Y-33147852D01*
X52890203Y-32996474D01*
X52922168Y-32835772D01*
X52922168Y-32671922D01*
X52890203Y-32511220D01*
X52827500Y-32359842D01*
X52736469Y-32223605D01*
X52623768Y-32110904D01*
X52623768Y-23568573D01*
X53698645Y-22493696D01*
X53718995Y-22476995D01*
X53785651Y-22395775D01*
X53835181Y-22303111D01*
X53865681Y-22202565D01*
X53873400Y-22124195D01*
X53873400Y-22124194D01*
X53875980Y-22098000D01*
X53873400Y-22071806D01*
X53873400Y-16572246D01*
X55437655Y-15007991D01*
X55458005Y-14991290D01*
X55500569Y-14939426D01*
X55604245Y-15065755D01*
X55604245Y-15065755D01*
G37*
X55604245Y-15065755D02*
X55799424Y-15225935D01*
X56022103Y-15344959D01*
X56263723Y-15418253D01*
X56515000Y-15443002D01*
X56766276Y-15418253D01*
X57007896Y-15344959D01*
X57085610Y-15303420D01*
X57085611Y-19630048D01*
X55891806Y-20823853D01*
X55871456Y-20840554D01*
X55804800Y-20921774D01*
X55755270Y-21014439D01*
X55724770Y-21114985D01*
X55717051Y-21193355D01*
X55717051Y-21193362D01*
X55714472Y-21219549D01*
X55717051Y-21245736D01*
X55717052Y-31478264D01*
X55714472Y-31504461D01*
X55724770Y-31609025D01*
X55755270Y-31709571D01*
X55776880Y-31750000D01*
X55804801Y-31802236D01*
X55819198Y-31819779D01*
X55818650Y-31822535D01*
X55818650Y-31986385D01*
X55850615Y-32147087D01*
X55913318Y-32298465D01*
X56004349Y-32434702D01*
X56120208Y-32550561D01*
X56256445Y-32641592D01*
X56407823Y-32704295D01*
X56568525Y-32736260D01*
X56732375Y-32736260D01*
X56893077Y-32704295D01*
X57040776Y-32643116D01*
X56985165Y-32777373D01*
X56965878Y-32874335D01*
X56868916Y-32893622D01*
X56717538Y-32956325D01*
X56581301Y-33047356D01*
X56465442Y-33163215D01*
X56374411Y-33299452D01*
X56311708Y-33450830D01*
X56279743Y-33611532D01*
X56279743Y-33775382D01*
X56311708Y-33936084D01*
X56374411Y-34087462D01*
X56465442Y-34223699D01*
X56581301Y-34339558D01*
X56583637Y-34341119D01*
X56585862Y-34363706D01*
X56616362Y-34464252D01*
X56643411Y-34514857D01*
X56665893Y-34556917D01*
X56693217Y-34590211D01*
X56715850Y-34617790D01*
X56715853Y-34617793D01*
X56732549Y-34638137D01*
X56752893Y-34654833D01*
X56833859Y-34735799D01*
X56833860Y-38810089D01*
X56743922Y-38792200D01*
X56580072Y-38792200D01*
X56419370Y-38824165D01*
X56267992Y-38886868D01*
X56131755Y-38977899D01*
X56015896Y-39093758D01*
X55990055Y-39132431D01*
X54712943Y-39132431D01*
X54600242Y-39019730D01*
X54464005Y-38928699D01*
X54312627Y-38865996D01*
X54151925Y-38834031D01*
X53988075Y-38834031D01*
X53827373Y-38865996D01*
X53675995Y-38928699D01*
X53539758Y-39019730D01*
X53423899Y-39135589D01*
X53332868Y-39271826D01*
X53270165Y-39423204D01*
X53238200Y-39583906D01*
X53238200Y-39747756D01*
X53270165Y-39908458D01*
X53332868Y-40059836D01*
X53415078Y-40182872D01*
X53317758Y-40247899D01*
X53201899Y-40363758D01*
X53110868Y-40499995D01*
X53048165Y-40651373D01*
X53016200Y-40812075D01*
X53016200Y-40824595D01*
X52939386Y-40783537D01*
X52762233Y-40729798D01*
X52624167Y-40716200D01*
X52624157Y-40716200D01*
X52578000Y-40711654D01*
X52531843Y-40716200D01*
X52277833Y-40716200D01*
X52139767Y-40729798D01*
X51962614Y-40783537D01*
X51814890Y-40862497D01*
X50206565Y-39254172D01*
X50292497Y-39271265D01*
X50456347Y-39271265D01*
X50617049Y-39239300D01*
X50768427Y-39176597D01*
X50855420Y-39118470D01*
X50991279Y-39209249D01*
X51142657Y-39271952D01*
X51303359Y-39303917D01*
X51467209Y-39303917D01*
X51627911Y-39271952D01*
X51779289Y-39209249D01*
X51915526Y-39118218D01*
X52031385Y-39002359D01*
X52122416Y-38866122D01*
X52185119Y-38714744D01*
X52217084Y-38554042D01*
X52217084Y-38390192D01*
X52185119Y-38229490D01*
X52122416Y-38078112D01*
X52031385Y-37941875D01*
X51918684Y-37829174D01*
X51918684Y-33567793D01*
X52008443Y-33585647D01*
X52172293Y-33585647D01*
X52332995Y-33553682D01*
X52484373Y-33490979D01*
X52620610Y-33399948D01*
X52736469Y-33284089D01*
X52827500Y-33147852D01*
X52890203Y-32996474D01*
X52922168Y-32835772D01*
X52922168Y-32671922D01*
X52890203Y-32511220D01*
X52827500Y-32359842D01*
X52736469Y-32223605D01*
X52623768Y-32110904D01*
X52623768Y-23568573D01*
X53698645Y-22493696D01*
X53718995Y-22476995D01*
X53785651Y-22395775D01*
X53835181Y-22303111D01*
X53865681Y-22202565D01*
X53873400Y-22124195D01*
X53873400Y-22124194D01*
X53875980Y-22098000D01*
X53873400Y-22071806D01*
X53873400Y-16572246D01*
X55437655Y-15007991D01*
X55458005Y-14991290D01*
X55500569Y-14939426D01*
X55604245Y-15065755D01*
M02*
