G04 #@! TF.GenerationSoftware,KiCad,Pcbnew,5.1.4+dfsg1-1*
G04 #@! TF.CreationDate,2019-11-19T12:30:17-08:00*
G04 #@! TF.ProjectId,cartridge,63617274-7269-4646-9765-2e6b69636164,rev?*
G04 #@! TF.SameCoordinates,PX40311b0PY2227a70*
G04 #@! TF.FileFunction,Profile,NP*
%FSLAX46Y46*%
G04 Gerber Fmt 4.6, Leading zero omitted, Abs format (unit mm)*
G04 Created by KiCad (PCBNEW 5.1.4+dfsg1-1) date 2019-11-19 12:30:17*
%MOMM*%
%LPD*%
G04 APERTURE LIST*
%ADD10C,0.050000*%
G04 APERTURE END LIST*
D10*
X64770000Y-13336000D02*
X64770000Y-21336002D01*
X0Y-13336000D02*
X0Y-21336000D01*
X7620000Y-61976000D02*
X7620000Y-67056000D01*
X60960000Y-61976000D02*
X60960000Y-67056000D01*
X64770000Y-2541000D02*
X64770000Y-13336000D01*
X0Y-13336000D02*
X0Y-2541000D01*
X2540000Y-1000D02*
X62230000Y-1000D01*
X2539999Y-61976000D02*
G75*
G02X0Y-59436000I1J2540000D01*
G01*
X64769998Y-59436001D02*
G75*
G02X62229999Y-61975999I-2539999J1D01*
G01*
X63499998Y-59436000D02*
G75*
G02X60960000Y-59436000I-1269999J0D01*
G01*
X60960000Y-59436000D02*
G75*
G02X63500000Y-59436000I1270000J0D01*
G01*
X1270000Y-59436000D02*
G75*
G02X3810000Y-59436000I1270000J0D01*
G01*
X3809998Y-59436000D02*
G75*
G02X1270000Y-59436000I-1269999J0D01*
G01*
X0Y-21336000D02*
G75*
G02X0Y-28955998I-3809999J-3809999D01*
G01*
X64770000Y-28956000D02*
G75*
G02X64770000Y-21336002I3809999J3809999D01*
G01*
X0Y-2541000D02*
G75*
G02X2540000Y-1000I2540000J0D01*
G01*
X62230000Y-1000D02*
G75*
G02X64770000Y-2541000I0J-2540000D01*
G01*
X60960000Y-61976000D02*
X62230000Y-61976000D01*
X0Y-59436000D02*
X0Y-28955998D01*
X7620000Y-61976000D02*
X2539999Y-61976000D01*
X8890000Y-68326000D02*
X7620000Y-67056000D01*
X64770000Y-59436000D02*
X64770000Y-28956000D01*
X59690000Y-68326000D02*
X60960000Y-67056000D01*
X8890000Y-68326000D02*
X59690000Y-68326000D01*
M02*
