  0
SECTION
  2
BLOCKS
  0
ENDSEC
  0
SECTION
  2
ENTITIES
  0
LINE
  8
0
 10
91.2453
 20
-7.99397
 11
91.4901
 21
-7.97592
  0
LINE
  8
0
 10
91.4901
 20
-7.97592
 11
91.7336
 21
-7.94588
  0
LINE
  8
0
 10
91.7336
 20
-7.94588
 11
91.9754
 21
-7.90392
  0
LINE
  8
0
 10
91.9754
 20
-7.90392
 11
92.2149
 21
-7.85014
  0
LINE
  8
0
 10
92.2149
 20
-7.85014
 11
92.4514
 21
-7.7847
  0
LINE
  8
0
 10
92.4514
 20
-7.7847
 11
92.6844
 21
-7.70772
  0
LINE
  8
0
 10
92.6844
 20
-7.70772
 11
92.9134
 21
-7.61938
  0
LINE
  8
0
 10
92.9134
 20
-7.61938
 11
93.1378
 21
-7.51994
  0
LINE
  8
0
 10
93.1378
 20
-7.51994
 11
93.357
 21
-7.40959
  0
LINE
  8
0
 10
93.357
 20
-7.40959
 11
93.5705
 21
-7.28864
  0
LINE
  8
0
 10
93.5705
 20
-7.28864
 11
93.7778
 21
-7.15733
  0
LINE
  8
0
 10
93.7778
 20
-7.15733
 11
93.9785
 21
-7.01604
  0
LINE
  8
0
 10
93.9785
 20
-7.01604
 11
94.172
 21
-6.86505
  0
LINE
  8
0
 10
94.172
 20
-6.86505
 11
94.3578
 21
-6.70474
  0
LINE
  8
0
 10
94.3578
 20
-6.70474
 11
94.5355
 21
-6.53552
  0
LINE
  8
0
 10
94.5355
 20
-6.53552
 11
94.7047
 21
-6.35779
  0
LINE
  8
0
 10
94.7047
 20
-6.35779
 11
94.8651
 21
-6.17195
  0
LINE
  8
0
 10
94.8651
 20
-6.17195
 11
95.016
 21
-5.97849
  0
LINE
  8
0
 10
95.016
 20
-5.97849
 11
95.1573
 21
-5.77785
  0
LINE
  8
0
 10
95.1573
 20
-5.77785
 11
95.2886
 21
-5.57051
  0
LINE
  8
0
 10
95.2886
 20
-5.57051
 11
95.4096
 21
-5.35698
  0
LINE
  8
0
 10
95.4096
 20
-5.35698
 11
95.5199
 21
-5.13777
  0
LINE
  8
0
 10
95.5199
 20
-5.13777
 11
95.6194
 21
-4.91341
  0
LINE
  8
0
 10
95.6194
 20
-4.91341
 11
95.7077
 21
-4.68445
  0
LINE
  8
0
 10
95.7077
 20
-4.68445
 11
95.7847
 21
-4.45142
  0
LINE
  8
0
 10
95.7847
 20
-4.45142
 11
95.8501
 21
-4.21489
  0
LINE
  8
0
 10
95.8501
 20
-4.21489
 11
95.9039
 21
-3.97545
  0
LINE
  8
0
 10
95.9039
 20
-3.97545
 11
95.9459
 21
-3.73364
  0
LINE
  8
0
 10
95.9459
 20
-3.73364
 11
95.9759
 21
-3.49008
  0
LINE
  8
0
 10
95.9759
 20
-3.49008
 11
95.994
 21
-3.24533
  0
LINE
  8
0
 10
95.994
 20
-3.24533
 11
96
 21
-3
  0
LINE
  8
0
 10
96
 20
-3
 11
96
 21
143.5
  0
LINE
  8
0
 10
96
 20
143.5
 11
95.994
 21
143.745
  0
LINE
  8
0
 10
95.994
 20
143.745
 11
95.9759
 21
143.99
  0
LINE
  8
0
 10
95.9759
 20
143.99
 11
95.9459
 21
144.234
  0
LINE
  8
0
 10
95.9459
 20
144.234
 11
95.9039
 21
144.475
  0
LINE
  8
0
 10
95.9039
 20
144.475
 11
95.8501
 21
144.715
  0
LINE
  8
0
 10
95.8501
 20
144.715
 11
95.7847
 21
144.951
  0
LINE
  8
0
 10
95.7847
 20
144.951
 11
95.7077
 21
145.184
  0
LINE
  8
0
 10
95.7077
 20
145.184
 11
95.6194
 21
145.413
  0
LINE
  8
0
 10
95.6194
 20
145.413
 11
95.5199
 21
145.638
  0
LINE
  8
0
 10
95.5199
 20
145.638
 11
95.4096
 21
145.857
  0
LINE
  8
0
 10
95.4096
 20
145.857
 11
95.2886
 21
146.071
  0
LINE
  8
0
 10
95.2886
 20
146.071
 11
95.1573
 21
146.278
  0
LINE
  8
0
 10
95.1573
 20
146.278
 11
95.016
 21
146.478
  0
LINE
  8
0
 10
95.016
 20
146.478
 11
94.8651
 21
146.672
  0
LINE
  8
0
 10
94.8651
 20
146.672
 11
94.7047
 21
146.858
  0
LINE
  8
0
 10
94.7047
 20
146.858
 11
94.5355
 21
147.036
  0
LINE
  8
0
 10
94.5355
 20
147.036
 11
94.3578
 21
147.205
  0
LINE
  8
0
 10
94.3578
 20
147.205
 11
94.172
 21
147.365
  0
LINE
  8
0
 10
94.172
 20
147.365
 11
93.9785
 21
147.516
  0
LINE
  8
0
 10
93.9785
 20
147.516
 11
93.7778
 21
147.657
  0
LINE
  8
0
 10
93.7778
 20
147.657
 11
93.5705
 21
147.789
  0
LINE
  8
0
 10
93.5705
 20
147.789
 11
93.357
 21
147.91
  0
LINE
  8
0
 10
93.357
 20
147.91
 11
93.1378
 21
148.02
  0
LINE
  8
0
 10
93.1378
 20
148.02
 11
92.9134
 21
148.119
  0
LINE
  8
0
 10
92.9134
 20
148.119
 11
92.6844
 21
148.208
  0
LINE
  8
0
 10
92.6844
 20
148.208
 11
92.4514
 21
148.285
  0
LINE
  8
0
 10
92.4514
 20
148.285
 11
92.2149
 21
148.35
  0
LINE
  8
0
 10
92.2149
 20
148.35
 11
91.9754
 21
148.404
  0
LINE
  8
0
 10
91.9754
 20
148.404
 11
91.7336
 21
148.446
  0
LINE
  8
0
 10
91.7336
 20
148.446
 11
91.4901
 21
148.476
  0
LINE
  8
0
 10
91.4901
 20
148.476
 11
91.2453
 21
148.494
  0
LINE
  8
0
 10
91.2453
 20
148.494
 11
91
 21
148.5
  0
LINE
  8
0
 10
91
 20
148.5
 11
-3
 21
148.5
  0
LINE
  8
0
 10
-3
 20
148.5
 11
-3.24533
 21
148.494
  0
LINE
  8
0
 10
-3.24533
 20
148.494
 11
-3.49008
 21
148.476
  0
LINE
  8
0
 10
-3.49008
 20
148.476
 11
-3.73364
 21
148.446
  0
LINE
  8
0
 10
-3.73364
 20
148.446
 11
-3.97545
 21
148.404
  0
LINE
  8
0
 10
-3.97545
 20
148.404
 11
-4.21489
 21
148.35
  0
LINE
  8
0
 10
-4.21489
 20
148.35
 11
-4.45142
 21
148.285
  0
LINE
  8
0
 10
-4.45142
 20
148.285
 11
-4.68445
 21
148.208
  0
LINE
  8
0
 10
-4.68445
 20
148.208
 11
-4.91341
 21
148.119
  0
LINE
  8
0
 10
-4.91341
 20
148.119
 11
-5.13777
 21
148.02
  0
LINE
  8
0
 10
-5.13777
 20
148.02
 11
-5.35698
 21
147.91
  0
LINE
  8
0
 10
-5.35698
 20
147.91
 11
-5.57051
 21
147.789
  0
LINE
  8
0
 10
-5.57051
 20
147.789
 11
-5.77785
 21
147.657
  0
LINE
  8
0
 10
-5.77785
 20
147.657
 11
-5.97849
 21
147.516
  0
LINE
  8
0
 10
-5.97849
 20
147.516
 11
-6.17195
 21
147.365
  0
LINE
  8
0
 10
-6.17195
 20
147.365
 11
-6.35779
 21
147.205
  0
LINE
  8
0
 10
-6.35779
 20
147.205
 11
-6.53552
 21
147.036
  0
LINE
  8
0
 10
-6.53552
 20
147.036
 11
-6.70474
 21
146.858
  0
LINE
  8
0
 10
-6.70474
 20
146.858
 11
-6.86505
 21
146.672
  0
LINE
  8
0
 10
-6.86505
 20
146.672
 11
-7.01604
 21
146.478
  0
LINE
  8
0
 10
-7.01604
 20
146.478
 11
-7.15733
 21
146.278
  0
LINE
  8
0
 10
-7.15733
 20
146.278
 11
-7.28864
 21
146.071
  0
LINE
  8
0
 10
-7.28864
 20
146.071
 11
-7.40959
 21
145.857
  0
LINE
  8
0
 10
-7.40959
 20
145.857
 11
-7.51994
 21
145.638
  0
LINE
  8
0
 10
-7.51994
 20
145.638
 11
-7.61938
 21
145.413
  0
LINE
  8
0
 10
-7.61938
 20
145.413
 11
-7.70772
 21
145.184
  0
LINE
  8
0
 10
-7.70772
 20
145.184
 11
-7.7847
 21
144.951
  0
LINE
  8
0
 10
-7.7847
 20
144.951
 11
-7.85014
 21
144.715
  0
LINE
  8
0
 10
-7.85014
 20
144.715
 11
-7.90392
 21
144.475
  0
LINE
  8
0
 10
-7.90392
 20
144.475
 11
-7.94588
 21
144.234
  0
LINE
  8
0
 10
-7.94588
 20
144.234
 11
-7.97592
 21
143.99
  0
LINE
  8
0
 10
-7.97592
 20
143.99
 11
-7.99397
 21
143.745
  0
LINE
  8
0
 10
-7.99397
 20
143.745
 11
-8
 21
143.5
  0
LINE
  8
0
 10
-8
 20
143.5
 11
-8
 21
-3
  0
LINE
  8
0
 10
-8
 20
-3
 11
-7.99397
 21
-3.24533
  0
LINE
  8
0
 10
-7.99397
 20
-3.24533
 11
-7.97592
 21
-3.49008
  0
LINE
  8
0
 10
-7.97592
 20
-3.49008
 11
-7.94588
 21
-3.73364
  0
LINE
  8
0
 10
-7.94588
 20
-3.73364
 11
-7.90392
 21
-3.97545
  0
LINE
  8
0
 10
-7.90392
 20
-3.97545
 11
-7.85014
 21
-4.21489
  0
LINE
  8
0
 10
-7.85014
 20
-4.21489
 11
-7.7847
 21
-4.45142
  0
LINE
  8
0
 10
-7.7847
 20
-4.45142
 11
-7.70772
 21
-4.68445
  0
LINE
  8
0
 10
-7.70772
 20
-4.68445
 11
-7.61938
 21
-4.91341
  0
LINE
  8
0
 10
-7.61938
 20
-4.91341
 11
-7.51994
 21
-5.13777
  0
LINE
  8
0
 10
-7.51994
 20
-5.13777
 11
-7.40959
 21
-5.35698
  0
LINE
  8
0
 10
-7.40959
 20
-5.35698
 11
-7.28864
 21
-5.57051
  0
LINE
  8
0
 10
-7.28864
 20
-5.57051
 11
-7.15733
 21
-5.77785
  0
LINE
  8
0
 10
-7.15733
 20
-5.77785
 11
-7.01604
 21
-5.97849
  0
LINE
  8
0
 10
-7.01604
 20
-5.97849
 11
-6.86505
 21
-6.17195
  0
LINE
  8
0
 10
-6.86505
 20
-6.17195
 11
-6.70474
 21
-6.35779
  0
LINE
  8
0
 10
-6.70474
 20
-6.35779
 11
-6.53552
 21
-6.53552
  0
LINE
  8
0
 10
-6.53552
 20
-6.53552
 11
-6.35779
 21
-6.70474
  0
LINE
  8
0
 10
-6.35779
 20
-6.70474
 11
-6.17195
 21
-6.86505
  0
LINE
  8
0
 10
-6.17195
 20
-6.86505
 11
-5.97849
 21
-7.01604
  0
LINE
  8
0
 10
-5.97849
 20
-7.01604
 11
-5.77785
 21
-7.15733
  0
LINE
  8
0
 10
-5.77785
 20
-7.15733
 11
-5.57051
 21
-7.28864
  0
LINE
  8
0
 10
-5.57051
 20
-7.28864
 11
-5.35698
 21
-7.40959
  0
LINE
  8
0
 10
-5.35698
 20
-7.40959
 11
-5.13777
 21
-7.51994
  0
LINE
  8
0
 10
-5.13777
 20
-7.51994
 11
-4.91341
 21
-7.61938
  0
LINE
  8
0
 10
-4.91341
 20
-7.61938
 11
-4.68445
 21
-7.70772
  0
LINE
  8
0
 10
-4.68445
 20
-7.70772
 11
-4.45142
 21
-7.7847
  0
LINE
  8
0
 10
-4.45142
 20
-7.7847
 11
-4.21489
 21
-7.85014
  0
LINE
  8
0
 10
-4.21489
 20
-7.85014
 11
-3.97545
 21
-7.90392
  0
LINE
  8
0
 10
-3.97545
 20
-7.90392
 11
-3.73364
 21
-7.94588
  0
LINE
  8
0
 10
-3.73364
 20
-7.94588
 11
-3.49008
 21
-7.97592
  0
LINE
  8
0
 10
-3.49008
 20
-7.97592
 11
-3.24533
 21
-7.99397
  0
LINE
  8
0
 10
-3.24533
 20
-7.99397
 11
-3
 21
-8
  0
LINE
  8
0
 10
-3
 20
-8
 11
91
 21
-8
  0
LINE
  8
0
 10
91
 20
-8
 11
91.2453
 21
-7.99397
  0
LINE
  8
0
 10
6.52148
 20
135.802
 11
6.44316
 21
135.808
  0
LINE
  8
0
 10
6.44316
 20
135.808
 11
6.36522
 21
135.817
  0
LINE
  8
0
 10
6.36522
 20
135.817
 11
6.28784
 21
135.831
  0
LINE
  8
0
 10
6.28784
 20
135.831
 11
6.21123
 21
135.848
  0
LINE
  8
0
 10
6.21123
 20
135.848
 11
6.13554
 21
135.869
  0
LINE
  8
0
 10
6.13554
 20
135.869
 11
6.06097
 21
135.894
  0
LINE
  8
0
 10
6.06097
 20
135.894
 11
5.9877
 21
135.922
  0
LINE
  8
0
 10
5.9877
 20
135.922
 11
5.91591
 21
135.954
  0
LINE
  8
0
 10
5.91591
 20
135.954
 11
5.84576
 21
135.989
  0
LINE
  8
0
 10
5.84576
 20
135.989
 11
5.77744
 21
136.028
  0
LINE
  8
0
 10
5.77744
 20
136.028
 11
5.71107
 21
136.07
  0
LINE
  8
0
 10
5.71107
 20
136.07
 11
5.64688
 21
136.115
  0
LINE
  8
0
 10
5.64688
 20
136.115
 11
5.58496
 21
136.163
  0
LINE
  8
0
 10
5.58496
 20
136.163
 11
5.5255
 21
136.214
  0
LINE
  8
0
 10
5.5255
 20
136.214
 11
5.46863
 21
136.269
  0
LINE
  8
0
 10
5.46863
 20
136.269
 11
5.41447
 21
136.326
  0
LINE
  8
0
 10
5.41447
 20
136.326
 11
5.36317
 21
136.385
  0
LINE
  8
0
 10
5.36317
 20
136.385
 11
5.31487
 21
136.447
  0
LINE
  8
0
 10
5.31487
 20
136.447
 11
5.26964
 21
136.511
  0
LINE
  8
0
 10
5.26964
 20
136.511
 11
5.22763
 21
136.577
  0
LINE
  8
0
 10
5.22763
 20
136.577
 11
5.18892
 21
136.646
  0
LINE
  8
0
 10
5.18892
 20
136.646
 11
5.15361
 21
136.716
  0
LINE
  8
0
 10
5.15361
 20
136.716
 11
5.12178
 21
136.788
  0
LINE
  8
0
 10
5.12178
 20
136.788
 11
5.09352
 21
136.861
  0
LINE
  8
0
 10
5.09352
 20
136.861
 11
5.06889
 21
136.936
  0
LINE
  8
0
 10
5.06889
 20
136.936
 11
5.04794
 21
137.011
  0
LINE
  8
0
 10
5.04794
 20
137.011
 11
5.03073
 21
137.088
  0
LINE
  8
0
 10
5.03073
 20
137.088
 11
5.0173
 21
137.165
  0
LINE
  8
0
 10
5.0173
 20
137.165
 11
5.00769
 21
137.243
  0
LINE
  8
0
 10
5.00769
 20
137.243
 11
5.00192
 21
137.321
  0
LINE
  8
0
 10
5.00192
 20
137.321
 11
5
 21
137.4
  0
LINE
  8
0
 10
5
 20
137.4
 11
5.00192
 21
137.479
  0
LINE
  8
0
 10
5.00192
 20
137.479
 11
5.00769
 21
137.557
  0
LINE
  8
0
 10
5.00769
 20
137.557
 11
5.0173
 21
137.635
  0
LINE
  8
0
 10
5.0173
 20
137.635
 11
5.03073
 21
137.712
  0
LINE
  8
0
 10
5.03073
 20
137.712
 11
5.04794
 21
137.789
  0
LINE
  8
0
 10
5.04794
 20
137.789
 11
5.06889
 21
137.864
  0
LINE
  8
0
 10
5.06889
 20
137.864
 11
5.09352
 21
137.939
  0
LINE
  8
0
 10
5.09352
 20
137.939
 11
5.12178
 21
138.012
  0
LINE
  8
0
 10
5.12178
 20
138.012
 11
5.15361
 21
138.084
  0
LINE
  8
0
 10
5.15361
 20
138.084
 11
5.18892
 21
138.154
  0
LINE
  8
0
 10
5.18892
 20
138.154
 11
5.22763
 21
138.223
  0
LINE
  8
0
 10
5.22763
 20
138.223
 11
5.26964
 21
138.289
  0
LINE
  8
0
 10
5.26964
 20
138.289
 11
5.31487
 21
138.353
  0
LINE
  8
0
 10
5.31487
 20
138.353
 11
5.36317
 21
138.415
  0
LINE
  8
0
 10
5.36317
 20
138.415
 11
5.41447
 21
138.474
  0
LINE
  8
0
 10
5.41447
 20
138.474
 11
5.46863
 21
138.531
  0
LINE
  8
0
 10
5.46863
 20
138.531
 11
5.5255
 21
138.586
  0
LINE
  8
0
 10
5.5255
 20
138.586
 11
5.58496
 21
138.637
  0
LINE
  8
0
 10
5.58496
 20
138.637
 11
5.64688
 21
138.685
  0
LINE
  8
0
 10
5.64688
 20
138.685
 11
5.71107
 21
138.73
  0
LINE
  8
0
 10
5.71107
 20
138.73
 11
5.77744
 21
138.772
  0
LINE
  8
0
 10
5.77744
 20
138.772
 11
5.84576
 21
138.811
  0
LINE
  8
0
 10
5.84576
 20
138.811
 11
5.91591
 21
138.846
  0
LINE
  8
0
 10
5.91591
 20
138.846
 11
5.9877
 21
138.878
  0
LINE
  8
0
 10
5.9877
 20
138.878
 11
6.06097
 21
138.906
  0
LINE
  8
0
 10
6.06097
 20
138.906
 11
6.13554
 21
138.931
  0
LINE
  8
0
 10
6.13554
 20
138.931
 11
6.21123
 21
138.952
  0
LINE
  8
0
 10
6.21123
 20
138.952
 11
6.28784
 21
138.969
  0
LINE
  8
0
 10
6.28784
 20
138.969
 11
6.36522
 21
138.983
  0
LINE
  8
0
 10
6.36522
 20
138.983
 11
6.44316
 21
138.992
  0
LINE
  8
0
 10
6.44316
 20
138.992
 11
6.52148
 21
138.998
  0
LINE
  8
0
 10
6.52148
 20
138.998
 11
6.59999
 21
139
  0
LINE
  8
0
 10
6.59999
 20
139
 11
6.6785
 21
138.998
  0
LINE
  8
0
 10
6.6785
 20
138.998
 11
6.75682
 21
138.992
  0
LINE
  8
0
 10
6.75682
 20
138.992
 11
6.83476
 21
138.983
  0
LINE
  8
0
 10
6.83476
 20
138.983
 11
6.91214
 21
138.969
  0
LINE
  8
0
 10
6.91214
 20
138.969
 11
6.98875
 21
138.952
  0
LINE
  8
0
 10
6.98875
 20
138.952
 11
7.06445
 21
138.931
  0
LINE
  8
0
 10
7.06445
 20
138.931
 11
7.13902
 21
138.906
  0
LINE
  8
0
 10
7.13902
 20
138.906
 11
7.21228
 21
138.878
  0
LINE
  8
0
 10
7.21228
 20
138.878
 11
7.28409
 21
138.846
  0
LINE
  8
0
 10
7.28409
 20
138.846
 11
7.35423
 21
138.811
  0
LINE
  8
0
 10
7.35423
 20
138.811
 11
7.42256
 21
138.772
  0
LINE
  8
0
 10
7.42256
 20
138.772
 11
7.48891
 21
138.73
  0
LINE
  8
0
 10
7.48891
 20
138.73
 11
7.55312
 21
138.685
  0
LINE
  8
0
 10
7.55312
 20
138.685
 11
7.61502
 21
138.637
  0
LINE
  8
0
 10
7.61502
 20
138.637
 11
7.67448
 21
138.586
  0
LINE
  8
0
 10
7.67448
 20
138.586
 11
7.73137
 21
138.531
  0
LINE
  8
0
 10
7.73137
 20
138.531
 11
7.78551
 21
138.474
  0
LINE
  8
0
 10
7.78551
 20
138.474
 11
7.83681
 21
138.415
  0
LINE
  8
0
 10
7.83681
 20
138.415
 11
7.88513
 21
138.353
  0
LINE
  8
0
 10
7.88513
 20
138.353
 11
7.93034
 21
138.289
  0
LINE
  8
0
 10
7.93034
 20
138.289
 11
7.97235
 21
138.223
  0
LINE
  8
0
 10
7.97235
 20
138.223
 11
8.01106
 21
138.154
  0
LINE
  8
0
 10
8.01106
 20
138.154
 11
8.04637
 21
138.084
  0
LINE
  8
0
 10
8.04637
 20
138.084
 11
8.0782
 21
138.012
  0
LINE
  8
0
 10
8.0782
 20
138.012
 11
8.10646
 21
137.939
  0
LINE
  8
0
 10
8.10646
 20
137.939
 11
8.1311
 21
137.864
  0
LINE
  8
0
 10
8.1311
 20
137.864
 11
8.15204
 21
137.789
  0
LINE
  8
0
 10
8.15204
 20
137.789
 11
8.16925
 21
137.712
  0
LINE
  8
0
 10
8.16925
 20
137.712
 11
8.18268
 21
137.635
  0
LINE
  8
0
 10
8.18268
 20
137.635
 11
8.19229
 21
137.557
  0
LINE
  8
0
 10
8.19229
 20
137.557
 11
8.19806
 21
137.479
  0
LINE
  8
0
 10
8.19806
 20
137.479
 11
8.2
 21
137.4
  0
LINE
  8
0
 10
8.2
 20
137.4
 11
8.19806
 21
137.321
  0
LINE
  8
0
 10
8.19806
 20
137.321
 11
8.19229
 21
137.243
  0
LINE
  8
0
 10
8.19229
 20
137.243
 11
8.18268
 21
137.165
  0
LINE
  8
0
 10
8.18268
 20
137.165
 11
8.16925
 21
137.088
  0
LINE
  8
0
 10
8.16925
 20
137.088
 11
8.15204
 21
137.011
  0
LINE
  8
0
 10
8.15204
 20
137.011
 11
8.1311
 21
136.936
  0
LINE
  8
0
 10
8.1311
 20
136.936
 11
8.10646
 21
136.861
  0
LINE
  8
0
 10
8.10646
 20
136.861
 11
8.0782
 21
136.788
  0
LINE
  8
0
 10
8.0782
 20
136.788
 11
8.04637
 21
136.716
  0
LINE
  8
0
 10
8.04637
 20
136.716
 11
8.01106
 21
136.646
  0
LINE
  8
0
 10
8.01106
 20
136.646
 11
7.97235
 21
136.577
  0
LINE
  8
0
 10
7.97235
 20
136.577
 11
7.93034
 21
136.511
  0
LINE
  8
0
 10
7.93034
 20
136.511
 11
7.88513
 21
136.447
  0
LINE
  8
0
 10
7.88513
 20
136.447
 11
7.83681
 21
136.385
  0
LINE
  8
0
 10
7.83681
 20
136.385
 11
7.78551
 21
136.326
  0
LINE
  8
0
 10
7.78551
 20
136.326
 11
7.73137
 21
136.269
  0
LINE
  8
0
 10
7.73137
 20
136.269
 11
7.67448
 21
136.214
  0
LINE
  8
0
 10
7.67448
 20
136.214
 11
7.61502
 21
136.163
  0
LINE
  8
0
 10
7.61502
 20
136.163
 11
7.55312
 21
136.115
  0
LINE
  8
0
 10
7.55312
 20
136.115
 11
7.48891
 21
136.07
  0
LINE
  8
0
 10
7.48891
 20
136.07
 11
7.42256
 21
136.028
  0
LINE
  8
0
 10
7.42256
 20
136.028
 11
7.35423
 21
135.989
  0
LINE
  8
0
 10
7.35423
 20
135.989
 11
7.28409
 21
135.954
  0
LINE
  8
0
 10
7.28409
 20
135.954
 11
7.21228
 21
135.922
  0
LINE
  8
0
 10
7.21228
 20
135.922
 11
7.13902
 21
135.894
  0
LINE
  8
0
 10
7.13902
 20
135.894
 11
7.06445
 21
135.869
  0
LINE
  8
0
 10
7.06445
 20
135.869
 11
6.98875
 21
135.848
  0
LINE
  8
0
 10
6.98875
 20
135.848
 11
6.91214
 21
135.831
  0
LINE
  8
0
 10
6.91214
 20
135.831
 11
6.83476
 21
135.817
  0
LINE
  8
0
 10
6.83476
 20
135.817
 11
6.75682
 21
135.808
  0
LINE
  8
0
 10
6.75682
 20
135.808
 11
6.6785
 21
135.802
  0
LINE
  8
0
 10
6.6785
 20
135.802
 11
6.59999
 21
135.8
  0
LINE
  8
0
 10
6.59999
 20
135.8
 11
6.52148
 21
135.802
  0
LINE
  8
0
 10
85.3215
 20
56.8019
 11
85.2432
 21
56.8077
  0
LINE
  8
0
 10
85.2432
 20
56.8077
 11
85.1652
 21
56.8173
  0
LINE
  8
0
 10
85.1652
 20
56.8173
 11
85.0878
 21
56.8307
  0
LINE
  8
0
 10
85.0878
 20
56.8307
 11
85.0112
 21
56.8479
  0
LINE
  8
0
 10
85.0112
 20
56.8479
 11
84.9355
 21
56.8689
  0
LINE
  8
0
 10
84.9355
 20
56.8689
 11
84.861
 21
56.8935
  0
LINE
  8
0
 10
84.861
 20
56.8935
 11
84.7877
 21
56.9218
  0
LINE
  8
0
 10
84.7877
 20
56.9218
 11
84.7159
 21
56.9536
  0
LINE
  8
0
 10
84.7159
 20
56.9536
 11
84.6458
 21
56.9889
  0
LINE
  8
0
 10
84.6458
 20
56.9889
 11
84.5774
 21
57.0276
  0
LINE
  8
0
 10
84.5774
 20
57.0276
 11
84.5111
 21
57.0696
  0
LINE
  8
0
 10
84.5111
 20
57.0696
 11
84.4469
 21
57.1149
  0
LINE
  8
0
 10
84.4469
 20
57.1149
 11
84.385
 21
57.1632
  0
LINE
  8
0
 10
84.385
 20
57.1632
 11
84.3255
 21
57.2145
  0
LINE
  8
0
 10
84.3255
 20
57.2145
 11
84.2686
 21
57.2686
  0
LINE
  8
0
 10
84.2686
 20
57.2686
 11
84.2145
 21
57.3255
  0
LINE
  8
0
 10
84.2145
 20
57.3255
 11
84.1632
 21
57.385
  0
LINE
  8
0
 10
84.1632
 20
57.385
 11
84.1149
 21
57.4469
  0
LINE
  8
0
 10
84.1149
 20
57.4469
 11
84.0696
 21
57.5111
  0
LINE
  8
0
 10
84.0696
 20
57.5111
 11
84.0276
 21
57.5774
  0
LINE
  8
0
 10
84.0276
 20
57.5774
 11
83.9889
 21
57.6458
  0
LINE
  8
0
 10
83.9889
 20
57.6458
 11
83.9536
 21
57.7159
  0
LINE
  8
0
 10
83.9536
 20
57.7159
 11
83.9218
 21
57.7877
  0
LINE
  8
0
 10
83.9218
 20
57.7877
 11
83.8935
 21
57.861
  0
LINE
  8
0
 10
83.8935
 20
57.861
 11
83.8689
 21
57.9355
  0
LINE
  8
0
 10
83.8689
 20
57.9355
 11
83.8479
 21
58.0112
  0
LINE
  8
0
 10
83.8479
 20
58.0112
 11
83.8307
 21
58.0878
  0
LINE
  8
0
 10
83.8307
 20
58.0878
 11
83.8173
 21
58.1652
  0
LINE
  8
0
 10
83.8173
 20
58.1652
 11
83.8077
 21
58.2432
  0
LINE
  8
0
 10
83.8077
 20
58.2432
 11
83.8019
 21
58.3215
  0
LINE
  8
0
 10
83.8019
 20
58.3215
 11
83.8
 21
58.4
  0
LINE
  8
0
 10
83.8
 20
58.4
 11
83.8019
 21
58.4785
  0
LINE
  8
0
 10
83.8019
 20
58.4785
 11
83.8077
 21
58.5568
  0
LINE
  8
0
 10
83.8077
 20
58.5568
 11
83.8173
 21
58.6348
  0
LINE
  8
0
 10
83.8173
 20
58.6348
 11
83.8307
 21
58.7121
  0
LINE
  8
0
 10
83.8307
 20
58.7121
 11
83.8479
 21
58.7888
  0
LINE
  8
0
 10
83.8479
 20
58.7888
 11
83.8689
 21
58.8644
  0
LINE
  8
0
 10
83.8689
 20
58.8644
 11
83.8935
 21
58.939
  0
LINE
  8
0
 10
83.8935
 20
58.939
 11
83.9218
 21
59.0123
  0
LINE
  8
0
 10
83.9218
 20
59.0123
 11
83.9536
 21
59.0841
  0
LINE
  8
0
 10
83.9536
 20
59.0841
 11
83.9889
 21
59.1542
  0
LINE
  8
0
 10
83.9889
 20
59.1542
 11
84.0276
 21
59.2225
  0
LINE
  8
0
 10
84.0276
 20
59.2225
 11
84.0696
 21
59.2889
  0
LINE
  8
0
 10
84.0696
 20
59.2889
 11
84.1149
 21
59.3531
  0
LINE
  8
0
 10
84.1149
 20
59.3531
 11
84.1632
 21
59.415
  0
LINE
  8
0
 10
84.1632
 20
59.415
 11
84.2145
 21
59.4745
  0
LINE
  8
0
 10
84.2145
 20
59.4745
 11
84.2686
 21
59.5314
  0
LINE
  8
0
 10
84.2686
 20
59.5314
 11
84.3255
 21
59.5855
  0
LINE
  8
0
 10
84.3255
 20
59.5855
 11
84.385
 21
59.6368
  0
LINE
  8
0
 10
84.385
 20
59.6368
 11
84.4469
 21
59.6851
  0
LINE
  8
0
 10
84.4469
 20
59.6851
 11
84.5111
 21
59.7303
  0
LINE
  8
0
 10
84.5111
 20
59.7303
 11
84.5774
 21
59.7724
  0
LINE
  8
0
 10
84.5774
 20
59.7724
 11
84.6458
 21
59.8111
  0
LINE
  8
0
 10
84.6458
 20
59.8111
 11
84.7159
 21
59.8464
  0
LINE
  8
0
 10
84.7159
 20
59.8464
 11
84.7877
 21
59.8782
  0
LINE
  8
0
 10
84.7877
 20
59.8782
 11
84.861
 21
59.9065
  0
LINE
  8
0
 10
84.861
 20
59.9065
 11
84.9355
 21
59.9311
  0
LINE
  8
0
 10
84.9355
 20
59.9311
 11
85.0112
 21
59.952
  0
LINE
  8
0
 10
85.0112
 20
59.952
 11
85.0878
 21
59.9693
  0
LINE
  8
0
 10
85.0878
 20
59.9693
 11
85.1652
 21
59.9827
  0
LINE
  8
0
 10
85.1652
 20
59.9827
 11
85.2432
 21
59.9923
  0
LINE
  8
0
 10
85.2432
 20
59.9923
 11
85.3215
 21
59.9981
  0
LINE
  8
0
 10
85.3215
 20
59.9981
 11
85.4
 21
60
  0
LINE
  8
0
 10
85.4
 20
60
 11
85.4785
 21
59.9981
  0
LINE
  8
0
 10
85.4785
 20
59.9981
 11
85.5568
 21
59.9923
  0
LINE
  8
0
 10
85.5568
 20
59.9923
 11
85.6348
 21
59.9827
  0
LINE
  8
0
 10
85.6348
 20
59.9827
 11
85.7121
 21
59.9693
  0
LINE
  8
0
 10
85.7121
 20
59.9693
 11
85.7888
 21
59.952
  0
LINE
  8
0
 10
85.7888
 20
59.952
 11
85.8644
 21
59.9311
  0
LINE
  8
0
 10
85.8644
 20
59.9311
 11
85.939
 21
59.9065
  0
LINE
  8
0
 10
85.939
 20
59.9065
 11
86.0123
 21
59.8782
  0
LINE
  8
0
 10
86.0123
 20
59.8782
 11
86.0841
 21
59.8464
  0
LINE
  8
0
 10
86.0841
 20
59.8464
 11
86.1542
 21
59.8111
  0
LINE
  8
0
 10
86.1542
 20
59.8111
 11
86.2225
 21
59.7724
  0
LINE
  8
0
 10
86.2225
 20
59.7724
 11
86.2889
 21
59.7303
  0
LINE
  8
0
 10
86.2889
 20
59.7303
 11
86.3531
 21
59.6851
  0
LINE
  8
0
 10
86.3531
 20
59.6851
 11
86.415
 21
59.6368
  0
LINE
  8
0
 10
86.415
 20
59.6368
 11
86.4745
 21
59.5855
  0
LINE
  8
0
 10
86.4745
 20
59.5855
 11
86.5314
 21
59.5314
  0
LINE
  8
0
 10
86.5314
 20
59.5314
 11
86.5855
 21
59.4745
  0
LINE
  8
0
 10
86.5855
 20
59.4745
 11
86.6368
 21
59.415
  0
LINE
  8
0
 10
86.6368
 20
59.415
 11
86.6851
 21
59.3531
  0
LINE
  8
0
 10
86.6851
 20
59.3531
 11
86.7303
 21
59.2889
  0
LINE
  8
0
 10
86.7303
 20
59.2889
 11
86.7724
 21
59.2225
  0
LINE
  8
0
 10
86.7724
 20
59.2225
 11
86.8111
 21
59.1542
  0
LINE
  8
0
 10
86.8111
 20
59.1542
 11
86.8464
 21
59.0841
  0
LINE
  8
0
 10
86.8464
 20
59.0841
 11
86.8782
 21
59.0123
  0
LINE
  8
0
 10
86.8782
 20
59.0123
 11
86.9065
 21
58.939
  0
LINE
  8
0
 10
86.9065
 20
58.939
 11
86.9311
 21
58.8644
  0
LINE
  8
0
 10
86.9311
 20
58.8644
 11
86.952
 21
58.7888
  0
LINE
  8
0
 10
86.952
 20
58.7888
 11
86.9693
 21
58.7121
  0
LINE
  8
0
 10
86.9693
 20
58.7121
 11
86.9827
 21
58.6348
  0
LINE
  8
0
 10
86.9827
 20
58.6348
 11
86.9923
 21
58.5568
  0
LINE
  8
0
 10
86.9923
 20
58.5568
 11
86.9981
 21
58.4785
  0
LINE
  8
0
 10
86.9981
 20
58.4785
 11
87
 21
58.4
  0
LINE
  8
0
 10
87
 20
58.4
 11
86.9981
 21
58.3215
  0
LINE
  8
0
 10
86.9981
 20
58.3215
 11
86.9923
 21
58.2432
  0
LINE
  8
0
 10
86.9923
 20
58.2432
 11
86.9827
 21
58.1652
  0
LINE
  8
0
 10
86.9827
 20
58.1652
 11
86.9693
 21
58.0878
  0
LINE
  8
0
 10
86.9693
 20
58.0878
 11
86.952
 21
58.0112
  0
LINE
  8
0
 10
86.952
 20
58.0112
 11
86.9311
 21
57.9355
  0
LINE
  8
0
 10
86.9311
 20
57.9355
 11
86.9065
 21
57.861
  0
LINE
  8
0
 10
86.9065
 20
57.861
 11
86.8782
 21
57.7877
  0
LINE
  8
0
 10
86.8782
 20
57.7877
 11
86.8464
 21
57.7159
  0
LINE
  8
0
 10
86.8464
 20
57.7159
 11
86.8111
 21
57.6458
  0
LINE
  8
0
 10
86.8111
 20
57.6458
 11
86.7724
 21
57.5774
  0
LINE
  8
0
 10
86.7724
 20
57.5774
 11
86.7303
 21
57.5111
  0
LINE
  8
0
 10
86.7303
 20
57.5111
 11
86.6851
 21
57.4469
  0
LINE
  8
0
 10
86.6851
 20
57.4469
 11
86.6368
 21
57.385
  0
LINE
  8
0
 10
86.6368
 20
57.385
 11
86.5855
 21
57.3255
  0
LINE
  8
0
 10
86.5855
 20
57.3255
 11
86.5314
 21
57.2686
  0
LINE
  8
0
 10
86.5314
 20
57.2686
 11
86.4745
 21
57.2145
  0
LINE
  8
0
 10
86.4745
 20
57.2145
 11
86.415
 21
57.1632
  0
LINE
  8
0
 10
86.415
 20
57.1632
 11
86.3531
 21
57.1149
  0
LINE
  8
0
 10
86.3531
 20
57.1149
 11
86.2889
 21
57.0696
  0
LINE
  8
0
 10
86.2889
 20
57.0696
 11
86.2225
 21
57.0276
  0
LINE
  8
0
 10
86.2225
 20
57.0276
 11
86.1542
 21
56.9889
  0
LINE
  8
0
 10
86.1542
 20
56.9889
 11
86.0841
 21
56.9536
  0
LINE
  8
0
 10
86.0841
 20
56.9536
 11
86.0123
 21
56.9218
  0
LINE
  8
0
 10
86.0123
 20
56.9218
 11
85.939
 21
56.8935
  0
LINE
  8
0
 10
85.939
 20
56.8935
 11
85.8644
 21
56.8689
  0
LINE
  8
0
 10
85.8644
 20
56.8689
 11
85.7888
 21
56.8479
  0
LINE
  8
0
 10
85.7888
 20
56.8479
 11
85.7121
 21
56.8307
  0
LINE
  8
0
 10
85.7121
 20
56.8307
 11
85.6348
 21
56.8173
  0
LINE
  8
0
 10
85.6348
 20
56.8173
 11
85.5568
 21
56.8077
  0
LINE
  8
0
 10
85.5568
 20
56.8077
 11
85.4785
 21
56.8019
  0
LINE
  8
0
 10
85.4785
 20
56.8019
 11
85.4
 21
56.8
  0
LINE
  8
0
 10
85.4
 20
56.8
 11
85.3215
 21
56.8019
  0
LINE
  8
0
 10
1.52148
 20
0.00192261
 11
1.44316
 21
0.00769043
  0
LINE
  8
0
 10
1.44316
 20
0.00769043
 11
1.36522
 21
0.0173035
  0
LINE
  8
0
 10
1.36522
 20
0.0173035
 11
1.28784
 21
0.0307312
  0
LINE
  8
0
 10
1.28784
 20
0.0307312
 11
1.21123
 21
0.0479431
  0
LINE
  8
0
 10
1.21123
 20
0.0479431
 11
1.13554
 21
0.0688934
  0
LINE
  8
0
 10
1.13554
 20
0.0688934
 11
1.06097
 21
0.0935211
  0
LINE
  8
0
 10
1.06097
 20
0.0935211
 11
0.987701
 21
0.12178
  0
LINE
  8
0
 10
0.987701
 20
0.12178
 11
0.915909
 21
0.15361
  0
LINE
  8
0
 10
0.915909
 20
0.15361
 11
0.845764
 21
0.188919
  0
LINE
  8
0
 10
0.845764
 20
0.188919
 11
0.777435
 21
0.227631
  0
LINE
  8
0
 10
0.777435
 20
0.227631
 11
0.711075
 21
0.269638
  0
LINE
  8
0
 10
0.711075
 20
0.269638
 11
0.646881
 21
0.314865
  0
LINE
  8
0
 10
0.646881
 20
0.314865
 11
0.584961
 21
0.363174
  0
LINE
  8
0
 10
0.584961
 20
0.363174
 11
0.525497
 21
0.414474
  0
LINE
  8
0
 10
0.525497
 20
0.414474
 11
0.468628
 21
0.468628
  0
LINE
  8
0
 10
0.468628
 20
0.468628
 11
0.414474
 21
0.525497
  0
LINE
  8
0
 10
0.414474
 20
0.525497
 11
0.363174
 21
0.584961
  0
LINE
  8
0
 10
0.363174
 20
0.584961
 11
0.314865
 21
0.646881
  0
LINE
  8
0
 10
0.314865
 20
0.646881
 11
0.269638
 21
0.711075
  0
LINE
  8
0
 10
0.269638
 20
0.711075
 11
0.227631
 21
0.777435
  0
LINE
  8
0
 10
0.227631
 20
0.777435
 11
0.188919
 21
0.845764
  0
LINE
  8
0
 10
0.188919
 20
0.845764
 11
0.15361
 21
0.915909
  0
LINE
  8
0
 10
0.15361
 20
0.915909
 11
0.12178
 21
0.987701
  0
LINE
  8
0
 10
0.12178
 20
0.987701
 11
0.0935211
 21
1.06097
  0
LINE
  8
0
 10
0.0935211
 20
1.06097
 11
0.0688934
 21
1.13554
  0
LINE
  8
0
 10
0.0688934
 20
1.13554
 11
0.0479431
 21
1.21123
  0
LINE
  8
0
 10
0.0479431
 20
1.21123
 11
0.0307312
 21
1.28784
  0
LINE
  8
0
 10
0.0307312
 20
1.28784
 11
0.0173035
 21
1.36522
  0
LINE
  8
0
 10
0.0173035
 20
1.36522
 11
0.00769043
 21
1.44316
  0
LINE
  8
0
 10
0.00769043
 20
1.44316
 11
0.00192261
 21
1.52148
  0
LINE
  8
0
 10
0.00192261
 20
1.52148
 11
0
 21
1.59999
  0
LINE
  8
0
 10
0
 20
1.59999
 11
0.00192261
 21
1.6785
  0
LINE
  8
0
 10
0.00192261
 20
1.6785
 11
0.00769043
 21
1.75682
  0
LINE
  8
0
 10
0.00769043
 20
1.75682
 11
0.0173035
 21
1.83476
  0
LINE
  8
0
 10
0.0173035
 20
1.83476
 11
0.0307312
 21
1.91214
  0
LINE
  8
0
 10
0.0307312
 20
1.91214
 11
0.0479431
 21
1.98875
  0
LINE
  8
0
 10
0.0479431
 20
1.98875
 11
0.0688934
 21
2.06445
  0
LINE
  8
0
 10
0.0688934
 20
2.06445
 11
0.0935211
 21
2.13902
  0
LINE
  8
0
 10
0.0935211
 20
2.13902
 11
0.12178
 21
2.21228
  0
LINE
  8
0
 10
0.12178
 20
2.21228
 11
0.15361
 21
2.28409
  0
LINE
  8
0
 10
0.15361
 20
2.28409
 11
0.188919
 21
2.35423
  0
LINE
  8
0
 10
0.188919
 20
2.35423
 11
0.227631
 21
2.42256
  0
LINE
  8
0
 10
0.227631
 20
2.42256
 11
0.269638
 21
2.48891
  0
LINE
  8
0
 10
0.269638
 20
2.48891
 11
0.314865
 21
2.55312
  0
LINE
  8
0
 10
0.314865
 20
2.55312
 11
0.363174
 21
2.61502
  0
LINE
  8
0
 10
0.363174
 20
2.61502
 11
0.414474
 21
2.67448
  0
LINE
  8
0
 10
0.414474
 20
2.67448
 11
0.468628
 21
2.73137
  0
LINE
  8
0
 10
0.468628
 20
2.73137
 11
0.525497
 21
2.78551
  0
LINE
  8
0
 10
0.525497
 20
2.78551
 11
0.584961
 21
2.83681
  0
LINE
  8
0
 10
0.584961
 20
2.83681
 11
0.646881
 21
2.88513
  0
LINE
  8
0
 10
0.646881
 20
2.88513
 11
0.711075
 21
2.93034
  0
LINE
  8
0
 10
0.711075
 20
2.93034
 11
0.777435
 21
2.97235
  0
LINE
  8
0
 10
0.777435
 20
2.97235
 11
0.845764
 21
3.01106
  0
LINE
  8
0
 10
0.845764
 20
3.01106
 11
0.915909
 21
3.04637
  0
LINE
  8
0
 10
0.915909
 20
3.04637
 11
0.987701
 21
3.0782
  0
LINE
  8
0
 10
0.987701
 20
3.0782
 11
1.06097
 21
3.10646
  0
LINE
  8
0
 10
1.06097
 20
3.10646
 11
1.13554
 21
3.1311
  0
LINE
  8
0
 10
1.13554
 20
3.1311
 11
1.21123
 21
3.15204
  0
LINE
  8
0
 10
1.21123
 20
3.15204
 11
1.28784
 21
3.16925
  0
LINE
  8
0
 10
1.28784
 20
3.16925
 11
1.36522
 21
3.18268
  0
LINE
  8
0
 10
1.36522
 20
3.18268
 11
1.44316
 21
3.19229
  0
LINE
  8
0
 10
1.44316
 20
3.19229
 11
1.52148
 21
3.19806
  0
LINE
  8
0
 10
1.52148
 20
3.19806
 11
1.59999
 21
3.2
  0
LINE
  8
0
 10
1.59999
 20
3.2
 11
1.6785
 21
3.19806
  0
LINE
  8
0
 10
1.6785
 20
3.19806
 11
1.75682
 21
3.19229
  0
LINE
  8
0
 10
1.75682
 20
3.19229
 11
1.83476
 21
3.18268
  0
LINE
  8
0
 10
1.83476
 20
3.18268
 11
1.91214
 21
3.16925
  0
LINE
  8
0
 10
1.91214
 20
3.16925
 11
1.98875
 21
3.15204
  0
LINE
  8
0
 10
1.98875
 20
3.15204
 11
2.06445
 21
3.1311
  0
LINE
  8
0
 10
2.06445
 20
3.1311
 11
2.13902
 21
3.10646
  0
LINE
  8
0
 10
2.13902
 20
3.10646
 11
2.21228
 21
3.0782
  0
LINE
  8
0
 10
2.21228
 20
3.0782
 11
2.28409
 21
3.04637
  0
LINE
  8
0
 10
2.28409
 20
3.04637
 11
2.35423
 21
3.01106
  0
LINE
  8
0
 10
2.35423
 20
3.01106
 11
2.42256
 21
2.97235
  0
LINE
  8
0
 10
2.42256
 20
2.97235
 11
2.48891
 21
2.93034
  0
LINE
  8
0
 10
2.48891
 20
2.93034
 11
2.55312
 21
2.88513
  0
LINE
  8
0
 10
2.55312
 20
2.88513
 11
2.61502
 21
2.83681
  0
LINE
  8
0
 10
2.61502
 20
2.83681
 11
2.67448
 21
2.78551
  0
LINE
  8
0
 10
2.67448
 20
2.78551
 11
2.73137
 21
2.73137
  0
LINE
  8
0
 10
2.73137
 20
2.73137
 11
2.78551
 21
2.67448
  0
LINE
  8
0
 10
2.78551
 20
2.67448
 11
2.83681
 21
2.61502
  0
LINE
  8
0
 10
2.83681
 20
2.61502
 11
2.88513
 21
2.55312
  0
LINE
  8
0
 10
2.88513
 20
2.55312
 11
2.93034
 21
2.48891
  0
LINE
  8
0
 10
2.93034
 20
2.48891
 11
2.97235
 21
2.42256
  0
LINE
  8
0
 10
2.97235
 20
2.42256
 11
3.01106
 21
2.35423
  0
LINE
  8
0
 10
3.01106
 20
2.35423
 11
3.04637
 21
2.28409
  0
LINE
  8
0
 10
3.04637
 20
2.28409
 11
3.0782
 21
2.21228
  0
LINE
  8
0
 10
3.0782
 20
2.21228
 11
3.10646
 21
2.13902
  0
LINE
  8
0
 10
3.10646
 20
2.13902
 11
3.1311
 21
2.06445
  0
LINE
  8
0
 10
3.1311
 20
2.06445
 11
3.15204
 21
1.98875
  0
LINE
  8
0
 10
3.15204
 20
1.98875
 11
3.16925
 21
1.91214
  0
LINE
  8
0
 10
3.16925
 20
1.91214
 11
3.18268
 21
1.83476
  0
LINE
  8
0
 10
3.18268
 20
1.83476
 11
3.19229
 21
1.75682
  0
LINE
  8
0
 10
3.19229
 20
1.75682
 11
3.19806
 21
1.6785
  0
LINE
  8
0
 10
3.19806
 20
1.6785
 11
3.2
 21
1.59999
  0
LINE
  8
0
 10
3.2
 20
1.59999
 11
3.19806
 21
1.52148
  0
LINE
  8
0
 10
3.19806
 20
1.52148
 11
3.19229
 21
1.44316
  0
LINE
  8
0
 10
3.19229
 20
1.44316
 11
3.18268
 21
1.36522
  0
LINE
  8
0
 10
3.18268
 20
1.36522
 11
3.16925
 21
1.28784
  0
LINE
  8
0
 10
3.16925
 20
1.28784
 11
3.15204
 21
1.21123
  0
LINE
  8
0
 10
3.15204
 20
1.21123
 11
3.1311
 21
1.13554
  0
LINE
  8
0
 10
3.1311
 20
1.13554
 11
3.10646
 21
1.06097
  0
LINE
  8
0
 10
3.10646
 20
1.06097
 11
3.0782
 21
0.987701
  0
LINE
  8
0
 10
3.0782
 20
0.987701
 11
3.04637
 21
0.915909
  0
LINE
  8
0
 10
3.04637
 20
0.915909
 11
3.01106
 21
0.845764
  0
LINE
  8
0
 10
3.01106
 20
0.845764
 11
2.97235
 21
0.777435
  0
LINE
  8
0
 10
2.97235
 20
0.777435
 11
2.93034
 21
0.711075
  0
LINE
  8
0
 10
2.93034
 20
0.711075
 11
2.88513
 21
0.646881
  0
LINE
  8
0
 10
2.88513
 20
0.646881
 11
2.83681
 21
0.584961
  0
LINE
  8
0
 10
2.83681
 20
0.584961
 11
2.78551
 21
0.525497
  0
LINE
  8
0
 10
2.78551
 20
0.525497
 11
2.73137
 21
0.468628
  0
LINE
  8
0
 10
2.73137
 20
0.468628
 11
2.67448
 21
0.414474
  0
LINE
  8
0
 10
2.67448
 20
0.414474
 11
2.61502
 21
0.363174
  0
LINE
  8
0
 10
2.61502
 20
0.363174
 11
2.55312
 21
0.314865
  0
LINE
  8
0
 10
2.55312
 20
0.314865
 11
2.48891
 21
0.269638
  0
LINE
  8
0
 10
2.48891
 20
0.269638
 11
2.42256
 21
0.227631
  0
LINE
  8
0
 10
2.42256
 20
0.227631
 11
2.35423
 21
0.188919
  0
LINE
  8
0
 10
2.35423
 20
0.188919
 11
2.28409
 21
0.15361
  0
LINE
  8
0
 10
2.28409
 20
0.15361
 11
2.21228
 21
0.12178
  0
LINE
  8
0
 10
2.21228
 20
0.12178
 11
2.13902
 21
0.0935211
  0
LINE
  8
0
 10
2.13902
 20
0.0935211
 11
2.06445
 21
0.0688934
  0
LINE
  8
0
 10
2.06445
 20
0.0688934
 11
1.98875
 21
0.0479431
  0
LINE
  8
0
 10
1.98875
 20
0.0479431
 11
1.91214
 21
0.0307312
  0
LINE
  8
0
 10
1.91214
 20
0.0307312
 11
1.83476
 21
0.0173035
  0
LINE
  8
0
 10
1.83476
 20
0.0173035
 11
1.75682
 21
0.00769043
  0
LINE
  8
0
 10
1.75682
 20
0.00769043
 11
1.6785
 21
0.00192261
  0
LINE
  8
0
 10
1.6785
 20
0.00192261
 11
1.59999
 21
0
  0
LINE
  8
0
 10
1.59999
 20
0
 11
1.52148
 21
0.00192261
  0
LINE
  8
0
 10
86.3215
 20
0.00192261
 11
86.2432
 21
0.00769043
  0
LINE
  8
0
 10
86.2432
 20
0.00769043
 11
86.1652
 21
0.0173035
  0
LINE
  8
0
 10
86.1652
 20
0.0173035
 11
86.0878
 21
0.0307312
  0
LINE
  8
0
 10
86.0878
 20
0.0307312
 11
86.0112
 21
0.0479431
  0
LINE
  8
0
 10
86.0112
 20
0.0479431
 11
85.9355
 21
0.0688934
  0
LINE
  8
0
 10
85.9355
 20
0.0688934
 11
85.861
 21
0.0935211
  0
LINE
  8
0
 10
85.861
 20
0.0935211
 11
85.7877
 21
0.12178
  0
LINE
  8
0
 10
85.7877
 20
0.12178
 11
85.7159
 21
0.15361
  0
LINE
  8
0
 10
85.7159
 20
0.15361
 11
85.6458
 21
0.188919
  0
LINE
  8
0
 10
85.6458
 20
0.188919
 11
85.5774
 21
0.227631
  0
LINE
  8
0
 10
85.5774
 20
0.227631
 11
85.5111
 21
0.269638
  0
LINE
  8
0
 10
85.5111
 20
0.269638
 11
85.4469
 21
0.314865
  0
LINE
  8
0
 10
85.4469
 20
0.314865
 11
85.385
 21
0.363174
  0
LINE
  8
0
 10
85.385
 20
0.363174
 11
85.3255
 21
0.414474
  0
LINE
  8
0
 10
85.3255
 20
0.414474
 11
85.2686
 21
0.468628
  0
LINE
  8
0
 10
85.2686
 20
0.468628
 11
85.2145
 21
0.525497
  0
LINE
  8
0
 10
85.2145
 20
0.525497
 11
85.1632
 21
0.584961
  0
LINE
  8
0
 10
85.1632
 20
0.584961
 11
85.1149
 21
0.646881
  0
LINE
  8
0
 10
85.1149
 20
0.646881
 11
85.0696
 21
0.711075
  0
LINE
  8
0
 10
85.0696
 20
0.711075
 11
85.0276
 21
0.777435
  0
LINE
  8
0
 10
85.0276
 20
0.777435
 11
84.9889
 21
0.845764
  0
LINE
  8
0
 10
84.9889
 20
0.845764
 11
84.9536
 21
0.915909
  0
LINE
  8
0
 10
84.9536
 20
0.915909
 11
84.9218
 21
0.987701
  0
LINE
  8
0
 10
84.9218
 20
0.987701
 11
84.8935
 21
1.06097
  0
LINE
  8
0
 10
84.8935
 20
1.06097
 11
84.8689
 21
1.13554
  0
LINE
  8
0
 10
84.8689
 20
1.13554
 11
84.8479
 21
1.21123
  0
LINE
  8
0
 10
84.8479
 20
1.21123
 11
84.8307
 21
1.28784
  0
LINE
  8
0
 10
84.8307
 20
1.28784
 11
84.8173
 21
1.36522
  0
LINE
  8
0
 10
84.8173
 20
1.36522
 11
84.8077
 21
1.44316
  0
LINE
  8
0
 10
84.8077
 20
1.44316
 11
84.8019
 21
1.52148
  0
LINE
  8
0
 10
84.8019
 20
1.52148
 11
84.8
 21
1.59999
  0
LINE
  8
0
 10
84.8
 20
1.59999
 11
84.8019
 21
1.6785
  0
LINE
  8
0
 10
84.8019
 20
1.6785
 11
84.8077
 21
1.75682
  0
LINE
  8
0
 10
84.8077
 20
1.75682
 11
84.8173
 21
1.83476
  0
LINE
  8
0
 10
84.8173
 20
1.83476
 11
84.8307
 21
1.91214
  0
LINE
  8
0
 10
84.8307
 20
1.91214
 11
84.8479
 21
1.98875
  0
LINE
  8
0
 10
84.8479
 20
1.98875
 11
84.8689
 21
2.06445
  0
LINE
  8
0
 10
84.8689
 20
2.06445
 11
84.8935
 21
2.13902
  0
LINE
  8
0
 10
84.8935
 20
2.13902
 11
84.9218
 21
2.21228
  0
LINE
  8
0
 10
84.9218
 20
2.21228
 11
84.9536
 21
2.28409
  0
LINE
  8
0
 10
84.9536
 20
2.28409
 11
84.9889
 21
2.35423
  0
LINE
  8
0
 10
84.9889
 20
2.35423
 11
85.0276
 21
2.42256
  0
LINE
  8
0
 10
85.0276
 20
2.42256
 11
85.0696
 21
2.48891
  0
LINE
  8
0
 10
85.0696
 20
2.48891
 11
85.1149
 21
2.55312
  0
LINE
  8
0
 10
85.1149
 20
2.55312
 11
85.1632
 21
2.61502
  0
LINE
  8
0
 10
85.1632
 20
2.61502
 11
85.2145
 21
2.67448
  0
LINE
  8
0
 10
85.2145
 20
2.67448
 11
85.2686
 21
2.73137
  0
LINE
  8
0
 10
85.2686
 20
2.73137
 11
85.3255
 21
2.78551
  0
LINE
  8
0
 10
85.3255
 20
2.78551
 11
85.385
 21
2.83681
  0
LINE
  8
0
 10
85.385
 20
2.83681
 11
85.4469
 21
2.88513
  0
LINE
  8
0
 10
85.4469
 20
2.88513
 11
85.5111
 21
2.93034
  0
LINE
  8
0
 10
85.5111
 20
2.93034
 11
85.5774
 21
2.97235
  0
LINE
  8
0
 10
85.5774
 20
2.97235
 11
85.6458
 21
3.01106
  0
LINE
  8
0
 10
85.6458
 20
3.01106
 11
85.7159
 21
3.04637
  0
LINE
  8
0
 10
85.7159
 20
3.04637
 11
85.7877
 21
3.0782
  0
LINE
  8
0
 10
85.7877
 20
3.0782
 11
85.861
 21
3.10646
  0
LINE
  8
0
 10
85.861
 20
3.10646
 11
85.9355
 21
3.1311
  0
LINE
  8
0
 10
85.9355
 20
3.1311
 11
86.0112
 21
3.15204
  0
LINE
  8
0
 10
86.0112
 20
3.15204
 11
86.0878
 21
3.16925
  0
LINE
  8
0
 10
86.0878
 20
3.16925
 11
86.1652
 21
3.18268
  0
LINE
  8
0
 10
86.1652
 20
3.18268
 11
86.2432
 21
3.19229
  0
LINE
  8
0
 10
86.2432
 20
3.19229
 11
86.3215
 21
3.19806
  0
LINE
  8
0
 10
86.3215
 20
3.19806
 11
86.4
 21
3.2
  0
LINE
  8
0
 10
86.4
 20
3.2
 11
86.4785
 21
3.19806
  0
LINE
  8
0
 10
86.4785
 20
3.19806
 11
86.5568
 21
3.19229
  0
LINE
  8
0
 10
86.5568
 20
3.19229
 11
86.6348
 21
3.18268
  0
LINE
  8
0
 10
86.6348
 20
3.18268
 11
86.7121
 21
3.16925
  0
LINE
  8
0
 10
86.7121
 20
3.16925
 11
86.7888
 21
3.15204
  0
LINE
  8
0
 10
86.7888
 20
3.15204
 11
86.8644
 21
3.1311
  0
LINE
  8
0
 10
86.8644
 20
3.1311
 11
86.939
 21
3.10646
  0
LINE
  8
0
 10
86.939
 20
3.10646
 11
87.0123
 21
3.0782
  0
LINE
  8
0
 10
87.0123
 20
3.0782
 11
87.0841
 21
3.04637
  0
LINE
  8
0
 10
87.0841
 20
3.04637
 11
87.1542
 21
3.01106
  0
LINE
  8
0
 10
87.1542
 20
3.01106
 11
87.2225
 21
2.97235
  0
LINE
  8
0
 10
87.2225
 20
2.97235
 11
87.2889
 21
2.93034
  0
LINE
  8
0
 10
87.2889
 20
2.93034
 11
87.3531
 21
2.88513
  0
LINE
  8
0
 10
87.3531
 20
2.88513
 11
87.415
 21
2.83681
  0
LINE
  8
0
 10
87.415
 20
2.83681
 11
87.4745
 21
2.78551
  0
LINE
  8
0
 10
87.4745
 20
2.78551
 11
87.5314
 21
2.73137
  0
LINE
  8
0
 10
87.5314
 20
2.73137
 11
87.5855
 21
2.67448
  0
LINE
  8
0
 10
87.5855
 20
2.67448
 11
87.6368
 21
2.61502
  0
LINE
  8
0
 10
87.6368
 20
2.61502
 11
87.6851
 21
2.55312
  0
LINE
  8
0
 10
87.6851
 20
2.55312
 11
87.7303
 21
2.48891
  0
LINE
  8
0
 10
87.7303
 20
2.48891
 11
87.7724
 21
2.42256
  0
LINE
  8
0
 10
87.7724
 20
2.42256
 11
87.8111
 21
2.35423
  0
LINE
  8
0
 10
87.8111
 20
2.35423
 11
87.8464
 21
2.28409
  0
LINE
  8
0
 10
87.8464
 20
2.28409
 11
87.8782
 21
2.21228
  0
LINE
  8
0
 10
87.8782
 20
2.21228
 11
87.9065
 21
2.13902
  0
LINE
  8
0
 10
87.9065
 20
2.13902
 11
87.9311
 21
2.06445
  0
LINE
  8
0
 10
87.9311
 20
2.06445
 11
87.952
 21
1.98875
  0
LINE
  8
0
 10
87.952
 20
1.98875
 11
87.9693
 21
1.91214
  0
LINE
  8
0
 10
87.9693
 20
1.91214
 11
87.9827
 21
1.83476
  0
LINE
  8
0
 10
87.9827
 20
1.83476
 11
87.9923
 21
1.75682
  0
LINE
  8
0
 10
87.9923
 20
1.75682
 11
87.9981
 21
1.6785
  0
LINE
  8
0
 10
87.9981
 20
1.6785
 11
88
 21
1.59999
  0
LINE
  8
0
 10
88
 20
1.59999
 11
87.9981
 21
1.52148
  0
LINE
  8
0
 10
87.9981
 20
1.52148
 11
87.9923
 21
1.44316
  0
LINE
  8
0
 10
87.9923
 20
1.44316
 11
87.9827
 21
1.36522
  0
LINE
  8
0
 10
87.9827
 20
1.36522
 11
87.9693
 21
1.28784
  0
LINE
  8
0
 10
87.9693
 20
1.28784
 11
87.952
 21
1.21123
  0
LINE
  8
0
 10
87.952
 20
1.21123
 11
87.9311
 21
1.13554
  0
LINE
  8
0
 10
87.9311
 20
1.13554
 11
87.9065
 21
1.06097
  0
LINE
  8
0
 10
87.9065
 20
1.06097
 11
87.8782
 21
0.987701
  0
LINE
  8
0
 10
87.8782
 20
0.987701
 11
87.8464
 21
0.915909
  0
LINE
  8
0
 10
87.8464
 20
0.915909
 11
87.8111
 21
0.845764
  0
LINE
  8
0
 10
87.8111
 20
0.845764
 11
87.7724
 21
0.777435
  0
LINE
  8
0
 10
87.7724
 20
0.777435
 11
87.7303
 21
0.711075
  0
LINE
  8
0
 10
87.7303
 20
0.711075
 11
87.6851
 21
0.646881
  0
LINE
  8
0
 10
87.6851
 20
0.646881
 11
87.6368
 21
0.584961
  0
LINE
  8
0
 10
87.6368
 20
0.584961
 11
87.5855
 21
0.525497
  0
LINE
  8
0
 10
87.5855
 20
0.525497
 11
87.5314
 21
0.468628
  0
LINE
  8
0
 10
87.5314
 20
0.468628
 11
87.4745
 21
0.414474
  0
LINE
  8
0
 10
87.4745
 20
0.414474
 11
87.415
 21
0.363174
  0
LINE
  8
0
 10
87.415
 20
0.363174
 11
87.3531
 21
0.314865
  0
LINE
  8
0
 10
87.3531
 20
0.314865
 11
87.2889
 21
0.269638
  0
LINE
  8
0
 10
87.2889
 20
0.269638
 11
87.2225
 21
0.227631
  0
LINE
  8
0
 10
87.2225
 20
0.227631
 11
87.1542
 21
0.188919
  0
LINE
  8
0
 10
87.1542
 20
0.188919
 11
87.0841
 21
0.15361
  0
LINE
  8
0
 10
87.0841
 20
0.15361
 11
87.0123
 21
0.12178
  0
LINE
  8
0
 10
87.0123
 20
0.12178
 11
86.939
 21
0.0935211
  0
LINE
  8
0
 10
86.939
 20
0.0935211
 11
86.8644
 21
0.0688934
  0
LINE
  8
0
 10
86.8644
 20
0.0688934
 11
86.7888
 21
0.0479431
  0
LINE
  8
0
 10
86.7888
 20
0.0479431
 11
86.7121
 21
0.0307312
  0
LINE
  8
0
 10
86.7121
 20
0.0307312
 11
86.6348
 21
0.0173035
  0
LINE
  8
0
 10
86.6348
 20
0.0173035
 11
86.5568
 21
0.00769043
  0
LINE
  8
0
 10
86.5568
 20
0.00769043
 11
86.4785
 21
0.00192261
  0
LINE
  8
0
 10
86.4785
 20
0.00192261
 11
86.4
 21
0
  0
LINE
  8
0
 10
86.4
 20
0
 11
86.3215
 21
0.00192261
  0
ENDSEC
  0
SECTION
  2
OBJECTS
  0
DICTIONARY
  0
ENDSEC
  0
EOF
