G04 #@! TF.GenerationSoftware,KiCad,Pcbnew,5.1.4+dfsg1-1*
G04 #@! TF.CreationDate,2019-11-05T07:15:00-08:00*
G04 #@! TF.ProjectId,hadbadge2019,68616462-6164-4676-9532-3031392e6b69,rev?*
G04 #@! TF.SameCoordinates,Original*
G04 #@! TF.FileFunction,Profile,NP*
%FSLAX46Y46*%
G04 Gerber Fmt 4.6, Leading zero omitted, Abs format (unit mm)*
G04 Created by KiCad (PCBNEW 5.1.4+dfsg1-1) date 2019-11-05 07:15:00*
%MOMM*%
%LPD*%
G04 APERTURE LIST*
%ADD10C,0.150000*%
G04 APERTURE END LIST*
D10*
X152300000Y-24000000D02*
X147700000Y-24000000D01*
X152300000Y-21500000D02*
X152300000Y-24000000D01*
X147700000Y-21500000D02*
X152300000Y-21500000D01*
X117700000Y-21500000D02*
X139800000Y-21500000D01*
X103400000Y-21500000D02*
X109800000Y-21500000D01*
X103400000Y-24000000D02*
X103400000Y-21500000D01*
X109800000Y-24000000D02*
X103400000Y-24000000D01*
X141300000Y-24000000D02*
X115600000Y-24000000D01*
X115600000Y-25000000D02*
X115600000Y-24000000D01*
X141300000Y-25000000D02*
X115600000Y-25000000D01*
X111800000Y-25000000D02*
X107500000Y-25000000D01*
X145200000Y-21500000D02*
X147700000Y-21500000D01*
X139800000Y-21500000D02*
X141800000Y-21500000D01*
X147700000Y-24000000D02*
X145200000Y-24000000D01*
X145200000Y-24000000D02*
X145200000Y-25000000D01*
X141800000Y-21500000D02*
X145200000Y-21500000D01*
X141300000Y-24000000D02*
X141300000Y-25000000D01*
X149500000Y-25000000D02*
X145200000Y-25000000D01*
X111800000Y-24000000D02*
X111800000Y-25000000D01*
X115200000Y-21500000D02*
X117700000Y-21500000D01*
X109800000Y-21500000D02*
X111800000Y-21500000D01*
X111800000Y-24000000D02*
X109800000Y-24000000D01*
X111800000Y-21500000D02*
X115200000Y-21500000D01*
X88600000Y-150000000D02*
G75*
G03X88600000Y-150000000I-4100000J0D01*
G01*
X89300000Y-28500000D02*
G75*
G03X89300000Y-28500000I-3300000J0D01*
G01*
X94500000Y-162000000D02*
X76000000Y-162000000D01*
X137500000Y-162000000D02*
X156000000Y-162000000D01*
X160000000Y-107000000D02*
X160000000Y-158000000D01*
X107000000Y-162000000D02*
X125000000Y-162000000D01*
X97500000Y-158500000D02*
X94500000Y-162000000D01*
X76000000Y-162000000D02*
X72000000Y-158000000D01*
X103500000Y-158500000D02*
X97500000Y-158500000D01*
X156000000Y-162000000D02*
X160000000Y-158000000D01*
X134000000Y-158500000D02*
X128000000Y-158500000D01*
X137500000Y-162000000D02*
X134000000Y-158500000D01*
X128000000Y-158500000D02*
X125000000Y-162000000D01*
X107000000Y-162000000D02*
X103500000Y-158500000D01*
X153000000Y-100000000D02*
X160000000Y-107000000D01*
X153000000Y-91500000D02*
X153000000Y-100000000D01*
X156500000Y-88000000D02*
X153000000Y-91500000D01*
X72000000Y-71500000D02*
X72000000Y-158000000D01*
X75500000Y-68000000D02*
X72000000Y-71500000D01*
X75500000Y-28500000D02*
X75500000Y-68000000D01*
X104000000Y-28500000D02*
X96500000Y-28500000D01*
X89500000Y-21500000D02*
X96500000Y-28500000D01*
X82500000Y-21500000D02*
X89500000Y-21500000D01*
X75500000Y-28500000D02*
X82500000Y-21500000D01*
X107500000Y-25000000D02*
X104000000Y-28500000D01*
X156500000Y-32000000D02*
X149500000Y-25000000D01*
X156500000Y-88000000D02*
X156500000Y-32000000D01*
M02*
