  0
SECTION
  2
HEADER
  9
$ANGBASE
  50
0.0
  9
$ANGDIR
  70
1
  9
$MEASUREMENT
  70
1
  0
ENDSEC
  0
SECTION
  2
TABLES
  0
TABLE
  2
LTYPE
  70
4
  0
LTYPE
  5
40F
  2
CONTINUOUS
  70
0
  3
Solid line
  72
65
  73
0
  40
0.0
  0
LTYPE
  5
410
  2
DASHDOT
 70
0
  3
Dash Dot ____ _ ____ _
 72
65
 73
4
 40
2.0
 49
1.25
 49
-0.25
 49
0.25
 49
-0.25
  0
LTYPE
  5
411
  2
DASHED
 70
0
  3
Dashed __ __ __ __ __
 72
65
 73
2
 40
0.75
 49
0.5
 49
-0.25
  0
LTYPE
  5
43B
  2
DOTTED
 70
0
  3
Dotted .  .  .  .
 72
65
 73
2
 40
0.2
 49
0.0
 49
-0.2
  0
ENDTAB
  0
TABLE
  2
STYLE
  70
4
  0
STYLE
  2
KICAD
  70
0
  40
0
  41
1
  42
1
  50
0
  71
0
  3
isocp.shx
  0
STYLE
  2
KICADB
  70
0
  40
0
  41
1
  42
1
  50
0
  71
0
  3
isocp.shx
  0
STYLE
  2
KICADI
  70
0
  40
0
  41
1
  42
1
  50
15
  71
0
  3
isocp.shx
  0
STYLE
  2
KICADBI
  70
0
  40
0
  41
1
  42
1
  50
15
  71
0
  3
isocp.shx
  0
ENDTAB
  0
TABLE
  2
LAYER
  70
1
  0
LAYER
  2
BLACK
  70
0
  62
7
  6
CONTINUOUS
  0
ENDTAB
  0
ENDSEC
  0
SECTION
  2
ENTITIES
0
LINE
8
BLACK
6
CONTINUOUS
10
73.275
20
137.075
11
77.4963
21
137.075
0
LINE
8
BLACK
6
CONTINUOUS
10
77.4963
20
137.075
11
77.5
21
137.075
0
LINE
8
BLACK
6
CONTINUOUS
10
77.5
20
137.075
11
77.5037
21
137.075
0
LINE
8
BLACK
6
CONTINUOUS
10
77.5037
20
137.075
11
77.5037
21
137.075
0
LINE
8
BLACK
6
CONTINUOUS
10
77.5037
20
137.075
11
77.5147
21
137.074
0
LINE
8
BLACK
6
CONTINUOUS
10
77.5147
20
137.074
11
77.5288
21
137.07
0
LINE
8
BLACK
6
CONTINUOUS
10
77.5288
20
137.07
11
77.5419
21
137.063
0
LINE
8
BLACK
6
CONTINUOUS
10
77.5419
20
137.063
11
77.5533
21
137.053
0
LINE
8
BLACK
6
CONTINUOUS
10
77.5533
20
137.053
11
77.5556
21
137.05
0
LINE
8
BLACK
6
CONTINUOUS
10
77.5556
20
137.05
11
84.5504
21
130.056
0
LINE
8
BLACK
6
CONTINUOUS
10
84.5504
20
130.056
11
84.5533
21
130.053
0
LINE
8
BLACK
6
CONTINUOUS
10
84.5533
20
130.053
11
84.5556
21
130.05
0
LINE
8
BLACK
6
CONTINUOUS
10
84.5556
20
130.05
11
84.5627
21
130.042
0
LINE
8
BLACK
6
CONTINUOUS
10
84.5627
20
130.042
11
84.5696
21
130.029
0
LINE
8
BLACK
6
CONTINUOUS
10
84.5696
20
130.029
11
84.5739
21
130.015
0
LINE
8
BLACK
6
CONTINUOUS
10
84.5739
20
130.015
11
84.575
21
130.004
0
LINE
8
BLACK
6
CONTINUOUS
10
84.575
20
130.004
11
84.5754
21
130
0
LINE
8
BLACK
6
CONTINUOUS
10
84.5754
20
130
11
84.575
21
129.996
0
LINE
8
BLACK
6
CONTINUOUS
10
84.575
20
129.996
11
84.575
21
74.0037
0
LINE
8
BLACK
6
CONTINUOUS
10
84.575
20
74.0037
11
84.5754
21
74
0
LINE
8
BLACK
6
CONTINUOUS
10
84.5754
20
74
11
84.575
21
73.9963
0
LINE
8
BLACK
6
CONTINUOUS
10
84.575
20
73.9963
11
84.575
21
73.9963
0
LINE
8
BLACK
6
CONTINUOUS
10
84.575
20
73.9963
11
84.5739
21
73.9853
0
LINE
8
BLACK
6
CONTINUOUS
10
84.5739
20
73.9853
11
84.5696
21
73.9712
0
LINE
8
BLACK
6
CONTINUOUS
10
84.5696
20
73.9712
11
84.5627
21
73.9581
0
LINE
8
BLACK
6
CONTINUOUS
10
84.5627
20
73.9581
11
84.5533
21
73.9467
0
LINE
8
BLACK
6
CONTINUOUS
10
84.5533
20
73.9467
11
84.5504
21
73.9444
0
LINE
8
BLACK
6
CONTINUOUS
10
84.5504
20
73.9444
11
81.075
21
70.4689
0
LINE
8
BLACK
6
CONTINUOUS
10
81.075
20
70.4689
11
81.075
21
62.0311
0
LINE
8
BLACK
6
CONTINUOUS
10
81.075
20
62.0311
11
88.0504
21
55.0556
0
LINE
8
BLACK
6
CONTINUOUS
10
88.0504
20
55.0556
11
88.0533
21
55.0533
0
LINE
8
BLACK
6
CONTINUOUS
10
88.0533
20
55.0533
11
88.0556
21
55.0504
0
LINE
8
BLACK
6
CONTINUOUS
10
88.0556
20
55.0504
11
88.0627
21
55.0419
0
LINE
8
BLACK
6
CONTINUOUS
10
88.0627
20
55.0419
11
88.0627
21
55.0419
0
LINE
8
BLACK
6
CONTINUOUS
10
88.0627
20
55.0419
11
88.0696
21
55.0288
0
LINE
8
BLACK
6
CONTINUOUS
10
88.0696
20
55.0288
11
88.0739
21
55.0147
0
LINE
8
BLACK
6
CONTINUOUS
10
88.0739
20
55.0147
11
88.075
21
55.0037
0
LINE
8
BLACK
6
CONTINUOUS
10
88.075
20
55.0037
11
88.0754
21
55
0
LINE
8
BLACK
6
CONTINUOUS
10
88.0754
20
55
11
88.075
21
54.9963
0
LINE
8
BLACK
6
CONTINUOUS
10
88.075
20
54.9963
11
88.075
21
4.00366
0
LINE
8
BLACK
6
CONTINUOUS
10
88.075
20
4.00366
11
88.0754
21
4
0
LINE
8
BLACK
6
CONTINUOUS
10
88.0754
20
4
11
88.075
21
3.99633
0
LINE
8
BLACK
6
CONTINUOUS
10
88.075
20
3.99633
11
88.075
21
3.99632
0
LINE
8
BLACK
6
CONTINUOUS
10
88.075
20
3.99632
11
88.0739
21
3.9853
0
LINE
8
BLACK
6
CONTINUOUS
10
88.0739
20
3.9853
11
88.0696
21
3.97116
0
LINE
8
BLACK
6
CONTINUOUS
10
88.0696
20
3.97116
11
88.0627
21
3.95813
0
LINE
8
BLACK
6
CONTINUOUS
10
88.0627
20
3.95813
11
88.0533
21
3.94671
0
LINE
8
BLACK
6
CONTINUOUS
10
88.0533
20
3.94671
11
88.0504
21
3.94437
0
LINE
8
BLACK
6
CONTINUOUS
10
88.0504
20
3.94437
11
84.0556
21
-0.050428
0
LINE
8
BLACK
6
CONTINUOUS
10
84.0556
20
-0.050428
11
84.0533
21
-0.053289
0
LINE
8
BLACK
6
CONTINUOUS
10
84.0533
20
-0.053289
11
84.0419
21
-0.062661
0
LINE
8
BLACK
6
CONTINUOUS
10
84.0419
20
-0.062661
11
84.0288
21
-0.069625
0
LINE
8
BLACK
6
CONTINUOUS
10
84.0288
20
-0.069625
11
84.0147
21
-0.073914
0
LINE
8
BLACK
6
CONTINUOUS
10
84.0147
20
-0.073914
11
84.0037
21
-0.075
0
LINE
8
BLACK
6
CONTINUOUS
10
84.0037
20
-0.075
11
84.0037
21
-0.075
0
LINE
8
BLACK
6
CONTINUOUS
10
84.0037
20
-0.075
11
84
21
-0.075362
0
LINE
8
BLACK
6
CONTINUOUS
10
84
20
-0.075362
11
83.9963
21
-0.075
0
LINE
8
BLACK
6
CONTINUOUS
10
83.9963
20
-0.075
11
65.5037
21
-0.075
0
LINE
8
BLACK
6
CONTINUOUS
10
65.5037
20
-0.075
11
65.5
21
-0.075361
0
LINE
8
BLACK
6
CONTINUOUS
10
65.5
20
-0.075361
11
65.4963
21
-0.075
0
LINE
8
BLACK
6
CONTINUOUS
10
65.4963
20
-0.075
11
65.4963
21
-0.075
0
LINE
8
BLACK
6
CONTINUOUS
10
65.4963
20
-0.075
11
65.4853
21
-0.073914
0
LINE
8
BLACK
6
CONTINUOUS
10
65.4853
20
-0.073914
11
65.4712
21
-0.069625
0
LINE
8
BLACK
6
CONTINUOUS
10
65.4712
20
-0.069625
11
65.4581
21
-0.062661
0
LINE
8
BLACK
6
CONTINUOUS
10
65.4581
20
-0.062661
11
65.4467
21
-0.053289
0
LINE
8
BLACK
6
CONTINUOUS
10
65.4467
20
-0.053289
11
65.4444
21
-0.050434
0
LINE
8
BLACK
6
CONTINUOUS
10
65.4444
20
-0.050434
11
61.9689
21
3.425
0
LINE
8
BLACK
6
CONTINUOUS
10
61.9689
20
3.425
11
56.0345
21
3.425
0
LINE
8
BLACK
6
CONTINUOUS
10
56.0345
20
3.425
11
53.0575
21
-0.048202
0
LINE
8
BLACK
6
CONTINUOUS
10
53.0575
20
-0.048202
11
53.0533
21
-0.053289
0
LINE
8
BLACK
6
CONTINUOUS
10
53.0533
20
-0.053289
11
53.0498
21
-0.056154
0
LINE
8
BLACK
6
CONTINUOUS
10
53.0498
20
-0.056154
11
53.0466
21
-0.059265
0
LINE
8
BLACK
6
CONTINUOUS
10
53.0466
20
-0.059265
11
53.0441
21
-0.06082
0
LINE
8
BLACK
6
CONTINUOUS
10
53.0441
20
-0.06082
11
53.0419
21
-0.062661
0
LINE
8
BLACK
6
CONTINUOUS
10
53.0419
20
-0.062661
11
53.0379
21
-0.064789
0
LINE
8
BLACK
6
CONTINUOUS
10
53.0379
20
-0.064789
11
53.0341
21
-0.067208
0
LINE
8
BLACK
6
CONTINUOUS
10
53.0341
20
-0.067208
11
53.0314
21
-0.068257
0
LINE
8
BLACK
6
CONTINUOUS
10
53.0314
20
-0.068257
11
53.0288
21
-0.069625
0
LINE
8
BLACK
6
CONTINUOUS
10
53.0288
20
-0.069625
11
53.0245
21
-0.070936
0
LINE
8
BLACK
6
CONTINUOUS
10
53.0245
20
-0.070936
11
53.0203
21
-0.072568
0
LINE
8
BLACK
6
CONTINUOUS
10
53.0203
20
-0.072568
11
53.0175
21
-0.073072
0
LINE
8
BLACK
6
CONTINUOUS
10
53.0175
20
-0.073072
11
53.0147
21
-0.073914
0
LINE
8
BLACK
6
CONTINUOUS
10
53.0147
20
-0.073914
11
53.0102
21
-0.074356
0
LINE
8
BLACK
6
CONTINUOUS
10
53.0102
20
-0.074356
11
53.0058
21
-0.07514
0
LINE
8
BLACK
6
CONTINUOUS
10
53.0058
20
-0.07514
11
52.9993
21
-0.075
0
LINE
8
BLACK
6
CONTINUOUS
10
52.9993
20
-0.075
11
35.0037
21
-0.075
0
LINE
8
BLACK
6
CONTINUOUS
10
35.0037
20
-0.075
11
35
21
-0.075361
0
LINE
8
BLACK
6
CONTINUOUS
10
35
20
-0.075361
11
34.9963
21
-0.075
0
LINE
8
BLACK
6
CONTINUOUS
10
34.9963
20
-0.075
11
34.9963
21
-0.075
0
LINE
8
BLACK
6
CONTINUOUS
10
34.9963
20
-0.075
11
34.9853
21
-0.073914
0
LINE
8
BLACK
6
CONTINUOUS
10
34.9853
20
-0.073914
11
34.9712
21
-0.069625
0
LINE
8
BLACK
6
CONTINUOUS
10
34.9712
20
-0.069625
11
34.9581
21
-0.062661
0
LINE
8
BLACK
6
CONTINUOUS
10
34.9581
20
-0.062661
11
34.9467
21
-0.053289
0
LINE
8
BLACK
6
CONTINUOUS
10
34.9467
20
-0.053289
11
34.9444
21
-0.050434
0
LINE
8
BLACK
6
CONTINUOUS
10
34.9444
20
-0.050434
11
31.4689
21
3.425
0
LINE
8
BLACK
6
CONTINUOUS
10
31.4689
20
3.425
11
25.5345
21
3.425
0
LINE
8
BLACK
6
CONTINUOUS
10
25.5345
20
3.425
11
22.5575
21
-0.048202
0
LINE
8
BLACK
6
CONTINUOUS
10
22.5575
20
-0.048202
11
22.5533
21
-0.053289
0
LINE
8
BLACK
6
CONTINUOUS
10
22.5533
20
-0.053289
11
22.5498
21
-0.056154
0
LINE
8
BLACK
6
CONTINUOUS
10
22.5498
20
-0.056154
11
22.5466
21
-0.059265
0
LINE
8
BLACK
6
CONTINUOUS
10
22.5466
20
-0.059265
11
22.5441
21
-0.06082
0
LINE
8
BLACK
6
CONTINUOUS
10
22.5441
20
-0.06082
11
22.5419
21
-0.062661
0
LINE
8
BLACK
6
CONTINUOUS
10
22.5419
20
-0.062661
11
22.5379
21
-0.064789
0
LINE
8
BLACK
6
CONTINUOUS
10
22.5379
20
-0.064789
11
22.5341
21
-0.067208
0
LINE
8
BLACK
6
CONTINUOUS
10
22.5341
20
-0.067208
11
22.5314
21
-0.068257
0
LINE
8
BLACK
6
CONTINUOUS
10
22.5314
20
-0.068257
11
22.5288
21
-0.069625
0
LINE
8
BLACK
6
CONTINUOUS
10
22.5288
20
-0.069625
11
22.5245
21
-0.070936
0
LINE
8
BLACK
6
CONTINUOUS
10
22.5245
20
-0.070936
11
22.5203
21
-0.072568
0
LINE
8
BLACK
6
CONTINUOUS
10
22.5203
20
-0.072568
11
22.5175
21
-0.073072
0
LINE
8
BLACK
6
CONTINUOUS
10
22.5175
20
-0.073072
11
22.5147
21
-0.073914
0
LINE
8
BLACK
6
CONTINUOUS
10
22.5147
20
-0.073914
11
22.5102
21
-0.074356
0
LINE
8
BLACK
6
CONTINUOUS
10
22.5102
20
-0.074356
11
22.5058
21
-0.07514
0
LINE
8
BLACK
6
CONTINUOUS
10
22.5058
20
-0.07514
11
22.4993
21
-0.075
0
LINE
8
BLACK
6
CONTINUOUS
10
22.4993
20
-0.075
11
4.00366
21
-0.075
0
LINE
8
BLACK
6
CONTINUOUS
10
4.00366
20
-0.075
11
4
21
-0.075361
0
LINE
8
BLACK
6
CONTINUOUS
10
4
20
-0.075361
11
3.99633
21
-0.075
0
LINE
8
BLACK
6
CONTINUOUS
10
3.99633
20
-0.075
11
3.99632
21
-0.075
0
LINE
8
BLACK
6
CONTINUOUS
10
3.99632
20
-0.075
11
3.9853
21
-0.073914
0
LINE
8
BLACK
6
CONTINUOUS
10
3.9853
20
-0.073914
11
3.97116
21
-0.069625
0
LINE
8
BLACK
6
CONTINUOUS
10
3.97116
20
-0.069625
11
3.95813
21
-0.062661
0
LINE
8
BLACK
6
CONTINUOUS
10
3.95813
20
-0.062661
11
3.94671
21
-0.053289
0
LINE
8
BLACK
6
CONTINUOUS
10
3.94671
20
-0.053289
11
3.94437
21
-0.050434
0
LINE
8
BLACK
6
CONTINUOUS
10
3.94437
20
-0.050434
11
-0.050433
21
3.94437
0
LINE
8
BLACK
6
CONTINUOUS
10
-0.050433
20
3.94437
11
-0.053288
21
3.94671
0
LINE
8
BLACK
6
CONTINUOUS
10
-0.053288
20
3.94671
11
-0.06266
21
3.95813
0
LINE
8
BLACK
6
CONTINUOUS
10
-0.06266
20
3.95813
11
-0.069624
21
3.97116
0
LINE
8
BLACK
6
CONTINUOUS
10
-0.069624
20
3.97116
11
-0.069625
21
3.97116
0
LINE
8
BLACK
6
CONTINUOUS
10
-0.069625
20
3.97116
11
-0.073913
21
3.9853
0
LINE
8
BLACK
6
CONTINUOUS
10
-0.073913
20
3.9853
11
-0.075362
21
4
0
LINE
8
BLACK
6
CONTINUOUS
10
-0.075362
20
4
11
-0.074999
21
4.00368
0
LINE
8
BLACK
6
CONTINUOUS
10
-0.074999
20
4.00368
11
-0.075
21
90.4963
0
LINE
8
BLACK
6
CONTINUOUS
10
-0.075
20
90.4963
11
-0.075362
21
90.5
0
LINE
8
BLACK
6
CONTINUOUS
10
-0.075362
20
90.5
11
-0.075
21
90.5037
0
LINE
8
BLACK
6
CONTINUOUS
10
-0.075
20
90.5037
11
-0.073914
21
90.5147
0
LINE
8
BLACK
6
CONTINUOUS
10
-0.073914
20
90.5147
11
-0.069625
21
90.5288
0
LINE
8
BLACK
6
CONTINUOUS
10
-0.069625
20
90.5288
11
-0.062661
21
90.5419
0
LINE
8
BLACK
6
CONTINUOUS
10
-0.062661
20
90.5419
11
-0.053289
21
90.5533
0
LINE
8
BLACK
6
CONTINUOUS
10
-0.053289
20
90.5533
11
-0.050428
21
90.5556
0
LINE
8
BLACK
6
CONTINUOUS
10
-0.050428
20
90.5556
11
3.425
21
94.0311
0
LINE
8
BLACK
6
CONTINUOUS
10
3.425
20
94.0311
11
3.425
21
133.496
0
LINE
8
BLACK
6
CONTINUOUS
10
3.425
20
133.496
11
3.42464
21
133.5
0
LINE
8
BLACK
6
CONTINUOUS
10
3.42464
20
133.5
11
3.425
21
133.504
0
LINE
8
BLACK
6
CONTINUOUS
10
3.425
20
133.504
11
3.42609
21
133.515
0
LINE
8
BLACK
6
CONTINUOUS
10
3.42609
20
133.515
11
3.43037
21
133.529
0
LINE
8
BLACK
6
CONTINUOUS
10
3.43037
20
133.529
11
3.43734
21
133.542
0
LINE
8
BLACK
6
CONTINUOUS
10
3.43734
20
133.542
11
3.44671
21
133.553
0
LINE
8
BLACK
6
CONTINUOUS
10
3.44671
20
133.553
11
3.44957
21
133.556
0
LINE
8
BLACK
6
CONTINUOUS
10
3.44957
20
133.556
11
10.4444
21
140.55
0
LINE
8
BLACK
6
CONTINUOUS
10
10.4444
20
140.55
11
10.4467
21
140.553
0
LINE
8
BLACK
6
CONTINUOUS
10
10.4467
20
140.553
11
10.4511
21
140.557
0
LINE
8
BLACK
6
CONTINUOUS
10
10.4511
20
140.557
11
10.4581
21
140.563
0
LINE
8
BLACK
6
CONTINUOUS
10
10.4581
20
140.563
11
10.4712
21
140.57
0
LINE
8
BLACK
6
CONTINUOUS
10
10.4712
20
140.57
11
10.4853
21
140.574
0
LINE
8
BLACK
6
CONTINUOUS
10
10.4853
20
140.574
11
10.4963
21
140.575
0
LINE
8
BLACK
6
CONTINUOUS
10
10.4963
20
140.575
11
10.4963
21
140.575
0
LINE
8
BLACK
6
CONTINUOUS
10
10.4963
20
140.575
11
10.5
21
140.575
0
LINE
8
BLACK
6
CONTINUOUS
10
10.5
20
140.575
11
10.5037
21
140.575
0
LINE
8
BLACK
6
CONTINUOUS
10
10.5037
20
140.575
11
17.4963
21
140.575
0
LINE
8
BLACK
6
CONTINUOUS
10
17.4963
20
140.575
11
17.5
21
140.575
0
LINE
8
BLACK
6
CONTINUOUS
10
17.5
20
140.575
11
17.5037
21
140.575
0
LINE
8
BLACK
6
CONTINUOUS
10
17.5037
20
140.575
11
17.5037
21
140.575
0
LINE
8
BLACK
6
CONTINUOUS
10
17.5037
20
140.575
11
17.5147
21
140.574
0
LINE
8
BLACK
6
CONTINUOUS
10
17.5147
20
140.574
11
17.5288
21
140.57
0
LINE
8
BLACK
6
CONTINUOUS
10
17.5288
20
140.57
11
17.5419
21
140.563
0
LINE
8
BLACK
6
CONTINUOUS
10
17.5419
20
140.563
11
17.5533
21
140.553
0
LINE
8
BLACK
6
CONTINUOUS
10
17.5533
20
140.553
11
17.5556
21
140.55
0
LINE
8
BLACK
6
CONTINUOUS
10
17.5556
20
140.55
11
24.5311
21
133.575
0
LINE
8
BLACK
6
CONTINUOUS
10
24.5311
20
133.575
11
31.9689
21
133.575
0
LINE
8
BLACK
6
CONTINUOUS
10
31.9689
20
133.575
11
35.4444
21
137.05
0
LINE
8
BLACK
6
CONTINUOUS
10
35.4444
20
137.05
11
35.4467
21
137.053
0
LINE
8
BLACK
6
CONTINUOUS
10
35.4467
20
137.053
11
35.4581
21
137.063
0
LINE
8
BLACK
6
CONTINUOUS
10
35.4581
20
137.063
11
35.4712
21
137.07
0
LINE
8
BLACK
6
CONTINUOUS
10
35.4712
20
137.07
11
35.4853
21
137.074
0
LINE
8
BLACK
6
CONTINUOUS
10
35.4853
20
137.074
11
35.4963
21
137.075
0
LINE
8
BLACK
6
CONTINUOUS
10
35.4963
20
137.075
11
35.4963
21
137.075
0
LINE
8
BLACK
6
CONTINUOUS
10
35.4963
20
137.075
11
35.5
21
137.075
0
LINE
8
BLACK
6
CONTINUOUS
10
35.5
20
137.075
11
35.5037
21
137.075
0
LINE
8
BLACK
6
CONTINUOUS
10
35.5037
20
137.075
11
39.725
21
137.075
0
LINE
8
BLACK
6
CONTINUOUS
10
39.725
20
137.075
11
39.725
21
137.925
0
LINE
8
BLACK
6
CONTINUOUS
10
39.725
20
137.925
11
31.4037
21
137.925
0
LINE
8
BLACK
6
CONTINUOUS
10
31.4037
20
137.925
11
31.4
21
137.925
0
LINE
8
BLACK
6
CONTINUOUS
10
31.4
20
137.925
11
31.3853
21
137.926
0
LINE
8
BLACK
6
CONTINUOUS
10
31.3853
20
137.926
11
31.3712
21
137.93
0
LINE
8
BLACK
6
CONTINUOUS
10
31.3712
20
137.93
11
31.3581
21
137.937
0
LINE
8
BLACK
6
CONTINUOUS
10
31.3581
20
137.937
11
31.3467
21
137.947
0
LINE
8
BLACK
6
CONTINUOUS
10
31.3467
20
137.947
11
31.3373
21
137.958
0
LINE
8
BLACK
6
CONTINUOUS
10
31.3373
20
137.958
11
31.3304
21
137.971
0
LINE
8
BLACK
6
CONTINUOUS
10
31.3304
20
137.971
11
31.3261
21
137.985
0
LINE
8
BLACK
6
CONTINUOUS
10
31.3261
20
137.985
11
31.3246
21
138
0
LINE
8
BLACK
6
CONTINUOUS
10
31.3246
20
138
11
31.325
21
138.004
0
LINE
8
BLACK
6
CONTINUOUS
10
31.325
20
138.004
11
31.325
21
140.496
0
LINE
8
BLACK
6
CONTINUOUS
10
31.325
20
140.496
11
31.3246
21
140.5
0
LINE
8
BLACK
6
CONTINUOUS
10
31.3246
20
140.5
11
31.3261
21
140.515
0
LINE
8
BLACK
6
CONTINUOUS
10
31.3261
20
140.515
11
31.3304
21
140.529
0
LINE
8
BLACK
6
CONTINUOUS
10
31.3304
20
140.529
11
31.3373
21
140.542
0
LINE
8
BLACK
6
CONTINUOUS
10
31.3373
20
140.542
11
31.3467
21
140.553
0
LINE
8
BLACK
6
CONTINUOUS
10
31.3467
20
140.553
11
31.3581
21
140.563
0
LINE
8
BLACK
6
CONTINUOUS
10
31.3581
20
140.563
11
31.3712
21
140.57
0
LINE
8
BLACK
6
CONTINUOUS
10
31.3712
20
140.57
11
31.3853
21
140.574
0
LINE
8
BLACK
6
CONTINUOUS
10
31.3853
20
140.574
11
31.3963
21
140.575
0
LINE
8
BLACK
6
CONTINUOUS
10
31.3963
20
140.575
11
31.4
21
140.575
0
LINE
8
BLACK
6
CONTINUOUS
10
31.4
20
140.575
11
31.4037
21
140.575
0
LINE
8
BLACK
6
CONTINUOUS
10
31.4037
20
140.575
11
80.2963
21
140.575
0
LINE
8
BLACK
6
CONTINUOUS
10
80.2963
20
140.575
11
80.3
21
140.575
0
LINE
8
BLACK
6
CONTINUOUS
10
80.3
20
140.575
11
80.3037
21
140.575
0
LINE
8
BLACK
6
CONTINUOUS
10
80.3037
20
140.575
11
80.3147
21
140.574
0
LINE
8
BLACK
6
CONTINUOUS
10
80.3147
20
140.574
11
80.3288
21
140.57
0
LINE
8
BLACK
6
CONTINUOUS
10
80.3288
20
140.57
11
80.3419
21
140.563
0
LINE
8
BLACK
6
CONTINUOUS
10
80.3419
20
140.563
11
80.3533
21
140.553
0
LINE
8
BLACK
6
CONTINUOUS
10
80.3533
20
140.553
11
80.3627
21
140.542
0
LINE
8
BLACK
6
CONTINUOUS
10
80.3627
20
140.542
11
80.3696
21
140.529
0
LINE
8
BLACK
6
CONTINUOUS
10
80.3696
20
140.529
11
80.3739
21
140.515
0
LINE
8
BLACK
6
CONTINUOUS
10
80.3739
20
140.515
11
80.3754
21
140.5
0
LINE
8
BLACK
6
CONTINUOUS
10
80.3754
20
140.5
11
80.375
21
140.496
0
LINE
8
BLACK
6
CONTINUOUS
10
80.375
20
140.496
11
80.375
21
138.004
0
LINE
8
BLACK
6
CONTINUOUS
10
80.375
20
138.004
11
80.3754
21
138
0
LINE
8
BLACK
6
CONTINUOUS
10
80.3754
20
138
11
80.3739
21
137.985
0
LINE
8
BLACK
6
CONTINUOUS
10
80.3739
20
137.985
11
80.3696
21
137.971
0
LINE
8
BLACK
6
CONTINUOUS
10
80.3696
20
137.971
11
80.3627
21
137.958
0
LINE
8
BLACK
6
CONTINUOUS
10
80.3627
20
137.958
11
80.3533
21
137.947
0
LINE
8
BLACK
6
CONTINUOUS
10
80.3533
20
137.947
11
80.3419
21
137.937
0
LINE
8
BLACK
6
CONTINUOUS
10
80.3419
20
137.937
11
80.3288
21
137.93
0
LINE
8
BLACK
6
CONTINUOUS
10
80.3288
20
137.93
11
80.3147
21
137.926
0
LINE
8
BLACK
6
CONTINUOUS
10
80.3147
20
137.926
11
80.3037
21
137.925
0
LINE
8
BLACK
6
CONTINUOUS
10
80.3037
20
137.925
11
80.3
21
137.925
0
LINE
8
BLACK
6
CONTINUOUS
10
80.3
20
137.925
11
80.2963
21
137.925
0
LINE
8
BLACK
6
CONTINUOUS
10
80.2963
20
137.925
11
73.275
21
137.925
0
LINE
8
BLACK
6
CONTINUOUS
10
73.275
20
137.925
11
73.275
21
137.075
0
LINE
8
BLACK
6
CONTINUOUS
10
39.8
20
138.075
11
39.8037
21
138.075
0
LINE
8
BLACK
6
CONTINUOUS
10
39.8037
20
138.075
11
39.8147
21
138.074
0
LINE
8
BLACK
6
CONTINUOUS
10
39.8147
20
138.074
11
39.8288
21
138.07
0
LINE
8
BLACK
6
CONTINUOUS
10
39.8288
20
138.07
11
39.8419
21
138.063
0
LINE
8
BLACK
6
CONTINUOUS
10
39.8419
20
138.063
11
39.8533
21
138.053
0
LINE
8
BLACK
6
CONTINUOUS
10
39.8533
20
138.053
11
39.8627
21
138.042
0
LINE
8
BLACK
6
CONTINUOUS
10
39.8627
20
138.042
11
39.8696
21
138.029
0
LINE
8
BLACK
6
CONTINUOUS
10
39.8696
20
138.029
11
39.8739
21
138.015
0
LINE
8
BLACK
6
CONTINUOUS
10
39.8739
20
138.015
11
39.8754
21
138
0
LINE
8
BLACK
6
CONTINUOUS
10
39.8754
20
138
11
39.875
21
137.996
0
LINE
8
BLACK
6
CONTINUOUS
10
39.875
20
137.996
11
39.875
21
137.004
0
LINE
8
BLACK
6
CONTINUOUS
10
39.875
20
137.004
11
39.8754
21
137
0
LINE
8
BLACK
6
CONTINUOUS
10
39.8754
20
137
11
39.8739
21
136.985
0
LINE
8
BLACK
6
CONTINUOUS
10
39.8739
20
136.985
11
39.8696
21
136.971
0
LINE
8
BLACK
6
CONTINUOUS
10
39.8696
20
136.971
11
39.8627
21
136.958
0
LINE
8
BLACK
6
CONTINUOUS
10
39.8627
20
136.958
11
39.8533
21
136.947
0
LINE
8
BLACK
6
CONTINUOUS
10
39.8533
20
136.947
11
39.8419
21
136.937
0
LINE
8
BLACK
6
CONTINUOUS
10
39.8419
20
136.937
11
39.8288
21
136.93
0
LINE
8
BLACK
6
CONTINUOUS
10
39.8288
20
136.93
11
39.8147
21
136.926
0
LINE
8
BLACK
6
CONTINUOUS
10
39.8147
20
136.926
11
39.8037
21
136.925
0
LINE
8
BLACK
6
CONTINUOUS
10
39.8037
20
136.925
11
39.8
21
136.925
0
LINE
8
BLACK
6
CONTINUOUS
10
39.8
20
136.925
11
39.7963
21
136.925
0
LINE
8
BLACK
6
CONTINUOUS
10
39.7963
20
136.925
11
35.5311
21
136.925
0
LINE
8
BLACK
6
CONTINUOUS
10
35.5311
20
136.925
11
32.0556
21
133.45
0
LINE
8
BLACK
6
CONTINUOUS
10
32.0556
20
133.45
11
32.0533
21
133.447
0
LINE
8
BLACK
6
CONTINUOUS
10
32.0533
20
133.447
11
32.0419
21
133.437
0
LINE
8
BLACK
6
CONTINUOUS
10
32.0419
20
133.437
11
32.0288
21
133.43
0
LINE
8
BLACK
6
CONTINUOUS
10
32.0288
20
133.43
11
32.0147
21
133.426
0
LINE
8
BLACK
6
CONTINUOUS
10
32.0147
20
133.426
11
32.0037
21
133.425
0
LINE
8
BLACK
6
CONTINUOUS
10
32.0037
20
133.425
11
32.0037
21
133.425
0
LINE
8
BLACK
6
CONTINUOUS
10
32.0037
20
133.425
11
32
21
133.425
0
LINE
8
BLACK
6
CONTINUOUS
10
32
20
133.425
11
31.9963
21
133.425
0
LINE
8
BLACK
6
CONTINUOUS
10
31.9963
20
133.425
11
24.5037
21
133.425
0
LINE
8
BLACK
6
CONTINUOUS
10
24.5037
20
133.425
11
24.5
21
133.425
0
LINE
8
BLACK
6
CONTINUOUS
10
24.5
20
133.425
11
24.4963
21
133.425
0
LINE
8
BLACK
6
CONTINUOUS
10
24.4963
20
133.425
11
24.4963
21
133.425
0
LINE
8
BLACK
6
CONTINUOUS
10
24.4963
20
133.425
11
24.4853
21
133.426
0
LINE
8
BLACK
6
CONTINUOUS
10
24.4853
20
133.426
11
24.4712
21
133.43
0
LINE
8
BLACK
6
CONTINUOUS
10
24.4712
20
133.43
11
24.4581
21
133.437
0
LINE
8
BLACK
6
CONTINUOUS
10
24.4581
20
133.437
11
24.4496
21
133.444
0
LINE
8
BLACK
6
CONTINUOUS
10
24.4496
20
133.444
11
24.4467
21
133.447
0
LINE
8
BLACK
6
CONTINUOUS
10
24.4467
20
133.447
11
24.4444
21
133.45
0
LINE
8
BLACK
6
CONTINUOUS
10
24.4444
20
133.45
11
17.4689
21
140.425
0
LINE
8
BLACK
6
CONTINUOUS
10
17.4689
20
140.425
11
10.5311
21
140.425
0
LINE
8
BLACK
6
CONTINUOUS
10
10.5311
20
140.425
11
3.575
21
133.469
0
LINE
8
BLACK
6
CONTINUOUS
10
3.575
20
133.469
11
3.575
21
94.0037
0
LINE
8
BLACK
6
CONTINUOUS
10
3.575
20
94.0037
11
3.57536
21
94
0
LINE
8
BLACK
6
CONTINUOUS
10
3.57536
20
94
11
3.575
21
93.9963
0
LINE
8
BLACK
6
CONTINUOUS
10
3.575
20
93.9963
11
3.575
21
93.9963
0
LINE
8
BLACK
6
CONTINUOUS
10
3.575
20
93.9963
11
3.57391
21
93.9853
0
LINE
8
BLACK
6
CONTINUOUS
10
3.57391
20
93.9853
11
3.56962
21
93.9712
0
LINE
8
BLACK
6
CONTINUOUS
10
3.56962
20
93.9712
11
3.56266
21
93.9581
0
LINE
8
BLACK
6
CONTINUOUS
10
3.56266
20
93.9581
11
3.55329
21
93.9467
0
LINE
8
BLACK
6
CONTINUOUS
10
3.55329
20
93.9467
11
3.55043
21
93.9444
0
LINE
8
BLACK
6
CONTINUOUS
10
3.55043
20
93.9444
11
0.075
21
90.4689
0
LINE
8
BLACK
6
CONTINUOUS
10
0.075
20
90.4689
11
0.075
21
4.03106
0
LINE
8
BLACK
6
CONTINUOUS
10
0.075
20
4.03106
11
4.03107
21
0.075
0
LINE
8
BLACK
6
CONTINUOUS
10
4.03107
20
0.075
11
22.4655
21
0.075
0
LINE
8
BLACK
6
CONTINUOUS
10
22.4655
20
0.075
11
25.4426
21
3.54823
0
LINE
8
BLACK
6
CONTINUOUS
10
25.4426
20
3.54823
11
25.4467
21
3.55329
0
LINE
8
BLACK
6
CONTINUOUS
10
25.4467
20
3.55329
11
25.4502
21
3.55615
0
LINE
8
BLACK
6
CONTINUOUS
10
25.4502
20
3.55615
11
25.4534
21
3.55926
0
LINE
8
BLACK
6
CONTINUOUS
10
25.4534
20
3.55926
11
25.4559
21
3.56082
0
LINE
8
BLACK
6
CONTINUOUS
10
25.4559
20
3.56082
11
25.4581
21
3.56266
0
LINE
8
BLACK
6
CONTINUOUS
10
25.4581
20
3.56266
11
25.4621
21
3.56479
0
LINE
8
BLACK
6
CONTINUOUS
10
25.4621
20
3.56479
11
25.4659
21
3.56721
0
LINE
8
BLACK
6
CONTINUOUS
10
25.4659
20
3.56721
11
25.4686
21
3.56826
0
LINE
8
BLACK
6
CONTINUOUS
10
25.4686
20
3.56826
11
25.4712
21
3.56962
0
LINE
8
BLACK
6
CONTINUOUS
10
25.4712
20
3.56962
11
25.4755
21
3.57093
0
LINE
8
BLACK
6
CONTINUOUS
10
25.4755
20
3.57093
11
25.4797
21
3.57257
0
LINE
8
BLACK
6
CONTINUOUS
10
25.4797
20
3.57257
11
25.4825
21
3.57307
0
LINE
8
BLACK
6
CONTINUOUS
10
25.4825
20
3.57307
11
25.4853
21
3.57391
0
LINE
8
BLACK
6
CONTINUOUS
10
25.4853
20
3.57391
11
25.4898
21
3.57436
0
LINE
8
BLACK
6
CONTINUOUS
10
25.4898
20
3.57436
11
25.4942
21
3.57514
0
LINE
8
BLACK
6
CONTINUOUS
10
25.4942
20
3.57514
11
25.5007
21
3.575
0
LINE
8
BLACK
6
CONTINUOUS
10
25.5007
20
3.575
11
31.4963
21
3.575
0
LINE
8
BLACK
6
CONTINUOUS
10
31.4963
20
3.575
11
31.5
21
3.57536
0
LINE
8
BLACK
6
CONTINUOUS
10
31.5
20
3.57536
11
31.5037
21
3.575
0
LINE
8
BLACK
6
CONTINUOUS
10
31.5037
20
3.575
11
31.5037
21
3.575
0
LINE
8
BLACK
6
CONTINUOUS
10
31.5037
20
3.575
11
31.5147
21
3.57391
0
LINE
8
BLACK
6
CONTINUOUS
10
31.5147
20
3.57391
11
31.5288
21
3.56962
0
LINE
8
BLACK
6
CONTINUOUS
10
31.5288
20
3.56962
11
31.5419
21
3.56266
0
LINE
8
BLACK
6
CONTINUOUS
10
31.5419
20
3.56266
11
31.5533
21
3.55329
0
LINE
8
BLACK
6
CONTINUOUS
10
31.5533
20
3.55329
11
31.5556
21
3.55043
0
LINE
8
BLACK
6
CONTINUOUS
10
31.5556
20
3.55043
11
35.0311
21
0.075
0
LINE
8
BLACK
6
CONTINUOUS
10
35.0311
20
0.075
11
52.9655
21
0.075
0
LINE
8
BLACK
6
CONTINUOUS
10
52.9655
20
0.075
11
55.9426
21
3.54823
0
LINE
8
BLACK
6
CONTINUOUS
10
55.9426
20
3.54823
11
55.9467
21
3.55329
0
LINE
8
BLACK
6
CONTINUOUS
10
55.9467
20
3.55329
11
55.9502
21
3.55615
0
LINE
8
BLACK
6
CONTINUOUS
10
55.9502
20
3.55615
11
55.9534
21
3.55926
0
LINE
8
BLACK
6
CONTINUOUS
10
55.9534
20
3.55926
11
55.9559
21
3.56082
0
LINE
8
BLACK
6
CONTINUOUS
10
55.9559
20
3.56082
11
55.9581
21
3.56266
0
LINE
8
BLACK
6
CONTINUOUS
10
55.9581
20
3.56266
11
55.9621
21
3.56479
0
LINE
8
BLACK
6
CONTINUOUS
10
55.9621
20
3.56479
11
55.9659
21
3.56721
0
LINE
8
BLACK
6
CONTINUOUS
10
55.9659
20
3.56721
11
55.9686
21
3.56826
0
LINE
8
BLACK
6
CONTINUOUS
10
55.9686
20
3.56826
11
55.9712
21
3.56962
0
LINE
8
BLACK
6
CONTINUOUS
10
55.9712
20
3.56962
11
55.9755
21
3.57093
0
LINE
8
BLACK
6
CONTINUOUS
10
55.9755
20
3.57093
11
55.9797
21
3.57257
0
LINE
8
BLACK
6
CONTINUOUS
10
55.9797
20
3.57257
11
55.9825
21
3.57307
0
LINE
8
BLACK
6
CONTINUOUS
10
55.9825
20
3.57307
11
55.9853
21
3.57391
0
LINE
8
BLACK
6
CONTINUOUS
10
55.9853
20
3.57391
11
55.9898
21
3.57436
0
LINE
8
BLACK
6
CONTINUOUS
10
55.9898
20
3.57436
11
55.9942
21
3.57514
0
LINE
8
BLACK
6
CONTINUOUS
10
55.9942
20
3.57514
11
56.0007
21
3.575
0
LINE
8
BLACK
6
CONTINUOUS
10
56.0007
20
3.575
11
61.9963
21
3.575
0
LINE
8
BLACK
6
CONTINUOUS
10
61.9963
20
3.575
11
62
21
3.57536
0
LINE
8
BLACK
6
CONTINUOUS
10
62
20
3.57536
11
62.0037
21
3.575
0
LINE
8
BLACK
6
CONTINUOUS
10
62.0037
20
3.575
11
62.0037
21
3.575
0
LINE
8
BLACK
6
CONTINUOUS
10
62.0037
20
3.575
11
62.0147
21
3.57391
0
LINE
8
BLACK
6
CONTINUOUS
10
62.0147
20
3.57391
11
62.0288
21
3.56962
0
LINE
8
BLACK
6
CONTINUOUS
10
62.0288
20
3.56962
11
62.0419
21
3.56266
0
LINE
8
BLACK
6
CONTINUOUS
10
62.0419
20
3.56266
11
62.0533
21
3.55329
0
LINE
8
BLACK
6
CONTINUOUS
10
62.0533
20
3.55329
11
62.0556
21
3.55043
0
LINE
8
BLACK
6
CONTINUOUS
10
62.0556
20
3.55043
11
65.5311
21
0.075
0
LINE
8
BLACK
6
CONTINUOUS
10
65.5311
20
0.075
11
83.9689
21
0.075
0
LINE
8
BLACK
6
CONTINUOUS
10
83.9689
20
0.075
11
87.925
21
4.03107
0
LINE
8
BLACK
6
CONTINUOUS
10
87.925
20
4.03107
11
87.925
21
54.9689
0
LINE
8
BLACK
6
CONTINUOUS
10
87.925
20
54.9689
11
80.9496
21
61.9444
0
LINE
8
BLACK
6
CONTINUOUS
10
80.9496
20
61.9444
11
80.9467
21
61.9467
0
LINE
8
BLACK
6
CONTINUOUS
10
80.9467
20
61.9467
11
80.9373
21
61.9581
0
LINE
8
BLACK
6
CONTINUOUS
10
80.9373
20
61.9581
11
80.9304
21
61.9712
0
LINE
8
BLACK
6
CONTINUOUS
10
80.9304
20
61.9712
11
80.9304
21
61.9712
0
LINE
8
BLACK
6
CONTINUOUS
10
80.9304
20
61.9712
11
80.9261
21
61.9853
0
LINE
8
BLACK
6
CONTINUOUS
10
80.9261
20
61.9853
11
80.9246
21
62
0
LINE
8
BLACK
6
CONTINUOUS
10
80.9246
20
62
11
80.925
21
62.0037
0
LINE
8
BLACK
6
CONTINUOUS
10
80.925
20
62.0037
11
80.925
21
70.4963
0
LINE
8
BLACK
6
CONTINUOUS
10
80.925
20
70.4963
11
80.9246
21
70.5
0
LINE
8
BLACK
6
CONTINUOUS
10
80.9246
20
70.5
11
80.925
21
70.5037
0
LINE
8
BLACK
6
CONTINUOUS
10
80.925
20
70.5037
11
80.9261
21
70.5147
0
LINE
8
BLACK
6
CONTINUOUS
10
80.9261
20
70.5147
11
80.9304
21
70.5288
0
LINE
8
BLACK
6
CONTINUOUS
10
80.9304
20
70.5288
11
80.9373
21
70.5419
0
LINE
8
BLACK
6
CONTINUOUS
10
80.9373
20
70.5419
11
80.9467
21
70.5533
0
LINE
8
BLACK
6
CONTINUOUS
10
80.9467
20
70.5533
11
80.9496
21
70.5556
0
LINE
8
BLACK
6
CONTINUOUS
10
80.9496
20
70.5556
11
84.425
21
74.0311
0
LINE
8
BLACK
6
CONTINUOUS
10
84.425
20
74.0311
11
84.425
21
129.969
0
LINE
8
BLACK
6
CONTINUOUS
10
84.425
20
129.969
11
77.4689
21
136.925
0
LINE
8
BLACK
6
CONTINUOUS
10
77.4689
20
136.925
11
73.2037
21
136.925
0
LINE
8
BLACK
6
CONTINUOUS
10
73.2037
20
136.925
11
73.2
21
136.925
0
LINE
8
BLACK
6
CONTINUOUS
10
73.2
20
136.925
11
73.1963
21
136.925
0
LINE
8
BLACK
6
CONTINUOUS
10
73.1963
20
136.925
11
73.1853
21
136.926
0
LINE
8
BLACK
6
CONTINUOUS
10
73.1853
20
136.926
11
73.1712
21
136.93
0
LINE
8
BLACK
6
CONTINUOUS
10
73.1712
20
136.93
11
73.1581
21
136.937
0
LINE
8
BLACK
6
CONTINUOUS
10
73.1581
20
136.937
11
73.1467
21
136.947
0
LINE
8
BLACK
6
CONTINUOUS
10
73.1467
20
136.947
11
73.1373
21
136.958
0
LINE
8
BLACK
6
CONTINUOUS
10
73.1373
20
136.958
11
73.1304
21
136.971
0
LINE
8
BLACK
6
CONTINUOUS
10
73.1304
20
136.971
11
73.1261
21
136.985
0
LINE
8
BLACK
6
CONTINUOUS
10
73.1261
20
136.985
11
73.1246
21
137
0
LINE
8
BLACK
6
CONTINUOUS
10
73.1246
20
137
11
73.125
21
137.004
0
LINE
8
BLACK
6
CONTINUOUS
10
73.125
20
137.004
11
73.125
21
137.996
0
LINE
8
BLACK
6
CONTINUOUS
10
73.125
20
137.996
11
73.1246
21
138
0
LINE
8
BLACK
6
CONTINUOUS
10
73.1246
20
138
11
73.1261
21
138.015
0
LINE
8
BLACK
6
CONTINUOUS
10
73.1261
20
138.015
11
73.1304
21
138.029
0
LINE
8
BLACK
6
CONTINUOUS
10
73.1304
20
138.029
11
73.1373
21
138.042
0
LINE
8
BLACK
6
CONTINUOUS
10
73.1373
20
138.042
11
73.1467
21
138.053
0
LINE
8
BLACK
6
CONTINUOUS
10
73.1467
20
138.053
11
73.1581
21
138.063
0
LINE
8
BLACK
6
CONTINUOUS
10
73.1581
20
138.063
11
73.1712
21
138.07
0
LINE
8
BLACK
6
CONTINUOUS
10
73.1712
20
138.07
11
73.1853
21
138.074
0
LINE
8
BLACK
6
CONTINUOUS
10
73.1853
20
138.074
11
73.1963
21
138.075
0
LINE
8
BLACK
6
CONTINUOUS
10
73.1963
20
138.075
11
73.2
21
138.075
0
LINE
8
BLACK
6
CONTINUOUS
10
73.2
20
138.075
11
73.2037
21
138.075
0
LINE
8
BLACK
6
CONTINUOUS
10
73.2037
20
138.075
11
80.225
21
138.075
0
LINE
8
BLACK
6
CONTINUOUS
10
80.225
20
138.075
11
80.225
21
140.425
0
LINE
8
BLACK
6
CONTINUOUS
10
80.225
20
140.425
11
31.475
21
140.425
0
LINE
8
BLACK
6
CONTINUOUS
10
31.475
20
140.425
11
31.475
21
138.075
0
LINE
8
BLACK
6
CONTINUOUS
10
31.475
20
138.075
11
39.7963
21
138.075
0
LINE
8
BLACK
6
CONTINUOUS
10
39.7963
20
138.075
11
39.8
21
138.075
0
LINE
8
BLACK
6
CONTINUOUS
10
43.5304
20
136.971
11
43.5261
21
136.985
0
LINE
8
BLACK
6
CONTINUOUS
10
43.5261
20
136.985
11
43.5246
21
137
0
LINE
8
BLACK
6
CONTINUOUS
10
43.5246
20
137
11
43.525
21
137.004
0
LINE
8
BLACK
6
CONTINUOUS
10
43.525
20
137.004
11
43.525
21
137.996
0
LINE
8
BLACK
6
CONTINUOUS
10
43.525
20
137.996
11
43.5246
21
138
0
LINE
8
BLACK
6
CONTINUOUS
10
43.5246
20
138
11
43.5261
21
138.015
0
LINE
8
BLACK
6
CONTINUOUS
10
43.5261
20
138.015
11
43.5304
21
138.029
0
LINE
8
BLACK
6
CONTINUOUS
10
43.5304
20
138.029
11
43.5373
21
138.042
0
LINE
8
BLACK
6
CONTINUOUS
10
43.5373
20
138.042
11
43.5467
21
138.053
0
LINE
8
BLACK
6
CONTINUOUS
10
43.5467
20
138.053
11
43.5581
21
138.063
0
LINE
8
BLACK
6
CONTINUOUS
10
43.5581
20
138.063
11
43.5712
21
138.07
0
LINE
8
BLACK
6
CONTINUOUS
10
43.5712
20
138.07
11
43.5853
21
138.074
0
LINE
8
BLACK
6
CONTINUOUS
10
43.5853
20
138.074
11
43.5963
21
138.075
0
LINE
8
BLACK
6
CONTINUOUS
10
43.5963
20
138.075
11
43.6
21
138.075
0
LINE
8
BLACK
6
CONTINUOUS
10
43.6
20
138.075
11
43.6037
21
138.075
0
LINE
8
BLACK
6
CONTINUOUS
10
43.6037
20
138.075
11
69.2963
21
138.075
0
LINE
8
BLACK
6
CONTINUOUS
10
69.2963
20
138.075
11
69.3
21
138.075
0
LINE
8
BLACK
6
CONTINUOUS
10
69.3
20
138.075
11
69.3037
21
138.075
0
LINE
8
BLACK
6
CONTINUOUS
10
69.3037
20
138.075
11
69.3147
21
138.074
0
LINE
8
BLACK
6
CONTINUOUS
10
69.3147
20
138.074
11
69.3288
21
138.07
0
LINE
8
BLACK
6
CONTINUOUS
10
69.3288
20
138.07
11
69.3419
21
138.063
0
LINE
8
BLACK
6
CONTINUOUS
10
69.3419
20
138.063
11
69.3533
21
138.053
0
LINE
8
BLACK
6
CONTINUOUS
10
69.3533
20
138.053
11
69.3627
21
138.042
0
LINE
8
BLACK
6
CONTINUOUS
10
69.3627
20
138.042
11
69.3696
21
138.029
0
LINE
8
BLACK
6
CONTINUOUS
10
69.3696
20
138.029
11
69.3739
21
138.015
0
LINE
8
BLACK
6
CONTINUOUS
10
69.3739
20
138.015
11
69.3754
21
138
0
LINE
8
BLACK
6
CONTINUOUS
10
69.3754
20
138
11
69.375
21
137.996
0
LINE
8
BLACK
6
CONTINUOUS
10
69.375
20
137.996
11
69.375
21
137.004
0
LINE
8
BLACK
6
CONTINUOUS
10
69.375
20
137.004
11
69.3754
21
137
0
LINE
8
BLACK
6
CONTINUOUS
10
69.3754
20
137
11
69.3739
21
136.985
0
LINE
8
BLACK
6
CONTINUOUS
10
69.3739
20
136.985
11
69.3696
21
136.971
0
LINE
8
BLACK
6
CONTINUOUS
10
69.3696
20
136.971
11
69.3627
21
136.958
0
LINE
8
BLACK
6
CONTINUOUS
10
69.3627
20
136.958
11
69.3533
21
136.947
0
LINE
8
BLACK
6
CONTINUOUS
10
69.3533
20
136.947
11
69.3419
21
136.937
0
LINE
8
BLACK
6
CONTINUOUS
10
69.3419
20
136.937
11
69.3288
21
136.93
0
LINE
8
BLACK
6
CONTINUOUS
10
69.3288
20
136.93
11
69.3147
21
136.926
0
LINE
8
BLACK
6
CONTINUOUS
10
69.3147
20
136.926
11
69.3037
21
136.925
0
LINE
8
BLACK
6
CONTINUOUS
10
69.3037
20
136.925
11
69.3
21
136.925
0
LINE
8
BLACK
6
CONTINUOUS
10
69.3
20
136.925
11
69.2963
21
136.925
0
LINE
8
BLACK
6
CONTINUOUS
10
69.2963
20
136.925
11
43.6037
21
136.925
0
LINE
8
BLACK
6
CONTINUOUS
10
43.6037
20
136.925
11
43.6
21
136.925
0
LINE
8
BLACK
6
CONTINUOUS
10
43.6
20
136.925
11
43.5853
21
136.926
0
LINE
8
BLACK
6
CONTINUOUS
10
43.5853
20
136.926
11
43.5712
21
136.93
0
LINE
8
BLACK
6
CONTINUOUS
10
43.5712
20
136.93
11
43.5581
21
136.937
0
LINE
8
BLACK
6
CONTINUOUS
10
43.5581
20
136.937
11
43.5467
21
136.947
0
LINE
8
BLACK
6
CONTINUOUS
10
43.5467
20
136.947
11
43.5373
21
136.958
0
LINE
8
BLACK
6
CONTINUOUS
10
43.5373
20
136.958
11
43.5304
21
136.971
0
LINE
8
BLACK
6
CONTINUOUS
10
43.675
20
137.925
11
43.675
21
137.075
0
LINE
8
BLACK
6
CONTINUOUS
10
43.675
20
137.075
11
69.225
21
137.075
0
LINE
8
BLACK
6
CONTINUOUS
10
69.225
20
137.075
11
69.225
21
137.925
0
LINE
8
BLACK
6
CONTINUOUS
10
69.225
20
137.925
11
43.675
21
137.925
0
LINE
8
BLACK
6
CONTINUOUS
10
8.48564
20
13.2177
11
8.80034
21
13.9775
0
LINE
8
BLACK
6
CONTINUOUS
10
8.80034
20
13.9775
11
9.25722
21
14.6613
0
LINE
8
BLACK
6
CONTINUOUS
10
9.25722
20
14.6613
11
9.83872
21
15.2428
0
LINE
8
BLACK
6
CONTINUOUS
10
9.83872
20
15.2428
11
10.5225
21
15.6997
0
LINE
8
BLACK
6
CONTINUOUS
10
10.5225
20
15.6997
11
11.2823
21
16.0144
0
LINE
8
BLACK
6
CONTINUOUS
10
11.2823
20
16.0144
11
12.0888
21
16.1748
0
LINE
8
BLACK
6
CONTINUOUS
10
12.0888
20
16.1748
11
12.9112
21
16.1748
0
LINE
8
BLACK
6
CONTINUOUS
10
12.9112
20
16.1748
11
13.7177
21
16.0144
0
LINE
8
BLACK
6
CONTINUOUS
10
13.7177
20
16.0144
11
14.4775
21
15.6997
0
LINE
8
BLACK
6
CONTINUOUS
10
14.4775
20
15.6997
11
15.1613
21
15.2428
0
LINE
8
BLACK
6
CONTINUOUS
10
15.1613
20
15.2428
11
15.7428
21
14.6613
0
LINE
8
BLACK
6
CONTINUOUS
10
15.7428
20
14.6613
11
16.1997
21
13.9775
0
LINE
8
BLACK
6
CONTINUOUS
10
16.1997
20
13.9775
11
16.5144
21
13.2177
0
LINE
8
BLACK
6
CONTINUOUS
10
16.5144
20
13.2177
11
16.6748
21
12.4112
0
LINE
8
BLACK
6
CONTINUOUS
10
16.6748
20
12.4112
11
16.6748
21
11.5888
0
LINE
8
BLACK
6
CONTINUOUS
10
16.6748
20
11.5888
11
16.5144
21
10.7823
0
LINE
8
BLACK
6
CONTINUOUS
10
16.5144
20
10.7823
11
16.1997
21
10.0225
0
LINE
8
BLACK
6
CONTINUOUS
10
16.1997
20
10.0225
11
15.7428
21
9.33872
0
LINE
8
BLACK
6
CONTINUOUS
10
15.7428
20
9.33872
11
15.1613
21
8.75722
0
LINE
8
BLACK
6
CONTINUOUS
10
15.1613
20
8.75722
11
14.4775
21
8.30034
0
LINE
8
BLACK
6
CONTINUOUS
10
14.4775
20
8.30034
11
13.7177
21
7.98563
0
LINE
8
BLACK
6
CONTINUOUS
10
13.7177
20
7.98563
11
12.9112
21
7.8252
0
LINE
8
BLACK
6
CONTINUOUS
10
12.9112
20
7.8252
11
12.0888
21
7.8252
0
LINE
8
BLACK
6
CONTINUOUS
10
12.0888
20
7.8252
11
11.2823
21
7.98563
0
LINE
8
BLACK
6
CONTINUOUS
10
11.2823
20
7.98563
11
10.5225
21
8.30034
0
LINE
8
BLACK
6
CONTINUOUS
10
10.5225
20
8.30034
11
9.83872
21
8.75722
0
LINE
8
BLACK
6
CONTINUOUS
10
9.83872
20
8.75722
11
9.25722
21
9.33872
0
LINE
8
BLACK
6
CONTINUOUS
10
9.25722
20
9.33872
11
8.80034
21
10.0225
0
LINE
8
BLACK
6
CONTINUOUS
10
8.80034
20
10.0225
11
8.48564
21
10.7823
0
LINE
8
BLACK
6
CONTINUOUS
10
8.48564
20
10.7823
11
8.3252
21
11.5888
0
LINE
8
BLACK
6
CONTINUOUS
10
8.3252
20
11.5888
11
8.3252
21
12.4112
0
LINE
8
BLACK
6
CONTINUOUS
10
8.3252
20
12.4112
11
8.48564
21
13.2177
0
LINE
8
BLACK
6
CONTINUOUS
10
8.64832
20
10.8316
11
8.95027
21
10.1026
0
LINE
8
BLACK
6
CONTINUOUS
10
8.95027
20
10.1026
11
9.38863
21
9.44657
0
LINE
8
BLACK
6
CONTINUOUS
10
9.38863
20
9.44657
11
9.94657
21
8.88863
0
LINE
8
BLACK
6
CONTINUOUS
10
9.94657
20
8.88863
11
10.6026
21
8.45027
0
LINE
8
BLACK
6
CONTINUOUS
10
10.6026
20
8.45027
11
11.3316
21
8.14832
0
LINE
8
BLACK
6
CONTINUOUS
10
11.3316
20
8.14832
11
12.1055
21
7.99438
0
LINE
8
BLACK
6
CONTINUOUS
10
12.1055
20
7.99438
11
12.8945
21
7.99438
0
LINE
8
BLACK
6
CONTINUOUS
10
12.8945
20
7.99438
11
13.6684
21
8.14832
0
LINE
8
BLACK
6
CONTINUOUS
10
13.6684
20
8.14832
11
14.3974
21
8.45027
0
LINE
8
BLACK
6
CONTINUOUS
10
14.3974
20
8.45027
11
15.0534
21
8.88863
0
LINE
8
BLACK
6
CONTINUOUS
10
15.0534
20
8.88863
11
15.6114
21
9.44657
0
LINE
8
BLACK
6
CONTINUOUS
10
15.6114
20
9.44657
11
16.0497
21
10.1026
0
LINE
8
BLACK
6
CONTINUOUS
10
16.0497
20
10.1026
11
16.3517
21
10.8316
0
LINE
8
BLACK
6
CONTINUOUS
10
16.3517
20
10.8316
11
16.5056
21
11.6055
0
LINE
8
BLACK
6
CONTINUOUS
10
16.5056
20
11.6055
11
16.5056
21
12.3945
0
LINE
8
BLACK
6
CONTINUOUS
10
16.5056
20
12.3945
11
16.3517
21
13.1684
0
LINE
8
BLACK
6
CONTINUOUS
10
16.3517
20
13.1684
11
16.0497
21
13.8974
0
LINE
8
BLACK
6
CONTINUOUS
10
16.0497
20
13.8974
11
15.6114
21
14.5534
0
LINE
8
BLACK
6
CONTINUOUS
10
15.6114
20
14.5534
11
15.0534
21
15.1114
0
LINE
8
BLACK
6
CONTINUOUS
10
15.0534
20
15.1114
11
14.3974
21
15.5497
0
LINE
8
BLACK
6
CONTINUOUS
10
14.3974
20
15.5497
11
13.6684
21
15.8517
0
LINE
8
BLACK
6
CONTINUOUS
10
13.6684
20
15.8517
11
12.8945
21
16.0056
0
LINE
8
BLACK
6
CONTINUOUS
10
12.8945
20
16.0056
11
12.1055
21
16.0056
0
LINE
8
BLACK
6
CONTINUOUS
10
12.1055
20
16.0056
11
11.3316
21
15.8517
0
LINE
8
BLACK
6
CONTINUOUS
10
11.3316
20
15.8517
11
10.6026
21
15.5497
0
LINE
8
BLACK
6
CONTINUOUS
10
10.6026
20
15.5497
11
9.94657
21
15.1114
0
LINE
8
BLACK
6
CONTINUOUS
10
9.94657
20
15.1114
11
9.38863
21
14.5534
0
LINE
8
BLACK
6
CONTINUOUS
10
9.38863
20
14.5534
11
8.95027
21
13.8974
0
LINE
8
BLACK
6
CONTINUOUS
10
8.95027
20
13.8974
11
8.64832
21
13.1684
0
LINE
8
BLACK
6
CONTINUOUS
10
8.64832
20
13.1684
11
8.49438
21
12.3945
0
LINE
8
BLACK
6
CONTINUOUS
10
8.49438
20
12.3945
11
8.49438
21
11.6055
0
LINE
8
BLACK
6
CONTINUOUS
10
8.49438
20
11.6055
11
8.64832
21
10.8316
0
LINE
8
BLACK
6
CONTINUOUS
10
10.7512
20
134.486
11
11.0059
21
135.1
0
LINE
8
BLACK
6
CONTINUOUS
10
11.0059
20
135.1
11
11.3756
21
135.654
0
LINE
8
BLACK
6
CONTINUOUS
10
11.3756
20
135.654
11
11.8462
21
136.124
0
LINE
8
BLACK
6
CONTINUOUS
10
11.8462
20
136.124
11
12.3996
21
136.494
0
LINE
8
BLACK
6
CONTINUOUS
10
12.3996
20
136.494
11
13.0145
21
136.749
0
LINE
8
BLACK
6
CONTINUOUS
10
13.0145
20
136.749
11
13.6672
21
136.879
0
LINE
8
BLACK
6
CONTINUOUS
10
13.6672
20
136.879
11
14.3328
21
136.879
0
LINE
8
BLACK
6
CONTINUOUS
10
14.3328
20
136.879
11
14.9855
21
136.749
0
LINE
8
BLACK
6
CONTINUOUS
10
14.9855
20
136.749
11
15.6004
21
136.494
0
LINE
8
BLACK
6
CONTINUOUS
10
15.6004
20
136.494
11
16.1538
21
136.124
0
LINE
8
BLACK
6
CONTINUOUS
10
16.1538
20
136.124
11
16.6244
21
135.654
0
LINE
8
BLACK
6
CONTINUOUS
10
16.6244
20
135.654
11
16.9941
21
135.1
0
LINE
8
BLACK
6
CONTINUOUS
10
16.9941
20
135.1
11
17.2488
21
134.486
0
LINE
8
BLACK
6
CONTINUOUS
10
17.2488
20
134.486
11
17.3787
21
133.833
0
LINE
8
BLACK
6
CONTINUOUS
10
17.3787
20
133.833
11
17.3787
21
133.167
0
LINE
8
BLACK
6
CONTINUOUS
10
17.3787
20
133.167
11
17.2488
21
132.514
0
LINE
8
BLACK
6
CONTINUOUS
10
17.2488
20
132.514
11
16.9941
21
131.9
0
LINE
8
BLACK
6
CONTINUOUS
10
16.9941
20
131.9
11
16.6244
21
131.346
0
LINE
8
BLACK
6
CONTINUOUS
10
16.6244
20
131.346
11
16.1538
21
130.876
0
LINE
8
BLACK
6
CONTINUOUS
10
16.1538
20
130.876
11
15.6004
21
130.506
0
LINE
8
BLACK
6
CONTINUOUS
10
15.6004
20
130.506
11
14.9855
21
130.251
0
LINE
8
BLACK
6
CONTINUOUS
10
14.9855
20
130.251
11
14.3328
21
130.121
0
LINE
8
BLACK
6
CONTINUOUS
10
14.3328
20
130.121
11
13.6672
21
130.121
0
LINE
8
BLACK
6
CONTINUOUS
10
13.6672
20
130.121
11
13.0145
21
130.251
0
LINE
8
BLACK
6
CONTINUOUS
10
13.0145
20
130.251
11
12.3996
21
130.506
0
LINE
8
BLACK
6
CONTINUOUS
10
12.3996
20
130.506
11
11.8462
21
130.876
0
LINE
8
BLACK
6
CONTINUOUS
10
11.8462
20
130.876
11
11.3756
21
131.346
0
LINE
8
BLACK
6
CONTINUOUS
10
11.3756
20
131.346
11
11.0059
21
131.9
0
LINE
8
BLACK
6
CONTINUOUS
10
11.0059
20
131.9
11
10.7512
21
132.514
0
LINE
8
BLACK
6
CONTINUOUS
10
10.7512
20
132.514
11
10.6213
21
133.167
0
LINE
8
BLACK
6
CONTINUOUS
10
10.6213
20
133.167
11
10.6213
21
133.833
0
LINE
8
BLACK
6
CONTINUOUS
10
10.6213
20
133.833
11
10.7512
21
134.486
0
LINE
8
BLACK
6
CONTINUOUS
10
10.9139
20
132.564
11
11.1558
21
131.98
0
LINE
8
BLACK
6
CONTINUOUS
10
11.1558
20
131.98
11
11.507
21
131.454
0
LINE
8
BLACK
6
CONTINUOUS
10
11.507
20
131.454
11
11.9541
21
131.007
0
LINE
8
BLACK
6
CONTINUOUS
10
11.9541
20
131.007
11
12.4797
21
130.656
0
LINE
8
BLACK
6
CONTINUOUS
10
12.4797
20
130.656
11
13.0638
21
130.414
0
LINE
8
BLACK
6
CONTINUOUS
10
13.0638
20
130.414
11
13.6839
21
130.291
0
LINE
8
BLACK
6
CONTINUOUS
10
13.6839
20
130.291
11
14.3161
21
130.291
0
LINE
8
BLACK
6
CONTINUOUS
10
14.3161
20
130.291
11
14.9362
21
130.414
0
LINE
8
BLACK
6
CONTINUOUS
10
14.9362
20
130.414
11
15.5203
21
130.656
0
LINE
8
BLACK
6
CONTINUOUS
10
15.5203
20
130.656
11
16.0459
21
131.007
0
LINE
8
BLACK
6
CONTINUOUS
10
16.0459
20
131.007
11
16.493
21
131.454
0
LINE
8
BLACK
6
CONTINUOUS
10
16.493
20
131.454
11
16.8442
21
131.98
0
LINE
8
BLACK
6
CONTINUOUS
10
16.8442
20
131.98
11
17.0861
21
132.564
0
LINE
8
BLACK
6
CONTINUOUS
10
17.0861
20
132.564
11
17.2095
21
133.184
0
LINE
8
BLACK
6
CONTINUOUS
10
17.2095
20
133.184
11
17.2095
21
133.816
0
LINE
8
BLACK
6
CONTINUOUS
10
17.2095
20
133.816
11
17.0861
21
134.436
0
LINE
8
BLACK
6
CONTINUOUS
10
17.0861
20
134.436
11
16.8442
21
135.02
0
LINE
8
BLACK
6
CONTINUOUS
10
16.8442
20
135.02
11
16.493
21
135.546
0
LINE
8
BLACK
6
CONTINUOUS
10
16.493
20
135.546
11
16.0459
21
135.993
0
LINE
8
BLACK
6
CONTINUOUS
10
16.0459
20
135.993
11
15.5203
21
136.344
0
LINE
8
BLACK
6
CONTINUOUS
10
15.5203
20
136.344
11
14.9362
21
136.586
0
LINE
8
BLACK
6
CONTINUOUS
10
14.9362
20
136.586
11
14.3161
21
136.709
0
LINE
8
BLACK
6
CONTINUOUS
10
14.3161
20
136.709
11
13.6839
21
136.709
0
LINE
8
BLACK
6
CONTINUOUS
10
13.6839
20
136.709
11
13.0638
21
136.586
0
LINE
8
BLACK
6
CONTINUOUS
10
13.0638
20
136.586
11
12.4797
21
136.344
0
LINE
8
BLACK
6
CONTINUOUS
10
12.4797
20
136.344
11
11.9541
21
135.993
0
LINE
8
BLACK
6
CONTINUOUS
10
11.9541
20
135.993
11
11.507
21
135.546
0
LINE
8
BLACK
6
CONTINUOUS
10
11.507
20
135.546
11
11.1558
21
135.02
0
LINE
8
BLACK
6
CONTINUOUS
10
11.1558
20
135.02
11
10.9139
21
134.436
0
LINE
8
BLACK
6
CONTINUOUS
10
10.9139
20
134.436
11
10.7905
21
133.816
0
LINE
8
BLACK
6
CONTINUOUS
10
10.7905
20
133.816
11
10.7905
21
133.184
0
LINE
8
BLACK
6
CONTINUOUS
10
10.7905
20
133.184
11
10.9139
21
132.564
  0
ENDSEC
  0
EOF
